<?xml version="1.0" encoding="iso-8859-1"?>
<!-- Uploaded to: SVG Repo, www.svgrepo.com, Generator: SVG Repo Mixer Tools -->
<svg height="800px" width="800px" version="1.1" id="Layer_1" xmlns="http://www.w3.org/2000/svg" xmlns:xlink="http://www.w3.org/1999/xlink" 
	 viewBox="0 0 512 512" xml:space="preserve">
<path style="fill:#F96232;" d="M362.554,310.648c5.432-13.361,8.449-27.96,8.449-43.27c0-53.735-36.858-87.661-86.668-96.835
	v113.459c-8.081-5.483-17.832-8.689-28.334-8.689c-10.502,0-20.253,3.206-28.334,8.689V170.542
	c-49.811,9.175-86.668,43.1-86.668,96.835c0,15.312,3.018,29.911,8.449,43.27c-17.954,22.953-28.685,51.828-28.685,83.228
	c0,74.69,60.548,103.959,135.238,103.959s135.238-29.268,135.238-103.959C391.238,362.476,380.508,333.6,362.554,310.648z"/>
<circle style="fill:#46AFA7;" cx="255.997" cy="325.84" r="50.529"/>
<path style="fill:#FFDC64;" d="M256,275.311c10.502,0,20.253,3.206,28.334,8.689V14.167h-56.668V284
	C235.747,278.517,245.499,275.311,256,275.311z"/>
<path d="M287.825,439.648h-106.15c-7.823,0-14.167-6.343-14.167-14.167s6.344-14.167,14.167-14.167h106.15
	c7.823,0,14.167,6.343,14.167,14.167S295.648,439.648,287.825,439.648z"/>
<path d="M330.32,439.646c-0.921,0-1.857-0.099-2.763-0.269c-0.907-0.184-1.799-0.467-2.649-0.808
	c-0.863-0.354-1.684-0.793-2.449-1.303c-0.781-0.524-1.503-1.119-2.155-1.771s-1.247-1.374-1.757-2.153
	c-0.509-0.765-0.949-1.587-1.303-2.437c-0.354-0.864-0.622-1.757-0.806-2.649c-0.184-0.921-0.283-1.856-0.283-2.777
	s0.099-1.856,0.283-2.763c0.184-0.907,0.452-1.799,0.806-2.649c0.354-0.864,0.795-1.686,1.303-2.451
	c0.51-0.779,1.105-1.502,1.757-2.153s1.374-1.247,2.155-1.757c0.765-0.51,1.587-0.949,2.449-1.303
	c0.851-0.354,1.743-0.623,2.649-0.808c1.828-0.368,3.712-0.368,5.539,0c0.893,0.184,1.785,0.453,2.649,0.808
	c0.85,0.354,1.672,0.793,2.437,1.303c0.779,0.51,1.502,1.105,2.155,1.757c0.666,0.652,1.247,1.374,1.771,2.153
	c0.509,0.765,0.949,1.587,1.303,2.451c0.354,0.85,0.622,1.743,0.806,2.649c0.184,0.907,0.269,1.842,0.269,2.763
	s-0.086,1.856-0.269,2.777c-0.184,0.893-0.452,1.785-0.806,2.649c-0.354,0.85-0.795,1.672-1.303,2.437
	c-0.524,0.779-1.105,1.502-1.771,2.153c-0.653,0.652-1.376,1.247-2.155,1.771c-0.765,0.51-1.587,0.949-2.437,1.303
	c-0.864,0.34-1.757,0.623-2.649,0.808C332.176,439.547,331.255,439.646,330.32,439.646z"/>
<path d="M378.498,308.375c4.43-13.202,6.671-26.957,6.671-40.999c0-53.417-32.891-93.975-86.668-108.17V63.751h5.903
	c7.823,0,14.167-6.343,14.167-14.167s-6.344-14.167-14.167-14.167h-5.903v-21.25C298.501,6.343,292.157,0,284.334,0h-56.668
	c-7.823,0-14.167,6.343-14.167,14.167v21.25h-5.903c-7.823,0-14.167,6.343-14.167,14.167s6.344,14.167,14.167,14.167h5.903v95.454
	c-53.776,14.195-86.668,54.754-86.668,108.17c0,14.044,2.241,27.798,6.671,40.999c-17.631,25.146-26.907,54.539-26.907,85.499
	c0,39.6,15.84,71.308,45.807,91.701C177.808,502.864,213.631,512,256,512s78.192-9.138,103.597-26.424
	c29.967-20.392,45.807-52.102,45.807-91.701C405.405,362.914,396.128,333.522,378.498,308.375z M236.486,295.182
	c0.295-0.188,0.591-0.377,0.891-0.557c0.363-0.217,0.73-0.429,1.101-0.633c0.322-0.177,0.646-0.344,0.972-0.511
	c0.555-0.285,1.118-0.557,1.69-0.813c0.354-0.159,0.71-0.317,1.07-0.465c0.35-0.143,0.7-0.283,1.055-0.417
	c0.523-0.195,1.05-0.378,1.581-0.55c0.357-0.115,0.717-0.222,1.08-0.326c0.51-0.146,1.021-0.285,1.537-0.409
	c0.276-0.067,0.554-0.132,0.833-0.193c0.73-0.157,1.463-0.3,2.203-0.414c0.126-0.02,0.255-0.031,0.383-0.048
	c0.677-0.095,1.359-0.17,2.044-0.228c0.22-0.018,0.438-0.035,0.657-0.05c0.802-0.052,1.608-0.089,2.418-0.089
	s1.615,0.037,2.417,0.089c0.22,0.014,0.439,0.031,0.657,0.05c0.686,0.057,1.367,0.133,2.044,0.228
	c0.128,0.018,0.256,0.03,0.383,0.048c0.741,0.112,1.473,0.256,2.203,0.414c0.279,0.061,0.557,0.126,0.833,0.193
	c0.516,0.125,1.029,0.262,1.537,0.409c0.361,0.105,0.723,0.211,1.079,0.327c0.531,0.171,1.057,0.354,1.58,0.55
	c0.354,0.133,0.707,0.273,1.055,0.417c0.36,0.147,0.714,0.305,1.068,0.463c0.571,0.256,1.135,0.528,1.69,0.813
	c0.326,0.167,0.65,0.334,0.972,0.511c0.371,0.205,0.738,0.417,1.101,0.633c0.3,0.18,0.595,0.368,0.891,0.557
	c10.119,6.463,16.849,17.787,16.849,30.659c0,20.049-16.312,36.362-36.362,36.362s-36.361-16.313-36.361-36.362
	C219.638,312.968,226.367,301.646,236.486,295.182z M241.833,28.334h28.334v7.083h-28.334V28.334z M270.167,63.751v106.789v92.162
	c-0.221-0.05-0.446-0.084-0.669-0.13c-0.527-0.112-1.058-0.21-1.59-0.309c-0.564-0.105-1.126-0.214-1.694-0.303
	c-0.605-0.096-1.217-0.173-1.828-0.252c-0.506-0.065-1.012-0.14-1.52-0.194c-0.727-0.076-1.461-0.127-2.193-0.181
	c-0.405-0.03-0.809-0.071-1.216-0.092c-1.146-0.061-2.298-0.095-3.458-0.095c-1.16,0-2.313,0.034-3.458,0.095
	c-0.407,0.021-0.809,0.064-1.214,0.092c-0.734,0.052-1.468,0.103-2.194,0.181c-0.509,0.054-1.013,0.128-1.52,0.194
	c-0.611,0.079-1.223,0.156-1.829,0.252c-0.567,0.091-1.129,0.198-1.693,0.303c-0.531,0.099-1.063,0.197-1.59,0.309
	c-0.222,0.047-0.448,0.081-0.669,0.13v-92.162V63.751H270.167z M256,483.666c-45.217,0-121.071-11.665-121.071-89.792
	c0-27.264,8.878-53.026,25.676-74.5c3.127-3.998,3.876-9.362,1.965-14.064c-4.913-12.086-7.405-24.849-7.405-37.935
	c0-37.841,21.483-66.299,58.334-78.625v88.374c-13.586,11.869-22.195,29.3-22.195,48.715c0,35.674,29.022,64.696,64.696,64.696
	s64.696-29.022,64.696-64.696c0-19.414-8.609-36.847-22.195-48.715v-88.374c36.851,12.327,58.334,40.784,58.334,78.625
	c0,13.086-2.492,25.85-7.405,37.935c-1.913,4.702-1.162,10.066,1.965,14.064c16.798,21.474,25.676,47.236,25.676,74.5
	C377.071,472.001,301.217,483.666,256,483.666z"/>
</svg>