<?xml version="1.0" encoding="iso-8859-1"?>
<!-- Uploaded to: SVG Repo, www.svgrepo.com, Generator: SVG Repo Mixer Tools -->
<svg height="800px" width="800px" version="1.1" id="Layer_1" xmlns="http://www.w3.org/2000/svg" xmlns:xlink="http://www.w3.org/1999/xlink" 
	 viewBox="0 0 507.2 507.2" xml:space="preserve">
<path style="fill:#54B265;" d="M300.688,398h-94.4h-44c-0.8,0-2-0.4-2.8-0.4l4.4,16.4h179.6l4.4-16.4c-0.8,0.4-2,0.4-2.8,0.4
	H300.688z"/>
<path style="fill:#EFDC81;" d="M253.488,501.2c49.6,0,88.4-36,89.2-87.2h-178.4C165.088,465.6,203.888,501.2,253.488,501.2z"/>
<path style="fill:#F4EFEF;" d="M45.488,14l110.8,376.8V390c0.8,2.4,3.2,4,5.6,4h182.4c2.4,0,4.8-2,5.6-4.4L460.688,14
	c0.4-1.6,0-4.4-0.8-6c-0.8-1.2-2-2-4.8-2h-97.6h-209.2h-97.6c-2.8,0-4,1.2-4.8,2.4C45.488,10,45.088,12.4,45.488,14z M363.088,20.4
	c0-0.8,0.8-2.8,2-2.8h80c0.8,0,1.2,1.2,1.6,1.6c0.4,0.4,0.4,1.6,0.4,2.4l-106.4,359.6c-0.4,0.8-1.2,0.8-2,0.8h-28.8
	c-0.4,0-1.2,0.8-1.6,0.4c-0.4-0.4-0.4-1.2-0.4-1.6L363.088,20.4z M257.488,382V23.6v-2c0-1.2,0.8-4,2-4h89.6c0.4,0,1.2,1.2,1.6,1.6
	c0.4,0.4,0.4,1.6,0.4,2l-55.2,359.6c0,0.8-0.8,0.8-2,0.8h-34.4L257.488,382L257.488,382z M156.688,19.6c0.4-0.4,0.8-1.6,1.6-1.6
	h85.6c1.2,0,2,2.8,2,4v360.4c0,1.2-1.2,0-2,0h-2h-28.4c-0.8,0-2,0.4-2-0.8l-55.2-360.4C155.888,20.4,156.288,20,156.688,19.6z
	 M60.288,19.6c0.4-0.4,0.8-1.6,1.6-1.6h80c0.8,0,2,1.6,2,2.8l55.2,360.8c0,0.4,0,0.4-0.4,0.8s-0.8,0-1.6,0h-28.8
	c-0.8,0-1.6,0.4-2-0.4L59.888,21.6C59.888,20.8,59.888,20,60.288,19.6z"/>
<path d="M253.488,507.2c-53.6,0-95.2-42-95.2-95.2c0-2.4,1.6-4,4-4h142.8c2.4,0,4,1.6,4,4s-1.6,4-4,4h-138.8
	c2,47.2,39.6,83.2,87.2,83.2s85.2-36.4,87.2-83.2h-4c-2.4,0-4-1.6-4-4s1.6-4,4-4h8c2.4,0,4,1.6,4,4
	C348.688,465.2,307.088,507.2,253.488,507.2z"/>
<path d="M160.288,414c-2.4,0-4-1.6-4-4v-12c0-2.4,1.6-4,4-4s4,1.6,4,4v12C164.288,412,162.688,414,160.288,414z"/>
<path d="M346.688,414c-2.4,0-4-1.6-4-4v-12c0-2.4,1.6-4,4-4s4,1.6,4,4v12C350.688,412,348.688,414,346.688,414z"/>
<path d="M344.688,400h-182.4c-5.2,0-10-3.6-11.6-8.8l-110.8-376c-1.2-3.6-0.4-7.6,2-10.4c2.4-3.2,6-4.8,9.6-4.8h404.4
	c3.6,0,7.2,1.6,9.6,4.8l0,0c2.4,2.8,2.8,6.8,2,10.4l-110.8,376C354.688,396.4,349.888,400,344.688,400z M51.488,8
	c-1.2,0-2.4,0.8-3.2,1.6c-0.8,0.8-0.8,2.4-0.8,3.6l110.8,376c0.4,1.6,2,2.8,3.6,2.8h182.4c1.6,0,3.2-1.2,3.6-2.8l110.8-376
	c0.4-1.2,0-2.4-0.8-3.6s-2-1.6-3.2-1.6H51.488z M338.688,384.4h-28.8c-1.2,0-2.4-0.4-3.2-1.2c-0.8-0.8-1.2-2-0.8-3.2l55.2-360.4
	c0.4-2,2-3.2,4-3.2h80c1.2,0,2.4,0.4,3.2,1.6s0.8,2.4,0.8,3.6L342.688,382C342.288,383.2,340.688,384.4,338.688,384.4z
	 M314.688,376.4h21.2l104-352.4h-71.2L314.688,376.4z M293.888,384.4h-34.4c-2.4,0-4-1.6-4-4V20c0-2.4,1.6-4,4-4h89.6
	c1.2,0,2.4,0.4,3.2,1.2c0.8,0.8,1.2,2,0.8,3.2l-55.2,360.4C297.488,382.8,295.888,384.4,293.888,384.4z M263.488,376.4h27.2
	l54-352.4h-80.8v352.4H263.488z M243.488,384.4h-30.4c-2,0-3.6-1.6-4-3.2l-55.2-360.4c0-1.2,0-2.4,0.8-3.2s2-1.2,3.2-1.2h85.6
	c2.4,0,4,1.6,4,4v360.4C247.488,382.4,245.888,384.4,243.488,384.4z M216.688,376.4h23.2V24h-76.8L216.688,376.4z M197.088,384.4
	h-28.8c-1.6,0-3.2-1.2-4-2.8L57.888,21.2c-0.4-1.2,0-2.4,0.8-3.6s2-1.6,3.2-1.6h80c2,0,3.6,1.6,4,3.2l55.2,360.4
	c0,1.2,0,2.4-0.8,3.2C199.488,383.6,198.288,384.4,197.088,384.4z M171.088,376.4h21.2l-54-352.4h-71.2L171.088,376.4z"/>
</svg>