<?xml version="1.0" encoding="utf-8"?>
<!-- Uploaded to: SVG Repo, www.svgrepo.com, Generator: SVG Repo Mixer Tools -->
<svg width="800px" height="800px" viewBox="0 0 1024 1024" class="icon"  version="1.1" xmlns="http://www.w3.org/2000/svg"><path d="M841.42487 56.677893c69.724454 0 126.245699 56.521245 126.245699 126.2457s-56.521245 126.245699-126.245699 126.245699c-34.846243 0-66.431644-14.130311-89.257532-36.988167l-0.735288-0.735288 86.380319-86.70001h-122.633199v-1.822234c0-69.724454 56.521245-126.245699 126.2457-126.2457z" fill="#FFB578" /><path d="M605.685242 964.310624h-264.799475c0-73.113172 59.270582-132.383753 132.383753-132.383753 73.145141 0 132.415722 59.270582 132.415722 132.383753z" fill="#FF4893" /><path d="M476.498392 547.466442l-238.361088-239.28819 3.900222-3.868252c40.920358 0 40.920358 64.001998 81.872686 64.001998 40.920358 0 40.920358-64.001998 81.840717-64.001998s40.920358 64.001998 81.840717 64.001998c40.952327 0 40.952327-64.001998 81.872685-64.001998 40.920358 0 40.920358 64.001998 81.872686 64.001998l1.822235 1.822234-176.66086 177.33221z" fill="#5FCEFF" /><path d="M476.498392 569.844763a22.36873 22.36873 0 0 1-15.853442-6.58562L99.327776 200.538528a22.378321 22.378321 0 0 1 15.853442-38.171022H837.812369a22.381518 22.381518 0 0 1 15.853442 38.171022l-361.317174 362.720615a22.362336 22.362336 0 0 1-15.850245 6.58562zM169.061821 207.124148l307.436571 308.632213 307.430177-308.632213H169.061821z" fill="#4F46A3" /><path d="M651.337017 390.690319c-32.729893 0-48.38193-24.465899-59.807661-42.330193-10.572158-16.524792-14.990278-21.671805-22.065025-21.671805s-11.496063 5.143817-22.065024 21.671805c-11.425731 17.864294-27.074572 42.330193-59.807661 42.330193-32.713908 0-48.353158-24.462702-59.772496-42.323799-10.568961-16.531185-14.990278-21.678199-22.068221-21.678199-7.074746 0-11.496063 5.147014-22.065025 21.678199-11.419338 17.861097-27.061784 42.323799-59.775692 42.323799-32.729893 0-48.378733-24.465899-59.807661-42.330193-10.568961-16.524792-14.993475-21.671805-22.065025-21.671805a22.378321 22.378321 0 1 1 0-44.756642c32.707515 0 48.349961 24.456308 59.769299 42.311011 10.578552 16.540776 15.006263 21.690987 22.103387 21.690987 7.074746 0 11.49926-5.147014 22.068221-21.678199 11.419338-17.861097 27.058587-42.323799 59.772496-42.323799s48.353158 24.462702 59.775692 42.323799c10.568961 16.531185 14.990278 21.678199 22.065025 21.678199 7.093928 0 11.521638-5.150211 22.103387-21.690987 11.419338-17.854703 27.064981-42.311011 59.769298-42.311011s48.346764 24.453111 59.769299 42.311011c10.581749 16.540776 15.006263 21.690987 22.103387 21.690987a22.378321 22.378321 0 1 1 0 44.756642zM841.42487 331.547613c-39.724717 0-77.048559-15.466617-105.091793-43.554606a22.378321 22.378321 0 0 1 31.668521-31.623765c19.590622 19.619394 45.664562 30.421729 73.423272 30.421729 57.272517 0 103.867378-46.594861 103.867378-103.867378s-46.594861-103.867378-103.867378-103.867379-103.867378 46.594861-103.867379 103.867379a22.378321 22.378321 0 1 1-44.756642 0c0-81.952608 66.671412-148.62402 148.624021-148.624021s148.62402 66.671412 148.62402 148.624021-66.671412 148.62402-148.62402 148.62402zM476.498392 851.971453a22.378321 22.378321 0 0 1-22.378321-22.378321v-282.12669a22.378321 22.378321 0 1 1 44.756642 0v282.12669a22.378321 22.378321 0 0 1-22.378321 22.378321z" fill="#4F46A3" /><path d="M605.685242 986.688945h-264.799475a22.378321 22.378321 0 0 1-22.378321-22.378321c0-85.334932 69.427142-154.758877 154.762074-154.758877 85.354113 0 154.794043 69.423946 154.794043 154.758877a22.378321 22.378321 0 0 1-22.378321 22.378321z m-240.132172-44.756642h215.464869c-10.370753-49.9612-54.743767-87.623914-107.748419-87.623914-52.991864-0.003197-97.35209 37.662714-107.71645 87.623914z" fill="#4F46A3" /></svg>