<svg xmlns="http://www.w3.org/2000/svg" viewBox="0 0 500 500"><g id="freepik--background-complete--inject-3"><path d="M443.92,351.8H263.17a5.87,5.87,0,0,1-5.86-5.86V82.67a5.86,5.86,0,0,1,5.86-5.86H443.92a5.86,5.86,0,0,1,5.86,5.86V345.94A5.87,5.87,0,0,1,443.92,351.8ZM263.17,77.06a5.61,5.61,0,0,0-5.61,5.61V345.94a5.61,5.61,0,0,0,5.61,5.61H443.92a5.61,5.61,0,0,0,5.61-5.61V82.67a5.61,5.61,0,0,0-5.61-5.61Z" style="fill:#ebebeb"></path><path d="M235.49,351.8H54.75a5.87,5.87,0,0,1-5.87-5.86V82.67a5.86,5.86,0,0,1,5.87-5.86H235.49a5.86,5.86,0,0,1,5.86,5.86V345.94A5.86,5.86,0,0,1,235.49,351.8ZM54.75,77.06a5.62,5.62,0,0,0-5.62,5.61V345.94a5.62,5.62,0,0,0,5.62,5.61H235.49a5.61,5.61,0,0,0,5.61-5.61V82.67a5.61,5.61,0,0,0-5.61-5.61Z" style="fill:#ebebeb"></path><rect y="412.87" width="500" height="0.25" style="fill:#e0e0e0"></rect><path d="M399.25,338.1a68,68,0,0,1-36.63,0C349,334.23,334,327,340.69,312.64c5.16-11,22.58-22.38,18.66-32.46s-30-20.17-10.81-38.52,16.2-59,30.44-61a6.11,6.11,0,0,1,2,0,6.18,6.18,0,0,1,2,0c14.23,2,11.28,42.63,30.42,61s-6.86,28.44-10.79,38.52,13.5,21.44,18.66,32.46C427.92,327,412.84,334.23,399.25,338.1Z" style="fill:#f5f5f5"></path><polygon points="384.68 413 377.2 413 379.88 221.63 382 221.63 384.68 413" style="fill:#e0e0e0"></polygon><path d="M380.2,266.34c-11.33-4.28-17.29-19.4-17.54-20l.93-.36c.06.15,6.05,15.35,17,19.47Z" style="fill:#e0e0e0"></path><path d="M368.36,256.5c-1.32,0-6.95-.08-9.35-1.39l.48-.88c2.44,1.34,9.07,1.27,9.13,1.27l0,1Z" style="fill:#e0e0e0"></path><path d="M381.93,303.94l-.36-.93c10.92-4.13,16.9-19.32,17-19.47l.94.36C399.22,284.54,393.25,299.66,381.93,303.94Z" style="fill:#e0e0e0"></path><path d="M393.76,294.1h-.27v-1c.06,0,6.7.07,9.13-1.27l.48.88C400.72,294,395.09,294.1,393.76,294.1Z" style="fill:#e0e0e0"></path><path d="M382.05,247.87l-.6-.8c.08-.07,8.44-6.4,12.34-16.08l.92.38C390.71,241.31,382.13,247.8,382.05,247.87Z" style="fill:#e0e0e0"></path><path d="M106.2,338.1a68,68,0,0,1-36.63,0C56,334.23,40.91,327,47.64,312.64c5.16-11,22.58-22.38,18.66-32.46S36.35,260,55.49,241.66s16.2-59,30.44-61a6.11,6.11,0,0,1,2,0,6.18,6.18,0,0,1,2,0c14.22,2,11.28,42.63,30.42,61s-6.86,28.44-10.79,38.52,13.5,21.44,18.65,32.46C134.87,327,119.79,334.23,106.2,338.1Z" style="fill:#f5f5f5"></path><polygon points="91.63 413 84.15 413 86.83 221.63 88.95 221.63 91.63 413" style="fill:#e0e0e0"></polygon><path d="M87.15,266.34c-11.33-4.28-17.3-19.4-17.54-20l.93-.36c.06.15,6,15.35,17,19.47Z" style="fill:#e0e0e0"></path><path d="M75.31,256.5c-1.33,0-7-.08-9.35-1.39l.48-.88c2.44,1.34,9.06,1.27,9.13,1.27l0,1Z" style="fill:#e0e0e0"></path><path d="M88.87,303.94l-.35-.93c10.92-4.13,16.9-19.32,17-19.47l.93.36C106.17,284.54,100.2,299.66,88.87,303.94Z" style="fill:#e0e0e0"></path><path d="M100.71,294.1h-.28l0-1c.06,0,6.69.07,9.13-1.27l.48.88C107.67,294,102,294.1,100.71,294.1Z" style="fill:#e0e0e0"></path><path d="M89,247.87l-.6-.8c.08-.07,8.43-6.4,12.33-16.08l.93.38C97.65,241.31,89.08,247.8,89,247.87Z" style="fill:#e0e0e0"></path><path d="M239.88,151.53c.16-2.95-.55-6.17-3.86-7.63-6.87-3.06-11.83,2.65-11.83,2.65s-2.67-18.68-17.47-19-17.05,18-17.05,18-5.94-6.28-12-4.66c-3.88,1-6.86,6.67-8.51,10.59Z" style="fill:#ebebeb"></path><path d="M112.15,113.65c-.05-2.93-.92-18.08-13-18.05-13.37,0-14.87,15.46-14.87,15.46s-3.13-7.63-11.49-6.39c-5.74.85-8.48,7.18-9.16,9Z" style="fill:#ebebeb"></path><path d="M322.19,110c-.06-2.93-.92-18.08-13-18-13.37,0-14.87,15.47-14.87,15.47s-3.13-7.64-11.49-6.4c-5.74.85-8.49,7.18-9.16,9Z" style="fill:#ebebeb"></path><circle cx="163.41" cy="104.62" r="18.62" transform="translate(-26.12 146.19) rotate(-45)" style="fill:#f5f5f5"></circle><path d="M184.19,413c0-3.93-1.05-24.18-22.79-27.34-24.1-3.5-34.22,19.5-34.22,19.5s-4.21-8.71-11.68-9.5c-11-1.16-16.56,9.5-16.56,9.5S82,386.66,61,390.16c-18.52,3.09-23.82,19.1-24.81,22.84Z" style="fill:#ebebeb"></path><path d="M245.55,413.12s-12.63-12.89-8.42-16.05S248,407.93,248,407.93s.51-12,5.72-11.28-2.16,16.47-2.16,16.47Z" style="fill:#ebebeb"></path><path d="M347.06,413.12s12.63-12.89,8.42-16.05-10.91,10.86-10.91,10.86-.51-12-5.72-11.28S341,413.12,341,413.12Z" style="fill:#ebebeb"></path><path d="M452.63,412.87c-1.51-4.88-6-12.82-19.09-15.55-19.46-4-27,10.46-27,10.46-18.76-6.68-29.26-.19-34.28,5.09Z" style="fill:#ebebeb"></path></g><g id="freepik--Shadow--inject-3"><ellipse cx="254.71" cy="447.54" rx="215.08" ry="6.17" style="fill:#f5f5f5"></ellipse></g><g id="freepik--Tree--inject-3"><path d="M372.69,153.61s11.67,34.7,36.22,29.28c15.45-3.41,12.51-16.62,12.51-16.62s20.42,10.26,31.72-7c11.18-17.07-2.72-29.72-2.72-29.72s13.9,5.06,18-5.55c3.33-8.54-17.35-16-17.35-16Z" style="fill:#407BFF"></path><path d="M372.69,153.61s11.67,34.7,36.22,29.28c15.45-3.41,12.51-16.62,12.51-16.62s20.42,10.26,31.72-7c11.18-17.07-2.72-29.72-2.72-29.72s13.9,5.06,18-5.55c3.33-8.54-17.35-16-17.35-16Z" style="fill:#fff;opacity:0.30000000000000004"></path><path d="M390.85,157.89S402,298.81,384.36,447.55h33.39S399.92,218.7,405.46,147Z" style="fill:#407BFF"></path><path d="M404.67,209.67s11.08-2.72,17.82-9.89c8-8.48,13.86-13.24,22.17-23.12,0,0-9.49,16.9-16.44,24.94C421.78,209,405,222.9,405,222.9Z" style="fill:#407BFF"></path><path d="M395.35,190.87s-10.61-4.23-16.29-12.26c-6.72-9.5-11.89-15-18.75-26,0,0,7.06,18,12.83,27,5.34,8.25,20.83,23.94,20.83,23.94Z" style="fill:#407BFF"></path><path d="M362.41,100.79S340,90.17,329.75,111.05,346.08,149,346.08,149s-11.75,19.09,8.52,27.7c16.63,7.06,28.32-11.42,28.32-11.42s16.9,13,28.47-10.51S407.26,74.33,362.41,100.79Z" style="fill:#407BFF"></path><path d="M362.41,100.79S340,90.17,329.75,111.05,346.08,149,346.08,149s-11.75,19.09,8.52,27.7c16.63,7.06,28.32-11.42,28.32-11.42s16.9,13,28.47-10.51S407.26,74.33,362.41,100.79Z" style="fill:#fff;opacity:0.30000000000000004"></path><path d="M374.61,44.31S343.66,61,340.76,80.9s23,23.54,23,23.54-18.64,29.93-5.69,41.28,34.27-6.5,34.27-6.5,19.38,25.86,38.6,18.88,14.46-31.92,14.46-31.92,36.35-21.46,17.83-48.27S418.7,61.12,418.7,61.12,408.62,25.94,374.61,44.31Z" style="fill:#407BFF"></path><path d="M374.61,44.31S343.66,61,340.76,80.9s23,23.54,23,23.54-18.64,29.93-5.69,41.28,34.27-6.5,34.27-6.5,19.38,25.86,38.6,18.88,14.46-31.92,14.46-31.92,36.35-21.46,17.83-48.27S418.7,61.12,418.7,61.12,408.62,25.94,374.61,44.31Z" style="fill:#fff;opacity:0.5"></path><path d="M447,447.81c-1.37-4.41-5.65-14.81-15.88-16.59-13-2.26-20.11,12-20.11,12s-6.76-8.64-22.53-7.67a22.46,22.46,0,0,0-19.27,12.23Z" style="fill:#407BFF"></path><path d="M447,447.81c-1.37-4.41-5.65-14.81-15.88-16.59-13-2.26-20.11,12-20.11,12s-6.76-8.64-22.53-7.67a22.46,22.46,0,0,0-19.27,12.23Z" style="fill:#fff;opacity:0.5"></path></g><g id="freepik--Plants--inject-3"><path d="M349.39,446s-12.24-12.49-8.16-15.55S351.8,441,351.8,441s.5-11.59,5.55-10.93-2.09,16-2.09,16Z" style="fill:#407BFF"></path><path d="M349.39,446s-12.24-12.49-8.16-15.55S351.8,441,351.8,441s.5-11.59,5.55-10.92-2.09,16-2.09,16Z" style="fill:#fff;opacity:0.5"></path><path d="M99.51,439.16s-16.3-20.91-9.2-23.66,11.63,14.16,11.63,14.16,1.59-22.37,8.25-20.66c6.48,1.67-4,23.41-4,23.41s4.59-9.25,10.59-9-7.09,14.92-7.09,14.92Z" style="fill:#407BFF"></path><g style="opacity:0.4"><path d="M99.51,439.16s-16.3-20.91-9.2-23.66,11.63,14.16,11.63,14.16,1.59-22.37,8.25-20.66c6.48,1.67-4,23.41-4,23.41s4.59-9.25,10.59-9-7.09,14.92-7.09,14.92Z" style="fill:#fff"></path></g><path d="M170.29,449.31c2.37-3,5.58-7.64,2.8-7.75-4.12-.17-7.27,6.17-7.27,6.17s7.22-14.91,2.78-16.06S163,445.84,163,445.84s-3.11-11.6-8-9.71c-3.44,1.33,1.12,8.86,4.1,13.18Z" style="fill:#407BFF"></path><g style="opacity:0.4"><path d="M170.29,449.31c2.37-3,5.58-7.64,2.8-7.75-4.12-.17-7.27,6.17-7.27,6.17s7.22-14.91,2.78-16.06S163,445.84,163,445.84s-3.11-11.6-8-9.71c-3.44,1.33,1.12,8.86,4.1,13.18Z" style="fill:#fff"></path></g><path d="M58,449.31s9.61-17.4,22.26-19.79c16-3,24,8.48,24,8.48s5.37-7.38,14.5-6.21c6.52.84,11.05,6.21,11.05,6.21s10.95-8,19.7-3.25c8.33,4.52,10.28,14.56,10.28,14.56Z" style="fill:#407BFF"></path></g><g id="freepik--character-2--inject-3"><path d="M298.72,188.86c-1.77,8.92-3.93,17.56-6.41,26.28-1.24,4.35-2.58,8.68-4.07,13a138.15,138.15,0,0,1-5.16,13.14,46.48,46.48,0,0,1-3.88,7.05,25.21,25.21,0,0,1-1.59,2.06,15.81,15.81,0,0,1-2.73,2.49,9.25,9.25,0,0,1-4.73,1.65,10.25,10.25,0,0,1-2.89-.21,13.86,13.86,0,0,1-3.19-1.09A26.93,26.93,0,0,1,260.2,251c-1.09-.77-2.08-1.54-3-2.31-1.9-1.55-3.65-3.11-5.34-4.71-3.36-3.19-6.51-6.46-9.55-9.81s-6-7.16-8.79-10.75l6.32-5.87c6.91,5.36,13.84,10.9,20.77,15.82,1.73,1.22,3.45,2.41,5.15,3.46l1,.63c.36-.82.73-1.71,1.07-2.61,1.4-3.7,2.6-7.78,3.79-11.87s2.26-8.29,3.33-12.5c2.12-8.39,4.13-17,6.16-25.36Z" style="fill:#ce7a63"></path><path d="M429.76,327.09s-5.28,1.88-13.21,4.52c-21.42,7.12-61.69,17.14-70.06,12.83-11.2-5.76-25.5-50-30.45-61.14l32.4-10.5,12.67,48.25a105.12,105.12,0,0,1,26.69-1.12c5.95.58,16,.47,24.54.2s15.72-.7,15.72-.7Z" style="fill:#ce7a63"></path><path d="M429.76,327.09s-5.28,1.88-13.21,4.52c-1.19-3-3-7.71-4.21-11.48,8.6-.28,15.72-.7,15.72-.7Z" style="fill:#407BFF"></path><path d="M427.08,325.72s-2.37.64-2.82,2.61,3.42,5.35,4.92,11.3c.85,3.38,1.32,4.45,1.46,6.07.2,2.34,2.07,3.94,4.2,4.95h0l5.4-33.77s-5-.85-7.68-.13-7,1.41-6.77,2.3C427,323,428.9,324.71,427.08,325.72Z" style="fill:#263238"></path><path d="M291.11,255.51s20.1,53.33,26.23,58.3c4.19,3.4,40.93-16.84,40.93-16.84l-6.35-35.39Z" style="fill:#263238"></path><path d="M317.92,316.46s32.91-9.67,42.44-19.9l-2.19-7.13s-21.11,14-44.21,19.8Z" style="fill:#407BFF"></path><path d="M284,339.3c1.73,8.08-5.16,42-14.37,81.55-1.17,5-2.34,10.08-3.49,15.18l-8.65,0s-.06-6-.05-15.34c0-29.4.69-91.47,5.82-99.24,6.76-10.23,41.55-62.66,41.55-62.66l38-2.16S351.11,289.28,284,339.3Z" style="fill:#ce7a63"></path><path d="M269.65,420.85c-1.17,5-2.34,10.08-3.49,15.18l-8.65,0s-.06-6-.05-15.34C259.87,420.61,265.89,420.53,269.65,420.85Z" style="fill:#407BFF"></path><path d="M260.62,435s-1.3-2.08-3.32-1.93-4.11,4.84-9.35,8c-3,1.8-3.87,2.57-5.37,3.17-2.19.88-3.16,3.14-3.5,5.47h0L272.94,445s-.65-5-2.13-7.39-3.41-6.29-4.18-5.78C263.17,434.12,262.13,436.47,260.62,435Z" style="fill:#263238"></path><path d="M308.15,255.34l-27.93,35.49S300,314.56,312,320.07c6.35,2.91,41.2-40.51,41.77-48.22s-3.23-17.43-3.23-17.43Z" style="fill:#263238"></path><path d="M308.5,313.56l-.32-.39c23.65-19,38.62-52.53,38.77-52.87l.46.2C347.26,260.84,332.24,294.45,308.5,313.56Z" style="fill:#fff"></path><path d="M278.37,291.47s20.88,27.21,33.86,32.41l5.86-4.62s-20.64-14.64-34.41-34.09Z" style="fill:#407BFF"></path><path d="M351.64,260.27c-4.8,10.19-61.22,8.73-61.43-2.55-.16-7.88-6.42-61.68-9.26-70.05s14.84-16.49,14.84-16.49l6-2.27s13.35-2.75,22.22-1.15c.29.06.59.11.88.18,6.18,1.38,12.68,14.87,17,28.36a131.47,131.47,0,0,1,4.23,16.51C349.09,229.34,353.61,256.06,351.64,260.27Z" style="fill:#407BFF"></path><path d="M341.9,196.3c-.56,0-1.18.06-1.83.06-5.52,0-13.56-1.19-17-8-4.16-8.3-.89-16.9.93-20.57.29.06.59.11.88.18,5.13,1.15,10.47,10.61,14.61,21.51C340.35,191.69,341.15,194,341.9,196.3Z" style="fill:#ce7a63"></path><path d="M341.9,196.3c-.56,0-1.18.06-1.83.06l-14.74-11.82,14.17,4.91C340.35,191.69,341.15,194,341.9,196.3Z" style="opacity:0.2"></path><path d="M344.66,264.75l-.49-.07c3.3-23-9.91-68.26-10.05-68.72l.48-.14C334.74,196.28,348,241.63,344.66,264.75Z" style="fill:#fff;opacity:0.2"></path><path d="M289.07,196.26l.91,12.21s18.93.33,29.73-4.29c0,0-.2-10.25-2.33-13C317.38,191.18,307.66,195.16,289.07,196.26Z" style="fill:#fff;opacity:0.2"></path><path d="M293.77,175.56c1.2.66,3,2.27,6.13,1.33,4-1.18,6.52-7.1,6.26-8.95-3.49-4.92-7-10.84-8.24-16.15l-3.08,6.3-4.47,9.15h0l.3.35c.13.16.24.33.36.49a12.76,12.76,0,0,1,.81,1.21,10.94,10.94,0,0,1,.54,1,14.62,14.62,0,0,1,1.12,3.19A13.4,13.4,0,0,1,293.77,175.56Z" style="fill:#ce7a63"></path><g style="opacity:0.2"><path d="M293.49,173.5c2.42-1.75,4.74-5.39,4.51-8.54-.15-2.05-1.57-3.58-2.36-3.45l-3.81,7.79a10.94,10.94,0,0,1,.54,1A14.62,14.62,0,0,1,293.49,173.5Z"></path></g><path d="M295.84,141.8a12.07,12.07,0,0,0-20.11-4.23c-6.48,6.74-2.24,19.21,2.73,25.7,5.52,7.2,17.14,6.46,20.49-2.51,2.23-6,0-10.66-3.11-19" style="fill:#ce7a63"></path><path d="M271.46,144.41s-2.62,3.26-3.66,1.41,1.21-3.74,1.21-3.74-5.24-2.62-3.95-4.39,4.43-1.28,4.43-1.28-1.37-5.4,1.12-6a5.69,5.69,0,0,1,4.51,1.13s-.16-4.35,2.25-5.31,3.74,1.69,3.74,1.69,2.5-3.14,4.82-2.66,2.15,3.22,2.15,3.22,3-3.3,4.74-2.17a4.16,4.16,0,0,1,1.61,3.54s2.18-1.29,3.06.8a2.39,2.39,0,0,1-1,3.11s1.93.71,2.09,2-2,2.52-4,.83S277.3,139,271.46,144.41Z" style="fill:#263238"></path><path d="M271.1,144.77s-.3,4.74,1.34,5.72,9.7-9.26,23.73-7.93c0,0,.27-4.06-1.58-5.91S277.53,138.1,271.1,144.77Z" style="fill:#407BFF"></path><path d="M276.71,140.5s.91,2.66,2.51,2.1,0-2.49,0-2.49,3.64,2.74,4.8,1.29-1.9-3.09-1.9-3.09S278.35,138,276.71,140.5Z" style="fill:#263238"></path><path d="M286.08,160.86a1.54,1.54,0,1,1-2.16-1A1.72,1.72,0,0,1,286.08,160.86Z" style="fill:#fff"></path><path d="M301.71,145.64a8.38,8.38,0,0,1-1.65,6.22c-1.8,2.33-4.46,1.14-5.43-1.48-.87-2.37-1-6.43,1.54-7.82s5.15.38,5.54,3.08" style="fill:#ce7a63"></path><path d="M284.87,150.67c.29.65.18,1.34-.25,1.53s-1-.18-1.31-.84-.18-1.35.25-1.54,1,.19,1.31.85" style="fill:#263238"></path><path d="M277.62,153.79c.3.66.18,1.35-.25,1.54s-1-.19-1.3-.85-.19-1.34.24-1.53,1,.18,1.31.84" style="fill:#263238"></path><path d="M274.41,152.54a.34.34,0,0,0,.21-.28,1.79,1.79,0,0,1,.61-1.31,2.12,2.12,0,0,1,1.39-.39.34.34,0,0,0,.39-.3.34.34,0,0,0-.3-.39,2.73,2.73,0,0,0-1.92.53,2.47,2.47,0,0,0-.87,1.79.34.34,0,0,0,.32.38A.25.25,0,0,0,274.41,152.54Z" style="fill:#263238"></path><path d="M285.72,147.78a.4.4,0,0,0,.12-.1.34.34,0,0,0,0-.49,2.8,2.8,0,0,0-1.9-.61,2.52,2.52,0,0,0-1.71,1,.35.35,0,0,0,.06.49.34.34,0,0,0,.49-.06,1.89,1.89,0,0,1,1.23-.76,2.12,2.12,0,0,1,1.38.45A.38.38,0,0,0,285.72,147.78Z" style="fill:#263238"></path><path d="M280.4,152.17a7.82,7.82,0,0,1-.58,4.42c-1,2.12,2.77,1.9,2.77,1.9Z" style="fill:#ba4d3c"></path><path d="M386.59,203.1a12,12,0,0,1-1.18,4.28,25.52,25.52,0,0,1-2.43,3.79c-.81,1-1.6,2-2.41,2.87-1.62,1.76-3.24,3.35-4.88,4.87-3.29,3-6.64,5.81-10.08,8.45s-6.92,5.16-10.6,7.55l-5.78-6.78c5.47-6.28,11.16-12.54,16.15-18.84,1.24-1.56,2.43-3.14,3.45-4.67.39-.56.74-1.1,1.06-1.62a24.41,24.41,0,0,0-2.48-1.62,52.77,52.77,0,0,0-4.82-2.42c-1.72-.79-3.52-1.53-5.36-2.24-3.69-1.4-7.51-2.73-11.39-4s-7.8-2.42-11.76-3.55-8-2.25-11.81-3.28l4.18-17.51c4.38,1,8.49,2.07,12.68,3.28s8.32,2.52,12.46,4,8.26,3,12.37,4.87a79.07,79.07,0,0,1,12.47,6.67,37.75,37.75,0,0,1,3.22,2.4,25.16,25.16,0,0,1,3.35,3.3,15.68,15.68,0,0,1,3.15,5.74A12.36,12.36,0,0,1,386.59,203.1Z" style="fill:#ce7a63"></path><polygon points="349.48 228.03 341.6 235.37 352.27 243.45 356.24 233.33 349.48 228.03" style="fill:#ce7a63"></polygon><path d="M347.5,230.22a17.59,17.59,0,0,0-4.81,1.15c-1.66.83-2.3,6.81-2.3,6.81l2-3.05Z" style="fill:#ce7a63"></path><path d="M342.34,234.1s-3.67,4.35-2.91,6.28,3,.63,3,.63,0,2.06.89,2.52a1.48,1.48,0,0,0,1.83-.24s0,1.77.92,2.1a3,3,0,0,0,1.87,0s-.35.72,1.17,1.15,3.2-3.08,3.2-3.08Z" style="fill:#ce7a63"></path><g style="opacity:0.2"><path d="M344.57,232s-2.24,1.92-3.68,3.3c-.07.35-.12.69-.2,1,1-1,3.15-3,4.25-3.85a.31.31,0,0,0-.37-.49Z"></path></g><path d="M296.9,184.79a7.25,7.25,0,0,1-5.43-2c-2.83-2.9-2.29-7.82-2.26-8l.49,0c0,.05-.53,4.89,2.13,7.62,1.42,1.46,3.5,2.07,6.19,1.83,11.35-1,12.67-16.51,12.68-16.67l.5,0c0,.16-1.36,16-13.14,17.13C297.66,184.77,297.28,184.79,296.9,184.79Z" style="fill:#fff;opacity:0.2"></path><path d="M239.79,218.86s.44-6.61-1-8.1-8.47,3.71-8,5.35,5.19-1.43,5.19-1.43-.35,4.17,1.65,4.9S239.79,218.86,239.79,218.86Z" style="fill:#ce7a63"></path><path d="M237.87,212s-2.43-5.66-4.9-5.75-7.39,5-8,7.57,2.05,5.8,4.69,5.22S237.87,212,237.87,212Z" style="fill:#ce7a63"></path><path d="M229.58,217.94s-.15,4.21,3.39,5.34,6.84-4.88,6.84-4.88-1.77-5.64-3.86-6.2S229.58,217.94,229.58,217.94Z" style="fill:#ce7a63"></path><path d="M233.4,215.55a2.66,2.66,0,0,0,1,.17,10,10,0,0,0,3.3-.79.28.28,0,0,0,.15-.37.29.29,0,0,0-.37-.15c-.73.32-2.84,1-3.87.62a.86.86,0,0,1-.49-.46c-.5-1.22,2.41-3,3.47-3.59a.28.28,0,0,0,.12-.38.29.29,0,0,0-.38-.12,14.63,14.63,0,0,0-2.46,1.64c-1-.32-2-2.26-2.37-3a.28.28,0,0,0-.37-.14.29.29,0,0,0-.14.37c.13.29,1.18,2.53,2.44,3.2a2.29,2.29,0,0,0-.86,2.13,1.39,1.39,0,0,1-.06.19c-2.65-.41-3.52-3.32-3.53-3.35a.28.28,0,1,0-.54.16c0,.13,1,3.21,3.88,3.73a7.35,7.35,0,0,1-1.41,2h0c-2.8-.29-3.72-3.36-3.73-3.39a.28.28,0,0,0-.35-.19.29.29,0,0,0-.19.35c0,.13.94,3.14,3.78,3.71a7,7,0,0,1-.8.65.28.28,0,0,0-.07.39.27.27,0,0,0,.23.12.25.25,0,0,0,.16,0,9.35,9.35,0,0,0,2.88-3.33,3.54,3.54,0,0,0,1.2,3.62.23.23,0,0,0,.14,0,.28.28,0,0,0,.24-.13.29.29,0,0,0-.09-.39s-1.33-.89-.91-3.22Z" style="opacity:0.2"></path></g><g id="freepik--character-1--inject-3"><path d="M219.64,427.44,209.53,429h0c-.1-.28-2.22-5.69-5.56-13.7-.31-.72-.62-1.46-.94-2.22-6.22-14.82-16-36.92-25-52.65a109,109,0,0,1-7.56-17.65l-.24-.68c-12.07-34.94-22.8-93.37-22.8-93.37s35.43-11.26,41.54,0,4.51,94.86,4.51,94.86c7.72,9.85,17.17,45.64,22.35,67.16C218.16,420.57,219.64,427.44,219.64,427.44Z" style="fill:#ff8b7b"></path><path d="M205.69,419.44c2.33,5.66,3.75,9.29,3.83,9.52h0l10.11-1.53s-1.16-5.41-3.08-13.5A92.28,92.28,0,0,0,205.69,419.44Z" style="fill:#407BFF"></path><path d="M191,343.17l-2.51,8.93-18-9.36-.24-.68Z" style="opacity:0.2"></path><path d="M195.48,296.22l-6.52.6-3.14-7.52-.6,8.24s-22,6-29,4.23l-.8-5L153,281.37l40.56-28.25Z" style="fill:#407BFF"></path><path d="M193.55,253.12c.83,3.51-2.65,22.34-21.1,34.89-9,6.09-13.88,8-17,8.71L153,281.37Z" style="opacity:0.2"></path><path d="M140.75,187c.56,7.57.78,15,.65,22.54-.05,3.77-.21,7.56-.51,11.39a90.9,90.9,0,0,1-1.57,11.81,30,30,0,0,1-2.12,6.79,14.62,14.62,0,0,1-1.25,2.18,10.57,10.57,0,0,1-2.59,2.68,7.76,7.76,0,0,1-2,1,7.14,7.14,0,0,1-1,.27,8.08,8.08,0,0,1-.86.11,6.71,6.71,0,0,1-.74,0c-.22,0-.46,0-.67,0s-.75-.09-1-.15a11.81,11.81,0,0,1-2.67-.91,21.91,21.91,0,0,1-3.23-1.9c-.91-.64-1.73-1.28-2.52-1.92-1.58-1.29-3-2.59-4.44-3.91a170,170,0,0,1-15.22-16.74L104.2,215c2.86,2.22,5.72,4.52,8.61,6.71s5.75,4.39,8.63,6.42c1.44,1,2.87,2,4.28,2.87.7.43,1.39.83,2,1.17a9.87,9.87,0,0,0,1.62.71c.17.06.27,0,0-.06a1.58,1.58,0,0,0-.36-.06l-.33,0a2.9,2.9,0,0,0-.4,0,2.85,2.85,0,0,0-.51.07,4.21,4.21,0,0,0-.68.17l-.34.13a3.52,3.52,0,0,0-.4.18,3.61,3.61,0,0,0-.39.22l-.28.19a3.92,3.92,0,0,0-.75.64s0-.07,0-.25a24.54,24.54,0,0,0,.79-3.82,100.06,100.06,0,0,0,.68-10.13c.08-3.51.06-7.08,0-10.66-.13-7.15-.36-14.46-.65-21.57Z" style="fill:#ff8b7b"></path><path d="M105.17,216.18s.4-6.05-.93-7.4-7.74,3.39-7.32,4.89,4.74-1.32,4.74-1.32-.33,3.82,1.51,4.48S105.17,216.18,105.17,216.18Z" style="fill:#ff8b7b"></path><path d="M103.42,209.92s-2.23-5.17-4.49-5.25-6.75,4.58-7.3,6.91,1.87,5.31,4.29,4.78S103.42,209.92,103.42,209.92Z" style="fill:#ff8b7b"></path><path d="M95.83,215.33s-.14,3.86,3.1,4.89,6.26-4.47,6.26-4.47-1.62-5.15-3.53-5.66S95.83,215.33,95.83,215.33Z" style="fill:#ff8b7b"></path><path d="M99.32,213.15a2.47,2.47,0,0,0,.92.15,9.09,9.09,0,0,0,3-.72.25.25,0,0,0,.14-.33.27.27,0,0,0-.34-.14c-.67.29-2.6.95-3.54.57a.77.77,0,0,1-.45-.43c-.45-1.11,2.21-2.78,3.17-3.28a.25.25,0,0,0-.23-.45A12.76,12.76,0,0,0,99.76,210c-.88-.29-1.86-2.06-2.17-2.75a.26.26,0,0,0-.34-.13.26.26,0,0,0-.12.34c.11.26,1.07,2.31,2.22,2.92a2.07,2.07,0,0,0-.78,1.94,1,1,0,0,1-.06.18c-2.42-.37-3.22-3-3.23-3.06a.25.25,0,0,0-.49.14c0,.13.88,2.94,3.55,3.41a6.48,6.48,0,0,1-1.29,1.81h0c-2.56-.26-3.4-3.06-3.41-3.09a.26.26,0,0,0-.32-.18.26.26,0,0,0-.17.32,5,5,0,0,0,3.45,3.39,7.61,7.61,0,0,1-.73.6.26.26,0,0,0-.07.36.26.26,0,0,0,.21.11.3.3,0,0,0,.15,0,8.66,8.66,0,0,0,2.64-3.05,3.22,3.22,0,0,0,1.09,3.31.22.22,0,0,0,.13,0,.25.25,0,0,0,.22-.12.25.25,0,0,0-.08-.35,2.84,2.84,0,0,1-.84-2.95Z" style="opacity:0.2"></path><path d="M190.38,241.42c-19.54,10.61-47.76,12.09-47.89,7.27-.51-18.65-6.44-30-11.15-35-9.56-10.16-4.51-11-4.6-17.43a15,15,0,0,0-.55-3.65c-.08-.28-.15-.56-.22-.84-1.64-7,0-12.88,6.47-15.64.27-.12.55-.23.84-.34,2.07-.75,1.72-1.2,3.83-1.86l.1,0a126.53,126.53,0,0,1,16.95-3.74l2.9-.48c1.27-.2,2.53-.39,3.75-.54l1.85-.21a11.34,11.34,0,0,1,12.58,11.24q0,6,.54,11.62A130.07,130.07,0,0,0,190.38,241.42Z" style="fill:#263238"></path><path d="M132.44,176.14c-.8,2.17-2.82,8-4.84,12.49a28,28,0,0,1-1.63,3.15C124.33,184.79,126,178.9,132.44,176.14Z" style="fill:#ff8b7b"></path><path d="M154.16,170.17c-1.17,4.16-4.27,13.43-9.24,16.14-6.14,3.35-11.75-4.58-7.71-12.4A126.53,126.53,0,0,1,154.16,170.17Z" style="fill:#ff8b7b"></path><path d="M175.78,191.8c-4.94,3.53-10.56,5.36-13.78,3.15-6.66-4.58-2.46-21.29-1.19-25.8l1.85-.21a11.34,11.34,0,0,1,12.58,11.24c0,1.56,0,3.09.11,4.6.06,2.1.19,4.15.36,6.15C175.73,191.22,175.75,191.51,175.78,191.8Z" style="fill:#ff8b7b"></path><path d="M175.71,190.93l-9.94-7,9.58.82C175.41,186.88,175.54,188.93,175.71,190.93Z" style="opacity:0.2"></path><path d="M130.21,190.6,129,201.19s15.42.36,25-3.6c0,0,1.45-8.89.14-11.28C154.14,186.31,145.57,189.72,130.21,190.6Z" style="fill:#fff;opacity:0.2"></path><path d="M152.94,171.22a68.46,68.46,0,0,0-6.66,8.1A15,15,0,0,1,144,181.9c-2.27,2.09-4.47,3.52-5.45,2.41a3.93,3.93,0,0,1-.57-.81,5.89,5.89,0,0,1,.44-6.33,5.66,5.66,0,0,0,.5-6.14,16.14,16.14,0,0,0-2.05-3.31l1.07-2.18,5.89-10.14C145.05,160.83,148,169.39,152.94,171.22Z" style="fill:#ff8b7b"></path><path d="M138.94,171a16.14,16.14,0,0,0-2.05-3.31l1.07-2.18,4.53-.53A10.82,10.82,0,0,1,138.94,171Z" style="opacity:0.2"></path><path d="M143.79,145.42c2,8.93,3,12.67,0,18.42-4.6,8.65-15.8,9.06-20.36.89-4.11-7.36-6.66-20.72.76-26.63s17.66-1.61,19.64,7.32" style="fill:#ff8b7b"></path><path d="M119.46,151.18s-7.17-5.32,2.32-13.2c0,0,6.56-8.85,16.86-5.23s12.74,15.28,6.78,26.56c0,0-.66-9.14-4.45-11.05s-7.8-3.44-6.84-6.5c0,0-11.26,4.71-12.86,1.81C120.58,144.1,119.42,145.33,119.46,151.18Z" style="fill:#263238"></path><path d="M181.45,161.28c-16.9,3.73-14.56-8.36-19.55-8.53s-2.34,5.81-7.32,7.17-9.22-5.89-9.22-5.89l.49-2.49c0-.34,2.36-2.25,4.05-1s4.19-4.26,9.5-6.84,9.74,1.37,12.23,8.32S181.45,161.28,181.45,161.28Z" style="fill:#263238"></path><path d="M125.61,162.33s4.59-1.65,5.71-3.5c0,0,.38,3.5-2,4.59A2.82,2.82,0,0,1,125.61,162.33Z" style="fill:#fff"></path><path d="M129,151.58c.2.72,0,1.4-.48,1.54s-1-.34-1.22-1.05,0-1.41.48-1.54,1,.34,1.22,1.05" style="fill:#263238"></path><path d="M121.8,153.84c.21.71,0,1.4-.47,1.54s-1-.34-1.22-1.06,0-1.4.48-1.53,1,.34,1.21,1.05" style="fill:#263238"></path><path d="M120.81,152.77H119s1.26,1.08,1.86,0" style="fill:#263238"></path><path d="M124.83,154.26s-.57,1.9-1.29,3.61a.94.94,0,0,0,.68,1.31,9,9,0,0,0,2,.11Z" style="fill:#ff5652"></path><path d="M148.65,150.61a5.87,5.87,0,0,1-2.57,4.09c-1.79,1.1-3.37-.76-3.45-3.09-.06-2.1.79-5.2,2.87-5.33s3.5,2.15,3.15,4.33" style="fill:#ff8b7b"></path><path d="M130.8,149.39a.5.5,0,0,1-.32-.15,3.43,3.43,0,0,0-2.9-1.22.45.45,0,0,1-.5-.37.44.44,0,0,1,.36-.5,4.37,4.37,0,0,1,3.7,1.51.44.44,0,0,1,0,.62.5.5,0,0,1-.3.11" style="fill:#263238"></path><path d="M118.47,151.44a.43.43,0,0,1-.33-.05.45.45,0,0,1-.15-.6,4.37,4.37,0,0,1,3.34-2.18.44.44,0,0,1,0,.88,3.44,3.44,0,0,0-2.63,1.75.39.39,0,0,1-.27.2" style="fill:#263238"></path><path d="M128,150.51H126.1s1.26,1.09,1.86,0" style="fill:#263238"></path><path d="M120.06,139.56s-7.33.43-13.13,1.4c-4.5.75.79,3.93,12.49,3.94s17.47-4.51,17.47-4.51C129.12,140.43,122.48,140.31,120.06,139.56Z" style="fill:#407BFF"></path><path d="M120.06,139.56s-7.33.43-13.13,1.4c-4.5.75.79,3.93,12.49,3.94s17.47-4.51,17.47-4.51C129.12,140.43,122.48,140.31,120.06,139.56Z" style="opacity:0.2"></path><path d="M119.42,139.6a5.82,5.82,0,0,1,4.92-4.18,53.34,53.34,0,0,0,18.73,0,6.26,6.26,0,0,1,4.33,5.48A81.84,81.84,0,0,1,119.42,139.6Z" style="fill:#407BFF"></path><path d="M119.42,139.6a5.82,5.82,0,0,1,4.92-4.18,53.34,53.34,0,0,0,18.73,0,6.26,6.26,0,0,1,4.33,5.48A81.84,81.84,0,0,1,119.42,139.6Z" style="fill:#fff;opacity:0.1"></path><path d="M175.37,331.38l15,8.89-5.92,5.39s-4.37-.92-11.12-2.58h0c-23.68-5.81-76.58-20.67-72.57-36.57,4.42-17.53,33-45.33,44.16-55.89l45.46-9.2c14.51,25.7-56.74,65.35-59.68,63.51Z" style="fill:#ff8b7b"></path><path d="M190.38,340.27l-5.92,5.39s-4.37-.92-11.12-2.58l-1.34-.33,3.37-11.37Z" style="fill:#407BFF"></path><path d="M142.49,248.68,126,267.85l20.49,11.71,6.5-2.41-1.64,5.31,11.1,9s43.16-28,28-50C176.92,244.47,157.88,240.45,142.49,248.68Z" style="fill:#407BFF"></path><path d="M158.33,285.64l-.26-.43c21.82-13.31,28.2-24.65,29.71-31.81,1.47-7-1.37-11.17-1.4-11.22l.41-.28c.12.17,3,4.39,1.48,11.58S180.32,272.22,158.33,285.64Z" style="fill:#fff;opacity:0.2"></path><path d="M212.82,428s-1.95-1.48-3.79-.64-2.15,6-5.95,10.8c-2.15,2.73-2.72,3.76-3.92,4.85-1.73,1.59-1.85,4.05-1.36,6.35h0l30-16.33s-2.37-4.48-4.58-6.17-5.4-4.7-6-3.95C214.88,426.21,214.74,428.78,212.82,428Z" style="fill:#263238"></path><path d="M186.94,343.16s-2.42-.4-3.65,1.21.91,6.29-.17,12.33c-.62,3.42-.64,4.59-1.18,6.12-.79,2.22.27,4.45,1.78,6.25h0l18.86-28.53s-4.2-2.84-7-3.3-7-1.61-7.1-.69C187.94,340.65,189,343,186.94,343.16Z" style="fill:#263238"></path><path d="M215.92,192c0,.23,0,.47-.08.71s-.08.48-.12.64a10.61,10.61,0,0,1-.63,1.83,12.39,12.39,0,0,1-1.27,2.12,22.66,22.66,0,0,1-2.26,2.62,53.38,53.38,0,0,1-4.33,3.78c-1.42,1.14-2.86,2.21-4.31,3.23a172.79,172.79,0,0,1-17.82,11l-4.21-6.12c2.49-2.25,5.08-4.46,7.55-6.75s5-4.51,7.36-6.78c1.18-1.14,2.35-2.28,3.46-3.42.59-.61,1.16-1.23,1.7-1.84-.72-.31-1.52-.61-2.34-.89-1.4-.5-2.89-.92-4.4-1.37-3-.87-6.22-1.59-9.42-2.31-6.39-1.4-13-2.63-19.44-3.83l2.27-14.82a178.26,178.26,0,0,1,20.67,4.13c3.43.88,6.84,1.92,10.3,3.11,1.73.6,3.46,1.29,5.23,2.06a41.54,41.54,0,0,1,5.49,2.86,19.77,19.77,0,0,1,3.07,2.37,11.49,11.49,0,0,1,.84.86,11.76,11.76,0,0,1,.88,1.1l.44.66c.14.25.29.51.42.77a9.46,9.46,0,0,1,.39.89l.17.47a9.13,9.13,0,0,1,.27,1.06,5.33,5.33,0,0,1,.11,1C215.93,191.38,215.93,191.7,215.92,192Z" style="fill:#ff8b7b"></path><polygon points="182.75 210.68 174.41 213.57 179.73 223.18 186.06 216.9 182.75 210.68" style="fill:#ff8b7b"></polygon><path d="M180.54,211.67a14.26,14.26,0,0,0-4-.74c-1.53.08-4,4.35-4,4.35l2.5-1.63Z" style="fill:#ff8b7b"></path><path d="M175.38,212.86s-4.2,2-4.26,3.75,2,1.45,2,1.45-.65,1.57-.16,2.19a1.21,1.21,0,0,0,1.45.43s-.6,1.32,0,1.88a2.44,2.44,0,0,0,1.4.62s-.5.42.5,1.24,3.42-1.24,3.42-1.24Z" style="fill:#ff8b7b"></path><g style="opacity:0.2"><path d="M177.76,212s-2.32.7-3.86,1.26c-.17.23-.32.48-.49.71,1.06-.4,3.36-1.23,4.46-1.48a.26.26,0,0,0,.19-.3A.25.25,0,0,0,177.76,212Z"></path></g></g></svg>
