<?xml version="1.0" encoding="iso-8859-1"?>
<!-- Uploaded to: SVG Repo, www.svgrepo.com, Generator: SVG Repo Mixer Tools -->
<svg version="1.1" id="Layer_1" xmlns="http://www.w3.org/2000/svg" xmlns:xlink="http://www.w3.org/1999/xlink" 
	 viewBox="0 0 512 512" xml:space="preserve">
<g>
	<path style="fill:#F96232;" d="M283.364,226.212v91.976c-7.137-6.75-16.763-10.898-27.364-10.898
		c-10.601,0-20.225,4.148-27.364,10.898v-91.976c-62.767,12.686-110.024,68.151-110.024,134.66
		c0,75.877,61.511,137.388,137.388,137.388s137.388-61.511,137.388-137.388C393.388,294.365,346.131,238.899,283.364,226.212z"/>
</g>
<path d="M181.975,424.504c-3.627,0-7.158-1.469-9.713-4.025c-0.646-0.632-1.209-1.333-1.717-2.088
	c-0.495-0.742-0.921-1.539-1.264-2.364c-0.343-0.837-0.605-1.702-0.783-2.569c-0.179-0.892-0.261-1.8-0.261-2.693
	c0-0.892,0.082-1.8,0.261-2.678c0.179-0.881,0.44-1.746,0.783-2.569c0.343-0.838,0.769-1.635,1.264-2.377
	c0.508-0.756,1.072-1.456,1.717-2.088c0.632-0.632,1.333-1.209,2.075-1.704c0.756-0.495,1.552-0.921,2.377-1.264
	c0.824-0.343,1.69-0.618,2.569-0.797c1.772-0.357,3.6-0.357,5.372,0c0.879,0.179,1.745,0.453,2.569,0.797
	c0.824,0.343,1.621,0.769,2.377,1.264c0.742,0.495,1.456,1.072,2.088,1.704c0.632,0.632,1.209,1.333,1.704,2.088
	c0.495,0.742,0.921,1.539,1.264,2.377c0.343,0.824,0.605,1.689,0.783,2.569c0.179,0.879,0.275,1.786,0.275,2.678
	c0,0.893-0.096,1.801-0.275,2.693c-0.179,0.867-0.44,1.732-0.783,2.569c-0.343,0.826-0.769,1.623-1.264,2.364
	c-0.495,0.756-1.072,1.456-1.704,2.088c-0.632,0.632-1.346,1.209-2.088,1.704c-0.756,0.493-1.552,0.921-2.377,1.264
	c-0.824,0.343-1.69,0.618-2.569,0.783C183.775,424.41,182.87,424.504,181.975,424.504z"/>
<path style="fill:#F96232;" d="M345.302,360.872c0,49.241-40.061,89.302-89.302,89.302c-16.169,0-31.349-4.319-44.446-11.866"/>
<path d="M256,463.913c-18.01,0-35.751-4.737-51.306-13.702c-6.574-3.789-8.833-12.189-5.044-18.763
	c3.788-6.574,12.188-8.834,18.763-5.044c11.387,6.562,24.385,10.031,37.585,10.031c41.666,0,75.563-33.898,75.563-75.563
	c0-7.587,6.151-13.739,13.739-13.739s13.739,6.152,13.739,13.739C359.041,417.689,312.817,463.913,256,463.913z"/>
<g>
	<rect x="217.871" y="13.739" style="fill:#FFDC64;" width="76.25" height="62.278"/>
	<circle style="fill:#FFDC64;" cx="255.996" cy="347.138" r="39.843"/>
</g>
<path style="fill:#4DA081;" d="M256,307.292c10.599,0,20.225,4.148,27.364,10.898V76.021h-54.726v242.167
	C235.775,311.438,245.401,307.292,256,307.292z"/>
<path d="M297.102,215.441V89.427c6.155-1.362,10.762-6.842,10.762-13.406V58.534c6.887-0.743,12.251-6.571,12.251-13.655
	s-5.364-12.912-12.251-13.655V13.739C307.864,6.152,301.713,0,294.125,0h-76.25c-7.588,0-13.739,6.152-13.739,13.739v17.485
	c-6.887,0.743-12.251,6.571-12.251,13.655s5.364,12.912,12.251,13.655v17.487c0,6.564,4.607,12.045,10.762,13.406v126.014
	c-64.381,18.165-110.024,77.591-110.024,145.432C104.873,444.205,172.669,512,256,512s151.127-67.796,151.127-151.127
	C407.127,293.032,361.484,233.606,297.102,215.441z M269.625,226.212v69.09c-0.056-0.015-0.115-0.025-0.172-0.04
	c-0.964-0.25-1.941-0.47-2.925-0.668c-0.295-0.058-0.595-0.106-0.892-0.159c-0.745-0.136-1.492-0.258-2.246-0.363
	c-0.338-0.047-0.675-0.088-1.014-0.129c-0.761-0.091-1.528-0.164-2.299-0.223c-0.294-0.022-0.585-0.049-0.879-0.067
	c-1.058-0.062-2.123-0.103-3.196-0.103c-1.073,0-2.138,0.041-3.196,0.103c-0.294,0.018-0.587,0.045-0.879,0.067
	c-0.771,0.058-1.537,0.132-2.299,0.223c-0.339,0.04-0.676,0.082-1.014,0.129c-0.754,0.104-1.503,0.228-2.246,0.363
	c-0.297,0.055-0.596,0.102-0.892,0.159c-0.985,0.198-1.961,0.418-2.925,0.668c-0.056,0.015-0.115,0.025-0.172,0.04v-69.09V89.76
	h27.248v136.452H269.625z M238.784,327.563c0.295-0.26,0.589-0.523,0.896-0.769c0.356-0.286,0.727-0.555,1.099-0.823
	c0.298-0.216,0.595-0.436,0.901-0.637c0.4-0.262,0.813-0.504,1.227-0.746c0.302-0.176,0.602-0.359,0.911-0.522
	c0.429-0.228,0.872-0.43,1.316-0.635c0.316-0.146,0.628-0.3,0.949-0.431c0.445-0.184,0.905-0.341,1.363-0.5
	c0.337-0.117,0.669-0.245,1.01-0.348c0.457-0.139,0.929-0.246,1.397-0.36c0.353-0.085,0.703-0.185,1.061-0.257
	c0.492-0.098,0.996-0.159,1.498-0.229c0.343-0.048,0.681-0.114,1.028-0.147c0.71-0.07,1.432-0.098,2.158-0.11
	c0.136-0.001,0.271-0.019,0.408-0.019c0.137,0,0.271,0.018,0.408,0.019c0.725,0.011,1.448,0.04,2.158,0.11
	c0.345,0.033,0.684,0.099,1.026,0.147c0.501,0.069,1.006,0.132,1.498,0.229c0.357,0.071,0.706,0.17,1.059,0.257
	c0.468,0.114,0.94,0.221,1.399,0.36c0.341,0.103,0.673,0.231,1.01,0.348c0.457,0.159,0.916,0.315,1.363,0.5
	c0.321,0.132,0.633,0.286,0.949,0.431c0.442,0.203,0.886,0.407,1.316,0.635c0.308,0.163,0.607,0.345,0.91,0.522
	c0.415,0.242,0.828,0.484,1.228,0.747c0.306,0.202,0.602,0.422,0.9,0.636c0.371,0.268,0.743,0.536,1.099,0.823
	c0.305,0.246,0.599,0.51,0.896,0.769c5.435,4.787,8.886,11.776,8.886,19.57c0,14.394-11.71,26.104-26.104,26.104
	s-26.104-11.71-26.104-26.104C229.896,339.339,233.349,332.35,238.784,327.563z M231.614,27.478h48.773v34.805h-48.773V27.478z
	 M256,484.522c-68.18,0-123.649-55.469-123.649-123.649c0-52.859,33.846-99.49,82.547-116.655v68.587
	c-7.784,9.304-12.479,21.276-12.479,34.328c0,29.545,24.036,53.581,53.581,53.581s53.581-24.036,53.581-53.581
	c0-13.052-4.696-25.022-12.479-34.328v-68.587c48.703,17.165,82.547,63.798,82.547,116.655
	C379.649,429.053,324.18,484.522,256,484.522z"/>
</svg>