<?xml version="1.0" encoding="iso-8859-1"?>
<!-- Uploaded to: SVG Repo, www.svgrepo.com, Generator: SVG Repo Mixer Tools -->
<svg version="1.1" id="Layer_1" xmlns="http://www.w3.org/2000/svg" xmlns:xlink="http://www.w3.org/1999/xlink" 
	 viewBox="0 0 512 512" xml:space="preserve">
<path d="M152.509,414.61c-3.581,0-7.094-1.456-9.627-3.99c-0.626-0.626-1.198-1.321-1.689-2.071
	c-0.489-0.734-0.912-1.524-1.253-2.354c-0.34-0.817-0.613-1.675-0.79-2.546c-0.177-0.871-0.257-1.77-0.257-2.655
	c0-0.884,0.082-1.784,0.257-2.669c0.177-0.858,0.449-1.716,0.79-2.546c0.34-0.817,0.749-1.607,1.239-2.342
	c0.504-0.749,1.076-1.443,1.702-2.07c0.626-0.626,1.321-1.2,2.071-1.702c0.735-0.49,1.524-0.912,2.354-1.253
	c0.818-0.34,1.675-0.599,2.546-0.776c1.757-0.354,3.554-0.354,5.311,0c0.871,0.177,1.729,0.436,2.545,0.776
	c0.831,0.34,1.62,0.763,2.356,1.253c0.749,0.502,1.443,1.076,2.07,1.702c0.628,0.626,1.2,1.321,1.689,2.07
	c0.49,0.735,0.912,1.525,1.253,2.342c0.34,0.831,0.613,1.689,0.776,2.546c0.177,0.885,0.272,1.785,0.272,2.669
	c0,0.885-0.095,1.785-0.272,2.655c-0.163,0.872-0.436,1.731-0.776,2.546c-0.34,0.831-0.763,1.62-1.253,2.354
	c-0.489,0.75-1.061,1.445-1.689,2.071c-0.626,0.626-1.321,1.198-2.07,1.689c-0.735,0.489-1.525,0.912-2.356,1.253
	c-0.817,0.34-1.674,0.598-2.545,0.775C154.293,414.516,153.394,414.61,152.509,414.61z"/>
<path d="M215.147,373.759c-0.885,0-1.785-0.094-2.655-0.272c-0.871-0.177-1.729-0.434-2.546-0.775
	c-0.831-0.34-1.619-0.764-2.354-1.253c-0.75-0.49-1.445-1.062-2.071-1.689s-1.198-1.321-1.689-2.071
	c-0.489-0.734-0.912-1.524-1.253-2.354c-0.34-0.817-0.613-1.675-0.775-2.546c-0.178-0.872-0.272-1.77-0.272-2.655
	c0-3.595,1.456-7.094,3.99-9.626c0.626-0.626,1.321-1.2,2.071-1.702c0.735-0.49,1.524-0.912,2.354-1.253
	c0.818-0.34,1.675-0.599,2.546-0.776c1.743-0.354,3.554-0.354,5.311,0c0.871,0.177,1.729,0.436,2.545,0.776
	c0.831,0.34,1.62,0.763,2.356,1.253c0.749,0.502,1.443,1.076,2.07,1.702c0.628,0.626,1.2,1.321,1.689,2.07
	c0.49,0.735,0.912,1.525,1.253,2.342c0.34,0.831,0.613,1.689,0.776,2.546c0.177,0.885,0.272,1.785,0.272,2.669
	c0,0.885-0.095,1.785-0.272,2.655c-0.163,0.872-0.436,1.731-0.776,2.546c-0.34,0.831-0.763,1.62-1.253,2.354
	c-0.489,0.75-1.061,1.445-1.689,2.071c-0.626,0.626-1.321,1.198-2.07,1.689c-0.735,0.489-1.525,0.912-2.356,1.253
	c-0.817,0.34-1.674,0.598-2.545,0.775C216.931,373.665,216.032,373.759,215.147,373.759z"/>
<path d="M277.786,332.908c-0.885,0-1.785-0.094-2.655-0.272c-0.871-0.177-1.729-0.434-2.56-0.775
	c-0.818-0.34-1.607-0.764-2.342-1.253c-0.75-0.49-1.445-1.062-2.071-1.689c-0.626-0.626-1.198-1.321-1.689-2.071
	c-0.504-0.734-0.912-1.524-1.253-2.354c-0.34-0.817-0.613-1.675-0.775-2.546c-0.178-0.871-0.272-1.77-0.272-2.655
	c0-0.884,0.094-1.784,0.272-2.669c0.162-0.858,0.434-1.716,0.775-2.546c0.34-0.817,0.749-1.607,1.253-2.342
	c0.49-0.749,1.062-1.443,1.689-2.07c0.626-0.641,1.321-1.2,2.071-1.702c0.735-0.49,1.524-0.912,2.342-1.253
	c0.831-0.34,1.689-0.599,2.56-0.776c4.412-0.885,9.123,0.558,12.283,3.731c0.628,0.626,1.2,1.321,1.689,2.07
	c0.49,0.735,0.912,1.525,1.253,2.342c0.34,0.831,0.613,1.689,0.776,2.546c0.177,0.885,0.272,1.785,0.272,2.669
	c0,0.885-0.095,1.785-0.272,2.655s-0.436,1.731-0.776,2.546c-0.34,0.831-0.763,1.62-1.253,2.354
	c-0.489,0.75-1.061,1.445-1.689,2.071C284.88,331.452,281.367,332.908,277.786,332.908z"/>
<path style="fill:#FFDC64;" d="M427.969,144.985c-10.443-0.444-20.498,2.545-28.933,8.575l-77.309,55.239
	c-1.373,0.985-3.011,1.505-4.722,1.505c-3.293,0-6.25-1.957-7.538-4.984L272.637,86.607c-18.846-44.341-62.149-72.99-110.325-72.99
	H47.929c-4.513,0-8.17,3.658-8.17,8.17v42.217c0,2.624,2.138,4.747,4.762,4.728l117.793-0.647c26.285,0,49.913,15.632,60.197,39.827
	l36.827,118.709c9.866,23.184,32.497,38.151,57.668,38.151c13.168,0,25.774-4.047,36.456-11.704l38.678-27.637L234.406,443.915
	H47.929c-4.513,0-8.17,3.658-8.17,8.17v38.128c0,4.513,3.658,8.17,8.17,8.17h210.634c2.67,0,5.169-1.309,6.701-3.494l198.66-277.176
	c5.982-8.576,8.867-18.801,8.227-29.36C470.727,164.894,451.45,145.983,427.969,144.985z"/>
<rect x="52.017" y="68.575" style="fill:#4DA081;" width="47.389" height="375.34"/>
<path d="M485.742,187.53c-1.831-30.2-26.955-54.864-57.194-56.15c-13.533-0.58-26.465,3.264-37.428,11.099l-71.126,50.82
	L285.643,82.572c-0.136-0.438-0.294-0.87-0.474-1.291C264.184,31.905,215.959,0,162.313,0H47.93
	C35.917,0,26.143,9.774,26.143,21.787v42.217c0,4.927,1.925,9.552,5.422,13.022c1.966,1.951,4.3,3.382,6.833,4.273v351.225
	c-7.243,3.544-12.255,10.969-12.255,19.561v38.128c0,12.013,9.774,21.787,21.787,21.787h210.634c7.066,0,13.711-3.444,17.796-9.219
	l198.633-277.136c0.033-0.046,0.067-0.093,0.099-0.142C482.889,214.326,486.573,201.196,485.742,187.53z M138.892,81.83v278.31
	c0,7.519,6.098,13.617,13.617,13.617s13.617-6.098,13.617-13.617V81.842C180,82.858,192.67,89.381,201.53,99.667v219.624
	c0,7.519,6.098,13.617,13.617,13.617c7.519,0,13.617-6.098,13.617-13.617V174.035l17.566,56.621c0.136,0.44,0.295,0.873,0.475,1.296
	c4.122,9.687,10.078,18.196,17.363,25.196v21.292c0,7.519,6.098,13.617,13.617,13.617c7.519,0,13.617-6.098,13.617-13.617v-4.469
	c8.071,2.872,16.704,4.419,25.601,4.419c7.739,0,15.318-1.149,22.55-3.382L227.442,430.298H113.02V81.973L138.892,81.83z
	 M85.786,82.19v348.108H65.632V82.233l7.786-0.042h12.367V82.19z M452.801,209.859L255.764,484.766H53.377v-27.234h46.027h135.003
	c4.374,0,8.481-2.101,11.039-5.646l157.733-218.484c3.903-5.409,3.316-12.849-1.39-17.575c-4.706-4.729-12.144-5.35-17.567-1.475
	l-38.695,27.651c-8.354,5.987-18.215,9.153-28.521,9.153c-19.486,0-37.029-11.466-44.879-29.267L235.514,103.88
	c-0.136-0.438-0.294-0.87-0.474-1.291c-12.421-29.234-40.97-48.121-72.802-48.121L53.377,54.956V27.234h108.936
	c42.477,0,80.686,25.133,97.529,64.084l36.619,118.036c0.138,0.441,0.295,0.876,0.477,1.299c3.433,8.06,11.309,13.267,20.067,13.267
	c4.579,0,8.956-1.403,12.638-4.043l77.311-55.24c5.977-4.27,13.03-6.382,20.438-6.047c16.479,0.701,30.169,14.137,31.168,30.589
	C459.01,196.631,457.02,203.78,452.801,209.859z"/>
</svg>