<?xml version="1.0" encoding="iso-8859-1"?>
<!-- Uploaded to: SVG Repo, www.svgrepo.com, Generator: SVG Repo Mixer Tools -->
<!DOCTYPE svg PUBLIC "-//W3C//DTD SVG 1.1//EN" "http://www.w3.org/Graphics/SVG/1.1/DTD/svg11.dtd">
<svg height="800px" width="800px" version="1.1" id="Capa_1" xmlns="http://www.w3.org/2000/svg" xmlns:xlink="http://www.w3.org/1999/xlink" 
	 viewBox="0 0 447.49 447.49" xml:space="preserve">
<g>
	<path style="fill:none;" d="M353.191,117.506c3.421,0,6.205-2.783,6.205-6.205c0-3.422-2.783-6.205-6.205-6.205
		c-3.421,0-6.205,2.783-6.205,6.205C346.986,114.723,349.769,117.506,353.191,117.506z"/>
	<path style="fill:none;" d="M398.729,192.079c7.72,0,14-6.28,14-14c0-7.72-6.28-14-14-14c-7.72,0-14,6.28-14,14
		C384.729,185.798,391.009,192.079,398.729,192.079z"/>
	<path style="fill:none;" d="M323.141,369.58c-6.433,6.434-6.433,16.901,0,23.336c4.117,4.116,9.883,5.584,15.19,4.431
		c-6.853-9.129-10.828-20.002-11.461-31.496L323.141,369.58z"/>
	<path style="fill:#6ECCAE;" d="M275.045,306.817c5.362-5.353,11.319-10.316,17.806-14.787c4.547-3.134,10.774-1.988,13.909,2.559
		c3.134,4.547,1.988,10.774-2.559,13.908c-4.33,2.984-8.368,6.221-12.095,9.658c3.171,1.341,6.178,2.051,9.067,2.051
		c7.544,0,15.862-4.804,26.176-15.118c25.304-25.304,18.979-36.401-21.618-76.998c-21.932-21.933-37.024-31.713-48.935-31.713
		c-7.753,0-15.622,4.257-24.762,13.396c-5.14,5.14-9.047,9.936-11.295,14.935c-0.217,0.908-0.553,1.761-0.99,2.545
		c-4.409,13.37,3.175,28.784,30.605,56.214C259.652,292.763,267.776,300.711,275.045,306.817z"/>
	<path style="fill:#FFEBD4;" d="M410.924,334.86v45.129h7.805c7.495-14.524,4.896-32.469-6.947-44.311
		C411.502,335.398,411.211,335.131,410.924,334.86z"/>
	<path style="fill:#FFEBD4;" d="M357.944,389.515c2.733,2.733,5.822,4.99,9.167,6.753v-6.278c0-5.522,4.477-10,10-10h13.813v-54.996
		c-1.989-0.317-4.014-0.487-6.066-0.487c-10.157,0-19.717,3.966-26.919,11.169c-7.201,7.2-11.166,16.759-11.165,26.916
		C346.773,372.75,350.74,382.311,357.944,389.515z"/>
	<path d="M264.421,366.528c1.881-11.418,6.714-22.62,13.965-32.844c7.566,4.247,14.947,6.522,22.788,6.522
		c13.196,0,26.008-6.665,40.319-20.976c41.832-41.833,13.831-69.833-21.618-105.283c-26.686-26.686-44.961-37.57-63.078-37.57
		c-4.217,0-8.331,0.608-12.399,1.847c-12.299-6.68-55.282-35.088-58.159-106.822c-0.665,0.319-1.37,0.576-2.119,0.746
		c-4.192,0.951-8.695,1.417-13.406,1.417c-1.449,0-2.924-0.058-4.409-0.146c2.21,47.731,20.559,78.389,36.118,96.027
		c7.847,8.896,15.737,15.413,22.252,19.985c-2.244,1.862-4.501,3.918-6.782,6.199c-5.156,5.156-9.189,10.205-12.213,15.188
		c-17.002-5.086-61.411-24.243-80.66-88.531c-0.566,0.475-1.187,0.9-1.872,1.25c-5.003,2.563-10.729,4.444-16.942,5.648
		c13.998,45.719,39.647,70.962,59.326,84.268c13.041,8.817,25.136,13.637,33.342,16.186c-2.622,21.846,12.71,43.341,37.337,67.969
		c9.617,9.617,18.058,17.854,25.911,24.458c-9.023,12.713-15.059,26.779-17.436,41.211c-3.849,23.368,1.81,46.033,16.364,65.547
		c1.964,2.633,4.975,4.022,8.024,4.022c2.079,0,4.176-0.647,5.971-1.985c4.427-3.302,5.339-9.567,2.038-13.994
		C265.855,401.813,261.477,384.407,264.421,366.528z M219.75,227.253c0.438-0.784,0.774-1.637,0.99-2.545
		c2.248-4.999,6.155-9.795,11.295-14.935c9.14-9.14,17.008-13.396,24.762-13.396c11.911,0,27.003,9.78,48.935,31.713
		c40.597,40.597,46.922,51.694,21.618,76.998c-10.314,10.314-18.632,15.118-26.176,15.118c-2.889,0-5.897-0.71-9.067-2.051
		c3.728-3.438,7.766-6.674,12.095-9.658c4.547-3.134,5.693-9.361,2.559-13.908c-3.135-4.547-9.362-5.692-13.909-2.559
		c-6.487,4.471-12.445,9.435-17.806,14.787c-7.269-6.106-15.393-14.054-24.69-23.351
		C222.926,256.037,215.342,240.622,219.75,227.253z"/>
	<path style="fill:#F7CF40;" d="M125.021,122.288c3.493-2.93,4.637-7.978,2.471-12.209c-2.518-4.914-8.542-6.86-13.459-4.342
		c-11.747,6.016-30.605,6.698-49.215,1.783c-18.61-4.916-34.67-14.823-41.914-25.855c-3.032-4.617-9.231-5.901-13.848-2.871
		c-4.617,3.031-5.902,9.231-2.871,13.848c9.986,15.21,29.996,28,53.525,34.215c9.921,2.621,19.874,3.916,29.283,3.916
		c6.012,0,11.798-0.536,17.215-1.586c6.212-1.204,11.938-3.086,16.942-5.648C123.834,123.188,124.455,122.763,125.021,122.288z"/>
	<path style="fill:#B4F0DF;" d="M408.357,427.49c3.309,0,6-2.691,6-6v-21.5h-27.246v21.5c0,3.309,2.691,6,6,6H408.357z"/>
	<path style="fill:#6ECCAE;" d="M364.729,178.079c0,18.748,15.252,34,34,34c18.748,0,34-15.252,34-34c0-18.748-15.252-34-34-34
		C379.981,144.079,364.729,159.331,364.729,178.079z M398.729,164.079c7.72,0,14,6.28,14,14c0,7.72-6.28,14-14,14
		c-7.72,0-14-6.28-14-14C384.729,170.359,391.009,164.079,398.729,164.079z"/>
	<path style="fill:#6ECCAE;" d="M353.191,137.506c14.449,0,26.205-11.756,26.205-26.205c0-14.449-11.755-26.205-26.205-26.205
		c-14.45,0-26.205,11.756-26.205,26.205C326.986,125.751,338.741,137.506,353.191,137.506z M353.191,105.096
		c3.421,0,6.205,2.783,6.205,6.205c0,3.422-2.783,6.205-6.205,6.205c-3.421,0-6.205-2.783-6.205-6.205
		C346.986,107.88,349.769,105.096,353.191,105.096z"/>
	<path d="M425.924,321.536c-10.208-10.208-23.53-16.145-37.807-16.932l48.868-48.868c3.905-3.905,3.905-10.237,0-14.143
		c-3.905-3.903-10.237-3.903-14.142,0L308.998,355.437c-14.23,14.232-14.23,37.388,0,51.62c7.116,7.115,16.462,10.673,25.809,10.673
		c6.817,0,13.631-1.902,19.582-5.688c3.981,2.458,8.246,4.412,12.721,5.839v3.608c0,14.337,11.664,26,26,26h15.246
		c14.336,0,26-11.663,26-26v-28.546C448.355,370.186,445.037,340.648,425.924,321.536z M384.857,324.506
		c2.052,0,4.078,0.17,6.066,0.487v54.996h-13.813c-5.523,0-10,4.478-10,10v6.278c-3.345-1.763-6.434-4.02-9.167-6.753
		c-7.204-7.204-11.171-16.766-11.172-26.924c0-10.157,3.965-19.716,11.165-26.916C365.14,328.472,374.7,324.506,384.857,324.506z
		 M418.729,379.99h-7.805V334.86c0.288,0.271,0.578,0.538,0.858,0.818C423.624,347.521,426.224,365.465,418.729,379.99z
		 M387.111,421.49v-21.5h27.246v21.5c0,3.309-2.691,6-6,6h-15.246C389.803,427.49,387.111,424.798,387.111,421.49z M323.141,392.916
		c-6.433-6.435-6.433-16.902,0-23.336l3.729-3.728c0.634,11.494,4.608,22.366,11.461,31.496
		C333.024,398.5,327.258,397.032,323.141,392.916z"/>
	<path style="fill:#F7CF40;" d="M184.121,72.148c0.749-0.17,1.455-0.427,2.119-0.746c4.112-1.974,6.473-6.582,5.421-11.218
		c-1.222-5.386-6.58-8.763-11.964-7.54c-12.871,2.917-31.31-1.089-48.124-10.46c-16.813-9.372-29.921-22.947-34.207-35.43
		c-1.794-5.223-7.479-8.002-12.706-6.211c-5.224,1.794-8.004,7.482-6.21,12.705c5.909,17.209,22.127,34.556,43.385,46.404
		c14.69,8.188,30.342,12.935,44.469,13.767c1.486,0.087,2.96,0.146,4.409,0.146C175.426,73.565,179.929,73.099,184.121,72.148z"/>
</g>
</svg>