<?xml version="1.0" encoding="iso-8859-1"?>
<!-- Uploaded to: SVG Repo, www.svgrepo.com, Generator: SVG Repo Mixer Tools -->
<svg height="800px" width="800px" version="1.1" id="Layer_1" xmlns="http://www.w3.org/2000/svg" xmlns:xlink="http://www.w3.org/1999/xlink" 
	 viewBox="0 0 506.862 506.862" xml:space="preserve">
<path style="fill:#F4EFEF;" d="M242.882,143.262c-0.8-25.6-0.4-51.2,2-76.8c0-0.4,0.4-1.2,0.8-1.6c0.4-0.4,1.2-0.4,1.6-0.4
	c89.6,19.6,170.8,57.6,241.2,113.2c-2.4-7.2-4.8-14-7.6-20.8c-68.8-50.8-146.8-86-232.8-104.4c-1.2-0.4-1.6-1.2-1.6-2
	c2-15.2,4.4-30,7.2-44.4c-0.4,0-0.8,0-1.2,0c-4,0-7.6,0-11.6,0.4c-1.2,7.2-2.4,14.4-3.6,21.6c-1.2,9.2-2.8,18.4-4.8,27.6
	c0,0.4,0.4,1.2,0.4,1.6c-3.2,29.2-4,60-2.8,91.6c0,0.8,0,1.6,0,2c1.6,33.6,6.4,66.8,14,99.6c0,0.8,0,1.6-0.4,2
	c-21.6,20.4-45.6,39.2-70.4,56c-0.4,0.4-0.8,0.4-1.2,0.4s-0.4,0-0.8,0c-0.4-0.4-1.2-0.8-1.2-1.2c-29.6-92-36.8-185.6-21.6-278
	c-4.4,2-8.8,4-12.8,6.4c-14,93.6-6,187.6,24.4,279.6c0.4,0.8,0,2-0.8,2.4c-21.6,13.6-44.4,26-67.6,36.4c-0.4,0-0.4,0-0.8,0
	c-0.4,0-0.4,0-0.8,0c-0.4-0.4-0.8-0.8-1.2-1.2c-27.6-86-35.2-174-22.8-261.6c-4.8,5.6-9.6,11.6-14,17.6
	c-8.8,83.2,0,167.2,26.4,249.2c0.4,0.8,0,2-1.2,2.4c-13.6,5.6-27.2,10.8-40.4,15.2c2,3.6,4,7.2,6.4,10.4c15.2-5.2,30-10.8,44.8-17.2
	h0.4c0.4,0,0.8-0.4,1.2-0.4c28-12.4,55.2-26.8,80.8-43.2c0.8-0.4,1.2-0.8,1.6-1.2c28.4-18.4,55.2-39.2,79.6-62.4
	c0.4-0.4,1.2-0.8,2-0.4c28.4,8.8,56.4,19.6,83.6,33.2c0.4,0.4,0.8,0.8,1.2,1.6c0,0.8,0,1.2-0.4,1.6c-64.8,71.2-142,124.4-230,157.6
	c4,2.8,8,5.6,12,8c88-34.4,165.2-88.4,230-160.8c0.8-0.8,1.6-0.8,2.4-0.4c22.4,12,44.4,25.6,65.2,40.4c0.4,0.4,0.8,0.8,0.8,1.6
	c0,0.4,0,1.2-0.4,1.6c-61.2,67.2-134,118-216.4,151.2c7.2,1.6,14.8,2.8,22,3.6c77.2-34,146-84,204.4-148c0.8-0.8,2-0.8,2.8-0.4
	c12,9.2,24,18.8,35.2,28.8c2-3.6,4-7.2,6-10.8c-12.4-10.8-25.6-21.6-38.8-31.6l-0.4-0.4c0,0-0.4-0.4-0.8-0.8
	c-24.4-18-50.8-34.4-77.6-48.4c-0.8-0.4-1.2-0.8-2-0.8c-30.4-15.6-61.6-28-93.6-38c-0.8-0.4-1.2-0.8-1.2-1.6
	c-6.8-28.8-11.2-58.4-13.2-88c0-0.8,0.4-1.2,0.8-1.6s1.2-0.4,1.6-0.4c94.8,20.4,180,61.6,252.8,122c0.4-4.8,0.8-9.6,1.2-14.4
	c-74.4-59.6-160.4-100-255.6-120C243.682,144.862,243.282,144.062,242.882,143.262z"/>
<path style="fill:#CC0000;" d="M225.682,55.662L225.682,55.662L225.682,55.662z"/>
<path style="fill:#F4EFEF;" d="M132.882,33.662c-3.2,1.6-6.4,3.6-9.6,5.6c-15.2,9.6-29.6,20.4-42.4,33.2c-3.2,2.8-6,6-8.8,9.2
	c-13.2,88-6,176.8,21.2,263.6c22-10,43.2-21.6,63.6-34.4C127.282,219.662,119.282,126.462,132.882,33.662z"/>
<path style="fill:#33A5D2;" d="M227.282,151.662c0-0.4-0.4-1.6-0.4-2.8c-1.6-31.2-2.8-62.4,0.8-91.6c0-0.4-2.4-0.8-2.4-1.2l0,0h2
	l1.2-0.4c2-9.2,4-18.8,5.2-27.6c0.8-6.8,2.4-13.6,3.6-20.8c-4,0.4-8,0.8-12.4,1.2c-20.4,2.4-39.6,6.8-58,14
	c-4.4,1.6-8.8,3.2-12.8,5.2c-15.6,92-8.8,184.8,20,276.4c23.6-16,46-34,66.8-53.2C233.682,217.662,229.282,184.462,227.282,151.662z
	"/>
<path style="fill:#FFC52F;" d="M260.082,6.462c-0.4,0-1.2,0-1.6,0c-2.8,14-5.2,28.4-7.2,43.2c58,12.8,112.4,32.8,162.8,60.4
	c22,12,43.6,25.6,64,40.4C439.682,67.262,356.482,8.862,260.082,6.462z"/>
<path style="fill:#F4EFEF;" d="M500.482,248.462c-0.4-16.8-2.4-33.2-6-49.2c-1.2-4.8-2.4-10-3.6-14.8
	c-70.4-56.8-151.6-95.6-242-115.6c-2.4,24-2.8,48.4-2,72.4c94.4,20,179.6,60,253.6,118.4c0-2,0-4.4,0-6.4
	C500.482,252.062,500.482,250.462,500.482,248.462z"/>
<path style="fill:#33A5D2;" d="M248.082,162.062c2,28.4,6.4,56.4,12.4,83.6c32,9.6,63.2,22.4,93.2,37.6c0.4,0,1.6,0.8,2.4,1.2
	c27.2,14,53.2,30.4,78,48.4c0.4,0.4,1.2,0.8,1.6,1.2c13.2,10,26,20.4,38.4,31.2c2-3.6,3.6-7.6,5.2-11.2c8-18,14-37.6,17.6-57.6
	c0.8-4,1.2-8.4,2-12.4C426.082,224.062,342.082,182.862,248.082,162.062z"/>
<path style="fill:#FFC52F;" d="M430.082,355.262c-40.4,44-85.6,81.6-134.8,111.6c-20.4,12.4-41.6,23.6-63.2,33.2
	c7.2,0.8,14.4,0.8,21.6,0.8c88.4,0,166-46.4,209.6-116.4c0.4-0.4,0.8-0.8,0.8-1.6C453.282,373.662,441.682,364.062,430.082,355.262z
	"/>
<path style="fill:#F4EFEF;" d="M352.482,305.262c-64,71.2-140.8,124.8-227.6,159.6c3.2,2,6,3.6,9.2,5.2c16,8.8,33.2,16,51.2,21.2
	c3.2,0.8,6.4,2,10,2.8l0,0c83.2-32.8,156.8-83.2,218.8-150.8C394.482,329.262,373.682,316.462,352.482,305.262z"/>
<path style="fill:#33A5D2;" d="M254.482,264.862c-24.4,22.8-51.2,43.6-79.2,61.6c-0.4,0.4-1.2,0.8-2.4,1.6
	c-25.6,16.4-52.8,31.2-80.8,43.2c-0.4,0.4-1.2,0.4-1.6,0.8l0,0c-14.4,6.4-29.2,12-44,17.2c2,3.2,4.4,6.4,6.4,9.2
	c12,16.8,26,32,42,45.2c3.2,2.8,6.8,5.6,10,8c87.6-32.4,164.8-84.8,229.2-155.2C308.482,283.662,281.682,273.262,254.482,264.862z"
	/>
<path style="fill:#FFC52F;" d="M46.482,189.262c-0.8-24.8,0-49.6,2.4-74.8c-26.8,39.6-42.8,87.6-42.8,138.8
	c0,42,10.4,81.6,29.2,116.4c0.4,0.4,0.4,1.2,0.8,1.6c13.2-4.4,26.4-9.2,39.6-14.8C57.682,301.662,48.082,245.662,46.482,189.262z"/>
<path d="M253.282,506.862c-139.6,0-253.2-113.6-253.2-253.2s113.6-253.2,253.2-253.2s253.2,113.6,253.2,253.2
	S392.882,506.862,253.282,506.862z M253.282,8.462c-135.2,0-245.2,110-245.2,245.2s110,245.2,245.2,245.2s245.2-110,245.2-245.2
	S388.482,8.462,253.282,8.462z"/>
<path d="M92.482,355.662c-0.4,0-1.2,0-1.6-0.4c-1.2-0.4-2-1.2-2-2.4c-28-88.4-35.6-178.8-22.4-268.8c0.4-2,2.4-3.6,4.4-3.2
	s3.6,2.4,3.2,4.4c-13.2,87.2-6,174.8,20.4,260.8c20.4-9.6,40.8-20.4,60-32.4c-30-92.4-37.6-186.8-23.6-280.4c0.4-2,2.4-3.6,4.4-3.2
	s3.6,2.4,3.2,4.4c-14.4,93.6-6.4,187.6,24,279.6c0.4,1.6,0,3.6-1.6,4.8c-21.6,13.6-44.4,26-67.6,36.4
	C93.682,355.662,92.882,355.662,92.482,355.662z"/>
<path d="M173.282,310.462c-0.4,0-0.8,0-1.2-0.4c-1.2-0.4-2-1.2-2.4-2.4c-30-93.6-37.2-188.8-20.8-283.2c0.4-2,2.4-3.6,4.8-3.2
	c2,0.4,3.6,2.4,3.2,4.8c-15.6,91.2-9.2,183.6,19.2,274c22.4-15.2,43.6-32.4,63.6-50.8c-7.2-32-12-64.8-13.6-97.6
	c0-0.8-0.4-2-0.4-3.2c-1.6-31.6-0.8-62,2.4-91.2c0-0.4-0.4-1.2-0.4-1.6s0-0.8,0-0.8c2-9.2,3.6-18.4,4.8-27.6
	c1.2-7.6,2.4-15.6,4-23.6c0.4-2,2.4-3.6,4.8-3.2c2,0.4,3.6,2.4,3.2,4.8c-1.6,7.6-2.8,15.6-3.6,22.8c-1.2,8.8-2.4,18-4.8,27.2
	c0,0.4,0.4,0.8,0.4,1.6v0.4c-3.2,29.2-4,59.6-2.4,90.8c0,0.4,0,0.4,0,0.8s0,0.8,0,1.2c0,0.4,0,0.4,0,0.8c1.6,33.2,6.4,66.4,14,98.8
	c0.4,1.2,0,2.8-1.2,4c-22,20.4-45.6,39.2-70.8,56C174.882,310.062,174.082,310.462,173.282,310.462z"/>
<path d="M482.882,160.062c-0.8,0-1.6-0.4-2.4-0.8c-68.4-50.8-146.8-86-232.4-104.4c-2-0.4-3.2-2.4-3.2-4.4c2-16,4.8-31.6,8-47.2
	c0.4-2,2.4-3.6,4.8-3.2c2,0.4,3.6,2.4,3.2,4.8c-2.8,14-5.6,28.4-7.2,42.8c85.2,18.8,163.2,54.4,232,105.2c1.6,1.2,2,4,0.8,5.6
	C485.282,159.662,484.082,160.062,482.882,160.062z"/>
<path d="M502.482,268.062c-0.8,0-1.6-0.4-2.4-0.8c-74-59.6-160-100.4-255.6-120c-1.6-0.4-3.2-2-3.2-3.6c-0.8-25.6-0.4-51.6,2.4-76.8
	c0-1.2,0.8-2,1.6-2.8c0.8-0.8,2-0.8,3.2-0.8c92,20,175.2,59.6,247.2,117.6c1.6,1.2,2,4,0.8,5.6s-4,2-5.6,0.4
	c-69.6-56.4-150.4-95.2-239.6-115.2c-2,22.8-2.8,45.6-2,68c95.6,20.4,181.6,61.2,256,121.2c1.6,1.2,2,4,0.8,5.6
	C504.882,267.662,503.682,268.062,502.482,268.062z"/>
<path d="M474.882,372.862c-0.8,0-2-0.4-2.8-1.2c-12.8-11.6-26.4-22.4-40.4-32.8l-0.4-0.4l0,0c-0.4,0-0.4-0.4-0.8-0.4
	c0,0-0.4,0-0.4-0.4c-24.4-18-50.4-34-77.2-48c0,0-0.4,0-0.4-0.4c-0.4-0.4-0.8-0.4-1.2-0.4s-0.4,0-0.8-0.4
	c-30-15.2-61.2-28-93.2-37.6c-1.2-0.4-2.4-1.6-2.8-2.8c-6.8-28.8-11.2-58.8-13.2-88.4c0-1.2,0.4-2.4,1.2-3.2
	c0.8-0.8,2.4-1.2,3.6-0.8c96.4,20.8,182.8,62.8,256.8,124.8c1.6,1.6,2,4,0.4,5.6s-4,2-5.6,0.4c-71.6-60-155.2-100.8-248-122
	c2,26.8,6,53.6,12,79.6c31.6,9.6,62.4,22.4,92,37.2c0.8,0.4,1.6,0.8,2.8,1.2c27.2,14,53.6,30.4,78,48.4c0.8,0.4,1.2,0.8,2,1.2l0,0
	c14,10.4,27.6,21.6,40.4,32.8c1.6,1.6,1.6,4,0.4,5.6C476.882,372.462,475.682,372.862,474.882,372.862z"/>
<path d="M224.082,505.262c-1.6,0-3.2-0.8-3.6-2.4c-0.8-2,0-4.4,2-5.2c77.2-34,146-83.6,204.4-148c1.2-1.6,3.6-1.6,5.2-0.4
	c12.8,9.6,25.2,20,37.2,30.8c1.6,1.6,1.6,4,0.4,5.6c-1.6,1.6-4,1.6-5.6,0.4c-10.8-9.6-22-19.2-33.6-28
	c-58.4,63.6-127.2,113.2-204.4,147.2C225.282,505.262,224.882,505.262,224.082,505.262z"/>
<path d="M196.082,500.062c-1.6,0-3.2-0.8-3.6-2.4c-0.8-2,0.4-4.4,2.4-5.2c82.4-32.4,155.2-82.4,216.4-148.4
	c-18.4-13.2-38-25.2-58-35.6c-65.2,72-142.8,126-231.2,160.4c-2,0.8-4.4-0.4-5.2-2.4s0.4-4.4,2.4-5.2c88-34.4,165.6-88.4,230-160.8
	c1.2-1.2,3.2-1.6,4.8-0.8c22.8,12,44.8,25.6,65.6,40.4c0.8,0.8,1.6,1.6,1.6,2.8s-0.4,2.4-1.2,3.2c-62.8,68.8-137.6,120.8-222.4,154
	C196.882,499.662,196.482,500.062,196.082,500.062z"/>
<path d="M104.482,457.662c-1.6,0-3.2-1.2-3.6-2.8c-0.8-2,0.4-4.4,2.4-5.2c87.2-32,163.6-83.6,227.6-153.2
	c-24.4-11.6-50-21.6-75.6-29.6c-24,22.4-50.4,42.8-78.4,60.8c-0.8,0.8-1.6,1.2-2.4,1.6c-25.6,16.4-52.8,31.2-80.8,43.2
	c-0.8,0.4-1.6,0.8-2,0.8l0,0c-15.2,6.8-30.8,12.8-46.8,18c-2,0.8-4.4-0.4-5.2-2.4s0.4-4.4,2.4-5.2c15.6-5.2,31.2-11.2,46.4-18
	c0.4,0,0.4,0,0.8-0.4l0,0c0,0,0.4,0,0.4-0.4c0,0,0.4,0,0.4-0.4c27.6-12,54.4-26.4,80-42.8c0,0,0.4,0,0.4-0.4c0.4,0,0.8-0.4,1.2-0.8
	l0.4-0.4c28-18.4,54.8-39.2,79.2-62c1.2-0.8,2.4-1.2,4-0.8c28.4,8.8,56.8,20,84,33.2c1.2,0.4,2,1.6,2,2.8c0.4,1.2,0,2.4-0.8,3.6
	c-65.6,72.4-144.8,126-234.4,159.2C105.282,457.662,104.882,457.662,104.482,457.662z"/>
<path d="M34.882,378.062c-1.6,0-3.2-1.2-4-2.8c-0.8-2,0.4-4.4,2.4-5.2c13.2-4.4,26-9.2,39.2-14.4c-26-82-34.4-165.6-25.6-248.8
	c0.4-2,2.4-3.6,4.4-3.6c2,0.4,3.6,2.4,3.6,4.4c-8.8,83.2,0,167.2,26,249.2c0.8,2-0.4,4-2.4,4.8c-14.4,6-28.8,11.6-43.2,16
	C35.682,378.062,35.282,378.062,34.882,378.062z"/>
</svg>