<svg xmlns="http://www.w3.org/2000/svg" viewBox="0 0 500 500"><g id="freepik--background-complete--inject-6"><rect x="11.26" y="122.49" width="47.77" height="45.48" style="fill:#f5f5f5"></rect><rect x="11.26" y="173.78" width="47.77" height="45.48" style="fill:#f5f5f5"></rect><rect x="64.67" y="122.49" width="47.77" height="45.48" style="fill:#f5f5f5"></rect><rect x="64.67" y="173.78" width="47.77" height="45.48" style="fill:#f5f5f5"></rect><rect x="118.69" y="122.49" width="47.77" height="45.48" style="fill:#f5f5f5"></rect><rect x="118.69" y="173.78" width="47.77" height="45.48" style="fill:#f5f5f5"></rect><rect x="172.1" y="122.49" width="47.77" height="45.48" style="fill:#f5f5f5"></rect><rect x="172.1" y="173.78" width="47.77" height="45.48" style="fill:#f5f5f5"></rect><rect x="226.11" y="122.49" width="47.77" height="45.48" style="fill:#f5f5f5"></rect><rect x="226.11" y="173.78" width="47.77" height="45.48" style="fill:#f5f5f5"></rect><rect x="279.52" y="122.49" width="47.77" height="45.48" style="fill:#f5f5f5"></rect><rect x="279.52" y="173.78" width="47.77" height="45.48" style="fill:#f5f5f5"></rect><rect x="333.54" y="122.49" width="47.77" height="45.48" style="fill:#f5f5f5"></rect><rect x="333.54" y="173.78" width="47.77" height="45.48" style="fill:#f5f5f5"></rect><rect x="386.95" y="122.49" width="47.77" height="45.48" style="fill:#f5f5f5"></rect><rect x="386.95" y="173.78" width="47.77" height="45.48" style="fill:#f5f5f5"></rect><rect x="440.96" y="122.49" width="47.77" height="45.48" style="fill:#f5f5f5"></rect><rect x="11.26" y="71.2" width="47.77" height="45.48" style="fill:#f5f5f5"></rect><rect x="64.67" y="71.2" width="47.77" height="45.48" style="fill:#f5f5f5"></rect><rect x="118.69" y="71.2" width="47.77" height="45.48" style="fill:#f5f5f5"></rect><rect x="172.1" y="71.2" width="47.77" height="45.48" style="fill:#f5f5f5"></rect><rect x="226.11" y="71.2" width="47.77" height="45.48" style="fill:#f5f5f5"></rect><rect x="279.52" y="71.2" width="47.77" height="45.48" style="fill:#f5f5f5"></rect><rect x="333.54" y="71.2" width="47.77" height="45.48" style="fill:#f5f5f5"></rect><rect x="386.95" y="71.2" width="47.77" height="45.48" style="fill:#f5f5f5"></rect><rect x="440.96" y="71.2" width="47.77" height="45.48" style="fill:#f5f5f5"></rect><rect x="440.96" y="173.78" width="47.77" height="45.48" style="fill:#f5f5f5"></rect><polygon points="17.2 356.39 54.91 316.81 87.38 316.81 17.2 389.5 17.2 356.39" style="fill:#f5f5f5"></polygon><polygon points="17.2 438.41 126.29 316.81 157.56 316.81 17.2 471.52 17.2 438.41" style="fill:#f5f5f5"></polygon><polygon points="50.25 482.07 192.92 316.81 224.19 316.81 79.28 482.07 50.25 482.07" style="fill:#f5f5f5"></polygon><polygon points="115.32 482.07 259.55 316.81 290.82 316.81 151.68 482.07 115.32 482.07" style="fill:#f5f5f5"></polygon><polygon points="184.63 482.07 326.18 316.81 357.45 316.81 216.13 482.07 184.63 482.07" style="fill:#f5f5f5"></polygon><polygon points="249.29 482.07 392.81 316.81 424.08 316.81 278.85 482.07 249.29 482.07" style="fill:#f5f5f5"></polygon><polygon points="314.56 482.07 459.44 316.81 490.71 316.81 345.22 482.07 314.56 482.07" style="fill:#f5f5f5"></polygon><polygon points="382.63 482.07 416.94 482.07 486.42 401.07 486.57 362.32 382.63 482.07" style="fill:#f5f5f5"></polygon><polygon points="485.76 438.74 448.15 482.07 482.46 482.07 485.66 478.65 485.76 438.74" style="fill:#f5f5f5"></polygon><ellipse cx="258.38" cy="409.15" rx="151.42" ry="28.65" style="fill:#e0e0e0"></ellipse></g><g id="freepik--Table--inject-6"><path d="M486.76,316.81c0,.14-106,.26-236.75.26S13.24,317,13.24,316.81s106-.26,236.77-.26S486.76,316.67,486.76,316.81Z" style="fill:#263238"></path></g><g id="freepik--Cake--inject-6"><ellipse cx="250" cy="396.54" rx="149.58" ry="33.8" style="fill:#455a64"></ellipse><path d="M105.7,392.26a8.73,8.73,0,0,0,.67,3,16.54,16.54,0,0,0,5.85,6.6c6.32,4.56,17,8.67,30.44,12,27,6.75,65.46,10.81,107.9,10.83s80.92-4.08,107.91-10.83c13.47-3.37,24.13-7.47,30.45-12,3.15-2.25,5.09-4.69,5.84-6.59a8.94,8.94,0,0,0,.68-3s0,.27,0,.8a8.54,8.54,0,0,1-.56,2.26c-.73,1.94-2.67,4.42-5.83,6.72-6.32,4.64-17,8.81-30.47,12.23-27,6.85-65.52,11-108,11s-81-4.14-108-11c-13.48-3.42-24.15-7.58-30.47-12.23-3.16-2.3-5.09-4.78-5.82-6.72a7.81,7.81,0,0,1-.56-2.26C105.69,392.53,105.7,392.26,105.7,392.26Z" style="fill:#263238"></path><rect x="128.87" y="266.13" width="243.9" height="130.4" style="fill:#ae7461"></rect><path d="M373.09,343.62c0,11.65-54.6,21.09-122,21.09s-121.95-9.44-121.95-21.09V325.23c0,11.65,54.6,21.1,122,21.1s122-9.45,122-21.1Z" style="fill:#6f4439"></path><ellipse cx="251.13" cy="396.61" rx="121.95" ry="21.09" style="fill:#ae7461"></ellipse><g style="opacity:0.30000000000000004"><path d="M371.46,306.17c-1.31,7.57-2.8,15.54-7.94,21.42s-15.24,8.51-21.21,3.4c-5.21-4.46-6.3-13.52-13.11-15-5.86-1.3-10.76,4.36-13.19,9.65s-4.66,11.54-10.28,13.62c-7.22,2.66-15.06-3.47-22.73-2.42-5.78.79-10,5.41-14.35,9.15s-10.55,7-15.79,4.51c-6.27-3-7.78-12.72-14.71-13.62-7.36-1-13.74,9.52-20.33,6.23-5.6-2.79-4.51-13.21-10.77-13.95-4.92-.58-7.07,5.67-10.62,9a10.91,10.91,0,0,1-13.33.81c-2.35-1.7-4.11-4.46-7-5-4.48-.77-7.56,4.3-8.32,8.61s-1,9.42-4.86,11.81c-3.48,2.18-8.4.73-11.26-2.17s-4.15-6.87-5.35-10.69L140,321.66c-3.63,3.58-10.88,2.44-13.14-2.05l1.69-18.72Z"></path></g><path d="M378.6,259.54c-5.37-8.38-15.31-13.25-44.5-15.65l-171.1,0c-14.67-.42-29.34,6.59-36.92,17.65-4.8,7-6.8,15.27-7.16,23.45s.83,16.32,2,24.44c.43,2.92.91,6,2.81,8.4s5.71,4,8.71,2.67c2-.88,3.16-2.76,4.53-4.34s3.48-3.05,5.67-2.55c2.4.55,3.33,3.06,3.83,5.2a179.16,179.16,0,0,1,4,24.72c.22,2.46.41,5,1.61,7.22a6.88,6.88,0,0,0,12.48.09,19.45,19.45,0,0,0,1.77-6.73,105.75,105.75,0,0,1,2.37-11.64,13.3,13.3,0,0,1,2.42-5.46,6.35,6.35,0,0,1,5.79-2.28c5.95,1.13,4.66,10.74,10.49,12.27a6.83,6.83,0,0,0,6-1.69,16,16,0,0,0,3.42-5c2.23-4.3,6.38-19.19,14.66-12.83,2.51,1.93,3.41,5,4,7.86s1.09,5.92,3.07,8.27,6.07,3.64,8.71,1.86c2.15-1.45,2.66-4.39,5.07-5.49,2.25-1,5.14.16,6.61,2s1.91,4.12,2.52,6.29c1.33,4.79,3.79,9.55,8.17,12.61s11,4,15.63,1.2c3.68-2.23,5.37-6.22,6.44-10S273.5,334.27,276,331s7.45-5.52,11.49-3.85,5.31,6.08,8.87,8.28c4.58,2.81,11.2.85,15.09-2.67s6-8.25,9-12.4,7.59-8,13.17-8.08c6.55,0,11.49,5.05,15.17,9.81s7.85,10.12,14.3,11.11,12.86-3.17,15.8-8.36,3.25-11.18,3.49-17l.87-20.54C383.63,277.85,383.89,267.81,378.6,259.54Z" style="fill:#92E3A9"></path><path d="M373.76,254.67c4.29,8-58.21,11.79-120.19,11.79s-112.23-6.74-112.23-15,50.25-15,112.23-15S367.16,242.34,373.76,254.67Z" style="fill:#92E3A9"></path><g style="opacity:0.30000000000000004"><path d="M128.27,381.06c15.56,14.13,37.78,17.73,58.7,19.75A638.13,638.13,0,0,0,336.3,398c6.63-.93,13.33-2,19.48-4.65s11.77-7.09,14.53-13.19Z"></path></g><path d="M373.09,377.85c0,11.65-54.6,21.1-122,21.1s-121.95-9.45-121.95-21.1V359.47c0,11.65,54.6,21.09,122,21.09s122-9.44,122-21.09Z" style="fill:#92E3A9"></path><path d="M373.09,377.85c0,11.65-54.6,21.1-122,21.1s-121.95-9.45-121.95-21.1V359.47c0,11.65,54.6,21.09,122,21.09s122-9.44,122-21.09Z" style="fill:#fff;opacity:0.7000000000000001"></path><g style="opacity:0.30000000000000004"><path d="M154.87,400c-.55-1.6-2.73-2-4.36-1.54a2.69,2.69,0,0,0-2,1.6,3.18,3.18,0,0,0,.14,2.58,3.38,3.38,0,0,0,6.2-2.64Z"></path></g><g style="opacity:0.30000000000000004"><path d="M332.52,403c-.55-1.6-2.73-2-4.36-1.54a2.67,2.67,0,0,0-2,1.6,3.12,3.12,0,0,0,.13,2.57,3.38,3.38,0,0,0,6.2-2.63Z"></path></g><g style="opacity:0.30000000000000004"><path d="M303.32,372.39c-.66-1.24-3.28-1.54-5.25-1.19a3.23,3.23,0,0,0-2.38,1.25,1.68,1.68,0,0,0,.17,2c.92,1.18,3.34,1.75,5.21,1.23S304,373.64,303.32,372.39Z"></path></g><g style="opacity:0.30000000000000004"><path d="M225.26,369.13c-1.72,1.16-1.48,3.8-.44,5.56a3.2,3.2,0,0,0,2.52,1.78,3.93,3.93,0,0,0,3-1,4.18,4.18,0,0,0,.51-5.54A4.35,4.35,0,0,0,225.26,369.13Z"></path></g><g style="opacity:0.30000000000000004"><path d="M335.69,364.85c-.27-.8-1.36-1-2.18-.77a1.31,1.31,0,0,0-1,.8,1.55,1.55,0,0,0,.06,1.28,1.69,1.69,0,0,0,3.1-1.31Z"></path></g><g style="opacity:0.30000000000000004"><path d="M268,372.78c-.27-.8-1.36-1-2.18-.77a1.33,1.33,0,0,0-1,.8,1.57,1.57,0,0,0,.07,1.29,1.69,1.69,0,0,0,3.1-1.32Z"></path></g><g style="opacity:0.30000000000000004"><path d="M213.8,408.4c-.28-.8-1.37-1-2.18-.77a1.33,1.33,0,0,0-1,.8,1.54,1.54,0,0,0,.07,1.29,1.69,1.69,0,0,0,3.1-1.32Z"></path></g><g style="opacity:0.30000000000000004"><path d="M179.65,367.16c-.27-.79-1.36-1-2.18-.76a1.33,1.33,0,0,0-1,.8,1.55,1.55,0,0,0,.07,1.28,1.69,1.69,0,0,0,3.1-1.32Z"></path></g><g style="opacity:0.30000000000000004"><path d="M273.73,370.54c-.14-.4-.68-.5-1.09-.39a.67.67,0,0,0-.49.4.78.78,0,0,0,0,.65.84.84,0,0,0,1.55-.66Z"></path></g><g style="opacity:0.30000000000000004"><path d="M239.76,374.82c-.13-.4-.68-.49-1.09-.38a.64.64,0,0,0-.49.4.79.79,0,0,0,0,.64.88.88,0,0,0,1.09.39A.86.86,0,0,0,239.76,374.82Z"></path></g><g style="opacity:0.30000000000000004"><path d="M358.44,400.27c-.14-.4-.68-.49-1.09-.38a.63.63,0,0,0-.49.4.76.76,0,0,0,0,.64.84.84,0,0,0,1.55-.66Z"></path></g><g style="opacity:0.30000000000000004"><path d="M281.84,408.66c-.14-.4-.68-.49-1.09-.38a.67.67,0,0,0-.49.4.75.75,0,0,0,0,.64.84.84,0,0,0,1.55-.66Z"></path></g><g style="opacity:0.4"><ellipse cx="251.72" cy="257.47" rx="109.8" ry="14.72" style="fill:#fff"></ellipse><path d="M270.88,280.82c0,.18-1.66.39-4.66.62s-7.36.46-12.75.62c-10.77.3-25.67.32-42.1-.74a354.57,354.57,0,0,1-41.84-5l-3.78-.71-3.36-.72c-2.09-.45-3.89-.86-5.35-1.26-2.92-.76-4.51-1.27-4.47-1.45.08-.38,6.63.83,17.25,2.33s25.36,3.18,41.71,4.2,31.18,1.33,41.93,1.5S270.86,280.44,270.88,280.82Z" style="fill:#fff"></path><path d="M299.37,279.58c0,.72-4.06,1.5-9.14,1.74s-9.24-.16-9.27-.87,4.06-1.5,9.15-1.73S299.34,278.87,299.37,279.58Z" style="fill:#fff"></path><path d="M122,292.25c-.59,7.23.3,15.29,3.61,22,.69,1.39,3.25,2.62,5.07,2.55a4.23,4.23,0,0,0,3.21-2.41,24.46,24.46,0,0,0,2.26-4.88c.46-1.38.59-3.18-.9-3.91a12.83,12.83,0,0,0-2.9-.51c-2.06-.45-3.13-2.29-3.93-3.92q-2-4.08-4-8.17a2.28,2.28,0,0,0-1-1.19c-.51-.25-1.34-.06-1.41.43" style="fill:#fff"></path><path d="M264.06,346.84c-.4-1.31-2.2-2-3.82-2.11a30.33,30.33,0,0,1-4.88-.29,7.34,7.34,0,0,1-4-2.8,22.5,22.5,0,0,1-2.22-4.05A5.93,5.93,0,0,0,247,334.9l0,0c-1.65-1-3.79.57-3,2.1a36.45,36.45,0,0,0,6.94,9.31,15.15,15.15,0,0,0,5.17,3.65,7.78,7.78,0,0,0,6.53-.26A2.66,2.66,0,0,0,264.06,346.84Z" style="fill:#fff"></path><path d="M269,337.65a2.72,2.72,0,0,0-2.13-1.06,3.54,3.54,0,0,0-3.23,1.88,3.2,3.2,0,0,0,.17,3.37,3,3,0,0,0,1.69,1.24,3.25,3.25,0,0,0,3-.89,3.78,3.78,0,0,0,1-2.62A3.13,3.13,0,0,0,269,337.65Z" style="fill:#fff"></path></g><path d="M299.37,265.93s33.72-2.75,42.53-7.28,12.85-13.76,12.85-13.76-7.69-2.38-21.61-4C327.54,240.26,299.37,265.93,299.37,265.93Z" style="opacity:0.30000000000000004"></path><rect x="166.14" y="161.69" width="171.67" height="91.78" style="fill:#ae7461"></rect><path d="M338,216.22c0,8.2-38.43,14.85-85.84,14.85s-85.83-6.65-85.83-14.85V203.29c0,8.19,38.43,14.84,85.83,14.84S338,211.48,338,203.29Z" style="fill:#6f4439"></path><ellipse cx="252.19" cy="253.52" rx="85.84" ry="14.85" style="fill:#ae7461"></ellipse><g style="opacity:0.30000000000000004"><path d="M336.89,189.87c-.93,5.33-2,10.94-5.6,15.08s-10.72,6-14.92,2.39c-3.67-3.14-4.44-9.52-9.23-10.58-4.12-.91-7.58,3.08-9.28,6.79s-3.29,8.13-7.24,9.59c-5.08,1.88-10.6-2.44-16-1.7-4.07.56-7.05,3.81-10.11,6.44s-7.42,4.92-11.11,3.17c-4.42-2.09-5.48-9-10.36-9.58-5.17-.67-9.67,6.7-14.3,4.39-3.94-2-3.18-9.3-7.58-9.82-3.47-.41-5,4-7.48,6.32a7.68,7.68,0,0,1-9.38.58c-1.66-1.2-2.9-3.15-4.94-3.5-3.15-.54-5.32,3-5.85,6.06s-.74,6.63-3.42,8.31c-2.45,1.54-5.92.52-7.93-1.52s-2.92-4.84-3.77-7.53q-2.19-7-4.4-14c-2.55,2.52-7.66,1.72-9.25-1.44l1.19-13.18Z"></path></g><path d="M341.91,157.05c-2-3-4.76-5.43-9.84-7.26-5.55-5.12-38.42-9.06-78.16-9.06-31.41,0-58.54,2.46-71.27,6-7.57,1.61-14.44,5.86-18.46,11.74a31.37,31.37,0,0,0-5.05,16.5c-.25,5.75.59,11.49,1.43,17.2.3,2.06.64,4.2,2,5.91s4,2.8,6.13,1.88c1.42-.62,2.23-1.94,3.19-3s2.45-2.15,4-1.8c1.69.39,2.34,2.16,2.69,3.66a127.09,127.09,0,0,1,2.8,17.4,12.71,12.71,0,0,0,1.13,5.08,4.83,4.83,0,0,0,8.78.06,13.42,13.42,0,0,0,1.24-4.73,79.23,79.23,0,0,1,1.67-8.19,9.5,9.5,0,0,1,1.71-3.84A4.45,4.45,0,0,1,200,203c4.18.79,3.27,7.56,7.38,8.64a4.81,4.81,0,0,0,4.23-1.19,11.37,11.37,0,0,0,2.41-3.49c1.57-3,4.49-13.51,10.32-9,1.77,1.35,2.4,3.5,2.82,5.53s.77,4.16,2.16,5.82,4.27,2.56,6.13,1.31c1.52-1,1.88-3.09,3.57-3.87a4.17,4.17,0,0,1,4.66,1.41,11.86,11.86,0,0,1,1.77,4.43,15.61,15.61,0,0,0,5.75,8.88c3.09,2.15,7.75,2.81,11,.84,2.59-1.57,3.78-4.38,4.53-7.07s1.26-5.52,3-7.83,5.24-3.88,8.09-2.71,3.73,4.29,6.24,5.83c3.22,2,7.88.6,10.62-1.88s4.22-5.8,6.33-8.73,5.34-5.65,9.27-5.68c4.61,0,8.08,3.55,10.67,6.9s5.53,7.13,10.07,7.82,9-2.23,11.12-5.88,2.29-7.87,2.46-11.95q.3-7.23.61-14.46C345.45,169.93,345.63,162.87,341.91,157.05Z" style="fill:#92E3A9"></path><path d="M341.91,157.05c-2-3-4.76-5.43-9.84-7.26-5.55-5.12-38.42-9.06-78.16-9.06-31.41,0-58.54,2.46-71.27,6-7.57,1.61-14.44,5.86-18.46,11.74a31.37,31.37,0,0,0-5.05,16.5c-.25,5.75.59,11.49,1.43,17.2.3,2.06.64,4.2,2,5.91s4,2.8,6.13,1.88c1.42-.62,2.23-1.94,3.19-3s2.45-2.15,4-1.8c1.69.39,2.34,2.16,2.69,3.66a127.09,127.09,0,0,1,2.8,17.4,12.71,12.71,0,0,0,1.13,5.08,4.83,4.83,0,0,0,8.78.06,13.42,13.42,0,0,0,1.24-4.73,79.23,79.23,0,0,1,1.67-8.19,9.5,9.5,0,0,1,1.71-3.84A4.45,4.45,0,0,1,200,203c4.18.79,3.27,7.56,7.38,8.64a4.81,4.81,0,0,0,4.23-1.19,11.37,11.37,0,0,0,2.41-3.49c1.57-3,4.49-13.51,10.32-9,1.77,1.35,2.4,3.5,2.82,5.53s.77,4.16,2.16,5.82,4.27,2.56,6.13,1.31c1.52-1,1.88-3.09,3.57-3.87a4.17,4.17,0,0,1,4.66,1.41,11.86,11.86,0,0,1,1.77,4.43,15.61,15.61,0,0,0,5.75,8.88c3.09,2.15,7.75,2.81,11,.84,2.59-1.57,3.78-4.38,4.53-7.07s1.26-5.52,3-7.83,5.24-3.88,8.09-2.71,3.73,4.29,6.24,5.83c3.22,2,7.88.6,10.62-1.88s4.22-5.8,6.33-8.73,5.34-5.65,9.27-5.68c4.61,0,8.08,3.55,10.67,6.9s5.53,7.13,10.07,7.82,9-2.23,11.12-5.88,2.29-7.87,2.46-11.95q.3-7.23.61-14.46C345.45,169.93,345.63,162.87,341.91,157.05Z" style="fill:#fff;opacity:0.7000000000000001"></path><g style="opacity:0.30000000000000004"><path d="M165.72,242.58c10.95,9.94,26.59,12.48,41.31,13.9a448.53,448.53,0,0,0,105.11-2c4.67-.65,9.38-1.4,13.71-3.26s8.28-5,10.23-9.29Z"></path></g><path d="M338,240.32c0,8.2-38.43,14.85-85.84,14.85s-85.83-6.65-85.83-14.85V227.38c0,8.2,38.43,14.85,85.83,14.85S338,235.58,338,227.38Z" style="fill:#92E3A9"></path><g style="opacity:0.30000000000000004"><path d="M184.44,255.92c-.39-1.13-1.92-1.39-3.07-1.08A1.85,1.85,0,0,0,180,256a2.2,2.2,0,0,0,.09,1.81,2.38,2.38,0,0,0,4.37-1.85Z"></path></g><g style="opacity:0.30000000000000004"><path d="M309.48,258c-.39-1.12-1.92-1.39-3.07-1.08a1.88,1.88,0,0,0-1.39,1.13,2.2,2.2,0,0,0,.09,1.81,2.38,2.38,0,0,0,4.37-1.86Z"></path></g><g style="opacity:0.30000000000000004"><path d="M288.93,236.48c-.47-.88-2.31-1.09-3.7-.84a2.26,2.26,0,0,0-1.67.88,1.18,1.18,0,0,0,.11,1.41,3.81,3.81,0,0,0,3.67.86C288.66,238.43,289.4,237.36,288.93,236.48Z"></path></g><g style="opacity:0.30000000000000004"><path d="M234,234.18c-1.22.82-1.05,2.68-.32,3.91a2.26,2.26,0,0,0,1.78,1.26,2.76,2.76,0,0,0,2.12-.7,2.94,2.94,0,0,0,.36-3.9A3.06,3.06,0,0,0,234,234.18Z"></path></g><g style="opacity:0.30000000000000004"><path d="M311.71,231.17c-.19-.57-1-.7-1.53-.54a.93.93,0,0,0-.7.56,1.09,1.09,0,0,0,0,.9,1.19,1.19,0,0,0,2.18-.92Z"></path></g><g style="opacity:0.30000000000000004"><path d="M264.09,236.75c-.19-.56-1-.69-1.53-.54a1,1,0,0,0-.7.56,1.15,1.15,0,0,0,.05.91,1.19,1.19,0,0,0,2.18-.93Z"></path></g><g style="opacity:0.30000000000000004"><path d="M225.91,261.82c-.19-.56-1-.69-1.53-.54a1,1,0,0,0-.7.56,1.11,1.11,0,0,0,0,.91,1.19,1.19,0,0,0,2.18-.93Z"></path></g><g style="opacity:0.30000000000000004"><path d="M201.88,232.8c-.19-.56-1-.7-1.53-.54a.93.93,0,0,0-.7.56,1.11,1.11,0,0,0,0,.91,1.19,1.19,0,0,0,2.18-.93Z"></path></g><g style="opacity:0.30000000000000004"><path d="M268.1,235.17c-.1-.28-.48-.34-.77-.27a.5.5,0,0,0-.35.28.57.57,0,0,0,0,.46.6.6,0,0,0,1.09-.47Z"></path></g><g style="opacity:0.30000000000000004"><path d="M244.19,238.19c-.1-.28-.48-.35-.77-.27a.46.46,0,0,0-.34.28.55.55,0,0,0,0,.45.59.59,0,0,0,1.09-.46Z"></path></g><g style="opacity:0.30000000000000004"><path d="M327.72,256.1c-.1-.28-.48-.35-.77-.27a.46.46,0,0,0-.34.28.54.54,0,0,0,0,.45.59.59,0,0,0,1.09-.46Z"></path></g><g style="opacity:0.30000000000000004"><path d="M273.81,262c-.1-.28-.48-.35-.77-.27a.47.47,0,0,0-.35.28.55.55,0,0,0,0,.45.61.61,0,0,0,.76.28A.62.62,0,0,0,273.81,262Z"></path></g><g style="opacity:0.4"><ellipse cx="252.61" cy="155.59" rx="77.28" ry="10.36" style="fill:#fff;opacity:0.7000000000000001"></ellipse><path d="M266.09,172c0,.35-4.66.86-12.25,1.15s-18.09.34-29.66-.41a233.54,233.54,0,0,1-29.47-3.62c-7.46-1.46-12-2.86-11.89-3.19s4.7.38,12.19,1.37,17.84,2.12,29.34,2.84,21.92,1,29.48,1.17S266.08,171.65,266.09,172Z" style="fill:#fff;opacity:0.7000000000000001"></path><path d="M286.15,171.16c0,.71-2.84,1.43-6.42,1.6s-6.51-.28-6.54-1,2.84-1.43,6.42-1.6S286.11,170.44,286.15,171.16Z" style="fill:#fff;opacity:0.7000000000000001"></path><path d="M161.3,180.07a30.25,30.25,0,0,0,2.54,15.49,4.37,4.37,0,0,0,3.57,1.79,3,3,0,0,0,2.26-1.69,17.15,17.15,0,0,0,1.59-3.43c.32-1,.42-2.24-.63-2.76a9.56,9.56,0,0,0-2-.36c-1.45-.32-2.2-1.6-2.77-2.75L163,180.61a1.6,1.6,0,0,0-.7-.84c-.37-.18-1-.05-1,.3" style="fill:#fff;opacity:0.7000000000000001"></path><path d="M261.29,218.49c-.28-.92-1.54-1.39-2.69-1.48a21.65,21.65,0,0,1-3.43-.21,5.18,5.18,0,0,1-2.85-2,16.58,16.58,0,0,1-1.56-2.86,4.11,4.11,0,0,0-1.5-1.89h0c-1.16-.68-2.67.39-2.12,1.47a25.46,25.46,0,0,0,4.88,6.56,10.56,10.56,0,0,0,3.64,2.56,5.47,5.47,0,0,0,4.6-.18A1.87,1.87,0,0,0,261.29,218.49Z" style="fill:#fff;opacity:0.7000000000000001"></path><path d="M264.79,212a1.92,1.92,0,0,0-1.5-.75A2.49,2.49,0,0,0,261,212.6a2.27,2.27,0,0,0,.12,2.37,2.08,2.08,0,0,0,1.19.87,2.27,2.27,0,0,0,2.12-.62,2.69,2.69,0,0,0,.7-1.85A2.22,2.22,0,0,0,264.79,212Z" style="fill:#fff;opacity:0.7000000000000001"></path></g><path d="M264,90c-4.65-5.4-12.8-8.18-12.8-8.18A37.52,37.52,0,0,0,224.79,84a32.82,32.82,0,0,0-17.12,20,29.21,29.21,0,0,0,4.69,25.66c1.76,2.26,4,5.19,4.16,5.94.55,2,.71,5.94,2.64,6.67a3,3,0,0,0,3.12-1,8.61,8.61,0,0,0,1.55-3.08,33.34,33.34,0,0,1,1.15,5.56,17.37,17.37,0,0,0,1.77,5.73c.93,1.74,2.95,3.07,4.84,2.5a5,5,0,0,0,3.32-3c1.33-4.09,1.28-7.38,1.35-11.7a8.3,8.3,0,0,0,14.32-4.61c4.62,2.34,10.56.72,14.26-2.91s5.44-8.86,6-14C271.85,106.49,270.06,97.09,264,90Z" style="fill:#ae7461"></path><g style="opacity:0.2"><path d="M265.52,100.92a24.82,24.82,0,0,0-14.67-15.35c-6.81-2.68-14.56-3.34-21.47-.92A33.09,33.09,0,0,0,214.2,95.43a25.64,25.64,0,0,0-5.21,17l.22,3.3c.63,3,1.32,6.14,3.3,8.48s5.7,3.52,8.19,1.73c-.67,3.33,2.47,6.65,5.87,6.76s6.5-2.42,7.76-5.58c2.61,3.22,7.41,4.16,11.32,2.78a15.09,15.09,0,0,0,8.48-8.57c1.91,2.28,5.75,2,8.05.12s3.32-4.93,3.86-7.86A27,27,0,0,0,265.52,100.92Z" style="fill:#fff"></path></g><path d="M247.45,88.66c-.23.3-2.29-1.1-5.21-1.55s-5.3.14-5.42-.21c-.06-.15.49-.54,1.51-.84a8.14,8.14,0,0,1,1.83-.32,11.29,11.29,0,0,1,2.29.11,11.16,11.16,0,0,1,2.2.63,8.81,8.81,0,0,1,1.64.9C247.16,88,247.55,88.53,247.45,88.66Z" style="fill:#ae7461"></path><path d="M251.51,98.11c-.29.2-1.73-1.3-3.94-2.53s-4.2-1.84-4.15-2.2c0-.16.59-.24,1.49-.11a9.8,9.8,0,0,1,3.3,1.21,9.3,9.3,0,0,1,2.69,2.26C251.46,97.46,251.65,98,251.51,98.11Z" style="fill:#ae7461"></path><path d="M258,97.07c-.32.14-1.42-1.62-3.34-3.28s-3.74-2.65-3.61-3c.06-.16.63-.13,1.48.19a9.79,9.79,0,0,1,3,1.85,9.32,9.32,0,0,1,2.17,2.77C258.07,96.43,258.15,97,258,97.07Z" style="fill:#ae7461"></path><path d="M224.44,89a7.21,7.21,0,0,0-3.76,2.63,1.15,1.15,0,0,0-.27,1.1c.18.37.67.45,1.08.44a5.17,5.17,0,0,0,4.31-2.75,1.16,1.16,0,0,0,.13-1,.89.89,0,0,0-.71-.46,2.63,2.63,0,0,0-.88.11" style="fill:#fff"></path><path d="M218.18,97a.79.79,0,0,0-.91-.38h0a1.44,1.44,0,0,0-1.23.93,1,1,0,0,0,.65,1.29,1.34,1.34,0,0,0,1.38-.85A1.19,1.19,0,0,0,218.18,97Z" style="fill:#fff"></path><path d="M222.54,98.56a.81.81,0,0,0-.92-.38h0a1.46,1.46,0,0,0-1.23.92,1,1,0,0,0,.66,1.3,1.35,1.35,0,0,0,1.37-.85A1.2,1.2,0,0,0,222.54,98.56Z" style="fill:#fff"></path><path d="M213.15,105.15a.79.79,0,0,0-.91-.38h0a1.46,1.46,0,0,0-1.23.92,1,1,0,0,0,.66,1.29,1.33,1.33,0,0,0,1.37-.84A1.16,1.16,0,0,0,213.15,105.15Z" style="fill:#fff"></path><path d="M217.68,101.8a1.13,1.13,0,0,0-1.29-.53h0a2,2,0,0,0-1.73,1.3,1.46,1.46,0,0,0,.93,1.82,1.91,1.91,0,0,0,1.94-1.19A1.74,1.74,0,0,0,217.68,101.8Z" style="fill:#fff"></path><path d="M216.94,107.82a.58.58,0,0,0-.65-.26h0a1,1,0,0,0-.87.65.74.74,0,0,0,.47.91,1,1,0,0,0,1-.6A.9.9,0,0,0,216.94,107.82Z" style="fill:#fff"></path><path d="M213.47,111.25a.58.58,0,0,0-.65-.26h0a1,1,0,0,0-.86.65.72.72,0,0,0,.46.91,1,1,0,0,0,1-.59A.89.89,0,0,0,213.47,111.25Z" style="fill:#fff"></path><g style="opacity:0.2"><path d="M308.26,152.33c-.5-1.92-2.29-3.19-4-4.21A89,89,0,0,0,265.77,136a122.67,122.67,0,0,0-40.36,3.74,33.26,33.26,0,0,0-10.48,4.11c-3.14,2.1-5.7,5.35-6.12,9.1l-4.7,3.82a18,18,0,0,0,17.71.79c2.48-1.29,4.7-3.18,7.43-3.79,3.3-.73,6.67.56,9.88,1.61A74.36,74.36,0,0,0,262,159.09c4.15,0,8.74-.52,11.54-3.57a29.67,29.67,0,0,0,29,4.26,11.48,11.48,0,0,0,4.33-2.71A5.31,5.31,0,0,0,308.26,152.33Z"></path></g><path d="M280.22,72.92c-9.05-1-51.93,79.38-51.93,79.38s51.5,7.07,52.43,2.25S289.27,73.89,280.22,72.92Z" style="fill:#ff9a6c"></path><path d="M258.52,139.33c-1.94,1.83-3.88,3.68-5.8,5.54l10.12,10.77,1.5-1.32q4-3.52,7.85-7.1l-9.89-11.4Z" style="fill:none"></path><path d="M260.54,110.14q-3.82,3.47-7.55,7l4.55,5.25,5.18,6q2.1-1.92,4.22-3.81c1.93-1.73,3.88-3.44,5.84-5.15l-10.24-11.08C261.88,109,261.2,109.54,260.54,110.14Z" style="fill:none"></path><path d="M284,116.66c.12-2.34.23-4.68.33-7q-3.84,3.18-7.63,6.41L266.44,105q5-4.26,10.09-8.34l3.42,3.87,4.51,5.11c.08-2.61.13-5.18.14-7.66l-4-4.52.65-.5,1.42-1.08c.6-.46,1.22-.91,1.83-1.36-.08-2.2-.19-4.26-.35-6.15-2.34,1.72-4.67,3.46-7,5.23l-6.73-7.61c-1,1.32-2,2.76-3.11,4.29l5.75,6.51q-2.58,2-5.11,4.13t-5.07,4.28l-3.18-3.44q-1.41,2.24-2.85,4.55l2.13,2.3c-2.68,2.38-5.31,4.8-7.92,7.26-3.37,5.68-6.66,11.39-9.65,16.64a2.32,2.32,0,0,0,.82-.55c2.3-2.41,4.63-4.77,7-7.11l9.63,11.11q-4.92,4.53-9.73,9.18L245,136.68l-5.12-5.46q-1.4,2.46-2.66,4.74l8.21,8.74q-4.38,4.29-8.68,8.68c2,.24,4.17.5,6.53.76,1.89-1.9,3.79-3.78,5.7-5.66l6.45,6.87c5.15.44,10.25.78,14.51.86,1.88-1.68,3.75-3.38,5.61-5.08l3.83,4.41c.77-.25,1.23-.57,1.31-1,.12-.59.33-2.25.6-4.69-.64-.75-1.29-1.49-1.93-2.23.81-.75,1.6-1.51,2.4-2.26.23-2.31.48-5,.73-7.84q-3.24,3.12-6.53,6.18l-9.88-11.39q5-4.57,10.18-9.06l4.58,5,2.21,2.4c.18-2.29.35-4.67.51-7.09l-3.38-3.67C281.46,118.79,282.73,117.72,284,116.66Zm-11.81,30.56q-3.9,3.57-7.85,7.1l-1.5,1.32-10.12-10.77c1.92-1.86,3.86-3.71,5.8-5.54l3.78-3.51Zm-5.25-22.62q-2.12,1.89-4.22,3.81l-5.18-6L253,117.19q3.72-3.59,7.55-7c.66-.6,1.34-1.18,2-1.77l10.24,11.08C270.82,121.16,268.87,122.87,266.94,124.6Z" style="fill:#ffbf9d"></path><path d="M274.42,134.3a53.25,53.25,0,0,0-4.71-10.23,14.81,14.81,0,0,0-4.67-5.26c-3-1.83-7-1.6-10.26-.25s-6.06,3.67-8.77,6l-1.78,1.7c-2.57,3-5.17,6.15-6.63,9.85s-1.57,8.16.68,11.43c1.44,2.09,3.66,3.48,5.82,4.8,4.89,3,10,6.08,15.65,6.85a15.16,15.16,0,0,0,11.47-2.74A14.89,14.89,0,0,0,276.29,146,29.07,29.07,0,0,0,274.42,134.3Z" style="fill:#92E3A9"></path><g style="opacity:0.2"><path d="M272.07,135.19a46.52,46.52,0,0,0-4.1-8.89,12.79,12.79,0,0,0-4.06-4.57c-2.64-1.6-6.06-1.39-8.91-.22a29.68,29.68,0,0,0-7.62,5.18l-1.55,1.48c-2.23,2.64-4.49,5.35-5.76,8.56s-1.37,7.09.59,9.93a16,16,0,0,0,5.06,4.18c4.24,2.61,8.65,5.28,13.59,5.94a13.15,13.15,0,0,0,10-2.38,12.92,12.92,0,0,0,4.41-9.06A25.58,25.58,0,0,0,272.07,135.19Z" style="fill:#fff"></path></g><path d="M268.51,136.3a22.13,22.13,0,0,0-6.11-2.44,15.85,15.85,0,0,0,4.43-1.22c.55-.24,1.17-.65,1.11-1.25s-.72-.87-1.28-1A37.28,37.28,0,0,0,258.6,129a13.79,13.79,0,0,0,4.66-1.64c.46-.26,1-.64,1-1.17a1.07,1.07,0,0,0-.67-.91,3,3,0,0,0-1.18-.2,39.81,39.81,0,0,0-7.4.51l2.9-3c.32-.33.67-.76.54-1.2a.9.9,0,0,0-.85-.56,2.73,2.73,0,0,0-1,.28l-9.34,3.93-2.08,3.11c-1.24,2.89-2.62,12.57-2.4,15.7a.92.92,0,0,0,.19.6c.32.33.87,0,1.21-.3a17.49,17.49,0,0,0,4.12-6,50.56,50.56,0,0,0-1.31,7.42c-.1.9,0,2.07.88,2.31.64.17,1.26-.32,1.72-.8a17.26,17.26,0,0,0,3.24-4.9q-.18,3.6-.11,7.21a3.62,3.62,0,0,0,.19,1.31,1.23,1.23,0,0,0,1,.79c.6,0,1.06-.51,1.39-1a25.65,25.65,0,0,0,2.38-4.52c2.08,1.81,4.44,3.73,7.2,3.67a2.92,2.92,0,0,0,2.63-1.38,3.62,3.62,0,0,0-.08-2.55,31.28,31.28,0,0,0-3.08-7,11.65,11.65,0,0,0,4-.59c.46-.16,1-.45,1-.94S268.86,136.51,268.51,136.3Z" style="fill:#92E3A9"></path><g style="opacity:0.6000000000000001"><path d="M268.51,136.3a22.13,22.13,0,0,0-6.11-2.44,15.85,15.85,0,0,0,4.43-1.22c.55-.24,1.17-.65,1.11-1.25s-.72-.87-1.28-1A37.28,37.28,0,0,0,258.6,129a13.79,13.79,0,0,0,4.66-1.64c.46-.26,1-.64,1-1.17a1.07,1.07,0,0,0-.67-.91,3,3,0,0,0-1.18-.2,39.81,39.81,0,0,0-7.4.51l2.9-3c.32-.33.67-.76.54-1.2a.9.9,0,0,0-.85-.56,2.73,2.73,0,0,0-1,.28l-9.34,3.93-2.08,3.11c-1.24,2.89-2.62,12.57-2.4,15.7a.92.92,0,0,0,.19.6c.32.33.87,0,1.21-.3a17.49,17.49,0,0,0,4.12-6,50.56,50.56,0,0,0-1.31,7.42c-.1.9,0,2.07.88,2.31.64.17,1.26-.32,1.72-.8a17.26,17.26,0,0,0,3.24-4.9q-.18,3.6-.11,7.21a3.62,3.62,0,0,0,.19,1.31,1.23,1.23,0,0,0,1,.79c.6,0,1.06-.51,1.39-1a25.65,25.65,0,0,0,2.38-4.52c2.08,1.81,4.44,3.73,7.2,3.67a2.92,2.92,0,0,0,2.63-1.38,3.62,3.62,0,0,0-.08-2.55,31.28,31.28,0,0,0-3.08-7,11.65,11.65,0,0,0,4-.59c.46-.16,1-.45,1-.94S268.86,136.51,268.51,136.3Z" style="fill:#fff"></path></g><g style="opacity:0.6000000000000001"><path d="M251.06,125.1c3.77,4.91,9,11.77,12.16,17.07a20.2,20.2,0,0,1,1.88,3.71c.2.59.28,1.4-.25,1.72a1.45,1.45,0,0,1-1.33-.14,22.33,22.33,0,0,1-2.81-1.7,76.1,76.1,0,0,1-15.87-15.68L246,125.8Z" style="fill:#fff"></path></g><path d="M242.82,124.28a11.83,11.83,0,0,0-10.79,6,7.27,7.27,0,0,0,6.36.28,16.15,16.15,0,0,0,5.33-3.81,16,16,0,0,0,.39,7.93,1.28,1.28,0,0,0,.51.79.86.86,0,0,0,.94-.21,2.26,2.26,0,0,0,.48-.89,14.57,14.57,0,0,0,.45-8,13.1,13.1,0,0,0,8.54.42,1,1,0,0,0,.64-.4c.22-.41-.18-.87-.56-1.14a10.31,10.31,0,0,0-7.42-1.76A6.71,6.71,0,0,0,250,119a19.58,19.58,0,0,0-.22-5.18c0-.35-.13-.76-.45-.91s-.81.17-1.1.49a17.14,17.14,0,0,0-3,4.31,8.48,8.48,0,0,0-.73,5.14,19.29,19.29,0,0,0-5.37-5.47l-2.43,3.75a14.75,14.75,0,0,1,6.64,3" style="fill:#455a64"></path><path d="M216.32,157.73a50.14,50.14,0,0,0,9.87-3.56,13.73,13.73,0,0,0,5.25-3.91c1.95-2.67,2-6.35,1.05-9.5a31.81,31.81,0,0,0-4.83-8.61l-1.44-1.79c-2.61-2.62-5.29-5.29-8.6-6.94s-7.45-2.11-10.66-.28a17.07,17.07,0,0,0-4.92,5c-3.18,4.29-6.44,8.75-7.6,14A14.09,14.09,0,0,0,196.07,153a13.84,13.84,0,0,0,9.26,5.54A27.26,27.26,0,0,0,216.32,157.73Z" style="fill:#92E3A9"></path><g style="opacity:0.2"><path d="M215.69,155.47a43,43,0,0,0,8.57-3.09,11.87,11.87,0,0,0,4.56-3.4,9.38,9.38,0,0,0,.92-8.25,27.83,27.83,0,0,0-4.2-7.49l-1.25-1.55c-2.27-2.28-4.6-4.6-7.48-6s-6.47-1.84-9.27-.24a14.88,14.88,0,0,0-4.27,4.35c-2.76,3.73-5.59,7.61-6.6,12.14a12.26,12.26,0,0,0,1.41,9.45,12.07,12.07,0,0,0,8,4.81A23.64,23.64,0,0,0,215.69,155.47Z" style="fill:#fff"></path></g><path d="M214.93,152.08a20.07,20.07,0,0,0,2.75-5.47,15.13,15.13,0,0,0,.78,4.21c.18.52.52,1.13,1.08,1.12s.86-.59,1.05-1.1a34.08,34.08,0,0,0,1.88-7.37,13.29,13.29,0,0,0,1.15,4.46c.2.44.52.94,1,1a1,1,0,0,0,.9-.55,2.7,2.7,0,0,0,.28-1.08,38,38,0,0,0,.12-6.91l2.5,2.93c.28.32.66.68,1.08.59a.83.83,0,0,0,.58-.74,2.41,2.41,0,0,0-.18-1q-1.44-4.49-2.9-9L224.29,131c-2.58-1.38-11.45-3.43-14.37-3.49a.85.85,0,0,0-.57.13c-.33.28-.09.81.18,1.15a16.26,16.26,0,0,0,5.24,4.3,48.55,48.55,0,0,0-6.79-1.81c-.82-.16-1.92-.15-2.21.64-.21.58.2,1.19.61,1.65a15.87,15.87,0,0,0,4.29,3.4c-2.22-.3-4.45-.52-6.68-.68a3.44,3.44,0,0,0-1.24.08,1.16,1.16,0,0,0-.81.86c-.08.55.39,1,.83,1.36a23.28,23.28,0,0,0,4,2.57c-1.85,1.79-3.81,3.83-4,6.39a2.7,2.7,0,0,0,1.07,2.55,3.4,3.4,0,0,0,2.38.13,28.93,28.93,0,0,0,6.77-2.3,10.63,10.63,0,0,0,.23,3.77c.11.44.34.95.79,1S214.71,152.39,214.93,152.08Z" style="fill:#92E3A9"></path><g style="opacity:0.6000000000000001"><path d="M214.93,152.08a20.07,20.07,0,0,0,2.75-5.47,15.13,15.13,0,0,0,.78,4.21c.18.52.52,1.13,1.08,1.12s.86-.59,1.05-1.1a34.08,34.08,0,0,0,1.88-7.37,13.29,13.29,0,0,0,1.15,4.46c.2.44.52.94,1,1a1,1,0,0,0,.9-.55,2.7,2.7,0,0,0,.28-1.08,38,38,0,0,0,.12-6.91l2.5,2.93c.28.32.66.68,1.08.59a.83.83,0,0,0,.58-.74,2.41,2.41,0,0,0-.18-1q-1.44-4.49-2.9-9L224.29,131c-2.58-1.38-11.45-3.43-14.37-3.49a.85.85,0,0,0-.57.13c-.33.28-.09.81.18,1.15a16.26,16.26,0,0,0,5.24,4.3,48.55,48.55,0,0,0-6.79-1.81c-.82-.16-1.92-.15-2.21.64-.21.58.2,1.19.61,1.65a15.87,15.87,0,0,0,4.29,3.4c-2.22-.3-4.45-.52-6.68-.68a3.44,3.44,0,0,0-1.24.08,1.16,1.16,0,0,0-.81.86c-.08.55.39,1,.83,1.36a23.28,23.28,0,0,0,4,2.57c-1.85,1.79-3.81,3.83-4,6.39a2.7,2.7,0,0,0,1.07,2.55,3.4,3.4,0,0,0,2.38.13,28.93,28.93,0,0,0,6.77-2.3,10.63,10.63,0,0,0,.23,3.77c.11.44.34.95.79,1S214.71,152.39,214.93,152.08Z" style="fill:#fff"></path></g><g style="opacity:0.6000000000000001"><path d="M226.72,136.79c-4.86,3.1-11.63,7.38-16.81,9.92a18.2,18.2,0,0,1-3.59,1.44c-.57.14-1.32.16-1.57-.37a1.34,1.34,0,0,1,.23-1.22,21.72,21.72,0,0,1,1.81-2.47,70.61,70.61,0,0,1,15.81-13.48l3.87,1.41Z" style="fill:#fff"></path></g><path d="M228.14,129.2a11,11,0,0,0-4.67-10.48,6.79,6.79,0,0,0-.77,5.88,15.32,15.32,0,0,0,3.11,5.25,14.8,14.8,0,0,0-7.39-.27,1.15,1.15,0,0,0-.77.41.8.8,0,0,0,.12.88,2.12,2.12,0,0,0,.79.53,13.62,13.62,0,0,0,7.35,1,12.2,12.2,0,0,0-1.07,7.9.94.94,0,0,0,.32.62c.36.24.82-.1,1.1-.43a9.56,9.56,0,0,0,2.22-6.74,6.32,6.32,0,0,0,4,2.52,18.49,18.49,0,0,0,4.82.21c.33,0,.72-.06.88-.35s-.09-.76-.36-1a16.16,16.16,0,0,0-3.76-3.15,7.93,7.93,0,0,0-4.72-1.08,17.93,17.93,0,0,0,5.51-4.55l-3.29-2.55a13.65,13.65,0,0,1-3.31,5.92" style="fill:#455a64"></path><path d="M306.9,129.56c1.33-2.64,2.54-5.61,1.81-8.48a11.91,11.91,0,0,0-6.66,4.48,14.66,14.66,0,0,0-3.52-7.61,1.26,1.26,0,0,0-.57-.43.87.87,0,0,0-.92.53,2.48,2.48,0,0,0-.15,1.12q.09,3.36.51,6.69l8.66,7.58a11.67,11.67,0,0,0,7.07-.75A12.87,12.87,0,0,0,306.9,129.56Z" style="fill:#455a64"></path><path d="M310,139.9a37.24,37.24,0,0,0-4.71-8.5c-4-4.94-9-9-13.32-10.16a11.6,11.6,0,0,0-6.92.35,16.5,16.5,0,0,0-5.75,4.18,26.85,26.85,0,0,0-6.51,9.57c-1.81,5.13-2.54,10.29-1.07,15.53a13.54,13.54,0,0,0,5.85,8,16.38,16.38,0,0,0,7.8,2.25,37.36,37.36,0,0,0,18.88-6,15.08,15.08,0,0,0,5.59-5.68A12.63,12.63,0,0,0,310,139.9Z" style="fill:#92E3A9"></path><path d="M281.64,139c-.29-.05-.32-.88.14-1.67s1.16-1.21,1.35-1-.07.8-.45,1.5S281.92,139,281.64,139Z" style="fill:#fff"></path><path d="M295.68,143.44c-.29,0-.32-.87.14-1.66s1.16-1.21,1.35-1-.07.8-.45,1.49S296,143.5,295.68,143.44Z" style="fill:#fff"></path><path d="M302.59,148.43c-.26-.14,0-.93.68-1.53s1.49-.76,1.6-.49-.33.73-.92,1.27S302.83,148.57,302.59,148.43Z" style="fill:#fff"></path><path d="M286.53,149c-.29-.05-.32-.88.13-1.67s1.17-1.21,1.36-1-.07.79-.45,1.49S286.81,149.07,286.53,149Z" style="fill:#fff"></path><path d="M275,146.37c-.29-.05-.32-.88.14-1.67s1.16-1.21,1.35-1-.07.8-.45,1.49S275.24,146.42,275,146.37Z" style="fill:#fff"></path><path d="M293.91,133.55c-.29-.05-.32-.88.14-1.67s1.16-1.21,1.35-1-.07.8-.45,1.5S294.19,133.6,293.91,133.55Z" style="fill:#fff"></path><path d="M293.53,156.09c-.26-.14,0-.93.65-1.54s1.48-.79,1.59-.52-.31.74-.89,1.28S293.78,156.22,293.53,156.09Z" style="fill:#fff"></path><path d="M281.32,157.31c-.26-.13,0-.93.65-1.54s1.47-.79,1.59-.52-.32.74-.89,1.28S281.57,157.45,281.32,157.31Z" style="fill:#fff"></path><path d="M279.91,130.43c-.28-.05-.31-.88.14-1.67s1.16-1.21,1.36-1-.07.8-.45,1.49S280.19,130.48,279.91,130.43Z" style="fill:#fff"></path><g style="opacity:0.4"><path d="M292.11,125.54a2.5,2.5,0,0,0-2.54-1.47l-.28-.09a3.73,3.73,0,0,0-3,1.84,2.8,2.8,0,0,0,.51,3.35,3.06,3.06,0,0,0,2.11.67,3.71,3.71,0,0,0,2.76-1.32A3,3,0,0,0,292.11,125.54Z" style="fill:#fff"></path></g><path d="M239.15,160.51c1.15-1.79-3.24-7.17-6-4.92-2.38,1.91-5.87,5.39-2.84,6.33S238.37,161.73,239.15,160.51Z" style="fill:#ff9a6c"></path><path d="M190.4,154.34c.87-1.36-2.46-5.45-4.59-3.74-1.81,1.45-4.46,4.1-2.15,4.81S189.8,155.26,190.4,154.34Z" style="fill:#ff9a6c"></path><path d="M247.57,159.8a2.66,2.66,0,0,0-2.64-.41,3.06,3.06,0,0,0-1.82,1.56,2,2,0,0,0,1.21,2.28,5.19,5.19,0,0,0,2.77.23,1.91,1.91,0,0,0,.91-.28,1.42,1.42,0,0,0,.54-1A2.5,2.5,0,0,0,247.57,159.8Z" style="fill:#ff9a6c"></path><path d="M315.26,152.55a2.66,2.66,0,0,0-2.64-.41,3.06,3.06,0,0,0-1.82,1.56A2,2,0,0,0,312,156a5.19,5.19,0,0,0,2.77.23,1.91,1.91,0,0,0,.91-.28,1.45,1.45,0,0,0,.55-1A2.53,2.53,0,0,0,315.26,152.55Z" style="fill:#ff9a6c"></path><path d="M242.82,156.08a1.79,1.79,0,0,0-1.58.89,2,2,0,0,0-.32,1.59,1.37,1.37,0,0,0,1.59.72,3.51,3.51,0,0,0,1.58-1,1.41,1.41,0,0,0,.38-.53,1,1,0,0,0-.12-.75A1.73,1.73,0,0,0,242.82,156.08Z" style="fill:#ff9a6c"></path><path d="M243.3,426.52a3.2,3.2,0,0,0-1.34-.25l-15.14-.64c-1.4-.13-2.49-.05-2.89.41-.5.25-.46,1-.06,1.45a2.72,2.72,0,0,0,1.56.57,82.68,82.68,0,0,0,16.79.54c.73-.05,1.64-.27,1.75-1A1.1,1.1,0,0,0,243.3,426.52Z" style="fill:#fff"></path></g></svg>
