<svg xmlns="http://www.w3.org/2000/svg" viewBox="0 0 500 500"><g id="freepik--background-complete--inject-85"><path d="M257.15149,432.867l-8.3958-128.9903,.284-.0202,9.5348,128.9112c-.4746,.0354-.9483,.0682-1.423,.0993Zm-26.0533-.0892l-1.2396-.0959,10.3082-128.8506,.46621,.0353-9.53481,128.9112Zm53.7177-3.8653l-28.2022-126.1491,.6118-.1372,28.6483,126.0482-1.0579,.2381Zm-80.9988-.2036l-1.2169-.2802,29.37281-125.8816,.45019,.1035-28.6061,126.0583Zm107.2924-7.7213l-46.4286-120.637,.3383-.1313,47.3476,120.2785c-.4174,.165-.8365,.3282-1.2573,.4898Zm-133.7281-.4056l-1.1597-.4587,47.876-120.0698,.4368,.1726-47.1531,120.3559Zm158.782-11.4772l-64.13239-112.2315,.43089-.2474,64.751,111.8764-1.0495,.6025Zm-183.7338-.5411c-.3837-.2213-.767-.4452-1.1491-.6698l65.5227-111.4254,.332,.1936-64.7056,111.9016Zm206.4794-14.7676l-79.86181-101.6414,.2481-.1969,80.7035,100.9749c-.36179,.2895-.7254,.5773-1.08979,.8634Zm-229.2123-.7364c-.4018-.3197-.802-.6412-1.2005-.9652l81.5838-100.2646,.13339,.1068-80.5167,101.123Zm249.61849-17.9411l-94.2073-88.5098,.2988-.3197,94.7777,87.8988-.8692,.9307Zm-269.85959-.8197l-.8108-.8777,95.1437-87.5016,.3489,.3779-94.6818,88.0014Zm287.11559-20.4834l-106.1286-73.796,.1573-.2281,106.785,72.8417c-.2693,.3955-.5402,.7885-.8137,1.1824Zm-304.30899-1.0191c-.2554-.3728-.5096-.7482-.7616-1.1227l107.22809-72.1869,.1965,.2895-106.66299,73.0201Zm318.41499-22.9812l-116.1447-56.7394,.2643-.542,116.3668,56.2816-.4864,.9998Zm-332.26069-.9072c-.1982-.4099-.3951-.8206-.5903-1.2321l116.8163-55.344,.146,.3046-116.372,56.2715Zm342.48229-24.6029l-123.2222-39.0516,.09341-.3021,123.54709,38.0148c-.138,.446-.277,.8929-.4183,1.3389Zm-352.62599-1.1647c-.1292-.4183-.2567-.8357-.3829-1.2539l123.7798-37.249,.1166,.3812-123.5135,38.1217Zm358.98399-25.9174l-127.733-19.8271,.0715-.4729,127.8475,19.0814-.186,1.2186Zm-365.13109-.9998c-.0661-.4376-.13-.8752-.1927-1.3128l127.956-18.3341,.0555,.3787-127.8188,19.2682Zm367.34259-26.2224l-129.2578-1.1471,.0008-.5335h129.2629v.252c0,.4768-.0017,.9535-.0059,1.4286Zm-240.14399-1.3028H60.0613l.003-1.1908,129.2613,.6707-.0013,.5201Zm110.3022-8.2674l-.0403-.2727,127.79-19.4542c.0724,.4729,.1422,.9459,.2104,1.4197l-127.9601,18.3072Zm-109.6891-.1923l-127.8786-18.8673c.066-.4473,.1338-.8941,.2032-1.3401l127.7288,19.8565-.0534,.3509Zm107.9639-7.6165l-.181-.5899,123.4966-38.1755,.3214,1.046-123.637,37.7194Zm-106.1647-.3362l-123.5631-37.9609,.3796-1.2207,123.3144,38.7612-.1309,.4204Zm103.1974-7.3893l-.22221-.4637,116.335-56.3472,.5166,1.0734-116.62939,55.7375Zm-100.2132-.2487l-116.441-56.1275,.5226-1.0772,116.1447,56.7394-.2263,.4653Zm96.1501-6.8974l-.3307-.4864,106.6621-73.0201,.6302,.9249-106.9616,72.5816Zm-91.9764-.3378l-106.84479-72.7534c.25-.3673,.5012-.7334,.754-1.0986l106.30619,73.5385-.2154,.3135Zm86.6292-6.4312l-.1633-.1755,94.5875-88.1033c.33411,.3589,.6665,.7191,.9973,1.0802l-95.4215,87.1986Zm-81.436-.0812L109.2217,123.0967c.3008-.3249,.6033-.6489,.9067-.972l94.2189,88.4971-.2596,.2782Zm75.4215-5.5425l-.2854-.2285,80.5167-101.123c.3509,.279,.7018,.5601,1.0511,.8428l-81.2824,100.5087Zm-69.3089-.1397l-80.8196-100.8815c.3619-.2899,.7246-.5781,1.089-.8651l79.9797,101.5488-.2491,.1978Zm62.5359-4.541l-.3728-.2167,64.5625-111.985,1.1083,.6438-65.298,111.5579Zm-55.7004-.1376l-64.894-111.7931c.3829-.2222,.7667-.4427,1.1509-.6623l64.0705,112.2669-.3274,.1885Zm48.219-3.5207l-.3383-.1342,47.0884-120.3808c.4208,.1646,.8399,.3303,1.2573,.4974l-48.0074,120.0176Zm-40.7729-.0804l-47.5133-120.2137c.4245-.1678,.8495-.3336,1.2753-.4977l46.5556,120.5873-.3176,.1241Zm32.95911-2.3698l-.34-.0778,28.384-126.108c.44349,.0998,.88619,.2012,1.32789,.3042l-29.37189,125.8816Zm-25.16251-.0425l-28.8291-126.0069c.4489-.1027,.8988-.2041,1.3498-.3034l27.799,126.2384-.3197,.0719Zm16.9569-1.2236l-.3636-.0273,9.3451-128.9247c.4477,.0324,.8954,.0665,1.3414,.1023l-10.3229,128.8497Zm-8.7631-.0135l-9.7385-128.8956c.446-.0336,.8934-.0656,1.341-.0959l8.7631,128.9655-.3656,.026Z" style="fill:#f5f5f5;"></path><g><path d="M151.5896,373.1999c.6352,2.2057-.837,4.5662-3.2883,5.2719-2.4512,.7059-4.9531-.5102-5.5883-2.7161-.6351-2.2059,.8371-4.5662,3.2883-5.272,2.4512-.7059,4.9532,.5102,5.5883,2.7162Z" style="fill:#e0e0e0;"></path><line x1="151.1624" y1="373.1927" x2="140.5176" y2="353.0559" style="fill:none; stroke:#e0e0e0; stroke-miterlimit:10;"></line><path d="M140.4495,352.9271s3.0328,5.737,3.0356,5.7425c-.038-.072,.5751-.5976,.6243-.6414,1.2734-1.1348,2.9106-1.5536,4.5825-1.6164,1.1664-.0439,2.3382,.0343,3.4994-.085,2.6001-.2673,4.5825-1.9817,6.1664-3.9506,.1269-.158,.2515-.3179,.3741-.4793,.1802-.2372,.3587-.4777,.5211-.7277-1.9412,.3841-3.9291,.5431-5.905,.4036-1.9442-.1373-3.8463-.6373-5.8053-.6073-2.3989,.0366-4.8486,.5502-6.9007,1.8378-.0647,.0406-.1288,.0819-.1924,.1238Z" style="fill:#e0e0e0;"></path></g><g><path d="M316.97689,193.0744c.6352,2.2057-.837,4.5662-3.2883,5.2719-2.4512,.7058-4.9531-.5103-5.5883-2.7161-.6351-2.2059,.8371-4.5663,3.2883-5.2721s4.9532,.5103,5.5883,2.7163Z" style="fill:#e0e0e0;"></path><line x1="316.54969" y1="193.0672" x2="305.90489" y2="172.9304" style="fill:none; stroke:#e0e0e0; stroke-miterlimit:10;"></line><path d="M305.83679,172.8016s3.0328,5.737,3.0356,5.7424c-.038-.0719,.5751-.5976,.6243-.6413,1.2734-1.1349,2.9106-1.5536,4.5825-1.6165,1.1664-.0439,2.3382,.0344,3.4994-.085,2.6001-.2672,4.5825-1.9816,6.16641-3.9505,.12689-.1581,.25149-.318,.37409-.4793,.1802-.2373,.3588-.4777,.5211-.7278-1.94119,.3842-3.9291,.5431-5.905,.4036-1.94419-.1373-3.8463-.6373-5.8053-.6073-2.39889,.0367-4.8486,.5503-6.9007,1.8379-.0647,.0405-.1288,.0819-.1924,.1238Z" style="fill:#e0e0e0;"></path></g><g><g><path d="M316.57589,362.4865c-.5184,1.0869-1.8652,1.5222-3.0083,.9725-1.1432-.5498-1.6497-1.8765-1.1315-2.9633,.5184-1.0869,1.8652-1.5223,3.0083-.9725,1.1433,.5497,1.6498,1.8764,1.1315,2.9633Z" style="fill:#e0e0e0;"></path><line x1="316.42449" y1="362.341" x2="319.40989" y2="350.8" style="fill:none; stroke:#e0e0e0; stroke-miterlimit:10;"></line></g><g><path d="M324.48459,366.0372c-.5183,1.0868-1.8803,1.515-3.042,.9565-1.1617-.5588-1.6834-1.8927-1.1651-2.9796,.5183-1.0868,1.8802-1.5151,3.042-.9563,1.1617,.5585,1.6833,1.8926,1.1651,2.9794Z" style="fill:#e0e0e0;"></path><line x1="324.33329" y1="365.8917" x2="327.31849" y2="354.3507" style="fill:none; stroke:#e0e0e0; stroke-miterlimit:10;"></line></g><polygon points="326.29929 358.0359 318.31869 354.7633 318.682 353.3587 326.68479 356.5452 326.29929 358.0359" style="fill:#e0e0e0;"></polygon><polygon points="327.14979 355.9738 327.78259 353.5844 319.28419 350.1003 318.65449 352.7959 327.14979 355.9738" style="fill:#e0e0e0;"></polygon></g><g><g><path d="M149.8789,87.8627c-.8328,1.7461-2.9964,2.4454-4.8329,1.5623-1.8365-.8832-2.6502-3.0146-1.8177-4.7605,.8328-1.746,2.9965-2.4455,4.8329-1.5623,1.8366,.8831,2.6503,3.0145,1.8177,4.7605Z" style="fill:#e0e0e0;"></path><line x1="149.6357" y1="87.629" x2="154.4316" y2="69.0885" style="fill:none; stroke:#e0e0e0; stroke-miterlimit:10;"></line></g><g><path d="M162.584,93.5668c-.8326,1.7461-3.0206,2.434-4.8868,1.5366-1.8663-.8976-2.7043-3.0404-1.8717-4.7866,.8325-1.7459,3.0205-2.4339,4.8869-1.5363,1.8662,.8973,2.7042,3.0404,1.8716,4.7863Z" style="fill:#e0e0e0;"></path><line x1="162.341" y1="93.3331" x2="167.1367" y2="74.7927" style="fill:none; stroke:#e0e0e0; stroke-miterlimit:10;"></line></g><polygon points="165.4993 80.7129 152.6787 75.4555 153.2623 73.1991 166.1187 78.3182 165.4993 80.7129" style="fill:#e0e0e0;"></polygon><polygon points="166.8657 77.4001 167.8822 73.5616 154.2297 67.9645 153.2181 72.2949 166.8657 77.4001" style="fill:#e0e0e0;"></polygon></g><g><g><g><path d="M443.92039,325.5407h-180.7461c-3.2324,0-5.86229-2.6298-5.86229-5.8623V56.405c0-3.2324,2.62989-5.8618,5.86229-5.8618h180.7461c3.2324,0,5.8623,2.6294,5.8623,5.8618V319.6784c0,3.2325-2.6299,5.8623-5.8623,5.8623ZM263.17429,50.7932c-3.0947,0-5.61229,2.5176-5.61229,5.6118V319.6784c0,3.0948,2.51759,5.6123,5.61229,5.6123h180.7461c3.0947,0,5.6123-2.5175,5.6123-5.6123V56.405c0-3.0942-2.5176-5.6118-5.6123-5.6118h-180.7461Z" style="fill:#e0e0e0;"></path><path d="M235.49269,325.5407H54.7461c-3.2324,0-5.8618-2.6298-5.8618-5.8623V56.405c0-3.2324,2.6294-5.8618,5.8618-5.8618H235.49269c3.2324,0,5.86231,2.6294,5.86231,5.8618V319.6784c0,3.2325-2.62991,5.8623-5.86231,5.8623ZM54.7461,50.7932c-3.0942,0-5.6118,2.5176-5.6118,5.6118V319.6784c0,3.0948,2.5176,5.6123,5.6118,5.6123H235.49269c3.0947,0,5.61231-2.5175,5.61231-5.6123V56.405c0-3.0942-2.51761-5.6118-5.61231-5.6118H54.7461Z" style="fill:#e0e0e0;"></path></g><rect x="0" y="386.6101" width="500" height=".25" style="fill:#e0e0e0;"></rect></g><rect x="51.6724" y="400.8746" width="16.06" height=".25" style="fill:#e0e0e0;"></rect><rect x="170.3524" y="398.1646" width="53.53" height=".25" style="fill:#e0e0e0;"></rect><rect x="68.7324" y="410.1646" width="36.25" height=".25" style="fill:#e0e0e0;"></rect><rect x="378.35239" y="398.0346" width="43.19" height=".25" style="fill:#e0e0e0;"></rect><rect x="430.45239" y="398.0346" width="6.33" height=".25" style="fill:#e0e0e0;"></rect><rect x="316.21239" y="404.2646" width="53.89" height=".25" style="fill:#e0e0e0;"></rect></g><polygon points="69.1565 288.3702 72.6543 303.5355 87.8196 307.0333 72.6543 310.5312 69.1565 325.6964 65.6586 310.5312 50.4934 307.0333 65.6586 303.5355 69.1565 288.3702" style="fill:#f0f0f0;"></polygon><polygon points="80.7219 104.0393 84.2197 119.2046 99.385 122.7024 84.2197 126.2003 80.7219 141.3656 77.224 126.2003 62.0588 122.7024 77.224 119.2046 80.7219 104.0393" style="fill:#f0f0f0;"></polygon><polygon points="423.87349 219.0096 427.37129 234.1749 442.53659 237.6727 427.37129 241.1706 423.87349 256.3359 420.37559 241.1706 405.21029 237.6727 420.37559 234.1749 423.87349 219.0096" style="fill:#f0f0f0;"></polygon><polygon points="392.87659 72.338 396.37439 87.5033 411.53969 91.0011 396.37439 94.499 392.87659 109.6642 389.37869 94.499 374.21339 91.0011 389.37869 87.5033 392.87659 72.338" style="fill:#f0f0f0;"></polygon><polygon points="115.4641 259.8553 116.8853 266.0167 123.0467 267.4379 116.8853 268.8591 115.4641 275.0205 114.043 268.8591 107.8816 267.4379 114.043 266.0167 115.4641 259.8553" style="fill:#e6e6e6;"></polygon><polygon points="387.76689 291.6217 389.18809 297.7831 395.34949 299.2043 389.18809 300.6255 387.76689 306.7869 386.34579 300.6255 380.18429 299.2043 386.34579 297.7831 387.76689 291.6217" style="fill:#e6e6e6;"></polygon><polygon points="133.6584 167.5579 135.0796 173.7194 141.241 175.1405 135.0796 176.5617 133.6584 182.7231 132.2372 176.5617 126.0758 175.1405 132.2372 173.7194 133.6584 167.5579" style="fill:#e6e6e6;"></polygon><polygon points="251.73609 35.378 253.15729 41.5394 259.31869 42.9606 253.15729 44.3818 251.73609 50.5432 250.31489 44.3818 244.15349 42.9606 250.31489 41.5394 251.73609 35.378" style="fill:#e6e6e6;"></polygon><polygon points="431.456 155.8251 432.87719 161.9865 439.03859 163.4077 432.87719 164.8289 431.456 170.9903 430.03489 164.8289 423.87349 163.4077 430.03489 161.9865 431.456 155.8251" style="fill:#e6e6e6;"></polygon><polygon points="364.84239 150.6848 366.26349 156.8462 372.42489 158.2674 366.26349 159.6886 364.84239 165.85 363.42119 159.6886 357.25979 158.2674 363.42119 156.8462 364.84239 150.6848" style="fill:#e6e6e6;"></polygon></g><g id="freepik--Shadow--inject-85"><path d="M458.23759,442.6423c0,7.8956-93.5164,14.2964-208.87489,14.2964s-208.87499-6.4008-208.87499-14.2964,93.5165-14.2966,208.87499-14.2966,208.87489,6.4007,208.87489,14.2966Z" style="fill:#f5f5f5;"></path></g><g id="freepik--Musical_notes--inject-85"><g><path d="M367.43689,244.3454c.635,2.2059-.8372,4.5664-3.2884,5.2721-2.4513,.7058-4.9532-.5103-5.5883-2.7163-.63519-2.2057,.837-4.5661,3.2882-5.2719s4.9532,.5102,5.5885,2.7161Z" style="fill:#FF725E;"></path><line x1="367.00949" y1="244.3384" x2="356.36469" y2="224.2014" style="fill:none; stroke:#FF725E; stroke-miterlimit:10;"></line><path d="M356.29659,224.0726s3.0328,5.7372,3.0356,5.7426c-.0379-.0719,.5752-.5976,.6244-.6415,1.2735-1.1347,2.9106-1.5534,4.58241-1.6164,1.16649-.0439,2.33829,.0343,3.49939-.0849,2.6001-.2672,4.5827-1.9818,6.1664-3.9507,.1269-.1579,.2516-.3178,.3743-.4793,.18-.2372,.3586-.4777,.52091-.7276-1.94121,.384-3.929,.5431-5.905,.4035-1.94421-.1373-3.84611-.6372-5.80531-.6073-2.3989,.0366-4.8486,.5504-6.9006,1.838-.0646,.0405-.1288,.0817-.1925,.1236Z" style="fill:#FF725E;"></path></g><g><path d="M104.8506,234.8857c-.5519,2.2281-3.0064,3.5375-5.4824,2.9244-2.4761-.6131-4.036-2.9164-3.4842-5.1447,.5517-2.2281,3.0061-3.5374,5.4821-2.9244,2.4761,.6131,4.0361,2.9164,3.4845,5.1447Z" style="fill:#FF725E;"></path><line x1="104.4838" y1="234.6661" x2="105.3217" y2="211.9041" style="fill:none; stroke:#FF725E; stroke-miterlimit:10;"></line><path d="M105.327,211.7585s-.2387,6.4851-.2389,6.4912c.003-.0813,.7967-.2304,.8613-.2439,1.67-.3468,3.2974,.1083,4.7772,.8889,1.0324,.5446,2.0085,1.1978,3.0738,1.6745,2.386,1.0674,4.96,.5725,7.3155-.342,.1888-.0733,.3766-.1496,.5636-.2282,.2745-.1156,.5493-.2347,.8148-.3701-1.8735-.6371-3.675-1.4923-5.317-2.6003-1.6157-1.0902-3.0136-2.4733-4.7257-3.4261-2.0964-1.1666-4.4752-1.9453-6.8961-1.855-.0762,.0029-.1524,.0065-.2285,.011Z" style="fill:#FF725E;"></path></g><g><g><path d="M289.49179,118.9698c-.0469,2.2949-2.0446,4.1088-4.462,4.0516-2.4176-.0573-4.3393-1.9642-4.2924-4.259,.0469-2.295,2.04461-4.1091,4.462-4.0518,2.4175,.0573,4.3393,1.9642,4.2924,4.2592Z" style="fill:#FF725E;"></path><line x1="289.11459" y1="118.836" x2="285.23769" y2="96.4441" style="fill:none; stroke:#FF725E; stroke-miterlimit:10;"></line></g><g><path d="M306.01779,118.9272c-.0467,2.2949-2.0763,4.1083-4.5329,4.0502-2.4568-.0581-4.4104-1.9657-4.3635-4.2608,.0467-2.2948,2.0762-4.1081,4.533-4.05,2.4567,.0581,4.4103,1.9657,4.3634,4.2606Z" style="fill:#FF725E;"></path><line x1="305.64089" y1="118.7934" x2="301.76369" y2="96.4016" style="fill:none; stroke:#FF725E; stroke-miterlimit:10;"></line></g><polygon points="302.887 103.6034 286.45439 104.1856 285.98249 101.4604 302.38629 100.7113 302.887 103.6034" style="fill:#FF725E;"></polygon><polygon points="302.74529 99.3535 301.96809 94.706 284.46979 95.3274 285.49279 100.5043 302.74529 99.3535" style="fill:#FF725E;"></polygon></g></g><g id="freepik--Character--inject-85"><g><g><path d="M328.03059,277.6861c0,1.7106,24.8045,37.6344,31.2195,41.4834,6.41491,3.849,37.2067,46.1877,37.2067,46.1877l-20.5249,5.132s-22.8154-14.6203-38.065-34.1006c-15.3344-19.5886-40.6281-39.8853-40.6281-39.8853l30.7918-18.8172Z" style="fill:#b97964;"></path><path d="M375.26089,369.1406c-.8443,.1912-5.58289,11.3834-6.0477,12.9326-.4647,1.5491-1.704,8.6752-3.0983,12.0833-1.3942,3.4082,4.9573,4.3377,6.9712,1.2394,2.01391-3.0983,3.4081-8.9851,5.2671-9.7597s4.4925-.6196,8.6753,1.859c4.1827,2.4786,10.5342,11.4637,15.33651,11.1539,4.80239-.3098,3.25329-3.5631,3.25329-3.5631,0,0,3.7179,3.4082,6.5064,1.3943s1.3942-3.5631,1.3942-3.5631c0,0,2.9434,3.5631,5.8868,2.7885s.4132-5.0924-1.0339-6.6924c-.98579-1.09-22.3313-24.2269-22.3313-24.2269l-20.7796,4.3542Z" style="fill:#b97964;"></path><path d="M337.65689,328.1995s4.923-8.0557,14.4693-10.6619c0,0-11.4748-1.8954-14.4693,10.6619Z" style="opacity:.3;"></path><polygon points="316.19249 313.9717 325.94359 322.8176 348.47429 307.2986 340.21089 296.2047 316.19249 313.9717" style="fill:#263238;"></polygon><path d="M405.61829,395.086l-12.3799-10.9046s10.2245,5.9114,12.3799,10.9046Z" style="opacity:.3;"></path><path d="M413.78319,393.3472l-11.0665-11.6255s8.9111,6.6323,11.0665,11.6255Z" style="opacity:.3;"></path></g><g><path d="M190.5144,237.9112s-7.1632-16.1896-1.8386-22.0158c5.3247-5.8262,43.2614-14.0252,64.7501,.7576,16.8937,11.6218-1.0088,24.8129-1.0088,24.8129,0,0-28.1867,20.1129-61.9027-3.5547Z" style="fill:#FF725E;"></path></g><g><ellipse cx="253.42584" cy="165.75255" rx="14.57388" ry="17.32405" transform="translate(-48.92365 148.91952) rotate(-29.99999)" style="fill:#FF725E;"></ellipse><g><path d="M211.30789,236.9589c8.9794-11.8443,2.4584-39.053-2.6404-52.8288l37.4728,20.3838c-.4075,1.7731-.6921,3.5726-.8522,5.3848-.4024,3.2627,.0424,6.5741,1.2908,9.6151,1.1392,2.4854,5.6472,9.1191,5.6472,9.1191,0,0,3.3635,7.7859-18.1393,12.099-9.2299,2.91-22.7789-3.773-22.7789-3.773Z" style="fill:#b97964;"></path><g><g><path d="M200.55319,172.9258c8.1861,18.7409,12.4133,29.4772,25.9581,35.6516,20.3746,9.2871,41.1184-7.8183,38.8648-28.7078-2.0289-18.8019-15.0753-46.2912-37.1639-46.8057-21.7623-.5072-35.845,21.1204-27.659,39.8619Z" style="fill:#b97964;"></path><path d="M187.7636,147.6818c-1.2072-12.3273,27.9049-22.8864,38.1458-20.0324,1.5305,.4263-12.6772,15.0266-11.7649,14.2811l-7.13849,5.6392c-1.35071,.1784-3.29391,2.4795-3.19521,6.7115,0,0,12.3466,31.0796,6.4813,43.4548-8.63909-.8501-13.5964-13.1455-18.6157-19.7267-7.4791-9.8052-17.5317-24.4895-3.9128-30.3275Z" style="fill:#263238;"></path><path d="M187.7636,147.6818c-1.2072-12.3273,27.9049-22.8864,38.1458-20.0324,1.5305,.4263-12.6772,15.0266-11.7649,14.2811l-7.13849,5.6392c-1.35071,.1784-3.29391,2.4795-3.19521,6.7115,0,0,12.3466,31.0796,6.4813,43.4548-8.63909-.8501-13.5964-13.1455-18.6157-19.7267-7.4791-9.8052-17.5317-24.4895-3.9128-30.3275Z" style="fill:#fff; opacity:.3;"></path><path d="M198.56219,191.7036c3.3744,4.3721,8.52881,6.7614,13.1357,7.2479,6.93011,.732,6.8535-6.3119,4.0978-12.153-2.4801-5.2577-6.5239-11.2964-13.0802-9.3191-6.4591,1.9486-8.0114,9.2259-4.1533,14.2242Z" style="fill:#b97964;"></path><path d="M228.12139,167.911c.7138,1.9625,2.3611,3.1587,3.68061,2.6723,1.31869-.486,1.81-2.4714,1.09619-4.4339-.7131-1.9621-2.3609-3.1587-3.6795-2.6724-1.3191,.4863-1.8104,2.4714-1.0973,4.434Z" style="fill:#263238;"></path><path d="M248.322,162.2469c.71289,1.9626,2.36069,3.159,3.67979,2.6727,1.3191-.4864,1.81-2.4714,1.0966-4.434-.7131-1.9626-2.3609-3.159-3.6795-2.6725-1.3191,.4864-1.8104,2.4715-1.09689,4.4338Z" style="fill:#263238;"></path><path d="M243.96979,162.845s9.9464,7.4593,13.4415,10.695c-1.9175,3.4746-7.1788,4.0724-7.1788,4.0724l-6.2627-14.7674Z" style="fill:#a24e3f;"></path><path d="M222.54249,160.859c.3491,.0117,.6991-.1553,.9026-.4694,2.4221-3.7258,6.1173-3.8755,6.1544-3.877,.554-.0165,1.0012-.4674,.998-1.007-.0039-.5396-.4579-.9637-1.0088-.9488-.1955,.0049-4.8268,.191-7.83069,4.8148-.30031,.4612-.16551,1.0637,.30009,1.3447,.151,.0917,.3172,.1374,.4844,.1427Z" style="fill:#263238;"></path></g><path d="M201.14729,184.7864c.38-1.43,1.8503-2.4319,3.3522-2.5968,1.50151-.1645,2.9977,.3836,4.2454,1.1939,1.4972,.9738,2.7217,2.3387,3.5129,3.9173" style="fill:none; opacity:.2; stroke:#000; stroke-linecap:round; stroke-linejoin:round; stroke-width:.5px;"></path></g><path d="M256.55609,150.2095c.1625-.0997,.2981-.2456,.3845-.4292,.2336-.4954,.0192-1.0779-.48059-1.2996-5.01081-2.224-8.92441,.214-9.11391,.3011-.4682,.2952-.6125,.9033-.3219,1.3595,.2896,.4546,.9004,.5862,1.3682,.2982,.159-.108,3.1981-1.9482,7.2201-.1631,.3147,.14,.6677,.1032,.9436-.0669Z" style="fill:#263238;"></path><g><path d="M250.95359,184.4844c-1.2101,2.547-2.2343,5.1782-3.0638,7.8733-.4889-.0665-.99079-.1222-1.4766-.2125-6.6754-.9954-9.45319-3.6506-10.4755-6.3167-.4781-1.3123-.6409-2.7182-.4752-4.105,.07451-.7836,.2576-1.5531,.5439-2.2862,3.2264,2.6445,9.3603,4.0517,12.6793,4.6622,1.442,.1964,2.2679,.3849,2.2679,.3849Z" style="fill:#263238;"></path><path d="M248.75229,184.0463l-.9692,2.2996c-6.2693-.9503-10.55509-2.4424-12.2545-4.6755,.0748-.7836,.2576-1.5531,.5442-2.2861,3.2478,2.671,9.3604,4.0515,12.6795,4.662Z" style="fill:#fff;"></path><path d="M246.39849,192.1468c-6.6752-.9954-9.453-3.6506-10.4751-6.3167,2.529,.4244,4.9634,1.2926,7.1905,2.565,1.4587,.8782,2.6073,2.1897,3.2846,3.7517Z" style="fill:#c15854;"></path></g><path d="M196.9044,142.7569s4.393-31.6308,32.125-35.3311c-2.3249,1.4332-4.3546,3.2972-5.98,5.4922,0,0,21.822-9.9479,34.4468,3.3833l-5.212-.9794s10.3611,11.0516,6.7053,22.0761l-2.7816-3.8968s-5.17089,14.688-20.0954,16.3296l3.8969-4.1209s-23.954,7.6725-31.8429,3.7209c-3.993-1.7943-7.7709-4.033-11.2621-6.6739Z" style="fill:#263238;"></path></g><polyline points="193.6547 174.107 188.6758 167.0302 195.8549 162.4575 201.14729 170.2287" style="fill:none; stroke:#e0e0e0; stroke-miterlimit:10;"></polyline><ellipse cx="206.28869" cy="184.13005" rx="14.57393" ry="17.32402" transform="translate(-64.42786 127.81442) rotate(-30.00028)" style="fill:#FF725E;"></ellipse><path d="M211.95019,181.4842c3.1917,5.5282,2.009,12.1863-2.6416,14.8713-4.65059,2.685-11.008,.3802-14.1997-5.148-3.1917-5.5281-2.009-12.1862,2.6416-14.8713,4.6506-2.685,11.008-.3801,14.1997,5.148Z" style="fill:#263238;"></path></g><path d="M187.0446,168.2823l11.1518-6.916s-9.316-15.9929,1.1919-27.8286c0,0-23.8472,4.6865-12.3437,34.7446Z" style="fill:#FF725E;"></path><g><polygon points="189.9815 313.9717 156.6161 295.3896 179.7873 235.3751 189.9815 313.9717" style="fill:#FF725E;"></polygon><path d="M343.85419,293.5097l-32.8169-53.0435c-4.8456-7.8322-12.9835-13.0424-22.1247-14.1653l-41.4274-5.0887s-4.8835,11.4875-8.5941,12.5215c-2.072,.5774-20.8415-4.6181-23.9459-5.3813l-20.02219,2.4804-15.1357,4.5423,5.6005,76.0383,3.0222,40.6915-2.3461,56.6065,117.3085-.6077-6.1336-109.4621,12.4596,20.1339,34.1558-25.2658Z" style="fill:#FF725E;"></path><path d="M308.269,236.6901l-59.35161,54.8808,49.77,12.4979v18.7488l-73.2192,85.8938h-39.4043l.8709-25.4765,60.0215-69.2632-46.4547-17.767,73.3828-71.7497,16.70361,2.0998s10.37279,1.3651,17.681,10.1353Z" style="fill:#fff; opacity:.4;"></path><path d="M297.23879,298.6416l1.3346-36.7019s8.7649,18.3509-1.3346,36.7019Z" style="opacity:.3;"></path><path d="M185.3878,311.4134l-5.6005-45.9385s-4.2806,29.3986,5.6005,45.9385Z" style="opacity:.3;"></path><g><path d="M237.94029,236.3867c-2.6535,.6922-5.2935,1.4525-7.8024,2.5734-2.4278,1.0846-4.9667,2.5952-6.6121,4.7341-.7565,.9833-1.3645,2.2848-.9443,3.5366,.4032,1.2014,1.6676,1.8611,2.8869,1.8317,1.4265-.0343,2.7311-.8554,3.9003-1.5946,1.186-.7498,2.31631-1.594,3.37631-2.5134,2.432-2.1096,4.47809-4.6537,6.04229-7.466,.4696-.8444-.8254-1.6018-1.2952-.7571-2.337,4.2016-5.7988,7.7589-10.0026,10.1111-.8938,.5002-2.41349,1.2246-3.2759,.2621-.7884-.88,.2393-2.2613,.8547-2.9226,1.6084-1.7283,3.6866-2.9707,5.82671-3.9267,2.38529-1.0655,4.92219-1.7643,7.444-2.4221,.93339-.2435,.53759-1.6907-.39871-1.4465h0Z" style="fill:#263238;"></path><path d="M238.52179,237.5702c2.5969,1.2913,5.2431,2.5428,8.0398,3.3411,2.5531,.7287,5.6505,1.287,8.25841,.5135,2.16729-.6427,3.57109-2.8409,1.86629-4.8072-.8702-1.0038-2.2106-1.3461-3.4647-1.5825-1.4522-.2737-2.9304-.4357-4.4077-.4743-3.43789-.0897-6.8781,.4773-10.11289,1.6385-.90191,.3238-.513,1.7737,.39869,1.4465,3.0166-1.0829,6.1807-1.6379,9.38831-1.5916,1.56179,.0225,3.124,.1763,4.65479,.4897,1.0593,.2168,3.6057,.987,2.6544,2.5766-.613,1.0242-2.3749,1.0977-3.407,1.119-1.5217,.0315-3.0299-.1707-4.5065-.53-3.0161-.734-5.8375-2.0584-8.6048-3.4346-.8617-.4285-1.6224,.8649-.7571,1.2953h0Z" style="fill:#263238;"></path><path d="M238.14109,237.4189c.5351,8.901,1.9351,17.7277,4.1904,26.355,.2439,.9332,1.6911,.5375,1.4464-.3987-2.2221-8.5007-3.6096-17.1857-4.1368-25.9563-.0577-.9593-1.55809-.9658-1.5,0h0Z" style="fill:#263238;"></path><path d="M238.63619,237.7367c3.4809,8.0135,8.4696,15.3082,14.6585,21.4742,.6847,.6821,1.7458-.3781,1.0607-1.0607-6.1051-6.0824-10.9907-13.2669-14.424-21.1706-.3837-.8831-1.6763-.1202-1.2952,.7571h0Z" style="fill:#263238;"></path></g><path d="M278.02819,293.1792l-68.83619,41.5851s37.97439-7.9387,68.83619-41.5851Z" style="opacity:.2;"></path><path d="M259.29439,222.6628c.6735,3.3649-.5096,6.7298-3.5492,10.0947,0,0,7.4914-3.2304,3.5492-10.0947Z" style="opacity:.3;"></path><path d="M195.4915,230.7193s14.9489,7.994,27.6999,7.428c0,0-14.5239,3.6695-27.6999-7.428Z" style="opacity:.3;"></path></g><path d="M182.3961,144.2017c1.8136-5.7111,6.5906-10.39,12.338-12.0847" style="fill:none; stroke:#FF725E; stroke-miterlimit:10;"></path><g><path d="M319.27719,245.664c7.0242,11.5802,11.2333,18.5193,18.2576,30.0996" style="fill:none; stroke:#FF725E; stroke-linecap:round; stroke-linejoin:round;"></path><line x1="338.54819" y1="277.687" x2="341.20179" y2="282.079" style="fill:none; stroke:#FF725E; stroke-linecap:round; stroke-linejoin:round;"></line></g><g><path d="M188.1231,195.8617c-.343,.343-1.6008,7.5465-.6861,10.6337,.9148,3.0872,2.8586,10.405,1.7152,14.8643s-8.3123,9.8853-8.3123,9.8853l-8.6102-13.6586,7.0891-16.5794s1.7068-6.2556,3.5404-10.5028c1.8337-4.2472,5.7726-3.2743,5.7213,0-.0513,3.2742-.4574,5.3575-.4574,5.3575Z" style="fill:#a24e3f;"></path><path d="M167.9844,220.1487s-33.98,71.2454-34.106,84.7485c-.1282,13.7468,7.698,23.0938,22.2386,21.8108,14.5405-1.283,20.733-20.0496,20.733-20.0496l-10.9301-6.0873,19.0389-73.0619-16.9744-7.3605Z" style="fill:#b97964;"></path><path d="M168.6819,224.9699s-2.5426-17.2209-2.7579-21.0969c-.2153-3.8759,8.075-29.7158,8.075-29.7158,0,0,2.1533-.8613,2.9069,.5383l2.4764-2.5839s3.2299,1.1843,2.4763,4.6296c-.7537,3.4453-5.5987,11.1973-5.5987,11.1973l11.5203-8.8287s3.4453,2.584,1.5073,5.2757c-1.9379,2.6916-10.0129,9.0439-10.0129,9.0439l-1.3752,5.1113s13.1108-7.1569,14.8335-4.8959c1.7226,2.261,.8613,3.8759-1.1844,4.4143-2.0456,.5383-9.1516,4.9526-9.9052,5.491-.7537,.5383-3.1224,4.8449-3.1224,4.8449,0,0,4.0512,5.0085,5.9892,11.1455,1.938,6.1369-.5247,11.7045-.5247,11.7045l-15.3035-6.2751Z" style="fill:#b97964;"></path><path d="M165.9199,300.5711l8.8251,11.799s2.5577-3.4459,2.9646-5.2329l-11.7897-6.5661Z" style="fill:#263238;"></path></g></g></g><g id="freepik--Devices--inject-85"><path d="M21.5951,408.3778H477.13019" style="fill:none; stroke:#000; stroke-linecap:round; stroke-linejoin:round; stroke-width:.5px;"></path><g><path d="M296.18909,418.325l10.0504-17.3791s147.59051-.5292,148.3674,0c.7767,.5293,23.8216,19.4312,23.8216,19.4312l-182.2394-2.0521Z" style="fill:#263238;"></path><polygon points="478.42849 438.8532 296.18909 436.8011 296.18909 418.325 478.42849 420.3771 478.42849 438.8532" style="fill:#263238;"></polygon><path d="M296.18909,418.325l10.0504-17.3791s147.59051-.5292,148.3674,0c.7767,.5293,23.8216,19.4312,23.8216,19.4312l-182.2394-2.0521Z" style="fill:#fff; opacity:.5;"></path><polygon points="478.42849 438.8532 296.18909 436.8011 296.18909 418.325 478.42849 420.3771 478.42849 438.8532" style="fill:#fff; opacity:.2;"></polygon><rect x="302.21139" y="422.7271" width="18.99961" height="11.7241" style="opacity:.2;"></rect><rect x="322.57119" y="422.7271" width="6.1581" height="11.7241" style="opacity:.2;"></rect><rect x="330.17619" y="422.7271" width="42.6749" height="8.1316" style="opacity:.2;"></rect><path d="M345.14769,411.5124c.251-.3765,4.947-5.627,4.947-5.627h102.5208l4.3736,6.8451-111.8414-1.2181Z" style="fill:#263238;"></path><path d="M457.27579,412.7305c0,3.0897-25.0365,5.5945-55.9206,5.5945s-56.2075-3.7229-56.2075-6.8126,25.32331-4.3763,56.2075-4.3763,55.9206,2.5047,55.9206,5.5944Z" style="fill:#263238;"></path><path d="M452.61549,405.8854c0,3.7805-22.95,6.8451-51.2603,6.8451s-51.2605-3.0646-51.2605-6.8451,22.9501-6.845,51.2605-6.845,51.2603,3.0646,51.2603,6.845Z" style="fill:#FF725E;"></path><path d="M368.797,411.1724c-.41861-.0511,30.84689-5.5981,30.84689-5.5981l6.7673,7.1562s-20.0688,.5863-37.61419-1.5581Z" style="fill:#fff; opacity:.4;"></path><path d="M399.64389,405.5743l-6.7673-6.5339s26.1515-.7775,46.6093,2.2704l-39.842,4.2635Z" style="fill:#fff; opacity:.4;"></path><path d="M406.41119,405.5743c0,.7733-3.0299,1.4001-6.7673,1.4001s-6.7673-.6268-6.7673-1.4001,3.0298-1.4002,6.7673-1.4002,6.7673,.6269,6.7673,1.4002Z" style="fill:#263238;"></path><ellipse cx="328.72927" cy="411.9712" rx="14.97147" ry="3.6279" style="fill:#263238;"></ellipse><rect x="322.81329" y="399.2963" width="14.7258" height="13.1783" style="fill:#263238;"></rect><path d="M337.61129,399.2963c0,.911-3.3288,1.6496-7.4351,1.6496s-7.435-.7386-7.435-1.6496c0-.9112,3.32881-1.6498,7.435-1.6498s7.4351,.7386,7.4351,1.6498Z" style="fill:#263238;"></path><line x1="329.133" y1="399.1553" x2="377.68659" y2="393.0607" style="fill:none; stroke:#263238; stroke-miterlimit:10; stroke-width:4px;"></line><rect x="374.92734" y="391.96192" width="3.19545" height="4.34256" transform="translate(-57.45072 64.31943) rotate(-9.0747)" style="fill:#263238;"></rect><path d="M308.71179,426.3196c0,.8565-.6943,1.5508-1.5507,1.5508-.8565,0-1.5508-.6943-1.5508-1.5508s.6943-1.5507,1.5508-1.5507c.8564,0,1.5507,.6942,1.5507,1.5507Z" style="fill:#263238;"></path><path d="M313.526,426.3196c0,.8565-.69441,1.5508-1.55081,1.5508-.8565,0-1.5508-.6943-1.5508-1.5508s.6943-1.5507,1.5508-1.5507c.8564,0,1.55081,.6942,1.55081,1.5507Z" style="fill:#263238;"></path><path d="M318.34,426.3196c0,.8565-.69431,1.5508-1.55071,1.5508-.8565,0-1.5508-.6943-1.5508-1.5508s.6943-1.5507,1.5508-1.5507c.8564,0,1.55071,.6942,1.55071,1.5507Z" style="fill:#263238;"></path><path d="M308.71179,430.8587c0,.8564-.6943,1.5507-1.5507,1.5507-.8565,0-1.5508-.6943-1.5508-1.5507,0-.8566,.6943-1.5508,1.5508-1.5508,.8564,0,1.5507,.6942,1.5507,1.5508Z" style="fill:#263238;"></path><path d="M313.526,430.8587c0,.8564-.69441,1.5507-1.55081,1.5507-.8565,0-1.5508-.6943-1.5508-1.5507,0-.8566,.6943-1.5508,1.5508-1.5508,.8564,0,1.55081,.6942,1.55081,1.5508Z" style="fill:#263238;"></path><path d="M318.34,430.8587c0,.8564-.69431,1.5507-1.55071,1.5507-.8565,0-1.5508-.6943-1.5508-1.5507,0-.8566,.6943-1.5508,1.5508-1.5508,.8564,0,1.55071,.6942,1.55071,1.5508Z" style="fill:#263238;"></path><rect x="466.33419" y="423.8981" width="8.0122" height="4.691"></rect><rect x="466.33419" y="430.4887" width="8.0122" height="4.691"></rect></g><g><rect x="213.37979" y="420.2923" width="70.756" height="18.0311" style="fill:#263238;"></rect><rect x="213.37979" y="420.2923" width="70.756" height="18.0311" style="fill:#fff; opacity:.1;"></rect><polygon points="225.36389 401.4799 213.37979 420.2923 284.13579 420.2923 294.02289 401.4799 225.36389 401.4799" style="fill:#263238;"></polygon><polygon points="294.02289 401.4799 294.02289 420.2923 284.13579 438.3234 284.13579 420.2923 294.02289 401.4799" style="fill:#263238;"></polygon><polygon points="294.02289 401.4799 294.02289 420.2923 284.13579 438.3234 284.13579 420.2923 294.02289 401.4799" style="fill:#fff; opacity:.1;"></polygon><polygon points="225.36389 401.4799 213.37979 420.2923 284.13579 420.2923 294.02289 401.4799 225.36389 401.4799" style="fill:#fff; opacity:.2;"></polygon><g><path d="M243.65939,410.5269c0,.7564-2.5153,1.3696-5.6181,1.3696s-5.6181-.6132-5.6181-1.3696,2.5153-1.3697,5.6181-1.3697,5.6181,.6133,5.6181,1.3697Z" style="fill:#FF725E;"></path><path d="M243.65939,410.5269c0,.7564-2.5153,1.3696-5.6181,1.3696s-5.6181-.6132-5.6181-1.3696,2.5153-1.3697,5.6181-1.3697,5.6181,.6133,5.6181,1.3697Z" style="fill:#fff; opacity:.2;"></path><rect x="232.42319" y="404.9395" width="11.2362" height="5.5874" style="fill:#FF725E;"></rect><rect x="232.42319" y="404.9395" width="11.2362" height="5.5874" style="fill:#fff; opacity:.2;"></rect><path d="M243.65939,404.9395c0,.7564-2.5153,1.3697-5.6181,1.3697s-5.6181-.6133-5.6181-1.3697,2.5153-1.3696,5.6181-1.3696,5.6181,.6132,5.6181,1.3696Z" style="fill:#FF725E;"></path></g><g><ellipse cx="232.21719" cy="415.407" rx="5.6181" ry="1.3696" style="fill:#FF725E;"></ellipse><ellipse cx="232.21719" cy="415.407" rx="5.6181" ry="1.3696" style="fill:#fff; opacity:.2;"></ellipse><rect x="226.59909" y="409.8196" width="11.2362" height="5.5874" style="fill:#FF725E;"></rect><rect x="226.59909" y="409.8196" width="11.2362" height="5.5874" style="fill:#fff; opacity:.2;"></rect><path d="M237.83529,409.8196c0,.7564-2.51529,1.3698-5.6181,1.3698s-5.6181-.6134-5.6181-1.3698,2.5153-1.3696,5.6181-1.3696,5.6181,.6132,5.6181,1.3696Z" style="fill:#FF725E;"></path></g><circle cx="225.02129" cy="432.2786" r="1.5778" style="fill:#263238;"></circle><polygon points="245.12949 416.9764 253.66509 404.5121 285.229 404.3283 278.535 416.9764 245.12949 416.9764" style="fill:#263238;"></polygon><g><polygon points="253.88209 406.3092 254.54549 405.3875 258.57449 405.3875 257.93459 406.3092 253.88209 406.3092" style="fill:#FF725E;"></polygon><polygon points="252.95049 407.8176 253.61389 406.8959 257.64279 406.8959 257.003 407.8176 252.95049 407.8176" style="fill:#FF725E;"></polygon><polygon points="252.01879 409.326 252.68219 408.4043 256.71119 408.4043 256.07129 409.326 252.01879 409.326" style="fill:#FF725E;"></polygon><polygon points="251.08719 410.8344 251.75049 409.9127 255.77949 409.9127 255.13959 410.8344 251.08719 410.8344" style="fill:#FF725E;"></polygon><polygon points="250.15549 412.3427 250.81889 411.4211 254.84789 411.4211 254.208 412.3427 250.15549 412.3427" style="fill:#FF725E;"></polygon><polygon points="249.02029 413.7992 249.68369 412.8775 253.71269 412.8775 253.07279 413.7992 249.02029 413.7992" style="fill:#FF725E;"></polygon></g><g><polygon points="259.05249 406.2003 259.71579 405.2787 263.74479 405.2787 263.10489 406.2003 259.05249 406.2003" style="fill:#FF725E;"></polygon><polygon points="258.12079 407.7087 258.78419 406.787 262.81319 406.787 262.17329 407.7087 258.12079 407.7087" style="fill:#FF725E;"></polygon><polygon points="257.18909 409.2171 257.85249 408.2954 261.88149 408.2954 261.24159 409.2171 257.18909 409.2171" style="fill:#FF725E;"></polygon><polygon points="256.25749 410.7255 256.92089 409.8038 260.94989 409.8038 260.31 410.7255 256.25749 410.7255" style="fill:#FF725E;"></polygon><polygon points="255.32579 412.2339 255.98919 411.3122 260.01819 411.3122 259.37829 412.2339 255.32579 412.2339" style="fill:#FF725E;"></polygon></g><g><polygon points="264.05259 406.2003 264.716 405.2787 268.74489 405.2787 268.10509 406.2003 264.05259 406.2003" style="fill:#FF725E;"></polygon><polygon points="263.12089 407.7087 263.78429 406.787 267.81329 406.787 267.17339 407.7087 263.12089 407.7087" style="fill:#FF725E;"></polygon><polygon points="262.18929 409.2171 262.85269 408.2954 266.88159 408.2954 266.24179 409.2171 262.18929 409.2171" style="fill:#FF725E;"></polygon></g><g><polygon points="269.05269 406.2003 269.71609 405.2787 273.74509 405.2787 273.10519 406.2003 269.05269 406.2003" style="fill:#FF725E;"></polygon><polygon points="268.12109 407.7087 268.78439 406.787 272.81339 406.787 272.17349 407.7087 268.12109 407.7087" style="fill:#FF725E;"></polygon></g><g><polygon points="274.05279 406.2003 274.71619 405.2787 278.74519 405.2787 278.10529 406.2003 274.05279 406.2003" style="fill:#FF725E;"></polygon><polygon points="273.12119 407.7087 273.78459 406.787 277.81349 406.787 277.17369 407.7087 273.12119 407.7087" style="fill:#FF725E;"></polygon><polygon points="272.18949 409.2171 272.85289 408.2954 276.88189 408.2954 276.242 409.2171 272.18949 409.2171" style="fill:#FF725E;"></polygon></g><g><polygon points="279.053 406.2003 279.71629 405.2787 283.74529 405.2787 283.10539 406.2003 279.053 406.2003" style="fill:#FF725E;"></polygon><polygon points="278.12129 407.7087 278.78469 406.787 282.81369 406.787 282.17379 407.7087 278.12129 407.7087" style="fill:#FF725E;"></polygon><polygon points="277.18969 409.2171 277.853 408.2954 281.882 408.2954 281.24209 409.2171 277.18969 409.2171" style="fill:#FF725E;"></polygon><polygon points="276.258 410.7255 276.92139 409.8038 280.95039 409.8038 280.31049 410.7255 276.258 410.7255" style="fill:#FF725E;"></polygon><polygon points="275.32639 412.2339 275.98969 411.3122 280.01869 411.3122 279.37879 412.2339 275.32639 412.2339" style="fill:#FF725E;"></polygon><polygon points="274.40849 413.5932 275.07189 412.6715 279.10089 412.6715 278.461 413.5932 274.40849 413.5932" style="fill:#FF725E;"></polygon></g></g><g><g><g><path d="M20.1978,418.2392l20.6002-17.379s171.17139,.0905,171.94819,.6197c.77681,.5292-10.3089,18.8115-10.3089,18.8115l-182.23949-2.0522Z" style="fill:#263238;"></path><polygon points="202.43729 438.7675 20.1978 436.7154 20.1978 418.2392 202.43729 420.2914 202.43729 438.7675" style="fill:#263238;"></polygon><path d="M20.1978,418.2908l20.6002-17.379s171.17139,.0905,171.94819,.6197c.77681,.5292-10.3089,18.8115-10.3089,18.8115l-182.23949-2.0522Z" style="fill:#fff; opacity:.5;"></path><polygon points="202.43729 438.7675 20.1978 436.7154 20.1978 418.2392 202.43729 420.2914 202.43729 438.7675" style="fill:#fff; opacity:.2;"></polygon><rect x="26.2202" y="422.6413" width="18.9996" height="11.7242" style="opacity:.2;"></rect></g><rect x="46.58" y="422.6413" width="6.158" height="11.7242" style="opacity:.2;"></rect><rect x="54.1851" y="422.6413" width="42.6748" height="8.1316" style="opacity:.2;"></rect><path d="M32.7206,426.2339c0,.8565-.6943,1.5507-1.5508,1.5507-.8564,0-1.5507-.6942-1.5507-1.5507s.6943-1.5508,1.5507-1.5508c.8565,0,1.5508,.6943,1.5508,1.5508Z" style="fill:#263238;"></path><path d="M37.5347,426.2339c0,.8565-.6943,1.5507-1.5508,1.5507-.8564,0-1.5507-.6942-1.5507-1.5507s.6943-1.5508,1.5507-1.5508c.8565,0,1.5508,.6943,1.5508,1.5508Z" style="fill:#263238;"></path><path d="M42.3488,426.2339c0,.8565-.6943,1.5507-1.5508,1.5507-.8564,0-1.5508-.6942-1.5508-1.5507s.6944-1.5508,1.5508-1.5508c.8565,0,1.5508,.6943,1.5508,1.5508Z" style="fill:#263238;"></path><path d="M32.7206,430.7729c0,.8565-.6943,1.5507-1.5508,1.5507-.8564,0-1.5507-.6942-1.5507-1.5507s.6943-1.5508,1.5507-1.5508c.8565,0,1.5508,.6943,1.5508,1.5508Z" style="fill:#263238;"></path><path d="M37.5347,430.7729c0,.8565-.6943,1.5507-1.5508,1.5507-.8564,0-1.5507-.6942-1.5507-1.5507s.6943-1.5508,1.5507-1.5508c.8565,0,1.5508,.6943,1.5508,1.5508Z" style="fill:#263238;"></path><path d="M42.3488,430.7729c0,.8565-.6943,1.5507-1.5508,1.5507-.8564,0-1.5508-.6942-1.5508-1.5507s.6944-1.5508,1.5508-1.5508c.8565,0,1.5508,.6943,1.5508,1.5508Z" style="fill:#263238;"></path><polygon points="39.2472 414.1893 42.7398 414.1893 54.4756 403.581 51.1084 403.581 39.2472 414.1893" style="fill:#263238;"></polygon><polygon points="47.8981 414.1893 51.3906 414.1893 63.1265 403.581 59.7592 403.581 47.8981 414.1893" style="fill:#263238;"></polygon><g><rect x="39.0995" y="412.5559" width="3.6403" height="1.6334" style="fill:#FF725E;"></rect><rect x="39.0995" y="412.5559" width="3.6403" height="1.6334" style="opacity:.3;"></rect><polygon points="44.0954 412.9639 42.7398 414.1893 42.7398 412.5559 44.0954 411.3859 44.0954 412.9639" style="fill:#FF725E;"></polygon><polygon points="39.0995 412.5559 40.2523 411.3859 44.0954 411.3859 42.7398 412.5559 39.0995 412.5559" style="fill:#FF725E;"></polygon><polygon points="39.0995 412.5559 40.2523 411.3859 44.0954 411.3859 42.7398 412.5559 39.0995 412.5559" style="fill:#fff; opacity:.3;"></polygon></g><g><rect x="58.2002" y="403.3764" width="3.6403" height="1.6334" style="fill:#FF725E;"></rect><rect x="58.2002" y="403.3764" width="3.6403" height="1.6334" style="opacity:.3;"></rect><polygon points="63.1961 403.7845 61.8405 405.0098 61.8405 403.3764 63.1961 402.2064 63.1961 403.7845" style="fill:#FF725E;"></polygon><polygon points="58.2002 403.3764 59.353 402.2064 63.1961 402.2064 61.8405 403.3764 58.2002 403.3764" style="fill:#FF725E;"></polygon><polygon points="58.2002 403.3764 59.353 402.2064 63.1961 402.2064 61.8405 403.3764 58.2002 403.3764" style="fill:#fff; opacity:.3;"></polygon></g><polygon points="57.3586 414.1893 60.8512 414.1893 72.5871 403.581 69.2198 403.581 57.3586 414.1893" style="fill:#263238;"></polygon><polygon points="66.0095 414.1893 69.5021 414.1893 81.2379 403.581 77.8707 403.581 66.0095 414.1893" style="fill:#263238;"></polygon><g><rect x="57.2109" y="412.5559" width="3.6403" height="1.6334" style="fill:#FF725E;"></rect><rect x="57.2109" y="412.5559" width="3.6403" height="1.6334" style="opacity:.3;"></rect><polygon points="62.2068 412.9639 60.8512 414.1893 60.8512 412.5559 62.2068 411.3859 62.2068 412.9639" style="fill:#FF725E;"></polygon><polygon points="57.2109 412.5559 58.3637 411.3859 62.2068 411.3859 60.8512 412.5559 57.2109 412.5559" style="fill:#FF725E;"></polygon><polygon points="57.2109 412.5559 58.3637 411.3859 62.2068 411.3859 60.8512 412.5559 57.2109 412.5559" style="fill:#fff; opacity:.3;"></polygon></g><g><rect x="74.2771" y="405.0333" width="3.6403" height="1.6334" style="fill:#FF725E;"></rect><rect x="74.2771" y="405.0333" width="3.6403" height="1.6334" style="opacity:.3;"></rect><polygon points="79.273 405.4414 77.9174 406.6667 77.9174 405.0333 79.273 403.8633 79.273 405.4414" style="fill:#FF725E;"></polygon><polygon points="74.2771 405.0333 75.4299 403.8633 79.273 403.8633 77.9174 405.0333 74.2771 405.0333" style="fill:#FF725E;"></polygon><polygon points="74.2771 405.0333 75.4299 403.8633 79.273 403.8633 77.9174 405.0333 74.2771 405.0333" style="fill:#fff; opacity:.3;"></polygon></g><polygon points="75.4701 414.1893 78.9626 414.1893 90.6985 403.581 87.3312 403.581 75.4701 414.1893" style="fill:#263238;"></polygon><polygon points="84.1209 414.1893 87.6135 414.1893 99.3493 403.581 95.9821 403.581 84.1209 414.1893" style="fill:#263238;"></polygon><g><rect x="75.3223" y="412.5559" width="3.6403" height="1.6334" style="fill:#FF725E;"></rect><rect x="75.3223" y="412.5559" width="3.6403" height="1.6334" style="opacity:.3;"></rect><polygon points="80.3182 412.9639 78.9626 414.1893 78.9626 412.5559 80.3182 411.3859 80.3182 412.9639" style="fill:#FF725E;"></polygon><polygon points="75.3223 412.5559 76.4751 411.3859 80.3182 411.3859 78.9626 412.5559 75.3223 412.5559" style="fill:#FF725E;"></polygon><polygon points="75.3223 412.5559 76.4751 411.3859 80.3182 411.3859 78.9626 412.5559 75.3223 412.5559" style="fill:#fff; opacity:.3;"></polygon></g><g><rect x="88.8832" y="408.1461" width="3.6403" height="1.6334" style="fill:#FF725E;"></rect><rect x="88.8832" y="408.1461" width="3.6403" height="1.6334" style="opacity:.3;"></rect><polygon points="93.8791 408.5541 92.5235 409.7795 92.5235 408.1461 93.8791 406.9761 93.8791 408.5541" style="fill:#FF725E;"></polygon><polygon points="88.8832 408.1461 90.036 406.9761 93.8791 406.9761 92.5235 408.1461 88.8832 408.1461" style="fill:#FF725E;"></polygon><polygon points="88.8832 408.1461 90.036 406.9761 93.8791 406.9761 92.5235 408.1461 88.8832 408.1461" style="fill:#fff; opacity:.3;"></polygon></g><polygon points="93.5815 414.1893 97.0741 414.1893 108.8099 403.581 105.4427 403.581 93.5815 414.1893" style="fill:#263238;"></polygon><polygon points="102.2323 414.1893 105.7249 414.1893 117.4608 403.581 114.0935 403.581 102.2323 414.1893" style="fill:#263238;"></polygon><g><rect x="93.4338" y="412.5559" width="3.6403" height="1.6334" style="fill:#FF725E;"></rect><rect x="93.4338" y="412.5559" width="3.6403" height="1.6334" style="opacity:.3;"></rect><polygon points="98.4297 412.9639 97.0741 414.1893 97.0741 412.5559 98.4297 411.3859 98.4297 412.9639" style="fill:#FF725E;"></polygon><polygon points="93.4338 412.5559 94.5866 411.3859 98.4297 411.3859 97.0741 412.5559 93.4338 412.5559" style="fill:#FF725E;"></polygon><polygon points="93.4338 412.5559 94.5866 411.3859 98.4297 411.3859 97.0741 412.5559 93.4338 412.5559" style="fill:#fff; opacity:.3;"></polygon></g><g><rect x="108.1134" y="407.2517" width="3.6403" height="1.6335" style="fill:#FF725E;"></rect><rect x="108.1134" y="407.2517" width="3.6403" height="1.6335" style="opacity:.3;"></rect><polygon points="113.1093 407.6598 111.7537 408.8852 111.7537 407.2517 113.1093 406.0817 113.1093 407.6598" style="fill:#FF725E;"></polygon><polygon points="108.1134 407.2517 109.2662 406.0817 113.1093 406.0817 111.7537 407.2517 108.1134 407.2517" style="fill:#FF725E;"></polygon><polygon points="108.1134 407.2517 109.2662 406.0817 113.1093 406.0817 111.7537 407.2517 108.1134 407.2517" style="fill:#fff; opacity:.3;"></polygon></g><polygon points="111.6929 414.1893 115.1855 414.1893 126.9213 403.581 123.5541 403.581 111.6929 414.1893" style="fill:#263238;"></polygon><polygon points="120.3438 414.1893 123.8363 414.1893 135.5722 403.581 132.2049 403.581 120.3438 414.1893" style="fill:#263238;"></polygon><g><rect x="111.5452" y="412.5559" width="3.6403" height="1.6334" style="fill:#FF725E;"></rect><rect x="111.5452" y="412.5559" width="3.6403" height="1.6334" style="opacity:.3;"></rect><polygon points="116.5411 412.9639 115.1855 414.1893 115.1855 412.5559 116.5411 411.3859 116.5411 412.9639" style="fill:#FF725E;"></polygon><polygon points="111.5452 412.5559 112.698 411.3859 116.5411 411.3859 115.1855 412.5559 111.5452 412.5559" style="fill:#FF725E;"></polygon><polygon points="111.5452 412.5559 112.698 411.3859 116.5411 411.3859 115.1855 412.5559 111.5452 412.5559" style="fill:#fff; opacity:.3;"></polygon></g><g><rect x="127.2123" y="406.435" width="3.6403" height="1.6334" style="fill:#FF725E;"></rect><rect x="127.2123" y="406.435" width="3.6403" height="1.6334" style="opacity:.3;"></rect><polygon points="132.2083 406.8431 130.8526 408.0684 130.8526 406.435 132.2083 405.265 132.2083 406.8431" style="fill:#FF725E;"></polygon><polygon points="127.2123 406.435 128.3651 405.265 132.2083 405.265 130.8526 406.435 127.2123 406.435" style="fill:#FF725E;"></polygon><polygon points="127.2123 406.435 128.3651 405.265 132.2083 405.265 130.8526 406.435 127.2123 406.435" style="fill:#fff; opacity:.3;"></polygon></g></g><polygon points="212.74619 401.4799 212.47109 418.7895 202.43729 438.7675 202.43729 420.2914 212.74619 401.4799" style="fill:#263238;"></polygon><polygon points="212.74619 401.4799 212.47109 418.7895 202.43729 438.7675 202.43729 420.2914 212.74619 401.4799" style="fill:#fff; opacity:.2;"></polygon><polygon points="129.7103 415.9609 143.3736 403.0959 179.0076 403.3162 165.9792 415.9609 129.7103 415.9609" style="fill:#263238;"></polygon><g><path d="M186.77,409.0601c0,.4892-1.3484,.8858-3.0116,.8858-1.6634,0-3.0117-.3966-3.0117-.8858s1.3483-.8858,3.0117-.8858c1.6632,0,3.0116,.3966,3.0116,.8858Z" style="fill:#263238;"></path><path d="M186.77,409.0601c0,.4892-1.3484,.8858-3.0116,.8858-1.6634,0-3.0117-.3966-3.0117-.8858s1.3483-.8858,3.0117-.8858c1.6632,0,3.0116,.3966,3.0116,.8858Z" style="fill:#fff; opacity:.2;"></path><rect x="180.7467" y="405.4465" width="6.0233" height="3.6136" style="fill:#263238;"></rect><rect x="180.7467" y="405.4465" width="6.0233" height="3.6136" style="fill:#fff; opacity:.2;"></rect><path d="M186.77,405.4465c0,.4893-1.3484,.8858-3.0116,.8858-1.6634,0-3.0117-.3965-3.0117-.8858,0-.4892,1.3483-.8858,3.0117-.8858,1.6632,0,3.0116,.3966,3.0116,.8858Z" style="fill:#263238;"></path></g><g><path d="M194.8072,409.0601c0,.4892-1.3483,.8858-3.0116,.8858-1.6634,0-3.0117-.3966-3.0117-.8858s1.3483-.8858,3.0117-.8858c1.6633,0,3.0116,.3966,3.0116,.8858Z" style="fill:#263238;"></path><path d="M194.8072,409.0601c0,.4892-1.3483,.8858-3.0116,.8858-1.6634,0-3.0117-.3966-3.0117-.8858s1.3483-.8858,3.0117-.8858c1.6633,0,3.0116,.3966,3.0116,.8858Z" style="fill:#fff; opacity:.2;"></path><rect x="188.7839" y="405.4465" width="6.0233" height="3.6136" style="fill:#263238;"></rect><rect x="188.7839" y="405.4465" width="6.0233" height="3.6136" style="fill:#fff; opacity:.2;"></rect><path d="M194.8072,405.4465c0,.4893-1.3483,.8858-3.0116,.8858-1.6634,0-3.0117-.3965-3.0117-.8858,0-.4892,1.3483-.8858,3.0117-.8858,1.6633,0,3.0116,.3966,3.0116,.8858Z" style="fill:#263238;"></path></g><g><ellipse cx="180.7467" cy="414.8652" rx="3.0117" ry=".8858" style="fill:#263238;"></ellipse><ellipse cx="180.7467" cy="414.8652" rx="3.0117" ry=".8858" style="fill:#fff; opacity:.2;"></ellipse><rect x="177.735" y="411.2517" width="6.0234" height="3.6135" style="fill:#263238;"></rect><rect x="177.735" y="411.2517" width="6.0234" height="3.6135" style="fill:#fff; opacity:.2;"></rect><ellipse cx="180.7467" cy="411.2517" rx="3.0117" ry=".8858" style="fill:#263238;"></ellipse></g><g><path d="M192.1728,414.8652c0,.4893-1.3484,.8858-3.0117,.8858s-3.0116-.3965-3.0116-.8858c0-.4892,1.3483-.8858,3.0116-.8858s3.0117,.3966,3.0117,.8858Z" style="fill:#263238;"></path><path d="M192.1728,414.8652c0,.4893-1.3484,.8858-3.0117,.8858s-3.0116-.3965-3.0116-.8858c0-.4892,1.3483-.8858,3.0116-.8858s3.0117,.3966,3.0117,.8858Z" style="fill:#fff; opacity:.2;"></path><rect x="186.1495" y="411.2517" width="6.0233" height="3.6135" style="fill:#263238;"></rect><rect x="186.1495" y="411.2517" width="6.0233" height="3.6135" style="fill:#fff; opacity:.2;"></rect><path d="M192.1728,411.2517c0,.4891-1.3484,.8858-3.0117,.8858s-3.0116-.3967-3.0116-.8858c0-.4892,1.3483-.8858,3.0116-.8858s3.0117,.3966,3.0117,.8858Z" style="fill:#263238;"></path></g><g><path d="M202.82349,409.0601c0,.4892-1.3483,.8858-3.0116,.8858-1.6634,0-3.0117-.3966-3.0117-.8858s1.3483-.8858,3.0117-.8858c1.6633,0,3.0116,.3966,3.0116,.8858Z" style="fill:#263238;"></path><path d="M202.82349,409.0601c0,.4892-1.3483,.8858-3.0116,.8858-1.6634,0-3.0117-.3966-3.0117-.8858s1.3483-.8858,3.0117-.8858c1.6633,0,3.0116,.3966,3.0116,.8858Z" style="fill:#fff; opacity:.2;"></path><rect x="196.8002" y="405.4465" width="6.0233" height="3.6136" style="fill:#263238;"></rect><rect x="196.8002" y="405.4465" width="6.0233" height="3.6136" style="fill:#fff; opacity:.2;"></rect><path d="M202.82349,405.4465c0,.4893-1.3483,.8858-3.0116,.8858-1.6634,0-3.0117-.3965-3.0117-.8858,0-.4892,1.3483-.8858,3.0117-.8858,1.6633,0,3.0116,.3966,3.0116,.8858Z" style="fill:#263238;"></path></g><g><path d="M200.37809,414.8652c0,.4893-1.3484,.8858-3.0117,.8858s-3.0116-.3965-3.0116-.8858c0-.4892,1.3483-.8858,3.0116-.8858s3.0117,.3966,3.0117,.8858Z" style="fill:#263238;"></path><path d="M200.37809,414.8652c0,.4893-1.3484,.8858-3.0117,.8858s-3.0116-.3965-3.0116-.8858c0-.4892,1.3483-.8858,3.0116-.8858s3.0117,.3966,3.0117,.8858Z" style="fill:#fff; opacity:.2;"></path><rect x="194.3548" y="411.2517" width="6.0233" height="3.6135" style="fill:#263238;"></rect><rect x="194.3548" y="411.2517" width="6.0233" height="3.6135" style="fill:#fff; opacity:.2;"></rect><path d="M200.37809,411.2517c0,.4891-1.3484,.8858-3.0117,.8858s-3.0116-.3967-3.0116-.8858c0-.4892,1.3483-.8858,3.0116-.8858s3.0117,.3966,3.0117,.8858Z" style="fill:#263238;"></path></g><path d="M193.5738,405.8542h-3.5565v-4.5464c1.066-.6681,2.2381-.7432,3.5565,0v4.5464Z" style="fill:#263238;"></path><path d="M186.2308,405.8542h-3.5565v-4.5464c1.066-.6681,2.2381-.7432,3.5565,0v4.5464Z" style="fill:#263238;"></path><path d="M192.034,401.0665c2.5587-6.2819,11.20589-6.1825,16.75649-5.0181,2.8547,.5989,5.259,1.973,6.5398,4.6734,1.11271,2.3462,1.4882,4.9919,1.8981,7.5311,.0767,.4752,.79961,.2735,.7232-.1994-.4623-2.8644-.8877-5.9126-2.3662-8.4636-1.5581-2.6882-4.4067-3.9128-7.3623-4.4085-5.9049-.9903-14.2499-.8508-16.9123,5.6857-.182,.4468,.5433,.6412,.7232,.1994h0Z" style="fill:#263238;"></path><path d="M185.5356,400.9596c2.8004-6.9567,11.8509-7.0177,18.0818-6.112,3.2445,.4716,6.5119,1.61,8.4105,4.4542,1.7503,2.6219,2.1789,5.908,2.67011,8.9511,.07669,.4752,.79959,.2735,.72319-.1994-.5445-3.3736-1.05219-7.0393-3.236-9.8061-2.14919-2.7228-5.553-3.76-8.8654-4.1914-6.59679-.8592-15.5884-.547-18.5074,6.7043-.1802,.4476,.5449,.6422,.7232,.1993h0Z" style="fill:#263238;"></path><path d="M40.6966,430.7439c.7406,5.7902,5.143,10.2896,10.3576,12.5306,6.7952,2.9203,14.4982,2.0175,21.5991,.9876,4.0742-.5909,8.1557-1.2532,12.2804-1.3371,4.0796-.083,8.0318,.5712,11.9159,1.8007,7.2977,2.3101,14.1224,5.7026,21.6433,7.3483,7.2763,1.5921,14.7946,2.0795,22.2152,1.4355,3.7262-.3234,7.4298-.9265,11.0631-1.815,3.7255-.911,7.3311-2.1984,10.9655-3.4091,3.8094-1.269,7.6997-2.4435,11.7194-2.7802,4.0522-.3393,8.1128,.1686,12.0808,.9789,3.92,.8006,7.7531,1.9861,11.6705,2.786,1.7234,.3518,3.4983,.1975,5.2145-.1241,4.7156-.8836,9.2888-3.0244,13.29511-5.6194,3.33509-2.1602,7.11639-5.0392,8.56229-8.8965,.268-.7149,.41871-1.457,.4326-2.2207,.0088-.4828-.7412-.4828-.75,0-.0726,3.9762-4.1016,7.2678-7.0287,9.3798-3.8998,2.8137-8.3896,5.0574-13.0547,6.2626-1.8453,.4768-3.8113,.8318-5.7221,.6171-1.3752-.1546-2.7348-.5913-4.0739-.9248-2.0057-.4995-4.0078-1.0142-6.0224-1.4767-3.5596-.8171-7.1775-1.4848-10.836-1.6019-3.6031-.1154-7.1468,.4158-10.6222,1.3452-7.1134,1.9023-13.8401,4.7822-21.1413,6.0156-7.3897,1.2484-14.9886,1.3419-22.4086,.2902-7.2802-1.0317-14.0369-3.3905-20.8451-6.0725-3.3529-1.3209-6.7458-2.5954-10.2794-3.3452-3.576-.7588-7.2165-.8598-10.8538-.5798-8.5376,.6571-17.1239,3.2301-25.7132,1.7201-6.8717-1.2081-13.9634-5.8637-14.9139-13.2952-.0604-.4722-.8112-.4783-.75,0h0Z" style="fill:#263238;"></path><path d="M138.6725,408.5637c1.8796,.2872,4.3737-1.5637,6.1001-2.2592,.3683-.1484,.8077-.2878,1.1549-.1015,.3029,.1625,.4144,.5292,.3555,.8463-.0588,.3172-.2529,.5974-.4427,.8679-.5428,.7735-1.0856,1.5469-1.6284,2.3204-.4935,.7032-1.0088,1.509-.8045,2.3239,.2627,1.0482,1.6253,1.5667,2.7941,1.4735,1.5732-.1254,2.9547-1.0274,4.0356-2.0827,1.0808-1.0554,1.9424-2.2853,3.0168-3.3462,.3614-.3567,.7617-.7028,1.2601-.8708,.4985-.168,1.1179-.1178,1.4809,.2376,.487,.4768,.3449,1.2743,.7478,1.8131,.442,.5912,1.4013,.6597,2.1265,.3918,.7253-.2679,1.2993-.7856,1.9311-1.2079,1.1238-.7511,2.4744-1.2139,3.8602-1.3229,.5267-.0414,1.1865,.0449,1.3637,.5014,.2014,.5189-.4101,1.0689-.2587,1.6019,.1436,.5059,.8487,.65,1.4189,.6403,1.27-.0217,2.5328-.3366,3.6397-.9076" style="fill:none; stroke:#FF725E; stroke-miterlimit:10; stroke-width:.25px;"></path></g></g></svg>
