<svg xmlns="http://www.w3.org/2000/svg" viewBox="0 0 500 500"><g id="freepik--background-complete--inject-19"><g><path d="M156.98,305.02c-1.56,2.07-4.51,2.48-6.58,.92-2.07-1.56-2.48-4.51-.92-6.58,1.56-2.07,4.51-2.48,6.58-.92,2.07,1.56,2.48,4.51,.92,6.58Z" style="fill:#e0e0e0;"></path><path d="M157.38,303.36c-.29,0-.38-4.95,.59-10.93,.98-5.96,1.81-10.74,2.06-10.72,.31,.02-.06,4.94-1.04,10.88-.96,5.93-1.33,10.77-1.61,10.77Z" style="fill:#e0e0e0;"></path><path d="M170.07,282.79c.15,.22-2.12,1.58-5.25,1.34-3.13-.21-5.18-1.88-5-2.08,.16-.26,2.25,.87,5.08,1.05,2.82,.23,5.06-.59,5.17-.3Z" style="fill:#e0e0e0;"></path><path d="M169.03,287.55c.18,.21-2.03,1.66-5.06,1.2-3.04-.42-4.75-2.43-4.52-2.58,.19-.23,1.99,1.2,4.67,1.56,2.67,.42,4.79-.46,4.92-.18Z" style="fill:#e0e0e0;"></path></g><g><path d="M324.5,95.14c-.86,1.56-2.83,2.13-4.39,1.27-1.56-.86-2.13-2.83-1.27-4.39,.86-1.56,2.83-2.13,4.39-1.27,1.56,.86,2.13,2.83,1.27,4.39Z" style="fill:#e0e0e0;"></path><path d="M324.61,93.97c-.2,.03-.75-3.33-.67-7.5,.08-4.15,.18-7.49,.35-7.51,.22-.01,.44,3.37,.36,7.51-.07,4.13,.15,7.47-.04,7.5Z" style="fill:#e0e0e0;"></path><path d="M331.23,78.71c.13,.14-1.29,1.28-3.44,1.43-2.15,.16-3.72-.77-3.61-.93,.08-.19,1.62,.37,3.56,.22,1.95-.12,3.39-.9,3.49-.72Z" style="fill:#e0e0e0;"></path><path d="M330.99,82.06c.14,.13-1.22,1.33-3.33,1.32-2.11,.01-3.48-1.19-3.33-1.31,.11-.18,1.47,.62,3.33,.6,1.86,.02,3.22-.78,3.33-.6Z" style="fill:#e0e0e0;"></path></g><g><path d="M121.9,55.38c-1.11,2.02-3.65,2.76-5.67,1.64-2.02-1.11-2.76-3.65-1.64-5.67,1.11-2.02,3.65-2.76,5.67-1.64,2.02,1.11,2.76,3.65,1.64,5.67Z" style="fill:#e0e0e0;"></path><path d="M122.04,53.86c-.25,.04-.96-4.31-.87-9.69,.11-5.37,.23-9.68,.46-9.7,.28-.02,.57,4.35,.46,9.7-.09,5.34,.2,9.65-.05,9.68Z" style="fill:#e0e0e0;"></path><path d="M130.6,34.16c.16,.18-1.67,1.66-4.45,1.84-2.78,.21-4.8-1-4.66-1.2,.1-.25,2.09,.48,4.6,.28,2.51-.16,4.38-1.16,4.51-.92Z" style="fill:#e0e0e0;"></path><path d="M130.29,38.48c.19,.16-1.57,1.72-4.3,1.7-2.73,.02-4.49-1.54-4.3-1.7,.14-.23,1.9,.81,4.3,.78,2.4,.03,4.16-1.01,4.3-.78Z" style="fill:#e0e0e0;"></path></g><g><g><path d="M114.83,124.69c-.89,1.44-2.79,1.88-4.22,.99-1.44-.89-1.88-2.79-.99-4.22s2.79-1.88,4.23-.99c1.44,.89,1.88,2.79,.99,4.23Z" style="fill:#e0e0e0;"></path><path d="M114.99,123.59c-.29,.03-.74-3.2-.46-7.15,.29-3.94,.63-7.08,.9-7.08,.31,0,.45,3.23,.16,7.15-.28,3.9-.31,7.06-.61,7.09Z" style="fill:#e0e0e0;"></path><path d="M125.05,111.9c.09,.23-2.27,1.22-5.33,.69-1.51-.25-2.81-.91-3.56-1.6-.78-.69-.95-1.36-.83-1.41,.14-.09,.51,.36,1.29,.81,.76,.46,1.93,.92,3.29,1.16,2.74,.49,5.08,.03,5.14,.36Z" style="fill:#e0e0e0;"></path></g><path d="M124.44,127.24c-.89,1.44-2.79,1.88-4.22,.99-1.44-.89-1.88-2.79-.99-4.22,.89-1.44,2.79-1.88,4.22-.99,1.44,.89,1.88,2.79,.99,4.22Z" style="fill:#e0e0e0;"></path><path d="M124.6,126.14c-.29,.03-.74-3.2-.46-7.15,.29-3.94,.63-7.08,.9-7.08,.31,0,.45,3.23,.16,7.15-.28,3.9-.31,7.06-.61,7.09Z" style="fill:#e0e0e0;"></path><path d="M125,114c.13,.25-2.06,1.34-4.95,.94-2.89-.37-4.72-2-4.53-2.2,.17-.26,2.08,.82,4.67,1.15,2.59,.37,4.71-.19,4.81,.11Z" style="fill:#e0e0e0;"></path></g><g><g><path d="M378.8,195.02c-.89,1.44-2.79,1.88-4.23,.99-1.44-.89-1.88-2.79-.99-4.22s2.79-1.88,4.22-.99c1.44,.89,1.88,2.79,.99,4.23Z" style="fill:#e0e0e0;"></path><path d="M378.96,193.92c-.29,.03-.74-3.2-.46-7.15,.29-3.94,.63-7.08,.9-7.08,.31,0,.45,3.23,.16,7.15-.28,3.9-.31,7.06-.61,7.09Z" style="fill:#e0e0e0;"></path><path d="M389.01,182.24c.09,.23-2.27,1.22-5.33,.69-1.51-.25-2.81-.91-3.56-1.6-.78-.69-.95-1.36-.83-1.41,.14-.09,.51,.36,1.29,.81,.76,.46,1.93,.92,3.29,1.16,2.74,.49,5.08,.03,5.14,.36Z" style="fill:#e0e0e0;"></path></g><path d="M388.4,197.58c-.89,1.44-2.79,1.88-4.23,.99-1.44-.89-1.88-2.79-.99-4.22,.89-1.44,2.79-1.88,4.22-.99,1.44,.89,1.88,2.79,.99,4.22Z" style="fill:#e0e0e0;"></path><path d="M388.56,196.47c-.29,.03-.74-3.2-.46-7.15,.29-3.94,.63-7.08,.9-7.08,.31,0,.45,3.23,.16,7.15-.28,3.9-.31,7.06-.61,7.09Z" style="fill:#e0e0e0;"></path><path d="M388.96,184.33c.13,.25-2.06,1.34-4.95,.94-2.89-.37-4.72-2-4.53-2.2,.17-.26,2.08,.82,4.67,1.15,2.59,.37,4.71-.19,4.81,.11Z" style="fill:#e0e0e0;"></path></g><rect x="167.97" y="372.23" width="48.65" height="12.87" style="fill:#ebebeb;"></rect><path d="M197.74,398.24s0-.08-.02-.23l-.02-.66c0-.61-.02-1.45-.04-2.53-.02-2.22-.05-5.42-.08-9.44l.15,.15c-11.11,.02-28.78,.06-48.65,.1,.11-.11-.25,.25,.24-.25h0v3.29c0,1.09,0,2.17,0,3.25,0,2.15,0,4.26,0,6.33l-.24-.24c13.85,.04,25.98,.08,34.67,.11,4.33,.03,7.81,.05,10.23,.07,1.18,.01,2.11,.02,2.77,.03,.3,0,.54,.01,.72,.02,.16,0,.25,.01,.26,.02,0,0-.07,.01-.23,.02l-.69,.02c-.65,0-1.56,.02-2.71,.03-2.41,.02-5.87,.04-10.18,.07-8.74,.03-20.92,.07-34.84,.11h-.24v-.24c0-2.07,0-4.18,0-6.33,0-1.07,0-2.16,0-3.25v-3.27h0v-.02h0c.5-.5,.14-.14,.25-.25,19.87,.04,37.54,.07,48.65,.1h.15v.15c-.04,4.07-.06,7.29-.08,9.53-.02,1.07-.03,1.9-.04,2.5,0,.26-.01,.47-.02,.63,0,.14,0,.21-.01,.2Z" style="fill:#e0e0e0;"></path><rect x="363.93" y="274.52" width="48.65" height="12.87" style="fill:#ebebeb;"></rect><rect x="59.34" y="67.87" width="48.65" height="12.87" style="fill:#ebebeb;"></rect><g><rect x="378.56" y="59.4" width="48.65" height="12.87" style="fill:#ebebeb;"></rect><path d="M408.33,85.41s0-.08-.02-.23l-.02-.66c0-.61-.02-1.45-.04-2.53-.02-2.22-.05-5.42-.08-9.44l.15,.15c-11.11,.02-28.78,.06-48.65,.1,.11-.11-.25,.25,.24-.25h0v3.29c0,1.09,0,2.17,0,3.25,0,2.15,0,4.26,0,6.33l-.24-.24c13.85,.04,25.98,.08,34.67,.11,4.33,.03,7.81,.05,10.23,.07,1.18,.01,2.11,.02,2.77,.03,.3,0,.54,.01,.72,.02,.16,0,.25,.01,.26,.02,0,0-.07,.01-.23,.02l-.69,.02c-.65,0-1.56,.02-2.71,.03-2.41,.02-5.87,.04-10.18,.07-8.74,.03-20.92,.07-34.84,.11h-.24v-.24c0-2.07,0-4.18,0-6.33,0-1.07,0-2.16,0-3.25v-3.27h0v-.02h0c.5-.5,.14-.14,.25-.25,19.87,.04,37.54,.07,48.65,.1h.15v.15c-.04,4.07-.06,7.29-.08,9.53-.02,1.07-.03,1.9-.04,2.5,0,.26-.01,.47-.02,.63,0,.14,0,.21-.01,.2Z" style="fill:#e0e0e0;"></path></g><g><path d="M89.41,195.94s0-.08-.01-.23l-.02-.66c0-.61-.02-1.45-.04-2.53-.02-2.22-.05-5.42-.08-9.44l.15,.15c-11.11,.02-28.78,.06-48.65,.1,.11-.11-.25,.25,.24-.25h0v3.29c0,1.09,0,2.17,0,3.25,0,2.15,0,4.26,0,6.33l-.24-.24c13.85,.04,25.98,.08,34.67,.11,4.33,.03,7.81,.05,10.23,.07,1.18,.01,2.11,.02,2.77,.03,.3,0,.54,.01,.72,.02,.16,0,.25,.01,.26,.02,0,0-.07,.01-.23,.02-.18,0-.41,0-.69,.02-.65,0-1.56,.02-2.71,.03-2.41,.02-5.87,.04-10.18,.07-8.74,.03-20.92,.07-34.84,.11h-.24v-.24c0-2.07,0-4.18,0-6.33,0-1.07,0-2.16,0-3.25,0-.55,0-1.09,0-1.64v-1.63h0v-.02h0c.5-.5,.14-.14,.25-.25,19.87,.04,37.54,.07,48.65,.1h.15v.15c-.04,4.07-.06,7.29-.08,9.53-.02,1.07-.03,1.9-.04,2.5l-.02,.63c0,.14,0,.21-.02,.2Z" style="fill:#e0e0e0;"></path><path d="M96,183.06s-.01-.09-.02-.24c0-.18-.01-.41-.02-.68-.01-.63-.03-1.49-.04-2.58-.02-2.26-.06-5.44-.1-9.36l.18,.18c-7.57,.02-17.88,.04-29.23,.07-.22,.22,.3-.3,.25-.25h0v3.35c0,1.11,0,2.2,0,3.28,0,2.15,0,4.24,0,6.24l-.24-.24c8.44,.05,15.7,.08,20.91,.11,2.57,.03,4.63,.05,6.09,.07,.68,.01,1.23,.02,1.64,.03,.38,0,.58,.02,.59,.03,0,0-.17,.02-.53,.03-.4,0-.93,.02-1.59,.03-1.45,.02-3.49,.04-6.04,.07-5.25,.03-12.57,.07-21.07,.11h-.24v-.24c0-2,0-4.09,0-6.24,0-1.08,0-2.17,0-3.28v-3.33h0v-.02h0c-.05,.05,.47-.47,.25-.25,11.35,.03,21.66,.05,29.23,.07h.18v.18c-.04,3.96-.07,7.19-.1,9.47-.02,1.07-.03,1.92-.04,2.54-.01,.58-.03,.87-.04,.86Z" style="fill:#e0e0e0;"></path></g><g><path d="M455.82,195.69s0-.08-.01-.23l-.02-.66c0-.61-.02-1.45-.04-2.53-.02-2.22-.05-5.42-.08-9.44l.15,.15c-11.11,.02-28.78,.06-48.65,.1,.11-.11-.25,.25,.24-.25h0v3.29c0,1.09,0,2.17,0,3.25,0,2.15,0,4.26,0,6.33l-.24-.24c13.85,.04,25.98,.08,34.67,.11,4.33,.03,7.81,.05,10.23,.07,1.18,.01,2.11,.02,2.77,.03,.3,0,.54,.01,.72,.02,.16,0,.25,.01,.26,.02,0,0-.07,.01-.23,.02-.18,0-.41,0-.69,.02-.65,0-1.56,.02-2.71,.03-2.41,.02-5.87,.04-10.18,.07-8.74,.03-20.92,.07-34.84,.11h-.24v-.24c0-2.07,0-4.18,0-6.33,0-1.07,0-2.16,0-3.25,0-.55,0-1.09,0-1.64v-1.63h0v-.02h0c.5-.5,.14-.14,.25-.25,19.87,.04,37.54,.07,48.65,.1h.15v.15c-.04,4.07-.06,7.29-.08,9.53-.02,1.07-.03,1.9-.04,2.5l-.02,.63c0,.14,0,.21-.02,.2Z" style="fill:#e0e0e0;"></path><path d="M462.42,182.82s-.01-.09-.02-.24c0-.18-.01-.41-.02-.68-.01-.63-.03-1.49-.04-2.58-.02-2.26-.06-5.44-.1-9.36l.18,.18c-7.57,.02-17.88,.04-29.23,.07-.22,.22,.3-.3,.25-.25h0v1.68c0,.56,0,1.12,0,1.67,0,1.11,0,2.2,0,3.28,0,2.15,0,4.24,0,6.24l-.24-.24c8.44,.05,15.7,.08,20.91,.11,2.57,.03,4.63,.05,6.09,.07,.68,.01,1.23,.02,1.64,.03,.38,0,.58,.02,.59,.03,0,0-.17,.02-.53,.03-.4,0-.93,.02-1.59,.03-1.45,.02-3.49,.04-6.04,.07-5.25,.03-12.57,.07-21.07,.11h-.24v-.24c0-2,0-4.09,0-6.24,0-1.08,0-2.17,0-3.28v-3.33h0v-.02h0c-.05,.05,.47-.47,.25-.25,11.35,.03,21.66,.05,29.23,.07h.18v.18c-.04,3.96-.07,7.19-.1,9.47-.02,1.07-.03,1.92-.04,2.54-.01,.58-.03,.87-.04,.86Z" style="fill:#e0e0e0;"></path></g><path d="M127.85,268.53s-.01-.08-.02-.23l-.02-.66c0-.61-.02-1.45-.04-2.53-.02-2.22-.05-5.42-.08-9.44l.15,.15c-11.11,.02-28.78,.06-48.65,.1,.11-.11-.25,.25,.24-.25h0v3.29c0,1.09,0,2.17,0,3.25,0,2.15,0,4.26,0,6.33l-.24-.24c13.85,.04,25.98,.08,34.67,.11,4.33,.03,7.81,.05,10.23,.07,1.18,.01,2.11,.02,2.77,.03,.3,0,.54,.01,.72,.02,.16,0,.25,.01,.26,.02,0,0-.07,.01-.23,.02-.18,0-.41,0-.69,.02-.65,0-1.56,.02-2.71,.03-2.41,.02-5.87,.04-10.18,.07-8.74,.03-20.92,.07-34.84,.11h-.24v-.24c0-2.07,0-4.18,0-6.33,0-1.07,0-2.16,0-3.25,0-.55,0-1.09,0-1.64v-1.63h0v-.02h0c.5-.5,.14-.14,.25-.25,19.87,.04,37.54,.07,48.65,.1h.15v.15c-.04,4.07-.06,7.29-.08,9.53-.02,1.07-.03,1.9-.04,2.5l-.02,.63c0,.14,0,.21-.02,.2Z" style="fill:#e0e0e0;"></path><g><g><path d="M414.46,447.14s-4.84-33.25-4.43-52.6c.4-19.35-.02-41.11-.02-41.11h2.23s-1.51,38.4,.13,61.57c1.64,23.14,5.97,32.15,5.97,32.15h-3.87" style="fill:#e0e0e0;"></path><path d="M428.87,316c-.45-1.14-1-2.32-2.03-2.97-1.41-.9-3.27-.52-4.85,.03-6.73,2.38-12.7,14.94-15.43,21.54l8.94,30.13c16.14-14.97,18.93-34.61,13.36-48.73Z" style="fill:#ebebeb;"></path><path d="M426.32,314.25s-.03,.14-.13,.39c-.12,.29-.26,.65-.44,1.1-.39,.95-.94,2.33-1.6,4.04-1.32,3.42-2.99,8.2-4.49,13.59-1.49,5.39-2.52,10.36-3.16,13.97-.32,1.81-.56,3.27-.71,4.28-.08,.47-.14,.86-.19,1.17-.05,.27-.08,.41-.09,.4-.01,0,0-.14,.02-.41,.03-.31,.07-.7,.12-1.18,.11-1.02,.31-2.49,.6-4.31,.57-3.63,1.56-8.61,3.06-14.02,1.5-5.4,3.22-10.19,4.61-13.59,.69-1.7,1.28-3.07,1.71-4,.2-.44,.37-.79,.5-1.07,.12-.24,.19-.37,.2-.36Z" style="fill:#e0e0e0;"></path><path d="M411.53,371.96c-8.38-4.63-13.32-13.34-13.78-22.91-.32-6.69,1.73-13.25,4.06-19.52,.2-.54,.44-1.13,.95-1.42,.7-.4,1.58-.04,2.28,.36,6.09,3.47,9.78,10.08,11.74,16.81,1.31,4.48,1.98,9.2,1.38,13.82-.6,4.62-3.25,9.65-6.63,12.86" style="fill:#e0e0e0;"></path><path d="M411.53,371.96s-.02-.14-.03-.4c0-.31-.01-.69-.02-1.16,0-1-.04-2.46-.13-4.25-.16-3.58-.63-8.52-1.56-13.92-.93-5.4-2.06-10.23-2.89-13.72-.41-1.71-.75-3.11-.99-4.14-.1-.46-.19-.83-.26-1.13-.05-.26-.08-.4-.07-.4,.01,0,.06,.13,.14,.38,.09,.29,.19,.66,.32,1.11,.28,.97,.66,2.37,1.11,4.11,.9,3.48,2.07,8.31,3,13.72,.93,5.41,1.36,10.37,1.45,13.97,.05,1.8,.05,3.25,0,4.26-.02,.47-.03,.85-.05,1.16-.01,.26-.03,.4-.04,.4Z" style="fill:#ebebeb;"></path><path d="M420.99,422.84c8.25,1.81,15.04,7.63,23,10.46,5.26,1.87,11.22,2.53,15.42,6.22-1.01-2.55-3.4-4.24-5.72-5.69-6.54-4.09-13.55-7.43-20.84-9.95-3.74-1.29-7.81-2.37-11.62-1.31" style="fill:#ebebeb;"></path><path d="M409.06,430.19c-10.33-.17-21.21-8.96-31.49-9.49,10.76-3.47,26.17-.64,31.49,9.49" style="fill:#ebebeb;"></path><path d="M413.1,405.41c5.25-1.89,11-1.98,16.51-1.12,5.51,.86,10.83,2.62,16.12,4.38-.53-3.58-3.43-6.28-6.16-8.66-2.05-1.79-4.12-3.6-6.47-4.98-2.35-1.37-5.04-2.31-7.76-2.19-3.29,.14-6.41,1.83-8.57,4.32-2.15,2.48-3.31,4.98-3.67,8.25" style="fill:#ebebeb;"></path><path d="M391.9,394c-6.5-5.55-16.35-5.01-24.9-4.82,13.14,6.28,27.3,14.9,38.61,24.06,.35-6.04-5.5-12.23-13.72-19.25Z" style="fill:#ebebeb;"></path><path d="M416.02,386.34c3.27-2.18,6.58-4.26,10-5.81s6.62-4.03,9.92-5.82c4.29-2.32,8-5.55,11.93-8.42,3.93-2.88,8.26-5.47,13.07-6.24-3.93-.81-8.03-.37-11.89,.69-3.87,1.06-7.54,2.71-11.19,4.36-5.07,2.28-10.23,4.63-14.38,8.34-4.15,3.71-7.89,7.37-7.46,12.92" style="fill:#ebebeb;"></path><path d="M443.8,430.19s-.12-.04-.33-.14c-.24-.13-.54-.28-.9-.47-.78-.41-1.89-1.03-3.3-1.73-.7-.37-1.47-.75-2.3-1.14-.83-.41-1.73-.82-2.68-1.23-1.91-.81-4.04-1.66-6.36-2.22-2.32-.57-4.62-.69-6.63-.17-1.01,.24-1.96,.48-2.81,.84-.85,.34-1.61,.75-2.27,1.16-1.32,.83-2.25,1.72-2.85,2.35-.6,.64-.89,1.03-.92,1.01-.01,0,.05-.11,.19-.3,.13-.19,.34-.47,.62-.81,.57-.67,1.48-1.6,2.81-2.48,.66-.44,1.43-.86,2.29-1.23,.86-.37,1.83-.63,2.85-.89,2.05-.56,4.44-.44,6.79,.14,2.36,.56,4.5,1.43,6.41,2.26,.96,.42,1.85,.84,2.68,1.27,.83,.41,1.6,.8,2.29,1.19,1.39,.74,2.49,1.39,3.25,1.84l.87,.53c.2,.12,.3,.19,.29,.21Z" style="fill:#e0e0e0;"></path><path d="M401.36,425.07s.24,.04,.65,.19c.41,.14,.99,.39,1.68,.73,1.39,.69,3.22,1.86,4.94,3.5,1.71,1.65,2.95,3.43,3.7,4.79,.37,.68,.64,1.25,.8,1.65,.16,.4,.24,.63,.22,.64-.06,.03-.44-.85-1.24-2.16-.79-1.31-2.04-3.03-3.72-4.66-1.69-1.62-3.46-2.8-4.8-3.53-1.34-.74-2.23-1.09-2.21-1.15Z" style="fill:#e0e0e0;"></path><path d="M378.5,393.48s.16,.03,.44,.13c.32,.11,.73,.26,1.24,.44,.55,.2,1.2,.44,1.95,.72,.76,.28,1.59,.7,2.53,1.11,3.72,1.69,8.67,4.53,13.45,8.57,2.36,2.05,4.49,4.14,6.27,6.18,1.78,2.04,3.28,3.96,4.45,5.64,1.18,1.67,2.07,3.06,2.69,4.02,.29,.45,.52,.82,.71,1.11,.16,.25,.24,.39,.23,.4-.01,0-.11-.12-.29-.36-.18-.24-.44-.6-.77-1.07-.65-.94-1.58-2.31-2.78-3.95-1.19-1.65-2.71-3.55-4.49-5.57-1.79-2.02-3.91-4.08-6.26-6.12-4.75-4.01-9.64-6.87-13.32-8.61-.92-.43-1.74-.86-2.49-1.16-.74-.3-1.38-.56-1.93-.78-.5-.21-.9-.38-1.21-.51-.28-.12-.42-.19-.42-.2Z" style="fill:#e0e0e0;"></path><path d="M428.6,399.6s-.3-.01-.82-.11c-.28-.05-.6-.11-.95-.18-.37-.07-.8-.07-1.27-.12-1.86-.13-4.56,.02-7.1,1.4-1.28,.65-2.35,1.52-3.23,2.4-.89,.87-1.57,1.78-2.08,2.57-1.04,1.59-1.36,2.73-1.42,2.71-.02,0,.04-.3,.21-.81,.19-.5,.48-1.23,.99-2.04,.49-.82,1.16-1.77,2.06-2.67,.88-.91,1.98-1.82,3.3-2.48,2.62-1.43,5.41-1.54,7.29-1.33,.48,.07,.91,.09,1.28,.18,.35,.09,.66,.17,.95,.24,.52,.14,.8,.22,.79,.25Z" style="fill:#e0e0e0;"></path><path d="M438.98,367.39s-.13,.09-.39,.24c-.3,.16-.68,.37-1.15,.63-1,.54-2.44,1.34-4.2,2.37-1.74,1.05-3.8,2.33-5.98,3.89-2.18,1.57-4.52,3.39-6.68,5.6-1.07,1.11-2.05,2.27-2.73,3.54-.68,1.3-1.32,2.56-1.92,3.76-1.19,2.41-2.17,4.63-2.87,6.53-.7,1.91-1.14,3.49-1.4,4.6-.26,1.11-.36,1.73-.4,1.72-.01,0,0-.16,.04-.46,.04-.3,.1-.74,.21-1.3,.22-1.12,.62-2.73,1.29-4.66,.68-1.93,1.63-4.17,2.81-6.59,.59-1.21,1.23-2.48,1.9-3.78,.71-1.32,1.71-2.5,2.79-3.63,2.19-2.24,4.55-4.06,6.75-5.62,2.21-1.55,4.28-2.82,6.05-3.84,1.77-1.01,3.24-1.77,4.26-2.27,.49-.23,.88-.42,1.19-.56,.27-.13,.42-.19,.42-.17Z" style="fill:#e0e0e0;"></path><path d="M410.01,398.67s-.1-.31-.2-.87c-.12-.64-.27-1.44-.45-2.39-.39-2.01-1-4.78-1.95-7.75-.95-2.98-2.11-5.56-2.95-7.43-.4-.88-.74-1.62-1.01-2.21-.23-.52-.35-.82-.33-.83,.02-.01,.19,.26,.46,.77,.27,.5,.66,1.24,1.11,2.16,.91,1.84,2.11,4.43,3.07,7.43,.97,2.99,1.53,5.79,1.86,7.82,.16,1.02,.28,1.84,.34,2.41,.06,.57,.09,.89,.06,.89Z" style="fill:#e0e0e0;"></path><path d="M409.27,375.17c-.26-3.9-1.53-7.69-3.36-11.15-5.01-9.48-14.44-16.51-24.95-18.61,7.7,11.48,15.4,22.95,23.1,34.43l2.98,6.15c2.04-3.34,2.49-6.91,2.23-10.82Z" style="fill:#ebebeb;"></path></g><g><rect x="388.69" y="443.02" width="53.72" height="9.52" style="fill:#ebebeb;"></rect><polygon points="392.7 450.65 397.27 480.2 432.93 480.2 438.39 450.65 392.7 450.65" style="fill:#ebebeb;"></polygon><path d="M442.37,452.55c0,.1-12.12,.19-27.06,.19s-27.06-.08-27.06-.19,12.11-.19,27.06-.19,27.06,.08,27.06,.19Z" style="fill:#e0e0e0;"></path></g></g></g><g id="freepik--Floor--inject-19"><path d="M458.56,480.44c0,.14-93.38,.26-208.55,.26s-208.57-.12-208.57-.26,93.36-.26,208.57-.26,208.55,.12,208.55,.26Z" style="fill:#263238;"></path></g><g id="freepik--Plant--inject-19"><g><g><path d="M95.36,442.72s-4.41-30.33-4.04-47.98c.37-17.65-.02-37.51-.02-37.51h2.03s-1.38,35.03,.12,56.16c1.5,21.11,5.44,29.33,5.44,29.33h-3.53" style="fill:#263238;"></path><path d="M108.51,323.1c-.41-1.04-.91-2.12-1.85-2.71-1.29-.82-2.98-.48-4.42,.03-6.14,2.17-11.59,13.63-14.07,19.65l8.16,27.48c14.72-13.66,17.27-31.57,12.19-44.45Z" style="fill:#455a64;"></path><path d="M106.18,321.5s-.03,.13-.12,.36c-.1,.26-.24,.59-.4,1-.36,.86-.86,2.12-1.46,3.68-1.2,3.12-2.73,7.48-4.1,12.4-1.36,4.92-2.3,9.45-2.88,12.74-.29,1.65-.51,2.98-.65,3.91-.07,.43-.13,.78-.17,1.06-.04,.24-.07,.37-.08,.37-.01,0,0-.13,.02-.38,.03-.28,.07-.64,.11-1.07,.1-.93,.28-2.27,.54-3.93,.52-3.31,1.42-7.86,2.79-12.79,1.37-4.93,2.94-9.29,4.2-12.4,.63-1.55,1.16-2.8,1.56-3.65,.19-.4,.34-.72,.46-.98,.11-.22,.17-.34,.18-.33Z" style="fill:#263238;"></path><path d="M92.69,374.14c-7.64-4.22-12.15-12.17-12.57-20.9-.29-6.1,1.58-12.08,3.7-17.81,.18-.5,.4-1.03,.86-1.29,.64-.36,1.44-.04,2.08,.32,5.56,3.16,8.92,9.19,10.71,15.33,1.19,4.08,1.81,8.39,1.26,12.61-.55,4.22-2.96,8.81-6.05,11.73" style="fill:#455a64;"></path><path d="M92.69,374.14s-.02-.13-.03-.37c0-.28-.01-.63-.02-1.05,0-.92-.04-2.24-.11-3.87-.15-3.27-.58-7.77-1.42-12.7-.85-4.92-1.88-9.33-2.64-12.52-.37-1.56-.68-2.84-.9-3.77-.1-.42-.17-.76-.24-1.03-.05-.24-.07-.36-.06-.36,.01,0,.05,.12,.13,.35,.08,.27,.18,.6,.3,1.01,.25,.88,.6,2.16,1.01,3.75,.82,3.17,1.89,7.58,2.74,12.52,.85,4.94,1.24,9.46,1.33,12.74,.04,1.64,.05,2.97,0,3.88-.02,.43-.03,.78-.04,1.06-.01,.24-.03,.37-.04,.37Z" style="fill:#263238;"></path><g style="opacity:.3;"><path d="M92.69,374.14c-7.64-4.22-12.15-12.17-12.57-20.9-.29-6.1,1.58-12.08,3.7-17.81,.18-.5,.4-1.03,.86-1.29,.64-.36,1.44-.04,2.08,.32,5.56,3.16,8.92,9.19,10.71,15.33,1.19,4.08,1.81,8.39,1.26,12.61-.55,4.22-2.96,8.81-6.05,11.73"></path></g><path d="M101.32,420.55c7.52,1.65,13.72,6.96,20.98,9.54,4.8,1.71,10.23,2.31,14.07,5.67-.92-2.32-3.1-3.87-5.22-5.19-5.97-3.73-12.36-6.78-19.01-9.08-3.41-1.18-7.12-2.16-10.6-1.19" style="fill:#455a64;"></path><path d="M90.44,427.25c-9.42-.15-19.34-8.17-28.72-8.65,9.82-3.17,23.87-.58,28.72,8.65" style="fill:#455a64;"></path><path d="M94.12,404.65c4.78-1.72,10.04-1.81,15.06-1.03,5.03,.78,9.88,2.39,14.71,4-.48-3.27-3.13-5.73-5.62-7.9-1.87-1.64-3.76-3.29-5.91-4.54-2.15-1.25-4.6-2.1-7.08-2-3,.13-5.85,1.67-7.82,3.94-1.97,2.27-3.02,4.55-3.35,7.53" style="fill:#455a64;"></path><path d="M74.78,394.25c-5.93-5.06-14.92-4.57-22.71-4.39,11.99,5.73,24.9,13.59,35.22,21.95,.32-5.51-5.02-11.16-12.51-17.56Z" style="fill:#455a64;"></path><g style="opacity:.3;"><path d="M74.78,394.25c-5.93-5.06-14.92-4.57-22.71-4.39,11.99,5.73,24.9,13.59,35.22,21.95,.32-5.51-5.02-11.16-12.51-17.56Z"></path></g><path d="M96.79,387.26c2.98-1.99,6-3.88,9.12-5.3,3.12-1.42,6.03-3.68,9.05-5.31,3.91-2.12,7.3-5.06,10.89-7.68,3.59-2.62,7.53-4.99,11.92-5.69-3.58-.74-7.32-.34-10.85,.63-3.53,.96-6.88,2.47-10.21,3.97-4.63,2.08-9.33,4.22-13.12,7.6-3.78,3.38-7.2,6.72-6.8,11.78" style="fill:#455a64;"></path><path d="M122.12,427.25s-.11-.03-.3-.13c-.22-.12-.49-.26-.82-.43-.71-.38-1.73-.94-3.01-1.58-.64-.34-1.34-.69-2.1-1.04-.76-.38-1.58-.75-2.45-1.12-1.74-.74-3.68-1.52-5.8-2.02-2.11-.52-4.22-.63-6.04-.15-.92,.22-1.79,.44-2.56,.76-.77,.31-1.47,.68-2.07,1.06-1.21,.76-2.05,1.57-2.6,2.15-.55,.58-.81,.94-.84,.92,0,0,.05-.1,.17-.28,.12-.18,.31-.43,.57-.73,.52-.61,1.35-1.46,2.57-2.26,.6-.4,1.3-.79,2.09-1.12,.79-.34,1.67-.58,2.6-.81,1.87-.51,4.05-.4,6.19,.13,2.15,.51,4.11,1.3,5.85,2.07,.87,.39,1.69,.77,2.44,1.16,.76,.37,1.46,.73,2.09,1.08,1.27,.67,2.27,1.27,2.97,1.68,.32,.19,.58,.35,.79,.48,.18,.11,.27,.18,.26,.19Z" style="fill:#263238;"></path><path d="M83.41,422.59s.22,.04,.59,.17c.37,.13,.9,.35,1.54,.67,1.27,.63,2.94,1.69,4.5,3.19,1.56,1.51,2.69,3.13,3.37,4.37,.34,.62,.59,1.14,.73,1.51,.15,.37,.22,.57,.2,.58-.05,.02-.41-.77-1.13-1.97-.72-1.2-1.86-2.77-3.4-4.25-1.54-1.47-3.16-2.55-4.38-3.22-1.22-.68-2.04-.99-2.01-1.05Z" style="fill:#263238;"></path><path d="M62.56,393.77s.14,.03,.4,.12c.29,.1,.67,.24,1.13,.4,.5,.19,1.1,.41,1.78,.66,.69,.26,1.45,.64,2.3,1.02,3.39,1.54,7.91,4.13,12.27,7.82,2.15,1.87,4.09,3.77,5.72,5.63,1.62,1.86,2.99,3.62,4.06,5.14,1.08,1.52,1.89,2.79,2.45,3.67,.26,.41,.48,.75,.64,1.01,.15,.23,.22,.36,.21,.36,0,0-.1-.11-.26-.33-.16-.22-.4-.55-.7-.98-.59-.86-1.44-2.1-2.53-3.61-1.09-1.51-2.47-3.24-4.1-5.08-1.63-1.84-3.57-3.72-5.71-5.58-4.33-3.66-8.8-6.27-12.15-7.86-.84-.39-1.59-.78-2.27-1.06-.67-.27-1.26-.51-1.76-.71-.45-.19-.82-.34-1.11-.46-.25-.11-.38-.17-.38-.18Z" style="fill:#263238;"></path><path d="M108.26,399.35s-.27-.01-.75-.1l-.87-.16c-.34-.07-.73-.07-1.16-.11-1.69-.12-4.16,.02-6.48,1.28-1.17,.59-2.15,1.39-2.95,2.19-.81,.79-1.43,1.62-1.89,2.34-.95,1.45-1.24,2.49-1.3,2.47-.02,0,.03-.27,.19-.73,.17-.46,.44-1.12,.9-1.86,.45-.75,1.06-1.61,1.88-2.43,.81-.83,1.81-1.66,3.01-2.27,2.39-1.3,4.94-1.4,6.65-1.22,.43,.06,.83,.08,1.17,.16l.86,.22c.47,.12,.73,.2,.72,.22Z" style="fill:#263238;"></path><path d="M117.73,369.98s-.12,.09-.36,.22c-.27,.15-.62,.34-1.05,.57-.91,.49-2.23,1.22-3.83,2.16-1.59,.95-3.46,2.13-5.46,3.55-1.99,1.43-4.12,3.09-6.09,5.11-.97,1.01-1.87,2.07-2.49,3.23-.62,1.19-1.21,2.33-1.75,3.43-1.09,2.2-1.98,4.22-2.62,5.96-.64,1.74-1.04,3.19-1.27,4.2-.24,1.01-.33,1.58-.36,1.57-.01,0,0-.14,.04-.42,.03-.27,.09-.67,.2-1.18,.2-1.02,.56-2.49,1.18-4.25,.62-1.76,1.49-3.8,2.56-6.02,.54-1.11,1.12-2.26,1.74-3.45,.65-1.21,1.56-2.28,2.54-3.31,2-2.04,4.15-3.7,6.16-5.12,2.01-1.42,3.91-2.57,5.52-3.5,1.62-.92,2.95-1.61,3.89-2.07,.44-.21,.8-.38,1.08-.52,.25-.11,.38-.17,.39-.16Z" style="fill:#263238;"></path><path d="M91.31,398.51s-.09-.28-.19-.79c-.11-.58-.25-1.31-.41-2.18-.36-1.83-.91-4.36-1.78-7.07-.87-2.71-1.92-5.08-2.69-6.78-.37-.8-.67-1.48-.92-2.02-.21-.48-.32-.75-.3-.76,.02-.01,.17,.24,.42,.7,.25,.46,.6,1.13,1.02,1.97,.83,1.68,1.92,4.04,2.8,6.78,.88,2.73,1.4,5.28,1.7,7.13,.15,.93,.25,1.68,.31,2.2,.06,.52,.08,.81,.06,.81Z" style="fill:#263238;"></path><path d="M90.62,377.07c-.24-3.56-1.4-7.02-3.06-10.17-4.57-8.65-13.17-15.06-22.76-16.97,7.02,10.47,14.05,20.94,21.07,31.41l2.72,5.61c1.86-3.05,2.27-6.31,2.03-9.87Z" style="fill:#455a64;"></path></g><g><rect x="66.43" y="438.96" width="59.93" height="10.62" style="fill:#FF725E;"></rect><polygon points="70.91 447.48 78.11 480.44 113.58 480.44 121.88 447.48 70.91 447.48" style="fill:#FF725E;"></polygon><path d="M126.33,449.6c0,.12-13.52,.21-30.19,.21s-30.19-.09-30.19-.21,13.51-.21,30.19-.21,30.19,.09,30.19,.21Z" style="fill:#263238;"></path></g></g></g><g id="freepik--Musical_notes--inject-19"><g><g><path d="M298.19,115.69c-10.78-5.74-23.43-7.22-35.62-9.28-18.35-3.09-36.67-7.82-52.6-16.92-5.98-3.42-12.25-8.97-10.8-15.41,.98-4.34,5.29-7.34,9.7-8.88s9.19-2.04,13.58-3.67c3.66-1.36,7.45-5.24,5.2-8.27-1.13-1.52-3.28-1.96-5.23-2.23-25.67-3.59-51.45,1.82-71,13.98-7.56,4.7-12.55,12.78-12.95,21.68-.23,5.1,.98,10.05,3.94,13.68,6.77,8.29,17.98,12.16,28.84,14.35,30.83,6.24,63.08,2.27,94.19,7.14,9.52,1.49,20.02,4.62,24.34,12.73,1.86,3.49,2.3,7.47,3.49,11.2,1.19,3.74,3.5,7.55,7.41,8.85,6.49,2.16,13.11-4.05,14.44-10.4,2.38-11.43-6.16-22.81-16.94-28.55Z" style="fill:#FF725E;"></path><g style="opacity:.8;"><path d="M298.19,115.69c-10.78-5.74-23.43-7.22-35.62-9.28-18.35-3.09-36.67-7.82-52.6-16.92-5.98-3.42-12.25-8.97-10.8-15.41,.98-4.34,5.29-7.34,9.7-8.88s9.19-2.04,13.58-3.67c3.66-1.36,7.45-5.24,5.2-8.27-1.13-1.52-3.28-1.96-5.23-2.23-25.67-3.59-51.45,1.82-71,13.98-7.56,4.7-12.55,12.78-12.95,21.68-.23,5.1,.98,10.05,3.94,13.68,6.77,8.29,17.98,12.16,28.84,14.35,30.83,6.24,63.08,2.27,94.19,7.14,9.52,1.49,20.02,4.62,24.34,12.73,1.86,3.49,2.3,7.47,3.49,11.2,1.19,3.74,3.5,7.55,7.41,8.85,6.49,2.16,13.11-4.05,14.44-10.4,2.38-11.43-6.16-22.81-16.94-28.55Z" style="fill:#fff;"></path></g></g><g><path d="M295.21,259.58c1.12,0,2.14-.69,2.71-1.65,2.87-4.85,8.52-5.72,14.26-6.94,12.35-2.62,23.74-9.53,31.78-19.26,6.14-7.44,10.32-18.13,5.77-26.63-4.5-8.4-16.43-10.86-24.98-6.64-8.54,4.22-13.7,13.52-15.16,22.94-1.14,7.33-.7,15.75-5.97,20.98-2.61,2.59-6.23,3.91-9,6.33-2.77,2.42-4.46,6.95-2.01,9.69,0,0,1.02,1.2,2.59,1.19Z" style="fill:#FF725E;"></path><g style="opacity:.8;"><path d="M295.21,259.58c1.12,0,2.14-.69,2.71-1.65,2.87-4.85,8.52-5.72,14.26-6.94,12.35-2.62,23.74-9.53,31.78-19.26,6.14-7.44,10.32-18.13,5.77-26.63-4.5-8.4-16.43-10.86-24.98-6.64-8.54,4.22-13.7,13.52-15.16,22.94-1.14,7.33-.7,15.75-5.97,20.98-2.61,2.59-6.23,3.91-9,6.33-2.77,2.42-4.46,6.95-2.01,9.69,0,0,1.02,1.2,2.59,1.19Z" style="fill:#fff;"></path></g></g><g><path d="M330.78,170.67c0,4.21-3.41,7.62-7.62,7.62s-7.62-3.41-7.62-7.62,3.41-7.62,7.62-7.62,7.62,3.41,7.62,7.62Z" style="fill:#FF725E;"></path><path d="M330.78,170.67c0,4.21-3.41,7.62-7.62,7.62s-7.62-3.41-7.62-7.62,3.41-7.62,7.62-7.62,7.62,3.41,7.62,7.62Z" style="fill:#fff; opacity:.8;"></path></g><g><circle cx="164.3" cy="133.29" r="5" style="fill:#FF725E;"></circle><circle cx="164.3" cy="133.29" r="5" style="fill:#fff; opacity:.8;"></circle></g></g><g><g><path d="M323.98,222.08c-.23,1.83-1.9,3.13-3.74,2.9-1.83-.23-3.13-1.9-2.9-3.74,.23-1.83,1.9-3.13,3.74-2.9,1.83,.23,3.13,1.9,2.9,3.74Z" style="fill:#263238;"></path><path d="M323.64,220.92c-.18,.1-1.99-2.92-3.5-6.95-1.5-4.02-2.68-7.27-2.52-7.35,.2-.1,1.71,3.07,3.2,7.08,1.5,4,2.99,7.12,2.82,7.22Z" style="fill:#263238;"></path><path d="M324.2,203.74c.17,.08-.75,1.72-2.77,2.68-2.01,.98-3.87,.67-3.82,.48,0-.22,1.69-.26,3.5-1.15,1.82-.86,2.91-2.15,3.09-2.02Z" style="fill:#263238;"></path><path d="M325.24,207.04c.19,.07-.67,1.74-2.7,2.53-2.03,.82-3.79,.18-3.7,0,.04-.21,1.65,.04,3.43-.69,1.79-.69,2.8-1.98,2.97-1.85Z" style="fill:#263238;"></path></g><g><path d="M189.95,64.16c-.23,1.83-1.9,3.13-3.74,2.9-1.83-.23-3.13-1.9-2.9-3.74,.23-1.83,1.9-3.13,3.74-2.9,1.83,.23,3.13,1.9,2.9,3.74Z" style="fill:#263238;"></path><path d="M189.61,62.99c-.18,.1-1.99-2.92-3.5-6.95-1.5-4.02-2.68-7.27-2.52-7.35,.2-.1,1.71,3.07,3.2,7.08,1.5,4,2.99,7.12,2.82,7.22Z" style="fill:#263238;"></path><path d="M190.17,45.81c.17,.08-.75,1.72-2.77,2.68-2.01,.98-3.87,.67-3.82,.48,0-.22,1.69-.26,3.5-1.15,1.82-.86,2.91-2.15,3.09-2.02Z" style="fill:#263238;"></path><path d="M191.21,49.12c.19,.07-.67,1.74-2.7,2.53-2.03,.82-3.79,.18-3.7,0,.04-.21,1.65,.04,3.43-.69,1.79-.69,2.8-1.98,2.97-1.85Z" style="fill:#263238;"></path></g><g><path d="M349.33,207.15c-1.56,2.07-4.51,2.48-6.58,.92-2.07-1.56-2.48-4.51-.92-6.58,1.56-2.07,4.51-2.48,6.58-.92,2.07,1.56,2.48,4.51,.92,6.58Z" style="fill:#263238;"></path><path d="M349.73,205.49c-.29,0-.38-4.95,.59-10.93,.98-5.96,1.81-10.74,2.06-10.72,.31,.02-.06,4.94-1.04,10.88-.96,5.93-1.33,10.77-1.61,10.77Z" style="fill:#263238;"></path><path d="M362.42,184.92c.15,.22-2.12,1.58-5.25,1.34-3.13-.21-5.18-1.88-5-2.08,.15-.26,2.25,.87,5.08,1.05,2.82,.23,5.06-.59,5.17-.3Z" style="fill:#263238;"></path><path d="M361.39,189.68c.18,.21-2.03,1.66-5.06,1.2-3.04-.42-4.75-2.43-4.52-2.58,.19-.23,1.99,1.2,4.67,1.56,2.67,.42,4.79-.46,4.92-.18Z" style="fill:#263238;"></path></g><g><path d="M325.33,134.37c-1.09,1.45-3.16,1.74-4.6,.64-1.45-1.09-1.74-3.16-.64-4.6,1.09-1.45,3.16-1.74,4.6-.64,1.45,1.09,1.74,3.16,.64,4.6Z" style="fill:#263238;"></path><path d="M325.61,133.21c-.2,0-.27-3.46,.41-7.65,.69-4.17,1.27-7.52,1.44-7.5,.22,.02-.04,3.46-.73,7.61-.67,4.15-.93,7.54-1.13,7.54Z" style="fill:#263238;"></path><path d="M334.49,118.82c.11,.16-1.49,1.1-3.67,.93-2.19-.15-3.63-1.32-3.5-1.46,.11-.18,1.57,.61,3.55,.74,1.98,.16,3.54-.41,3.62-.21Z" style="fill:#263238;"></path><path d="M333.76,122.15c.13,.15-1.42,1.16-3.54,.84-2.13-.29-3.33-1.7-3.16-1.81,.14-.16,1.39,.84,3.26,1.09,1.87,.29,3.36-.32,3.44-.12Z" style="fill:#263238;"></path></g><g><path d="M212.86,120.86c-.55,1.73-2.4,2.68-4.13,2.13-1.73-.55-2.68-2.4-2.13-4.13,.55-1.73,2.4-2.68,4.13-2.13,1.73,.55,2.68,2.4,2.13,4.13Z" style="fill:#263238;"></path><path d="M212.74,119.67c-.19,.07-1.4-3.18-2.14-7.35-.73-4.16-1.29-7.51-1.11-7.56,.21-.06,1.1,3.28,1.83,7.43,.73,4.14,1.61,7.42,1.42,7.49Z" style="fill:#263238;"></path><path d="M216.37,103.15c.15,.11-1.04,1.53-3.16,2.1-2.12,.58-3.86-.05-3.78-.22,.04-.21,1.69,.05,3.6-.48,1.92-.5,3.21-1.56,3.35-1.4Z" style="fill:#263238;"></path><path d="M216.78,106.53c.17,.1-.96,1.56-3.07,1.96-2.11,.43-3.7-.51-3.58-.66,.07-.2,1.59,.34,3.44-.05,1.86-.34,3.06-1.41,3.21-1.25Z" style="fill:#263238;"></path></g><g><path d="M156.02,71.72c-1.09,1.45-3.16,1.74-4.6,.64-1.45-1.09-1.74-3.16-.64-4.61,1.09-1.45,3.16-1.74,4.6-.64,1.45,1.09,1.74,3.16,.64,4.61Z" style="fill:#263238;"></path><path d="M156.3,70.56c-.2,0-.27-3.46,.41-7.65,.69-4.17,1.27-7.52,1.44-7.5,.22,.02-.04,3.46-.73,7.61-.67,4.15-.93,7.54-1.13,7.54Z" style="fill:#263238;"></path><path d="M165.18,56.17c.11,.16-1.49,1.1-3.67,.93-2.19-.15-3.63-1.32-3.5-1.46,.11-.18,1.57,.61,3.55,.74,1.98,.16,3.54-.41,3.62-.21Z" style="fill:#263238;"></path><path d="M164.46,59.5c.13,.15-1.42,1.16-3.54,.84-2.13-.29-3.33-1.7-3.16-1.81,.14-.16,1.39,.84,3.26,1.09,1.87,.29,3.36-.32,3.44-.12Z" style="fill:#263238;"></path></g><g><g><path d="M326.7,255c-.89,1.64-2.94,2.25-4.58,1.36s-2.25-2.94-1.36-4.58c.89-1.64,2.94-2.25,4.58-1.36,1.64,.89,2.25,2.94,1.36,4.58Z" style="fill:#263238;"></path><path d="M326.81,253.78c-.32,.05-1.02-3.47-.97-7.83,.06-4.34,.23-7.82,.53-7.84,.34-.03,.7,3.52,.64,7.84-.05,4.31,.12,7.78-.2,7.83Z" style="fill:#263238;"></path><path d="M337.09,240.29c.12,.25-2.42,1.49-5.81,1.11-1.67-.18-3.14-.81-4.02-1.53-.9-.71-1.13-1.43-1.01-1.5,.15-.1,.58,.37,1.47,.81,.87,.46,2.18,.89,3.7,1.06,3.05,.36,5.58-.3,5.67,.05Z" style="fill:#263238;"></path></g><path d="M337.43,257.18c-.89,1.64-2.94,2.25-4.58,1.36-1.64-.89-2.25-2.94-1.36-4.58,.89-1.64,2.94-2.25,4.58-1.36,1.64,.89,2.25,2.94,1.36,4.58Z" style="fill:#263238;"></path><path d="M337.53,255.96c-.32,.05-1.02-3.47-.97-7.83,.06-4.34,.23-7.82,.53-7.84,.34-.03,.7,3.52,.64,7.84-.05,4.31,.12,7.78-.2,7.83Z" style="fill:#263238;"></path><path d="M337.17,242.59c.16,.26-2.18,1.61-5.38,1.36-3.2-.22-5.32-1.89-5.13-2.12,.17-.3,2.34,.77,5.21,.95,2.87,.23,5.17-.51,5.29-.19Z" style="fill:#263238;"></path></g><g><g><path d="M348.49,157.25c-1.17,1.88-3.64,2.46-5.52,1.29-1.88-1.17-2.46-3.64-1.29-5.52,1.17-1.88,3.64-2.46,5.52-1.29,1.88,1.17,2.46,3.64,1.29,5.52Z" style="fill:#263238;"></path><path d="M348.7,155.81c-.38,.04-.96-4.18-.6-9.34,.38-5.14,.82-9.25,1.18-9.25,.41,0,.58,4.22,.21,9.34-.36,5.1-.41,9.23-.79,9.26Z" style="fill:#263238;"></path><path d="M361.83,140.55c.12,.3-2.97,1.6-6.96,.9-1.97-.33-3.67-1.18-4.65-2.1-1.01-.9-1.24-1.78-1.09-1.85,.19-.11,.66,.48,1.68,1.06,1,.6,2.52,1.21,4.3,1.51,3.58,.64,6.63,.03,6.72,.46Z" style="fill:#263238;"></path></g><path d="M361.03,160.59c-1.17,1.88-3.64,2.46-5.52,1.29-1.88-1.17-2.46-3.64-1.29-5.52,1.17-1.88,3.64-2.46,5.52-1.29,1.88,1.17,2.46,3.64,1.29,5.52Z" style="fill:#263238;"></path><path d="M361.24,159.15c-.38,.04-.96-4.18-.6-9.34,.38-5.14,.82-9.25,1.18-9.25,.41,0,.58,4.22,.21,9.34-.36,5.1-.41,9.23-.79,9.26Z" style="fill:#263238;"></path><path d="M361.77,143.29c.17,.32-2.7,1.75-6.47,1.23-3.77-.48-6.17-2.61-5.92-2.88,.22-.34,2.71,1.08,6.1,1.5,3.38,.48,6.16-.24,6.28,.15Z" style="fill:#263238;"></path></g><g><g><path d="M172.88,99.5c-1.17,1.88-3.64,2.46-5.52,1.29-1.88-1.17-2.46-3.64-1.29-5.52,1.17-1.88,3.64-2.46,5.52-1.29,1.88,1.17,2.46,3.64,1.29,5.52Z" style="fill:#263238;"></path><path d="M173.09,98.06c-.38,.04-.96-4.18-.6-9.34,.38-5.14,.82-9.25,1.18-9.25,.41,0,.58,4.22,.21,9.34-.36,5.1-.41,9.23-.79,9.26Z" style="fill:#263238;"></path><path d="M186.22,82.8c.12,.3-2.97,1.6-6.96,.9-1.97-.33-3.67-1.18-4.65-2.1-1.01-.9-1.24-1.78-1.09-1.85,.19-.11,.66,.48,1.68,1.06,1,.6,2.52,1.21,4.3,1.51,3.58,.64,6.63,.03,6.72,.47Z" style="fill:#263238;"></path></g><path d="M185.43,102.84c-1.17,1.88-3.64,2.46-5.52,1.29-1.88-1.17-2.46-3.64-1.29-5.52,1.17-1.88,3.64-2.46,5.52-1.29,1.88,1.17,2.46,3.64,1.29,5.52Z" style="fill:#263238;"></path><path d="M185.64,101.4c-.38,.04-.96-4.18-.6-9.34,.38-5.14,.82-9.25,1.18-9.25,.41,0,.58,4.22,.21,9.34-.36,5.1-.41,9.23-.79,9.26Z" style="fill:#263238;"></path><path d="M186.16,85.54c.17,.32-2.7,1.75-6.47,1.23-3.77-.48-6.17-2.61-5.92-2.88,.22-.34,2.71,1.08,6.1,1.5,3.38,.48,6.16-.24,6.28,.15Z" style="fill:#263238;"></path></g><g><g><path d="M220.29,38.69c-.97,1.56-3.03,2.05-4.59,1.07-1.56-.97-2.04-3.03-1.07-4.59s3.03-2.04,4.59-1.07c1.56,.97,2.04,3.03,1.07,4.59Z" style="fill:#263238;"></path><path d="M220.47,37.49c-.32,.03-.8-3.48-.5-7.78,.31-4.28,.68-7.69,.98-7.7,.34,0,.48,3.51,.17,7.77-.3,4.24-.34,7.68-.66,7.71Z" style="fill:#263238;"></path><path d="M231.4,24.79c.1,.25-2.47,1.33-5.79,.75-1.64-.28-3.05-.99-3.87-1.74-.84-.75-1.03-1.48-.91-1.54,.15-.09,.55,.4,1.4,.88,.83,.5,2.09,1.01,3.58,1.26,2.98,.53,5.52,.03,5.59,.39Z" style="fill:#263238;"></path></g><path d="M230.73,41.46c-.97,1.56-3.03,2.04-4.59,1.07-1.56-.97-2.05-3.03-1.07-4.59,.97-1.56,3.03-2.05,4.59-1.07,1.56,.97,2.05,3.03,1.07,4.59Z" style="fill:#263238;"></path><path d="M230.91,40.27c-.32,.03-.8-3.48-.5-7.78,.31-4.28,.68-7.7,.98-7.7,.34,0,.48,3.51,.17,7.77-.3,4.24-.34,7.68-.66,7.71Z" style="fill:#263238;"></path><path d="M231.34,27.07c.14,.27-2.24,1.46-5.38,1.03-3.14-.4-5.13-2.17-4.93-2.39,.19-.28,2.26,.9,5.08,1.25,2.82,.4,5.12-.2,5.23,.12Z" style="fill:#263238;"></path></g></g></g><g id="freepik--Character--inject-19"><g><g><path d="M233.56,102.95s-24.6-14.98-7.23-30.32c17.38-15.33,62.64-1.09,69.98,2.68,7.34,3.76,10.1,16.1,.55,23.11-11.8,8.66-16.45,7.09-17.09,7.21-.64,.11-46.21-2.68-46.21-2.68Z" style="fill:#263238;"></path><path d="M285.64,63.57c-.38-2.11-.78-4.27-1.92-6.08-.98-1.55-2.46-2.74-4.09-3.59-5.58-2.94-12.35-1.97-18.5-.58-3.96,.9-7.99,2-11.27,4.4-4.81,3.52-7.33,9.29-9.63,14.79l48.29,7.14c-.96-5.36-1.92-10.71-2.88-16.07Z" style="fill:#263238;"></path><path d="M244.11,64.35s7.74-1.37,22.11,0c14.36,1.37,20.48,5.14,20.48,5.14l.58,2.23s-14.12-4.11-22-5c-8.02-.91-21.98-.91-21.98-.91l.82-1.46Z" style="fill:#FF725E;"></path><path d="M269.8,57.12c.04,.07-.8,.61-2.26,1.29-1.46,.68-3.54,1.48-5.93,2.07-2.39,.59-4.6,.86-6.21,.94-1.61,.08-2.6,0-2.6-.08,0-.21,3.95-.32,8.65-1.51,4.71-1.15,8.26-2.91,8.35-2.72Z" style="fill:#455a64;"></path><g><path d="M276.38,124.23c2.02-5.8,5.22-18.09,7.98-29.24,2.97-12-5.06-17.7-16.77-21.63l-1.16-.39c-12.8-3.47-20.31-.13-23.42,12.76l-14.13,41.65,17.16,28.44,7.25-7,6.59-14.68s12.31,2.12,16.51-9.9Z" style="fill:#ae7461;"></path><path d="M259.87,134.13s-8.2-1.99-14.6-9.8c0,0,.9,9.72,13.31,12.67l1.29-2.87Z" style="fill:#6f4439;"></path><path d="M277.09,106.11c-.27,.92-1.28,1.45-2.24,1.18-.96-.27-1.53-1.23-1.26-2.15,.27-.92,1.28-1.45,2.24-1.18,.97,.27,1.53,1.23,1.26,2.15Z" style="fill:#263238;"></path><path d="M279.79,100.02c-.29,.15-1.27-1.25-3.13-1.87-1.84-.64-3.52-.14-3.65-.44-.07-.13,.29-.47,1.03-.7,.73-.23,1.86-.32,3.02,.07,1.15,.39,1.98,1.14,2.39,1.77,.42,.63,.48,1.1,.34,1.17Z" style="fill:#263238;"></path><path d="M260.37,99.47c-.27,.92-1.28,1.45-2.24,1.18-.96-.27-1.53-1.23-1.26-2.15,.27-.92,1.28-1.45,2.24-1.18,.97,.27,1.53,1.23,1.26,2.15Z" style="fill:#263238;"></path><path d="M261.45,94.26c-.29,.15-1.27-1.25-3.13-1.87-1.84-.64-3.52-.14-3.65-.44-.06-.13,.29-.47,1.03-.7,.73-.23,1.86-.32,3.01,.07,1.15,.39,1.98,1.14,2.39,1.77,.42,.63,.48,1.1,.34,1.16Z" style="fill:#263238;"></path><path d="M263.57,110.26c.03-.11,1.25,.08,3.19,.47,.49,.11,.97,.17,1.16-.13,.23-.3,.2-.88,.15-1.51-.06-1.29-.12-2.65-.19-4.07-.22-5.78-.22-10.48,.02-10.48,.23,0,.6,4.68,.83,10.46,.04,1.42,.09,2.78,.13,4.08,0,.6,.1,1.31-.38,1.94-.25,.31-.68,.45-1.01,.43-.33,0-.6-.09-.84-.16-1.91-.53-3.08-.91-3.05-1.02Z" style="fill:#263238;"></path><path d="M264.23,88.68c-.35,.44-2.12-.42-4.39-.88-2.25-.51-4.22-.46-4.36-1.01-.06-.26,.41-.63,1.28-.88,.87-.25,2.14-.34,3.5-.05,1.35,.3,2.48,.9,3.16,1.49,.69,.59,.96,1.12,.8,1.33Z" style="fill:#263238;"></path><path d="M282.08,93.49c-.53,.29-1.89-.65-3.7-1.28-1.79-.68-3.45-.84-3.65-1.4-.08-.27,.3-.61,1.1-.78,.79-.18,2.01-.13,3.25,.32,1.24,.45,2.19,1.19,2.67,1.84,.5,.65,.56,1.15,.32,1.3Z" style="fill:#263238;"></path><path d="M240.67,94.27c-.18-.16-8.45-5.48-10.95,2.85-2.5,8.34,6.39,9.13,6.47,8.89,.09-.23,4.48-11.75,4.48-11.75Z" style="fill:#ae7461;"></path><path d="M234.6,102.1s-.18,.06-.46,.1c-.27,.04-.71-.01-1.09-.3-.78-.59-1.11-2.21-.7-3.72,.21-.77,.58-1.44,1.03-1.96,.44-.53,.96-.84,1.43-.79,.47,.03,.71,.39,.74,.66,.04,.27-.06,.42-.02,.44,.02,.03,.22-.09,.26-.45,.02-.18-.02-.4-.17-.62-.15-.22-.42-.39-.74-.45-.66-.15-1.41,.27-1.9,.84-.53,.56-.97,1.31-1.2,2.17-.45,1.7-.06,3.53,1.04,4.24,.54,.33,1.08,.3,1.39,.18,.32-.13,.42-.3,.4-.33Z" style="fill:#6f4439;"></path></g><path d="M294,84.82c-.87-.24-1.77-.35-2.68-.34,.58-.45,1.17-.9,1.58-1.51,.41-.6,.63-1.39,.38-2.08-.32-.88-1.28-1.35-2.2-1.52-1.28-.24-2.59-.07-3.89-.13-1-.04-1.7-.47-2.63-.96l-.03-.03s-7.92-4.21-24.79-7.28c-13.02-2.37-17.18,8.11-17.18,8.11l-5.09,11.34c-.3,2.06,1.16,3.69,2.04,5.57,.55,1.17,2.07,1.38,3.3,.95,.72-.25,1.19-.94,1.6-1.58,3.72-5.83,7.58-12.15,7.3-19.06,.45-.12,6.65,1.04,6.9,1.04l23.1,5.94c2.16,3.57-1.2,7.63,1.81,8.04,1.15,.37,2.33,.65,3.54,.73,2.04,.15,4.17-.27,5.81-1.48,1.23-.91,2.13-2.31,2.37-3.8,.14-.87-.4-1.72-1.25-1.95Z" style="fill:#263238;"></path><path d="M289.11,72.52s-.7-.16-1.92-.56c-1.22-.41-2.99-.96-5.2-1.59-4.41-1.27-10.59-2.71-17.53-3.56-6.95-.84-13.3-.92-17.88-.74-2.29,.08-4.15,.19-5.43,.3-1.28,.09-1.99,.12-2,.08,0-.05,.7-.16,1.97-.34,1.27-.18,3.13-.36,5.43-.51,4.6-.3,10.99-.29,17.98,.55,6.99,.86,13.2,2.38,17.59,3.77,2.2,.69,3.96,1.31,5.15,1.8,1.2,.47,1.85,.76,1.83,.8Z" style="fill:#455a64;"></path><path d="M265.94,98.7c-1.46,3.83-6.53,7.01-10.69,5.43s-5.96-6.82-4.5-10.65c1.46-3.83,5.61-4.79,9.78-3.21,4.16,1.58,6.87,4.61,5.42,8.44Z" style="opacity:.3;"></path><path d="M284.64,105.02c-1.2,3.92-6.05,7.43-10.31,6.12-4.26-1.3-6.4-6.42-5.2-10.33,1.2-3.92,5.29-5.15,9.54-3.85,4.26,1.3,7.16,4.14,5.96,8.06Z" style="opacity:.3;"></path><path d="M270.29,98.84c-.12,.09-.76-.85-1.97-1.27-1.21-.43-2.29-.1-2.33-.24-.02-.06,.22-.24,.67-.35,.45-.12,1.14-.14,1.83,.1,.69,.24,1.21,.69,1.49,1.06,.29,.38,.36,.66,.31,.7Z" style="fill:#263238;"></path><path d="M251.14,92.79c0,.14-2.89,.46-6.47,.71-3.58,.25-6.49,.34-6.5,.19,0-.14,2.88-.46,6.47-.71,3.58-.25,6.49-.34,6.5-.19Z" style="fill:#263238;"></path><g style="opacity:.3;"><path d="M299.4,83.5c-.52-.41-1.21-.55-1.87-.49-.66,.06-1.29,.3-1.89,.56-3.78,1.65-8.11,3.98-10.88,7.05v2.48c1.79,1.06,4.08,1.25,6.01,.47,1.93-.77,3.47-2.48,4.03-4.48,1.02-.15,2.05-.31,3-.72s1.81-1.11,2.2-2.06c.39-.95,.2-2.18-.6-2.82Z"></path></g><g><path d="M260.44,76.13c.23,2.18,2.22,5.02,4.02,6.01,1.8,.99,4.06,.93,5.82-.16-.34,2.11,1.44,4.09,3.38,4.46,1.94,.37,3.91-.47,5.62-1.53-.27,1.78,.54,3.61,1.8,4.79,1.26,1.17,2.91,1.75,4.56,1.96,1.62,.21,3.35,.06,4.74-.87,1.39-.94,2.31-2.82,1.87-4.52,1.78,1.33,4.45,.75,5.8-1.09,1.35-1.83,1.37-4.59,.25-6.6-1.12-2.01-3.22-3.24-5.37-3.45-2.15-.21-4.32,.54-6.14,1.8-.5-1.96-2.25-3.46-4.12-3.53-1.87-.07-3.72,1.3-4.34,3.22" style="fill:#263238;"></path><path d="M278.32,76.61s.04-.28,.27-.76c.23-.47,.66-1.16,1.49-1.76,.8-.59,2.11-1.1,3.56-.68,1.41,.39,2.82,1.65,3.31,3.47l-.28-.1c1.4-.98,3.2-1.81,5.26-1.89,2.04-.1,4.32,.73,5.84,2.53,1.53,1.77,2.06,4.53,1.04,6.91-.5,1.18-1.52,2.21-2.8,2.64-1.25,.47-2.79,.36-3.94-.5l.41-.27c.35,1.33-.09,2.83-1,3.91-1,1.23-2.56,1.78-4.02,1.87-1.47,.08-2.92-.15-4.25-.66-1.32-.51-2.51-1.4-3.26-2.57-.75-1.15-1.12-2.55-.92-3.87l.36,.24c-.97,.6-1.99,1.1-3.06,1.4-1.06,.29-2.19,.34-3.21,.02-2.02-.67-3.36-2.71-3.05-4.58l.29,.19c-1.87,1.14-4.04,1.05-5.57,.34-.78-.36-1.4-.88-1.89-1.4-.5-.52-.89-1.05-1.21-1.55-.64-.99-.97-1.87-1.12-2.46-.15-.6-.14-.93-.14-.93,.03,0,.06,.32,.24,.9,.19,.58,.54,1.42,1.2,2.38,.66,.92,1.57,2.12,3.05,2.79,1.46,.65,3.52,.71,5.25-.38l.36-.23-.07,.42c-.27,1.65,.97,3.52,2.8,4.11,.91,.29,1.96,.24,2.96-.04,1-.28,1.98-.77,2.93-1.36l.44-.27-.07,.51c-.17,1.19,.16,2.47,.86,3.53,.69,1.07,1.78,1.88,3.03,2.37,1.25,.48,2.65,.7,4.03,.62,1.37-.09,2.77-.6,3.65-1.69,.82-.98,1.2-2.32,.9-3.45l-.19-.72,.6,.45c.98,.74,2.33,.85,3.45,.43,1.15-.39,2.05-1.29,2.51-2.36,.94-2.17,.47-4.76-.94-6.4-1.4-1.68-3.54-2.49-5.47-2.41-1.96,.06-3.7,.83-5.07,1.76l-.21,.14-.06-.25c-.43-1.69-1.74-2.9-3.05-3.28-1.33-.42-2.58,.03-3.37,.57-.81,.55-1.26,1.2-1.52,1.64-.25,.45-.33,.72-.36,.71Z" style="fill:#455a64;"></path></g><path d="M275.17,74.46c-.06,0,.35-.66-.1-1.77-.22-.54-.67-1.12-1.38-1.56-.71-.45-1.63-.75-2.68-1.02-2.09-.56-4.66-1.01-7.58-1.01-1.46,0-2.99,.11-4.58,.35-1.57,.26-3.25,.58-4.67,1.49l-.14,.09-.14-.1c-1.63-1.13-3.92-1.46-5.92-.71-2.3,.88-3.86,3.15-4.04,5.4l-.02,.22h-.22c-2.97,.18-5.48,2.17-6.44,4.5-.99,2.35-.64,4.84,.28,6.54l.05,.09-.06,.09c-.29,.46-.34,1.07-.35,1.61-.01,.55,.06,1.06,.12,1.54,.15,.96,.36,1.76,.57,2.41,.21,.64,.41,1.13,.58,1.44,.16,.32,.27,.46,.26,.48,0,0-.15-.12-.34-.43-.2-.3-.43-.78-.67-1.43-.24-.64-.48-1.46-.66-2.43-.08-.49-.16-1.01-.16-1.58,0-.56,.01-1.2,.38-1.81v.18c-1.01-1.77-1.42-4.37-.39-6.88,1-2.49,3.63-4.62,6.82-4.82l-.24,.23c.19-2.44,1.85-4.88,4.36-5.84,2.16-.82,4.62-.46,6.39,.77h-.28c1.54-.98,3.28-1.29,4.87-1.54,1.61-.23,3.18-.34,4.66-.31,2.96,.03,5.57,.53,7.66,1.13,1.05,.3,2,.63,2.73,1.12,.74,.48,1.21,1.13,1.41,1.71,.21,.58,.19,1.08,.11,1.39-.08,.31-.18,.45-.18,.45Z" style="fill:#455a64;"></path></g><g><path d="M220.2,127.6s-37.38,13.04-39.28,15.39c-4.14,5.14,12.09,79.82,11.49,80.12-.41,.2-5.87,17.7-7.42,30.25-.8,6.51,3.14,12.67,9.41,14.61h0l74.19-4.64s4.93-2.23,4.74-10.38c-.55-23.89-6.61-74.3-5.94-76.31,.9-2.7-9.79-37.43-9.79-37.43l-2.12,4.41-25.14-23.96-10.13,7.94Z" style="fill:#e0e0e0;"></path><path d="M248.82,153.79c0-.13,6.33-8.38,6.33-8.38,0,0,3.14,9.52,2.76,9.52s-1.85,3.18-1.85,3.18h-5.33l-1.9-4.32Z" style="fill:#455a64;"></path><path d="M250.93,199.81c-.31-.86-2.49-30.49-2.11-33.24,.39-2.76,1.9-8.46,1.9-8.46h5.33s4.17,27.06,5.89,34.3,5.34,42.2,4.65,49.26l-7.75,12.57-7.06-18.09-.86-36.34Z" style="fill:#455a64;"></path><path d="M259.11,146.68c1.2,.73,8.67,3.46,11.85,9.32,3.18,5.86,3.96,21.18,5.09,26.09,1.12,4.92,1.86,22.08,1.86,22.08,0,0,12.86,14.87,13.31,16.57,.45,1.7,3.5,12.86,.36,15.13-3.14,2.27-9.07,5.5-14.68,4.75-5.61-.76-10.06-6.87-10.06-6.87l-5.04-69.62-2.69-17.45Z" style="fill:#e0e0e0;"></path><path d="M267.49,162.77s.03,.25,.03,.73c0,.53-.02,1.22-.03,2.08-.02,.9-.05,2-.03,3.28,.01,1.28-.02,2.74,.04,4.35,.05,3.22,.23,7.06,.52,11.31,.31,4.25,.74,8.92,1.27,13.81,1.09,9.78,2.22,18.63,2.87,25.05,.33,3.21,.57,5.81,.69,7.61,.06,.86,.1,1.55,.14,2.07,.03,.47,.03,.72,.01,.73-.02,0-.06-.25-.12-.72-.06-.52-.14-1.21-.24-2.06-.21-1.85-.5-4.43-.86-7.59-.74-6.41-1.93-15.24-3.02-25.03-.53-4.9-.95-9.57-1.23-13.83-.26-4.26-.4-8.11-.41-11.34-.03-1.61,.02-3.08,.04-4.36,.01-1.28,.07-2.39,.12-3.29,.05-.86,.09-1.55,.12-2.08,.03-.47,.06-.72,.08-.72Z" style="fill:#263238;"></path><path d="M260.07,147.24s.04,.14,.07,.4c.03,.31,.08,.7,.13,1.18,.07,1.04,.19,2.56,0,4.5-.06,.48-.13,.99-.28,1.51-.14,.52-.33,1.07-.7,1.57-.1,.12-.21,.24-.35,.34-.07,.05-.15,.1-.24,.13-.02,0-.06,.01-.09,.02-.01,0-.09,.01-.18-.06-.1-.11-.06-.1-.1-.16-.13-.3-.23-.58-.33-.88-.19-.59-.39-1.21-.59-1.84-.78-2.54-1.61-5.39-2.48-8.5l.43,.07c-1.27,1.91-2.62,3.96-4.28,5.91-1.66,1.95-3.7,3.73-6.05,5.13l-.15,.09-.13-.1-.06-.04c-4.21-2.99-7.64-6.54-10.49-9.94-2.86-3.41-5.14-6.71-6.95-9.53-1.84-2.8-3.47-4.96-4.61-6.45-.55-.71-.99-1.28-1.32-1.71-.3-.39-.46-.6-.44-.61,.01-.01,.2,.17,.52,.54,.33,.37,.8,.92,1.4,1.65,1.19,1.45,2.87,3.59,4.76,6.37,1.86,2.79,4.15,6.05,7.01,9.42,2.86,3.36,6.27,6.88,10.42,9.82l.06,.04h-.28c2.31-1.38,4.29-3.12,5.93-5.03,1.64-1.91,2.99-3.93,4.27-5.84l.29-.43,.14,.5c.86,3.1,1.66,5.97,2.41,8.51,.19,.63,.38,1.24,.56,1.84,.09,.29,.19,.59,.3,.84,0,0,.06,.09,0,.04-.04-.01-.1,.07-.09,.12,0,.11,0-.09,0-.09v-.03s0-.02,0-.02c0,0,0,0,.02,0,.05-.02,.1-.04,.15-.08,.1-.07,.19-.16,.28-.27,.64-.87,.82-1.97,.96-2.9,.23-1.89,.16-3.42,.14-4.45-.02-.48-.04-.87-.05-1.19,0-.27,0-.41,0-.41Z" style="fill:#263238;"></path><path d="M190.48,212.16c-.09-.46,9.57-36.74,9.14-36.41-.44,.33-12.07,21.08-12.07,21.08l3.06,16" style="opacity:.3;"></path><path d="M256.13,157.61c.08,.11-1.04,.87-2.66,1.04-1.61,.18-2.87-.31-2.82-.44,.04-.15,1.26,.09,2.76-.08,1.5-.15,2.65-.66,2.71-.52Z" style="fill:#263238;"></path></g><g><g><path d="M225.59,324.19s-35.98-3.4-39.02-9.66v-2.5c13.96-2.4,27.03-2.56,39.02,0v12.17Z" style="fill:#455a64;"></path><path d="M225.59,324.19s34.03-.92,39.02-9.66v-2.5h-39.02v12.17Z" style="fill:#455a64;"></path></g><polygon points="249.18 332.41 297.06 480.44 289.5 480.44 240.79 332.41 249.18 332.41" style="fill:#455a64;"></polygon><rect x="223.68" y="318.11" width="8.36" height="74.22" style="fill:#455a64;"></rect><polygon points="204.21 332.41 156.34 480.44 163.9 480.44 212.61 332.41 204.21 332.41" style="fill:#455a64;"></polygon><rect x="223.83" y="332.41" width="8.06" height="148.03" style="fill:#455a64;"></rect><rect x="204.21" y="332.41" width="45" height="5.88" style="fill:#455a64;"></rect><rect x="201.22" y="353.38" width="51.05" height="5.88" style="fill:#455a64;"></rect><polygon points="277.02 439.22 170.73 439.22 174.65 432.63 277.02 432.63 277.02 439.22" style="fill:#455a64;"></polygon><path d="M237.59,318.69s-.18,.03-.52,.05c-.4,.01-.89,.02-1.49,.04-1.29,.03-3.17,.02-5.48-.04-4.63-.11-11.02-.5-18.02-1.41-7.01-.92-13.29-2.17-17.79-3.25-2.25-.54-4.06-1.01-5.31-1.37l-1.43-.42c-.33-.1-.49-.16-.49-.18,0-.02,.18,.01,.52,.08,.39,.09,.87,.2,1.45,.33,1.26,.3,3.08,.72,5.34,1.2,4.51,.98,10.78,2.18,17.77,3.09,6.99,.91,13.35,1.35,17.97,1.56,2.31,.1,4.18,.17,5.47,.2l1.49,.06c.34,.02,.52,.04,.52,.06Z" style="fill:#263238;"></path><path d="M241.05,323.07s-.39,.13-1.12,.26c-.73,.14-1.79,.3-3.1,.45-2.63,.32-6.29,.57-10.34,.5-4.05-.08-7.7-.48-10.32-.9-1.31-.21-2.36-.41-3.08-.57-.72-.16-1.12-.27-1.11-.3,0-.04,.42,0,1.15,.1,.84,.11,1.88,.25,3.1,.41,2.62,.33,6.25,.66,10.27,.74,4.02,.08,7.66-.12,10.29-.34,1.23-.11,2.27-.21,3.11-.29,.74-.07,1.15-.09,1.15-.06Z" style="fill:#263238;"></path><path d="M235.67,338.43c0,.14-3.5,.26-7.81,.26s-7.81-.12-7.81-.26,3.5-.26,7.81-.26,7.81,.12,7.81,.26Z" style="fill:#263238;"></path><path d="M235.67,353.38c0,.14-3.5,.26-7.81,.26s-7.81-.12-7.81-.26,3.5-.26,7.81-.26,7.81,.12,7.81,.26Z" style="fill:#263238;"></path><path d="M245.03,332.61c0,.14-6.41,.26-14.31,.26s-14.31-.12-14.31-.26,6.4-.26,14.31-.26,14.31,.12,14.31,.26Z" style="fill:#263238;"></path><path d="M245.03,359.06c0,.14-6.41,.26-14.31,.26s-14.31-.12-14.31-.26,6.4-.26,14.31-.26,14.31,.12,14.31,.26Z" style="fill:#263238;"></path></g><g><path d="M350.28,317.18c-5.9-9.03-77.11-54.1-77.11-54.1l-17.55-.94-3.54,55.09,67.24,39.82-13.01,89.94,34.77,4.98s9.81-76.15,11.1-87.73c.79-7.11,5.12-36.31-1.9-47.04Z" style="fill:#263238;"></path><path d="M335.16,323.61c-7.14-9.38-54.23-45.36-54.23-45.36l41.81,76.18-6.45,23.55-3.45,23.85s17.35-20.43,23.62-32.21c5.94-11.17,12.59-27.78-1.3-46.01Z" style="opacity:.3;"></path><path d="M337.62,337.35c-2.88-10.86-12.25-20.52-20.2-27.18-7.94-6.66-52.99-43.17-52.99-43.17l-9.66-15.22-57.92,5.6s-6.64,30.9,1.9,44.92c6.04,9.92,34.76,13.07,39.98,15.5,5.22,2.42,58.32,28.57,58.32,28.57l-54.48,49.46,23.75,23.41s12.38-8.73,27.83-21.75c18.14-15.29,23.38-20.46,34.81-32,7.71-7.79,10.71-20.37,8.66-28.11Z" style="fill:#263238;"></path><g><path d="M313.27,356.26c-.06,.13-3.33-1.34-7.31-3.27-3.97-1.94-7.14-3.61-7.08-3.74,.06-.13,3.33,1.34,7.31,3.27,3.97,1.94,7.14,3.61,7.08,3.74Z" style="fill:#455a64;"></path><path d="M317.22,341.85c.03,.14-3.44,1.03-7.75,1.99-4.31,.96-7.84,1.63-7.87,1.49-.03-.14,3.44-1.03,7.75-1.99,4.31-.96,7.84-1.63,7.87-1.49Z" style="fill:#455a64;"></path><path d="M316.5,353.47s-.46-.06-1.25-.26c-.8-.2-1.94-.51-3.36-.91-2.82-.82-6.72-2-10.82-3.85-.4-.19-.79-.37-1.16-.54l-.95-.45,1.05-.05c4.2-.19,7.96,.13,10.62,.55,1.33,.21,2.4,.43,3.12,.6,.73,.18,1.12,.3,1.11,.33,0,.04-.41-.02-1.15-.14-.74-.12-1.8-.28-3.13-.44-2.66-.33-6.38-.59-10.55-.39l.1-.49c.37,.17,.76,.35,1.15,.54,4.06,1.84,7.93,3.07,10.71,3.98,1.32,.43,2.43,.78,3.31,1.07,.78,.26,1.2,.42,1.19,.45Z" style="fill:#455a64;"></path></g></g><g><path d="M180.92,142.99s-39.67,65.4-37.87,77.39c1.8,12,53.85,48.31,54.15,47.41,.3-.9,12.9-22.29,12.9-22.29l-34.07-29.32,.9-2.4s23.16-39.68,26.46-42.08c3.3-2.4,16.43-24.8,3.83-31.39s-26.31,2.68-26.31,2.68Z" style="fill:#e0e0e0;"></path><g><path d="M158.26,219.14c0-.07,.95-.26,2.51-.46,1.56-.19,3.73-.37,6.13-.42,2.4-.04,4.58,.06,6.15,.2,1.57,.14,2.53,.3,2.52,.37,0,.08-.98,.05-2.54,0-1.57-.04-3.73-.09-6.12-.04-2.39,.04-4.55,.16-6.11,.26-1.56,.1-2.53,.16-2.54,.09Z" style="fill:#263238;"></path><path d="M171.35,215.68s-.13,.05-.39,.09c-.26,.04-.64,.11-1.14,.17-.99,.13-2.44,.26-4.25,.31-3.61,.11-8.69-.21-14.17-1.66l-.71-.19,.67-.3c.62-.28,1.3-.52,2-.71,1.5-.41,3.01-.57,4.46-.67,1.45-.09,2.84-.13,4.17-.14,2.66-.01,5.05,.14,7.05,.33,2,.2,3.6,.45,4.71,.65,.55,.1,.98,.19,1.27,.25,.29,.07,.44,.11,.43,.13,0,.04-.62-.04-1.73-.18-1.11-.14-2.72-.33-4.71-.48-1.99-.15-4.37-.26-7.01-.22-2.63,.08-5.58,.08-8.49,.83-.68,.18-1.33,.41-1.92,.68l-.04-.49c5.42,1.44,10.45,1.82,14.03,1.81,1.8,0,3.24-.08,4.24-.15,1-.07,1.54-.11,1.55-.07Z" style="fill:#263238;"></path><path d="M165.06,205.94c.07-.13,2.59,1.13,5.62,2.81,3.03,1.68,5.44,3.14,5.37,3.26-.07,.13-2.59-1.13-5.62-2.81-3.03-1.68-5.44-3.14-5.37-3.26Z" style="fill:#263238;"></path></g><path d="M175.61,252.74s.14,.07,.4,.24c.28,.19,.66,.44,1.15,.76,1.02,.7,2.49,1.7,4.35,2.97,3.78,2.61,9.18,6.33,15.77,10.89l-.29,.06c3.76-6.39,8.24-14.01,13.12-22.32l.05,.32c-3.99-3.4-8.23-7.02-12.6-10.75-7.76-6.64-15.12-12.94-21.68-18.55l-.14-.12,.09-.17c2.79-5.26,5.63-9.95,8.12-14.15,2.52-4.18,4.72-7.84,6.56-10.88,1.83-3.03,3.26-5.44,4.21-7.09,.46-.81,.82-1.44,1.08-1.9l.28-.49c.06-.11,.1-.16,.11-.16,0,0-.02,.06-.07,.18l-.25,.51c-.22,.45-.56,1.1-1.02,1.94-.92,1.68-2.31,4.11-4.1,7.16-1.81,3.06-3.98,6.74-6.46,10.94-2.46,4.21-5.28,8.92-8.04,14.17l-.06-.29c6.57,5.6,13.94,11.89,21.71,18.51,4.36,3.73,8.6,7.35,12.59,10.76l.16,.14-.11,.18c-4.92,8.29-9.42,15.89-13.21,22.27l-.11,.19-.18-.13c-6.55-4.61-11.92-8.39-15.67-11.03-1.84-1.31-3.28-2.34-4.29-3.06-.47-.34-.84-.61-1.11-.81-.25-.19-.37-.29-.37-.29Z" style="fill:#263238;"></path><path d="M202.13,163.05c-.11-.04,.68-1.63,.97-4.4,.31-2.73-.07-6.74-2.29-10.36-2.23-3.61-5.64-5.77-8.22-6.72-2.61-.99-4.38-1-4.36-1.11,0-.03,.44-.04,1.23,.03,.79,.07,1.92,.28,3.26,.74,2.66,.88,6.22,3.05,8.54,6.79,2.3,3.75,2.63,7.9,2.21,10.68-.2,1.41-.52,2.51-.81,3.25-.29,.74-.5,1.12-.52,1.11Z" style="fill:#263238;"></path></g><g><g><g><path d="M299.8,175.1l-7.76-5.55,1.99-2.42c.3-.37,.25-.91-.12-1.21-.37-.3-.91-.25-1.21,.12l-62.18,75.8c-.3,.37-.25,.91,.12,1.21,.37,.3,.91,.25,1.21-.12l2.67-3.26s.06,.09,.11,.12l8.21,5.87c.39,.28,.94,.18,1.21-.22h0c.26-.39,.16-.91-.21-1.18l-8.21-5.87s-.03-.01-.05-.02l8.27-10.08,8.08,5.78c.39,.28,.94,.18,1.21-.22h0c.26-.39,.16-.91-.21-1.18l-7.99-5.72,8.06-9.82,8.11,5.8c.39,.28,.94,.18,1.21-.22,.26-.39,.16-.91-.21-1.18l-8.02-5.73,5.79-7.06,7.92,5.67c.39,.28,.94,.18,1.21-.22h0c.26-.39,.16-.91-.21-1.18l-7.83-5.6,8.5-10.37c.06,.13,.14,.26,.27,.35l8.21,5.87c.39,.28,.94,.18,1.21-.22h0c.26-.39,.16-.91-.21-1.18l-8.21-5.87c-.09-.07-.2-.11-.3-.14l4.47-5.45,7.96,5.7c.39,.28,.94,.18,1.21-.22,.26-.39,.16-.91-.21-1.18l-7.87-5.63,7.31-8.91s.06,.09,.11,.12l8.21,5.87c.39,.28,.94,.18,1.21-.22,.26-.39,.16-.91-.21-1.18l-8.21-5.87s-.03-.01-.05-.02l6.56-8,7.85,5.61c.39,.28,.94,.18,1.21-.22h0c.26-.39,.16-.91-.21-1.18Z" style="fill:#FF725E;"></path><path d="M279.05,264.87c-22.13,8.36-37.98,41.87-57.68,37.38-4.21-.96-7.84-3.7-10.02-7.43-2.94-5.04-5.29-13.89,3.15-25.14,13.5-17.98,85-104.85,85-104.85,0,0,2.68-2.3,1.35-5.78-.96-2.5-16.91-20.63-16.91-20.63l2.67-3.11s18.06,19.16,19.92,23.74c2.37,5.84-2.11,12.03-2.11,12.03-4.13,6.01-51.62,70.39-54.6,75.25-2.44,3.98-15.78,23.18-20.5,29.95-.95,1.36-.49,3.26,1.02,4.02,1.24,.63,2.77,.16,3.55-.99,4.3-6.34,16.88-21.15,26.23-29.29l9.83-9.12,1.76-6.74,12.17,34.38-4.82-3.67Z" style="fill:#FF725E;"></path><path d="M295.06,171.71c.11,.09-12.78,15.99-28.78,35.5-16.01,19.52-29.07,35.27-29.19,35.17-.11-.09,12.77-15.98,28.78-35.5,16-19.51,29.07-35.26,29.18-35.17Z" style="fill:#263238;"></path><g><path d="M303.9,178.37c-1.37,1.81-3.28,2.7-4.78,1.46-1.5-1.24,.84-4.45,.84-4.45,0,0,2.47-3.11,4.07-2,1.6,1.11,1.24,3.19-.13,4.99Z" style="fill:#FF725E;"></path><path d="M303.9,178.37s.13-.27,.38-.74c.23-.46,.58-1.17,.62-2.08,.01-.45-.08-.94-.36-1.36-.3-.39-.74-.84-1.26-.81-.54,0-1.11,.32-1.63,.72-.52,.4-1.02,.9-1.46,1.43-.39,.56-.75,1.19-.99,1.79-.24,.6-.4,1.25-.25,1.76,.11,.52,.66,.82,1.12,1,.48,.16,.98,.12,1.41-.01,.86-.28,1.45-.81,1.84-1.15,.38-.36,.58-.59,.61-.56,.02,.02-.12,.28-.46,.7-.36,.4-.92,1-1.87,1.36-.89,.36-2.5,.25-3.1-1.2-.21-.71,0-1.43,.24-2.09,.26-.67,.61-1.29,1.05-1.92,.49-.59,1-1.09,1.57-1.52,.57-.41,1.2-.8,1.95-.79,1.56,.19,2.09,1.71,1.99,2.67-.1,1.01-.53,1.71-.81,2.16-.31,.45-.53,.65-.55,.63Z" style="fill:#263238;"></path></g><g><path d="M296.85,187.32c-1.37,1.81-3.28,2.7-4.78,1.46-1.5-1.24,.84-4.45,.84-4.45,0,0,2.47-3.11,4.07-2,1.6,1.11,1.24,3.19-.13,4.99Z" style="fill:#FF725E;"></path><path d="M296.85,187.32s.13-.27,.38-.74c.23-.46,.58-1.17,.62-2.08,.01-.45-.08-.94-.36-1.36-.3-.39-.74-.84-1.26-.81-.54,0-1.11,.32-1.63,.72-.52,.4-1.02,.9-1.46,1.43-.39,.56-.75,1.19-.99,1.79-.24,.6-.4,1.25-.25,1.76,.11,.52,.66,.82,1.12,1,.48,.16,.98,.12,1.41-.01,.86-.28,1.45-.81,1.84-1.15,.38-.36,.58-.59,.61-.56,.02,.02-.12,.28-.46,.7-.36,.4-.92,1-1.87,1.36-.89,.36-2.5,.25-3.1-1.2-.21-.71,0-1.43,.24-2.09,.26-.67,.61-1.29,1.05-1.92,.49-.59,1-1.09,1.57-1.52,.57-.41,1.2-.8,1.95-.79,1.56,.19,2.09,1.71,1.99,2.67-.1,1.01-.53,1.71-.81,2.16-.31,.45-.53,.65-.55,.63Z" style="fill:#263238;"></path></g><g><path d="M289.11,198.44c-1.37,1.81-3.28,2.7-4.78,1.46-1.5-1.24,.84-4.45,.84-4.45,0,0,2.47-3.11,4.07-2,1.6,1.11,1.24,3.19-.13,4.99Z" style="fill:#FF725E;"></path><path d="M289.11,198.44s.13-.27,.38-.74c.23-.46,.58-1.17,.62-2.08,.01-.45-.08-.94-.36-1.36-.3-.39-.74-.84-1.26-.81-.54,0-1.11,.32-1.63,.72-.52,.4-1.02,.9-1.46,1.43-.39,.56-.75,1.19-.99,1.79-.24,.6-.4,1.25-.25,1.76,.11,.52,.66,.82,1.12,1,.48,.16,.98,.12,1.41-.01,.86-.28,1.45-.81,1.84-1.15,.38-.36,.58-.59,.61-.56,.02,.02-.12,.28-.46,.7-.36,.4-.92,1-1.87,1.36-.89,.36-2.5,.25-3.1-1.2-.21-.71,0-1.43,.24-2.09,.26-.67,.61-1.29,1.05-1.92,.49-.59,1-1.09,1.57-1.52,.57-.41,1.2-.8,1.95-.79,1.56,.19,2.09,1.71,1.99,2.67-.1,1.01-.53,1.71-.81,2.16-.31,.45-.53,.65-.55,.63Z" style="fill:#263238;"></path></g><g><path d="M275.24,217.39c-1.37,1.81-3.28,2.7-4.78,1.46-1.5-1.24,.84-4.45,.84-4.45,0,0,2.47-3.11,4.07-2,1.6,1.11,1.24,3.19-.13,4.99Z" style="fill:#FF725E;"></path><path d="M275.24,217.39s.13-.27,.38-.74c.23-.46,.58-1.17,.62-2.08,.01-.45-.08-.94-.36-1.36-.3-.39-.74-.84-1.26-.81-.54,0-1.11,.32-1.63,.72-.52,.4-1.02,.9-1.46,1.43-.39,.56-.75,1.19-.99,1.79-.24,.6-.4,1.25-.25,1.76,.11,.52,.66,.82,1.12,1,.48,.16,.98,.12,1.41-.01,.86-.28,1.45-.81,1.84-1.15,.38-.36,.58-.59,.61-.56,.02,.02-.12,.28-.46,.7-.36,.4-.92,1-1.87,1.36-.89,.36-2.5,.25-3.1-1.2-.21-.71,0-1.43,.24-2.09,.26-.67,.61-1.29,1.05-1.92,.49-.59,1-1.09,1.57-1.52,.57-.41,1.2-.8,1.95-.79,1.56,.19,2.09,1.71,1.99,2.67-.1,1.01-.53,1.71-.81,2.16-.31,.45-.53,.65-.55,.63Z" style="fill:#263238;"></path></g><g><path d="M268.37,225.97c-1.37,1.81-3.28,2.7-4.78,1.46-1.5-1.24,.84-4.45,.84-4.45,0,0,2.47-3.11,4.07-2,1.6,1.11,1.24,3.19-.13,4.99Z" style="fill:#FF725E;"></path><path d="M268.37,225.97s.13-.27,.38-.74c.23-.46,.58-1.17,.62-2.08,.01-.45-.08-.94-.36-1.36-.3-.39-.74-.84-1.26-.81-.54,0-1.11,.32-1.63,.72-.52,.4-1.02,.9-1.46,1.43-.39,.56-.75,1.19-.99,1.79-.24,.6-.4,1.25-.26,1.76,.11,.52,.66,.82,1.12,1,.48,.16,.98,.12,1.41-.01,.86-.28,1.45-.81,1.84-1.15,.38-.36,.58-.59,.61-.56,.02,.02-.12,.28-.46,.7-.36,.4-.92,1-1.87,1.36-.89,.36-2.5,.25-3.1-1.2-.21-.71,0-1.43,.24-2.09,.26-.67,.61-1.29,1.05-1.92,.49-.59,1-1.09,1.57-1.52,.57-.41,1.2-.8,1.95-.79,1.56,.19,2.09,1.71,1.99,2.67-.1,1.01-.53,1.71-.81,2.16-.31,.45-.53,.65-.55,.63Z" style="fill:#263238;"></path></g><g><path d="M261.49,236.29c-1.37,1.81-3.28,2.7-4.78,1.46-1.5-1.24,.84-4.45,.84-4.45,0,0,2.47-3.11,4.07-2,1.6,1.11,1.24,3.19-.13,4.99Z" style="fill:#FF725E;"></path><path d="M261.49,236.29s.13-.27,.38-.74c.23-.46,.58-1.17,.62-2.08,.01-.45-.08-.94-.36-1.36-.3-.39-.74-.84-1.26-.81-.54,0-1.11,.32-1.63,.72-.52,.4-1.02,.9-1.46,1.43-.39,.56-.75,1.19-.99,1.79-.24,.6-.4,1.25-.26,1.76,.11,.52,.66,.82,1.12,1,.48,.16,.98,.12,1.41-.01,.86-.28,1.45-.81,1.84-1.15,.38-.36,.58-.59,.61-.56,.02,.02-.12,.28-.46,.7-.36,.4-.92,1-1.87,1.36-.89,.36-2.5,.25-3.1-1.2-.21-.71,0-1.43,.24-2.09,.26-.67,.61-1.29,1.05-1.92,.49-.59,1-1.09,1.57-1.52,.57-.41,1.2-.8,1.95-.79,1.56,.19,2.09,1.71,1.99,2.67-.1,1.01-.53,1.71-.81,2.16-.31,.45-.53,.65-.55,.63Z" style="fill:#263238;"></path></g><g><path d="M253.32,246.92c-1.37,1.81-3.28,2.7-4.78,1.46-1.5-1.24,.84-4.45,.84-4.45,0,0,2.47-3.11,4.07-2,1.6,1.11,1.24,3.19-.13,4.99Z" style="fill:#FF725E;"></path><path d="M253.32,246.92s.13-.27,.38-.74c.23-.46,.58-1.17,.62-2.08,.01-.45-.08-.94-.36-1.36-.3-.39-.74-.84-1.26-.81-.54,0-1.11,.32-1.63,.72-.52,.4-1.02,.9-1.46,1.43-.39,.56-.75,1.19-.99,1.79-.24,.6-.4,1.25-.26,1.76,.11,.52,.66,.82,1.12,1,.48,.16,.98,.12,1.41-.01,.86-.28,1.45-.81,1.84-1.15,.38-.36,.58-.59,.61-.56,.02,.02-.12,.28-.46,.7-.36,.4-.92,1-1.87,1.36-.89,.36-2.5,.25-3.1-1.2-.21-.71,0-1.43,.24-2.09,.26-.67,.61-1.29,1.05-1.92,.49-.59,1-1.09,1.57-1.52,.57-.41,1.2-.8,1.95-.79,1.56,.19,2.09,1.71,1.99,2.67-.1,1.01-.53,1.71-.81,2.16-.31,.45-.53,.65-.55,.63Z" style="fill:#263238;"></path></g><g><path d="M245.16,257.55c-1.37,1.81-3.28,2.7-4.78,1.46s.84-4.45,.84-4.45c0,0,2.47-3.11,4.07-2,1.6,1.11,1.24,3.19-.13,4.99Z" style="fill:#FF725E;"></path><path d="M245.16,257.55s.13-.27,.38-.74c.23-.46,.58-1.17,.62-2.08,.01-.45-.08-.94-.36-1.36-.3-.39-.74-.84-1.26-.81-.54,0-1.11,.32-1.63,.72-.52,.4-1.02,.9-1.46,1.43-.39,.56-.75,1.19-.99,1.79-.24,.6-.4,1.25-.26,1.76,.11,.52,.66,.82,1.12,1,.48,.16,.98,.12,1.41-.01,.86-.28,1.45-.81,1.84-1.15,.38-.36,.58-.59,.61-.56,.02,.02-.12,.28-.46,.7-.36,.4-.92,1-1.87,1.36-.89,.36-2.5,.25-3.1-1.2-.21-.71,0-1.43,.24-2.09,.26-.67,.61-1.29,1.05-1.92,.49-.59,1-1.09,1.57-1.52,.57-.41,1.2-.8,1.95-.79,1.56,.19,2.09,1.71,1.99,2.67-.1,1.01-.53,1.71-.81,2.16-.31,.45-.53,.65-.55,.63Z" style="fill:#263238;"></path></g></g><path d="M263.26,119.15c.09,.28,7.99,9.97,8.32,10.07,.34,.1,5.56,5.42,5.56,5.42l4.33,2.44,2.6,2.46,4.1-3.42-2.08-2.8-2.28-4.83-6.44-6.28-12.25-5.17-1.87,2.1Z" style="fill:#263238;"></path><g style="opacity:.3;"><path d="M239.69,284.01c.57,3-1.4,5.9-4.4,6.48-3,.57-5.9-1.4-6.48-4.4s1.4-5.9,4.4-6.48,5.9,1.4,6.48,4.4Z"></path></g><g><path d="M243.37,282.05c.63,3.31-1.54,6.51-4.86,7.15-3.31,.63-6.51-1.54-7.15-4.86s1.54-6.51,4.86-7.15c3.31-.63,6.51,1.54,7.15,4.86Z" style="fill:#FF725E;"></path><path d="M243.37,282.05c-.05,.01-.14-.53-.56-1.39-.42-.84-1.27-2.03-2.8-2.77-1.49-.75-3.72-.9-5.64,.26-.94,.56-1.78,1.44-2.28,2.52-.53,1.08-.69,2.36-.47,3.61,.25,1.24,.88,2.38,1.76,3.19,.87,.83,1.97,1.33,3.05,1.51,2.21,.38,4.23-.59,5.34-1.84,1.15-1.25,1.51-2.67,1.59-3.6,.08-.95-.05-1.49,0-1.5,.02,0,.05,.13,.11,.38,.06,.25,.1,.63,.09,1.13-.02,.97-.33,2.47-1.52,3.84-1.14,1.36-3.29,2.44-5.69,2.06-1.18-.18-2.37-.72-3.32-1.61-.97-.87-1.66-2.11-1.93-3.46-.25-1.36-.06-2.76,.52-3.93,.55-1.18,1.47-2.12,2.5-2.72,2.09-1.23,4.49-1.02,6.05-.17,1.6,.83,2.45,2.11,2.82,3.01,.19,.45,.29,.83,.33,1.08,.04,.25,.06,.39,.04,.39Z" style="fill:#263238;"></path></g><g style="opacity:.3;"><path d="M265.21,257.44c.57,3-1.4,5.9-4.4,6.48-3,.57-5.9-1.4-6.48-4.4-.57-3,1.4-5.9,4.4-6.48,3-.57,5.9,1.4,6.48,4.4Z"></path></g><g style="opacity:.3;"><path d="M253.85,271.2c.57,3-1.4,5.9-4.4,6.48-3,.57-5.9-1.4-6.48-4.4s1.4-5.9,4.4-6.48c3-.57,5.9,1.4,6.48,4.4Z"></path></g><g><path d="M267.57,254.69c.63,3.31-1.54,6.51-4.86,7.15-3.31,.63-6.51-1.54-7.15-4.86-.63-3.31,1.54-6.51,4.86-7.15s6.51,1.54,7.15,4.86Z" style="fill:#FF725E;"></path><path d="M267.57,254.69c-.05,.01-.14-.53-.56-1.39-.42-.84-1.27-2.03-2.8-2.77-1.49-.75-3.72-.9-5.64,.26-.94,.56-1.78,1.44-2.28,2.52-.53,1.08-.69,2.36-.47,3.61,.25,1.24,.88,2.38,1.76,3.19,.87,.82,1.97,1.33,3.05,1.51,2.21,.38,4.23-.59,5.34-1.84,1.15-1.25,1.51-2.67,1.59-3.6,.08-.95-.05-1.49,0-1.5,.02,0,.05,.13,.11,.38,.06,.25,.1,.63,.09,1.13-.02,.97-.33,2.47-1.52,3.84-1.14,1.36-3.29,2.44-5.69,2.06-1.18-.18-2.37-.72-3.32-1.61-.97-.87-1.66-2.11-1.93-3.46-.25-1.36-.06-2.76,.52-3.93,.55-1.18,1.47-2.12,2.5-2.72,2.09-1.23,4.49-1.02,6.05-.17,1.6,.83,2.45,2.11,2.82,3.01,.19,.45,.29,.83,.33,1.08,.04,.25,.06,.39,.04,.39Z" style="fill:#263238;"></path></g><g><path d="M255.7,268.52c.63,3.31-1.54,6.51-4.86,7.15-3.31,.63-6.51-1.54-7.15-4.86-.63-3.31,1.54-6.51,4.86-7.15,3.31-.63,6.51,1.54,7.15,4.86Z" style="fill:#FF725E;"></path><path d="M255.7,268.52c-.05,.01-.14-.53-.56-1.39-.42-.84-1.27-2.03-2.8-2.77-1.49-.75-3.72-.9-5.64,.26-.94,.56-1.78,1.44-2.28,2.52-.53,1.08-.69,2.36-.47,3.61,.25,1.24,.88,2.38,1.76,3.19,.87,.82,1.97,1.33,3.05,1.51,2.21,.38,4.23-.59,5.34-1.84,1.15-1.25,1.51-2.67,1.59-3.6,.08-.95-.05-1.49,0-1.5,.02,0,.05,.13,.11,.38,.06,.25,.1,.63,.09,1.13-.02,.97-.33,2.47-1.52,3.84-1.14,1.36-3.29,2.44-5.69,2.06-1.18-.18-2.37-.72-3.32-1.61-.97-.87-1.66-2.11-1.93-3.46-.25-1.36-.06-2.76,.52-3.93,.55-1.18,1.47-2.12,2.5-2.72,2.09-1.23,4.49-1.02,6.05-.17,1.6,.83,2.45,2.11,2.82,3.01,.19,.45,.29,.83,.33,1.08,.04,.25,.06,.39,.04,.39Z" style="fill:#263238;"></path></g></g><path d="M217.79,266.7s-.4,.89,5.43-.7c5.83-1.6,9.51-4.48,9.51-4.48,0,0,6.23,2.36,6.29,2.27,.06-.09,1.57-2.52,1.57-2.52l-8.41-2.79-12.46,6.04-1.93,2.17Z" style="opacity:.3;"></path><path d="M209.64,246.22s3.41,1.79,6.33,.86c2.92-.94,16.55-7.65,16.55-7.65l13.42-1.35,6.36,5.21,2.12,6.63s-1.34,2-2.98-.26c-1.64-2.27-3.06-4.52-3.06-4.52l4.3,9.89s-2.72,1.64-5.52-1.75c-1.83-2.22-3.68-5.6-3.68-5.6l-6.78,.96,6.64,2.7s10.27,9.42,8.13,10.65c0,0-4.3,3.12-6.75,2.01-1.45-.66-12.55-4.86-12.55-4.86,0,0-10.45,5.91-15.47,6.28-4.01,.3-16.07-3.5-16.07-3.5l8.99-15.72Z" style="fill:#ae7461;"></path><g><path d="M279.99,197.56c-.27,.12-1.82,1.59-1.12,2.93s1.38,1.56,2.31,1.47c.93-.09,2.7-.27,2.7-.27,0,0,.88,1.32-1.01,2.17-1.89,.84-1.87,.87-1.87,.87l-4.89,6.43s-1.38-.16-2.19,1.1c-1.22,1.89-.36,3.04,.73,3.6,1.09,.55,1.77,.84,1.77,.84,0,0-2.13,.57-2.47,4.2-.23,2.43,.44,6.65,2.9,7.72,2.46,1.07,4.03,1.77,6.68,0s4.42-7.68,4.42-7.68c0,0,2.42-2.12,1.96-3.95l-.87-1.7s2.82,.22,3.49-1.63c.66-1.85,.68-3.21,.06-3.81-.62-.6-1.42-1.07-1.42-1.07,0,0,.81-2.24,.42-3.33s-1.04-2.91-.7-3.32c.34-.41,.62-4.2-.59-5.02s-10.3,.45-10.3,.45Z" style="fill:#ae7461;"></path><path d="M282.33,201.97c-.01-.14,1.19-.39,2.69-.54,1.5-.16,2.72-.17,2.74-.02,.01,.14-1.19,.39-2.69,.54-1.5,.16-2.72,.17-2.74,.02Z" style="fill:#6f4439;"></path><g><path d="M289.03,208.77c-1.91-.59-5.71-2.25-7.62-2.84-.93-.29-1.84-.55-2.75-.59-.94-.04-1.95,.2-2.62,.83-.68,.63-.93,1.69-.41,2.43,.27,.38,.69,.63,1.1,.86,3.48,1.98,7.18,3.63,11.03,4.91" style="fill:#ae7461;"></path><path d="M287.76,214.37s-.42-.06-1.15-.29c-.73-.22-1.77-.58-3.03-1.07-1.27-.5-2.75-1.14-4.36-1.94-.81-.4-1.64-.84-2.49-1.32-.42-.24-.9-.48-1.26-.95-.37-.47-.44-1.13-.28-1.68,.15-.56,.52-1.05,.97-1.36,.45-.32,.97-.5,1.47-.59,1.03-.19,2.02,.02,2.89,.25,1.75,.49,3.24,1.14,4.49,1.65,1.17,.49,2.16,.9,2.96,1.23,.7,.29,1.09,.44,1.08,.48,0,.03-.42-.05-1.15-.29-.73-.23-1.76-.6-3.03-1.08-1.27-.46-2.76-1.08-4.48-1.53-.85-.22-1.76-.39-2.67-.22-.89,.15-1.8,.69-2.03,1.59-.12,.44-.06,.9,.2,1.23,.26,.34,.68,.58,1.1,.82,.84,.48,1.67,.93,2.46,1.34,1.59,.82,3.05,1.49,4.29,2.03,1.24,.54,2.26,.94,2.96,1.22,.7,.28,1.09,.44,1.08,.48Z" style="fill:#6f4439;"></path></g><path d="M286.51,207.07c-.03,.13-1.07-.07-2.02-.91-.46-.41-.84-.86-.96-1.31-.13-.47,.12-.74,.17-.68,.07,.04,0,.26,.17,.55,.15,.29,.53,.66,.96,1.05,.86,.76,1.73,1.16,1.68,1.31Z" style="fill:#6f4439;"></path><path d="M284.15,221.74c-.12,.13-1.83-1.63-4.31-3.25-2.49-1.61-4.86-2.27-4.8-2.44,.01-.11,2.5,.33,5.08,2,1.28,.83,2.31,1.75,3,2.45,.69,.71,1.07,1.19,1.03,1.24Z" style="fill:#6f4439;"></path><path d="M288.24,217.91c-.12,.12-2.13-1.97-5.18-3.74-3.04-1.8-5.88-2.41-5.84-2.57,.01-.06,.74,0,1.88,.32,1.13,.31,2.67,.89,4.22,1.8,1.55,.91,2.82,1.94,3.67,2.76,.85,.81,1.29,1.39,1.25,1.43Z" style="fill:#6f4439;"></path><path d="M278.9,225.49c-.07,.02-.25-.49-.51-1.32-.26-.83-.6-1.98-1.12-3.17-.25-.59-.59-1.19-.61-1.85-.05-.67,.38-1.25,.8-1.46,.42-.25,.84-.26,1.09-.2,.26,.06,.37,.16,.36,.19-.01,.08-.59-.15-1.25,.32-.32,.23-.58,.62-.52,1.13,.04,.5,.34,1.05,.61,1.67,.54,1.24,.82,2.43,1,3.29,.17,.86,.22,1.4,.16,1.41Z" style="fill:#6f4439;"></path></g><path d="M229.31,253.31s.29-.12,.84-.25c.55-.12,1.35-.28,2.36-.4,1-.11,2.23-.19,3.57,.04,1.35,.21,2.77,.84,4.01,1.79,1.25,.94,2.28,1.98,3.26,2.87,.93,.89,1.79,1.7,2.56,2.43,1.44,1.39,2.31,2.28,2.26,2.34s-1.01-.74-2.51-2.07c-.79-.7-1.67-1.49-2.63-2.35-.99-.88-2.04-1.91-3.24-2.81-1.2-.91-2.51-1.51-3.78-1.73-1.27-.24-2.46-.2-3.45-.14-1.99,.16-3.22,.37-3.23,.28Z" style="fill:#6f4439;"></path><path d="M236.9,249.12c-.09,.12-.73-.21-1.53-.52-.8-.32-1.5-.51-1.48-.66,.01-.14,.79-.17,1.67,.18,.88,.34,1.43,.9,1.34,1.01Z" style="fill:#6f4439;"></path><path d="M234.64,241.45c0-.08,.89-.01,2.3-.15,1.41-.1,3.35-.51,5.58-.42,1.11,.06,2.18,.28,3.06,.71,.89,.42,1.57,1.02,2.02,1.6,.92,1.2,.84,2.22,.79,2.2-.09,.03-.15-.91-1.08-1.96-.45-.51-1.11-1.03-1.94-1.4-.83-.37-1.83-.57-2.89-.62-2.13-.09-4.09,.26-5.54,.27-1.44,.04-2.33-.15-2.32-.22Z" style="fill:#6f4439;"></path></g><g><path d="M264.48,111.59c1,1.92,1.28,4.12,.77,6.1-.51,1.97-1.81,3.71-3.59,4.81" style="fill:#ae7461;"></path><path d="M261.65,122.5c-.05-.07,.54-.45,1.3-1.25,.76-.79,1.65-2.07,2.05-3.68,.4-1.62,.23-3.17-.03-4.23-.26-1.07-.57-1.7-.5-1.74,.05-.03,.48,.55,.85,1.64,.37,1.08,.62,2.72,.18,4.46-.43,1.74-1.44,3.07-2.3,3.82-.86,.77-1.53,1.04-1.56,.99Z" style="fill:#263238;"></path></g><g><path d="M339.55,430.19l-3.99,27.87s26.56,13.39,26.31,18.61l-53.49-5.75,4.46-43.67,26.71,2.95Z" style="fill:#263238;"></path><path d="M319.27,453.92c-1.07,.18-1.91,1.28-1.78,2.37,.13,1.09,1.22,1.96,2.29,1.81,1.07-.16,2.12-1.45,1.87-2.52-.25-1.07-1.59-2.02-2.59-1.61" style="fill:#e0e0e0;"></path><path d="M308.39,470.92l.62-4.38,51.05,7.15s2.27,1.31,1.82,2.98l-53.49-5.75Z" style="fill:#455a64;"></path><path d="M336.46,457.87c-.04,.26-1.36,.24-2.73,.96-1.39,.68-2.18,1.76-2.41,1.62-.24-.08,.32-1.62,2.01-2.46,1.67-.85,3.22-.36,3.14-.13Z" style="fill:#fff;"></path><path d="M341.82,460.83c.03,.26-1.15,.59-2.15,1.62-1.04,1-1.39,2.19-1.65,2.15-.25,.02-.26-1.56,1.01-2.81,1.26-1.26,2.81-1.21,2.79-.96Z" style="fill:#fff;"></path><path d="M344.27,467.99c-.24,.03-.46-1.33,.36-2.71,.82-1.39,2.11-1.83,2.2-1.59,.12,.23-.75,.93-1.41,2.07-.69,1.13-.88,2.24-1.14,2.24Z" style="fill:#fff;"></path><path d="M336.67,451.42c-.14,.23-1.29-.26-2.78-.32-1.49-.09-2.69,.29-2.8,.05-.13-.21,1.1-1.07,2.85-.98,1.75,.08,2.89,1.05,2.74,1.25Z" style="fill:#fff;"></path></g><g><path d="M284.27,402.2l-21.26,18.45s11.3,27.51,7.7,31.3l-36.66-39.37,31.97-30.09,18.26,19.71Z" style="fill:#263238;"></path><path d="M253.4,406.87c-.92-.57-2.28-.28-2.9,.62-.62,.9-.36,2.29,.55,2.87,.91,.58,2.55,.29,3.06-.68,.51-.97,.12-2.57-.9-2.91" style="fill:#e0e0e0;"></path><path d="M234.05,412.58l3.34-2.91,33.9,38.84s.86,2.47-.58,3.44l-36.66-39.37Z" style="fill:#455a64;"></path><path d="M263.81,421.11c-.2,.18-1.18-.7-2.69-1.06-1.5-.4-2.8-.1-2.88-.35-.13-.21,1.31-1.01,3.12-.54,1.82,.45,2.67,1.83,2.45,1.96Z" style="fill:#fff;"></path><path d="M265.92,426.85c-.15,.22-1.26-.3-2.69-.19-1.44,.07-2.48,.74-2.65,.54-.2-.15,.82-1.35,2.6-1.46,1.78-.13,2.92,.93,2.74,1.11Z" style="fill:#fff;"></path><path d="M263.09,433.87c-.2-.14,.52-1.31,2.05-1.81,1.53-.51,2.79,0,2.7,.23-.06,.26-1.18,.21-2.42,.64-1.26,.4-2.13,1.11-2.33,.94Z" style="fill:#fff;"></path></g></g></g></svg>
