<svg xmlns="http://www.w3.org/2000/svg" viewBox="0 0 500 500"><g id="freepik--Floor--inject-9"><ellipse id="freepik--floor--inject-9" cx="250" cy="371.29" rx="221.19" ry="115.91" style="fill:#f0f0f0"></ellipse></g><g id="freepik--Shadows--inject-9"><path id="freepik--Shadow--inject-9" d="M320,423.57c-14.38-8.3-14.38-21.76,0-30.05s37.68-8.3,52.06,0,14.37,21.75,0,30.05S334.33,431.87,320,423.57Z" style="fill:#e0e0e0"></path><ellipse id="freepik--shadow--inject-9" cx="176.87" cy="391.5" rx="68.77" ry="39.71" style="fill:#e0e0e0"></ellipse></g><g id="freepik--music-sheet--inject-9"><g id="freepik--music-sheet--inject-9"><path d="M347.73,408.54c0,1.49-3.48,1.49-3.48,0V211.91h3.48Z" style="fill:#455a64"></path><polygon points="376.36 196.91 372.56 194.72 311.76 229.82 311.76 231.62 315.56 233.81 376.36 198.71 376.36 196.91" style="fill:#37474f"></polygon><polygon points="315.56 232.01 376.36 196.91 372.56 194.72 311.76 229.82 315.56 232.01" style="fill:#455a64"></polygon><polygon points="311.76 229.82 315.56 232.01 315.56 233.81 311.76 231.62 311.76 229.82" style="fill:#263238"></polygon><path d="M345.71,212.18,349.76,164s-5.26-1-13.1,4.39c-7.59,5.18-14.77,11.7-24.06,11.7l-4.05,53.55Z" style="fill:#FF725E"></path><path d="M345.71,212.18,349.76,164s-5.26-1-13.1,4.39c-7.59,5.18-14.77,11.7-24.06,11.7l-4.05,53.55Z" style="fill:#fff;opacity:0.7000000000000001"></path><path d="M349.76,164a23.71,23.71,0,0,1,9.15-7.89c3.91-1.86,19.44-7.11,24.18-14.23l-5.16,51.55-32.22,18.75Z" style="fill:#FF725E"></path><path d="M349.76,164a23.71,23.71,0,0,1,9.15-7.89c3.91-1.86,19.44-7.11,24.18-14.23l-5.16,51.55-32.22,18.75Z" style="fill:#fff;opacity:0.55"></path><path d="M363.16,154.32c-1.85.76-3.36,1.37-4.25,1.79a23.71,23.71,0,0,0-9.15,7.89l-4.05,48.18,13-7.56Z" style="opacity:0.05"></path><polygon points="383.96 157.42 383.96 153.03 382.58 152.24 321.78 187.35 321.78 191.74 323.16 192.52 383.96 157.42" style="fill:#455a64"></polygon><polygon points="323.16 192.52 383.96 157.42 383.96 153.03 323.16 188.13 323.16 192.52" style="fill:#37474f"></polygon><polygon points="321.78 187.35 323.16 188.13 323.16 192.52 321.78 191.74 321.78 187.35" style="fill:#263238"></polygon><path d="M319,231.78a1.1,1.1,0,0,1-.83-1.8l62.68-74.57a1.1,1.1,0,0,1,1.68,1.41l-62.69,74.57A1.1,1.1,0,0,1,319,231.78Z" style="fill:#263238"></path><path d="M372.57,200.9a1.33,1.33,0,0,1-.28,0l-45.6-11.68a1.09,1.09,0,0,1-.79-1.33,1.1,1.1,0,0,1,1.33-.79l45.61,11.68a1.09,1.09,0,0,1-.27,2.15Z" style="fill:#263238"></path><path d="M344.25,369.42l-22.59,51.16c-.43.88,3.48,1.54,4.17,0L346,374.67Z" style="fill:#455a64"></path><path d="M347.13,366.38l23.56,31.44c.47.64-3.3,1.22-4.19,0l-21.3-28.09Z" style="fill:#455a64"></path></g></g><g id="freepik--musical-notes--inject-9"><path id="freepik--musical-note--inject-9" d="M104.09,71.89l5.54,12.68a3.61,3.61,0,1,0,3.58,2.14l-5-11.37,10.12-8h0l4.94,11.26a3.68,3.68,0,0,0-1.2.28,3.63,3.63,0,1,0,4.78,1.87h0l-8.26-18.79Z" style="fill:#FF725E"></path><path id="freepik--musical-note--inject-9" d="M288.67,110.1l-5.16,9.57a2.84,2.84,0,1,0,.4,3.25l4.64-8.58,9.86,2.39h0l-4.58,8.5a3,3,0,0,0-.75-.6,2.85,2.85,0,1,0,1.16,3.86h0l7.64-14.21Z" style="fill:#FF725E"></path><path id="freepik--musical-note--inject-9" d="M113.27,181.66l-6,11.07a3.35,3.35,0,0,0-.87-.7,3.29,3.29,0,1,0,1.34,4.46l5.36-9.92,11.41,2.77h0l-5.3,9.84a3.35,3.35,0,0,0-.87-.7,3.29,3.29,0,1,0,1.34,4.46h0l8.84-16.43Z" style="fill:#FF725E"></path><path id="freepik--musical-note--inject-9" d="M248.85,196a5.05,5.05,0,0,1,2.1-.09,10.78,10.78,0,0,1,2.7.87,19.24,19.24,0,0,0,3.53,1.37,4.71,4.71,0,0,0,3.66-.49,4.92,4.92,0,0,1-2.08-.72c-1.51-.94-2.48-2.9-3.76-4.13-1.91-1.83-4.1-2.16-6.9-2-.46,2.28-1,4.54-1.46,6.81L245.5,203c0,.17-.58,2.41-.58,2.41a4.8,4.8,0,0,0-1.88-.89,3.9,3.9,0,1,0,3,4.63Z" style="fill:#FF725E"></path><path id="freepik--musical-note--inject-9" d="M91.68,127.31a7,7,0,0,1,2.51-1.49,14.9,14.9,0,0,1,3.87-.68,28.32,28.32,0,0,0,5.21-.63,6.57,6.57,0,0,0,4.15-3,6.74,6.74,0,0,1-3,.48c-2.46-.16-4.92-1.93-7.29-2.6-3.53-1-6.43,0-9.77,2,.93,3.08,1.78,6.18,2.67,9.27q1,3.65,2.09,7.28c.07.23.87,3.33.87,3.33a6.5,6.5,0,0,0-2.89.14,5.41,5.41,0,1,0,6.7,3.7Z" style="fill:#FF725E"></path><path id="freepik--musical-note--inject-9" d="M267.37,65.14a6.42,6.42,0,0,1,2-1.89,13.85,13.85,0,0,1,3.42-1.43,26,26,0,0,0,4.68-1.66,6.15,6.15,0,0,0,3.21-3.62A6.35,6.35,0,0,1,278,57.61c-2.31.35-4.95-.77-7.27-.9-3.46-.19-5.92,1.36-8.59,3.88,1.49,2.65,2.92,5.34,4.38,8L270,74.88c.11.2,1.49,2.89,1.49,2.89a6.19,6.19,0,0,0-2.64.73,5.12,5.12,0,1,0,6.95,2Z" style="fill:#FF725E"></path></g><g id="freepik--Character--inject-9"><g id="freepik--character--inject-9"><path d="M166.29,114.24c-4.81-.85-10.52-.36-15.28,4.83-9.23,10.07-30.65,35.35-32.06,42.54l14,2.92,24.36-23.91,9-26.38" style="fill:#ffa8a7"></path><path d="M162.43,127a68.07,68.07,0,0,0-7.28.77c-5.22.94-11.35,7-12.64,12.93a14.14,14.14,0,0,0,1.17,9.92c-5.73-.23-15.26,3-15.26,3,4.85-1.35,10.19-.75,15.6-.28l.33,0,13-12.73Z" style="fill:#f28f8f"></path><path d="M162.47,63.84a3.57,3.57,0,0,1-5.93-4Z" style="fill:#263238"></path><path d="M162.54,64a3.57,3.57,0,1,1,.47-7.12Z" style="fill:#263238"></path><path d="M206.27,373.59c.64,4,1,5.77,1.44,10.67.33,4,.51,7,1.37,13.9.77,6.29,1.36,11.09-3.26,15.58-4.06,3.94-11,5.22-13,.42-2.32-5.48-1.59-14.16-1-19.56s.59-7,.83-11.3c.21-3.8.48-5.35.83-8.62C197.64,374.65,202.09,373.73,206.27,373.59Z" style="fill:#37474f"></path><path d="M174,223.47c1.49,15.29,6.24,47.71,7.31,62.25,1.24,16.65,9,57,10,66s1.73,15,2.09,22.28c.31,6.3.2,19,.73,24.75.84,9.26,10.45,6.88,12.35-1.17,1.27-5.36-.49-16.9-.25-24,.17-5.1,1-11.84,1.41-20.83s2.65-31.85,1.58-42.88c-.93-9.47-2.46-17.33-3.66-26.09,4.68-26.67,6.89-54.85,2.06-81.61" style="fill:#ffa8a7"></path><path d="M164.48,393.87l-1.43-.21c-.1-4.49.16-8.6-1-10.72l2-5.51Z" style="fill:#263238"></path><path d="M168,373.42c-.32,3.08-2.06,6.24-2.19,12.3a51.77,51.77,0,0,0,.16,7.76l-1.48.39-.34-16.44Z" style="fill:#263238"></path><path d="M133.14,397.93a4.08,4.08,0,0,0,1,2.25c.77.58,3.24,2.57,11.14,2.11s10.68-2.42,13.38-4.89,3.41-8.93,3.81-12c.79-5.91,3.25-9,5.54-12a5.25,5.25,0,0,0,.24-3.07s-6.54-.37-9.37,6.87-5,15.65-11.44,17.65A100.32,100.32,0,0,1,133.14,397.93Z" style="fill:#263238"></path><path d="M207.66,202.19c-1.68-4.9-4.88-10.08-7.59-15.36a53.61,53.61,0,0,1-3.56-8.26c-2.88,2.33-10.54,6.15-23.71,6.27-15,.14-20.77-6.44-20.77-6.44s-.79,7.94-.94,9.37c-.52,5-1.41,12.76-1.57,16.59-1,25.07-2.93,41.85-3.13,69.07-.1,15.15,1.46,47.53,2,68.85,0,.11.07,14.14-.19,18.82a74.75,74.75,0,0,1-1.39,11.17,56.4,56.4,0,0,1-4.5,12.67,12.69,12.69,0,0,1-1.81,2.86,33.65,33.65,0,0,1-3.36,3.25c-2.42,2.09-4.24,3-4,4.95s2.26,2.81,3.89,3.3c3.89,1.16,8.28.68,12.17,0s8.23-2.53,9.89-6.23a15.3,15.3,0,0,0,.93-3.42c.71-3.81,1.36-7.71,3-11.28a25,25,0,0,1,2.16-4.37c1-1.47,2.27-3.08,2.46-4.92.16-1.54-1-3.71-2.57-6l0-.05a9.14,9.14,0,0,1-1.93-5.19c0-.68,0-1.45.06-2.57l.07-1.8h0c.78-18.9,9.34-41.12,8.23-58.67-.69-11.11-1.39-13.93-3-22.52,2.66-16.23,5.35-33.47,8-50.07Z" style="fill:#ffa8a7"></path><path d="M167.53,365.85c-1.12-2-2.65-3.19-3.73-4.9a20,20,0,0,0-2.06,4.81c-.48,1.58-1.75,9.34-3.66,15.52-1.43,4.63-3.83,7.09-7.15,8.35a13.24,13.24,0,0,1-6.51.73h0c-4.11-.57-3.15-3.53-3.15-3.53-1,1.31-5.35,4.76-7.78,6.45-1.55,1.07-1.32,3.35-.32,4.65,1.14,1,5,3.38,14.85,2,8.71-1.26,10.75-5.29,11.58-7.11.63-1.38,1.17-4.35,1.81-8.17a25.91,25.91,0,0,1,3.05-8.68c.2-.34.39-.65.58-.92h0c.58-.86,1.28-1.82,2.06-2.77.61-.73,1.09-1.08,1.27-1.78A6.63,6.63,0,0,0,167.53,365.85Z" style="fill:#37474f"></path><path d="M216.84,247.06c-1.47-18.53-3.53-35.12-8.88-50-1.84-5.09-9.62-20.12-10.33-22.84a16.78,16.78,0,0,1,.22-9.1c1-3.88,4.36-10.23,4.7-18.55-6.21-9.62-9.19-19.6-4.52-29.65-4.94-.31-5.53-.78-10.49-1.09s-13.11-.68-17.16-.91l-4.09-.68c-5.62,6-13.63,10.58-18.33,18.19-4.41,7.17-3.68,15.29,2,22.39.19,3.68.45,7.17.67,10.78l.16.07h-.17c0,1.7,0,4,0,6.3h0c-1.27,19.81-8,73.88-8.81,87.77s-8.19,75.91-8.19,75.91S141.47,352,175,353.94,221.33,341,221.33,341,218.8,271.94,216.84,247.06Z" style="fill:#FF725E"></path><path d="M216.84,247.06c-1.47-18.53-3.53-35.12-8.88-50-1.84-5.09-9.62-20.12-10.33-22.84a16.78,16.78,0,0,1,.22-9.1c1-3.88,4.36-10.23,4.7-18.55-6.21-9.62-9.19-19.6-4.52-29.65-4.94-.31-5.53-.78-10.49-1.09s-13.11-.68-17.16-.91l-4.09-.68c-5.62,6-13.63,10.58-18.33,18.19-4.41,7.17-3.68,15.29,2,22.39.19,3.68.45,7.17.67,10.78l.16.07h-.17c0,1.7,0,4,0,6.3h0c-1.27,19.81-8,73.88-8.81,87.77s-8.19,75.91-8.19,75.91S141.47,352,175,353.94,221.33,341,221.33,341,218.8,271.94,216.84,247.06Z" style="opacity:0.6"></path><path d="M195.39,116.71c12.22-.11,14.78,5.82,18.86,18.32,3.66,11.18,12.39,36,12.62,40.73s.87,8-2.94,9.18-8-.44-12-8.61c-3.26-6.58-13.94-30.25-13.94-30.25S186.54,126.41,195.39,116.71Z" style="fill:#ffa8a7"></path><path d="M169.63,211.67s-9.22,107.73-10.48,140c1.78.44,3.69.83,5.7,1.17C166,328.7,167.6,246.59,169.63,211.67Z" style="opacity:0.3"></path><path d="M189.19,353.73c-.29-16.19-.48-112.89-4.1-137.88,0,0,.88,52.69-2.23,138.23C185.07,354,187.19,353.92,189.19,353.73Z" style="opacity:0.3"></path><path d="M210.72,348.2c-.28-13.29-1.27-69.65-8.51-113.54,0,0,4.25,46.34,3.6,115.55C207.61,349.57,209.25,348.89,210.72,348.2Z" style="opacity:0.3"></path><path d="M146.59,347c.23-10.47,6-79.29,8.56-118.6,0,0-9.85,70.47-13.42,115.65A42.06,42.06,0,0,0,146.59,347Z" style="opacity:0.3"></path><path d="M170.39,110.14c-2.51-4.31-6.95-6.92-12-12.85-4.83-5.62-9.77-17.31-5.12-26.93a11.41,11.41,0,0,1,8.85-6.22s1.2-6,9.07-9.6c8.83-4,16.91-1,23.18-2.56s8.62-3.47,13.43-1.9c5.93,1.94,7.35,10.94,1.7,15.34,0,0,3.62,2.36,1.06,8.07-1,2.33-3.69,5-9.72,5.35C184,79.83,170.39,110.14,170.39,110.14Z" style="fill:#263238"></path><path d="M196.28,66.28c2.88,2.43,6.59,7.81,7,24,.34,13.7-4.09,16.89-6.18,18s-5.51,1.08-9.55.57v7s-5.67,12-9.65,14.93c-3,2.24-8.8,2.68-13,1.5-9-2.51,5.54-17.4,5.54-17.4V99.55s-3.46,2.5-7.64-1c-3.44-2.85-4.8-7.87-2.35-10.71s7.24-2.33,9.25,1.46a31.81,31.81,0,0,0,15.25-5A24.85,24.85,0,0,0,196.28,66.28Z" style="fill:#ffa8a7"></path><path d="M187.54,108.79c-4.26-.37-13.5-2.56-15-6.08a9.38,9.38,0,0,0,3.26,4.43c2.71,2.19,11.76,4.41,11.76,4.41Z" style="fill:#f28f8f"></path><path d="M169.15,87.29l1.59,6.32A3.05,3.05,0,0,0,173,89.8,3.37,3.37,0,0,0,169.15,87.29Z" style="fill:#263238"></path><path d="M187.39,87.71a2.83,2.83,0,0,1-5.49.45,4.14,4.14,0,0,0,5.49-.45Z" style="fill:#263238"></path><path d="M201.65,86.49a2.84,2.84,0,0,1-5.52.09,4.15,4.15,0,0,0,2.77,1A4.22,4.22,0,0,0,201.65,86.49Z" style="fill:#263238"></path><path d="M184.65,81.18l-3.77,2a2.24,2.24,0,0,1,.93-3A2.09,2.09,0,0,1,184.65,81.18Z" style="fill:#263238"></path><path d="M188,99.32l4.07,1.23a2.09,2.09,0,0,1-2.61,1.49A2.24,2.24,0,0,1,188,99.32Z" style="fill:#f28f8f"></path><path d="M201.43,81.87l-3.56-2.38a2.06,2.06,0,0,1,2.92-.65A2.25,2.25,0,0,1,201.43,81.87Z" style="fill:#263238"></path><polygon points="191.03 85.12 192.29 95.52 197.62 93.31 191.03 85.12" style="fill:#f28f8f"></polygon><path d="M296.76,158.61a3.34,3.34,0,0,0-1.51-2.62,1.06,1.06,0,0,0-1.08-.11L292,157.12l2.13,3.72,2.14-1.24A1.07,1.07,0,0,0,296.76,158.61Z" style="fill:#FF725E"></path><path d="M296.76,158.61a3.34,3.34,0,0,0-1.51-2.62,1.06,1.06,0,0,0-1.08-.11L292,157.12l2.13,3.72,2.14-1.24A1.07,1.07,0,0,0,296.76,158.61Z" style="opacity:0.07"></path><path d="M294.61,159.85a3.33,3.33,0,0,0-1.51-2.62.93.93,0,0,0-1.52.87,3.35,3.35,0,0,0,1.52,2.63.92.92,0,0,0,1.51-.88Z" style="fill:#FF725E"></path><path d="M294.61,159.85a3.33,3.33,0,0,0-1.51-2.62.93.93,0,0,0-1.52.87,3.35,3.35,0,0,0,1.52,2.63.92.92,0,0,0,1.51-.88Z" style="opacity:0.25"></path><path d="M188.55,121c0-3.31,2.66-6.43,8.92-10,7.48-4.31,13.72-5.67,20.8-5,6.71.65,8.66,3.13,9,5.57s2.46,3.65,5.71,3.46c1.82-.11,2.56.29,2.57.78s0,5.46,0,6-.45.82-1.19,1.12-1.26.47-1.8.71h0c3.16,1.83,5,2.27,7.57,1.61a8.92,8.92,0,0,0,3.23-1.51c1.27-.83,3.54-1.37,3.44.43s.76,3,3,3.75,5.3,1.68,5.26,5.67c0,.79,0,4.5,0,5.95,0,1.89-1.76,4.43-6.31,7.06a25.39,25.39,0,0,1-12.23,3.64c-6.91,0-8.55-1.75-9.82-3s-3.37-1.78-6.5-1.72c-1.53,0-2.08-.27-2.08-.67s0-5.56,0-6,.61-.93,1.33-1.3l.19-.08-.36-.21A9.36,9.36,0,0,0,212,136c-2.68.48-3.07,1.25-4.25,2.21s-3.32,1.07-3.33-.46c0-.11,0-1.18,0-1.18-.37-1.39-2.4-2.26-6-2.45-4.23-.23-8.52-1.35-9.66-5.23a6.74,6.74,0,0,1-.29-2C188.57,125.94,188.55,121.65,188.55,121Z" style="fill:#FF725E"></path><path d="M188.55,121c0-3.31,2.66-6.43,8.92-10,7.48-4.31,13.72-5.67,20.8-5,6.71.65,8.66,3.13,9,5.57s2.46,3.65,5.71,3.46c1.82-.11,2.56.29,2.57.78s0,5.46,0,6-.45.82-1.19,1.12-1.26.47-1.8.71h0c3.16,1.83,5,2.27,7.57,1.61a8.92,8.92,0,0,0,3.23-1.51c1.27-.83,3.54-1.37,3.44.43s.76,3,3,3.75,5.3,1.68,5.26,5.67c0,.79,0,4.5,0,5.95,0,1.89-1.76,4.43-6.31,7.06a25.39,25.39,0,0,1-12.23,3.64c-6.91,0-8.55-1.75-9.82-3s-3.37-1.78-6.5-1.72c-1.53,0-2.08-.27-2.08-.67s0-5.56,0-6,.61-.93,1.33-1.3l.19-.08-.36-.21A9.36,9.36,0,0,0,212,136c-2.68.48-3.07,1.25-4.25,2.21s-3.32,1.07-3.33-.46c0-.11,0-1.18,0-1.18-.37-1.39-2.4-2.26-6-2.45-4.23-.23-8.52-1.35-9.66-5.23a6.74,6.74,0,0,1-.29-2C188.57,125.94,188.55,121.65,188.55,121Z" style="opacity:0.35000000000000003"></path><path d="M225.41,140.27v6a4.71,4.71,0,0,1,1.33.92c1.15,1.16,2.62,2.73,8,3V144.2c-5.44-.27-6.89-1.84-8-3A4.59,4.59,0,0,0,225.41,140.27Z" style="opacity:0.1"></path><path d="M234.78,144.2v5.94c.55,0,1.14,0,1.78,0a25.28,25.28,0,0,0,12.23-3.64c4.55-2.63,6.29-5.16,6.3-7.06,0-1.45,0-5.16,0-5.95,0,1.89-1.75,4.43-6.3,7.06a25.39,25.39,0,0,1-12.23,3.64C235.92,144.23,235.33,144.22,234.78,144.2Z" style="opacity:0.25"></path><path d="M188.59,120.38a6.8,6.8,0,0,0,.26,2.59c1.08,3.68,5,4.88,9,5.18v5.95c-4-.3-7.93-1.5-9-5.18a6.74,6.74,0,0,1-.29-2c0-1,0-5.27,0-5.91A4.3,4.3,0,0,1,188.59,120.38Z" style="opacity:0.1"></path><path d="M235.6,121.75v-6c0,.38-.45.82-1.19,1.12-1.66.68-3,.9-3.84,2.45-.93,1.74-.38,2.81,2,4.21.55-.24,1.15-.44,1.8-.71S235.6,122.14,235.6,121.75Z" style="opacity:0.35000000000000003"></path><path d="M197.86,128.15v5.95c.21,0,.43,0,.65.05,3.55.19,5.59,1.06,6,2.44v-4.92l0-.11a.13.13,0,0,0,0-.06c0-.12,0-.23,0-.35a1.84,1.84,0,0,0,0-.33c-.24-1.48-2.3-2.42-6-2.62Z" style="opacity:0.25"></path><path d="M194.17,133.49a10.14,10.14,0,0,1-1.28-.44A7.72,7.72,0,0,0,194.17,133.49Z" style="opacity:0.25"></path><path d="M192.89,133.05a8.09,8.09,0,0,1-1.22-.59A7.65,7.65,0,0,0,192.89,133.05Z" style="opacity:0.25"></path><path d="M207.75,132.33v5.94l0,0c1.18-1,1.57-1.74,4.25-2.22a9.41,9.41,0,0,1,7.28,1.17l.36.22a6.88,6.88,0,0,0,2.42-1.8c1.15-1.49.39-2.54-2.78-4.37a9.36,9.36,0,0,0-7.28-1.17c-2.68.48-3.07,1.25-4.25,2.22Z" style="opacity:0.25"></path><path d="M213,124.33a.75.75,0,0,0,.13.11,1.33,1.33,0,0,0,1.15,0l6.38-3.73c.34-.19.37-.49.08-.66a1.3,1.3,0,0,0-1.15,0l-6.38,3.72C213,123.93,212.89,124.16,213,124.33Z" style="fill:#37474f"></path><path d="M218.27,106c6.71.65,8.66,3.13,9,5.57s2.46,3.65,5.71,3.46,3.05,1.22,1.38,1.9-3,.91-3.84,2.45c-.93,1.74-.38,2.81,2.05,4.21,3.16,1.83,5,2.27,7.57,1.61a8.92,8.92,0,0,0,3.23-1.51c1.27-.83,3.54-1.37,3.44.43s.76,3,3,3.75,5.3,1.68,5.26,5.67c0,1.89-1.76,4.43-6.31,7.06a25.39,25.39,0,0,1-12.23,3.64c-6.91,0-8.55-1.75-9.82-3s-3.37-1.78-6.5-1.72-2.17-1.25-.75-2a7.1,7.1,0,0,0,2.61-1.87c1.15-1.5.39-2.55-2.78-4.38a9.4,9.4,0,0,0-7.28-1.17c-2.68.48-3.07,1.25-4.25,2.21s-3.62,1.08-3.3-.79-1.75-3.08-6-3.3-8.52-1.35-9.66-5.23c-1.2-4.09,1.14-7.69,8.62-12S211.19,105.29,218.27,106Z" style="fill:#FF725E"></path><path d="M218.27,106c6.71.65,8.66,3.13,9,5.57s2.46,3.65,5.71,3.46,3.05,1.22,1.38,1.9-3,.91-3.84,2.45c-.93,1.74-.38,2.81,2.05,4.21,3.16,1.83,5,2.27,7.57,1.61a8.92,8.92,0,0,0,3.23-1.51c1.27-.83,3.54-1.37,3.44.43s.76,3,3,3.75,5.3,1.68,5.26,5.67c0,1.89-1.76,4.43-6.31,7.06a25.39,25.39,0,0,1-12.23,3.64c-6.91,0-8.55-1.75-9.82-3s-3.37-1.78-6.5-1.72-2.17-1.25-.75-2a7.1,7.1,0,0,0,2.61-1.87c1.15-1.5.39-2.55-2.78-4.38a9.4,9.4,0,0,0-7.28-1.17c-2.68.48-3.07,1.25-4.25,2.21s-3.62,1.08-3.3-.79-1.75-3.08-6-3.3-8.52-1.35-9.66-5.23c-1.2-4.09,1.14-7.69,8.62-12S211.19,105.29,218.27,106Z" style="opacity:0.25"></path><path d="M219.49,137.5Z" style="opacity:0.25"></path><path d="M219.47,137.51h0Z" style="opacity:0.25"></path><path d="M199.29,112.07c0-1.11,1-1.67,2.89-1.66a8.09,8.09,0,0,1,3.37.71l13.63,6.35v1.68l-7.65,4.42-11-7.87a2.56,2.56,0,0,1-1.24-2C199.29,113.44,199.3,112.38,199.29,112.07Z" style="fill:#37474f"></path><polygon points="211.53 121.89 211.53 123.57 219.18 119.16 219.18 117.47 211.53 121.89" style="fill:#263238"></polygon><path d="M219.18,117.47l-13.63-6.35a8.09,8.09,0,0,0-3.37-.71c-1.93,0-2.89.55-2.89,1.66a2.56,2.56,0,0,0,1.24,2l11,7.86Z" style="fill:#455a64"></path><path d="M224.37,115.33a3.77,3.77,0,0,1,3.56.21h0a2.24,2.24,0,0,1,.2.17l-.07,0c.19.26.06.58-.36.8a1.8,1.8,0,0,1-1.63,0,.42.42,0,0,1-.17-.57,2,2,0,0,0-1.2,1.52c-.19,1.3,2.44,3.69,4.34,6.12a.86.86,0,0,1,0,1.28h0s0,0,0,0a.84.84,0,0,1-.24.16l0,0a1.8,1.8,0,0,1-1.63,0c-.39-.26-.29-.68.22-1a1.86,1.86,0,0,1,.77-.19l0-.06c-1.27-1.45-2.9-2.32-4.57-4S221.75,116.22,224.37,115.33Z" style="fill:#263238"></path><path d="M205,126.49c-1.17,1.14-.19,1.8.36,2.06h0a2.53,2.53,0,0,0,.3.12l-.05,0a2,2,0,0,0,1.38-.21c.46-.29.47-.72,0-.94a1.63,1.63,0,0,0-1-.1,5.18,5.18,0,0,1,2.64-.69c2.24-.11,6.38,1.4,10.6,2.5a3.87,3.87,0,0,0,2.21,0h0l.08,0a.86.86,0,0,0,.27-.14h0c.46-.3.47-.72,0-.94a1.86,1.86,0,0,0-1.65.12.7.7,0,0,0-.33.45l-.1,0c-2.52-.73-4-1.67-6.93-2.64S206.58,125,205,126.49Z" style="fill:#263238"></path><polygon points="226.65 130.37 233.85 126.22 281.97 155.23 281.97 156.86 277.45 159.47 226.65 132 226.65 130.37" style="fill:#263238"></polygon><polygon points="277.45 157.84 277.45 159.47 226.65 132 226.65 130.37 277.45 157.84" style="fill:#37474f"></polygon><polygon points="277.45 157.84 226.65 130.37 233.85 126.22 281.97 155.23 277.45 157.84" style="fill:#455a64"></polygon><polygon points="277.76 157.66 281.67 155.4 289.52 159.93 289.52 161.57 285.61 163.82 277.76 159.29 277.76 157.66" style="fill:#FF725E"></polygon><polygon points="277.76 157.66 281.67 155.4 289.52 159.93 289.52 161.57 285.61 163.82 277.76 159.29 277.76 157.66" style="opacity:0.35000000000000003"></polygon><polygon points="289.52 159.93 281.67 155.4 277.76 157.66 285.61 162.19 289.52 159.93" style="fill:#FF725E"></polygon><polygon points="289.52 159.93 281.67 155.4 277.76 157.66 285.61 162.19 289.52 159.93" style="opacity:0.25"></polygon><rect x="249.64" y="98.24" width="0.2" height="77.37" transform="translate(4.78 282.23) rotate(-59.41)" style="fill:#e0e0e0"></rect><polygon points="281.98 157.29 214.75 118.27 214.85 118.1 282.08 157.12 281.98 157.29" style="fill:#e0e0e0"></polygon><rect x="245.55" y="99.98" width="0.2" height="78.62" transform="translate(4.69 286.55) rotate(-60.99)" style="fill:#e0e0e0"></rect><polygon points="281.02 157.84 212.89 119.35 212.98 119.18 281.12 157.67 281.02 157.84" style="fill:#e0e0e0"></polygon><path d="M216,117c-.27.15-.29.38-.07.51a1,1,0,0,0,.89,0c.27-.16.29-.38.07-.52A1,1,0,0,0,216,117Z" style="fill:#e0e0e0"></path><path d="M214.39,118c-.26.15-.29.38-.06.51a1,1,0,0,0,.88,0c.27-.15.3-.38.07-.51A1,1,0,0,0,214.39,118Z" style="fill:#e0e0e0"></path><path d="M212.52,119c-.26.16-.29.39-.06.52a1,1,0,0,0,.89,0c.26-.15.29-.38.06-.51A1,1,0,0,0,212.52,119Z" style="fill:#e0e0e0"></path><path d="M210.86,120c-.27.15-.3.38-.07.51a1,1,0,0,0,.89,0c.26-.15.29-.38.06-.51A1,1,0,0,0,210.86,120Z" style="fill:#e0e0e0"></path><path d="M296.13,160.71a6.57,6.57,0,0,0-3-5.16,2.07,2.07,0,0,0-2.11-.21l-6,3.43,4.2,7.32,6-3.44A2.1,2.1,0,0,0,296.13,160.71Z" style="fill:#FF725E"></path><path d="M296.13,160.71a6.57,6.57,0,0,0-3-5.16,2.07,2.07,0,0,0-2.11-.21l-6,3.43,4.2,7.32,6-3.44A2.1,2.1,0,0,0,296.13,160.71Z" style="opacity:0.15"></path><path d="M290.16,164.16a6.59,6.59,0,0,0-3-5.17,1.82,1.82,0,0,0-3,1.72,6.58,6.58,0,0,0,3,5.17,1.81,1.81,0,0,0,3-1.72Z" style="fill:#FF725E"></path><path d="M290.16,164.16a6.59,6.59,0,0,0-3-5.17,1.82,1.82,0,0,0-3,1.72,6.58,6.58,0,0,0,3,5.17,1.81,1.81,0,0,0,3-1.72Z" style="opacity:0.35000000000000003"></path><path d="M288.91,163.49a3.85,3.85,0,0,0-1.75-3,1.22,1.22,0,0,0-1.23-.12l-1.72,1,2.46,4.28,1.72-1A1.22,1.22,0,0,0,288.91,163.49Z" style="fill:#FF725E"></path><path d="M288.91,163.49a3.85,3.85,0,0,0-1.75-3,1.22,1.22,0,0,0-1.23-.12l-1.72,1,2.46,4.28,1.72-1A1.22,1.22,0,0,0,288.91,163.49Z" style="opacity:0.15"></path><path d="M287.18,164.48a3.84,3.84,0,0,0-1.75-3,1.06,1.06,0,0,0-1.74,1,3.87,3.87,0,0,0,1.74,3,1.24,1.24,0,0,0,1.24.12A1.21,1.21,0,0,0,287.18,164.48Z" style="fill:#FF725E"></path><path d="M287.18,164.48a3.84,3.84,0,0,0-1.75-3,1.06,1.06,0,0,0-1.74,1,3.87,3.87,0,0,0,1.74,3,1.24,1.24,0,0,0,1.24.12A1.21,1.21,0,0,0,287.18,164.48Z" style="opacity:0.25"></path><path d="M220.71,185.08c4.41,2,26.75-12.28,34-16.49l12-6.92c2.67-1.55,8-9.39,9.77-14a6.06,6.06,0,0,0-.21-3.1,24.12,24.12,0,0,0-1.34-4.25A8.2,8.2,0,0,0,273.7,138a2.13,2.13,0,0,0-3,.1,9.79,9.79,0,0,0-.82,1,2.92,2.92,0,0,0-2.8.47,4.19,4.19,0,0,0-2.28.05,1.19,1.19,0,0,1-1,0c-.23-.13-.4-.55-.58-.74a3.54,3.54,0,0,0-1.61-1.08,2.5,2.5,0,0,0-2.8,1,4.08,4.08,0,0,0-.42,2l-.07,2.08a3.12,3.12,0,0,0,.23,1.61,1.06,1.06,0,0,0,1.38.5c-.69,1.6-1.39,3.19-2.09,4.79s-1.58,4.4-3.18,5.15a16,16,0,0,1-1.82.57l-6,1.91-15.43,4.89-8.1,2.57Z" style="fill:#ffa8a7"></path><path d="M184.22,168.08l2.34,1.22,69-74.71a18.91,18.91,0,0,0,4.15-7.13.15.15,0,0,0-.26-.15Z" style="fill:#37474f"></path><path d="M197,158.84a2.24,2.24,0,0,0-.84-1.24,3.46,3.46,0,0,0-1.27-.42c-1.5-.3-3-.56-4.52-.91a29.3,29.3,0,0,0-4.38-.77c-4.27-.33-7.46.18-15.5.24-5.77,0-34.68-4.17-40.71-2.6s-12.07,7-10.86,10.45,3.6,4.83,12.15,6.27,32.27-1.77,35.19-1.93,4.31,1.27,7,1.93a22.47,22.47,0,0,0,5.22.37,11.54,11.54,0,0,1,5,.64,3.63,3.63,0,0,0-.23,2.65,1.92,1.92,0,0,0,.67,1.07,1.62,1.62,0,0,0,1.59-.2,19.38,19.38,0,0,1,1.38-1.51c-.1.62.79.94,1.29.89a4.68,4.68,0,0,0,1.87-.92,15.05,15.05,0,0,0,3.08-3c1.45-1.75,2.2-2.56,2.27-3.42a2.84,2.84,0,0,0-.74-2s1.94-2.74,2.27-3.29A3.33,3.33,0,0,0,197,158.84Zm-4.45,3.66L190.77,161l2.41.28Z" style="fill:#ffa8a7"></path><polygon points="192.55 162.5 194.64 164.46 195.36 163.48 192.82 162 192.55 162.5" style="fill:#f28f8f"></polygon></g></g></svg>