<?xml version="1.0" standalone="no"?>
<!DOCTYPE svg PUBLIC "-//W3C//DTD SVG 20010904//EN"
 "http://www.w3.org/TR/2001/REC-SVG-20010904/DTD/svg10.dtd">
<svg version="1.0" xmlns="http://www.w3.org/2000/svg"
 width="1024.000000pt" height="1024.000000pt" viewBox="0 0 1024.000000 1024.000000"
 preserveAspectRatio="xMidYMid meet">

<g transform="translate(0.000000,1024.000000) scale(0.100000,-0.100000)"
fill="#ffdf71" stroke="none">
<path d="M8598 9293 c-9 -10 -23 -33 -32 -50 -17 -35 -40 -43 -50 -18 -11 29
-51 16 -89 -29 -32 -39 -43 -45 -89 -51 -29 -4 -86 -18 -126 -31 -40 -13 -80
-24 -90 -24 -9 0 -55 -12 -102 -25 -47 -14 -108 -27 -136 -30 -50 -4 -51 -4
-46 20 7 40 -23 43 -90 8 -51 -27 -58 -28 -58 -12 0 27 -16 31 -57 13 -21 -9
-92 -38 -159 -64 -259 -103 -395 -189 -522 -333 -87 -98 -153 -226 -203 -392
-29 -100 -33 -125 -37 -279 l-4 -168 -32 -30 c-17 -16 -25 -27 -18 -23 8 4 12
-2 12 -19 0 -16 -6 -26 -15 -26 -8 0 -15 -4 -15 -9 0 -5 -21 -31 -46 -57 -25
-27 -60 -69 -77 -94 -17 -25 -56 -77 -87 -116 -77 -100 -128 -173 -164 -237
-17 -30 -47 -79 -67 -109 -20 -29 -44 -66 -53 -81 -10 -16 -32 -37 -49 -47
-30 -18 -92 -102 -130 -175 -8 -16 -38 -55 -65 -85 -64 -72 -112 -148 -112
-178 0 -18 -36 -60 -132 -157 -91 -90 -144 -152 -169 -196 -20 -35 -60 -102
-89 -149 -29 -47 -64 -102 -77 -123 -13 -21 -35 -42 -48 -47 -13 -5 -45 -41
-70 -80 -26 -38 -51 -70 -56 -70 -5 0 -21 -19 -36 -42 -15 -24 -53 -82 -84
-130 -31 -47 -60 -100 -63 -116 -4 -16 -29 -55 -56 -87 -26 -31 -63 -85 -81
-119 -18 -33 -44 -79 -59 -101 -15 -22 -68 -123 -118 -225 -68 -141 -99 -194
-132 -225 -49 -47 -135 -175 -190 -284 -30 -61 -50 -86 -88 -113 -42 -31 -51
-44 -71 -104 -13 -38 -35 -82 -50 -99 -68 -75 -174 -251 -191 -317 -12 -47
-46 -83 -137 -146 -19 -14 -34 -34 -38 -55 -4 -17 -29 -77 -55 -133 -47 -96
-51 -101 -102 -127 -29 -15 -59 -27 -65 -27 -21 0 -26 -49 -10 -90 l15 -39
-80 -122 c-43 -67 -92 -147 -108 -178 -15 -31 -53 -90 -84 -131 -125 -170
-144 -196 -156 -219 -7 -14 -41 -62 -76 -108 -35 -46 -67 -95 -70 -111 -9 -37
-120 -198 -153 -222 -15 -10 -34 -38 -41 -61 -8 -23 -27 -62 -44 -88 -48 -76
-195 -319 -254 -421 -66 -114 -82 -162 -82 -248 0 -73 22 -113 83 -151 57 -35
93 -25 167 48 36 35 94 83 130 107 76 50 135 109 222 220 109 140 218 274 223
274 15 0 1 -42 -27 -84 -18 -27 -51 -79 -73 -117 -22 -37 -59 -99 -83 -138
-82 -135 -116 -241 -78 -241 12 0 60 105 71 157 3 18 28 62 53 97 26 36 59 87
75 113 38 67 115 179 212 308 56 75 224 308 262 364 18 26 50 67 73 90 22 24
42 53 46 65 10 35 34 66 49 66 25 0 17 -26 -21 -72 -45 -55 -152 -214 -200
-298 -57 -99 -139 -223 -164 -245 -44 -40 -65 -107 -36 -118 9 -4 24 15 45 55
17 34 31 67 31 74 0 7 15 21 33 32 18 12 56 58 87 107 30 47 76 114 103 148
40 52 89 122 170 242 87 128 176 273 227 366 76 141 85 153 104 146 13 -5 11
-15 -11 -67 -20 -47 -24 -63 -15 -72 10 -10 17 -8 31 7 17 18 131 208 131 219
0 10 82 145 94 155 26 21 13 -60 -14 -89 -14 -15 -40 -58 -59 -95 -26 -54 -30
-69 -20 -76 16 -10 23 -4 47 42 30 55 86 157 137 249 26 47 67 122 91 168 53
99 94 162 105 162 14 0 12 -6 -51 -131 -33 -66 -58 -124 -55 -130 11 -17 32
-9 44 19 15 33 99 177 195 332 39 63 73 119 75 125 8 22 64 106 68 101 7 -6
-38 -106 -48 -106 -5 0 -9 -13 -9 -29 0 -15 -11 -49 -25 -75 -22 -41 -23 -47
-9 -53 9 -3 20 0 25 8 46 75 64 109 114 204 31 61 67 124 80 141 38 50 125
202 125 218 0 8 11 28 25 45 14 16 41 56 61 88 44 74 165 230 183 238 34 13
20 -22 -34 -90 -45 -56 -162 -241 -225 -355 -29 -52 -61 -104 -71 -116 -10
-11 -19 -30 -19 -42 0 -34 38 -28 58 9 9 17 26 43 38 58 11 14 38 58 59 96 32
57 124 206 179 287 60 89 165 240 191 274 18 24 51 76 74 116 61 110 183 289
208 305 33 22 33 4 3 -59 -28 -57 -26 -74 8 -64 16 6 97 132 202 316 50 88
105 175 177 283 23 34 70 109 104 167 34 58 76 125 93 150 17 25 42 68 57 95
14 28 44 84 66 125 21 41 51 93 65 115 13 22 49 85 78 140 61 114 150 255 162
255 4 0 8 -6 8 -14 0 -39 23 -21 49 37 16 36 34 68 40 72 6 3 29 41 50 83 39
76 120 215 153 261 31 44 40 18 12 -34 -61 -114 -144 -286 -144 -300 0 -26 28
-16 53 18 14 17 59 99 101 181 43 82 95 182 117 222 22 39 64 127 94 194 61
137 77 160 106 153 21 -6 24 -14 10 -29 -9 -10 -81 -187 -81 -201 0 -4 -12
-26 -26 -46 -14 -21 -24 -41 -21 -43 7 -7 57 37 57 51 0 7 8 19 17 26 9 8 42
68 74 134 31 66 67 130 80 141 24 21 69 41 69 30 0 -3 -30 -67 -66 -142 -86
-179 -88 -183 -68 -191 23 -9 34 7 124 182 118 229 123 236 186 278 31 21 58
36 60 34 2 -2 -38 -84 -90 -183 -60 -115 -90 -183 -84 -189 11 -11 17 -4 85
100 66 103 146 265 147 301 1 25 11 40 51 73 57 47 153 163 221 269 52 81 134
263 134 297 0 12 7 42 16 66 25 68 45 158 50 219 2 30 13 96 23 145 11 50 29
144 41 210 11 66 29 163 40 215 21 98 17 153 -12 172 -18 11 -23 10 -40 -9z
m-118 -259 c0 -20 -144 -192 -276 -330 -85 -89 -154 -166 -154 -171 0 -5 -25
-40 -55 -78 -30 -38 -55 -75 -55 -82 0 -27 30 -11 72 39 23 28 97 106 163 172
66 67 147 151 179 189 32 37 62 67 67 67 13 0 -35 -74 -85 -135 -23 -27 -70
-87 -104 -132 -35 -46 -102 -124 -150 -174 -91 -97 -232 -222 -240 -215 -2 3
12 28 33 56 21 28 35 53 32 56 -3 3 -28 -25 -56 -62 -27 -38 -48 -70 -46 -72
2 -3 -2 -11 -10 -18 -14 -14 -45 -19 -45 -8 0 8 124 233 162 293 28 45 64 139
55 147 -21 22 -132 -133 -222 -311 -46 -91 -61 -111 -173 -219 -67 -66 -122
-113 -122 -105 1 29 175 331 289 499 79 116 103 144 180 205 49 39 113 93 142
119 30 27 64 53 75 58 20 9 41 64 30 76 -17 16 -282 -208 -324 -273 -11 -18
-12 -17 -5 10 4 17 7 48 7 70 1 38 3 40 86 92 115 72 207 126 255 150 58 29
155 73 161 73 9 0 -125 -155 -182 -210 -69 -67 -134 -147 -134 -166 0 -19 27
-7 71 30 20 17 62 51 93 76 54 43 131 125 225 238 40 47 61 63 61 46z m-415
-64 c-3 -5 -27 -24 -53 -42 -103 -70 -183 -151 -216 -218 -18 -36 -55 -102
-84 -148 -28 -46 -88 -149 -131 -230 -44 -81 -87 -156 -96 -167 -15 -19 -16
-18 -9 15 15 83 86 239 159 348 41 63 75 116 75 118 0 13 -43 0 -61 -18 -26
-28 -92 -130 -142 -218 -40 -72 -127 -319 -127 -362 0 -15 -4 -29 -9 -32 -5
-3 -25 -45 -46 -93 -34 -82 -77 -144 -90 -131 -3 3 9 34 28 69 45 86 71 156
102 269 25 98 89 266 125 331 25 47 25 49 -4 49 -21 0 -31 -12 -60 -72 -20
-40 -68 -163 -106 -272 -39 -110 -72 -202 -75 -204 -2 -3 -7 3 -11 12 -13 35
67 301 144 476 42 95 43 96 118 145 78 51 198 168 191 188 -2 6 -10 15 -18 20
-32 20 -212 -119 -240 -186 -7 -16 -23 -40 -35 -52 -32 -32 -127 -232 -163
-343 -17 -51 -41 -153 -53 -225 -12 -73 -28 -136 -34 -142 -6 -5 -14 -17 -17
-25 -13 -35 -5 54 13 160 30 174 48 245 87 349 68 182 125 275 254 408 45 47
245 161 321 183 43 13 41 -1 -8 -51 -31 -31 -45 -53 -41 -63 4 -9 11 -16 16
-16 15 0 124 76 161 113 19 19 49 42 65 50 33 18 80 22 70 7z m-590 -90 c-3
-5 -36 -29 -74 -53 -81 -53 -183 -147 -241 -222 -23 -30 -49 -55 -56 -55 -8 0
-14 2 -14 4 0 2 24 39 53 82 65 98 164 182 260 223 83 35 80 34 72 21z m-75
-145 c0 -2 -29 -36 -63 -75 -71 -78 -112 -155 -177 -330 -24 -63 -47 -119 -51
-124 -5 -6 -9 -26 -9 -45 0 -37 -14 -70 -25 -59 -12 12 24 225 49 293 42 110
158 268 235 321 37 25 41 27 41 19z m916 -203 c-8 -16 -24 -32 -36 -35 -26 -7
-26 -4 11 38 36 41 47 40 25 -3z m-1342 -19 c-4 -21 -12 -49 -19 -63 -30 -60
-47 -195 -49 -382 -1 -167 -3 -188 -17 -188 -26 0 -32 113 -16 345 6 97 43
239 74 286 14 21 28 39 30 39 2 0 1 -17 -3 -37z m72 -78 c-7 -19 -49 -159 -51
-170 -1 -5 -3 -20 -3 -32 -1 -13 -7 -23 -13 -23 -7 0 -9 17 -4 53 6 52 34 175
42 189 7 12 34 -4 29 -17z m1157 -7 c-5 -7 -37 -49 -70 -93 -71 -94 -146 -172
-151 -156 -5 14 140 193 187 232 38 31 49 37 34 17z m52 -65 c-7 -31 -60 -117
-149 -243 -66 -93 -80 -110 -93 -110 -4 0 -24 -23 -43 -51 -19 -28 -52 -65
-75 -82 -22 -18 -62 -55 -90 -83 -81 -81 -155 -126 -155 -94 0 4 42 39 93 78
56 42 106 89 124 116 30 45 74 87 90 86 4 0 8 3 8 8 0 4 17 30 38 57 36 47
107 146 206 284 24 33 46 61 49 61 2 0 1 -12 -3 -27z m10 -221 c-26 -49 -66
-115 -91 -147 -49 -66 -152 -175 -165 -175 -21 0 -5 26 54 90 35 37 103 129
152 203 50 74 91 131 93 126 2 -5 -17 -48 -43 -97z m-405 -94 c-103 -97 -175
-158 -240 -204 -53 -38 -54 -38 -32 -9 13 17 74 77 135 134 111 102 195 166
206 155 3 -3 -28 -37 -69 -76z m-783 5 c-3 -10 -5 -4 -5 12 0 17 2 24 5 18 2
-7 2 -21 0 -30z m-11 -120 c-3 -8 -10 -11 -16 -8 -14 8 -13 48 3 82 l12 28 3
-44 c2 -24 1 -50 -2 -58z m552 42 c-3 -17 -207 -225 -220 -225 -20 0 -1 24 98
129 103 107 129 128 122 96z m-666 -260 c92 -24 214 -93 293 -167 66 -62 117
-139 101 -155 -3 -3 -39 26 -79 65 -88 87 -106 101 -182 141 -67 35 -83 38
-91 16 -8 -19 -24 -20 -24 -1 0 39 -111 88 -155 68 -27 -13 -34 -32 -11 -32 8
0 43 -13 78 -30 34 -16 72 -30 83 -30 87 -1 317 -185 300 -240 -10 -30 -35
-25 -35 8 0 35 -13 54 -31 47 -8 -3 -55 -67 -104 -142 -50 -76 -122 -179 -161
-229 -39 -50 -79 -105 -89 -122 -21 -34 -52 -54 -41 -26 4 10 59 96 122 192
64 96 127 199 141 229 14 29 36 61 49 70 38 25 49 52 29 72 -16 15 -18 15 -28
-3 -7 -10 -27 -40 -45 -65 -18 -25 -45 -65 -60 -89 -15 -24 -67 -98 -116 -165
-48 -67 -106 -153 -129 -192 -68 -117 -119 -195 -128 -195 -25 0 -15 35 32
111 28 46 64 104 79 129 15 25 39 63 53 84 32 45 34 66 9 66 -13 0 -42 -36
-90 -107 -151 -228 -169 -247 -203 -207 -13 16 -133 75 -222 109 -26 10 -47
22 -47 27 0 22 85 159 139 224 14 17 71 93 126 169 55 76 128 171 161 211 39
46 64 86 68 108 4 20 17 42 29 51 27 19 106 19 179 0z m353 -36 c5 -13 2 -25
-6 -30 -19 -11 -29 -2 -29 27 0 30 26 32 35 3z m304 -82 c-93 -71 -140 -94
-121 -62 13 24 106 83 116 74 5 -5 8 -10 5 -12z m180 -21 c-12 -10 -103 -58
-97 -51 12 12 82 54 92 55 5 0 7 -2 5 -4z m-482 -302 c-10 -19 -22 -40 -28
-47 -5 -7 -19 -27 -29 -44 -19 -32 -50 -45 -50 -22 0 21 44 89 57 89 7 0 13 6
13 14 0 7 7 31 16 52 16 38 17 38 27 16 8 -17 6 -31 -6 -58z m-87 30 c0 -7
-192 -292 -256 -379 -24 -33 -62 -90 -85 -127 -23 -38 -45 -68 -50 -68 -16 0
-9 14 41 85 28 39 62 92 77 118 16 27 53 84 83 126 30 43 80 117 110 164 30
48 61 87 68 87 6 0 12 -3 12 -6z m165 -179 c-36 -63 -51 -82 -61 -72 -7 6 54
139 74 161 17 18 17 18 20 -3 2 -11 -13 -50 -33 -86z m-180 15 c3 -5 -30 -62
-73 -127 -44 -65 -105 -156 -136 -203 -64 -99 -113 -157 -122 -147 -10 10 8
45 77 149 35 51 94 140 132 198 93 141 106 155 122 130z m-861 -341 c113 -52
176 -99 217 -166 12 -18 27 -33 35 -33 7 0 28 -13 46 -29 27 -25 31 -33 22
-48 -21 -34 -41 -26 -65 26 -12 28 -26 51 -30 51 -4 0 -14 3 -22 6 -13 4 -14
-2 -10 -35 7 -54 -2 -53 -125 5 -139 66 -229 132 -218 161 3 8 -5 15 -22 19
-55 11 -72 23 -72 48 0 20 7 27 33 35 64 18 98 12 211 -40z m-299 -126 c42
-36 127 -87 205 -124 62 -29 180 -131 180 -156 0 -19 -24 -16 -45 7 -27 30
-153 114 -220 147 -33 16 -88 38 -122 48 -55 16 -63 21 -63 42 0 25 16 63 27
63 3 0 20 -12 38 -27z m700 -11 c-6 -7 -35 18 -35 31 0 5 9 2 20 -8 11 -10 18
-20 15 -23z m101 -37 c7 -19 -41 -85 -62 -85 -27 0 -26 30 2 64 32 38 51 44
60 21z m-816 -145 c77 -21 77 -24 -6 -145 -81 -118 -154 -242 -154 -262 0 -7
8 -13 18 -12 11 0 60 65 136 180 73 110 125 179 135 179 19 0 64 -27 111 -68
27 -23 33 -34 25 -46 -5 -8 -45 -65 -88 -128 -116 -169 -222 -347 -233 -390
-19 -81 71 23 161 186 20 38 52 85 70 105 17 20 46 63 64 96 17 33 40 71 51
85 18 24 20 24 36 8 17 -16 14 -23 -48 -115 -36 -54 -71 -109 -78 -123 -16
-32 -136 -224 -172 -274 -27 -38 -38 -86 -19 -86 22 0 104 102 162 200 85 145
170 282 187 302 17 20 32 15 32 -11 0 -22 -93 -189 -194 -348 -77 -122 -88
-135 -115 -140 -22 -3 -32 -26 -25 -58 16 -79 9 -103 -49 -164 -30 -31 -64
-76 -77 -100 -44 -86 -274 -420 -301 -437 -6 -3 -13 -4 -16 -1 -13 14 14 74
66 144 93 126 272 395 292 438 18 40 12 65 -15 65 -21 0 -319 -464 -349 -542
-3 -10 -12 -18 -19 -18 -7 0 -64 -71 -127 -158 -188 -258 -205 -280 -226 -290
-11 -5 -26 -27 -34 -48 -7 -22 -51 -88 -96 -149 -45 -60 -104 -141 -130 -180
-64 -96 -153 -195 -173 -195 -40 1 -41 15 -7 59 41 51 44 71 13 71 -15 -1 -35
-17 -58 -48 -59 -79 -160 -233 -160 -243 0 -5 9 -9 19 -9 20 0 65 50 115 129
l28 44 14 -39 c15 -45 18 -39 -87 -179 -37 -49 -76 -95 -87 -102 -11 -6 -36
-42 -57 -80 -38 -69 -110 -170 -198 -278 -115 -141 -195 -242 -218 -275 -31
-46 -41 -57 -156 -175 -53 -55 -105 -116 -114 -135 -14 -30 -67 -99 -150 -197
-10 -13 -46 -56 -79 -97 -128 -158 -97 -94 89 182 75 112 144 218 155 235 163
274 174 297 142 297 -8 0 -31 -26 -52 -57 -20 -32 -47 -67 -60 -78 -20 -18
-112 -164 -200 -317 -42 -74 -85 -135 -124 -177 -17 -18 -38 -44 -47 -57 -8
-13 -19 -24 -24 -24 -19 0 -8 28 27 68 36 42 41 74 13 80 -16 3 -99 -110 -118
-161 -18 -46 -14 -60 14 -55 30 6 30 7 6 -40 -23 -45 -71 -93 -71 -71 0 11
-11 15 -42 15 -41 -1 -44 -3 -70 -51 -37 -67 -35 -88 2 -37 34 47 46 51 55 22
5 -15 -2 -31 -24 -55 -17 -20 -38 -49 -46 -65 -24 -46 -37 -37 -29 19 6 45 5
49 -12 45 -33 -9 -305 -388 -369 -514 -10 -19 -32 -55 -50 -80 -17 -25 -35
-54 -39 -64 -10 -30 -60 -105 -69 -106 -4 0 -3 9 3 21 7 11 9 23 6 26 -3 3 6
22 18 42 13 20 37 64 54 96 16 33 66 114 109 180 44 66 101 154 127 195 73
115 107 162 136 195 46 50 52 70 30 90 -19 17 -20 17 -30 -11 -22 -58 -64
-133 -76 -136 -13 -3 -184 -232 -184 -247 0 -5 -26 -49 -58 -97 -31 -49 -73
-115 -92 -147 -19 -33 -43 -63 -52 -68 -10 -5 -18 -18 -18 -27 0 -10 -16 -47
-35 -82 -19 -36 -35 -77 -35 -92 0 -20 -5 -28 -18 -28 -10 0 -23 -5 -28 -10
-6 -6 -19 -8 -28 -4 -44 17 20 159 173 388 37 56 105 164 151 241 45 77 121
196 168 265 95 138 166 246 227 342 22 35 62 90 91 123 47 56 129 185 250 395
26 47 85 139 130 205 44 66 96 147 114 180 82 147 219 347 272 395 15 14 34
43 44 65 9 22 40 72 70 111 29 39 80 112 113 161 33 49 67 96 76 103 8 7 23
38 31 69 12 38 59 119 150 256 73 111 140 208 149 215 9 8 48 77 87 155 39 77
94 176 123 220 114 175 169 255 254 370 49 66 108 147 130 180 22 33 53 78 69
100 16 22 37 60 46 85 23 58 44 82 67 75 28 -9 59 13 76 53 27 66 95 174 172
276 42 56 87 118 100 138 12 21 30 42 39 48 18 11 62 7 122 -10z m673 -76 c-3
-8 -9 -14 -14 -14 -11 0 -12 64 -2 74 10 9 23 -41 16 -60z m-182 -45 c33 -36
37 -59 10 -59 -23 0 -39 19 -51 59 -11 40 3 40 41 0z m79 -88 c0 -16 -7 -34
-15 -41 -13 -11 -15 -8 -15 13 0 32 9 57 21 57 5 0 9 -13 9 -29z m-1030 -155
c0 -22 -27 -62 -36 -53 -6 6 19 77 28 77 4 0 8 -11 8 -24z m1090 11 c0 -17
-29 -57 -41 -57 -16 0 -10 42 9 56 22 17 32 17 32 1z m-136 -234 c-10 -27 -42
-90 -71 -141 -29 -52 -53 -97 -53 -100 0 -4 -9 -18 -20 -32 -14 -18 -20 -21
-20 -9 0 28 22 82 60 144 20 33 54 93 75 134 42 79 58 81 29 4z m-210 -80
c-66 -132 -121 -220 -142 -228 -24 -9 -4 45 37 100 50 68 116 172 137 217 10
21 20 36 22 33 3 -3 -21 -58 -54 -122z m-68 -385 c-9 -13 -19 -30 -23 -38 -3
-8 -34 -58 -68 -110 -34 -52 -74 -117 -89 -145 -15 -27 -35 -61 -46 -75 -16
-21 -20 -22 -20 -7 0 27 45 115 85 167 34 43 47 63 123 178 20 28 40 52 45 52
5 0 2 -10 -7 -22z m-631 -558 c-4 -11 -28 -47 -55 -78 -26 -32 -54 -71 -63
-88 -8 -16 -27 -40 -42 -54 -15 -14 -42 -56 -60 -95 -45 -98 -233 -331 -252
-312 -3 4 -1 7 6 7 7 0 10 4 7 8 -3 5 22 42 54 83 61 78 246 344 317 457 55
89 107 131 88 72z m75 -135 c0 -11 -43 -90 -58 -107 -16 -19 -32 -15 -32 6 0
15 71 106 83 106 4 0 7 -2 7 -5z m-668 -687 c-11 -18 -36 -60 -56 -93 -33 -56
-94 -120 -104 -110 -10 10 47 98 107 164 35 39 66 71 68 71 3 0 -4 -15 -15
-32z m-202 -268 c-12 -16 -26 -30 -31 -30 -5 0 0 14 13 30 12 17 26 30 31 30
4 0 -1 -13 -13 -30z m-275 -425 c0 -13 -8 -21 -22 -23 -17 -3 -23 2 -23 16 0
10 3 22 7 26 13 13 38 1 38 -19z m-94 -168 c-13 -13 -26 -3 -16 12 3 6 11 8
17 5 6 -4 6 -10 -1 -17z m-171 -143 c0 -8 -4 -14 -10 -14 -5 0 -10 9 -10 21 0
11 5 17 10 14 6 -3 10 -13 10 -21z m-910 -908 c0 -7 -8 -20 -17 -27 -15 -12
-16 -12 -10 4 4 10 7 23 7 28 0 5 5 9 10 9 6 0 10 -6 10 -14z m-195 -173 c0
-37 -4 -58 -13 -61 -16 -5 -52 -75 -52 -102 0 -15 -8 -22 -30 -27 -17 -3 -33
-10 -36 -14 -3 -5 -9 -9 -14 -9 -10 0 65 148 112 223 17 26 31 47 32 47 0 0 1
-26 1 -57z m-165 -274 c0 -5 -18 -29 -40 -53 -22 -24 -40 -49 -40 -57 -1 -8
-15 -30 -32 -49 -17 -19 -28 -27 -24 -17 3 10 6 22 6 27 0 4 15 26 33 48 17
22 43 59 56 81 22 36 41 46 41 20z"/>
<path d="M6757 7540 c-20 -21 -48 -57 -63 -79 -22 -34 -24 -44 -14 -56 7 -8
19 -15 27 -15 18 0 112 81 143 122 l23 31 -24 18 c-35 27 -53 23 -92 -21z"/>
<path d="M7003 7463 c-38 -58 -41 -73 -15 -73 23 0 55 66 50 100 -3 20 -7 16
-35 -27z"/>
<path d="M6559 7280 c-16 -16 -29 -38 -29 -49 0 -18 6 -21 43 -21 61 0 81 16
67 57 -16 44 -46 49 -81 13z"/>
<path d="M6466 7104 c-82 -106 -94 -163 -35 -164 24 0 42 20 91 100 59 97 65
116 39 129 -11 6 -23 11 -28 11 -5 0 -35 -34 -67 -76z"/>
<path d="M6210 6750 c0 -7 10 -13 182 -94 132 -63 149 -61 76 6 -65 58 -155
100 -211 97 -26 -2 -47 -6 -47 -9z"/>
<path d="M5967 6446 c-12 -13 -66 -85 -120 -160 -99 -138 -165 -251 -154 -262
14 -14 39 9 83 78 26 40 91 132 144 203 53 72 99 138 103 148 10 26 -29 22
-56 -7z"/>
<path d="M6188 6338 c-19 -15 -134 -190 -172 -262 -14 -27 -26 -58 -26 -70 1
-33 66 47 158 194 102 161 96 150 75 150 -11 0 -26 -6 -35 -12z"/>
<path d="M5439 5732 c-71 -93 -222 -320 -258 -387 -12 -22 -41 -71 -66 -110
-69 -107 -81 -133 -67 -147 20 -20 43 2 80 73 69 134 262 428 388 590 44 58
46 69 10 69 -15 0 -41 -27 -87 -88z"/>
<path d="M5643 5758 c-31 -34 -317 -478 -360 -560 -22 -41 -18 -69 7 -53 11 7
317 465 370 554 16 29 30 58 30 66 0 22 -24 18 -47 -7z"/>
<path d="M5703 5640 c-59 -63 -263 -385 -263 -417 0 -13 6 -23 14 -23 12 0 93
115 201 285 21 33 52 83 70 110 63 98 52 122 -22 45z"/>
<path d="M5764 5553 c-82 -108 -215 -317 -212 -332 7 -33 29 -18 79 53 30 41
68 94 84 117 42 59 125 202 125 217 0 28 -28 8 -76 -55z"/>
<path d="M5863 5533 c-31 -49 -69 -102 -83 -119 -80 -93 -176 -284 -143 -284
14 0 75 76 121 149 20 32 55 85 76 118 139 207 147 223 106 223 -15 0 -37 -25
-77 -87z"/>
<path d="M5387 5138 c-28 -46 -67 -121 -67 -129 0 -5 10 -9 23 -9 15 1 31 15
52 48 57 89 58 94 43 103 -22 14 -37 10 -51 -13z"/>
<path d="M5480 5082 c-69 -105 -215 -341 -228 -370 -15 -31 -19 -33 -54 -27
-47 8 -60 -13 -35 -58 17 -28 16 -31 -4 -64 -14 -22 -18 -38 -12 -44 17 -17
109 98 250 311 142 215 159 250 131 278 -17 17 -20 16 -48 -26z"/>
<path d="M5156 4998 c-8 -13 -18 -35 -21 -50 -14 -56 53 -43 84 16 13 24 13
28 -5 41 -27 20 -41 18 -58 -7z"/>
<path d="M4968 4643 c-9 -10 -46 -65 -83 -123 -37 -58 -93 -138 -123 -179 -51
-70 -54 -75 -36 -88 16 -12 21 -10 40 9 34 35 263 382 257 390 -8 14 -40 8
-55 -9z"/>
<path d="M4991 4385 c-29 -41 -58 -90 -66 -109 -14 -33 -14 -36 5 -46 18 -10
27 0 87 92 81 123 79 118 62 129 -26 16 -37 9 -88 -66z"/>
<path d="M4700 4133 c-67 -94 -128 -190 -130 -204 -4 -27 0 -39 14 -39 16 0
186 251 186 275 0 31 -37 14 -70 -32z"/>
<path d="M4301 4004 c-27 -35 -26 -48 5 -69 30 -19 45 -11 64 35 24 57 -31 83
-69 34z"/>
<path d="M4135 3753 c-33 -59 -93 -157 -132 -218 -40 -60 -73 -113 -73 -117 0
-7 40 -22 45 -16 26 27 275 416 275 428 0 17 -19 30 -43 30 -7 0 -39 -49 -72
-107z"/>
<path d="M4467 3743 c-121 -160 -163 -243 -122 -243 14 0 20 7 70 80 13 19 50
74 83 122 33 48 57 90 54 93 -17 16 -46 -1 -85 -52z"/>
<path d="M4335 3712 c-114 -110 -137 -152 -86 -152 14 0 42 28 86 87 60 80 77
113 57 113 -4 0 -30 -22 -57 -48z"/>
<path d="M4509 3653 c-81 -109 -95 -131 -101 -165 -4 -24 -2 -28 17 -28 28 0
41 16 100 120 26 47 59 97 72 112 14 14 22 31 19 37 -17 26 -45 6 -107 -76z"/>
<path d="M4206 3432 c-8 -15 -35 -55 -59 -88 -53 -70 -71 -118 -41 -112 10 2
34 26 54 54 19 28 49 70 67 93 32 42 34 65 7 75 -8 3 -19 -5 -28 -22z"/>
<path d="M4232 3336 c-28 -40 -69 -105 -90 -143 -21 -38 -58 -93 -82 -123 -45
-58 -96 -157 -86 -168 15 -14 103 93 211 255 132 198 141 216 119 238 -9 8
-16 15 -17 15 -1 0 -26 -33 -55 -74z"/>
<path d="M3815 3182 c-11 -14 -38 -58 -61 -97 -83 -141 -178 -291 -221 -348
-44 -58 -47 -77 -14 -77 23 0 75 71 218 300 43 70 133 234 133 244 0 17 -38 2
-55 -22z"/>
<path d="M3881 3108 c-28 -46 -103 -164 -166 -263 -115 -181 -134 -225 -95
-225 14 0 30 16 50 48 16 26 50 80 76 121 26 41 66 114 90 162 25 48 51 92 59
99 19 16 66 120 59 131 -11 18 -23 7 -73 -73z"/>
<path d="M3397 2508 c-72 -102 -81 -127 -40 -114 16 5 85 99 112 154 10 19 9
22 -8 22 -12 0 -35 -22 -64 -62z"/>
<path d="M3660 9194 c-210 -25 -549 -133 -781 -249 -181 -91 -479 -268 -609
-364 -124 -91 -132 -96 -208 -141 -41 -24 -76 -50 -79 -57 -4 -9 -14 -12 -32
-8 -57 12 -116 -27 -263 -178 -76 -78 -141 -153 -145 -167 -3 -14 -13 -34 -22
-45 -25 -30 -61 -100 -61 -119 0 -8 -39 -53 -86 -98 -137 -131 -234 -253 -287
-363 -26 -53 -65 -120 -86 -148 -73 -98 -192 -343 -204 -422 -2 -16 -12 -48
-21 -69 -39 -94 -99 -334 -98 -391 0 -16 -3 -32 -8 -35 -20 -12 -32 -157 -26
-300 9 -217 16 -255 66 -380 12 -30 23 -67 24 -81 3 -35 32 -79 54 -80 9 -1 4
-4 -13 -8 -26 -5 -30 -11 -33 -42 -4 -43 20 -69 46 -52 13 7 23 5 41 -13 23
-22 23 -24 8 -48 -16 -24 -15 -26 16 -73 36 -53 61 -65 70 -33 7 27 21 20 68
-34 l34 -39 -23 -15 c-26 -17 -29 -54 -6 -73 8 -7 22 -26 31 -43 21 -41 53
-76 71 -76 12 0 13 9 9 45 -4 25 -3 45 1 45 5 0 23 -16 42 -35 39 -40 87 -65
125 -65 25 0 27 -2 21 -31 -8 -42 29 -79 79 -79 20 0 54 -9 76 -21 27 -13 50
-18 69 -14 16 4 43 0 65 -9 21 -9 65 -18 100 -20 34 -2 67 -6 72 -9 7 -4 7
-24 0 -57 -11 -57 -9 -61 20 -54 13 4 24 19 32 45 15 48 40 64 76 47 25 -11
27 -15 21 -59 -11 -80 24 -78 54 4 14 38 19 42 49 40 18 0 35 -4 38 -7 3 -3
-5 -43 -17 -88 -33 -123 -34 -134 -16 -141 19 -8 23 0 66 123 18 52 37 100 41
106 5 5 24 8 44 6 42 -5 43 -12 15 -100 -24 -76 -25 -102 -5 -102 16 0 54 69
79 147 17 53 30 64 62 58 11 -2 25 -4 32 -4 20 -1 15 -30 -28 -155 -31 -91
-38 -122 -29 -132 6 -8 16 -14 21 -14 13 0 61 109 93 213 15 48 30 88 34 88 3
1 18 2 34 3 35 2 35 -10 -4 -118 -18 -48 -29 -89 -26 -92 3 -3 15 -3 26 1 24
7 46 48 81 145 29 82 36 90 71 90 34 0 35 -8 10 -75 -26 -68 -30 -119 -11
-122 10 -2 24 19 43 70 45 119 60 137 106 137 l40 0 -36 -101 c-30 -84 -34
-102 -22 -110 8 -5 18 -8 22 -6 8 2 69 137 88 194 12 37 43 63 75 63 20 0 21
-4 14 -33 -4 -18 -21 -70 -38 -115 -37 -95 -38 -102 -13 -102 27 0 34 12 87
148 44 114 69 152 92 138 5 -3 -5 -46 -21 -96 -29 -91 -28 -117 5 -105 8 3 34
55 57 115 42 109 65 140 104 140 15 0 17 -4 11 -17 -17 -38 -84 -247 -84 -262
0 -9 -10 -32 -23 -51 -13 -19 -29 -50 -37 -68 -11 -29 -11 -35 4 -50 16 -16
19 -15 41 13 14 16 29 55 35 85 10 51 38 120 74 180 9 14 37 73 65 132 47 103
51 108 101 133 28 14 55 25 60 23 9 -3 -25 -100 -86 -244 -37 -87 -42 -119
-21 -127 23 -9 32 4 67 88 88 217 104 253 126 298 18 35 35 53 60 63 35 15 54
12 54 -8 0 -6 -21 -59 -46 -118 -48 -112 -52 -145 -20 -145 15 0 33 33 86 165
53 130 74 169 96 185 16 11 43 32 59 47 16 15 30 26 32 24 3 -3 -17 -56 -63
-170 -18 -45 -21 -62 -13 -73 6 -7 15 -13 18 -13 11 0 90 142 112 202 32 86
107 183 126 164 7 -7 -83 -228 -129 -318 -39 -74 -42 -98 -13 -98 23 0 101
127 134 219 33 90 122 265 150 294 18 18 61 31 61 18 0 -4 -11 -36 -26 -70
-27 -69 -28 -104 -2 -109 11 -2 26 18 52 70 57 118 130 235 134 215 2 -10 -2
-25 -10 -34 -11 -14 -11 -16 0 -12 8 3 32 47 54 99 25 58 55 110 77 132 39 41
58 49 41 19 -5 -11 -10 -30 -10 -43 0 -13 -7 -33 -15 -45 -15 -21 -12 -27 22
-47 9 -5 36 42 89 151 41 87 93 185 114 218 21 33 53 97 70 142 32 84 53 113
65 93 4 -6 -3 -25 -14 -43 -24 -38 -29 -48 -69 -149 -16 -42 -28 -79 -24 -82
3 -3 16 -6 28 -6 19 0 31 16 69 97 26 54 58 131 71 173 42 129 66 190 76 190
6 0 8 -12 5 -29 -6 -28 7 -51 28 -51 6 0 24 30 39 68 16 37 42 94 57 127 15
33 39 87 53 119 28 64 66 129 72 124 6 -7 -96 -275 -126 -330 -14 -25 -13 -28
15 -28 27 0 26 -1 115 200 20 47 85 191 143 321 107 240 147 348 147 399 0 15
6 46 14 68 8 23 15 49 14 59 0 19 2 37 25 213 9 63 15 122 15 130 0 8 4 60 10
114 9 90 8 103 -10 144 -11 25 -24 76 -29 114 -21 166 -69 256 -111 207 -17
-20 -18 -19 -43 22 -21 31 -24 44 -14 49 19 12 -106 138 -159 161 -141 61
-189 71 -317 67 -89 -2 -127 -7 -140 -18 -15 -12 -17 -12 -10 -1 6 11 4 13 -9
8 -10 -4 -24 -7 -31 -7 -8 0 -20 -6 -27 -13 -7 -7 -38 -22 -68 -34 -93 -35
-202 -86 -265 -124 -119 -71 -191 -98 -301 -114 -52 -8 -104 13 -123 48 -20
37 1 105 49 160 44 49 104 182 119 259 12 66 0 175 -23 210 -21 32 -128 111
-164 120 -32 9 -293 18 -342 12z m434 -90 c9 -3 16 -10 16 -16 0 -14 -43 -5
-48 10 -4 13 7 15 32 6z m-158 -51 c66 -30 104 -76 104 -127 0 -13 -27 -78
-59 -143 -70 -139 -101 -227 -101 -284 0 -50 26 -156 46 -186 34 -54 156 -87
262 -72 77 11 218 69 287 118 48 34 120 76 252 148 70 38 234 83 303 83 101 0
228 -53 314 -131 117 -107 196 -321 196 -534 0 -104 -5 -126 -26 -118 -15 6
-54 -23 -54 -39 0 -5 -13 -26 -29 -46 -15 -20 -63 -103 -105 -185 -63 -120
-74 -148 -62 -153 36 -14 35 -16 189 261 44 79 63 104 65 89 4 -24 -29 -160
-58 -237 -10 -29 -26 -79 -36 -112 -9 -33 -30 -88 -46 -122 -17 -35 -31 -80
-32 -102 -1 -27 -16 -59 -48 -107 -25 -38 -63 -98 -85 -134 -244 -400 -371
-577 -535 -746 -97 -99 -138 -134 -168 -144 -23 -8 -56 -31 -77 -53 -29 -33
-34 -45 -30 -72 4 -24 0 -41 -16 -62 -19 -25 -142 -137 -199 -182 -20 -15 70
214 101 258 40 56 102 184 99 204 -5 37 -26 29 -54 -20 -14 -26 -42 -74 -61
-105 -56 -95 -163 -310 -163 -329 0 -10 7 -22 15 -27 35 -19 -185 -189 -375
-292 -58 -31 -124 -69 -147 -83 -24 -15 -46 -27 -51 -27 -5 0 -37 -18 -72 -41
-89 -57 -383 -180 -397 -165 -2 2 16 54 41 117 56 147 62 174 40 183 -20 8
-28 1 -42 -39 -6 -16 -31 -79 -56 -140 -36 -88 -51 -114 -76 -129 -17 -10 -33
-16 -36 -14 -2 3 12 50 32 104 102 275 104 284 72 284 -22 0 -149 -303 -163
-387 -6 -39 -10 -43 -53 -57 -26 -9 -69 -20 -97 -26 -27 -5 -61 -12 -75 -15
-95 -19 -138 -25 -242 -31 -65 -3 -118 -4 -118 -1 0 4 7 21 15 39 8 18 32 80
54 138 21 58 53 142 70 187 32 86 38 123 20 123 -23 0 -199 -411 -199 -465 l0
-37 -167 6 c-93 3 -179 7 -193 9 -14 2 -61 7 -105 11 -191 18 -294 49 -490
149 -101 51 -134 75 -209 147 -95 91 -146 157 -146 188 0 10 24 75 54 143 30
68 61 147 68 174 6 28 20 61 29 75 9 14 20 36 24 50 4 14 18 41 30 60 52 84
225 452 225 479 0 6 -4 11 -10 11 -5 0 -10 -5 -10 -11 0 -6 -11 -24 -25 -40
-46 -55 -265 -511 -265 -552 0 -9 -11 -28 -24 -44 -13 -15 -47 -80 -76 -143
-29 -63 -55 -117 -57 -120 -7 -8 -43 41 -43 59 0 34 112 294 231 538 38 78 69
146 69 152 0 18 -25 12 -47 -11 -11 -13 -60 -106 -108 -208 -162 -345 -178
-374 -192 -353 -16 20 -29 68 -39 137 -6 46 -6 48 15 41 19 -6 25 2 52 62 51
113 38 182 -17 86 -62 -110 -68 -113 -78 -31 -15 113 -5 388 14 388 5 0 6 9 3
20 -4 16 5 30 36 56 30 26 55 65 91 139 28 56 50 106 50 111 0 5 23 53 50 108
27 54 47 103 44 107 -10 17 -42 9 -57 -14 -8 -12 -26 -54 -40 -92 -14 -39 -50
-122 -79 -185 -30 -63 -60 -126 -66 -140 l-11 -25 0 25 c-5 159 202 666 373
913 33 49 81 121 106 159 24 39 61 89 82 112 l38 41 -14 -40 c-7 -22 -66 -144
-130 -271 -64 -128 -117 -242 -118 -255 -2 -15 3 -24 13 -27 12 -2 51 65 156
270 77 150 146 291 153 313 30 97 101 206 228 350 48 54 50 54 22 -6 -11 -24
-20 -54 -20 -66 0 -12 -8 -27 -18 -32 -18 -9 -249 -430 -284 -516 -42 -102
-30 -113 31 -26 22 33 41 62 41 65 0 4 11 23 23 44 55 86 193 349 211 399 7
21 35 69 62 107 73 101 84 119 84 139 0 22 39 77 55 77 6 0 78 56 160 125 83
68 153 125 157 125 4 0 -4 -25 -18 -55 -27 -58 -25 -75 6 -75 21 0 112 116
149 189 25 48 75 81 85 55 4 -9 15 -14 28 -12 18 2 23 10 23 30 0 32 0 32 178
139 72 44 146 93 162 108 38 36 66 50 201 101 60 22 129 51 154 65 25 13 62
26 83 30 37 7 37 7 27 -19 -18 -49 -43 -91 -85 -146 -23 -30 -45 -69 -48 -87
l-6 -31 40 26 c48 31 159 201 159 243 0 16 7 30 18 34 29 11 102 23 102 16 0
-4 -24 -42 -53 -86 -72 -109 -117 -189 -117 -209 0 -40 39 -5 112 99 103 147
105 151 89 177 -19 30 -3 39 80 44 41 3 97 9 124 13 74 12 172 1 231 -26z
m-2056 -822 c0 -24 -8 -34 -45 -54 -25 -14 -46 -22 -48 -19 -11 20 15 70 45
84 45 23 48 22 48 -11z m3620 -1044 c-26 -69 -40 -81 -29 -24 12 65 28 102 40
90 7 -7 3 -28 -11 -66z m-854 -1178 c3 -6 -10 -27 -30 -47 -28 -29 -36 -33
-36 -18 0 20 37 76 50 76 5 0 12 -5 16 -11z"/>
<path d="M3601 9001 c-48 -52 -172 -262 -169 -286 6 -41 34 -27 75 37 104 164
137 232 131 266 -3 17 -7 15 -37 -17z"/>
<path d="M3742 8963 c-119 -191 -165 -267 -178 -298 -14 -34 -12 -55 5 -55 21
0 217 314 236 378 5 17 2 22 -13 22 -13 0 -31 -17 -50 -47z"/>
<path d="M3803 8883 c-101 -156 -123 -196 -123 -227 0 -22 4 -27 21 -24 16 2
36 28 70 90 27 49 71 122 99 165 38 58 47 79 39 90 -6 7 -17 13 -24 13 -7 0
-44 -48 -82 -107z"/>
<path d="M3973 8942 c-30 -20 -167 -280 -180 -343 -4 -24 -2 -29 13 -29 14 0
40 42 107 173 48 94 87 177 87 184 0 16 -13 23 -27 15z"/>
<path d="M3078 8903 c-11 -3 -22 -21 -28 -46 -20 -78 -54 -152 -81 -178 -27
-26 -149 -227 -149 -247 0 -11 28 -24 39 -17 15 9 105 170 132 235 40 100 57
128 86 147 34 23 59 79 42 99 -6 8 -14 13 -18 13 -3 -1 -14 -3 -23 -6z"/>
<path d="M2857 8763 c-25 -48 -74 -137 -111 -198 -69 -115 -79 -145 -48 -145
33 0 256 360 250 404 -2 13 -11 22 -25 24 -19 3 -29 -10 -66 -85z"/>
<path d="M2653 8658 c-5 -7 -29 -51 -53 -98 -23 -47 -47 -90 -51 -96 -9 -11 8
-34 26 -34 6 0 38 46 70 101 44 77 56 105 48 117 -13 22 -28 25 -40 10z"/>
<path d="M3058 8513 c-25 -38 -48 -76 -51 -85 -6 -16 16 -49 31 -47 13 1 123
179 117 189 -3 5 -16 10 -29 10 -17 0 -34 -17 -68 -67z"/>
<path d="M3771 8534 c-26 -33 -27 -60 -2 -73 34 -19 63 35 45 83 -9 23 -19 20
-43 -10z"/>
<path d="M3293 8530 c-24 -10 -55 -31 -69 -45 -14 -14 -54 -40 -87 -56 -34
-16 -75 -42 -92 -57 -16 -15 -46 -35 -67 -44 -20 -9 -39 -26 -43 -38 -8 -26
10 -83 35 -105 25 -22 39 -12 87 62 37 58 49 68 58 52 4 -6 -2 -20 -13 -32
-29 -31 -52 -90 -45 -115 3 -12 16 -28 29 -37 18 -12 24 -24 24 -53 0 -57 18
-76 66 -69 21 2 50 7 64 11 14 3 36 8 50 12 15 3 41 28 68 66 45 63 65 73 37
18 -21 -41 -16 -54 33 -68 59 -18 91 -15 139 13 44 26 54 52 34 84 -6 10 -1
27 15 52 13 21 28 57 34 81 32 143 -23 215 -174 226 -61 4 -73 8 -94 33 -28
34 -34 35 -89 9z"/>
<path d="M4923 8462 c-71 -96 -223 -334 -223 -348 0 -30 38 -12 72 34 43 57
180 268 203 312 16 30 15 60 -2 60 -4 -1 -27 -26 -50 -58z"/>
<path d="M4769 8418 c-36 -46 -72 -94 -79 -108 -7 -14 -33 -49 -57 -79 -62
-76 -75 -104 -60 -125 18 -25 42 -11 77 45 16 27 50 74 75 105 25 30 57 78 71
107 15 29 35 64 45 79 11 14 19 33 19 42 0 34 -28 13 -91 -66z"/>
<path d="M5038 8463 c-30 -36 -230 -345 -243 -377 -14 -34 -12 -46 10 -46 7 0
40 42 73 93 162 243 212 323 212 335 0 18 -35 15 -52 -5z"/>
<path d="M2344 8378 c-67 -118 -82 -180 -37 -152 23 14 124 186 121 204 -2 8
-12 16 -23 18 -15 2 -29 -14 -61 -70z"/>
<path d="M5138 8408 c-58 -73 -213 -331 -223 -371 -11 -43 25 -33 59 16 68 97
216 352 216 372 0 30 -20 23 -52 -17z"/>
<path d="M4624 8416 c-33 -24 -162 -222 -151 -233 21 -20 113 76 172 178 37
66 28 89 -21 55z"/>
<path d="M5160 8244 c-110 -184 -153 -274 -130 -274 25 0 61 45 132 165 91
155 128 226 122 236 -3 5 -14 9 -24 9 -14 0 -41 -37 -100 -136z"/>
<path d="M2468 8353 c-50 -58 -49 -113 3 -113 13 0 61 100 55 116 -7 19 -40
18 -58 -3z"/>
<path d="M5311 8293 c-28 -23 -181 -301 -181 -330 0 -70 56 -1 157 192 37 72
68 134 68 139 0 17 -22 17 -44 -1z"/>
<path d="M3689 8217 c-27 -14 -38 -60 -18 -83 16 -20 26 -18 54 11 46 45 19
99 -36 72z"/>
<path d="M5365 8193 c-47 -68 -143 -247 -147 -273 -2 -19 2 -26 18 -28 18 -3
33 20 100 150 43 84 79 159 79 167 0 29 -25 21 -50 -16z"/>
<path d="M4392 8187 c-45 -48 -74 -147 -43 -147 11 0 81 135 81 156 0 20 -13
17 -38 -9z"/>
<path d="M2360 8151 c-103 -15 -227 -116 -346 -281 -20 -28 -44 -50 -54 -50
-35 0 -58 -32 -63 -91 -8 -86 22 -117 86 -88 20 9 26 20 29 61 6 55 34 101 66
106 21 3 21 3 -4 -52 -32 -71 -29 -95 18 -121 28 -16 35 -24 28 -35 -17 -27
-11 -59 15 -76 22 -14 30 -14 82 -1 l58 14 7 -30 c16 -77 94 -74 203 8 33 25
78 50 100 55 83 21 105 37 133 98 23 50 27 70 27 159 0 114 -10 137 -62 138
-22 0 -29 5 -31 25 -9 76 -56 117 -118 105 -29 -5 -34 -3 -34 14 0 46 -36 57
-140 42z m-70 -123 c0 -17 -68 -63 -78 -53 -7 7 55 65 70 65 4 0 8 -6 8 -12z
m176 -84 c-3 -9 -6 -18 -6 -20 0 -2 -7 -4 -15 -4 -18 0 -19 12 -3 28 17 17 31
15 24 -4z m-143 -29 c-6 -17 -25 -15 -31 3 -2 7 5 12 17 12 14 0 19 -5 14 -15z
m5 -233 c-26 -46 -58 -68 -58 -40 0 8 14 36 31 62 23 37 33 46 42 37 9 -9 6
-23 -15 -59z m324 41 c6 -25 -1 -43 -17 -43 -20 0 -24 12 -14 38 10 26 25 29
31 5z m-192 -33 c0 -6 -4 -18 -8 -28 -5 -9 -17 -35 -28 -57 -20 -42 -46 -53
-52 -22 -4 22 57 117 76 117 6 0 12 -5 12 -10z"/>
<path d="M5404 8054 c-66 -113 -85 -198 -36 -168 17 11 87 145 98 189 5 21 3
25 -14 25 -14 0 -30 -15 -48 -46z"/>
<path d="M1861 8021 c-12 -16 -21 -33 -21 -38 0 -4 -27 -55 -60 -112 -97 -166
-173 -318 -166 -330 14 -22 36 -10 62 37 15 26 64 110 109 187 119 202 142
250 126 269 -19 22 -27 20 -50 -13z"/>
<path d="M3553 7883 c-119 -184 -196 -312 -292 -486 -85 -153 -101 -197 -71
-197 13 0 102 138 190 294 37 67 116 199 174 295 81 134 103 177 95 188 -6 7
-15 13 -19 13 -4 0 -38 -48 -77 -107z"/>
<path d="M3355 7893 c-61 -89 -220 -349 -280 -458 -18 -33 -35 -76 -39 -95
l-5 -35 32 36 c17 20 59 79 91 130 33 52 105 166 162 254 118 186 137 222 130
241 -11 29 -33 12 -91 -73z"/>
<path d="M3756 7893 c-34 -47 -153 -240 -196 -318 -12 -22 -28 -47 -34 -55
-13 -15 -87 -147 -165 -292 -22 -42 -41 -88 -41 -101 0 -13 -8 -35 -19 -48
-10 -13 -40 -62 -65 -109 -26 -47 -57 -98 -70 -115 -12 -16 -43 -66 -68 -110
-130 -228 -143 -265 -98 -265 14 0 31 26 64 97 26 53 71 133 101 179 30 45 93
156 139 246 196 386 261 506 330 611 139 213 188 297 182 312 -9 25 -24 17
-60 -32z"/>
<path d="M3138 7838 c-17 -14 -112 -165 -192 -307 -54 -94 -426 -835 -426
-847 0 -4 -16 -41 -36 -81 -37 -73 -38 -97 -6 -77 23 15 62 87 167 309 119
253 359 705 489 920 46 77 48 117 4 83z"/>
<path d="M3828 7724 c-166 -268 -308 -511 -308 -526 0 -25 17 -23 43 6 32 34
327 529 327 548 0 9 -6 18 -14 21 -9 4 -26 -13 -48 -49z"/>
<path d="M5292 7718 c-39 -70 -104 -185 -128 -225 -18 -31 -18 -33 -1 -50 18
-17 19 -17 38 6 11 13 36 54 56 90 19 36 53 97 74 135 46 80 48 96 15 96 -19
0 -31 -12 -54 -52z"/>
<path d="M4228 7727 c-15 -12 -40 -48 -57 -79 -17 -32 -50 -88 -75 -125 -79
-122 -216 -352 -236 -395 -21 -46 -26 -98 -10 -98 12 0 35 36 122 190 36 63
95 160 130 215 36 55 86 139 111 185 68 128 72 155 15 107z"/>
<path d="M4596 7720 c-56 -28 -80 -53 -147 -153 -69 -103 -81 -141 -70 -220 8
-59 28 -86 63 -87 10 0 25 -11 34 -25 18 -27 40 -31 79 -13 21 10 28 8 48 -10
29 -27 152 -41 188 -21 47 25 157 132 172 168 20 47 37 131 37 185 0 43 -21
76 -49 76 -6 0 -17 11 -23 26 -8 16 -36 37 -83 60 -75 36 -95 41 -95 24 0 -5
-13 -10 -30 -10 -16 0 -30 5 -30 10 0 16 -52 11 -94 -10z m331 -206 c-9 -9
-28 6 -21 18 4 6 10 6 17 -1 6 -6 8 -13 4 -17z m-259 -6 c-8 -12 -20 -24 -27
-26 -9 -3 -7 5 4 22 10 14 22 26 27 26 6 0 4 -10 -4 -22z m-140 -148 c10 -16
8 -24 -12 -47 -27 -31 -40 -26 -51 18 -4 18 -1 31 10 42 18 19 35 15 53 -13z
m62 -25 c0 -8 -4 -15 -9 -15 -5 0 -11 7 -15 15 -3 9 0 15 9 15 8 0 15 -7 15
-15z m205 -45 c3 -5 -1 -10 -9 -10 -9 0 -16 5 -16 10 0 6 4 10 9 10 6 0 13 -4
16 -10z"/>
<path d="M2787 7638 c-172 -268 -617 -1093 -603 -1117 4 -6 13 -11 19 -11 7 0
63 98 126 218 63 119 133 251 156 292 174 307 222 391 294 515 44 77 81 147
81 157 0 41 -23 23 -73 -54z"/>
<path d="M3937 7578 c-49 -74 -157 -270 -157 -285 0 -19 25 -16 42 5 34 40
179 294 176 309 -6 32 -26 23 -61 -29z"/>
<path d="M4308 7598 c-15 -12 -37 -49 -100 -167 -30 -57 -37 -101 -15 -101 15
0 108 151 133 217 19 48 10 73 -18 51z"/>
<path d="M2469 7403 c-30 -59 -72 -137 -93 -173 -41 -66 -76 -148 -76 -175 0
-24 26 -17 38 11 7 14 36 62 66 107 66 100 156 271 156 295 0 18 -18 42 -31
42 -3 0 -30 -48 -60 -107z"/>
<path d="M1570 7446 c0 -9 5 -16 10 -16 6 0 10 4 10 9 0 6 -4 13 -10 16 -5 3
-10 -1 -10 -9z"/>
<path d="M1645 7325 c-18 -17 -25 -35 -25 -64 0 -24 -7 -46 -17 -57 -16 -16
-18 -14 -34 23 -24 57 -44 61 -74 13 -15 -23 -33 -40 -44 -40 -22 0 -45 -26
-58 -65 -8 -24 -19 -33 -59 -46 -81 -25 -137 -95 -163 -203 -16 -66 2 -96 58
-96 34 0 39 -3 47 -32 8 -27 17 -35 47 -42 29 -7 36 -13 31 -25 -4 -9 -14 -35
-23 -59 -16 -43 -16 -44 8 -63 32 -26 66 -24 89 6 17 21 21 23 32 10 29 -35
110 -5 110 41 0 37 28 97 42 91 7 -2 12 -9 11 -16 -4 -16 43 -43 69 -39 12 2
35 21 53 45 31 43 52 52 73 31 9 -9 18 -9 37 0 29 14 59 74 70 141 4 24 22 69
41 100 19 31 34 69 34 85 0 42 -44 86 -87 86 -18 0 -33 5 -33 10 0 6 4 10 9
10 12 0 39 42 47 75 5 20 4 26 -5 21 -6 -4 -18 0 -27 8 -17 18 -79 22 -89 6
-11 -18 -35 -11 -35 10 0 57 -90 81 -135 35z m228 -275 c-6 -23 -19 -26 -26
-6 -6 16 1 26 19 26 7 0 10 -8 7 -20z m-402 -45 c1 -22 -77 -195 -86 -192 -5
2 -11 16 -13 32 -5 36 65 177 85 173 8 -2 14 -7 14 -13z m-159 -67 c-7 -7 -12
-21 -12 -33 0 -12 -5 -26 -12 -33 -37 -37 -38 21 -1 60 14 15 29 26 32 23 2
-3 -1 -11 -7 -17z m268 -3 c0 -19 -28 -88 -83 -204 l-44 -95 -15 29 c-15 28
-14 32 50 157 59 114 92 156 92 113z m110 -33 c0 -10 -7 -27 -15 -38 -13 -17
-13 -15 -3 19 12 41 18 47 18 19z"/>
<path d="M5108 7223 c-9 -10 -33 -52 -53 -93 -21 -41 -54 -100 -75 -130 -42
-63 -120 -206 -120 -221 0 -6 12 -9 27 -7 24 3 38 21 101 128 97 166 162 295
162 320 0 25 -22 26 -42 3z"/>
<path d="M2932 7174 c-17 -20 -54 -80 -83 -133 -29 -53 -73 -134 -99 -181 -26
-47 -60 -116 -75 -155 -15 -38 -34 -82 -41 -97 -24 -46 -1 -30 35 25 63 95
311 541 311 559 0 27 -16 22 -48 -18z"/>
<path d="M3611 7157 c-42 -62 -188 -328 -193 -352 -2 -12 3 -21 14 -23 12 -2
38 34 96 130 90 150 142 250 142 273 0 29 -29 15 -59 -28z"/>
<path d="M2113 7128 c-15 -24 -85 -155 -156 -293 -71 -137 -144 -279 -163
-314 -36 -67 -44 -111 -20 -111 20 0 66 76 135 221 33 69 85 172 117 230 109
200 154 291 149 300 -13 20 -36 7 -62 -33z"/>
<path d="M5167 7113 c-14 -21 -66 -110 -116 -199 -64 -113 -93 -174 -97 -207
-6 -43 -9 -47 -34 -47 -33 0 -63 -31 -58 -62 5 -36 35 -35 56 4 9 18 31 46 49
63 18 17 54 73 81 125 27 52 79 148 115 213 37 65 67 120 67 122 0 2 -9 9 -20
15 -17 9 -23 5 -43 -27z"/>
<path d="M2998 7063 c-29 -33 -160 -284 -189 -360 -15 -42 -25 -72 -20 -67 53
59 251 398 251 429 0 20 -23 19 -42 -2z"/>
<path d="M3677 6988 c-34 -46 -90 -148 -85 -154 14 -14 58 24 99 86 45 66 46
70 29 85 -17 15 -20 14 -43 -17z"/>
<path d="M4645 6987 c-22 -41 -17 -71 12 -75 16 -2 29 7 50 38 26 41 27 43 8
56 -30 22 -50 17 -70 -19z"/>
<path d="M4853 7008 c-29 -38 -94 -172 -89 -184 10 -25 35 -15 67 29 45 61 71
115 67 140 -3 25 -30 34 -45 15z"/>
<path d="M2508 6928 c-88 -159 -169 -328 -166 -346 9 -46 37 -8 126 168 86
172 118 260 95 260 -5 0 -30 -37 -55 -82z"/>
<path d="M3079 6970 c-14 -19 -48 -75 -74 -125 -27 -49 -66 -121 -87 -160 -41
-76 -48 -108 -22 -103 18 3 101 135 170 271 31 62 44 98 42 120 l-3 32 -26
-35z"/>
<path d="M3782 6918 c-25 -28 -108 -172 -142 -248 -13 -30 -32 -67 -42 -82
-36 -52 -57 -112 -46 -125 22 -27 36 -10 88 100 29 61 83 167 121 234 38 67
69 127 69 133 0 17 -26 11 -48 -12z"/>
<path d="M4131 6929 c-32 -4 -50 -14 -66 -33 -19 -24 -24 -26 -47 -15 -23 10
-31 8 -68 -22 -49 -39 -65 -67 -75 -127 -6 -36 -4 -46 12 -57 15 -12 15 -14 2
-15 -26 0 -47 -32 -54 -82 -11 -76 2 -123 48 -172 56 -60 75 -64 122 -26 45
36 78 39 92 8 9 -21 17 -23 77 -22 60 0 68 -2 93 -28 15 -15 36 -28 47 -28 70
0 217 118 257 205 29 63 25 98 -17 135 l-36 31 22 24 c20 21 21 30 15 82 -9
82 -15 88 -77 88 -44 1 -58 5 -83 29 -25 23 -36 27 -67 23 -21 -3 -40 -1 -44
4 -5 9 -79 9 -153 -2z m42 -270 c-10 -16 -29 -40 -43 -52 -23 -20 -23 -20 -7
-1 9 11 17 24 17 29 0 9 40 55 47 55 2 0 -4 -14 -14 -31z m-176 -104 c-29 -81
-35 -90 -60 -93 -24 -3 -27 0 -27 25 0 16 8 40 17 53 35 52 97 122 100 113 2
-5 -12 -49 -30 -98z m491 -22 c3 -17 -11 -33 -59 -70 -67 -52 -82 -57 -87 -30
-4 22 105 128 128 124 8 -1 16 -12 18 -24z"/>
<path d="M2138 6733 c-24 -28 -118 -208 -118 -226 0 -24 20 -31 37 -14 17 17
113 223 113 243 0 19 -14 17 -32 -3z"/>
<path d="M4756 6694 c-20 -20 -21 -60 -1 -68 17 -6 55 26 55 47 0 14 -19 37
-31 37 -4 0 -15 -7 -23 -16z"/>
<path d="M1069 6633 c-35 -37 -72 -105 -159 -292 -57 -121 -69 -155 -59 -162
27 -17 36 -8 69 64 18 39 66 140 107 222 45 91 74 160 71 174 -3 23 -3 22 -29
-6z"/>
<path d="M3262 6587 c-50 -68 -62 -90 -62 -120 0 -28 23 -42 39 -23 10 12 91
172 91 180 0 2 -7 6 -15 10 -10 3 -28 -12 -53 -47z"/>
<path d="M3400 6525 c-52 -97 -59 -127 -27 -133 13 -3 29 21 67 99 55 113 59
129 31 129 -14 0 -33 -26 -71 -95z"/>
<path d="M1680 6583 c-9 -2 -33 -38 -54 -80 -33 -67 -36 -78 -22 -91 24 -25
41 -8 74 78 41 104 41 104 2 93z"/>
<path d="M1132 6493 c-33 -79 -35 -92 -18 -99 23 -9 38 7 71 72 23 46 26 57
14 65 -30 19 -47 9 -67 -38z"/>
<path d="M4637 6441 c-22 -38 -22 -58 2 -70 20 -11 37 2 60 47 10 18 10 27 0
38 -18 22 -43 16 -62 -15z"/>
<path d="M2516 6418 c-8 -13 -24 -47 -36 -77 -12 -30 -41 -94 -66 -143 -51
-102 -55 -128 -20 -128 19 0 28 11 51 63 15 34 49 109 76 167 54 117 56 125
33 134 -22 8 -22 8 -38 -16z"/>
<path d="M1919 6386 c-234 -49 -445 -256 -489 -483 -19 -97 15 -214 76 -262
105 -83 330 -47 499 79 162 122 284 305 285 428 1 177 -162 281 -371 238z
m214 -212 c26 -20 47 -44 47 -53 0 -41 -59 -131 -144 -219 -74 -76 -104 -100
-170 -133 -142 -69 -250 -63 -276 15 -6 19 -8 47 -4 62 18 76 136 221 195 239
13 4 31 13 39 20 19 17 139 85 149 85 4 0 13 -11 19 -25 14 -29 30 -25 57 15
11 17 25 30 31 30 6 0 32 -16 57 -36z m-365 4 c-6 -18 -28 -21 -28 -4 0 9 7
16 16 16 9 0 14 -5 12 -12z"/>
<path d="M1007 6263 c-30 -44 -61 -114 -72 -161 -6 -28 -4 -32 15 -32 17 0 29
18 61 88 22 48 43 99 46 115 8 40 -19 35 -50 -10z"/>
<path d="M3338 6255 c-3 -4 -28 -8 -55 -10 -26 -1 -56 -3 -65 -4 -9 0 -35 -18
-57 -40 -22 -21 -41 -35 -43 -31 -7 18 -99 -11 -148 -46 -56 -40 -70 -60 -70
-98 0 -19 7 -27 25 -32 14 -3 25 -7 25 -8 0 -1 -9 -27 -20 -59 -22 -62 -26
-159 -9 -220 12 -44 39 -65 92 -69 l37 -3 29 80 c45 125 82 198 94 186 7 -7 1
-38 -22 -105 -37 -107 -38 -149 -3 -154 14 -2 24 3 28 15 37 119 84 214 84
169 0 -10 -12 -56 -26 -102 -25 -79 -25 -85 -10 -109 21 -31 55 -40 100 -25
48 16 60 35 106 175 49 152 50 155 61 155 17 0 9 -35 -21 -98 -17 -35 -30 -69
-30 -76 0 -6 12 -27 28 -45 26 -32 29 -33 67 -22 57 15 124 86 141 148 7 26
20 66 28 88 16 46 8 70 -30 87 -21 10 -24 17 -19 37 20 81 20 85 -33 132 -32
29 -69 51 -106 62 -61 19 -167 32 -178 22z m146 -132 c-9 -37 -22 -50 -29 -30
-7 17 11 57 26 57 5 0 7 -12 3 -27z m-104 9 c0 -5 -7 -17 -16 -28 -14 -17 -15
-17 -10 -1 3 10 6 23 6 28 0 5 5 9 10 9 6 0 10 -4 10 -8z m-110 -41 c0 -5 -9
-19 -20 -32 -21 -26 -27 -11 -10 22 11 19 30 26 30 10z m-180 -163 c-18 -35
-39 -70 -46 -78 -12 -12 -14 -12 -14 3 0 34 75 155 87 143 4 -3 -9 -34 -27
-68z m279 -134 c-38 -121 -45 -135 -64 -128 -21 8 -19 22 15 100 79 179 102
192 49 28z m228 80 c-7 -39 -32 -74 -54 -74 -18 0 -17 12 9 65 27 56 53 62 45
9z"/>
<path d="M4483 6224 c-20 -32 -8 -59 28 -59 32 0 59 46 40 69 -20 24 -48 19
-68 -10z"/>
<path d="M2575 6193 c-28 -66 -29 -80 -5 -93 12 -6 23 -10 24 -8 26 32 56 87
56 100 0 17 -28 38 -49 38 -6 0 -18 -17 -26 -37z"/>
<path d="M3862 6153 c-32 -47 -36 -70 -12 -83 29 -15 46 -7 65 31 34 65 -12
109 -53 52z"/>
<path d="M4007 6043 c-64 -100 -67 -107 -67 -160 l1 -48 19 23 c33 40 122 211
118 229 -7 35 -29 22 -71 -44z"/>
<path d="M2511 6071 c-29 -29 -38 -88 -17 -109 16 -16 19 -15 37 6 10 13 24
42 31 64 10 33 9 41 -3 49 -20 13 -27 11 -48 -10z"/>
<path d="M4062 5862 c-74 -148 -98 -217 -81 -228 19 -12 43 24 126 189 86 172
89 187 43 187 -9 0 -43 -56 -88 -148z"/>
<path d="M1298 5970 c-24 -35 -109 -241 -105 -253 1 -5 -9 -22 -24 -38 -33
-35 -163 -325 -155 -345 11 -30 41 -8 73 51 38 71 116 287 116 321 0 13 3 24
7 24 4 0 23 24 43 54 38 57 71 151 65 188 l-3 23 -17 -25z"/>
<path d="M3887 5770 c-14 -16 -40 -67 -57 -112 -18 -46 -45 -112 -61 -148 -31
-68 -31 -90 -1 -90 13 0 27 20 50 73 75 174 122 289 122 297 0 20 -29 9 -53
-20z"/>
<path d="M3745 5740 c-31 -49 -127 -250 -167 -348 -23 -58 -27 -76 -17 -88 6
-8 17 -14 24 -14 12 0 99 197 166 379 44 117 42 111 29 111 -5 0 -21 -18 -35
-40z"/>
<path d="M2131 5617 c-185 -381 -281 -597 -281 -632 0 -23 38 -18 51 7 12 22
41 87 171 383 159 361 157 355 131 355 -13 -1 -33 -32 -72 -113z"/>
<path d="M2282 5708 c-15 -18 -107 -228 -229 -517 -76 -182 -84 -211 -57 -211
21 1 70 98 153 310 27 69 77 189 110 268 34 79 59 147 56 153 -8 13 -21 11
-33 -3z"/>
<path d="M2374 5688 c-61 -118 -257 -592 -278 -674 -13 -50 -13 -54 3 -54 19
0 39 39 96 190 20 52 56 140 80 195 82 188 152 364 147 370 -13 13 -33 2 -48
-27z"/>
<path d="M2504 5688 c-31 -33 -92 -159 -219 -448 -121 -276 -134 -320 -96
-320 25 0 36 16 54 75 13 46 221 543 268 642 27 56 23 84 -7 51z"/>
<path d="M2654 5644 c-9 -14 -27 -62 -39 -107 -13 -45 -59 -167 -102 -272
-100 -239 -118 -289 -110 -309 9 -22 47 -21 47 2 0 9 33 98 72 197 92 233 167
453 168 488 0 34 -14 35 -36 1z"/>
<path d="M3572 5618 c2 -6 10 -14 16 -16 7 -2 10 2 6 12 -7 18 -28 22 -22 4z"/>
<path d="M1262 5608 c-43 -54 -168 -349 -156 -369 13 -22 36 -4 63 49 43 86
131 298 131 316 0 19 -23 21 -38 4z"/>
<path d="M1936 5467 c-196 -410 -241 -532 -197 -532 13 0 116 215 198 410 14
33 36 83 49 111 27 57 30 86 11 102 -10 8 -24 -12 -61 -91z"/>
<path d="M1348 5513 c-9 -10 -23 -33 -33 -52 -15 -30 -15 -35 -2 -48 19 -20
33 -11 57 37 33 65 18 108 -22 63z"/>
<path d="M3484 5463 c-44 -77 -83 -170 -84 -195 0 -27 26 -21 48 10 21 30 87
182 97 225 13 53 -22 30 -61 -40z"/>
<path d="M2827 5447 c-49 -98 -165 -400 -169 -440 -2 -26 1 -32 16 -32 13 0
25 17 43 65 14 36 61 154 104 263 44 108 79 202 79 207 0 6 -8 10 -18 10 -13
0 -30 -22 -55 -73z"/>
<path d="M1825 5478 c-47 -56 -205 -397 -221 -478 -6 -26 -4 -30 14 -30 26 0
28 4 140 266 78 183 111 274 98 274 -2 0 -16 -14 -31 -32z"/>
<path d="M2696 5419 c-115 -244 -180 -439 -146 -439 17 0 39 43 91 176 79 201
122 335 110 347 -7 7 -24 -20 -55 -84z"/>
<path d="M1517 5368 c-61 -116 -107 -226 -107 -258 0 -36 33 -19 57 30 56 112
142 314 137 322 -15 23 -37 -1 -87 -94z"/>
<path d="M2911 5362 c-53 -113 -122 -314 -111 -326 16 -16 37 2 60 51 30 62
120 322 120 345 0 42 -30 12 -69 -70z"/>
<path d="M3290 5335 c-50 -105 -59 -138 -39 -150 19 -12 46 25 78 106 42 105
47 134 27 142 -12 5 -27 -17 -66 -98z"/>
<path d="M1623 5342 c-52 -97 -133 -286 -133 -311 0 -28 27 -34 44 -9 19 26
152 333 161 371 6 22 4 27 -11 27 -13 0 -32 -24 -61 -78z"/>
<path d="M1253 5341 c-14 -9 -55 -141 -49 -157 8 -21 46 -18 46 4 0 9 11 38
25 64 14 26 25 56 25 66 0 20 -30 35 -47 23z"/>
<path d="M6908 8863 c-28 -32 -37 -57 -27 -76 17 -29 44 -20 68 23 18 33 20
44 11 55 -16 20 -34 19 -52 -2z"/>
<path d="M8614 8684 c-25 -52 -25 -57 -10 -72 16 -16 18 -15 36 8 23 31 44 95
36 109 -15 24 -37 8 -62 -45z"/>
<path d="M8687 8605 c-20 -42 -37 -82 -37 -89 0 -12 20 -26 36 -26 2 0 22 36
44 81 33 64 39 84 29 95 -21 26 -34 15 -72 -61z"/>
<path d="M6194 8462 c-6 -4 -16 -17 -23 -29 -13 -26 1 -73 23 -73 18 0 56 47
56 69 0 31 -31 50 -56 33z"/>
<path d="M8603 8404 c-3 -8 0 -21 6 -27 14 -14 44 2 49 27 5 22 -46 22 -55 0z"/>
<path d="M8535 8234 c-23 -35 -25 -77 -3 -82 19 -4 74 81 63 98 -11 18 -42 10
-60 -16z"/>
<path d="M6290 8223 c-24 -30 -22 -47 6 -51 14 -2 24 6 32 23 26 57 0 76 -38
28z"/>
<path d="M8466 8085 c-25 -25 -30 -56 -11 -74 15 -15 17 -15 31 3 16 22 19 72
5 81 -5 3 -16 -2 -25 -10z"/>
<path d="M5716 7753 c-17 -58 -17 -58 5 -76 29 -23 44 -9 64 56 12 41 12 49
-1 62 -30 30 -49 18 -68 -42z"/>
<path d="M5692 7483 c-22 -75 -25 -113 -11 -113 24 0 34 13 58 68 25 61 22 82
-12 82 -19 0 -26 -8 -35 -37z"/>
<path d="M8081 7463 c-23 -20 -62 -94 -54 -105 20 -34 93 40 93 94 0 32 -9 35
-39 11z"/>
<path d="M8570 7343 c-44 -41 -59 -70 -408 -756 -72 -142 -140 -270 -150 -285
-22 -31 -227 -448 -247 -502 -17 -47 -62 -144 -155 -335 -107 -220 -158 -329
-190 -405 -104 -248 -150 -361 -150 -372 0 -7 -12 -38 -26 -67 -13 -30 -26
-71 -28 -91 -5 -62 -45 -110 -132 -159 -43 -25 -122 -72 -174 -106 -148 -96
-187 -116 -242 -129 -48 -10 -53 -15 -88 -73 -44 -72 -132 -182 -187 -235 -72
-70 -234 -151 -264 -132 -6 3 -14 1 -18 -5 -5 -8 -16 -8 -38 0 -20 6 -38 7
-50 1 -10 -5 -47 -6 -83 -2 -36 3 -74 5 -85 4 -11 -1 -42 -5 -70 -8 -27 -2
-81 -12 -120 -21 -38 -9 -86 -19 -105 -22 -19 -3 -44 -14 -55 -24 -11 -10 -41
-29 -65 -42 -34 -18 -44 -29 -43 -45 2 -15 -6 -26 -25 -36 -15 -8 -38 -26 -51
-40 -14 -14 -35 -26 -49 -26 -14 0 -42 -17 -69 -42 -115 -107 -115 -108 -110
-131 6 -20 5 -20 -7 -4 -7 9 -18 17 -23 17 -17 0 -50 -43 -79 -100 -15 -30
-45 -83 -65 -117 -85 -139 -117 -219 -126 -318 -2 -27 -8 -75 -13 -105 -10
-67 2 -307 17 -335 6 -11 41 -60 77 -110 114 -157 105 -148 147 -142 30 4 42
0 60 -19 12 -13 43 -34 68 -45 50 -24 91 -56 91 -72 0 -6 -3 -7 -6 -4 -12 11
-44 -13 -44 -33 0 -23 35 -44 57 -36 12 5 14 15 9 45 -7 46 4 54 51 34 45 -18
70 -16 94 8 27 27 74 38 142 34 43 -2 57 2 80 21 30 26 57 31 57 13 0 -6 -16
-29 -35 -50 -38 -42 -44 -59 -20 -59 20 0 19 -9 -4 -34 -23 -26 -35 -72 -20
-81 17 -11 49 26 60 71 8 29 26 57 62 93 160 157 261 249 269 245 4 -3 -15
-39 -44 -80 -43 -62 -50 -77 -38 -84 36 -23 39 -21 128 108 31 46 61 89 66 97
7 9 5 19 -4 30 -12 14 -18 12 -57 -27 -55 -54 -55 -37 1 39 49 68 90 103 118
103 13 0 25 14 40 48 11 26 30 61 43 77 12 17 30 51 39 76 11 28 28 52 42 60
42 22 234 339 234 385 0 20 149 281 221 386 21 31 39 61 39 65 0 4 27 57 60
117 33 61 60 115 60 122 0 12 91 54 118 54 9 0 30 -5 48 -12 28 -10 36 -9 51
4 10 8 30 18 45 22 31 7 41 -6 53 -69 3 -21 14 -53 23 -70 25 -47 18 -169 -13
-237 -14 -29 -25 -61 -25 -70 0 -9 -12 -34 -26 -55 -14 -21 -44 -76 -66 -123
-75 -160 -88 -185 -139 -270 -28 -47 -95 -168 -148 -270 -54 -102 -119 -217
-144 -257 -119 -185 -245 -485 -266 -633 -23 -165 -23 -231 3 -306 31 -92 48
-123 95 -178 22 -25 42 -54 45 -64 9 -27 103 -81 215 -123 l23 -9 -26 -25
c-28 -26 -30 -33 -17 -53 15 -24 44 -9 53 26 7 27 13 32 39 32 34 0 69 -16 69
-30 0 -6 -9 -19 -20 -30 -24 -24 -26 -68 -5 -76 36 -14 86 52 55 71 -28 18 33
47 69 33 16 -6 37 -4 65 6 37 13 176 29 176 20 0 -2 -15 -10 -32 -17 -18 -8
-39 -21 -46 -30 -11 -13 -9 -19 9 -36 13 -12 28 -21 34 -21 24 0 54 33 71 77
10 27 25 54 34 60 35 29 119 83 128 83 19 0 -6 -61 -52 -130 -52 -78 -63 -109
-45 -121 22 -13 46 8 118 105 38 51 82 103 99 115 17 12 44 44 61 71 17 28 38
53 47 57 8 3 32 31 53 62 22 31 46 63 55 70 24 20 128 158 185 246 61 93 117
237 130 330 5 39 8 174 7 300 l-2 230 -38 75 c-40 77 -70 121 -140 201 -93
106 -120 143 -133 181 -8 25 -10 45 -5 52 5 6 6 20 1 31 -13 33 -10 83 7 123
9 20 27 73 39 117 13 44 32 113 44 152 34 116 30 140 -31 213 -56 66 -60 84
-37 173 6 21 12 50 14 65 11 68 29 118 81 226 31 64 60 119 65 122 12 7 12
-19 0 -32 -14 -14 -31 -84 -20 -84 5 0 9 4 9 9 0 5 8 11 18 13 18 5 174 281
221 390 10 25 32 55 49 66 16 12 64 78 107 146 42 69 83 127 91 130 8 3 43 65
78 138 45 96 79 151 120 198 70 79 149 197 206 308 39 77 70 110 54 60 -10
-35 -137 -285 -178 -353 -36 -60 -49 -62 -20 -2 l15 32 -21 -25 c-11 -14 -34
-54 -52 -90 -17 -36 -43 -83 -57 -105 -14 -22 -46 -80 -72 -130 -26 -49 -52
-89 -58 -87 -6 1 -11 -2 -11 -8 0 -5 7 -10 15 -10 20 0 30 4 28 10 -1 3 12 15
28 25 19 13 47 55 79 117 28 53 56 103 63 110 7 7 20 26 30 41 31 48 29 24 -3
-38 -29 -57 -39 -109 -22 -119 12 -7 66 52 141 153 58 79 62 86 45 98 -10 7
-23 13 -28 13 -12 0 -76 -74 -76 -87 0 -5 -7 -18 -15 -29 -13 -17 -13 -16 -4
18 8 31 235 463 258 492 5 6 32 67 61 136 29 69 63 149 75 179 13 29 29 60 37
68 31 30 17 -44 -21 -120 -21 -41 -44 -92 -51 -113 -7 -21 -49 -112 -93 -202
-74 -151 -88 -201 -55 -190 12 4 64 99 183 335 43 85 59 127 65 178 6 46 15
74 29 89 12 12 21 25 21 29 0 4 15 40 34 81 19 41 52 118 74 172 22 55 83 186
136 293 145 293 161 351 107 377 -37 19 -64 2 -191 -121 -63 -61 -130 -120
-147 -130 -18 -11 -33 -23 -33 -27 0 -9 -67 -76 -111 -109 -48 -37 -316 -306
-412 -414 -172 -193 -277 -295 -305 -295 -16 0 -8 104 14 165 8 22 18 71 23
108 6 38 17 79 25 92 8 13 18 49 21 80 3 31 10 65 15 75 9 17 47 182 54 240 2
14 11 50 19 80 9 30 19 79 23 109 3 30 13 61 20 69 11 10 11 18 3 34 -11 20 4
117 30 199 5 16 4 34 -2 44 -5 10 -6 39 -2 69 21 140 14 186 -34 223 -24 19
-38 16 -71 -14z m-46 -358 c-30 -149 -46 -221 -55 -240 -37 -87 -48 -132 -43
-180 4 -37 1 -63 -14 -101 -11 -28 -38 -122 -60 -210 -42 -165 -123 -437 -147
-489 -32 -73 -121 -309 -140 -372 -15 -51 -28 -69 -55 -75 -8 -2 -23 -12 -33
-23 -19 -21 -19 -17 0 25 40 88 113 296 113 322 0 4 -8 8 -18 8 -12 0 -22 -12
-29 -32 -39 -118 -153 -402 -168 -418 -13 -15 -21 -17 -31 -9 -15 13 -8 36 58
184 25 55 60 144 78 199 33 95 33 99 15 112 -22 16 -27 12 -44 -41 -7 -22 -33
-94 -58 -160 -51 -134 -102 -278 -110 -312 -4 -19 -1 -23 21 -23 14 0 26 -4
26 -9 0 -11 -170 -161 -184 -161 -3 0 2 13 11 28 19 34 12 62 -16 62 -36 0
-55 -66 -27 -89 12 -10 12 -16 0 -40 -13 -25 -102 -91 -124 -91 -6 0 -12 -11
-16 -25 -6 -23 -24 -36 -24 -17 0 14 41 118 84 212 24 52 58 129 74 170 57
141 132 305 151 330 10 14 27 46 39 73 11 26 23 47 25 47 10 0 -15 -84 -28
-94 -22 -18 -88 -237 -75 -250 16 -15 32 9 85 119 69 144 115 260 115 289 0
23 -3 26 -20 21 -18 -6 -16 2 16 72 20 43 61 134 91 203 144 325 219 484 277
590 35 63 105 195 156 293 51 98 94 177 95 175 2 -2 -3 -35 -11 -73z m843
-462 c-87 -142 -112 -181 -127 -198 -9 -11 -39 -61 -64 -112 -26 -51 -69 -120
-95 -155 -26 -35 -55 -77 -64 -94 -23 -45 -165 -234 -176 -234 -20 0 -192
-213 -243 -300 -30 -52 -71 -117 -92 -144 -20 -27 -46 -67 -57 -88 -11 -22
-49 -72 -83 -112 -35 -40 -85 -110 -112 -157 -139 -245 -133 -237 -164 -241
-27 -4 -30 -2 -30 21 0 35 -44 69 -166 127 -55 25 -101 48 -102 49 -18 16 150
212 231 269 26 19 60 49 75 68 25 31 165 175 522 537 74 75 194 202 267 281
193 214 272 288 308 292 25 2 29 7 27 26 -2 16 15 41 70 97 69 70 85 85 75 68z
m-596 -951 c-5 -9 -19 -26 -32 -37 -26 -23 -17 -2 14 33 25 27 31 28 18 4z
m-67 -96 c-3 -9 -10 -16 -15 -16 -5 0 -4 9 3 20 14 22 21 20 12 -4z m-54 -100
c-46 -69 -80 -107 -80 -90 0 5 23 40 50 78 28 38 50 72 50 76 0 4 6 7 13 7 8
0 -5 -29 -33 -71z m-825 -536 c-15 -47 53 -99 81 -63 14 17 15 16 11 -10 -4
-25 3 -33 49 -68 30 -22 59 -37 65 -34 15 10 1 -41 -27 -101 -13 -28 -24 -55
-24 -60 0 -6 -23 -37 -50 -69 -28 -33 -71 -100 -96 -150 -51 -98 -68 -122 -99
-137 -28 -13 -123 -76 -188 -125 -57 -43 -90 -88 -102 -136 -6 -24 -3 -29 26
-41 18 -8 39 -12 46 -9 17 7 16 -2 -3 -32 -18 -28 -44 -118 -44 -156 0 -15 6
-32 14 -38 12 -10 16 -3 26 44 13 62 84 178 113 183 21 4 22 -25 1 -53 -8 -11
-26 -57 -40 -102 -28 -91 -36 -100 -108 -109 -42 -6 -46 -5 -55 19 -5 13 -17
98 -25 188 -15 149 -24 214 -58 392 -6 34 -9 111 -6 187 7 161 20 193 121 283
127 113 251 207 274 207 12 0 34 -5 49 -10 22 -9 29 -8 36 5 13 22 20 19 13
-5z m594 -21 c-12 -21 -14 -22 -17 -6 -6 28 6 53 19 40 8 -8 7 -18 -2 -34z
m-1234 -570 c4 -17 3 -35 -3 -41 -7 -7 -4 -29 10 -67 13 -39 18 -70 14 -100
-4 -25 -1 -49 5 -57 6 -7 9 -23 7 -36 -2 -19 -11 -24 -53 -30 -72 -10 -134
-24 -180 -41 -25 -10 -46 -12 -56 -6 -15 8 -90 124 -104 160 -12 32 107 126
266 211 18 9 37 22 42 27 21 21 45 12 52 -20z m-472 -309 c19 -23 45 -61 58
-85 l23 -43 -46 -69 c-25 -37 -58 -90 -73 -118 -16 -27 -54 -93 -85 -145 -84
-140 -136 -238 -160 -302 l-21 -57 -34 15 c-30 12 -34 12 -29 -1 3 -8 -8 -35
-24 -61 -17 -25 -34 -59 -37 -75 -6 -28 -7 -29 -37 -13 -37 19 -53 14 -62 -21
-5 -21 -2 -33 15 -51 19 -20 20 -24 6 -30 -25 -9 -31 -43 -11 -65 9 -10 22
-19 28 -19 15 1 125 228 133 274 5 32 9 36 27 30 11 -4 23 -8 24 -10 13 -11
-40 -132 -113 -259 -47 -83 -88 -162 -92 -177 -3 -15 -8 -26 -12 -23 -12 7
-30 -10 -59 -52 -105 -157 -148 -215 -182 -246 l-40 -36 -15 30 c-15 29 -9 39
12 18 7 -7 17 -1 32 24 27 44 27 63 -1 78 -19 10 -25 8 -45 -17 -13 -16 -23
-33 -23 -39 0 -5 -21 -23 -46 -39 -25 -16 -50 -39 -56 -50 -6 -15 -20 -23 -41
-24 -17 -2 -35 -6 -40 -11 -11 -11 1 -57 19 -72 21 -17 17 -44 -8 -56 -51 -25
-55 -23 -62 16 -3 21 -13 44 -22 52 -24 20 -47 -15 -39 -61 7 -44 0 -54 -48
-70 -45 -14 -57 -8 -33 19 22 25 18 84 -6 89 -17 3 -51 -47 -47 -71 5 -32 -13
-47 -57 -47 -49 0 -66 19 -46 51 27 43 2 90 -37 70 -24 -13 -37 -49 -22 -64
18 -18 13 -47 -8 -47 -51 0 -280 144 -301 190 -77 161 -93 228 -85 360 6 89
11 113 36 159 17 32 27 62 23 75 -7 29 50 130 92 164 19 15 34 35 34 45 0 28
82 129 167 204 42 37 102 91 132 119 74 68 162 115 296 158 142 46 222 50 358
17 107 -26 150 -22 207 19 14 10 54 31 90 47 54 24 83 48 167 137 56 59 116
129 135 156 18 27 38 50 45 50 6 0 27 -18 46 -40z m977 -23 c0 -13 -10 -34
-22 -47 -20 -22 -23 -22 -26 -6 -5 25 18 76 34 76 8 0 14 -10 14 -23z m55 -75
c-2 -30 -15 -72 -35 -111 -47 -95 -54 -115 -34 -107 11 4 14 1 12 -11 -3 -17
-92 -52 -104 -41 -3 3 4 24 15 46 11 23 34 78 51 123 28 77 71 149 89 149 5 0
7 -22 6 -48z m-1090 -424 c-70 -138 -95 -182 -95 -168 0 21 113 245 118 232 2
-7 -8 -35 -23 -64z m1130 40 c-4 -13 -18 -48 -32 -78 -14 -30 -38 -91 -53
-135 -16 -44 -38 -106 -49 -137 -12 -32 -21 -70 -21 -86 0 -45 84 -190 148
-257 52 -54 108 -124 155 -195 24 -35 21 -65 -6 -77 -39 -18 -87 -64 -87 -83
0 -10 9 -21 20 -25 18 -6 52 23 96 83 9 13 13 10 22 -17 6 -17 9 -38 6 -46 -3
-7 3 -18 13 -23 17 -9 18 -22 16 -114 -2 -56 -5 -114 -8 -127 -6 -22 -7 -22
-25 -6 -22 20 -50 14 -50 -11 0 -12 7 -15 24 -12 27 5 36 -7 36 -48 0 -50 -40
-186 -64 -219 -13 -18 -15 -18 -30 -2 -22 21 -52 22 -60 1 -12 -30 -6 -73 11
-82 15 -9 13 -16 -17 -76 -33 -64 -35 -66 -72 -66 -38 0 -58 -19 -58 -55 0
-10 -10 -30 -22 -45 -13 -16 -34 -45 -48 -64 -16 -23 -38 -39 -61 -46 -37 -10
-61 -41 -63 -82 -1 -20 -7 -24 -56 -28 -75 -7 -83 -13 -75 -62 5 -29 3 -43 -6
-49 -31 -19 -37 -10 -22 32 12 37 12 43 -3 60 -9 11 -21 19 -25 19 -16 0 -39
-59 -39 -100 0 -42 -3 -46 -55 -55 -160 -29 -233 -28 -303 1 l-34 14 28 32
c23 28 24 33 10 36 -19 4 -46 -15 -46 -32 0 -6 -4 -17 -9 -25 -8 -13 -18 -12
-67 5 -70 24 -128 74 -183 158 -74 113 -84 219 -41 431 35 171 197 495 386
772 23 33 85 144 138 245 52 101 109 209 126 239 64 116 138 267 160 327 13
35 30 67 39 71 9 4 59 16 111 25 52 10 115 21 140 25 25 5 60 9 78 10 30 1 33
-1 27 -21z m-1945 -1203 c0 -14 -29 -55 -39 -55 -5 0 -14 14 -22 31 -12 29
-11 33 11 51 23 19 25 19 37 2 7 -10 13 -23 13 -29z m2130 -119 c0 -3 -4 -8
-10 -11 -5 -3 -10 -1 -10 4 0 6 5 11 10 11 6 0 10 -2 10 -4z"/>
<path d="M8279 6466 c-6 -13 -9 -32 -6 -40 9 -23 51 -20 73 5 23 25 9 53 -29
57 -21 3 -30 -3 -38 -22z"/>
<path d="M8232 6238 c-9 -25 -9 -34 1 -40 31 -20 71 18 51 50 -18 28 -39 25
-52 -10z"/>
<path d="M8095 6116 c-23 -54 -20 -76 10 -76 52 0 77 101 27 108 -18 3 -26 -4
-37 -32z"/>
<path d="M8176 5994 c-8 -32 -4 -38 23 -29 28 9 29 55 2 55 -12 0 -21 -9 -25
-26z"/>
<path d="M8036 5861 c-32 -72 -32 -81 -2 -81 21 0 28 9 45 55 26 69 26 85 2
85 -13 0 -26 -18 -45 -59z"/>
<path d="M8131 5863 c-26 -64 -31 -94 -15 -100 20 -8 22 -4 44 66 17 58 17 61
0 61 -10 0 -22 -12 -29 -27z"/>
<path d="M7682 5241 c-27 -47 -28 -86 -5 -96 41 -15 84 90 51 123 -18 18 -22
15 -46 -27z"/>
<path d="M8588 5675 c-8 -19 -8 -28 2 -40 28 -34 71 -2 52 40 -7 14 -19 25
-27 25 -8 0 -20 -11 -27 -25z"/>
<path d="M8542 5474 c-29 -37 -51 -68 -49 -71 8 -8 55 20 61 36 2 9 14 35 25
59 11 23 19 42 18 42 -1 0 -26 -30 -55 -66z"/>
<path d="M8324 5375 c-13 -20 -14 -28 -4 -40 17 -21 27 -19 46 10 13 20 14 28
4 40 -17 21 -27 19 -46 -10z"/>
<path d="M8432 5343 c-17 -7 -54 -81 -47 -93 10 -16 42 6 70 48 14 20 25 40
25 44 0 9 -28 9 -48 1z"/>
<path d="M8166 5168 c-3 -13 -28 -59 -56 -103 -52 -83 -60 -105 -35 -105 19 0
70 70 100 136 12 28 28 55 34 58 20 13 12 36 -13 36 -16 0 -26 -7 -30 -22z"/>
<path d="M8273 5138 c-6 -7 -27 -38 -49 -68 -96 -138 -97 -140 -65 -140 13 0
32 23 60 70 23 39 45 70 49 70 8 0 42 57 42 71 0 13 -26 11 -37 -3z"/>
<path d="M7996 5063 c-14 -15 -30 -41 -36 -57 -6 -17 -19 -46 -27 -64 -22 -45
-10 -51 15 -7 12 19 26 35 32 35 12 0 70 88 70 107 0 22 -28 15 -54 -14z"/>
<path d="M8011 4901 c-16 -29 -13 -41 9 -41 15 0 20 7 20 24 0 33 -16 42 -29
17z"/>
<path d="M8069 4798 c-12 -23 -12 -23 10 -4 23 21 26 26 11 26 -5 0 -15 -10
-21 -22z"/>
<path d="M7636 4670 c-34 -11 -91 -63 -113 -104 -22 -42 -22 -116 0 -150 61
-93 260 -84 309 15 23 43 24 139 3 180 -31 60 -114 84 -199 59z m108 -100 c26
-26 -57 -86 -97 -71 -29 11 -30 21 -6 60 18 30 23 33 56 28 20 -4 41 -11 47
-17z"/>
<path d="M7396 4248 c-9 -33 -8 -38 9 -38 17 0 34 29 28 48 -8 20 -30 14 -37
-10z"/>
<path d="M7480 4230 c-22 -31 -24 -80 -3 -87 11 -4 63 84 63 107 0 22 -40 9
-60 -20z"/>
<path d="M7585 4234 c-37 -37 -43 -84 -12 -84 19 0 36 21 47 58 10 36 -10 51
-35 26z"/>
<path d="M7676 4224 c-10 -27 -7 -54 7 -54 16 0 40 47 32 61 -10 14 -32 11
-39 -7z"/>
<path d="M7468 3774 c-5 -4 -8 -16 -8 -28 0 -14 3 -17 11 -9 6 6 9 19 7 28 -1
9 -6 13 -10 9z"/>
<path d="M6996 4128 c-35 -31 -96 -136 -96 -165 0 -34 24 -28 58 15 35 43 82
129 82 148 0 24 -18 24 -44 2z"/>
<path d="M7057 4057 c-40 -87 -48 -137 -22 -137 8 0 15 6 15 14 0 8 16 45 35
83 34 64 42 113 20 119 -5 2 -27 -34 -48 -79z"/>
<path d="M7158 4063 c-30 -35 -58 -123 -39 -123 22 0 69 85 71 128 0 17 -14
15 -32 -5z"/>
<path d="M6524 3738 c-90 -137 -113 -182 -101 -194 17 -17 56 24 110 114 31
53 71 116 89 139 31 42 33 73 4 73 -8 0 -54 -60 -102 -132z"/>
<path d="M6652 3783 c-54 -80 -122 -206 -122 -226 0 -36 32 -14 74 51 101 155
133 232 97 232 -6 0 -28 -26 -49 -57z"/>
<path d="M6272 3510 c-18 -28 -39 -64 -46 -80 -10 -24 -15 -27 -24 -18 -16 16
-32 -5 -32 -44 0 -42 34 -37 64 10 13 20 31 44 40 51 27 23 69 100 62 116 -10
27 -31 16 -64 -35z"/>
<path d="M5752 3504 c-12 -8 -22 -22 -22 -30 0 -8 -10 -14 -22 -14 -32 0 -129
-38 -153 -59 -11 -10 -32 -21 -46 -25 -17 -4 -31 -17 -39 -37 -7 -17 -38 -49
-69 -72 -51 -38 -177 -159 -262 -252 -35 -39 -72 -122 -85 -195 -3 -19 -7
-108 -9 -198 l-3 -162 28 -20 c15 -11 33 -32 39 -48 16 -37 127 -101 206 -118
135 -29 230 -11 362 72 215 134 444 480 468 708 7 67 -1 93 -43 135 -9 9 -12
25 -7 47 5 30 1 38 -38 77 -36 37 -56 47 -123 65 -130 35 -176 32 -316 -21
-46 -18 -68 -22 -68 -14 0 7 55 30 123 53 l122 41 0 38 c0 44 -11 52 -43 29z
m186 -290 c23 -9 46 -23 51 -32 5 -10 12 -54 15 -99 7 -79 6 -84 -29 -165 -20
-46 -45 -92 -55 -103 -10 -11 -35 -55 -55 -97 -24 -50 -60 -102 -105 -152 -38
-41 -74 -85 -80 -97 -9 -15 -15 -18 -23 -10 -17 17 -31 13 -86 -23 -59 -40
-144 -61 -214 -52 -99 11 -130 59 -131 201 0 102 9 158 27 177 7 7 29 47 49
88 53 109 226 300 272 300 14 0 -7 -45 -50 -102 -56 -76 -98 -163 -90 -185 9
-23 23 -7 83 97 82 145 167 255 205 267 44 13 163 5 216 -13z m-678 -188 c0
-20 -46 -73 -56 -64 -6 7 41 78 52 78 2 0 4 -6 4 -14z"/>
<path d="M5701 3100 c-33 -50 -61 -95 -61 -99 0 -5 -9 -11 -20 -14 -29 -7 -43
-48 -22 -64 9 -7 19 -13 24 -13 9 0 39 56 36 67 -1 4 14 24 33 44 48 51 97
145 83 159 -9 9 -28 -12 -73 -80z"/>
<path d="M5827 3098 c-14 -18 -42 -60 -63 -93 -22 -33 -44 -66 -51 -73 -18
-19 -26 -53 -15 -64 17 -17 38 -3 64 44 14 24 48 80 76 126 29 46 52 85 52 88
0 2 -9 4 -19 4 -11 0 -31 -15 -44 -32z"/>
<path d="M5876 2969 c-29 -34 -34 -64 -11 -73 9 -3 24 7 38 27 38 50 39 55 18
66 -16 9 -24 6 -45 -20z"/>
<path d="M5335 2758 c-4 -18 -18 -59 -32 -92 -18 -44 -21 -61 -13 -70 8 -8 16
-6 28 10 19 23 78 162 71 168 -2 2 -14 7 -26 10 -18 6 -22 2 -28 -26z"/>
<path d="M5396 2594 c-59 -66 -59 -66 -45 -75 34 -22 57 -10 73 38 9 26 16 50
16 55 0 16 -21 7 -44 -18z"/>
<path d="M6378 3492 c-29 -32 -118 -195 -118 -217 0 -28 29 -15 53 23 88 140
117 204 99 216 -5 3 -20 -7 -34 -22z"/>
<path d="M5842 3498 c-6 -6 -12 -22 -12 -35 0 -19 5 -23 31 -23 28 0 30 2 27
32 -3 35 -25 47 -46 26z"/>
<path d="M5906 3485 c-13 -34 -6 -45 25 -45 27 0 30 3 27 28 -4 31 -41 44 -52
17z"/>
<path d="M6063 3472 c-33 -5 -31 -47 3 -69 25 -16 27 -16 40 2 32 44 11 76
-43 67z"/>
<path d="M6444 3438 c-3 -12 -25 -53 -48 -92 -54 -91 -58 -103 -40 -110 28
-11 49 11 106 112 44 80 53 102 41 106 -29 12 -52 6 -59 -16z"/>
<path d="M6247 3172 c-23 -25 -22 -69 2 -82 16 -8 23 -5 40 16 12 15 21 33 21
40 0 8 5 14 11 14 8 0 8 5 -1 15 -17 20 -53 19 -73 -3z"/>
<path d="M6131 2766 c-18 -22 -16 -48 6 -63 20 -14 23 -13 38 17 9 17 13 34
11 39 -9 15 -45 19 -55 7z"/>
<path d="M6081 2658 c-10 -27 0 -41 24 -36 28 5 43 36 25 48 -24 16 -40 12
-49 -12z"/>
<path d="M6024 2578 c-39 -18 -77 -128 -44 -128 4 0 20 17 36 38 16 20 34 43
41 50 29 30 6 57 -33 40z"/>
<path d="M5141 2248 c-12 -31 3 -44 34 -30 28 13 33 37 9 46 -26 10 -34 7 -43
-16z"/>
<path d="M5225 2169 c-4 -6 -5 -12 -2 -15 2 -3 7 2 10 11 7 17 1 20 -8 4z"/>
<path d="M7642 3358 c-21 -35 -102 -211 -102 -223 0 -3 10 -5 22 -3 28 4 117
160 125 218 7 51 -16 55 -45 8z"/>
<path d="M7556 3369 c-17 -10 -116 -206 -116 -229 0 -17 30 -11 48 10 9 11 34
62 55 113 21 50 41 98 44 105 6 15 -6 15 -31 1z"/>
<path d="M7490 3363 c-52 -19 -80 -83 -37 -83 17 0 30 11 45 39 30 52 29 57
-8 44z"/>
<path d="M7408 3103 c-9 -10 -36 -61 -61 -114 -24 -53 -54 -106 -66 -118 -21
-21 -30 -68 -11 -56 6 3 10 -4 10 -16 l0 -22 25 23 c36 34 135 243 135 285 0
39 -9 44 -32 18z"/>
<path d="M7478 3023 c-79 -183 -92 -221 -78 -243 8 -13 11 -13 24 0 20 21 107
218 113 257 5 29 3 33 -16 33 -16 0 -27 -12 -43 -47z"/>
<path d="M7567 2996 c-30 -46 -17 -75 17 -37 12 13 14 25 8 41 l-8 22 -17 -26z"/>
<path d="M7543 2833 c-10 -16 -17 -43 -16 -67 1 -23 -1 -56 -3 -74 -5 -30 -8
-33 -31 -27 -14 3 -31 1 -39 -6 -9 -7 -14 -8 -14 -1 0 26 -102 13 -170 -23
-125 -64 -198 -145 -289 -319 -22 -43 -58 -104 -79 -135 -21 -31 -51 -78 -66
-106 -16 -27 -37 -59 -46 -70 -10 -11 -24 -42 -32 -70 -12 -43 -18 -51 -43
-55 -19 -3 -31 -12 -33 -24 -4 -21 16 -38 37 -31 11 4 12 -2 5 -32 -5 -21 -8
-91 -7 -155 1 -71 -2 -118 -7 -118 -6 0 -13 1 -17 1 -12 3 -22 -75 -12 -86 13
-13 29 12 29 48 0 15 3 27 8 26 4 0 26 -26 49 -57 47 -65 125 -117 206 -139
60 -16 213 -10 296 12 62 16 149 69 221 135 30 27 58 50 62 50 12 0 118 159
167 252 46 85 96 238 115 348 9 54 -9 188 -34 254 -28 73 -141 196 -214 233
-41 21 -59 24 -103 20 -57 -6 -167 -58 -242 -115 -46 -35 -83 -49 -75 -28 2 6
39 35 82 64 80 54 154 84 234 96 43 6 48 10 59 44 7 20 25 60 40 88 37 65 38
94 4 94 -16 0 -31 -10 -42 -27z m-393 -390 c0 -10 -9 -33 -21 -52 -15 -24 -23
-31 -31 -23 -8 8 -4 22 17 52 31 45 35 47 35 23z m473 -21 c9 -8 17 -23 17
-32 0 -9 17 -36 37 -59 l37 -44 -2 -103 c0 -76 -6 -115 -20 -151 -11 -26 -27
-79 -36 -118 -22 -94 -81 -191 -148 -242 -29 -22 -66 -55 -83 -72 -72 -76
-235 -160 -310 -161 -12 0 -47 -7 -79 -15 -53 -14 -61 -14 -82 0 -28 18 -44
46 -55 95 -12 51 34 181 79 226 21 21 32 40 28 50 -9 23 24 128 50 161 17 20
23 23 24 12 0 -9 9 -19 21 -22 24 -6 47 27 80 112 18 48 46 93 158 249 21 28
31 54 31 77 0 30 5 37 33 50 42 19 194 11 220 -13z m-323 -52 c12 -8 11 -12
-6 -32 -12 -13 -40 -54 -63 -92 -40 -68 -41 -69 -41 -35 0 32 38 127 62 156
12 15 27 16 48 3z m-290 -188 c0 -20 -66 -148 -81 -158 -35 -21 -18 50 29 121
38 57 52 67 52 37z m-141 -310 c-10 -48 -29 -80 -29 -49 0 19 31 109 36 104 3
-2 -1 -27 -7 -55z m-13 -189 c-7 -17 -8 -17 -17 0 -12 21 -2 44 13 29 6 -6 8
-19 4 -29z"/>
<path d="M7377 2221 c-50 -75 -100 -172 -92 -179 7 -8 30 15 57 56 67 102 108
170 108 180 0 31 -32 6 -73 -57z"/>
<path d="M7536 2144 c-9 -23 -8 -24 19 -24 27 0 32 9 13 28 -16 16 -25 15 -32
-4z"/>
<path d="M7607 1971 c-28 -51 -34 -81 -17 -81 12 0 48 56 56 88 12 46 -11 41
-39 -7z"/>
<path d="M7215 1943 c-21 -38 -64 -106 -95 -153 -31 -47 -67 -111 -79 -143
-21 -53 -22 -60 -8 -74 8 -8 20 -12 26 -8 7 3 31 49 55 100 24 51 58 114 76
139 66 97 104 206 71 206 -4 0 -24 -30 -46 -67z"/>
<path d="M7317 1838 c-24 -35 -59 -90 -77 -123 -18 -33 -44 -74 -57 -91 -27
-36 -29 -53 -9 -80 13 -17 16 -17 30 -4 27 27 187 332 182 346 -10 25 -25 15
-69 -48z"/>
<path d="M7017 1819 c-5 -20 -5 -20 16 -3 12 11 24 20 26 21 2 2 -5 3 -16 3
-13 0 -23 -8 -26 -21z"/>
<path d="M7380 1725 c-20 -24 -70 -135 -70 -156 0 -44 46 -12 73 51 9 19 24
47 33 61 28 43 -4 82 -36 44z"/>
<path d="M7631 2731 c-16 -30 -14 -81 4 -81 19 0 37 35 33 67 -4 33 -23 40
-37 14z"/>
<path d="M7716 2688 c-36 -51 -2 -105 35 -57 24 31 24 56 0 69 -16 8 -23 6
-35 -12z"/>
<path d="M7800 2650 c-10 -10 -26 -33 -35 -50 -15 -28 -14 -31 1 -37 13 -5 27
5 51 32 18 21 33 44 33 51 0 21 -30 24 -50 4z"/>
<path d="M7842 2560 c-35 -42 -39 -61 -18 -79 11 -9 20 -4 45 24 33 38 39 66
18 83 -9 8 -21 1 -45 -28z"/>
<path d="M7927 2373 c-14 -4 -17 -11 -12 -26 3 -12 7 -29 9 -36 4 -22 25 -25
32 -4 3 10 10 26 15 35 19 36 7 44 -44 31z"/>
<path d="M6861 2318 c-24 -25 -27 -51 -7 -67 18 -16 39 -6 59 28 13 23 14 31
4 38 -28 22 -37 22 -56 1z"/>
<path d="M7932 2245 c-11 -21 -4 -61 14 -76 11 -9 16 -5 24 17 6 15 10 37 8
48 -4 26 -33 33 -46 11z"/>
<path d="M6621 1583 c-17 -26 -31 -50 -31 -54 0 -11 57 -22 71 -14 19 13 38
68 28 86 -18 34 -37 29 -68 -18z"/>
<path d="M6723 1339 c-29 -44 -24 -71 14 -77 16 -2 24 7 37 39 32 79 -5 107
-51 38z"/>
<path d="M6804 1274 c-20 -47 -6 -64 31 -40 19 13 25 24 23 44 -5 43 -35 41
-54 -4z"/>
<path d="M7174 1262 c-18 -12 -36 -52 -30 -68 8 -20 50 -17 71 6 33 37 -1 89
-41 62z"/>
<path d="M6997 1242 c-19 -21 -23 -67 -7 -77 17 -10 59 23 66 51 11 42 -29 59
-59 26z"/>
<path d="M5603 7138 c-39 -76 -64 -141 -58 -155 3 -8 14 -13 26 -11 15 2 30
24 55 81 38 86 42 112 18 121 -9 3 -16 6 -17 6 -1 0 -12 -19 -24 -42z"/>
<path d="M7592 7043 c-5 -10 -13 -33 -17 -50 -5 -26 -3 -33 9 -33 19 0 44 37
48 70 4 30 -26 40 -40 13z"/>
<path d="M7453 7021 c-23 -30 -16 -51 18 -51 15 0 39 44 39 71 0 20 -38 7 -57
-20z"/>
<path d="M7400 6866 c0 -8 -7 -17 -15 -20 -9 -3 -21 -19 -26 -36 -6 -16 -15
-30 -19 -30 -5 0 -29 -39 -55 -86 -36 -68 -44 -89 -33 -95 7 -5 18 -9 23 -9
11 0 95 157 95 178 0 6 9 21 20 32 17 17 29 80 15 80 -3 0 -5 -6 -5 -14z"/>
<path d="M8674 6655 c-23 -36 -15 -59 23 -63 28 -3 33 1 39 23 4 18 1 32 -11
45 -23 26 -31 25 -51 -5z"/>
<path d="M8636 6505 c-11 -30 -6 -54 14 -65 16 -8 22 -6 35 14 9 14 15 33 13
43 -4 24 -53 30 -62 8z"/>
<path d="M9591 6457 c-19 -24 -25 -78 -10 -88 8 -5 17 -9 20 -9 11 0 51 82 45
95 -7 19 -40 19 -55 2z"/>
<path d="M6951 6441 c-13 -13 -50 -78 -82 -145 -33 -66 -79 -158 -104 -204
-25 -45 -45 -91 -45 -102 0 -37 25 -20 60 38 18 31 46 77 61 102 61 99 141
277 137 306 l-3 29 -24 -24z"/>
<path d="M8600 6334 c-11 -25 -20 -48 -20 -50 0 -12 59 -2 64 12 11 29 6 72
-9 78 -12 4 -21 -7 -35 -40z"/>
<path d="M9460 6212 c0 -10 -71 -170 -91 -206 -6 -10 -20 -34 -30 -53 -21 -37
-18 -53 9 -53 17 0 29 21 126 202 33 63 39 81 30 95 -12 20 -44 30 -44 15z"/>
<path d="M9502 5975 c-15 -25 -47 -77 -71 -116 -43 -69 -48 -104 -15 -97 15 3
154 211 154 230 0 4 -9 12 -20 18 -18 10 -24 5 -48 -35z"/>
<path d="M6513 5672 c-90 -151 -127 -227 -118 -242 13 -21 35 -8 61 38 15 26
48 81 74 122 74 118 121 206 113 213 -3 4 -16 7 -27 7 -16 0 -40 -32 -103
-138z"/>
<path d="M9237 5694 c-15 -30 -27 -59 -27 -64 0 -20 21 -9 30 16 6 15 19 38
30 52 23 29 25 38 7 45 -9 3 -23 -14 -40 -49z"/>
<path d="M7194 5712 c-6 -4 -16 -17 -22 -28 -9 -18 -8 -25 8 -39 22 -20 35
-14 55 24 10 21 11 31 2 40 -13 13 -27 14 -43 3z"/>
<path d="M9295 5580 c-9 -17 -29 -49 -44 -72 -31 -46 -28 -78 7 -78 21 0 99
151 88 169 -13 20 -35 12 -51 -19z"/>
<path d="M6884 5569 c-14 -28 -14 -33 -1 -47 20 -19 44 -10 59 22 8 20 8 29
-2 41 -19 23 -38 18 -56 -16z"/>
<path d="M7060 5521 c-41 -40 -48 -77 -21 -104 l22 -22 20 25 c11 14 28 41 39
61 18 35 18 37 1 53 -24 21 -28 21 -61 -13z"/>
<path d="M9172 5497 c-7 -18 -21 -43 -32 -55 -17 -18 -18 -22 -5 -22 8 0 15 4
15 8 0 5 16 27 35 49 28 33 32 42 19 47 -9 3 -17 6 -18 6 -1 0 -7 -15 -14 -33z"/>
<path d="M6788 5382 c-14 -15 -39 -53 -57 -84 -35 -63 -38 -104 -8 -122 16 -9
24 -5 53 29 39 46 94 153 87 170 -2 7 -15 17 -27 23 -20 9 -27 7 -48 -16z"/>
<path d="M6880 5243 c-17 -26 -35 -65 -41 -86 -9 -33 -7 -42 7 -58 28 -31 56
-19 90 38 40 67 50 123 27 141 -31 22 -53 13 -83 -35z"/>
<path d="M6240 5189 c-18 -37 -21 -55 -14 -67 20 -30 34 -23 61 32 22 46 24
57 14 70 -22 27 -37 18 -61 -35z"/>
<path d="M8916 5058 c-20 -35 -55 -85 -76 -113 -22 -27 -47 -64 -57 -82 -17
-32 -17 -34 3 -53 19 -20 21 -20 36 -3 9 10 30 44 47 75 16 32 41 72 54 90 37
49 69 118 63 134 -11 28 -33 13 -70 -48z"/>
<path d="M6515 5046 c-31 -31 -32 -62 -3 -72 16 -5 27 0 45 20 28 33 29 52 3
66 -17 9 -25 6 -45 -14z"/>
<path d="M6060 4878 c-34 -46 -37 -60 -15 -78 12 -10 18 -10 29 0 20 16 50 96
41 109 -11 19 -24 12 -55 -31z"/>
<path d="M6781 4884 c-12 -15 -21 -30 -21 -33 0 -15 32 -51 46 -51 16 0 44 57
44 90 0 30 -44 26 -69 -6z"/>
<path d="M6597 4872 c-18 -20 -57 -93 -57 -106 0 -9 30 -35 42 -36 11 0 68
102 68 122 0 28 -34 41 -53 20z"/>
<path d="M1190 4869 c0 -5 5 -7 10 -4 6 3 10 8 10 11 0 2 -4 4 -10 4 -5 0 -10
-5 -10 -11z"/>
<path d="M1016 4854 c-7 -19 10 -44 30 -44 9 0 14 11 14 30 0 23 -5 30 -19 30
-10 0 -22 -7 -25 -16z"/>
<path d="M3710 4761 c-5 -11 -10 -31 -10 -45 0 -21 5 -26 23 -26 25 0 47 33
47 70 0 27 -46 27 -60 1z"/>
<path d="M1287 4756 c-9 -22 2 -45 25 -57 26 -14 41 0 36 37 -2 23 -9 30 -29
32 -17 2 -29 -3 -32 -12z"/>
<path d="M1415 4730 c-10 -31 18 -59 39 -40 17 13 22 50 7 50 -5 0 -16 3 -24
6 -10 3 -18 -2 -22 -16z"/>
<path d="M3540 4708 c-23 -51 -25 -78 -7 -102 13 -17 14 -17 28 5 9 13 23 44
33 69 17 42 17 45 0 57 -27 20 -33 16 -54 -29z"/>
<path d="M5751 4610 c-50 -77 -94 -147 -98 -156 -3 -10 -21 -42 -39 -72 -31
-51 -35 -72 -14 -72 10 0 201 278 249 362 32 56 33 78 6 78 -7 0 -54 -63 -104
-140z"/>
<path d="M8658 4685 c-9 -19 -8 -29 6 -50 22 -33 29 -32 51 9 16 29 17 37 6
50 -20 24 -50 19 -63 -9z"/>
<path d="M8396 4609 c-46 -92 -46 -93 -27 -112 19 -20 20 -19 66 73 46 93 47
93 27 113 -20 19 -20 19 -66 -74z"/>
<path d="M9120 4668 c-22 -37 -22 -61 0 -65 18 -4 63 64 56 83 -9 24 -35 15
-56 -18z"/>
<path d="M1574 4644 c-11 -42 36 -59 59 -23 15 24 1 49 -27 49 -19 0 -27 -7
-32 -26z"/>
<path d="M8501 4547 c-29 -48 -35 -88 -17 -112 14 -19 16 -18 37 29 39 89 24
153 -20 83z"/>
<path d="M8937 4448 c-42 -52 -121 -172 -167 -253 -19 -33 -42 -71 -51 -85
-10 -14 -20 -35 -24 -47 -5 -19 -2 -23 18 -23 18 0 33 15 68 71 24 39 63 97
86 129 93 129 141 216 131 233 -14 25 -23 21 -61 -25z"/>
<path d="M9270 4450 c-11 -11 -20 -24 -20 -29 0 -5 -33 -54 -73 -108 -102
-137 -164 -231 -232 -352 -55 -96 -57 -105 -41 -117 10 -7 24 -10 31 -7 8 2
42 53 76 111 59 101 81 137 208 326 66 97 111 174 111 186 0 17 -39 11 -60
-10z"/>
<path d="M2864 4446 c-3 -8 -4 -29 -2 -48 6 -68 68 -35 68 37 0 21 -5 25 -30
25 -17 0 -33 -6 -36 -14z"/>
<path d="M2577 4444 c-10 -10 -9 -56 2 -73 7 -10 13 -11 30 -1 30 15 26 74 -4
78 -12 2 -24 0 -28 -4z"/>
<path d="M8250 4378 c-28 -52 -95 -164 -138 -232 -34 -53 -33 -66 2 -66 17 0
28 13 48 54 15 30 42 75 60 100 62 85 79 118 76 149 -4 45 -21 43 -48 -5z"/>
<path d="M8725 4382 c-76 -103 -98 -145 -82 -161 21 -21 36 -11 90 62 68 91
68 92 61 111 -9 25 -47 18 -69 -12z"/>
<path d="M3505 4280 c-4 -6 -22 -17 -40 -24 -45 -19 -90 -86 -81 -121 9 -34
32 -42 56 -20 16 15 90 154 90 170 0 9 -19 5 -25 -5z"/>
<path d="M8993 4268 c-36 -40 -153 -215 -168 -251 -13 -31 -13 -37 0 -47 22
-18 38 -2 127 135 79 120 96 155 83 174 -9 16 -19 13 -42 -11z"/>
<path d="M1105 4250 c-4 -6 -18 -9 -33 -5 -22 4 -35 -2 -71 -37 -24 -24 -59
-65 -76 -93 -32 -50 -145 -267 -145 -279 0 -3 -16 -39 -35 -79 -39 -81 -75
-210 -75 -269 0 -48 27 -91 115 -183 66 -69 67 -70 61 -115 -5 -41 -2 -49 30
-90 24 -30 33 -51 30 -65 -3 -11 -9 -30 -12 -42 -9 -34 13 -28 31 7 12 23 22
30 44 30 60 0 104 -68 66 -100 -9 -7 -13 -20 -11 -27 3 -8 -12 -57 -35 -109
-32 -76 -38 -99 -28 -110 6 -8 17 -14 24 -14 12 0 67 118 80 173 11 42 27 49
64 26 24 -15 31 -24 26 -37 -5 -9 -18 -45 -31 -80 -13 -35 -31 -77 -40 -93
-14 -28 -14 -33 2 -56 16 -26 17 -26 31 -7 9 10 22 35 30 54 27 64 76 165 85
176 6 9 19 7 48 -7 43 -21 48 -30 26 -48 -37 -31 -27 -101 14 -101 23 0 30 20
23 64 -5 32 -3 37 22 46 25 9 27 14 22 45 -5 33 -4 35 23 35 47 0 74 -42 51
-79 -5 -7 -4 -25 2 -42 10 -26 9 -31 -11 -45 -32 -22 -27 -68 7 -72 28 -4 51
20 51 53 0 12 6 29 13 40 15 20 47 17 81 -8 18 -13 17 -15 -8 -63 -30 -56 -34
-111 -10 -121 19 -7 26 3 61 90 28 68 28 68 62 63 19 -3 38 -9 43 -14 5 -5 -5
-40 -22 -80 -35 -83 -37 -98 -11 -111 24 -13 32 -4 60 74 35 95 49 103 100 59
l31 -26 -35 -32 c-19 -19 -35 -38 -35 -44 0 -10 30 -32 44 -32 16 0 36 37 36
66 0 35 0 35 43 32 l42 -3 -1 -40 c-1 -22 -8 -58 -17 -80 -18 -47 -13 -65 18
-65 29 0 39 13 55 72 7 26 18 53 26 59 7 6 18 26 24 45 6 19 17 34 23 34 51
-1 81 -36 56 -66 -10 -12 -8 -19 10 -37 19 -19 23 -20 31 -7 5 8 10 28 10 44
0 23 3 27 12 18 14 -14 32 -16 24 -3 -3 4 6 6 20 3 35 -6 99 41 132 97 14 25
30 49 36 53 5 3 45 -12 89 -34 50 -26 94 -41 119 -42 36 -1 45 5 88 51 110
120 230 397 230 534 0 81 -9 91 -107 114 -97 23 -109 38 -94 112 12 64 14 152
3 169 -4 6 -27 21 -52 34 -60 30 -87 56 -100 96 -17 51 -66 87 -109 81 -52 -7
-161 18 -265 60 -203 81 -671 305 -750 360 -49 34 -108 44 -122 22 -3 -6 -26
-20 -49 -30 l-43 -19 -83 26 c-45 14 -88 28 -95 31 -6 2 -15 -1 -19 -7z m80
-108 c26 -13 61 -52 48 -52 -21 0 -143 62 -138 70 6 9 61 -2 90 -18z m304 -22
c23 -17 81 -50 129 -73 48 -24 147 -76 219 -115 208 -114 319 -160 476 -198
78 -19 144 -40 148 -45 3 -6 11 -4 19 6 16 19 31 20 24 0 -3 -8 -21 -23 -39
-34 -75 -44 -140 -155 -340 -575 -26 -54 -62 -146 -81 -205 -19 -58 -41 -115
-49 -125 -14 -19 -15 -18 -52 6 -21 15 -48 29 -60 33 -13 3 -23 13 -23 21 0 8
-4 12 -10 9 -12 -7 -50 12 -50 26 0 6 7 6 19 -1 11 -5 23 -10 28 -10 12 1 -40
40 -54 40 -6 0 -14 8 -17 18 -7 21 -116 66 -273 112 -56 16 -126 38 -155 49
-29 11 -78 25 -108 31 -74 17 -212 68 -229 85 -43 42 28 305 145 537 84 167
256 438 278 438 7 0 32 -14 55 -30z m-348 -55 c40 -20 69 -41 66 -48 -7 -23
-47 -18 -104 12 -31 17 -58 29 -61 27 -9 -9 12 -28 64 -57 30 -17 57 -35 60
-40 4 -8 -8 -32 -83 -157 -8 -12 -19 -20 -25 -16 -6 4 -8 0 -4 -12 8 -28 -36
-100 -59 -96 -15 3 -17 1 -8 -10 9 -11 1 -58 -10 -58 -2 0 -30 9 -62 20 -79
27 -90 25 -30 -6 61 -32 80 -49 71 -63 -11 -17 -41 -13 -102 14 -35 16 -54 29
-51 37 3 7 23 56 45 108 83 200 184 379 215 380 4 0 39 -16 78 -35z m1484
-513 c34 -18 51 -34 53 -49 2 -13 0 -23 -5 -23 -21 0 -128 69 -131 83 -5 25
25 21 83 -11z m-1770 -25 c65 -24 84 -54 31 -50 -31 2 -106 47 -106 63 0 13 5
12 75 -13z m1706 -52 c96 -34 118 -52 89 -70 -15 -9 -163 62 -155 75 8 13 15
13 66 -5z m-21 -86 c38 -18 70 -38 70 -45 0 -19 -4 -18 -95 17 -93 36 -94 37
-75 49 21 14 22 13 100 -21z m-40 -78 c81 -33 85 -36 75 -50 -10 -18 -39 -13
-111 20 -79 35 -78 34 -69 48 10 17 27 14 105 -18z m-56 -75 c47 -22 76 -41
76 -50 0 -22 -13 -20 -84 11 -70 30 -91 46 -82 62 9 15 4 16 90 -23z m312 -1
c42 -17 41 -31 -10 -110 -41 -63 -108 -212 -130 -288 -19 -65 -22 -65 -83 -24
-18 12 -33 29 -33 38 0 30 69 192 127 295 62 112 67 115 129 89z m-337 -76
c64 -29 93 -59 57 -59 -13 0 -155 56 -164 65 -7 7 9 25 22 25 8 0 45 -14 85
-31z m-31 -71 c113 -50 88 -68 -33 -24 -75 27 -80 30 -70 45 10 17 24 14 103
-21z m-42 -68 c94 -32 88 -28 74 -45 -13 -16 -52 -20 -64 -7 -4 4 -28 14 -54
23 -27 9 -48 23 -50 32 -5 23 21 22 94 -3z m-1192 -66 c27 -27 15 -64 -20 -64
-28 0 -39 19 -30 55 7 29 27 32 50 9z m1171 -29 c52 -23 66 -37 47 -49 -5 -3
-35 5 -68 18 -32 13 -67 26 -76 29 -11 4 -15 12 -11 22 7 20 29 15 108 -20z
m-1005 -35 c11 -11 25 -20 30 -20 18 0 10 -19 -10 -25 -33 -11 -100 4 -94 21
2 8 6 21 9 29 6 21 41 19 65 -5z m957 -32 c51 -16 73 -28 73 -39 0 -9 -7 -20
-16 -23 -23 -9 -148 46 -152 67 -5 22 9 22 95 -5z m476 -46 c-9 -26 -24 -42
-34 -36 -15 9 -10 42 8 53 23 12 34 5 26 -17z m-1160 -3 c43 -23 51 -59 13
-59 -33 0 -71 32 -63 53 8 20 20 21 50 6z m685 -57 c41 -16 51 -34 20 -40 -25
-5 -132 51 -136 71 -3 17 -2 17 35 2 21 -10 57 -24 81 -33z m-533 -25 c10 -8
15 -19 11 -25 -9 -15 -66 5 -66 24 0 18 31 18 55 1z"/>
<path d="M1548 3948 c-49 -53 -67 -108 -35 -108 12 0 68 78 80 112 11 32 -13
30 -45 -4z"/>
<path d="M1655 3881 c-30 -48 -31 -61 -7 -61 19 0 52 47 52 73 0 32 -20 26
-45 -12z"/>
<path d="M1819 3823 c-45 -43 -50 -77 -9 -66 29 8 77 80 62 95 -7 7 -22 -1
-53 -29z"/>
<path d="M1968 3780 c-30 -23 -50 -71 -38 -90 13 -21 34 -5 60 44 30 55 19 79
-22 46z"/>
<path d="M2088 3742 c-16 -17 -48 -76 -48 -87 0 -15 41 -2 54 18 33 51 28 109
-6 69z"/>
<path d="M2199 3693 c-14 -16 -39 -67 -39 -78 0 -3 9 -5 20 -5 22 0 62 55 58
79 -4 22 -23 24 -39 4z"/>
<path d="M1251 3661 c-11 -21 -39 -85 -62 -142 -90 -227 -113 -309 -86 -309
13 0 57 83 57 109 0 11 87 231 120 304 34 76 7 110 -29 38z"/>
<path d="M1348 3658 c-29 -38 -127 -271 -158 -376 -18 -59 -20 -75 -9 -88 17
-21 25 -10 58 86 34 99 79 220 114 305 34 81 40 105 29 105 -5 0 -21 -15 -34
-32z"/>
<path d="M1456 3665 c-35 -38 -106 -197 -155 -345 -47 -142 -56 -189 -35 -197
8 -3 17 -3 20 0 3 3 25 70 49 149 24 79 69 201 100 273 30 71 54 134 52 140
-2 5 -16 -3 -31 -20z"/>
<path d="M1524 3624 c-70 -119 -187 -433 -182 -486 6 -67 29 -35 78 107 48
143 93 259 136 353 28 61 29 72 9 72 -8 0 -26 -21 -41 -46z"/>
<path d="M2300 3620 c-33 -65 -23 -92 17 -47 44 48 54 87 23 87 -13 0 -27 -14
-40 -40z"/>
<path d="M1626 3598 c-78 -133 -204 -453 -192 -485 6 -16 46 -18 46 -2 0 23
105 290 156 397 30 62 54 117 54 122 0 6 -9 10 -20 10 -12 0 -28 -15 -44 -42z"/>
<path d="M1759 3573 c-52 -60 -208 -399 -225 -490 -5 -28 -3 -33 13 -33 22 0
24 4 93 165 26 61 70 160 98 220 46 101 71 175 59 175 -3 0 -20 -17 -38 -37z"/>
<path d="M1848 3488 c-85 -153 -172 -387 -151 -408 6 -7 38 37 63 85 44 86
150 347 144 356 -12 20 -33 7 -56 -33z"/>
<path d="M1987 3516 c-32 -32 -177 -347 -177 -385 0 -6 8 -11 18 -11 14 0 32
29 70 108 54 114 105 233 116 269 8 27 -8 38 -27 19z"/>
<path d="M2089 3473 c-42 -50 -139 -255 -146 -306 -5 -42 -4 -47 11 -41 17 7
60 90 137 268 41 94 40 129 -2 79z"/>
<path d="M2196 3438 c-39 -52 -116 -201 -116 -225 0 -16 6 -23 20 -23 15 0 32
25 74 108 55 110 76 172 57 172 -5 0 -21 -15 -35 -32z"/>
<path d="M1900 3065 c-32 -47 -53 -91 -64 -137 -9 -41 19 -26 48 26 22 36 60
156 51 156 -2 0 -18 -20 -35 -45z"/>
<path d="M2001 3069 c-27 -36 -82 -164 -97 -223 -6 -25 15 -49 33 -38 7 4 25
43 41 87 16 44 41 108 55 142 14 34 22 64 19 67 -12 12 -23 5 -51 -35z"/>
<path d="M1806 3044 c-4 -9 -4 -19 -1 -22 2 -3 7 3 11 12 4 9 4 19 1 22 -2 3
-7 -3 -11 -12z"/>
<path d="M8418 3692 c-27 -30 -86 -119 -112 -170 -34 -66 5 -86 46 -24 69 102
118 184 118 196 0 26 -28 25 -52 -2z"/>
<path d="M6972 3577 c-15 -18 -52 -99 -52 -114 0 -7 6 -13 13 -13 15 0 67 98
67 124 0 19 -14 21 -28 3z"/>
<path d="M8769 3538 c-116 -136 -419 -565 -419 -593 0 -19 32 -28 46 -13 6 7
78 112 159 233 82 121 167 245 190 275 23 30 50 70 60 88 11 17 23 32 27 32 4
0 8 7 8 15 0 29 -26 15 -71 -37z"/>
<path d="M8547 3532 c-94 -128 -267 -401 -267 -424 0 -30 46 -23 67 10 9 15
73 112 141 216 98 149 122 193 118 212 -9 34 -27 29 -59 -14z"/>
<path d="M8827 3403 c-36 -49 -120 -160 -187 -248 -136 -181 -201 -295 -184
-322 18 -29 31 -25 48 17 20 51 99 170 185 280 36 47 91 119 121 160 30 41 72
97 94 124 38 46 39 49 21 62 -10 8 -22 14 -25 14 -4 0 -37 -39 -73 -87z"/>
<path d="M8244 3395 c-41 -28 -56 -105 -22 -105 13 0 59 67 71 103 8 22 -20
23 -49 2z"/>
<path d="M8944 3327 c-117 -125 -247 -285 -283 -350 -18 -32 -19 -38 -6 -43
26 -10 41 2 118 98 41 51 109 131 151 178 92 103 130 155 121 169 -14 24 -45
8 -101 -52z"/>
<path d="M4769 3354 c-5 -15 -21 -40 -34 -56 -29 -34 -32 -53 -9 -62 22 -9 31
-1 71 61 27 43 32 57 22 69 -18 22 -38 17 -50 -12z"/>
<path d="M6727 3230 c-20 -39 -37 -78 -37 -85 0 -26 37 -16 49 13 6 15 25 47
41 72 22 33 26 47 18 57 -20 24 -34 13 -71 -57z"/>
<path d="M7932 3205 c-29 -37 -37 -66 -21 -76 34 -22 61 3 63 58 1 45 -15 52
-42 18z"/>
<path d="M8996 3213 c-81 -99 -246 -353 -246 -377 0 -6 5 -18 10 -26 9 -13 14
-10 36 15 40 47 254 377 254 392 0 19 -38 16 -54 -4z"/>
<path d="M6566 2903 c-15 -30 -26 -57 -24 -58 2 -2 15 -6 30 -10 24 -6 29 -2
48 35 23 45 21 63 -8 79 -16 8 -22 3 -46 -46z"/>
<path d="M844 2940 c-26 -10 -36 -34 -28 -66 9 -35 33 -30 50 11 25 60 20 72
-22 55z"/>
<path d="M2955 2927 c-8 -13 -18 -37 -21 -55 -5 -25 -3 -32 10 -32 17 0 70 93
59 104 -13 12 -33 5 -48 -17z"/>
<path d="M6493 2768 c-41 -43 -101 -153 -89 -160 23 -15 35 -7 75 55 59 92 69
164 14 105z"/>
<path d="M8919 2761 c-30 -31 -36 -59 -19 -92 22 -41 70 -12 100 60 7 17 10
37 6 46 -9 25 -55 18 -87 -14z"/>
<path d="M8540 2638 c-35 -63 -36 -69 -10 -93 28 -26 61 -6 95 57 26 47 26 50
9 69 -31 35 -60 25 -94 -33z"/>
<path d="M4093 2638 c-26 -29 -79 -116 -88 -145 -13 -47 29 -24 76 40 65 88
74 107 58 118 -20 12 -23 11 -46 -13z"/>
<path d="M1250 2605 c-16 -19 -9 -45 16 -62 19 -12 24 -12 38 3 10 9 16 26 14
37 -4 26 -52 41 -68 22z"/>
<path d="M6293 2504 c-16 -25 -16 -27 2 -40 17 -13 21 -11 41 13 16 20 19 32
12 41 -16 19 -36 14 -55 -14z"/>
<path d="M8764 2498 c-11 -13 -28 -40 -37 -61 -17 -38 -17 -38 9 -64 l25 -25
26 23 c14 13 36 45 49 70 22 45 22 47 5 63 -25 22 -54 20 -77 -6z"/>
<path d="M2380 2446 c0 -29 22 -39 46 -22 24 18 11 46 -21 46 -20 0 -25 -5
-25 -24z"/>
<path d="M2494 2445 c-8 -34 1 -55 26 -55 28 0 48 43 30 65 -20 24 -49 18 -56
-10z"/>
<path d="M2148 2433 c-37 -9 -31 -59 8 -69 35 -9 54 2 54 30 0 33 -23 47 -62
39z"/>
<path d="M3895 2329 c-14 -17 -25 -34 -25 -38 0 -11 23 -31 35 -31 12 0 45 55
45 75 0 27 -29 24 -55 -6z"/>
<path d="M1043 2316 c-89 -22 -130 -62 -140 -133 -4 -29 1 -46 19 -72 33 -49
66 -70 129 -81 67 -12 126 -2 200 35 111 57 105 171 -13 229 -66 32 -128 39
-195 22z m170 -98 c60 -43 17 -88 -91 -95 -83 -5 -135 17 -140 59 -8 70 149
94 231 36z"/>
<path d="M3780 2148 c-11 -18 -23 -44 -27 -57 -3 -13 -26 -43 -50 -67 -46 -43
-54 -76 -20 -82 11 -2 26 12 44 44 16 25 44 65 64 88 20 22 41 50 46 61 26 51
-26 63 -57 13z"/>
<path d="M6104 2131 c-48 -47 -112 -156 -99 -169 3 -3 14 -2 23 4 19 12 161
175 162 186 0 4 -8 12 -18 17 -16 8 -28 1 -68 -38z"/>
<path d="M8310 2139 c-14 -24 -6 -49 14 -49 15 0 26 21 26 51 0 25 -26 24 -40
-2z"/>
<path d="M4123 2093 c-16 -16 -42 -48 -57 -72 -25 -40 -26 -45 -12 -59 15 -15
21 -12 69 35 28 28 61 53 72 55 25 4 31 31 10 52 -24 23 -49 20 -82 -11z"/>
<path d="M1411 2016 c-29 -46 -27 -83 4 -98 21 -10 27 -8 39 8 20 26 40 100
31 113 -14 23 -53 11 -74 -23z"/>
<path d="M5067 1943 c-4 -3 -7 -19 -7 -34 0 -36 37 -51 57 -23 17 23 16 29 -3
48 -16 17 -36 21 -47 9z"/>
<path d="M8235 1926 c-9 -13 -19 -40 -22 -60 -5 -31 -3 -36 14 -36 29 0 45 23
51 75 4 37 2 45 -11 45 -9 0 -24 -11 -32 -24z"/>
<path d="M5834 1925 c-10 -24 12 -42 34 -29 24 16 21 38 -6 42 -13 2 -25 -3
-28 -13z"/>
<path d="M4132 1873 c-40 -65 -46 -87 -27 -107 23 -23 43 -8 87 63 l38 60 -22
16 c-34 23 -43 19 -76 -32z"/>
<path d="M4285 1856 c-34 -45 -43 -97 -20 -119 9 -9 21 -17 26 -17 12 0 63 71
79 111 12 28 12 33 -5 45 -30 22 -52 16 -80 -20z"/>
<path d="M5467 1859 c-26 -37 4 -70 44 -48 14 7 19 19 17 37 -4 35 -40 42 -61
11z"/>
<path d="M5410 1810 c0 -5 5 -10 11 -10 5 0 7 5 4 10 -3 6 -8 10 -11 10 -2 0
-4 -4 -4 -10z"/>
<path d="M8161 1734 c-11 -14 -47 -79 -80 -144 -54 -104 -59 -119 -46 -136 7
-10 15 -17 18 -14 48 55 157 263 157 301 0 27 -25 23 -49 -7z"/>
<path d="M3488 1699 c-30 -17 -70 -94 -63 -122 10 -39 41 -23 86 45 31 47 37
63 28 74 -13 16 -27 17 -51 3z"/>
<path d="M8220 1628 c0 -2 9 -11 20 -21 11 -9 20 -13 20 -7 0 5 -9 14 -20 20
-11 6 -20 9 -20 8z"/>
<path d="M3383 1557 c-4 -8 -16 -16 -25 -20 -32 -11 -16 -67 19 -67 18 0 48
64 40 84 -8 19 -23 21 -34 3z"/>
<path d="M8193 1483 c-42 -79 -48 -110 -28 -140 21 -32 32 -23 75 66 28 59 32
76 24 98 -16 47 -38 39 -71 -24z"/>
<path d="M5000 1518 c0 -7 -17 -29 -37 -48 -61 -58 -151 -177 -158 -210 -7
-30 7 -60 26 -60 4 0 29 32 55 72 25 40 71 106 101 147 42 56 53 78 46 90 -13
20 -33 26 -33 9z"/>
<path d="M5123 1402 c-99 -114 -193 -242 -193 -261 0 -40 31 -38 67 5 72 86
193 258 193 274 0 35 -27 28 -67 -18z"/>
<path d="M4737 1400 c-24 -21 -52 -55 -62 -75 -18 -32 -18 -36 -3 -51 21 -22
35 -13 97 65 54 68 61 85 35 95 -23 9 -20 10 -67 -34z"/>
<path d="M7937 1399 c-22 -13 -138 -185 -130 -193 19 -19 45 3 107 89 37 52
65 99 61 105 -8 12 -15 12 -38 -1z"/>
<path d="M5243 1283 c-167 -205 -223 -308 -168 -308 14 0 38 28 83 95 34 52
84 120 110 150 26 30 58 70 71 88 24 34 24 34 4 54 -20 19 -20 19 -100 -79z"/>
<path d="M5418 1276 c-77 -90 -195 -262 -203 -296 -3 -15 0 -33 8 -44 12 -17
20 -9 97 105 46 68 103 148 127 177 62 77 74 97 67 116 -11 29 -32 17 -96 -58z"/>
<path d="M5584 1248 c-28 -29 -65 -71 -82 -94 -46 -61 -172 -267 -172 -282 0
-9 9 -12 27 -10 20 2 36 20 75 82 27 44 84 125 127 180 89 115 105 142 97 162
-9 22 -19 17 -72 -38z"/>
<path d="M2865 1256 c-28 -37 -26 -56 5 -56 13 0 22 11 29 37 15 52 -1 62 -34
19z"/>
<path d="M7974 1222 c-18 -12 -54 -79 -54 -99 0 -12 7 -26 15 -33 13 -11 18
-10 30 6 36 45 67 105 61 119 -6 16 -34 20 -52 7z"/>
<path d="M4602 1174 c-30 -21 -25 -54 10 -73 38 -21 78 -2 78 37 0 51 -43 68
-88 36z"/>
<path d="M2790 1126 c0 -30 15 -42 24 -20 10 27 7 44 -9 44 -9 0 -15 -9 -15
-24z"/>
<path d="M7693 1098 c-21 -29 -45 -66 -53 -83 -9 -16 -24 -45 -35 -62 -15 -26
-17 -35 -7 -45 16 -16 84 49 118 112 13 25 34 57 45 72 12 15 19 33 16 42 -12
31 -45 17 -84 -36z"/>
<path d="M6668 1046 c-14 -32 -4 -56 22 -56 28 0 48 43 30 65 -18 22 -39 18
-52 -9z"/>
<path d="M5640 1017 c0 -19 16 -31 24 -18 3 5 -1 14 -9 21 -12 10 -15 10 -15
-3z"/>
<path d="M7112 851 c-8 -4 -12 -19 -10 -32 3 -21 9 -24 46 -25 35 -2 42 1 42
16 0 19 -35 50 -55 50 -5 0 -16 -4 -23 -9z"/>
<path d="M7262 823 c-12 -24 -4 -43 18 -43 20 0 32 23 24 45 -8 20 -31 19 -42
-2z"/>
</g>
</svg>
