<?xml version="1.0" standalone="no"?>
<!DOCTYPE svg PUBLIC "-//W3C//DTD SVG 20010904//EN"
 "http://www.w3.org/TR/2001/REC-SVG-20010904/DTD/svg10.dtd">
<svg version="1.0" xmlns="http://www.w3.org/2000/svg"
 width="1024.000000pt" height="1024.000000pt" viewBox="0 0 1024.000000 1024.000000"
 preserveAspectRatio="xMidYMid meet">

<g transform="translate(0.000000,1024.000000) scale(0.100000,-0.100000)"
fill="#ef8678" stroke="none">
<path d="M3780 9850 c0 -5 5 -10 10 -10 6 0 10 5 10 10 0 6 -4 10 -10 10 -5 0
-10 -4 -10 -10z"/>
<path d="M4478 9654 c-27 -14 -32 -24 -28 -54 7 -53 84 -68 119 -24 27 35 26
48 -5 73 -31 25 -49 26 -86 5z"/>
<path d="M3786 9548 c-19 -26 -21 -54 -4 -64 6 -4 32 -6 58 -5 l47 1 7 -51 c4
-28 5 -53 3 -55 -2 -2 -25 -7 -51 -10 -56 -8 -66 1 -66 61 0 62 -13 73 -44 42
-31 -31 -35 -85 -8 -137 26 -54 60 -65 145 -49 38 7 75 19 83 27 17 16 19 138
4 194 -14 50 -43 68 -107 68 -42 0 -55 -4 -67 -22z"/>
<path d="M5567 9553 c-14 -13 -6 -42 16 -58 20 -15 23 -14 39 6 13 16 15 26 8
40 -10 18 -50 26 -63 12z"/>
<path d="M6580 9525 c0 -8 5 -15 10 -15 6 0 10 7 10 15 0 8 -4 15 -10 15 -5 0
-10 -7 -10 -15z"/>
<path d="M4205 9520 c3 -5 11 -10 16 -10 6 0 7 5 4 10 -3 6 -11 10 -16 10 -6
0 -7 -4 -4 -10z"/>
<path d="M4525 9488 c-150 -23 -150 -23 -153 -42 -3 -11 4 -26 14 -33 24 -17
132 -17 197 1 29 8 64 17 78 20 29 6 42 27 33 51 -7 17 -70 18 -169 3z"/>
<path d="M2220 9443 c-14 -2 -57 -15 -96 -28 -39 -14 -96 -30 -125 -36 -119
-25 -438 -177 -599 -284 -381 -255 -676 -596 -881 -1020 -119 -245 -182 -483
-204 -764 -9 -113 -9 -423 -1 -491 33 -265 99 -478 228 -735 284 -567 703
-953 1260 -1161 207 -78 496 -134 691 -134 53 0 58 -2 68 -27 5 -14 8 -63 7
-107 l-3 -81 -75 -7 c-131 -13 -258 -38 -378 -74 -134 -41 -188 -67 -259 -123
-81 -63 -96 -92 -103 -188 -3 -46 -3 -84 0 -85 3 -2 16 -20 29 -41 59 -97 324
-169 666 -182 94 -3 175 -6 180 -6 32 -3 312 13 377 21 119 14 327 66 426 105
50 19 112 42 139 50 l48 15 -36 -34 c-19 -19 -77 -55 -127 -81 -51 -26 -92
-52 -92 -57 0 -5 9 -4 19 2 25 13 34 13 26 0 -3 -5 -4 -10 -1 -10 16 0 186
109 253 162 100 79 266 245 261 260 -6 16 -28 22 -28 7 0 -6 -20 -33 -44 -59
l-44 -47 -4 51 c-5 62 -44 150 -84 190 -65 65 -268 135 -453 156 -47 5 -141
10 -208 10 -140 0 -130 -9 -135 115 l-3 80 55 12 c30 6 106 21 169 32 62 12
167 39 232 61 65 22 126 40 136 40 28 0 120 46 148 74 35 35 34 93 -1 135 -28
34 -55 38 -94 16 -14 -8 -28 -14 -31 -15 -10 0 -29 50 -29 79 0 25 7 31 62 55
137 60 337 207 517 381 257 249 464 579 557 890 74 243 95 393 94 645 -2 171
-4 212 -19 305 -63 381 -277 776 -590 1085 -306 301 -646 461 -1160 545 -147
24 -580 16 -721 -14 -52 -11 -98 -17 -102 -15 -5 3 -17 23 -28 44 l-20 39 20
11 c11 6 62 20 113 31 109 23 137 46 137 110 0 31 -7 47 -29 70 -29 29 -49 33
-111 22z m-270 -333 c11 -21 20 -41 20 -43 0 -3 -15 -10 -32 -17 -75 -30 -314
-153 -371 -192 -264 -176 -476 -390 -650 -653 -205 -310 -331 -700 -336 -1042
-2 -105 23 -405 35 -424 2 -3 6 -31 10 -60 4 -30 17 -91 30 -137 167 -578 611
-1074 1184 -1321 198 -86 294 -106 656 -141 65 -6 147 -4 266 5 206 17 316 35
460 77 102 29 109 30 133 14 32 -21 34 -63 3 -76 -83 -33 -342 -95 -463 -110
-144 -17 -418 -23 -532 -10 -355 38 -628 135 -909 325 -342 231 -566 488 -758
873 -166 331 -236 643 -222 987 14 328 78 585 211 850 190 379 513 739 849
944 90 56 250 134 313 155 29 10 55 22 58 27 12 18 25 9 45 -31z m410 -127 c0
-15 1 -15 18 0 25 22 60 21 100 -3 34 -21 42 -40 17 -40 -8 0 -38 -11 -67 -25
-57 -27 -63 -26 -92 30 -17 31 -18 38 -5 46 21 13 29 11 29 -8z m617 5 c18 1
35 -2 38 -8 12 -19 -160 -129 -202 -130 -7 0 -13 6 -13 14 0 8 -17 21 -38 29
-40 16 -102 63 -102 77 0 15 116 28 200 22 47 -3 99 -5 117 -4z m-719 -75 c18
-25 32 -47 30 -49 -2 -2 -20 -10 -40 -18 l-36 -15 -6 31 c-12 58 -6 99 13 97
3 0 21 -21 39 -46z m-109 -36 c-1 -23 2 -50 6 -59 6 -16 1 -18 -39 -18 -33 0
-46 4 -46 14 0 8 5 18 11 22 6 3 19 26 30 51 23 53 40 48 38 -10z m468 17 c39
-30 42 -44 9 -44 -14 0 -59 -18 -101 -39 l-76 -40 -20 32 c-10 18 -18 38 -17
45 3 15 121 69 152 71 11 1 34 -10 53 -25z m778 -9 c219 -71 493 -241 640
-397 163 -173 261 -308 356 -492 49 -95 89 -179 89 -186 0 -7 11 -37 25 -66
37 -79 102 -364 83 -364 -3 0 -23 30 -44 66 -68 117 -129 142 -207 88 -64 -46
-77 -76 -87 -211 -5 -65 -10 -121 -10 -125 -1 -25 -37 4 -108 85 -45 52 -99
110 -121 130 -37 33 -104 61 -134 55 -6 -1 -64 6 -127 17 -73 11 -130 15 -155
11 -47 -9 -95 -57 -95 -96 0 -45 65 -123 142 -169 33 -20 42 -21 73 -11 63 21
78 -11 50 -105 -30 -97 -113 -177 -168 -159 -11 4 -69 52 -127 108 -178 172
-193 180 -244 127 -26 -27 -27 -30 -13 -63 14 -33 231 -273 276 -305 40 -27
89 -33 137 -15 24 9 46 13 50 10 8 -9 -7 -56 -81 -243 -35 -88 -71 -189 -80
-225 -17 -64 -17 -79 1 -231 7 -59 1 -80 -55 -222 -49 -124 -87 -191 -125
-225 -61 -54 -155 -56 -229 -5 -66 44 -157 141 -181 192 -21 46 -46 88 -122
204 -22 34 -57 94 -78 133 -70 135 -169 205 -260 184 -22 -5 -60 -16 -84 -24
-51 -18 -87 -13 -161 22 -92 45 -163 143 -195 273 -20 80 -20 124 -1 213 18
83 52 144 128 231 65 73 152 124 258 151 75 19 107 13 185 -37 43 -28 80 -43
122 -49 58 -10 67 -8 195 35 74 25 140 45 146 45 31 0 109 43 123 68 25 44 30
97 14 136 -21 49 -50 61 -123 48 -64 -11 -88 -4 -96 29 -12 46 68 88 200 104
65 8 117 41 121 76 7 62 -108 140 -207 142 -63 1 -139 -28 -183 -70 -39 -37
-67 -112 -75 -198 -7 -90 -15 -93 -102 -41 -60 37 -166 76 -203 76 -38 0 -120
-45 -160 -86 -20 -22 -48 -64 -62 -95 -23 -53 -65 -99 -89 -99 -20 0 -47 34
-47 59 0 18 13 39 40 65 55 52 67 78 72 162 4 55 13 85 38 132 38 71 69 98
166 141 86 40 125 76 160 155 36 78 47 222 19 249 -23 24 -49 21 -85 -9 -37
-32 -55 -65 -70 -130 -17 -73 -30 -102 -48 -109 -22 -8 -62 38 -62 72 0 42 74
184 118 226 59 58 104 64 255 35 101 -19 115 -10 313 188 104 105 181 174 193
174 22 0 34 24 25 54 -3 12 -26 39 -52 62 -81 72 -24 83 143 29z m-1411 -42
c-3 -16 -15 -36 -26 -45 -24 -21 -80 -25 -72 -5 4 10 92 77 101 77 2 0 1 -12
-3 -27z m1089 -11 c35 -37 34 -58 -5 -82 -35 -21 -42 -19 -110 30 l-38 28 42
26 c55 33 78 32 111 -2z m-353 -1 c23 -19 24 -20 7 -39 -9 -10 -58 -38 -108
-62 l-90 -43 -30 29 c-16 15 -28 32 -27 36 2 5 41 24 87 42 46 19 88 39 94 45
16 16 39 13 67 -8z m-360 -43 c11 -18 20 -38 20 -43 0 -6 -26 -19 -57 -31 -32
-12 -65 -24 -74 -28 -14 -6 -18 1 -24 43 -8 59 -4 68 38 80 59 17 76 13 97
-21z m-186 -60 c9 -37 7 -66 -6 -71 -10 -4 -10 -8 1 -15 17 -12 20 -83 4 -89
-7 -3 -16 12 -22 34 -6 21 -24 56 -40 78 -15 22 -31 49 -35 61 -6 19 -2 21 43
23 43 2 49 -1 55 -21z m243 -20 c40 -45 39 -46 -62 -93 -53 -25 -101 -43 -106
-39 -5 3 -9 21 -9 39 0 33 3 36 64 64 35 16 66 34 70 40 10 16 20 14 43 -11z
m613 7 c0 -3 -16 -23 -36 -45 -39 -42 -63 -50 -84 -25 -17 20 -8 29 55 53 55
22 65 24 65 17z m-182 -48 c2 -28 -1 -37 -12 -37 -21 0 -27 14 -20 49 9 42 28
34 32 -12z m-138 -22 c8 -38 20 -63 41 -82 16 -15 29 -31 29 -34 0 -4 -30 -7
-67 -8 l-66 -1 -44 47 c-24 26 -43 51 -43 54 0 4 25 19 56 35 30 15 57 32 60
36 12 19 23 4 34 -47z m-1171 -52 c-34 -81 -54 -92 -84 -47 -20 30 -11 45 44
74 57 30 63 26 40 -27z m429 24 c18 -14 15 -66 -9 -162 -24 -95 -31 -103 -149
-178 -49 -32 -77 -59 -114 -114 -47 -69 -50 -71 -61 -50 -9 17 -8 36 7 92 52
194 110 327 170 392 35 37 120 49 156 20z m554 -111 c-75 -37 -165 -143 -198
-231 l-18 -49 -17 84 c-9 47 -19 111 -23 142 l-6 56 48 18 c26 10 79 30 117
45 l70 27 32 -36 31 -37 -36 -19z m-912 21 c0 -14 -20 -37 -32 -37 -12 0 -10
24 4 38 16 16 28 15 28 -1z m599 -86 c5 -26 17 -97 26 -157 9 -60 21 -126 27
-147 6 -20 9 -39 7 -41 -2 -2 -60 -14 -129 -26 -69 -12 -140 -24 -159 -27
l-34 -6 5 60 c7 76 26 115 58 123 19 4 35 25 67 90 24 47 43 97 43 113 0 31
31 67 59 67 15 0 22 -11 30 -49z m-894 8 c4 -6 -3 -30 -16 -54 -19 -36 -26
-42 -41 -34 -15 8 -22 1 -43 -41 -14 -27 -34 -74 -45 -103 -11 -29 -38 -83
-60 -120 -22 -36 -40 -73 -40 -81 0 -8 -6 -30 -14 -48 -18 -43 -43 -132 -51
-184 -5 -32 -2 -46 13 -64 18 -23 22 -23 62 -11 40 12 44 17 85 104 24 51 46
108 50 127 4 19 20 66 37 103 16 38 35 96 41 129 11 60 31 83 48 57 14 -20 3
-104 -22 -175 -19 -54 -20 -67 -10 -164 10 -94 14 -184 12 -217 -1 -6 -20 -14
-43 -18 -120 -20 -218 -119 -218 -219 0 -26 -6 -62 -14 -81 -21 -49 -121 -120
-208 -146 -39 -11 -81 -31 -94 -44 l-24 -24 0 57 c1 121 38 305 97 481 38 114
138 331 183 396 15 22 52 78 83 125 30 47 77 108 105 137 27 28 59 68 72 87
22 36 43 46 55 25z m233 -68 c2 -13 -1 -28 -7 -34 -6 -6 -11 -22 -11 -36 0
-15 -5 -33 -10 -41 -9 -13 -13 -12 -30 9 -22 26 -36 68 -26 79 4 3 16 1 26 -6
29 -18 36 -15 16 7 -16 17 -16 20 0 35 21 21 38 16 42 -13z m-43 -140 c3 -11
5 -53 4 -94 -2 -62 1 -78 19 -104 29 -41 28 -43 -13 -43 -19 0 -35 -4 -35 -10
0 -5 -4 -10 -9 -10 -8 0 3 92 14 110 15 24 15 81 -1 105 -9 14 -13 32 -9 45 8
25 22 26 30 1z m374 -140 c0 -33 -6 -64 -12 -70 -22 -17 -127 -40 -127 -28 0
33 61 96 92 97 11 0 15 5 12 14 -4 11 19 46 31 46 2 0 4 -27 4 -59z m427 -76
c27 -27 30 -70 4 -70 -16 0 -62 74 -54 87 9 14 24 9 50 -17z m-258 -82 c-29
-43 -33 -56 -33 -115 0 -77 18 -110 78 -143 34 -19 37 -23 37 -65 -1 -49 -10
-65 -55 -97 -30 -20 -125 -46 -135 -36 -3 2 -5 42 -6 88 l0 84 24 -19 c27 -22
132 -63 140 -56 2 3 -31 22 -74 43 -43 21 -82 45 -87 54 -6 9 -7 71 -2 151 l7
135 36 10 c21 6 52 11 70 12 l33 1 -33 -47z m-179 -60 c1 -18 -2 -33 -6 -33
-13 0 -133 71 -133 80 0 4 28 12 63 17 69 9 74 5 76 -64z m-146 17 c29 -11 74
-33 100 -50 46 -29 47 -31 47 -80 0 -55 -7 -60 -48 -32 -15 10 -56 31 -92 46
-57 24 -156 76 -199 105 -52 34 104 44 192 11z m487 -11 c15 -27 12 -85 -5
-99 -11 -9 -19 -7 -40 14 -29 29 -30 35 -11 81 16 37 38 39 56 4z m-610 -72
c42 -24 111 -58 155 -76 102 -42 115 -54 115 -103 0 -36 -2 -39 -22 -33 -29 9
-242 120 -283 148 -54 37 -95 81 -95 102 0 31 11 37 34 20 12 -8 55 -34 96
-58z m-50 -97 c36 -19 121 -59 190 -90 125 -56 125 -57 128 -93 6 -65 -7 -71
-63 -31 -28 19 -105 65 -173 101 -118 64 -162 103 -162 143 0 14 -4 15 80 -30z
m1526 1 c-7 -11 -46 -21 -46 -12 0 13 13 21 32 21 11 0 17 -4 14 -9z m-1481
-135 c115 -55 227 -117 221 -123 -2 -3 -21 -9 -42 -13 -45 -10 -73 0 -196 73
-67 39 -88 57 -88 73 0 21 9 37 19 32 3 -2 42 -20 86 -42z m-55 -87 c41 -23
85 -46 97 -53 36 -18 27 -26 -29 -26 -37 0 -62 6 -83 21 -16 11 -52 31 -78 45
-40 21 -46 28 -37 40 20 23 50 16 130 -27z m-126 -44 c31 -20 56 -39 56 -44 0
-5 -19 -12 -42 -15 -41 -7 -45 -5 -85 38 -24 25 -43 50 -43 57 0 19 54 3 114
-36z m1214 -36 c79 -47 92 -52 144 -50 31 1 74 8 95 15 21 7 45 11 53 8 63
-21 65 -22 44 -36 -28 -20 -172 -49 -202 -41 -15 3 -61 22 -102 40 -89 40
-147 51 -189 37 -17 -6 -31 -8 -31 -4 0 12 74 82 88 82 7 0 52 -23 100 -51z
m-1350 27 c15 -8 35 -23 45 -34 17 -19 17 -20 -14 -32 -57 -24 -105 13 -85 66
7 18 20 18 54 0z m762 -86 c6 -38 20 -80 31 -94 25 -31 24 -41 -4 -63 -12 -10
-33 -33 -45 -50 -38 -54 -41 -49 -57 101 -6 51 -5 58 9 53 20 -8 21 9 1 20 -8
5 -17 22 -21 39 -5 26 -2 32 28 46 18 9 36 17 40 17 3 1 11 -30 18 -69z m-161
-2 c-2 -13 0 -28 4 -34 4 -7 9 -58 12 -115 3 -57 2 -98 -1 -91 -3 7 -82 51
-176 98 -93 46 -179 91 -191 100 -21 15 -18 16 48 11 49 -3 86 -12 122 -30 91
-47 166 -77 155 -64 -6 7 -45 31 -86 52 -42 22 -76 43 -76 47 0 7 32 17 115
37 67 15 77 14 74 -11z m1876 12 c7 -12 -39 -24 -60 -16 -8 3 -15 10 -15 16 0
13 67 13 75 0z m689 -12 c18 -26 14 -34 -19 -40 -22 -5 -25 -2 -25 22 0 45 20
53 44 18z m-518 -55 c7 -10 14 -24 14 -30 0 -19 -37 -16 -44 3 -16 42 5 60 30
27z m-2415 -23 c61 -35 161 -83 299 -146 72 -33 97 -49 104 -69 7 -18 6 -29
-2 -37 -14 -14 3 -22 -272 124 -85 45 -183 96 -217 113 -35 18 -60 35 -56 39
17 17 93 4 144 -24z m2977 18 c7 -7 12 -18 12 -26 0 -14 -43 -54 -91 -85 -29
-19 -29 -19 -29 2 0 31 27 92 48 107 22 17 45 17 60 2z m-3088 -74 c142 -77
199 -105 345 -170 148 -65 155 -72 141 -130 l-7 -25 -43 30 c-23 16 -78 49
-122 72 -43 23 -122 65 -174 93 -52 29 -129 68 -170 89 -41 20 -88 48 -105 61
l-30 25 40 0 c29 0 64 -13 125 -45z m-135 -35 c117 -69 307 -171 344 -184 20
-7 89 -39 154 -71 121 -60 130 -69 111 -119 -6 -14 -9 -14 -23 -2 -26 22 -201
118 -451 247 -249 128 -260 135 -260 156 0 26 55 14 125 -27z m2754 4 c7 -14
8 -29 4 -33 -28 -23 -81 -57 -95 -63 -38 -14 -8 66 38 102 34 27 38 26 53 -6z
m538 -13 c2 -8 0 -20 -5 -27 -14 -22 -326 -234 -426 -289 -174 -97 -236 -135
-236 -144 0 -20 33 -9 157 53 133 66 173 90 383 224 69 43 131 83 138 87 8 5
12 -1 12 -18 0 -19 -18 -40 -72 -86 -86 -71 -152 -113 -390 -251 -164 -94
-210 -129 -172 -129 36 0 381 191 516 286 42 30 81 54 87 54 23 0 10 -36 -23
-62 -116 -93 -533 -328 -581 -328 -9 0 -15 9 -15 24 0 14 -4 27 -9 30 -4 3
-14 27 -22 53 -7 27 -19 59 -26 73 -29 55 -19 73 62 114 42 21 113 61 157 88
45 27 111 63 147 79 35 16 83 44 105 62 71 58 180 127 196 125 8 -2 16 -10 17
-18z m-3387 -53 c234 -118 350 -190 350 -218 0 -19 -29 -6 -229 102 -225 121
-234 127 -225 141 8 13 48 3 104 -25z m2912 -4 c10 -9 18 -19 18 -24 0 -4 -35
-27 -77 -52 -145 -85 -184 -96 -149 -43 16 25 163 135 180 136 5 0 18 -7 28
-17z m-3034 -41 c20 -10 93 -49 161 -86 68 -37 139 -73 158 -81 62 -26 143
-86 143 -106 0 -10 -2 -19 -4 -19 -6 0 -308 161 -425 227 -58 32 -106 64 -109
71 -6 18 33 15 76 -6z m3117 -25 c10 -8 15 -19 12 -25 -14 -21 -308 -192 -332
-192 -4 0 -5 17 -3 37 3 36 6 39 98 88 53 27 114 62 135 78 44 30 63 33 90 14z
m-3181 -39 c39 -23 89 -54 111 -69 22 -14 112 -63 200 -109 156 -80 215 -120
215 -147 0 -22 -22 -15 -105 35 -44 27 -111 65 -150 87 -202 110 -255 141
-312 182 -104 74 -73 89 41 21z m-114 -28 c6 -11 32 -31 58 -46 26 -15 85 -50
132 -79 47 -28 152 -85 234 -125 139 -69 216 -122 216 -149 0 -35 -93 14 -510
267 -41 25 -94 56 -117 70 -35 19 -43 29 -43 53 0 33 14 38 30 9z m837 -137
c87 -43 161 -82 165 -88 11 -15 10 -63 -2 -70 -5 -3 -10 -2 -10 3 0 5 -66 44
-147 87 -162 85 -187 103 -177 128 3 9 8 17 10 17 2 0 75 -35 161 -77z m-737
-38 c57 -31 122 -69 145 -85 47 -33 176 -97 260 -130 l60 -24 -33 -7 c-18 -4
-86 -7 -152 -8 l-118 0 -71 66 c-75 69 -118 125 -70 90 110 -79 240 -152 259
-145 7 2 -13 21 -44 43 -31 22 -87 64 -125 92 -38 29 -102 69 -142 88 -70 33
-87 50 -88 85 -1 10 2 11 7 4 4 -7 54 -37 112 -69z m714 -55 c56 -27 122 -58
149 -69 26 -11 47 -27 47 -35 0 -8 3 -21 6 -30 5 -13 -1 -16 -34 -16 -22 0
-72 -7 -111 -16 -47 -11 -84 -14 -109 -8 -20 4 -41 6 -45 5 -5 -1 -6 3 -3 8 3
5 -1 15 -10 22 -17 14 -44 62 -44 79 0 17 16 12 113 -33 96 -45 153 -64 143
-49 -3 5 -64 43 -136 86 -88 53 -130 83 -130 95 0 39 8 37 164 -39z m-740 -8
c-5 -6 -53 32 -59 47 -3 7 10 0 28 -15 19 -16 33 -31 31 -32z m3596 8 c0 -5
-19 -23 -42 -40 -24 -17 -90 -64 -148 -106 -129 -92 -269 -182 -337 -217 -57
-28 -63 -25 -63 37 0 30 4 35 48 51 74 28 241 120 436 242 67 42 106 54 106
33z m-691 -223 c1 -21 -5 -30 -25 -37 -14 -6 -44 -19 -67 -29 -25 -12 -43 -15
-46 -10 -4 13 20 79 62 173 l32 70 22 -70 c12 -38 22 -81 22 -97z m-2999 92
c18 -18 43 -50 56 -71 16 -25 43 -47 83 -68 41 -20 70 -44 92 -75 18 -25 54
-59 80 -75 26 -16 66 -53 88 -82 47 -63 72 -79 166 -107 85 -25 158 -70 184
-112 19 -30 24 -69 50 -330 5 -59 19 -131 31 -160 19 -52 26 -99 15 -99 -27 0
-197 115 -312 212 -119 99 -122 114 -10 53 72 -40 93 -44 78 -17 -5 9 -57 42
-116 72 -74 38 -121 70 -152 103 -25 27 -43 50 -40 53 2 3 31 -11 63 -31 57
-34 201 -95 225 -95 30 0 -23 33 -158 100 -148 73 -220 126 -250 183 -16 33
-16 33 57 -18 47 -31 257 -137 298 -150 15 -4 22 -2 22 7 -1 7 -91 58 -201
113 -142 71 -208 109 -224 130 -29 39 -79 139 -94 190 -7 22 -20 56 -30 75
-10 19 -24 53 -31 75 -7 22 -20 56 -30 75 -10 19 -20 52 -24 73 l-7 38 29 -15
c17 -9 44 -30 62 -47z m3643 -10 c-24 -37 -101 -101 -162 -136 -60 -33 -122
-73 -253 -162 l-108 -72 0 43 0 44 113 63 c121 69 287 173 370 234 55 41 71
35 40 -14z m-41 -116 c-23 -43 -58 -79 -117 -116 -22 -15 -76 -53 -120 -86
-78 -59 -213 -153 -227 -159 -5 -2 -8 17 -8 42 0 37 4 48 23 59 199 121 369
231 410 268 29 26 53 43 55 39 2 -5 -6 -26 -16 -47z m-2494 -50 c18 -30 31
-57 30 -58 -2 -2 -46 14 -98 36 -52 21 -113 42 -135 46 l-40 7 50 12 c28 7 75
12 105 13 l55 1 33 -57z m-178 -9 c47 -19 119 -48 161 -65 80 -31 102 -48 114
-88 6 -18 4 -23 -6 -18 -8 3 -59 23 -114 45 -128 51 -368 152 -374 158 -2 2
27 4 65 4 56 0 85 -7 154 -36z m-247 7 c148 -65 299 -126 406 -163 115 -40
125 -45 132 -72 9 -34 2 -51 -14 -37 -7 5 -39 18 -72 29 -57 20 -394 157 -539
220 -38 16 -62 32 -55 35 30 12 102 6 142 -12z m-126 -42 c297 -129 572 -239
596 -239 6 0 28 -5 48 -10 31 -9 38 -16 44 -46 3 -20 5 -38 3 -40 -5 -4 -108
28 -188 59 -30 11 -118 51 -195 87 -77 37 -183 84 -235 105 -96 39 -200 100
-208 123 -6 19 10 15 135 -39z m2467 -5 c11 -30 6 -63 -12 -73 -10 -5 -49 -17
-87 -26 -38 -8 -83 -25 -102 -36 -29 -18 -33 -19 -33 -4 0 27 27 71 56 90 22
14 144 62 165 64 4 1 10 -6 13 -15z m516 -50 c0 -31 -128 -142 -262 -226
l-138 -87 0 37 c0 36 2 38 99 94 99 58 245 161 270 191 15 18 31 14 31 -9z
m-487 -140 c4 -61 3 -102 -3 -109 -8 -9 -6 -14 5 -19 15 -5 20 -43 9 -81 -5
-19 -84 -71 -84 -55 0 4 12 34 26 66 22 48 26 73 26 139 0 73 -2 81 -26 98
-14 10 -26 23 -26 28 0 10 52 39 61 33 3 -2 9 -47 12 -100z m-1707 27 c88 -43
139 -47 290 -25 36 5 44 3 63 -21 27 -35 27 -49 -1 -42 -13 4 -54 8 -93 11
l-70 5 50 -13 c28 -8 70 -15 94 -15 41 -1 81 -22 81 -42 0 -4 -17 -11 -37 -14
-21 -3 -85 -15 -143 -25 -207 -38 -215 -39 -223 -27 -11 17 -48 139 -43 144 2
2 19 -5 37 -16 51 -29 154 -61 196 -60 34 0 31 2 -31 20 -38 11 -102 35 -142
54 -64 29 -74 37 -74 59 0 31 -3 31 46 7z m-537 -27 c39 -32 320 -141 390
-150 36 -5 55 -13 62 -25 15 -29 -4 -32 -180 -33 l-156 -1 -3 28 c-3 24 0 28
15 24 59 -17 63 -15 18 9 -45 24 -167 129 -188 161 -14 22 10 14 42 -13z
m2627 -52 c-8 -16 -29 -43 -48 -61 -35 -34 -219 -151 -237 -151 -6 0 -11 13
-11 29 0 34 28 58 115 97 31 13 86 45 122 69 36 25 67 45 69 45 3 0 -2 -13
-10 -28z m-526 -25 c0 -28 -36 -137 -50 -151 -7 -7 -14 -6 -21 1 -19 19 31
173 58 173 7 0 13 -10 13 -23z m-1055 -187 c44 -60 45 -72 3 -62 -61 13 -448
5 -448 -9 0 -5 69 -10 153 -10 169 -2 203 -3 278 -13 68 -9 85 -19 97 -56 l11
-30 -39 0 c-22 0 -115 11 -207 25 -253 39 -261 40 -243 21 11 -11 71 -25 175
-42 255 -40 296 -46 313 -39 19 7 62 -32 62 -57 0 -11 -5 -16 -10 -13 -6 3
-43 3 -83 -1 -55 -6 -66 -9 -47 -15 20 -6 16 -8 -20 -8 -25 0 -113 -3 -196 -7
l-151 -7 -16 48 c-14 39 -14 45 -2 35 27 -23 366 -37 343 -15 -2 2 -85 12
-185 21 -105 10 -184 22 -187 28 -34 78 -73 187 -68 190 7 4 115 24 307 56 55
9 106 14 112 12 7 -2 29 -26 48 -52z m1209 -21 l6 -36 -107 -59 c-60 -33 -133
-70 -163 -83 -30 -13 -63 -30 -73 -39 -27 -24 -30 -8 -8 37 25 47 49 65 111
81 53 14 96 38 169 97 29 24 55 42 56 41 1 -2 5 -19 9 -39z m151 -59 c-27 -27
-52 -50 -56 -50 -4 0 -9 9 -12 20 -4 16 6 26 46 49 74 41 78 38 22 -19z
m-1904 13 c6 -16 13 -40 16 -55 l5 -28 -48 19 c-27 10 -94 31 -149 46 -55 15
-107 31 -115 36 -9 5 45 9 133 9 l147 0 11 -27z m-200 -38 c78 -25 147 -45
153 -45 37 0 84 -23 94 -46 7 -13 12 -27 12 -29 0 -2 -48 9 -107 25 -60 16
-144 38 -188 49 -113 30 -125 36 -125 66 0 14 4 25 9 25 5 0 74 -20 152 -45z
m1654 -25 c-3 -5 -11 -10 -16 -10 -6 0 -7 5 -4 10 3 6 11 10 16 10 6 0 7 -4 4
-10z m275 -45 c0 -61 -21 -79 -150 -128 -36 -14 -116 -45 -177 -71 -62 -25
-122 -46 -132 -46 -11 0 -26 -8 -33 -18 -19 -28 -44 -38 -159 -67 -57 -15
-110 -32 -117 -38 -10 -8 -16 -7 -23 4 -20 31 -12 35 151 78 116 31 145 44
249 114 83 55 185 107 256 131 28 10 66 28 85 41 45 30 50 30 50 0z m-1941
-16 c64 -16 136 -36 161 -44 25 -8 64 -19 87 -25 28 -7 49 -21 64 -42 l22 -31
-49 9 c-27 4 -110 9 -184 9 -150 1 -230 16 -230 45 0 16 9 15 133 -6 157 -28
202 -30 142 -9 -22 8 -47 15 -57 15 -9 0 -18 4 -20 10 -1 5 -48 19 -103 31
-97 21 -115 30 -115 57 0 18 21 15 149 -19z m951 -130 c7 -11 10 -23 8 -25 -9
-9 -377 -65 -438 -67 -59 -2 -65 0 -77 23 l-12 25 87 8 c48 5 152 19 232 32
186 29 187 29 200 4z m-991 -18 c39 -11 118 -21 183 -25 93 -4 103 -3 58 5
-124 22 -140 28 -65 24 39 -2 102 -11 142 -20 66 -16 72 -19 78 -47 4 -16 5
-31 3 -32 -10 -7 -266 18 -347 34 -90 18 -131 39 -131 67 0 16 -3 17 79 -6z
m1864 3 c-17 -45 -281 -192 -322 -179 -36 11 -24 25 57 61 91 41 233 113 247
125 15 14 25 10 18 -7z m-1790 -1 c-7 -2 -21 -2 -30 0 -10 3 -4 5 12 5 17 0
24 -2 18 -5z m987 -117 c0 -8 -12 -11 -32 -8 -18 2 -105 -6 -193 -19 -202 -28
-288 -30 -293 -8 -2 13 10 18 70 23 108 11 400 55 407 61 7 8 41 -33 41 -49z
m164 32 c23 -12 11 -21 -41 -33 -29 -6 -33 -3 -48 25 l-17 32 44 -7 c24 -4 52
-12 62 -17z m-1092 -48 c35 -5 116 -10 181 -10 116 0 118 0 129 -25 6 -14 9
-27 6 -30 -11 -11 -246 18 -336 41 -107 28 -152 48 -152 69 0 11 12 9 55 -10
30 -14 83 -29 117 -35z m957 -51 c6 -18 11 -35 11 -38 0 -3 -35 -7 -78 -8
-275 -6 -270 -7 -296 11 -14 9 -26 20 -26 25 0 10 74 20 215 28 61 3 112 7
114 9 2 2 14 4 27 4 16 0 25 -9 33 -31z m-959 -18 c153 -30 323 -47 328 -33 5
17 22 15 22 -2 0 -8 6 -16 14 -19 8 -3 20 -15 26 -27 11 -20 9 -20 -62 -14
-211 16 -460 75 -467 109 -2 14 2 17 20 11 13 -4 67 -15 119 -25z m1380 10 c0
-25 -144 -98 -227 -116 -28 -6 -34 -3 -44 19 -19 41 -7 51 80 65 44 6 98 18
118 26 45 16 73 18 73 6z m-807 -41 l22 -22 -42 4 c-24 2 -43 0 -43 -4 0 -14
-23 -9 -42 9 -10 9 -18 23 -18 31 0 24 96 10 123 -18z m-604 -52 c41 -10 82
-23 90 -27 19 -10 199 -31 295 -34 60 -2 71 -5 85 -26 l16 -24 -80 6 c-174 13
-515 96 -515 125 0 9 6 12 18 7 9 -4 50 -16 91 -27z m751 12 c0 -12 37 -13 44
-1 8 12 233 14 241 1 4 -6 -13 -11 -47 -12 -57 -1 -69 -2 -169 -13 -62 -7 -68
-6 -78 14 -8 14 -8 21 -1 21 5 0 10 -4 10 -10z m-161 -14 c68 -15 80 -36 21
-36 -25 0 -39 -4 -35 -10 3 -5 2 -10 -3 -10 -7 0 -16 14 -40 63 -4 8 -9 9 57
-7z m472 -41 c1 -13 -79 -33 -161 -41 -54 -5 -68 -4 -79 10 -8 9 -12 19 -9 21
3 3 52 8 109 11 57 4 106 8 109 11 8 7 31 -2 31 -12z m-367 -43 c14 -8 -28
-20 -75 -21 -49 -1 -62 26 -16 31 37 4 76 0 91 -10z m360 -757 c24 -10 42 -12
54 -6 18 9 120 3 126 -8 3 -4 -42 -26 -99 -50 -57 -24 -114 -55 -127 -69 l-23
-24 32 7 c37 7 199 72 261 104 52 27 92 28 92 3 0 -39 -304 -157 -490 -190
-60 -11 -57 -11 -146 -16 -33 -1 -66 -6 -72 -10 -7 -4 -12 -1 -12 8 0 12 -57
34 -64 24 -9 -13 -66 -218 -66 -236 0 -21 -3 -23 -32 -17 -43 9 -59 24 -32 31
15 4 24 22 37 72 10 37 28 88 41 115 13 26 21 49 17 51 -3 2 -24 9 -46 16 -22
7 -53 25 -70 40 -16 15 -45 37 -62 49 -18 12 -33 29 -33 37 0 18 41 18 66 -1
23 -17 44 -19 44 -4 0 16 31 38 53 39 9 0 17 -5 17 -10 0 -18 -52 -60 -64 -53
-6 4 -5 -1 3 -11 42 -51 188 -91 301 -83 125 10 181 26 217 62 37 37 40 53 18
96 -26 49 -6 61 59 34z m461 -85 c10 -17 -348 -186 -436 -205 -19 -4 -60 -16
-92 -26 -83 -26 -224 -52 -278 -50 -55 2 -67 -9 -71 -69 -3 -41 -6 -45 -30
-48 -31 -4 -34 6 -14 46 7 15 16 45 20 67 8 49 26 95 36 95 4 0 10 -9 13 -21
5 -19 11 -20 69 -14 119 10 397 77 504 121 59 24 156 74 183 95 25 20 86 26
96 9z m-1194 -42 c47 -37 53 -46 39 -68 -8 -12 -18 -6 -60 35 -27 27 -50 53
-50 57 0 17 30 7 71 -24z m-117 -37 c21 -22 27 -34 19 -42 -7 -7 -21 2 -47 34
-20 24 -36 47 -36 51 0 12 34 -11 64 -43z m1405 26 c13 -16 5 -27 -19 -27 -9
0 -44 -17 -77 -39 -33 -21 -88 -51 -122 -66 -43 -20 -59 -31 -51 -39 5 -5 10
-15 10 -22 0 -13 -51 -34 -83 -34 -18 0 -17 3 9 25 31 27 29 30 -10 15 -18 -7
-26 -17 -26 -35 0 -19 -6 -26 -27 -31 -47 -10 -174 -42 -240 -61 -41 -11 -66
-14 -72 -8 -16 16 1 33 34 36 17 2 36 8 43 13 7 5 59 21 116 36 56 14 116 35
132 46 16 12 85 51 154 89 69 38 143 79 165 92 47 27 49 27 64 10z m-1525 -32
c3 -8 1 -15 -3 -15 -5 0 -11 7 -15 15 -3 8 -1 15 3 15 5 0 11 -7 15 -15z m383
-36 c9 -9 8 -20 -3 -43 -7 -17 -21 -57 -29 -88 -13 -44 -21 -58 -35 -58 -10 0
-22 4 -25 10 -10 17 15 90 35 103 24 14 26 42 5 51 -21 8 -7 36 19 36 12 0 27
-5 33 -11z m1143 -9 c-16 -29 -68 -64 -134 -89 -32 -12 -61 -20 -62 -18 -2 2
33 22 79 45 46 22 91 50 102 61 23 26 29 27 15 1z m-1291 -14 c14 -17 4 -69
-12 -63 -19 6 -50 54 -43 66 10 15 41 14 55 -3z m-404 -38 c-11 -36 -25 -45
-25 -17 0 27 7 39 22 39 5 0 6 -10 3 -22z m125 -3 c0 -14 -4 -25 -10 -25 -5 0
-10 11 -10 25 0 14 5 25 10 25 6 0 10 -11 10 -25z m139 -6 c18 -24 20 -33 10
-45 -10 -13 -14 -12 -30 2 -19 17 -27 74 -11 74 5 0 18 -14 31 -31z m116 -78
c-8 -26 -27 -27 -50 -1 -17 19 -17 21 0 40 18 20 19 20 38 2 13 -13 17 -27 12
-41z m-295 9 c0 -13 -7 -20 -20 -20 -23 0 -26 10 -8 28 18 18 28 15 28 -8z
m176 -61 c12 -20 -11 -29 -48 -18 -47 12 -55 25 -33 49 17 19 18 19 46 -1 16
-11 31 -25 35 -30z m83 -10 c30 -11 41 -32 21 -44 -11 -7 -80 21 -80 33 0 23
15 26 59 11z m139 -9 c38 -23 41 -35 10 -43 -37 -10 -68 3 -68 27 0 41 12 44
58 16z m472 -14 c0 -25 -20 -36 -51 -28 -26 6 -11 40 20 45 14 2 27 5 29 6 1
0 2 -10 2 -23z m-112 -8 c-2 -18 -11 -24 -35 -26 -27 -3 -33 0 -33 16 0 26 8
32 42 32 25 0 29 -4 26 -22z"/>
<path d="M2918 8973 c7 -3 16 -2 19 1 4 3 -2 6 -13 5 -11 0 -14 -3 -6 -6z"/>
<path d="M3977 8403 c7 -21 53 -73 65 -73 4 0 8 8 8 18 0 20 -21 42 -57 61
-20 10 -22 9 -16 -6z"/>
<path d="M3830 8356 c0 -17 58 -61 68 -52 3 4 0 19 -9 34 -16 30 -59 43 -59
18z"/>
<path d="M3750 8275 c7 -9 15 -13 17 -11 7 7 -7 26 -19 26 -6 0 -6 -6 2 -15z"/>
<path d="M4090 8278 c0 -18 10 -29 53 -61 l37 -28 -12 28 c-23 54 -78 97 -78
61z"/>
<path d="M3950 8255 c-10 -12 -10 -15 3 -15 19 0 31 16 18 24 -5 3 -14 -1 -21
-9z"/>
<path d="M4030 8202 c0 -14 40 -72 50 -72 14 0 12 17 -6 45 -15 23 -44 41 -44
27z"/>
<path d="M3960 8111 c0 -21 23 -45 33 -34 13 12 7 41 -9 47 -23 9 -24 8 -24
-13z"/>
<path d="M4225 8110 c-9 -15 18 -64 37 -68 22 -4 35 42 18 63 -14 17 -46 20
-55 5z"/>
<path d="M4130 8056 c0 -16 58 -62 67 -53 11 12 -6 36 -36 52 -27 13 -31 13
-31 1z"/>
<path d="M4294 7996 c-19 -14 -19 -15 2 -43 26 -35 39 -32 39 8 0 39 -16 53
-41 35z"/>
<path d="M4050 7985 c0 -18 24 -30 40 -20 8 5 8 11 -1 21 -15 19 -39 18 -39
-1z"/>
<path d="M3511 7923 c13 -21 39 -63 60 -93 20 -30 41 -64 47 -75 7 -12 12 -15
12 -6 0 8 -30 58 -66 112 -66 98 -97 133 -53 62z"/>
<path d="M4206 7942 c-8 -13 18 -57 37 -60 23 -5 22 30 -1 51 -21 19 -28 21
-36 9z"/>
<path d="M4126 7891 c-11 -17 12 -61 29 -55 19 8 19 28 -1 48 -18 19 -21 19
-28 7z"/>
<path d="M4355 7880 c-8 -24 20 -73 38 -67 19 6 20 47 1 68 -22 24 -31 24 -39
-1z"/>
<path d="M4270 7847 c0 -17 41 -97 50 -97 20 0 9 41 -20 72 -16 18 -30 29 -30
25z"/>
<path d="M4180 7776 c0 -16 38 -66 51 -66 16 0 10 26 -12 54 -22 28 -39 34
-39 12z"/>
<path d="M4420 7756 c0 -8 8 -24 19 -37 l18 -23 12 23 c10 17 10 26 0 37 -15
18 -49 18 -49 0z"/>
<path d="M3530 7731 c0 -6 4 -13 10 -16 6 -3 7 1 4 9 -7 18 -14 21 -14 7z"/>
<path d="M4330 7702 c0 -21 18 -42 37 -42 16 0 17 32 1 48 -18 18 -38 15 -38
-6z"/>
<path d="M4240 7674 c0 -24 28 -66 40 -59 12 8 1 41 -21 61 -18 16 -19 16 -19
-2z"/>
<path d="M2826 6455 c4 -8 10 -12 15 -9 14 8 10 24 -6 24 -9 0 -12 -6 -9 -15z"/>
<path d="M2900 6419 c0 -30 -11 -74 -52 -200 -21 -66 -19 -104 5 -97 12 5 50
131 67 228 5 30 12 65 16 78 5 18 2 22 -15 22 -17 0 -21 -6 -21 -31z"/>
<path d="M2971 6248 c-49 -205 -56 -241 -47 -265 6 -16 8 -16 16 -3 7 13 100
416 100 434 0 3 -6 6 -14 6 -9 0 -26 -53 -55 -172z"/>
<path d="M2787 6383 c-4 -3 -7 -36 -7 -72 l1 -66 19 50 c23 58 26 95 7 95 -8
0 -17 -3 -20 -7z"/>
<path d="M3087 6231 c-33 -104 -77 -297 -77 -343 0 -10 6 -18 14 -18 15 0 24
33 51 190 8 52 25 137 36 188 12 51 19 95 17 97 -1 1 -20 -50 -41 -114z"/>
<path d="M3136 5953 c-14 -74 -17 -118 -7 -103 12 17 26 118 18 126 -3 3 -8
-7 -11 -23z"/>
<path d="M940 7875 c0 -8 2 -15 4 -15 2 0 12 -3 21 -7 15 -5 16 -3 6 15 -13
25 -31 29 -31 7z"/>
<path d="M875 6471 c19 -22 66 -51 81 -51 4 0 -11 13 -32 28 -59 42 -71 48
-49 23z"/>
<path d="M899 6366 c6 -8 26 -19 44 -26 18 -7 67 -30 109 -51 43 -22 90 -44
105 -49 l28 -10 -22 19 c-12 10 -66 38 -120 61 -54 24 -107 49 -118 56 -25 18
-41 18 -26 0z"/>
<path d="M960 6245 c0 -17 311 -185 342 -185 20 1 -19 26 -132 87 -189 102
-210 112 -210 98z"/>
<path d="M5776 9422 c-3 -6 1 -15 8 -21 8 -7 17 -8 20 -3 3 6 -1 15 -8 21 -8
7 -17 8 -20 3z"/>
<path d="M4087 9403 c-12 -12 -7 -50 8 -63 9 -7 41 -18 72 -24 l57 -12 -63
-68 c-61 -65 -62 -68 -45 -87 9 -10 23 -19 30 -19 18 0 202 177 210 202 11 35
-17 49 -127 63 -121 17 -133 17 -142 8z"/>
<path d="M4918 9385 c-2 -2 -43 -6 -93 -8 -95 -6 -109 -14 -82 -50 17 -24 175
-40 227 -23 29 9 36 16 38 44 3 29 1 32 -25 33 -15 0 -36 2 -45 4 -9 2 -18 2
-20 0z"/>
<path d="M7179 9356 c-2 -2 -51 -6 -109 -9 -285 -17 -663 -99 -895 -194 -118
-49 -262 -126 -371 -198 -127 -85 -323 -267 -419 -389 -311 -400 -407 -861
-274 -1316 46 -158 167 -399 258 -514 36 -45 35 -63 -7 -181 -94 -266 -272
-497 -489 -639 -57 -37 -105 -71 -108 -76 -9 -15 7 -40 36 -55 34 -18 189 -20
306 -4 295 39 688 187 962 363 61 39 69 41 140 40 56 0 89 -6 125 -22 27 -12
63 -22 82 -22 38 0 64 -22 64 -54 0 -27 18 -46 42 -46 14 0 18 8 18 40 0 31 4
40 18 40 23 0 81 -36 88 -55 8 -19 33 -19 40 0 4 11 21 15 58 15 64 0 71 -6
79 -54 7 -46 11 -50 33 -42 13 5 15 14 10 41 -8 42 5 51 59 41 28 -6 35 -11
35 -31 0 -42 18 -75 41 -75 19 0 21 5 17 50 l-3 51 45 -3 c40 -3 45 -6 48 -28
7 -60 12 -70 39 -70 25 0 26 1 20 51 l-6 50 37 -3 c37 -3 37 -4 40 -50 3 -40
6 -48 23 -48 16 0 19 7 19 54 0 44 3 56 19 61 33 10 48 -5 60 -61 11 -47 15
-54 37 -54 23 0 24 3 24 70 0 49 4 70 13 70 25 0 39 -19 56 -76 14 -48 21 -60
41 -62 23 -4 23 -3 16 71 -7 74 -6 75 19 81 36 9 42 3 54 -55 15 -69 27 -89
55 -89 33 0 37 18 20 91 -8 34 -13 63 -12 65 2 1 19 5 38 9 l36 6 13 -53 c24
-92 41 -116 71 -98 11 7 12 22 2 82 -6 40 -8 76 -4 79 4 4 21 10 37 13 l30 6
20 -82 c17 -72 23 -83 40 -80 11 2 23 7 27 11 7 6 -2 84 -17 142 -6 23 -3 28
26 38 18 6 33 10 34 9 2 -2 10 -29 19 -61 30 -105 33 -109 57 -96 21 11 21 16
15 99 -6 75 -4 89 10 94 36 14 43 6 59 -67 20 -91 26 -101 55 -92 21 7 22 11
16 69 -3 33 -9 80 -12 102 -6 39 -5 42 22 48 16 4 31 7 33 7 3 0 14 -37 25
-83 18 -71 24 -83 44 -86 20 -3 22 1 22 36 0 40 -14 124 -25 153 -5 12 2 20
26 28 18 6 33 10 34 9 1 -2 10 -32 20 -68 21 -80 31 -100 50 -100 19 0 19 44
0 130 -8 36 -14 68 -15 71 0 5 45 29 54 29 2 0 14 -41 26 -90 23 -92 35 -113
52 -89 9 14 5 135 -7 195 -6 26 -3 32 20 42 14 7 28 12 30 12 2 0 9 -27 16
-60 6 -33 18 -68 25 -77 13 -17 15 -17 30 2 13 16 15 36 10 107 l-7 86 30 21
30 22 11 -43 c27 -110 30 -118 52 -118 20 0 21 3 14 108 l-7 109 56 47 55 48
1 -29 c0 -15 2 -38 5 -51 2 -13 0 -21 -5 -18 -5 3 -11 -7 -14 -22 -3 -15 -8
-37 -12 -49 -13 -41 18 -25 54 27 32 47 34 56 36 139 2 88 12 121 39 121 7 0
26 30 44 68 49 103 165 320 159 297 -16 -70 -111 -365 -127 -395 -23 -46 -36
-110 -22 -110 17 0 98 156 136 260 53 149 113 376 126 482 16 124 27 366 18
381 -3 7 -11 57 -17 112 -7 55 -19 126 -27 160 -37 146 -142 361 -233 480 -57
75 -230 251 -293 299 -129 97 -352 215 -548 291 -158 60 -435 123 -665 150
-114 13 -444 21 -456 11z m431 -155 c166 -15 324 -39 380 -56 25 -7 79 -23
120 -36 107 -31 281 -100 378 -149 168 -84 238 -142 262 -217 24 -72 57 -89
46 -23 -9 57 7 52 78 -22 70 -75 95 -113 89 -137 -2 -9 14 -73 35 -141 82
-258 192 -767 192 -889 0 -17 6 -36 14 -43 8 -8 10 -19 5 -28 -4 -8 -17 -46
-29 -85 -30 -99 -138 -285 -249 -430 -81 -106 -230 -245 -336 -314 -98 -63
-278 -161 -322 -175 -21 -7 -23 -4 -23 33 0 34 -3 41 -20 41 -15 0 -20 -7 -20
-24 0 -14 5 -28 10 -31 23 -14 6 -35 -52 -64 -33 -17 -69 -31 -79 -31 -9 0
-41 -11 -71 -25 -29 -14 -58 -25 -65 -25 -7 0 -13 20 -15 53 -3 44 -6 52 -23
52 -18 0 -20 -7 -20 -60 0 -57 -1 -59 -30 -67 -218 -54 -239 -58 -246 -46 -6
10 -11 9 -21 -5 -10 -13 -31 -19 -83 -22 -39 -3 -100 -8 -137 -11 l-68 -7 0
62 c0 46 -3 62 -12 59 -16 -6 -23 -69 -9 -78 7 -4 4 -14 -9 -28 -16 -17 -32
-22 -74 -22 l-54 0 10 40 c8 30 7 44 -2 55 -20 24 -30 -1 -23 -51 l5 -42 -45
-7 c-24 -4 -53 -5 -63 -3 -19 4 -20 9 -8 79 4 28 2 38 -10 42 -23 9 -39 -27
-31 -72 6 -34 4 -39 -17 -44 -13 -4 -40 -4 -61 0 -33 5 -38 9 -33 27 17 56 18
77 5 92 -12 14 -14 14 -26 -2 -16 -21 -17 -68 -3 -95 10 -17 7 -19 -35 -19
-42 0 -262 39 -348 61 -32 9 -36 13 -31 33 3 13 1 27 -5 30 -7 5 -11 -4 -11
-23 0 -17 -1 -31 -3 -31 -14 0 -156 44 -178 56 l-30 15 41 48 c44 52 58 101
19 65 -12 -10 -31 -39 -44 -64 -21 -41 -28 -46 -75 -57 -49 -12 -101 -38 -396
-202 -138 -76 -310 -144 -479 -187 -131 -34 -165 -40 -165 -28 0 4 37 46 83
93 46 48 107 122 136 164 65 97 166 324 194 434 l20 83 -32 61 c-18 34 -31 63
-29 64 2 2 49 24 106 51 135 62 120 79 -21 24 -58 -23 -111 -39 -118 -35 -6 4
-28 35 -49 68 l-39 60 93 38 c120 48 176 77 176 90 0 17 -50 4 -167 -41 -116
-46 -128 -47 -143 -21 -23 44 -14 57 64 85 119 42 246 97 246 107 0 21 -70 6
-196 -41 -74 -27 -138 -50 -142 -50 -11 0 -32 46 -32 70 0 12 7 20 18 20 29 1
325 134 330 149 7 23 -58 5 -212 -55 -76 -31 -144 -53 -151 -50 -16 6 -25 74
-11 85 6 4 40 18 76 31 104 36 257 112 237 117 -19 5 -75 -12 -226 -69 -57
-21 -106 -37 -108 -34 -3 3 -8 25 -10 49 l-5 44 173 69 c167 67 212 94 154 94
-33 0 -180 -49 -269 -89 l-66 -30 0 78 0 77 68 24 c172 60 344 150 286 150
-15 0 -264 -99 -316 -126 l-28 -15 0 49 c0 26 6 56 13 65 6 9 55 33 107 53
122 46 290 131 290 145 0 21 -64 2 -211 -61 -79 -34 -149 -64 -155 -67 -13 -5
-4 61 12 90 5 9 79 50 163 91 84 41 158 79 164 85 27 27 -59 7 -173 -40 -67
-28 -124 -48 -127 -45 -3 3 5 27 18 53 30 61 88 99 229 154 115 44 154 65 145
79 -6 9 -178 -47 -249 -81 -22 -10 -41 -17 -43 -15 -9 9 38 85 66 109 17 14
61 35 98 47 94 31 213 86 213 99 0 16 -13 14 -132 -19 -60 -16 -108 -25 -108
-19 0 18 158 167 259 243 267 201 504 303 923 396 70 15 184 31 363 50 96 10
393 5 545 -9z m1480 -777 c57 -98 124 -312 155 -492 24 -140 18 -382 -9 -409
-11 -11 -13 1 -20 107 -12 215 -61 437 -165 760 l-50 155 30 -35 c17 -19 43
-58 59 -86z"/>
<path d="M6914 9075 c-9 -21 3 -45 21 -45 20 0 20 46 0 54 -9 3 -18 -1 -21 -9z"/>
<path d="M7490 9066 c0 -25 25 -43 35 -25 10 15 -5 49 -21 49 -8 0 -14 -10
-14 -24z"/>
<path d="M6797 9054 c-4 -4 -7 -18 -7 -31 0 -18 5 -24 18 -21 10 2 17 12 17
27 0 24 -15 37 -28 25z"/>
<path d="M7726 9013 c-12 -12 -6 -33 9 -33 8 0 15 6 15 14 0 17 -14 28 -24 19z"/>
<path d="M8479 8922 c-8 -56 31 -206 56 -216 19 -7 19 14 0 101 -9 37 -17 78
-20 89 -5 21 -34 42 -36 26z"/>
<path d="M6908 8915 c-3 -3 -3 -15 -1 -26 7 -26 38 -21 38 6 0 19 -25 32 -37
20z"/>
<path d="M8360 8891 c0 -32 19 -71 34 -71 23 0 26 25 5 59 -21 35 -39 40 -39
12z"/>
<path d="M8600 8828 c0 -35 46 -124 76 -148 16 -14 17 -13 11 17 -9 46 -64
163 -76 163 -6 0 -11 -15 -11 -32z"/>
<path d="M7198 8597 c-31 -25 -29 0 -43 -442 -17 -544 -17 -572 -1 -603 30
-59 44 -62 214 -57 85 3 163 10 173 16 10 5 26 23 34 39 14 27 14 33 0 60 -22
42 -49 50 -167 50 l-101 0 7 273 c4 149 9 342 12 429 7 169 -1 216 -39 243
-30 21 -57 19 -89 -8z"/>
<path d="M5951 8586 c-28 -29 -28 -28 -41 -409 -5 -165 -12 -302 -15 -307 -10
-16 -6 -329 5 -349 24 -46 101 -34 127 20 7 14 17 110 24 215 6 104 12 190 14
192 8 8 191 12 201 5 8 -6 9 -61 4 -192 -8 -187 -4 -229 26 -262 22 -24 51
-24 90 0 32 19 32 20 38 123 3 57 8 189 11 293 3 105 10 247 16 316 16 181 9
331 -15 358 -27 29 -81 28 -100 -1 -14 -22 -46 -315 -46 -424 l0 -45 -107 3
-108 3 0 218 0 219 -28 24 c-36 31 -67 31 -96 0z"/>
<path d="M6648 8600 c-10 -6 -22 -27 -28 -48 -19 -70 -53 -884 -39 -970 3 -24
13 -50 22 -59 24 -24 91 -32 237 -27 109 4 140 8 160 23 32 23 38 69 11 102
-18 22 -27 24 -139 29 -66 3 -124 9 -128 13 -9 9 -9 27 -5 198 l3 107 45 6
c25 3 63 6 83 6 45 0 84 28 99 70 9 26 7 34 -9 50 -24 24 -82 40 -147 40 l-53
0 0 63 c0 34 3 106 7 160 l6 97 115 -1 c99 -1 118 1 141 18 37 28 39 72 6 103
-26 24 -31 25 -198 28 -105 1 -179 -2 -189 -8z"/>
<path d="M7739 8591 c-26 -21 -37 -93 -39 -241 0 -47 -5 -119 -10 -160 -22
-161 -30 -261 -36 -425 -10 -269 -6 -274 254 -272 159 2 164 3 183 26 24 30
25 83 1 104 -10 10 -40 21 -65 26 -26 5 -50 9 -52 10 -3 0 -39 1 -81 1 l-76 0
6 43 c3 23 6 83 7 132 1 50 8 160 15 245 8 85 17 227 20 315 6 154 6 161 -16
188 -26 33 -76 37 -111 8z"/>
<path d="M8409 8580 c-92 -48 -165 -170 -211 -350 -39 -153 -51 -410 -23 -505
58 -201 180 -280 323 -209 115 57 184 191 217 426 25 178 14 352 -30 478 -50
142 -174 214 -276 160z m102 -163 c29 -40 40 -98 46 -237 9 -233 -44 -472
-114 -513 -39 -22 -64 -12 -90 36 -15 27 -18 59 -18 222 1 207 16 298 70 421
42 96 73 116 106 71z"/>
<path d="M8840 8546 c0 -7 7 -30 15 -49 20 -48 105 -360 144 -527 45 -192 80
-424 88 -572 5 -113 14 -162 26 -148 9 10 -13 411 -27 504 -29 182 -169 717
-207 789 -11 20 -39 23 -39 3z"/>
<path d="M8916 7854 c3 -38 11 -114 19 -169 8 -55 17 -131 20 -169 6 -72 20
-111 35 -101 9 6 3 151 -6 167 -3 4 -7 36 -9 70 -5 61 -47 253 -59 265 -3 3
-3 -25 0 -63z"/>
<path d="M8856 7515 c4 -8 10 -12 15 -9 14 8 10 24 -6 24 -9 0 -12 -6 -9 -15z"/>
<path d="M8514 7358 c-16 -13 -35 -29 -42 -38 -22 -26 -69 -133 -76 -175 -14
-81 2 -75 -187 -75 -161 0 -169 -1 -169 -19 0 -29 38 -51 87 -51 24 0 43 -3
43 -6 0 -3 -11 -30 -25 -60 -31 -68 -31 -75 -1 -70 50 9 96 49 115 99 10 26
14 28 63 25 l53 -3 -3 -85 c-2 -47 -8 -103 -14 -125 -6 -22 -11 -56 -12 -75
-1 -32 1 -35 28 -35 43 0 61 39 81 170 9 61 19 120 21 133 4 21 9 22 89 22
l85 0 0 28 c0 43 -17 52 -97 52 l-74 0 7 38 c14 79 45 142 85 174 78 63 22
137 -57 76z"/>
<path d="M6999 7320 c-20 -19 -29 -38 -27 -52 4 -28 71 -68 114 -68 30 0 64
25 64 47 0 18 -88 103 -105 103 -9 0 -30 -13 -46 -30z"/>
<path d="M8968 7278 c-3 -55 4 -78 24 -78 5 0 8 31 7 68 -1 49 -5 69 -14 69
-9 0 -14 -19 -17 -59z"/>
<path d="M6700 7271 c-15 -30 -4 -42 74 -80 57 -27 76 -45 76 -71 0 -5 -39 -9
-86 -9 -47 0 -89 -3 -93 -5 -4 -3 -31 -6 -60 -7 -60 -3 -69 -11 -47 -44 18
-28 20 -65 6 -117 -7 -23 -7 -50 -2 -70 8 -30 9 -26 15 39 4 39 9 78 13 86 8
22 74 37 167 37 l86 0 -16 -47 c-24 -69 -115 -158 -170 -168 -25 -4 -50 -2
-62 4 -27 15 -27 15 -40 -17 -9 -21 -9 -36 -1 -57 10 -27 12 -28 73 -23 120
10 235 94 276 202 11 31 21 67 21 80 0 28 21 36 97 36 72 0 103 13 103 44 0
32 -17 37 -118 32 -78 -3 -82 -2 -82 18 -1 66 -87 141 -178 153 -34 5 -42 2
-52 -16z"/>
<path d="M7522 7247 c-48 -18 -102 -65 -118 -103 -18 -43 -18 -109 1 -127 12
-13 12 -16 -8 -21 -12 -3 -52 -3 -89 1 -67 6 -68 5 -78 -21 -5 -15 -8 -32 -5
-37 14 -22 93 -31 205 -23 63 4 187 7 276 5 157 -3 161 -3 167 18 13 49 -1 61
-69 61 -34 0 -66 5 -69 10 -4 6 -1 9 6 8 19 -5 31 57 19 102 -15 56 -62 105
-117 124 -54 19 -76 19 -121 3z m109 -94 c21 -12 32 -30 39 -58 6 -22 14 -52
19 -67 l9 -28 -51 0 c-29 0 -82 3 -119 6 -57 6 -66 9 -59 23 5 9 12 37 15 64
6 37 13 50 34 62 36 19 78 19 113 -2z"/>
<path d="M6152 7220 c-7 -11 -19 -20 -28 -20 -13 0 -12 -5 5 -34 23 -37 26
-72 10 -129 l-10 -38 -57 3 -57 3 1 98 c1 94 1 97 -21 97 -12 0 -34 -11 -48
-24 -36 -33 -46 -149 -23 -255 26 -122 65 -156 153 -133 25 7 59 22 74 33 24
17 38 19 86 14 74 -7 100 6 135 70 31 56 36 106 13 125 -23 19 -43 5 -51 -37
-9 -51 -30 -73 -71 -73 -43 0 -48 14 -34 96 17 92 16 205 -1 215 -24 15 -63
10 -76 -11z m-54 -309 c-4 -21 -51 -46 -71 -38 -11 4 -17 18 -17 40 l0 34 45
-10 c33 -8 45 -15 43 -26z"/>
<path d="M8848 7157 c-12 -29 -10 -73 3 -60 6 6 9 26 7 44 -2 26 -5 30 -10 16z"/>
<path d="M8950 7110 c0 -13 5 -18 15 -14 8 4 15 12 15 20 0 8 -7 14 -15 14 -8
0 -15 -9 -15 -20z"/>
<path d="M7492 6844 c-29 -14 -61 -37 -72 -51 -65 -82 33 -193 170 -193 91 0
180 46 180 92 0 23 -40 24 -100 3 -65 -23 -122 -20 -149 8 -12 14 -19 31 -16
40 15 39 135 53 194 23 37 -20 51 -14 51 20 0 76 -153 111 -258 58z"/>
<path d="M5630 6745 c-14 -8 -20 -14 -15 -14 6 0 21 6 35 14 14 8 21 14 15 14
-5 0 -21 -6 -35 -14z"/>
<path d="M6362 6594 c2 -11 11 -20 22 -22 13 -3 17 1 14 14 -2 11 -11 20 -22
22 -13 3 -17 -1 -14 -14z"/>
<path d="M7895 6590 c3 -5 8 -10 11 -10 2 0 4 5 4 10 0 6 -5 10 -11 10 -5 0
-7 -4 -4 -10z"/>
<path d="M6128 6483 c-21 -24 -51 -84 -45 -89 7 -7 77 80 77 95 0 16 -15 14
-32 -6z"/>
<path d="M8043 6464 c-7 -20 8 -66 24 -71 17 -6 27 55 13 72 -16 19 -29 19
-37 -1z"/>
<path d="M7757 6391 c-7 -34 5 -83 21 -89 8 -2 12 11 12 41 0 25 3 52 6 61 4
11 0 16 -14 16 -14 0 -21 -9 -25 -29z"/>
<path d="M6728 6373 c-3 -21 -2 -60 1 -88 l7 -50 7 49 c10 66 9 126 -2 126 -4
0 -11 -17 -13 -37z"/>
<path d="M7597 6358 c-5 -39 1 -60 17 -55 18 6 20 87 3 87 -9 0 -17 -13 -20
-32z"/>
<path d="M6576 6354 c-10 -26 -7 -51 8 -63 11 -9 15 -5 20 24 7 35 2 55 -14
55 -4 0 -11 -7 -14 -16z"/>
<path d="M4464 9209 c-111 -126 -115 -135 -71 -163 20 -13 57 20 164 148 69
82 73 89 60 110 -8 11 -21 22 -30 24 -8 2 -59 -47 -123 -119z"/>
<path d="M5079 9291 c-25 -15 -78 -65 -118 -111 -67 -76 -71 -83 -58 -103 7
-11 18 -22 24 -24 13 -5 233 223 233 241 0 11 -20 26 -34 26 -1 0 -22 -13 -47
-29z"/>
<path d="M5820 9260 c0 -5 7 -10 16 -10 8 0 12 5 9 10 -3 6 -10 10 -16 10 -5
0 -9 -4 -9 -10z"/>
<path d="M4623 9137 c-77 -77 -89 -108 -52 -128 18 -9 26 -6 56 23 67 63 132
148 127 163 -4 8 -18 15 -32 15 -18 0 -46 -20 -99 -73z"/>
<path d="M5325 9050 c-3 -5 -1 -10 4 -10 6 0 11 5 11 10 0 6 -2 10 -4 10 -3 0
-8 -4 -11 -10z"/>
<path d="M4629 8907 c-72 -43 -103 -73 -96 -90 4 -10 13 -20 21 -23 27 -11
126 86 126 124 0 16 -8 14 -51 -11z"/>
<path d="M4703 8777 c-80 -78 -94 -97 -89 -115 13 -39 43 -24 128 61 114 114
112 111 93 131 -9 9 -21 16 -26 16 -6 0 -53 -42 -106 -93z"/>
<path d="M5302 8848 c6 -18 28 -21 28 -4 0 9 -7 16 -16 16 -9 0 -14 -5 -12
-12z"/>
<path d="M4766 8589 c-48 -54 -59 -92 -28 -104 13 -5 32 9 75 56 61 66 68 92
26 97 -21 2 -36 -8 -73 -49z"/>
<path d="M10160 8590 c0 -5 7 -10 16 -10 8 0 12 5 9 10 -3 6 -10 10 -16 10 -5
0 -9 -4 -9 -10z"/>
<path d="M4882 8488 c-16 -16 -15 -43 3 -58 13 -10 19 -9 36 6 11 10 19 27 17
38 -3 24 -37 33 -56 14z"/>
<path d="M9505 7889 c-10 -15 3 -25 16 -12 7 7 7 13 1 17 -6 3 -14 1 -17 -5z"/>
<path d="M9496 7788 c-3 -18 -8 -95 -12 -171 l-7 -138 30 3 30 2 7 90 c13 182
5 246 -28 246 -8 0 -16 -15 -20 -32z"/>
<path d="M9450 7374 c0 -9 -18 -88 -40 -176 -39 -152 -41 -178 -19 -178 18 0
66 123 88 230 30 140 30 134 -1 138 -21 3 -28 -1 -28 -14z"/>
<path d="M8950 6655 c-7 -20 -10 -39 -7 -42 3 -3 10 12 16 33 6 21 9 40 7 42
-2 2 -9 -13 -16 -33z"/>
<path d="M4986 6631 c-8 -13 3 -38 19 -44 17 -7 55 20 55 39 0 16 -65 20 -74
5z"/>
<path d="M6200 6150 c0 -5 5 -10 10 -10 6 0 10 5 10 10 0 6 -4 10 -10 10 -5 0
-10 -4 -10 -10z"/>
<path d="M9239 6126 c-52 -14 -125 -55 -152 -84 -18 -19 -18 -20 5 -36 31 -22
43 -21 123 14 111 47 179 36 273 -44 48 -39 55 -39 96 10 l26 31 -83 51 c-114
70 -190 85 -288 58z"/>
<path d="M6364 6117 c-3 -9 -3 -25 1 -34 6 -16 8 -15 16 6 6 16 6 28 0 34 -7
7 -12 5 -17 -6z"/>
<path d="M9265 5946 c-22 -7 -50 -18 -62 -24 -16 -9 -22 -9 -25 0 -9 25 -53
-2 -82 -49 -25 -42 -28 -55 -23 -104 3 -31 12 -69 20 -85 56 -108 197 -142
320 -76 76 41 108 97 75 130 -19 19 -34 15 -72 -18 -41 -37 -95 -60 -137 -60
-22 0 -41 10 -66 35 -31 31 -34 38 -31 86 3 51 4 52 43 66 22 8 60 14 84 14
58 1 91 14 91 37 0 45 -69 69 -135 48z"/>
<path d="M8808 5933 c-18 -5 -31 -43 -22 -67 13 -33 94 -5 94 33 0 33 -26 46
-72 34z"/>
<path d="M8519 5901 c-3 -7 -15 -14 -27 -15 -12 0 -22 -5 -22 -11 0 -5 16 -8
35 -6 51 4 43 -15 -15 -34 -58 -19 -82 -46 -100 -109 -27 -97 6 -204 75 -244
34 -19 50 -22 104 -19 95 7 144 52 108 101 -14 18 -16 19 -56 3 -62 -25 -109
-23 -123 7 -18 41 -6 52 68 59 70 7 81 12 84 37 5 38 -1 180 -7 179 -22 -4
-43 2 -43 11 0 6 8 10 17 8 11 -2 19 5 21 17 2 16 1 17 -7 5 -9 -12 -11 -12
-11 -1 0 10 -11 12 -45 9 -28 -4 -46 -1 -48 6 -2 7 -5 6 -8 -3z m79 -158 c3
-21 0 -23 -48 -23 -43 0 -51 3 -48 17 3 18 39 33 73 30 12 -1 21 -10 23 -24z"/>
<path d="M8800 5733 c1 -85 22 -262 34 -281 10 -16 51 -15 65 1 8 10 7 52 -4
159 -18 179 -24 198 -65 198 l-30 0 0 -77z"/>
<path d="M6055 5527 c-141 -37 -233 -109 -299 -237 -21 -41 -68 -127 -104
-190 -60 -105 -133 -238 -272 -490 -29 -52 -69 -122 -90 -155 -20 -33 -81
-139 -135 -235 -53 -96 -132 -233 -175 -305 -42 -71 -119 -206 -170 -300 -85
-155 -335 -595 -450 -790 -219 -374 -356 -648 -381 -765 -24 -113 19 -348 79
-433 15 -21 32 -46 39 -55 13 -18 -6 -57 -116 -235 -63 -102 -116 -227 -104
-246 6 -9 39 -26 74 -38 54 -18 72 -32 121 -87 32 -35 75 -75 94 -87 l35 -21
25 23 c14 13 51 71 81 129 92 172 192 354 206 374 12 17 14 17 35 -1 l23 -18
-26 -35 c-15 -19 -31 -43 -36 -53 -17 -31 26 -3 58 38 32 40 61 44 120 20 l37
-16 -70 -49 c-133 -95 -216 -170 -188 -170 18 0 215 132 252 169 l45 45 51
-19 c28 -10 76 -24 106 -30 77 -18 230 -61 330 -95 47 -15 105 -33 130 -39 25
-7 61 -18 80 -26 19 -7 52 -16 73 -20 20 -3 37 -10 37 -15 0 -5 -60 -54 -132
-109 -73 -54 -162 -125 -198 -156 -36 -32 -110 -92 -165 -135 -125 -97 -163
-136 -148 -151 13 -13 101 40 169 103 25 23 81 70 124 103 85 66 189 152 319
263 47 39 92 72 101 72 22 0 109 -30 115 -40 2 -4 -44 -43 -103 -86 -281 -206
-505 -395 -495 -420 3 -8 9 -14 14 -14 15 0 266 199 404 320 29 25 86 72 128
104 42 33 77 65 77 73 0 17 25 16 80 -3 25 -9 51 -18 59 -20 7 -2 -39 -45
-106 -97 -65 -50 -159 -126 -209 -167 -50 -41 -137 -112 -193 -158 -55 -46
-101 -86 -101 -91 0 -4 6 -14 13 -23 11 -15 21 -10 93 45 44 34 137 110 206
169 69 59 156 130 194 159 38 29 94 74 125 101 l57 48 40 -14 c92 -33 93 -30
-10 -105 -128 -92 -285 -216 -333 -262 -22 -21 -75 -66 -117 -100 -75 -58 -90
-80 -67 -94 12 -8 75 34 145 98 65 59 223 182 343 266 50 35 111 81 135 102
51 45 68 47 136 18 l49 -21 -107 -72 c-59 -39 -143 -105 -186 -146 -44 -41
-76 -69 -72 -63 14 24 -5 13 -31 -17 -13 -17 -32 -30 -40 -30 -43 0 -103 -76
-75 -94 5 -3 46 27 93 65 46 39 102 80 124 91 22 11 87 55 145 98 58 42 121
87 140 100 19 13 40 30 47 38 9 11 21 12 60 4 27 -6 62 -16 78 -22 30 -12 30
-12 7 -21 -32 -12 -184 -120 -279 -199 -15 -13 -16 -39 -3 -60 8 -12 17 -8 52
26 39 37 85 74 238 193 51 40 57 42 99 36 25 -4 67 -18 95 -31 27 -13 64 -24
80 -24 17 -1 55 -11 85 -24 47 -20 51 -25 33 -30 -26 -9 -29 -36 -4 -36 9 0
28 9 42 20 30 23 49 25 92 6 18 -8 62 -22 98 -31 36 -9 85 -24 110 -32 25 -8
59 -16 75 -17 17 -2 50 -9 75 -16 57 -16 164 -13 200 5 31 16 73 63 113 129
17 28 42 52 60 60 31 13 158 97 437 289 74 51 241 165 370 252 129 87 264 179
300 204 36 25 99 69 141 98 84 58 104 77 94 93 -15 24 2 34 -510 -308 -289
-193 -474 -319 -528 -359 -29 -22 -103 -77 -164 -122 -62 -46 -125 -97 -140
-115 l-26 -31 6 32 c12 59 93 221 111 220 9 -1 64 33 123 76 132 95 295 209
553 382 259 174 559 393 590 430 9 11 10 19 2 27 -7 7 -24 0 -58 -23 -26 -19
-117 -81 -203 -139 -691 -466 -834 -565 -928 -642 -40 -33 -73 -54 -73 -48 0
7 21 52 46 101 44 86 49 90 137 151 137 92 183 124 284 199 51 38 130 93 176
123 125 80 431 297 435 307 2 5 25 20 50 33 59 30 92 64 73 75 -20 13 -45 3
-88 -34 -21 -17 -54 -40 -73 -50 -19 -10 -91 -56 -160 -103 -69 -47 -190 -130
-270 -184 -177 -120 -298 -207 -408 -293 -94 -74 -97 -70 -30 55 55 101 76
130 96 130 9 0 51 27 92 60 68 55 165 122 410 283 47 31 144 98 216 149 73 51
165 112 205 136 41 23 133 85 204 138 72 52 139 101 150 108 17 11 18 16 6 30
-7 9 -19 16 -25 16 -15 0 -261 -182 -316 -234 -25 -24 -98 -73 -163 -110 -184
-104 -549 -344 -685 -452 -46 -36 -85 -64 -88 -62 -6 7 71 160 104 204 20 27
40 43 60 47 17 3 60 25 96 49 36 24 86 56 110 71 69 43 149 118 137 130 -17
17 -54 -1 -156 -79 -128 -98 -205 -135 -205 -100 0 7 20 43 45 79 25 37 45 70
45 75 0 5 10 7 23 5 16 -3 45 12 98 50 41 31 112 78 157 106 45 27 112 75 149
105 38 30 115 86 173 124 120 81 249 175 340 247 34 28 86 69 116 93 57 45 59
49 45 71 -7 11 -26 1 -87 -46 -44 -32 -92 -67 -109 -77 -16 -11 -73 -52 -125
-92 -52 -41 -144 -110 -205 -154 -157 -115 -265 -200 -265 -209 0 -4 -19 -16
-42 -27 -52 -22 -193 -113 -230 -148 -16 -14 -28 -24 -28 -22 0 13 63 153 80
176 12 16 62 57 113 91 51 34 128 90 172 124 44 34 145 111 225 170 80 59 168
126 195 147 28 21 101 78 163 125 69 54 112 94 112 105 0 34 -34 18 -164 -80
-72 -54 -228 -171 -346 -260 -118 -89 -259 -199 -313 -243 -54 -45 -100 -79
-101 -78 -2 2 13 41 32 87 41 97 125 203 195 247 45 28 103 71 497 368 177
133 167 123 140 137 -27 14 -49 0 -230 -140 -69 -53 -158 -121 -199 -150 -104
-73 -198 -152 -254 -213 l-47 -52 14 41 c36 103 123 254 148 254 9 0 40 19 70
43 29 24 89 71 133 104 44 34 119 94 166 134 48 41 101 82 119 92 27 14 30 20
20 32 -18 22 -27 19 -47 -15 -9 -16 -25 -30 -33 -30 -29 0 -195 -121 -363
-264 -32 -27 -60 -46 -63 -43 -7 6 75 197 85 197 3 0 29 21 57 48 60 55 125
109 211 175 35 27 68 58 75 70 6 12 22 30 35 40 23 19 31 47 13 47 -5 0 -14
-9 -20 -20 -6 -10 -29 -33 -53 -49 -23 -17 -64 -51 -92 -77 -27 -25 -70 -60
-95 -76 -25 -17 -58 -43 -74 -57 l-28 -26 7 25 c3 14 29 71 57 128 41 82 55
102 72 102 13 0 39 18 61 41 22 22 50 45 63 50 20 8 33 49 14 49 -4 0 -36 -22
-70 -50 -34 -27 -64 -50 -67 -50 -8 0 13 50 70 165 84 169 182 388 211 470 23
66 25 78 14 106 -18 42 -41 54 -140 75 -47 9 -91 22 -99 28 -8 6 -22 29 -32
52 -21 47 -81 292 -75 303 3 4 1 36 -4 72 -12 88 -38 110 -160 138 -92 22
-475 102 -795 166 -93 19 -271 55 -395 80 -124 25 -333 66 -465 90 -132 25
-296 56 -365 70 -69 14 -147 30 -175 35 -27 5 -104 21 -170 35 -145 31 -353
42 -430 22z m219 -120 c14 -10 15 -18 7 -40 -9 -24 -13 -26 -36 -17 -34 13
-65 13 -65 0 0 -5 10 -10 23 -10 12 0 28 -4 36 -9 12 -8 12 -13 -3 -36 -16
-25 -22 -27 -59 -20 -52 9 -125 7 -190 -6 -115 -21 -149 -4 -84 44 44 34 149
85 195 96 57 14 156 13 176 -2z m401 -73 c61 -9 126 -19 145 -24 92 -22 142
-32 172 -36 49 -5 265 -50 355 -73 43 -11 110 -25 148 -31 39 -6 90 -18 115
-25 63 -19 393 -94 463 -106 144 -23 171 -28 220 -39 29 -7 69 -19 89 -28 21
-8 51 -12 70 -9 21 3 41 0 53 -9 11 -8 34 -14 50 -13 39 3 209 -38 258 -63 26
-13 37 -25 37 -41 0 -28 -47 -127 -127 -267 -71 -125 -297 -584 -358 -725 -41
-95 -135 -307 -204 -458 -17 -38 -40 -81 -51 -96 -10 -15 -28 -50 -39 -77 -11
-27 -97 -209 -191 -404 -95 -195 -196 -409 -225 -475 -29 -66 -65 -140 -79
-165 -13 -25 -56 -116 -95 -202 -117 -263 -188 -362 -277 -387 -60 -17 -74
-15 -283 40 -108 28 -200 52 -206 53 -5 1 -16 5 -23 9 -18 12 -279 77 -306 77
-15 0 -26 7 -29 19 -5 20 -76 39 -97 26 -6 -4 -21 2 -33 13 -12 12 -47 25 -77
31 -30 5 -73 16 -95 25 -22 8 -52 15 -67 16 -15 0 -45 7 -65 15 -21 8 -65 22
-98 31 -102 27 -227 62 -300 84 -38 11 -83 23 -100 26 -16 4 -73 19 -125 35
-52 15 -178 51 -280 79 -302 83 -340 94 -340 106 0 6 25 49 55 95 30 46 57 88
59 94 2 5 7 7 11 2 5 -4 -9 -41 -31 -81 -21 -41 -35 -78 -31 -83 15 -14 97 -9
107 7 8 12 10 11 10 -6 0 -12 7 -25 16 -28 39 -15 53 -5 100 70 26 42 55 84
64 93 9 9 34 45 55 81 91 155 149 240 162 240 13 0 13 -4 -2 -26 -23 -35 -253
-401 -277 -441 -16 -26 -17 -34 -6 -38 7 -2 25 -9 40 -14 24 -9 30 -6 61 32
18 23 60 80 92 127 32 47 86 122 119 166 34 45 67 90 74 100 7 11 5 3 -4 -16
-10 -19 -60 -100 -114 -180 -111 -167 -154 -239 -147 -247 3 -2 22 -8 42 -13
l36 -8 61 91 c95 142 227 317 238 317 19 0 4 -23 -194 -310 -74 -105 -75 -115
-20 -126 29 -5 35 -2 76 53 24 32 70 96 103 143 104 151 185 249 233 281 44
30 232 219 367 369 156 174 267 281 288 278 11 -2 22 -8 24 -13 6 -18 -535
-564 -576 -581 -50 -21 -69 -41 -191 -199 -140 -183 -240 -324 -240 -340 0 -8
14 -16 31 -20 27 -6 36 -2 72 31 27 27 38 33 33 19 -22 -61 -20 -72 19 -85 33
-11 39 -10 61 11 13 12 24 28 24 34 0 6 24 43 53 82 28 38 90 123 137 188 125
173 149 205 324 421 214 264 314 370 332 351 14 -13 -13 -54 -85 -130 -75 -80
-233 -271 -418 -503 -50 -63 -131 -161 -180 -217 -86 -99 -173 -222 -173 -244
0 -6 16 -17 36 -23 46 -15 52 -10 198 180 326 426 476 602 680 800 111 107
311 305 446 442 227 229 246 246 264 233 18 -13 5 -29 -205 -241 -267 -271
-399 -399 -537 -523 -56 -51 -129 -127 -162 -169 -86 -112 -164 -208 -234
-287 -117 -132 -364 -451 -355 -459 9 -7 73 -26 90 -26 10 0 37 28 65 68 27
37 78 101 114 142 36 41 100 118 142 170 43 52 95 115 117 140 l39 45 7 -28
c7 -24 0 -35 -51 -90 -103 -110 -334 -389 -368 -445 -5 -9 7 -19 38 -33 53
-23 72 -17 107 33 38 55 211 270 256 318 23 25 52 62 65 82 25 41 38 48 38 20
0 -23 -16 -45 -125 -177 -106 -127 -225 -282 -225 -293 0 -4 15 -12 33 -18 17
-6 39 -14 48 -18 12 -5 52 39 168 186 237 301 253 319 309 374 45 44 54 59 61
102 13 85 46 129 316 422 217 235 369 404 450 501 96 113 118 136 122 122 9
-27 -114 -184 -291 -369 -51 -55 -111 -121 -133 -149 -45 -57 -227 -260 -313
-350 -71 -75 -115 -139 -129 -190 -13 -51 -43 -95 -166 -247 -155 -190 -315
-396 -315 -407 0 -8 70 -41 89 -41 5 0 43 46 83 103 137 190 431 530 673 777
319 325 515 545 659 738 38 51 71 90 73 88 8 -8 -19 -49 -120 -186 -123 -165
-258 -322 -431 -500 -72 -74 -153 -162 -181 -195 -27 -33 -104 -119 -170 -190
-192 -208 -525 -612 -525 -637 0 -4 7 -8 15 -8 9 0 29 -7 44 -14 27 -14 29
-14 58 17 28 31 116 142 218 276 118 155 797 919 827 930 13 4 -95 -136 -175
-228 -31 -36 -90 -106 -131 -156 -41 -49 -88 -103 -106 -120 -18 -16 -75 -82
-128 -145 -53 -63 -127 -150 -164 -193 -36 -42 -106 -130 -154 -195 -49 -64
-105 -137 -126 -161 -21 -24 -38 -47 -38 -51 0 -18 91 -41 113 -29 8 5 41 46
73 92 64 91 193 253 293 366 36 41 84 98 106 126 22 29 71 88 108 131 104 120
248 301 297 374 24 36 78 110 120 165 42 55 97 129 122 166 68 97 87 105 33
14 -26 -44 -63 -106 -82 -137 -30 -51 -130 -187 -336 -458 -36 -47 -100 -126
-144 -175 -43 -50 -94 -111 -113 -135 -19 -25 -89 -108 -155 -185 -153 -178
-225 -269 -259 -322 l-26 -43 36 -15 c69 -28 73 -25 199 123 155 183 180 212
257 312 36 47 79 97 94 112 39 37 41 39 129 171 43 65 80 116 82 113 8 -8 -41
-105 -92 -181 -55 -82 -134 -177 -115 -138 20 43 9 37 -21 -10 -50 -80 -133
-189 -275 -360 -74 -89 -134 -165 -134 -168 0 -9 142 -47 157 -42 6 3 30 35
52 72 22 38 67 104 99 147 72 98 157 221 197 285 33 53 55 78 55 63 0 -17
-134 -236 -248 -403 -62 -90 -112 -168 -112 -173 0 -14 70 -39 90 -33 11 3 41
42 67 86 26 44 60 94 75 112 26 29 27 30 19 7 -9 -27 -62 -119 -93 -163 -11
-15 -17 -34 -14 -42 14 -37 103 1 163 69 40 45 202 349 314 591 98 211 379
775 420 845 21 36 47 90 57 120 11 30 33 82 49 115 17 33 36 78 43 100 7 22
28 78 47 124 19 46 32 91 30 100 -2 9 111 241 250 517 139 276 253 509 253
519 0 22 -28 55 -46 55 -12 0 -48 -63 -185 -326 -34 -65 -88 -164 -119 -219
-32 -55 -71 -127 -88 -160 -17 -33 -38 -69 -47 -80 l-16 -20 9 20 c81 181 293
599 359 709 30 50 50 93 45 98 -5 5 -25 11 -44 15 -31 4 -38 2 -49 -18 -8 -13
-57 -105 -109 -205 -52 -100 -102 -192 -111 -205 -31 -45 -32 -10 -2 48 16 32
64 125 106 206 42 82 77 159 77 173 0 21 -5 24 -33 24 -32 0 -36 -4 -102 -122
-38 -68 -84 -151 -103 -185 -31 -58 -52 -79 -52 -52 0 6 42 91 93 190 99 193
100 199 32 199 -28 0 -35 -9 -124 -168 -104 -185 -128 -222 -142 -222 -17 0
-9 19 40 102 67 113 161 287 161 297 0 4 -6 8 -12 9 -7 1 -25 4 -39 8 -25 6
-32 -2 -112 -123 -46 -70 -99 -154 -117 -185 -58 -105 -54 -73 5 38 32 60 78
146 102 192 25 46 43 86 40 88 -2 3 -18 9 -35 13 -40 12 -43 8 -167 -197 -89
-147 -125 -195 -125 -164 0 5 32 63 70 128 80 134 135 242 127 250 -2 3 -20 6
-38 8 -19 1 -54 9 -77 16 -34 11 -48 11 -63 2 -24 -16 -29 -15 -29 3 0 9 -9
15 -25 15 -21 0 -29 -9 -50 -56 -14 -31 -40 -77 -58 -103 -19 -25 -55 -81 -82
-124 -56 -92 -73 -97 -20 -5 20 34 66 113 101 173 35 61 64 115 64 121 0 7
-11 14 -25 16 -31 6 -52 -16 -131 -145 -31 -50 -68 -111 -83 -133 -14 -23 -31
-50 -37 -60 -7 -11 -15 -16 -19 -12 -3 3 18 48 48 100 172 292 167 278 115
278 -41 -1 -64 -29 -179 -227 -45 -79 -86 -143 -91 -143 -16 0 19 87 47 120 8
8 38 60 67 115 30 55 61 110 69 123 12 20 12 24 -1 32 -24 15 -62 12 -76 -7
-7 -10 -59 -93 -116 -185 -57 -93 -106 -168 -110 -168 -25 0 1 56 87 190 23
36 57 93 74 128 34 68 31 77 -25 70 -24 -2 -40 -20 -98 -113 -39 -60 -90 -148
-115 -194 -25 -47 -52 -87 -59 -89 -10 -3 -10 3 1 30 19 45 100 187 153 269
24 37 46 78 49 92 6 22 3 26 -25 32 -17 4 -33 5 -35 3 -12 -12 -149 -227 -185
-290 -24 -43 -49 -78 -56 -78 -9 0 -11 6 -7 18 6 16 85 152 168 290 39 65 39
75 -6 86 -25 5 -31 -1 -81 -82 -30 -48 -79 -131 -109 -184 -49 -89 -69 -114
-69 -88 0 7 80 162 166 320 19 35 18 45 -11 58 -22 10 -27 8 -51 -22 -15 -19
-65 -98 -111 -177 -46 -79 -91 -151 -98 -159 -13 -12 -15 -12 -15 4 0 19 44
104 137 259 29 50 53 96 53 103 0 6 -16 14 -35 16 -43 5 -60 -12 -136 -132
-30 -47 -64 -99 -77 -115 l-22 -30 11 30 c6 17 38 81 71 143 33 62 58 115 56
117 -1 2 -15 6 -30 10 -24 6 -32 -1 -92 -77 -37 -45 -85 -119 -108 -163 -23
-44 -43 -74 -45 -68 -3 7 23 57 56 112 73 122 101 175 101 194 0 17 -34 28
-56 20 -20 -8 -79 -96 -154 -233 -103 -187 -219 -374 -227 -366 -8 8 28 80
111 219 121 204 209 375 202 392 -9 25 -37 17 -71 -20 -17 -20 -74 -111 -125
-203 -52 -92 -140 -244 -196 -338 -56 -93 -121 -208 -144 -255 -54 -107 -151
-271 -157 -265 -8 7 200 403 403 768 101 182 181 334 178 339 -2 4 -25 11 -49
15 -42 6 -55 20 -37 38 9 10 143 1 287 -20z m-479 -97 c4 -4 2 -18 -4 -31 -10
-22 -16 -24 -134 -28 -91 -4 -139 -11 -182 -27 -33 -11 -61 -19 -64 -16 -10
10 59 89 80 91 13 1 57 7 98 12 81 11 195 10 206 -1z m-60 -110 c3 -8 0 -26
-6 -41 -8 -23 -14 -26 -33 -19 -34 12 -141 6 -203 -12 -31 -9 -54 -18 -52 -20
2 -2 53 0 112 5 132 10 141 8 122 -28 -33 -63 -39 -66 -75 -47 -25 13 -45 15
-84 10 -43 -6 -48 -9 -31 -18 10 -6 46 -12 79 -12 58 0 60 -1 57 -25 -6 -39
-15 -43 -93 -30 -71 11 -115 8 -221 -16 -41 -9 -36 14 30 136 l57 105 95 11
c142 16 240 17 246 1z m536 -229 c-7 -7 -12 -8 -12 -2 0 14 12 26 19 19 2 -3
-1 -11 -7 -17z m-142 -121 c0 -31 -72 -216 -109 -282 -17 -30 -31 -57 -31 -60
0 -3 18 -12 40 -21 27 -11 40 -22 40 -35 0 -16 -8 -19 -45 -19 -52 0 -105 23
-105 45 0 9 11 33 24 54 14 21 36 65 49 97 92 218 137 290 137 221z m-608 6
c22 -20 22 -27 3 -46 -11 -11 -24 -13 -49 -7 -21 4 -80 2 -143 -6 -140 -17
-153 -17 -153 1 0 32 38 55 93 56 28 0 72 4 97 8 78 14 132 12 152 -6z m858
-32 c26 -5 36 -12 38 -29 3 -20 -1 -22 -47 -22 l-50 0 -25 -54 c-31 -65 -33
-86 -8 -86 23 0 42 -19 42 -42 0 -15 -8 -18 -45 -18 -44 0 -45 -1 -70 -50 -14
-27 -25 -53 -25 -59 0 -5 16 -12 35 -15 41 -8 50 -19 36 -45 -9 -16 -16 -17
-56 -10 -44 8 -85 25 -85 35 0 13 140 328 164 369 21 35 32 45 44 39 10 -4 33
-10 52 -13z m981 -77 c-12 -26 -24 -45 -26 -42 -3 3 4 27 15 53 11 26 23 45
26 42 3 -3 -4 -27 -15 -53z m-1881 9 c0 -10 -8 -28 -18 -41 -16 -20 -27 -22
-132 -26 -67 -2 -136 -10 -165 -19 -27 -9 -51 -14 -53 -12 -5 5 18 77 31 93 6
7 14 9 21 3 7 -5 55 -4 121 4 166 19 195 18 195 -2z m1130 -18 c0 -93 -86
-415 -111 -415 -19 0 -22 34 -10 93 7 32 11 61 9 62 -2 2 -15 6 -30 10 -24 6
-30 1 -68 -59 -40 -63 -61 -79 -75 -55 -9 14 174 317 228 377 32 35 57 29 57
-13z m234 -13 c30 -27 48 -72 41 -101 -14 -63 -29 -82 -77 -107 -38 -19 -48
-29 -43 -42 14 -36 17 -139 6 -161 -19 -34 -33 -20 -47 45 -7 32 -18 73 -24
89 l-13 30 -7 -25 c-5 -14 -22 -54 -40 -89 -21 -44 -34 -61 -42 -53 -13 13 12
100 54 192 17 36 43 96 59 135 44 104 55 118 87 110 15 -4 35 -14 46 -23z
m1701 -64 c3 -24 9 -51 12 -62 3 -11 1 -16 -5 -12 -16 10 -46 -39 -105 -172
-29 -66 -59 -128 -66 -135 -18 -22 -184 -399 -353 -802 -44 -104 -97 -229
-119 -276 -38 -84 -47 -119 -31 -119 17 0 42 36 73 105 17 39 44 97 59 130 39
81 162 356 195 436 57 134 292 645 348 754 l26 50 25 -55 c31 -66 33 -101 7
-124 -43 -39 -98 -204 -73 -220 11 -7 102 164 102 191 0 24 18 5 25 -27 5 -23
-12 -69 -85 -232 -51 -112 -115 -255 -142 -318 -115 -263 -311 -686 -407 -880
-57 -114 -132 -284 -150 -341 -6 -20 -22 -46 -35 -59 -14 -12 -30 -36 -37 -53
-6 -18 -187 -384 -402 -815 l-389 -783 -23 21 c-13 12 -26 37 -29 55 -6 31
-12 35 -89 63 -74 26 -203 65 -447 136 -47 13 -161 47 -255 76 -93 29 -237 70
-320 91 -82 22 -215 59 -295 84 -80 24 -206 60 -280 80 -74 20 -200 56 -280
80 -206 64 -590 165 -624 165 l-30 0 22 -20 c24 -23 73 -42 166 -66 34 -8 131
-37 216 -64 85 -27 214 -65 285 -84 72 -19 150 -42 175 -51 25 -9 169 -52 320
-95 734 -212 1419 -415 1426 -423 1 -1 4 -13 6 -27 3 -22 0 -25 -24 -22 -27 3
-443 119 -778 217 -107 32 -260 77 -340 100 -80 24 -264 77 -410 119 -146 42
-317 91 -380 110 -299 90 -749 206 -799 206 -29 0 -32 2 -25 23 4 12 26 44 50
72 52 59 64 103 41 150 -15 32 -24 36 -160 79 -80 25 -152 46 -160 46 -14 0
-119 -112 -160 -170 -20 -28 -16 -32 -50 53 -27 67 -37 144 -17 132 6 -3 10
-15 10 -26 0 -10 4 -19 10 -19 5 0 7 21 3 50 -8 68 14 165 46 203 33 39 95 67
151 67 56 0 266 -52 476 -119 88 -27 206 -62 264 -76 58 -14 155 -41 215 -60
169 -53 314 -95 380 -112 33 -9 101 -29 150 -44 50 -16 133 -40 185 -54 52
-13 172 -47 265 -75 94 -28 186 -56 205 -61 19 -6 103 -30 185 -54 220 -65
452 -127 496 -132 25 -4 36 -10 32 -17 -3 -6 5 -1 18 11 13 11 53 35 88 52 35
17 71 36 80 43 9 7 -1 -7 -23 -31 -21 -24 -52 -72 -68 -107 -31 -66 -48 -144
-31 -144 15 0 106 173 152 290 24 58 64 146 90 195 62 116 162 301 236 435
185 337 457 928 512 1115 20 69 137 328 333 740 233 488 314 654 322 654 3 1
9 -18 13 -41z m-1514 10 c1 -7 4 -67 8 -133 l6 -120 57 118 c31 64 60 117 65
117 35 -1 31 -20 -30 -151 -94 -201 -131 -271 -142 -270 -6 0 -14 54 -19 120
l-8 120 -48 -98 c-49 -101 -65 -120 -81 -104 -6 6 18 80 67 204 42 107 78 197
81 202 7 12 43 8 44 -5z m-1496 -15 c-5 -10 -16 -40 -26 -68 -10 -27 -18 -43
-18 -35 -1 8 -15 -14 -31 -49 -17 -35 -33 -62 -36 -59 -7 8 97 228 109 228 5
0 6 -8 2 -17z m387 -25 c-44 -71 -147 -246 -180 -306 -19 -35 -36 -61 -39 -58
-11 11 20 72 110 213 52 82 99 159 106 171 7 13 15 21 18 18 3 -3 -4 -20 -15
-38z m-519 25 c3 -5 -2 -25 -10 -46 -12 -29 -19 -36 -32 -31 -34 16 -98 15
-136 0 -41 -17 -176 -48 -182 -42 -8 8 9 54 30 80 21 26 27 27 132 32 61 3
112 8 114 10 8 7 80 4 84 -3z m1912 -53 c3 -5 -18 -65 -48 -132 -29 -68 -61
-143 -70 -168 -24 -63 -54 -110 -72 -110 -26 0 -17 35 46 182 93 218 122 264
144 228z m119 -46 c3 -9 6 -72 6 -141 0 -70 3 -124 6 -120 3 3 28 56 54 118
54 123 67 143 90 129 15 -9 12 -17 -80 -229 -42 -95 -94 -181 -110 -181 -15 0
-20 32 -22 147 -2 62 -6 109 -9 105 -3 -4 -21 -41 -39 -84 -55 -127 -116 -180
-75 -65 18 52 118 285 136 319 12 22 35 23 43 2z m-2106 0 c12 -4 22 -12 22
-19 0 -21 -50 -75 -64 -69 -19 7 -288 -44 -301 -57 -17 -19 172 -3 238 20 31
11 57 19 57 17 0 -9 -34 -103 -40 -109 -4 -5 -56 -10 -116 -11 -90 -3 -196
-20 -182 -30 1 -1 50 1 108 5 58 4 118 4 133 2 25 -5 28 -9 22 -32 -11 -42
-21 -48 -73 -43 -55 5 -180 -12 -195 -27 -7 -7 28 -8 107 -4 l118 6 -7 -24
c-15 -50 -17 -51 -118 -52 -62 -1 -100 -6 -109 -14 -14 -15 15 -18 115 -13
l58 2 -7 -28 c-16 -66 -27 -72 -88 -48 -11 4 -15 2 -11 -8 4 -9 -3 -19 -17
-26 -19 -9 -15 -10 24 -5 l48 6 -11 -31 c-22 -63 -47 -78 -152 -92 -54 -7
-100 -17 -104 -23 -4 -6 3 -8 19 -4 14 4 57 10 98 13 l72 7 -7 -24 c-4 -13
-15 -37 -24 -54 l-17 -30 -122 4 c-76 2 -122 -1 -122 -7 0 -14 80 -32 144 -32
62 0 70 -7 56 -45 -8 -20 -15 -25 -28 -20 -9 3 -71 9 -137 12 -98 4 -124 2
-140 -10 -28 -21 -16 -24 137 -32 l128 -7 -6 -27 c-11 -45 -20 -50 -65 -35
-22 8 -97 17 -165 21 -102 5 -124 9 -119 20 3 8 5 18 5 23 0 4 11 11 25 14 18
5 25 13 25 32 0 30 26 84 41 84 6 0 7 5 4 11 -7 10 6 32 86 150 21 31 41 68
45 83 3 14 17 35 30 45 13 10 24 28 24 39 0 10 10 32 22 48 27 34 46 65 94
159 20 39 44 79 54 90 9 11 20 33 24 49 4 16 22 44 39 61 28 28 41 33 102 39
39 4 97 13 130 21 33 7 62 13 65 14 3 0 15 -2 28 -5z m2476 -57 c10 -8 16 -22
14 -33 -3 -15 -11 -19 -46 -17 -38 2 -45 -2 -86 -48 -61 -68 -96 -141 -96
-200 0 -26 5 -51 10 -54 33 -20 88 44 68 78 -5 10 -7 25 -4 33 7 18 76 19 101
0 17 -12 15 -17 -35 -86 -30 -40 -65 -76 -78 -81 -70 -27 -112 10 -112 100 0
46 7 71 41 136 44 88 65 114 123 156 43 32 72 36 100 16z m1006 -138 c0 -10
-5 -21 -10 -24 -12 -7 -33 42 -24 56 8 14 34 -10 34 -32z m-3455 -48 c-9 -28
-21 -51 -26 -51 -11 0 -6 21 18 78 21 51 28 31 8 -27z m535 0 c0 -9 -13 -38
-30 -64 -37 -58 -38 -75 -5 -83 29 -7 32 -20 7 -33 -25 -13 -84 13 -80 36 5
28 92 171 101 166 4 -2 7 -12 7 -22z m218 -13 c16 -16 15 -53 -3 -135 -23
-100 -25 -103 -45 -103 -16 0 -19 9 -22 55 l-3 56 -49 -46 c-36 -33 -52 -42
-58 -33 -12 21 -11 24 45 85 29 32 65 75 80 96 30 40 37 43 55 25z m172 -100
c18 -109 19 -110 56 -30 32 69 64 96 64 53 0 -51 -93 -231 -120 -231 -14 0
-27 30 -35 84 -11 81 -15 83 -49 20 -17 -33 -39 -60 -48 -62 -26 -5 -23 9 23
101 46 90 76 137 89 137 4 0 14 -33 20 -72z m308 0 c7 -7 12 -20 12 -31 0 -14
-5 -17 -20 -12 -46 15 -130 -53 -130 -104 0 -32 25 -71 46 -71 11 0 13 9 8 41
l-7 40 38 -3 c23 -2 42 -10 49 -21 9 -15 4 -24 -31 -57 -52 -49 -83 -51 -124
-11 -24 24 -29 38 -29 75 0 39 6 52 38 88 62 69 121 95 150 66z m-938 -31 c0
-17 -44 -77 -104 -142 l-46 -50 27 45 c46 74 107 160 116 160 4 0 7 -6 7 -13z
m1078 -16 c11 -7 8 -22 -17 -79 -35 -80 -38 -107 -14 -116 23 -9 46 17 88 102
34 70 59 90 71 57 4 -9 -12 -53 -34 -100 -45 -93 -86 -130 -132 -120 -38 9
-52 28 -57 78 -5 38 0 55 32 116 39 74 41 76 63 62z m-1264 -23 c-66 -112
-227 -333 -232 -318 -7 20 127 218 197 293 36 38 48 46 35 25z m1542 -44 c12
-46 -2 -207 -20 -242 -22 -43 -36 -41 -36 6 0 68 -35 80 -87 30 -28 -27 -33
-29 -39 -15 -4 12 8 35 38 71 25 30 62 82 84 115 21 33 42 61 46 61 4 0 11
-12 14 -26z m-1240 1 c7 -16 -266 -316 -437 -480 -57 -55 -124 -122 -148 -148
-23 -27 -45 -46 -48 -44 -14 14 20 56 158 197 83 85 197 207 252 270 124 141
199 220 209 220 5 0 11 -7 14 -15z m1481 -55 c16 -33 8 -42 -33 -34 -30 6 -38
2 -74 -34 -44 -44 -52 -81 -24 -121 19 -27 34 -14 34 32 0 35 20 43 59 23 l30
-16 -48 -50 c-67 -69 -106 -65 -136 13 -20 53 -12 79 47 143 43 47 90 75 118
71 8 -1 20 -13 27 -27z m568 -7 c-25 -60 -86 -166 -110 -193 -21 -22 -121
-206 -231 -422 -21 -42 -40 -75 -42 -74 -8 9 201 427 260 518 23 38 62 99 86
138 24 38 46 70 48 70 2 0 -3 -17 -11 -37z m-1930 -3 c9 -14 -13 -39 -316
-356 -373 -391 -410 -431 -467 -499 -63 -75 -132 -143 -132 -128 0 27 149 206
374 448 424 456 509 545 522 545 7 0 16 -5 19 -10z m1528 -24 c38 -16 67 -42
67 -61 0 -11 -10 -10 -51 3 -44 14 -51 14 -59 2 -17 -26 -11 -39 35 -70 25
-17 45 -32 45 -34 0 -1 -25 1 -55 4 -30 3 -55 2 -55 -2 0 -4 -6 -7 -12 -5 -7
1 -13 -4 -13 -12 0 -13 64 -52 116 -70 16 -5 29 -15 29 -20 0 -16 -69 -13
-131 5 -61 18 -79 30 -79 51 0 21 110 223 121 223 5 0 24 -6 42 -14z m-1383
-21 c0 -9 -43 -57 -96 -108 -53 -51 -189 -191 -302 -312 -113 -121 -249 -265
-303 -320 -53 -55 -123 -136 -155 -180 -91 -125 -205 -267 -211 -261 -6 5 101
172 180 281 91 125 354 412 686 748 154 155 201 191 201 152z m-555 -35 c-10
-11 -23 -20 -28 -20 -6 0 0 11 13 25 27 29 42 25 15 -5z m681 9 c4 -6 -42 -59
-106 -123 -62 -61 -116 -122 -119 -135 l-7 -24 -29 26 c-17 15 -24 27 -17 27
16 0 178 152 215 202 29 38 50 47 63 27z m134 -35 c0 -16 -265 -273 -273 -265
-16 16 12 53 121 164 73 73 114 107 129 107 13 0 23 -3 23 -6z m104 -30 c9 -3
16 -9 16 -13 0 -9 -394 -411 -402 -411 -4 0 13 33 39 73 38 60 304 351 325
356 3 0 13 -2 22 -5z m-1024 -35 c-7 -11 -14 -18 -17 -15 -3 3 0 12 7 21 18
21 23 19 10 -6z m1180 10 c0 -6 -60 -72 -132 -147 -73 -76 -154 -160 -179
-187 -52 -57 -128 -125 -141 -125 -17 0 -7 28 24 66 18 21 113 121 212 222
161 162 216 206 216 171z m93 -72 c-265 -291 -572 -587 -608 -587 -4 0 12 21
35 48 70 77 512 524 549 554 43 36 61 25 24 -15z m270 -41 c8 -20 -805 -838
-818 -824 -13 13 18 59 76 114 35 32 212 208 394 390 181 183 333 332 336 333
4 1 9 -5 12 -13z m53 -48 c-10 -6 -20 -7 -24 -3 -9 8 20 25 31 18 5 -3 2 -10
-7 -15z m-1786 -53 c-43 -55 -50 -62 -50 -46 0 13 82 113 88 107 2 -3 -14 -30
-38 -61z m2569 25 c-21 -36 -49 -60 -49 -41 0 15 55 80 68 81 2 0 -7 -18 -19
-40z m-2749 5 c0 -8 -7 -15 -15 -15 -9 0 -12 6 -9 15 4 8 10 15 15 15 5 0 9
-7 9 -15z m2240 -13 c0 -17 -201 -264 -310 -382 -163 -177 -397 -415 -452
-461 -32 -27 -49 -36 -54 -28 -4 8 -3 9 4 5 7 -4 12 -2 12 4 0 10 118 140 326
360 203 215 303 326 371 413 67 85 103 116 103 89z m219 -34 c-24 -46 -74
-113 -120 -162 -26 -28 -70 -83 -97 -121 -66 -95 -96 -118 -53 -42 17 33 77
112 131 178 55 66 107 130 116 144 20 31 39 33 23 3z m-1681 -89 c-150 -155
-423 -452 -496 -539 -118 -140 -179 -206 -186 -199 -4 4 13 31 37 60 24 30 81
104 126 164 45 61 186 223 314 361 220 238 233 251 250 235 17 -16 14 -20 -45
-82z m1880 -31 c-12 -29 -44 -91 -70 -138 -27 -47 -62 -119 -79 -160 -83 -200
-450 -923 -457 -902 -7 22 60 162 356 742 97 190 197 387 222 438 46 98 68
113 28 20z m-1728 22 c0 -21 -53 -70 -76 -70 -36 0 -42 29 -13 54 25 21 89 33
89 16z m-1144 -13 c4 -4 3 -20 -2 -35 -10 -29 -14 -29 -93 -16 -24 4 -95 1
-160 -7 -114 -13 -115 -13 -61 -20 30 -4 103 -7 163 -8 104 -1 107 -2 107 -23
-1 -50 -12 -53 -207 -56 -101 -1 -183 0 -183 3 0 13 30 62 44 74 9 8 16 22 16
33 0 10 12 30 26 45 l25 25 159 -4 c88 -2 162 -7 166 -11z m3599 -69 c-12 -39
-58 -142 -76 -168 -9 -14 -20 -36 -24 -50 -15 -53 -143 -337 -275 -610 -75
-157 -163 -341 -195 -410 -31 -69 -126 -265 -210 -436 -84 -171 -183 -375
-220 -455 -97 -209 -241 -501 -259 -522 -8 -10 -21 -17 -29 -15 -10 2 15 64
94 233 59 127 133 278 163 336 30 58 73 146 94 195 22 49 65 136 97 194 31 58
80 157 110 220 150 325 218 472 249 535 69 141 389 793 433 883 45 91 61 114
48 70z m-2575 -29 c10 -19 -5 -38 -162 -198 -95 -98 -221 -228 -279 -290 -58
-61 -111 -111 -118 -111 -7 0 2 17 19 38 18 20 70 84 117 142 93 115 392 440
405 440 4 0 12 -9 18 -21z m-711 -52 c-28 -40 -101 -117 -111 -117 -7 0 19 39
88 128 32 41 52 32 23 -11z m1574 -9 c-6 -7 -29 -38 -53 -68 -23 -30 -124
-140 -224 -245 -100 -104 -191 -203 -204 -219 l-22 -29 -39 18 c-29 13 -52 16
-84 11 -34 -5 -47 -3 -58 10 -12 14 -10 19 10 35 28 23 60 24 108 4 33 -14 38
-14 62 2 14 9 132 124 261 255 129 131 239 238 244 238 5 0 4 -6 -1 -12z
m-1993 -44 c6 -6 2 -21 -10 -42 -18 -29 -22 -31 -47 -21 -37 14 -181 4 -275
-20 -40 -11 -74 -18 -76 -16 -6 5 36 81 52 94 8 7 19 10 23 8 5 -3 51 -2 103
3 116 9 217 7 230 -6z m145 -36 c-8 -25 -65 -116 -65 -104 0 11 62 126 67 126
2 0 1 -10 -2 -22z m2460 -277 c-144 -291 -184 -366 -191 -358 -13 13 167 388
277 578 88 152 49 51 -86 -220z m-2655 214 c0 -3 -7 -22 -15 -41 -13 -31 -18
-35 -37 -29 -39 13 -218 18 -218 6 0 -13 21 -18 123 -30 43 -5 81 -12 85 -16
10 -10 -23 -60 -39 -58 -8 1 -32 7 -54 12 -69 18 -295 11 -295 -8 0 -4 73 -12
162 -19 89 -6 166 -16 171 -21 5 -5 4 -18 -3 -31 -10 -19 -17 -22 -53 -16 -90
13 -234 17 -275 8 -24 -6 -44 -6 -48 -1 -7 12 48 111 98 176 39 51 40 52 106
58 37 3 76 7 87 9 36 6 205 6 205 1z m311 -12 c-5 -10 -22 -31 -38 -48 -16
-16 -44 -54 -62 -83 -33 -52 -55 -67 -30 -20 21 39 121 168 131 168 5 0 5 -7
-1 -17z m2778 -180 c-17 -38 -47 -108 -66 -158 -20 -49 -105 -229 -189 -398
-142 -285 -184 -363 -184 -344 0 11 189 414 226 482 32 58 124 268 124 282 0
9 110 203 115 203 2 0 -10 -30 -26 -67z m-3287 -101 l38 -7 -20 -33 c-16 -25
-24 -31 -33 -23 -7 5 -85 16 -172 22 -88 7 -162 14 -164 15 -2 2 2 10 9 19 10
12 39 15 159 14 80 0 163 -3 183 -7z m-36 -105 c11 -10 -6 -74 -24 -97 -17
-21 -19 -21 -56 -6 -44 18 -114 20 -240 6 -49 -6 -91 -8 -94 -6 -9 10 20 65
44 81 13 8 47 19 76 25 55 9 284 7 294 -3z m1078 -42 c-26 -30 -49 -55 -51
-55 -13 0 77 108 90 109 5 1 -13 -24 -39 -54z m-819 -72 c-45 -83 -123 -203
-132 -203 -7 0 89 179 131 243 21 32 40 56 43 53 3 -3 -16 -45 -42 -93z m1681
12 c-8 -8 -18 -15 -22 -15 -3 0 -1 7 6 15 7 8 17 15 22 15 5 0 3 -7 -6 -15z
m-330 -22 c20 -26 28 -28 90 -28 55 0 69 -3 72 -16 6 -32 -24 -48 -88 -46 -49
2 -64 7 -84 27 -28 29 -45 90 -25 90 7 0 23 -12 35 -27z m-607 -15 c-33 -62
-242 -337 -270 -354 -33 -20 154 245 235 334 43 47 52 52 35 20z m-1087 3 l27
-6 -22 -40 c-17 -29 -28 -39 -43 -36 -46 9 -320 11 -334 2 -28 -19 2 -24 160
-29 149 -4 160 -6 160 -24 0 -10 -7 -32 -15 -47 l-14 -29 -43 15 c-43 15 -109
14 -270 -3 -34 -4 -58 -3 -58 3 0 5 14 31 31 57 16 27 37 66 46 87 12 31 21
40 46 44 74 12 286 16 329 6z m148 -86 c0 -13 -32 -66 -37 -62 -10 11 9 67 23
67 8 0 14 -2 14 -5z m-356 -135 c90 0 104 -8 87 -48 l-13 -31 -121 6 c-107 5
-130 3 -184 -16 -34 -11 -65 -21 -69 -21 -12 0 6 62 28 92 l21 31 90 -7 c50
-3 122 -6 161 -6z m2869 -55 c-3 -9 -8 -14 -10 -11 -3 3 -2 9 2 15 9 16 15 13
8 -4z m1 -242 c-53 -96 -81 -140 -94 -148 -7 -4 -4 8 5 26 18 36 118 189 123
189 2 0 -14 -30 -34 -67z m-3241 -120 c-8 -71 -23 -77 -23 -10 0 42 4 57 14
57 10 0 12 -11 9 -47z m340 -271 l55 -28 -43 -64 c-107 -163 -230 -394 -265
-502 -12 -38 -25 -68 -29 -68 -4 0 -27 20 -51 45 -24 25 -59 50 -78 56 -29 10
-33 14 -27 36 9 39 196 360 263 453 39 53 85 98 103 99 9 1 41 -12 72 -27z"/>
<path d="M6912 4540 c-23 -37 -26 -71 -5 -78 17 -5 35 44 31 82 l-3 31 -23
-35z"/>
<path d="M7171 4588 c-20 -53 -34 -108 -29 -114 4 -3 19 1 36 10 53 27 71 118
25 124 -17 2 -26 -3 -32 -20z"/>
<path d="M8846 3998 c-8 -13 -36 -70 -61 -128 -26 -58 -53 -118 -60 -135 -8
-16 -23 -53 -34 -82 -11 -28 -45 -100 -74 -160 -30 -59 -71 -148 -91 -196 -20
-48 -59 -133 -86 -187 -27 -55 -77 -162 -109 -238 -33 -77 -76 -170 -95 -207
-34 -63 -47 -125 -27 -125 10 0 71 125 71 146 0 8 18 43 39 77 62 98 293 582
321 672 16 52 56 139 135 295 67 133 119 266 109 281 -9 15 -23 10 -38 -13z"/>
<path d="M8241 2959 c-10 -17 -47 -95 -82 -172 -34 -78 -75 -164 -91 -190 -15
-26 -28 -50 -28 -52 0 -3 12 -5 26 -5 23 0 33 15 104 165 44 91 84 184 90 207
6 24 13 51 16 61 9 28 -15 19 -35 -14z"/>
<path d="M7980 2427 c0 -20 -306 -620 -381 -747 -21 -36 -63 -123 -94 -195
-31 -71 -84 -186 -118 -255 -56 -116 -73 -177 -54 -196 9 -9 -2 -29 106 191
52 105 206 414 343 689 137 274 247 504 245 510 -6 17 -47 20 -47 3z"/>
<path d="M8108 2408 c-9 -7 -38 -60 -65 -118 -26 -58 -105 -217 -175 -355
-324 -635 -498 -997 -498 -1035 0 -17 19 -11 40 13 24 28 675 1331 706 1415
33 87 31 110 -8 80z"/>
<path d="M4301 2131 c-15 -10 67 -47 134 -61 28 -6 151 -41 275 -77 124 -36
297 -85 385 -108 88 -23 212 -59 275 -80 63 -20 201 -61 305 -91 105 -30 255
-74 335 -98 80 -25 204 -61 275 -81 72 -21 180 -52 240 -70 284 -85 360 -107
494 -145 79 -22 152 -40 162 -40 12 0 21 10 25 25 4 14 5 27 3 28 -2 2 -47 13
-99 26 -143 35 -520 144 -695 201 -49 16 -119 36 -155 45 -103 26 -346 93
-450 125 -52 16 -189 57 -305 90 -115 34 -253 74 -305 90 -52 16 -153 45 -225
65 -71 20 -150 42 -175 49 -148 43 -382 100 -451 109 -20 3 -41 2 -48 -2z"/>
<path d="M4246 2011 c-3 -4 95 -34 217 -65 122 -32 253 -69 292 -82 38 -13
162 -51 275 -85 113 -33 232 -69 265 -79 33 -10 105 -30 160 -45 55 -14 192
-54 305 -89 203 -64 273 -85 710 -211 124 -36 293 -85 375 -110 306 -93 389
-107 372 -63 -5 14 -58 31 -372 123 -88 26 -232 69 -320 95 -88 27 -212 63
-275 80 -63 17 -162 45 -220 62 -58 16 -184 52 -280 78 -96 27 -195 56 -220
65 -42 15 -229 70 -525 155 -71 20 -186 54 -255 74 -157 47 -413 106 -462 106
-20 0 -39 -4 -42 -9z"/>
<path d="M4745 1756 c34 -29 128 -65 265 -101 53 -13 116 -32 140 -40 49 -17
352 -105 363 -105 15 0 6 36 -11 47 -40 25 -659 207 -739 218 l-48 6 30 -25z"/>
<path d="M5550 1516 c0 -15 146 -67 290 -105 41 -10 138 -38 215 -61 77 -23
214 -64 305 -90 91 -26 287 -84 435 -129 451 -137 485 -145 485 -118 0 24 -17
37 -75 57 -62 22 -267 82 -440 130 -55 15 -183 53 -285 83 -102 30 -201 58
-220 62 -19 3 -89 24 -155 45 -198 63 -325 99 -429 120 -117 24 -126 24 -126
6z"/>
<path d="M5240 3980 c0 -5 29 -10 65 -12 35 -1 61 0 57 3 -11 10 -122 18 -122
9z"/>
<path d="M5177 3893 c-23 -4 -26 -7 -16 -19 15 -18 63 -18 79 0 6 8 24 17 38
19 15 2 5 4 -23 4 -27 0 -63 -2 -78 -4z"/>
<path d="M7351 3894 c0 -11 3 -14 6 -6 3 7 2 16 -1 19 -3 4 -6 -2 -5 -13z"/>
<path d="M132 5470 c0 -14 2 -19 5 -12 2 6 2 18 0 25 -3 6 -5 1 -5 -13z"/>
<path d="M5045 5337 c-17 -13 -17 -17 4 -126 11 -62 24 -117 27 -122 8 -13 50
-11 61 4 7 8 4 52 -8 132 -10 66 -18 121 -18 123 -3 8 -50 0 -66 -11z"/>
<path d="M4630 5314 c-76 -33 -113 -91 -113 -175 0 -121 93 -199 201 -169 66
17 94 48 99 106 8 92 4 114 -31 168 -55 86 -87 100 -156 70z m94 -126 c46 -92
27 -148 -50 -148 -81 0 -114 153 -41 188 46 22 64 15 91 -40z"/>
<path d="M493 5224 c-53 -36 -108 -92 -99 -101 9 -9 126 68 126 84 0 8 10 23
23 34 38 31 5 20 -50 -17z"/>
<path d="M9716 5161 c-9 -14 4 -41 19 -41 22 0 26 29 5 40 -11 6 -21 6 -24 1z"/>
<path d="M524 5051 c-123 -112 -318 -310 -311 -317 3 -3 32 20 65 50 33 31 63
56 67 56 27 0 331 283 321 299 -14 22 -35 9 -142 -88z"/>
<path d="M739 5032 c-142 -116 -459 -411 -459 -429 0 -38 34 -21 122 61 51 47
164 149 251 226 86 78 157 147 157 155 0 27 -28 22 -71 -13z"/>
<path d="M293 5037 c-27 -12 -29 -22 -6 -31 20 -8 36 6 31 27 -2 11 -8 12 -25
4z"/>
<path d="M815 4892 c-22 -20 -124 -112 -226 -203 -333 -299 -388 -359 -333
-359 14 0 164 125 209 174 11 12 83 78 160 147 224 200 267 243 259 262 -9 25
-25 21 -69 -21z"/>
<path d="M9582 4868 c-30 -30 0 -78 37 -58 32 17 21 70 -14 70 -6 0 -16 -5
-23 -12z"/>
<path d="M939 4792 c-41 -33 -111 -93 -155 -133 -359 -325 -464 -426 -464
-449 0 -26 116 58 240 174 36 34 99 90 140 126 165 144 335 305 335 319 0 30
-25 20 -96 -37z"/>
<path d="M4433 4759 c-18 -5 -50 -26 -72 -47 -31 -29 -41 -49 -51 -95 -28
-139 46 -237 181 -237 131 0 225 109 125 144 -23 9 -31 5 -61 -24 -109 -106
-214 45 -109 156 29 32 38 36 65 30 18 -3 51 -24 75 -46 24 -22 52 -40 61 -40
10 0 27 -7 37 -15 27 -20 60 -19 107 6 91 46 3 96 -90 51 l-41 -20 -10 38
c-12 45 -55 85 -108 100 -43 12 -65 12 -109 -1z"/>
<path d="M1059 4688 c-65 -52 -268 -233 -414 -367 -184 -171 -214 -202 -208
-216 3 -8 9 -15 13 -15 11 0 71 51 225 190 131 119 383 342 443 392 35 29 39
40 19 57 -10 8 -28 -1 -78 -41z"/>
<path d="M1054 4477 c-360 -316 -544 -487 -544 -506 0 -25 38 -8 85 39 28 27
140 127 250 222 111 95 227 196 260 224 42 36 57 55 52 67 -10 27 -28 19 -103
-46z"/>
<path d="M1210 4389 c-19 -10 -55 -35 -79 -56 -40 -35 -43 -41 -32 -61 l12
-23 34 30 c19 16 42 32 53 35 11 4 31 24 45 45 31 47 19 58 -33 30z"/>
<path d="M4004 4247 c-5 -8 -77 -70 -159 -139 -139 -115 -251 -226 -240 -236
9 -9 90 52 166 122 41 39 111 99 155 133 84 65 116 105 97 124 -8 8 -13 7 -19
-4z"/>
<path d="M940 4160 c-30 -21 -80 -63 -110 -94 -42 -43 -51 -59 -42 -68 9 -9
20 -5 49 20 21 18 57 47 79 65 45 34 88 90 82 105 -1 6 -28 -7 -58 -28z"/>
<path d="M4105 4180 c-17 -19 -17 -22 -2 -37 15 -15 18 -15 41 1 31 20 33 32
7 46 -26 13 -25 13 -46 -10z"/>
<path d="M1373 4150 c-60 -38 -79 -61 -50 -59 19 0 140 73 145 87 7 23 -33 11
-95 -28z"/>
<path d="M1505 4111 c-49 -33 -103 -70 -119 -83 -16 -12 -43 -31 -60 -40 -28
-16 -29 -17 -8 -18 37 0 87 25 175 89 159 115 167 153 12 52z"/>
<path d="M1654 4072 c-66 -34 -231 -153 -238 -170 -16 -37 35 -13 155 73 74
53 141 103 149 111 24 24 -8 17 -66 -14z"/>
<path d="M3985 4066 c-15 -19 -25 -43 -23 -52 2 -14 11 -11 48 18 49 37 57 61
23 66 -15 2 -29 -8 -48 -32z"/>
<path d="M4532 4068 c-18 -18 -14 -56 7 -67 14 -8 25 -6 45 10 30 24 32 32 10
53 -18 19 -45 21 -62 4z"/>
<path d="M1215 4020 c-8 -13 4 -50 16 -50 5 0 9 14 9 30 0 30 -13 40 -25 20z"/>
<path d="M1703 3972 c-88 -52 -171 -113 -188 -139 -29 -44 17 -26 108 41 174
128 212 176 80 98z"/>
<path d="M3886 3965 c-56 -46 -64 -59 -46 -70 18 -11 122 97 107 111 -2 3 -30
-16 -61 -41z"/>
<path d="M652 3912 c-78 -74 -98 -102 -69 -102 21 0 167 132 167 151 0 35 -18
26 -98 -49z"/>
<path d="M950 3965 c0 -9 5 -15 11 -13 6 2 11 8 11 13 0 5 -5 11 -11 13 -6 2
-11 -4 -11 -13z"/>
<path d="M1854 3945 c-18 -7 -35 -18 -38 -24 -4 -6 -31 -26 -59 -45 -73 -48
-123 -93 -114 -102 11 -11 64 19 114 66 24 21 64 51 90 66 61 35 58 33 47 43
-5 6 -21 4 -40 -4z"/>
<path d="M9253 3875 c-38 -38 -42 -51 -13 -35 11 6 20 8 20 5 0 -4 7 1 16 9 8
9 14 25 12 35 -3 17 -7 15 -35 -14z"/>
<path d="M1952 3883 c-43 -15 -131 -88 -119 -99 11 -11 100 36 143 76 47 43
43 47 -24 23z"/>
<path d="M400 3871 c0 -19 23 -35 34 -24 14 15 5 43 -14 43 -13 0 -20 -7 -20
-19z"/>
<path d="M3245 3874 c-44 -16 -73 -40 -62 -50 11 -11 88 18 117 43 23 20 23
22 5 22 -11 0 -38 -7 -60 -15z"/>
<path d="M9440 3875 c-10 -12 -10 -21 -2 -40 15 -32 29 -32 44 -1 20 45 -13
76 -42 41z"/>
<path d="M2080 3829 c-30 -27 -74 -59 -98 -69 -23 -11 -45 -27 -48 -35 -11
-27 2 -27 34 0 16 14 34 25 40 25 6 0 30 9 55 19 38 16 47 26 60 65 9 25 15
46 14 46 -1 0 -27 -23 -57 -51z"/>
<path d="M780 3838 c-22 -24 -23 -59 -3 -66 16 -5 73 51 73 72 0 24 -46 20
-70 -6z"/>
<path d="M3543 3825 c-15 -13 -23 -25 -17 -25 6 0 21 11 34 25 30 32 19 32
-17 0z"/>
<path d="M9676 3841 c-8 -13 3 -38 20 -45 15 -6 34 22 27 42 -5 14 -39 16 -47
3z"/>
<path d="M2265 3818 c-40 -23 -65 -65 -30 -52 38 15 -3 -38 -50 -64 -17 -10
-17 -11 -3 -12 19 0 59 38 89 88 25 38 22 55 -6 40z"/>
<path d="M2574 3811 c-33 -20 -59 -49 -52 -56 10 -10 98 34 98 49 0 24 -14 26
-46 7z"/>
<path d="M2427 3809 c-9 -5 -21 -8 -26 -5 -4 3 -21 -8 -36 -24 -26 -27 -27
-30 -9 -30 12 0 38 16 60 35 40 35 43 43 11 24z"/>
<path d="M2815 3812 c-28 -4 -95 -34 -95 -41 0 -3 9 -12 20 -18 23 -15 56 -5
84 25 22 25 18 39 -9 34z"/>
<path d="M2976 3809 c-54 -15 -93 -69 -50 -69 16 0 92 66 84 73 -3 2 -18 0
-34 -4z"/>
<path d="M3060 3809 c0 -5 5 -7 10 -4 6 3 10 8 10 11 0 2 -4 4 -10 4 -5 0 -10
-5 -10 -11z"/>
<path d="M3358 3804 c-16 -8 -28 -21 -28 -29 0 -21 16 -19 40 5 11 11 20 25
20 30 0 12 1 12 -32 -6z"/>
<path d="M527 3798 c-18 -10 -23 -43 -8 -53 10 -5 51 32 51 46 0 13 -26 17
-43 7z"/>
<path d="M3150 3774 c-20 -6 -43 -42 -35 -54 11 -18 21 -11 38 25 9 19 16 34
14 34 -1 -1 -9 -3 -17 -5z"/>
<path d="M2481 3711 c-27 -38 -27 -47 1 -21 12 11 25 20 30 20 4 0 8 7 8 15 0
24 -17 18 -39 -14z"/>
<path d="M2319 3701 c-13 -11 -21 -22 -17 -26 9 -9 26 2 38 26 13 24 8 24 -21
0z"/>
<path d="M2640 3691 c-31 -8 -42 -51 -12 -51 24 0 59 37 46 49 -5 4 -20 5 -34
2z"/>
<path d="M9547 3643 c-13 -13 -7 -31 13 -36 26 -7 34 7 14 27 -18 18 -18 18
-27 9z"/>
<path d="M9542 3562 c4 -45 22 -49 26 -6 2 22 -2 33 -13 38 -13 5 -16 -1 -13
-32z"/>
<path d="M950 3518 c-58 -32 -93 -91 -93 -162 -1 -63 21 -107 68 -136 57 -35
106 -37 169 -6 72 35 101 90 93 174 -9 88 -57 137 -142 147 -41 5 -58 2 -95
-17z m120 -78 c15 -15 20 -33 20 -69 0 -42 -4 -53 -26 -70 -36 -28 -68 -26
-93 5 -37 47 -20 123 33 144 33 13 44 12 66 -10z"/>
<path d="M4010 3475 c0 -8 5 -15 10 -15 6 0 10 7 10 15 0 8 -4 15 -10 15 -5 0
-10 -7 -10 -15z"/>
<path d="M4075 3473 c-16 -8 -32 -17 -34 -19 -9 -8 43 -54 60 -54 46 0 95 44
83 75 -8 20 -70 19 -109 -2z"/>
<path d="M3767 3460 c-64 -20 -136 -63 -139 -83 -2 -21 -4 -31 -12 -64 -9 -39
21 -116 52 -132 25 -13 102 -14 157 -1 80 18 121 108 78 169 -9 13 -18 40 -20
60 -4 36 -27 71 -47 70 -6 0 -37 -8 -69 -19z m49 -102 c6 -18 14 -40 18 -48
13 -30 -18 -54 -69 -54 -43 -1 -49 2 -55 24 -10 36 4 67 42 90 44 27 51 25 64
-12z"/>
<path d="M3267 3329 c-56 -13 -132 -55 -157 -86 -33 -42 -25 -129 17 -180 16
-21 42 -44 56 -51 53 -26 117 14 117 75 l0 36 -54 -7 c-52 -6 -54 -5 -61 21
-14 59 37 105 142 128 40 8 52 -11 50 -82 -2 -52 20 -93 48 -93 26 0 48 51 41
94 -3 23 -9 59 -12 81 -9 61 -27 75 -93 74 -31 -1 -73 -5 -94 -10z"/>
<path d="M9628 3318 l-21 -21 23 -19 c12 -10 26 -18 30 -18 16 0 31 30 25 49
-9 29 -33 33 -57 9z"/>
<path d="M9590 3211 c0 -11 4 -21 9 -21 18 0 21 18 6 30 -13 10 -15 9 -15 -9z"/>
<path d="M2240 3116 c-142 -38 -349 -114 -455 -166 -55 -27 -155 -67 -221 -89
-122 -40 -195 -73 -337 -152 -83 -46 -156 -103 -146 -113 4 -4 80 31 170 77
107 54 215 100 309 131 142 47 175 61 333 144 43 22 138 59 210 82 164 53 267
92 267 102 0 13 -39 8 -130 -16z"/>
<path d="M3954 3035 c-10 -8 -38 -15 -61 -15 -52 0 -88 -13 -97 -35 -8 -21 10
-55 29 -55 7 0 35 -9 60 -20 38 -16 50 -18 62 -8 21 17 73 110 73 131 0 21
-38 23 -66 2z"/>
<path d="M2017 2926 c-103 -45 -161 -85 -102 -72 52 13 228 90 233 104 6 21
-28 12 -131 -32z"/>
<path d="M2320 2865 c-36 -13 -146 -64 -245 -113 -99 -49 -268 -121 -375 -161
-232 -85 -286 -109 -399 -178 -47 -29 -91 -53 -97 -53 -12 0 -44 -32 -44 -43
0 -17 40 -4 90 28 30 19 58 35 62 35 4 0 83 33 175 74 93 41 195 82 228 91 78
22 164 59 360 155 88 43 199 97 248 119 51 25 87 48 87 56 0 20 -12 18 -90
-10z"/>
<path d="M3463 2880 c-24 -10 -32 -53 -13 -65 33 -20 -12 -88 -67 -102 -51
-13 -63 -7 -63 28 0 29 30 70 61 82 24 9 -10 27 -53 27 -30 0 -42 -6 -62 -33
-32 -41 -42 -87 -26 -117 17 -31 86 -60 146 -60 42 0 58 5 90 31 54 42 64 57
64 100 0 21 5 50 12 64 7 16 8 29 2 35 -15 15 -67 21 -91 10z"/>
<path d="M3672 2868 c-20 -20 -14 -67 13 -93 30 -31 40 -31 59 -3 22 32 20 55
-9 83 -27 28 -45 31 -63 13z"/>
<path d="M9465 2770 c-11 -17 5 -51 23 -48 23 4 23 52 0 56 -9 2 -19 -2 -23
-8z"/>
<path d="M1485 2697 c-67 -25 -260 -131 -271 -149 -22 -36 181 51 306 130 73
47 59 54 -35 19z"/>
<path d="M2420 2708 c-128 -55 -256 -115 -425 -198 -110 -54 -225 -106 -255
-115 -188 -55 -329 -113 -370 -150 -9 -8 -33 -21 -54 -30 -28 -12 -36 -19 -28
-27 8 -8 30 -3 79 20 134 60 449 178 483 180 22 2 110 42 240 111 113 59 243
126 290 148 94 44 130 73 89 72 -13 0 -35 -5 -49 -11z"/>
<path d="M9220 2564 c-41 -31 -89 -69 -105 -85 -17 -16 -35 -29 -41 -29 -5 0
-30 -17 -56 -37 -63 -52 -162 -123 -213 -153 -56 -34 -115 -81 -115 -91 0 -14
26 -10 40 5 6 8 28 20 48 27 37 12 302 196 302 210 0 4 24 20 53 37 62 35 182
130 181 143 -3 24 -5 29 -11 29 -5 0 -42 -26 -83 -56z"/>
<path d="M2565 2470 c-11 -5 -54 -21 -95 -36 -110 -40 -532 -233 -703 -322
-170 -88 -324 -195 -288 -200 14 -2 71 23 144 64 211 117 346 185 527 264 383
167 461 204 458 219 -4 18 -18 22 -43 11z"/>
<path d="M1028 2422 c-18 -17 -30 -33 -26 -37 3 -3 21 7 40 23 18 17 30 33 26
37 -3 3 -21 -7 -40 -23z"/>
<path d="M701 2385 c-62 -40 -74 -54 -59 -72 16 -19 42 -16 64 8 10 12 38 35
62 51 23 16 42 33 42 38 0 21 -58 8 -109 -25z"/>
<path d="M2851 2405 c0 -5 6 -19 14 -29 8 -11 15 -15 15 -10 0 6 -7 19 -15 30
-8 10 -14 15 -14 9z"/>
<path d="M2665 2322 c-6 -5 -30 -14 -55 -21 -25 -8 -121 -48 -215 -91 -93 -43
-226 -101 -295 -130 -172 -72 -448 -215 -487 -253 -29 -27 -45 -67 -27 -67 3
0 58 31 122 69 138 81 259 141 437 215 172 72 305 131 448 200 100 48 117 59
107 72 -14 16 -22 17 -35 6z"/>
<path d="M839 2292 c-25 -15 -87 -61 -138 -102 -67 -54 -91 -80 -89 -94 2 -11
8 -21 14 -23 14 -5 199 142 242 192 53 60 42 70 -29 27z"/>
<path d="M9345 2285 c-73 -44 -183 -125 -213 -158 -20 -21 -21 -26 -8 -36 12
-10 20 -9 43 5 60 38 283 207 283 216 0 19 -50 6 -105 -27z"/>
<path d="M1049 2267 c-51 -31 -222 -158 -316 -235 -67 -54 -54 -105 16 -59 46
31 328 265 360 301 35 37 8 34 -60 -7z"/>
<path d="M2950 2230 c6 -11 13 -20 16 -20 2 0 0 9 -6 20 -6 11 -13 20 -16 20
-2 0 0 -9 6 -20z"/>
<path d="M1665 2206 c-46 -15 -132 -57 -190 -94 -22 -15 -57 -35 -78 -45 -21
-11 -36 -22 -33 -24 7 -8 181 55 234 84 87 48 152 84 152 87 0 7 -52 2 -85 -8z"/>
<path d="M2729 2170 c-20 -11 -70 -33 -110 -49 -91 -36 -393 -176 -434 -201
-16 -10 -61 -29 -100 -43 -86 -30 -277 -122 -365 -174 -56 -34 -65 -43 -68
-71 -2 -18 -1 -32 1 -32 2 0 35 21 73 46 74 49 227 125 358 179 79 32 522 238
659 306 67 33 87 59 45 59 -13 -1 -39 -10 -59 -20z"/>
<path d="M1125 2137 c-62 -36 -233 -162 -302 -223 -60 -52 -74 -76 -54 -88 23
-15 421 293 421 326 0 14 -24 8 -65 -15z"/>
<path d="M9319 2084 c-93 -64 -98 -70 -92 -93 3 -12 7 -21 10 -21 7 0 136 87
161 109 27 23 27 28 4 40 -14 8 -32 0 -83 -35z"/>
<path d="M1255 2025 c-61 -18 -91 -36 -210 -125 -134 -101 -175 -138 -175
-162 0 -38 12 -30 244 144 93 70 173 129 179 131 5 1 8 8 6 14 -3 7 -16 7 -44
-2z"/>
<path d="M2780 2006 c-41 -19 -129 -57 -195 -86 -66 -29 -185 -83 -265 -120
-80 -37 -206 -95 -280 -130 -254 -117 -300 -142 -300 -167 0 -13 3 -23 7 -23
4 0 57 25 118 55 60 30 252 117 425 194 390 172 600 272 600 287 0 9 -23 25
-33 24 -1 0 -36 -16 -77 -34z"/>
<path d="M9424 1936 c-9 -23 0 -50 17 -54 17 -3 39 35 32 56 -6 17 -42 15 -49
-2z"/>
<path d="M1265 1857 c-120 -74 -285 -206 -285 -228 0 -32 31 -22 115 39 44 32
116 84 160 115 118 83 136 98 129 108 -11 19 -52 7 -119 -34z"/>
<path d="M2770 1814 c-69 -30 -176 -75 -238 -99 -218 -86 -500 -226 -568 -283
-35 -29 -64 -57 -64 -63 0 -14 58 -1 90 21 60 40 310 160 630 299 217 95 334
153 338 169 8 27 -67 9 -188 -44z"/>
<path d="M3550 1840 c0 -13 5 -20 13 -17 6 2 12 10 12 17 0 7 -6 15 -12 18 -8
2 -13 -5 -13 -18z"/>
<path d="M1365 1725 c-156 -103 -295 -210 -295 -227 0 -38 48 -15 211 102 217
154 197 136 177 162 -11 13 -23 9 -93 -37z"/>
<path d="M3790 1676 c0 -9 5 -16 10 -16 6 0 10 4 10 9 0 6 -4 13 -10 16 -5 3
-10 -1 -10 -9z"/>
<path d="M3060 1651 c-41 -15 -104 -41 -140 -58 -36 -16 -94 -35 -130 -42 -85
-16 -300 -87 -470 -154 -132 -52 -332 -166 -345 -196 -13 -31 14 -35 62 -7
100 56 261 134 328 159 39 14 120 47 180 72 139 59 228 93 260 99 14 3 34 8
45 11 11 4 20 2 20 -4 0 -5 12 -4 28 4 15 8 80 38 145 69 64 30 117 60 117 65
0 15 -15 13 -100 -18z"/>
<path d="M3310 1646 c0 -2 7 -6 15 -10 8 -3 15 -1 15 4 0 6 -7 10 -15 10 -8 0
-15 -2 -15 -4z"/>
<path d="M1485 1612 c-78 -50 -275 -202 -285 -221 -36 -69 96 6 298 168 38 31
53 63 35 74 -5 3 -26 -7 -48 -21z"/>
<path d="M3433 1628 c2 -7 10 -13 17 -13 7 0 15 6 18 13 2 7 -5 12 -18 12 -13
0 -20 -5 -17 -12z"/>
<path d="M9434 1504 c-10 -41 27 -57 50 -22 7 12 6 21 -3 32 -20 24 -40 19
-47 -10z"/>
<path d="M1595 1478 c-11 -11 -52 -39 -92 -62 -78 -45 -313 -243 -313 -263 0
-30 25 -18 117 54 181 142 298 230 315 236 11 4 15 13 11 27 -8 29 -15 30 -38
8z"/>
<path d="M3310 1480 c0 -19 11 -26 23 -14 8 8 -3 34 -14 34 -5 0 -9 -9 -9 -20z"/>
<path d="M2983 1434 c-106 -53 -183 -106 -183 -124 0 -15 38 3 180 90 151 91
149 90 128 90 -8 0 -64 -25 -125 -56z"/>
<path d="M2770 1460 c-8 -5 -12 -12 -9 -15 4 -3 12 1 19 10 14 17 11 19 -10 5z"/>
<path d="M8825 1337 c-173 -117 -534 -362 -753 -510 -56 -39 -133 -95 -170
-126 -37 -32 -75 -60 -85 -64 -16 -6 -25 -37 -9 -37 4 0 21 12 37 28 17 15 38
27 48 27 10 0 96 53 190 118 95 65 276 186 402 270 377 249 555 379 555 403 0
30 -41 9 -215 -109z"/>
<path d="M1665 1353 c-78 -53 -263 -203 -269 -219 -10 -26 -7 -46 7 -41 27 10
214 157 260 205 62 63 62 96 2 55z"/>
<path d="M3091 1335 c-38 -17 -168 -102 -176 -116 -18 -27 61 8 162 75 80 52
87 72 14 41z"/>
<path d="M9033 1275 c-56 -35 -162 -105 -235 -156 -73 -51 -182 -126 -243
-166 -144 -95 -286 -194 -306 -214 -9 -9 -49 -38 -90 -64 -41 -26 -87 -60
-104 -75 -16 -16 -60 -43 -97 -60 -72 -34 -89 -60 -39 -60 19 0 42 13 74 43
25 23 51 41 57 39 6 -2 50 22 97 54 47 33 100 68 117 78 144 89 422 278 720
490 61 43 130 88 153 100 45 22 54 49 18 53 -11 1 -66 -27 -122 -62z"/>
<path d="M2538 1261 c-162 -80 -281 -167 -203 -147 40 10 221 117 268 158 23
20 40 37 37 37 -3 0 -48 -21 -102 -48z"/>
<path d="M1082 1234 c4 -21 22 -23 26 -1 2 10 -3 17 -13 17 -10 0 -15 -6 -13
-16z"/>
<path d="M4819 1218 c-73 -53 -269 -220 -269 -229 0 -5 10 -9 23 -9 35 0 317
231 317 260 0 18 -27 10 -71 -22z"/>
<path d="M1704 1188 c-87 -66 -162 -140 -146 -146 35 -11 232 142 232 182 0
25 -12 20 -86 -36z"/>
<path d="M4979 1168 c-124 -82 -242 -189 -226 -205 15 -14 60 13 164 96 103
83 143 123 143 143 0 15 -16 8 -81 -34z"/>
<path d="M2136 1125 c-34 -30 -47 -48 -43 -60 6 -14 10 -14 34 -1 42 21 65 51
61 79 -3 24 -4 24 -52 -18z"/>
<path d="M2565 1109 c-75 -39 -109 -68 -50 -43 57 23 135 63 135 69 0 12 -29
3 -85 -26z"/>
<path d="M5154 1117 c-17 -12 -72 -53 -121 -92 -276 -215 -380 -311 -369 -341
6 -15 10 -14 39 13 18 16 66 54 107 83 41 29 122 94 178 144 57 50 130 112
163 139 78 63 80 109 3 54z"/>
<path d="M9020 1060 c-152 -100 -170 -114 -170 -137 0 -23 23 -32 34 -14 8 13
206 154 229 163 21 9 18 32 -4 36 -8 1 -48 -20 -89 -48z"/>
<path d="M5270 1019 c-47 -34 -117 -87 -156 -119 -39 -32 -139 -113 -223 -180
-99 -80 -151 -128 -151 -141 0 -10 5 -19 10 -19 13 0 146 94 220 154 30 25 98
79 150 119 136 106 243 209 239 229 -3 14 -20 6 -89 -43z"/>
<path d="M1720 1040 c-25 -16 -49 -31 -54 -33 -5 -2 -6 -9 -2 -15 10 -17 59
10 86 48 12 16 20 30 18 29 -2 0 -23 -13 -48 -29z"/>
<path d="M9195 1040 c3 -5 8 -10 11 -10 2 0 4 5 4 10 0 6 -5 10 -11 10 -5 0
-7 -4 -4 -10z"/>
<path d="M4702 939 c-15 -6 -22 -15 -20 -26 4 -23 38 -23 52 -1 15 24 -2 38
-32 27z"/>
<path d="M8776 891 c-21 -23 -21 -47 1 -55 19 -8 33 9 33 41 0 30 -14 36 -34
14z"/>
<path d="M4602 858 c-14 -14 -16 -44 -3 -52 16 -10 53 28 46 47 -8 20 -26 22
-43 5z"/>
<path d="M6684 697 c-89 -47 -154 -93 -151 -106 1 -8 9 -18 18 -24 25 -15 196
129 177 149 -2 1 -22 -7 -44 -19z"/>
<path d="M8473 692 c-17 -9 -53 -34 -80 -55 -26 -20 -97 -70 -158 -110 -110
-72 -129 -92 -102 -103 17 -6 72 27 165 99 34 27 84 60 110 73 66 34 144 93
137 104 -9 15 -36 11 -72 -8z"/>
<path d="M8644 689 c-3 -6 0 -18 8 -26 13 -13 17 -12 32 2 9 9 16 21 16 26 0
13 -47 11 -56 -2z"/>
<path d="M8843 625 c-3 -9 -3 -18 0 -21 9 -9 27 6 27 22 0 19 -19 18 -27 -1z"/>
<path d="M7023 610 c-55 -33 -65 -82 -13 -65 24 8 72 64 64 76 -8 13 -15 11
-51 -11z"/>
<path d="M6772 581 c-51 -37 -58 -49 -40 -67 13 -13 20 -9 61 27 74 64 58 96
-21 40z"/>
<path d="M7687 583 c-12 -12 -7 -43 6 -43 14 0 47 31 47 43 0 9 -45 9 -53 0z"/>
<path d="M7138 542 c-31 -18 -37 -49 -13 -59 21 -8 55 25 55 54 0 27 -6 28
-42 5z"/>
<path d="M3090 514 c0 -8 5 -12 10 -9 6 3 10 10 10 16 0 5 -4 9 -10 9 -5 0
-10 -7 -10 -16z"/>
<path d="M6383 493 c-17 -6 -16 -43 1 -43 18 0 39 27 31 40 -7 11 -13 11 -32
3z"/>
<path d="M6065 478 c-85 -45 -145 -114 -116 -132 14 -9 151 96 151 116 0 23
-12 28 -35 16z"/>
<path d="M8393 478 c-19 -25 -22 -47 -7 -59 19 -16 56 16 52 45 -4 24 -30 33
-45 14z"/>
<path d="M4230 430 c0 -5 5 -10 10 -10 6 0 10 5 10 10 0 6 -4 10 -10 10 -5 0
-10 -4 -10 -10z"/>
<path d="M8515 370 c3 -5 10 -10 16 -10 5 0 9 5 9 10 0 6 -7 10 -16 10 -8 0
-12 -4 -9 -10z"/>
<path d="M7840 341 c0 -6 5 -13 10 -16 6 -3 10 1 10 9 0 9 -4 16 -10 16 -5 0
-10 -4 -10 -9z"/>
<path d="M5160 280 c0 -5 5 -10 10 -10 6 0 10 5 10 10 0 6 -4 10 -10 10 -5 0
-10 -4 -10 -10z"/>
<path d="M8821 184 c0 -11 3 -14 6 -6 3 7 2 16 -1 19 -3 4 -6 -2 -5 -13z"/>
</g>
</svg>
