<?xml version="1.0" standalone="no"?>
<!DOCTYPE svg PUBLIC "-//W3C//DTD SVG 20010904//EN"
 "http://www.w3.org/TR/2001/REC-SVG-20010904/DTD/svg10.dtd">
<svg version="1.0" xmlns="http://www.w3.org/2000/svg"
 width="1024.000000pt" height="1024.000000pt" viewBox="0 0 1024.000000 1024.000000"
 preserveAspectRatio="xMidYMid meet">

<g transform="translate(0.000000,1024.000000) scale(0.100000,-0.100000)"
fill="#0d2e61" stroke="none">
<path d="M4050 9705 c-12 -14 -11 -55 8 -235 l9 -85 -36 -32 c-72 -64 -70 -65
-157 27 -93 97 -107 106 -129 83 -14 -14 -18 -14 -26 -2 -6 11 -9 8 -9 -9 0
-32 42 -67 148 -124 48 -26 83 -48 77 -48 -5 -1 -63 -1 -129 0 -85 1 -122 5
-132 15 -14 14 -91 10 -107 -5 -14 -13 2 -48 26 -56 12 -4 67 -8 122 -9 55 -1
128 -3 162 -3 l61 -2 12 -52 c15 -65 26 -78 90 -108 45 -21 48 -25 38 -44 -19
-34 -15 -188 5 -219 16 -25 16 -26 -3 -32 -26 -8 -43 -68 -28 -100 12 -27 54
-41 74 -24 23 19 29 78 11 113 -12 23 -17 67 -19 161 l-3 130 45 30 c46 31 78
81 82 128 l2 27 96 2 c52 2 124 3 160 4 103 2 114 3 139 23 19 15 22 21 12 38
-11 22 -60 40 -70 26 -3 -5 -19 -9 -36 -9 -44 -1 -235 -33 -274 -45 -26 -9
-35 -8 -42 2 -14 23 -10 38 14 50 49 26 213 138 231 157 18 20 18 23 2 47 -9
14 -19 25 -22 25 -4 0 -46 -37 -206 -185 -26 -24 -50 -39 -54 -34 -3 5 -20 16
-39 23 -30 13 -33 19 -37 63 -2 26 0 96 6 155 9 98 8 109 -9 128 -21 24 -48
26 -65 5z m86 -470 c18 -27 13 -54 -15 -79 -18 -16 -22 -16 -50 -2 -42 22 -52
63 -21 88 31 25 66 23 86 -7z"/>
<path d="M8051 9499 c-150 -18 -264 -60 -393 -146 -88 -59 -153 -129 -232
-251 -65 -99 -66 -100 -98 -94 -18 4 -85 7 -148 6 -183 -1 -287 -42 -403 -158
-65 -66 -103 -127 -123 -196 -9 -30 -20 -64 -25 -75 -5 -11 -10 -53 -12 -94
l-3 -75 -65 -33 c-111 -56 -230 -186 -282 -308 -30 -72 -50 -212 -44 -315 12
-207 102 -380 257 -495 69 -51 193 -111 270 -131 l70 -18 0 -42 c0 -75 -27
-188 -75 -309 -57 -144 -66 -185 -39 -186 40 -2 68 3 82 18 11 11 17 11 22 3
9 -15 69 -6 150 20 30 10 87 23 126 30 66 12 70 14 66 36 -2 14 0 24 7 24 6 0
11 -9 11 -20 0 -11 3 -20 7 -20 3 0 56 23 117 52 127 59 193 81 201 68 3 -5
-12 -18 -35 -30 -41 -21 -54 -36 -22 -26 10 3 37 8 61 10 24 2 51 12 60 21 15
16 14 16 -17 0 -18 -9 -39 -14 -45 -12 -18 6 89 107 114 107 12 0 38 10 58 22
20 13 44 21 53 20 10 -2 18 1 18 6 0 4 19 21 42 36 l43 28 44 -22 c130 -63
226 -87 336 -82 66 2 80 7 205 63 l85 38 48 -17 c26 -9 47 -20 47 -24 0 -4
-14 -23 -31 -43 -40 -45 -25 -45 26 0 32 29 46 34 69 30 41 -7 42 -10 12 -46
-15 -17 -25 -34 -22 -36 8 -8 43 16 60 42 12 19 25 25 51 25 39 0 46 -14 15
-30 -11 -6 -24 -19 -30 -30 -17 -33 14 -25 54 14 20 18 36 32 36 31 0 -2 16 1
36 5 36 8 36 8 30 -21 -3 -16 -3 -29 0 -29 3 0 24 15 45 34 37 31 82 50 93 38
3 -2 -6 -20 -21 -38 -30 -41 -10 -48 26 -10 13 14 50 43 82 66 53 37 59 39 59
21 0 -12 -4 -21 -10 -21 -5 0 -16 -13 -25 -30 -18 -34 -18 -40 -6 -40 14 0
131 114 131 127 0 6 7 16 15 23 11 9 15 9 15 1 0 -7 10 -9 28 -5 27 7 27 7
-13 -42 -22 -27 -43 -50 -47 -52 -11 -5 -10 -32 1 -32 5 0 48 45 96 99 88 99
111 115 150 105 14 -3 25 3 35 19 8 13 40 45 70 70 74 63 79 67 125 122 50 59
68 85 60 85 -3 0 -1 6 5 13 55 65 110 187 115 256 2 25 6 54 10 64 4 9 4 88 1
175 -4 86 -7 170 -7 185 0 16 -6 30 -15 34 -8 3 -13 11 -10 18 4 13 -58 154
-73 165 -3 3 -22 29 -40 58 -18 29 -41 58 -50 65 -10 7 -25 26 -35 42 -30 49
-132 125 -219 162 -91 40 -222 67 -284 59 -45 -6 -53 2 -53 53 0 78 -66 241
-148 366 -145 220 -399 366 -703 405 -94 11 -141 11 -248 -1z m-161 -69 c0 -5
-4 -10 -10 -10 -5 0 -10 5 -10 10 0 6 5 10 10 10 6 0 10 -4 10 -10z m498 -60
c17 -7 32 -15 32 -18 0 -3 -18 -33 -39 -66 -46 -71 -61 -116 -38 -116 18 0 61
47 102 112 30 48 60 62 71 34 5 -14 -10 -49 -70 -160 -25 -47 -33 -76 -20 -76
3 0 24 14 47 32 28 23 51 54 74 106 29 62 38 73 56 70 12 -2 23 -11 25 -22 7
-33 -109 -187 -250 -331 -75 -77 -155 -164 -178 -192 -36 -45 -39 -54 -25 -60
13 -4 64 42 208 191 154 160 192 195 199 182 5 -9 6 -26 2 -39 -12 -37 -83
-144 -107 -160 -12 -8 -58 -59 -102 -113 -43 -55 -85 -104 -92 -110 -16 -14
-17 -34 -2 -34 22 0 71 43 123 108 30 37 78 90 107 119 71 68 151 143 154 143
1 0 -1 -20 -6 -45 -9 -50 -54 -126 -120 -202 -127 -148 -163 -205 -117 -188
18 7 205 205 257 272 56 72 62 52 18 -67 -36 -98 -91 -184 -164 -255 -34 -32
-40 -49 -24 -59 5 -4 60 43 122 104 107 104 113 109 131 93 16 -14 18 -15 18
0 0 9 4 18 9 22 15 9 -6 -55 -26 -79 -10 -11 -35 -40 -55 -63 -66 -74 -41
-103 27 -33 66 68 92 45 30 -27 -34 -40 -46 -83 -24 -83 6 0 36 22 67 48 31
27 71 58 88 70 30 20 130 62 149 62 5 0 -57 -65 -139 -144 -136 -132 -161
-166 -122 -166 8 0 52 44 99 98 125 141 229 231 270 232 33 0 17 -26 -64 -105
-111 -109 -247 -285 -220 -285 14 0 43 29 123 125 42 50 110 122 152 162 42
39 76 79 76 87 0 12 11 16 45 16 33 0 45 -4 45 -14 0 -15 -78 -95 -194 -200
-62 -56 -84 -92 -52 -84 14 3 194 158 275 236 24 23 47 42 51 42 4 0 19 -9 33
-20 l26 -21 -169 -145 c-94 -81 -170 -149 -170 -153 0 -3 -20 -19 -44 -35 -43
-29 -75 -66 -57 -66 14 0 144 91 188 131 21 20 61 53 87 73 27 20 68 53 91 72
23 19 47 34 53 34 6 0 24 16 39 35 31 39 63 47 63 15 0 -10 -14 -35 -31 -55
-26 -30 -34 -33 -47 -23 -13 11 -14 10 -9 -7 5 -15 -1 -26 -26 -43 -54 -38
-382 -360 -375 -368 11 -10 39 11 239 182 230 196 265 228 279 254 13 24 27
18 41 -17 7 -19 5 -31 -13 -55 -20 -29 -22 -30 -35 -12 -12 17 -13 17 -13 0 0
-9 -4 -14 -10 -11 -6 3 -7 -1 -4 -10 7 -17 -30 -58 -213 -242 -83 -82 -93 -98
-72 -105 15 -5 -112 -112 -163 -139 -37 -19 -52 -49 -25 -49 28 0 136 80 165
122 37 53 318 340 309 315 -4 -10 -7 -24 -7 -32 0 -7 -21 -43 -46 -79 -25 -37
-52 -90 -60 -117 -8 -28 -25 -58 -37 -68 -104 -88 -139 -115 -187 -148 -30
-21 -91 -74 -135 -118 -66 -65 -86 -93 -109 -150 -16 -38 -72 -155 -125 -260
-87 -172 -99 -190 -123 -193 -16 -2 -28 -1 -28 2 0 2 27 53 60 113 33 59 60
114 60 122 0 26 68 156 119 226 28 38 48 71 46 73 -8 8 -50 -25 -91 -70 -21
-23 -98 -101 -170 -173 -71 -71 -143 -147 -158 -167 -16 -21 -34 -38 -41 -38
-26 0 25 103 78 160 139 149 329 371 323 377 -3 3 -18 -3 -35 -13 -36 -23
-403 -401 -420 -432 -15 -28 -31 -19 -31 17 0 39 76 142 214 290 64 68 116
127 116 132 0 37 -54 -9 -232 -199 -24 -26 -65 -60 -91 -77 -39 -25 -155 -120
-257 -209 -14 -12 -51 -51 -83 -85 -37 -40 -63 -61 -72 -57 -8 3 -15 9 -15 13
0 5 116 123 258 263 263 261 327 328 317 338 -3 3 -31 -19 -63 -50 -31 -30
-84 -76 -117 -103 -33 -26 -127 -111 -210 -189 -232 -218 -228 -214 -222 -236
8 -33 -9 -32 -38 1 -31 38 -38 27 109 169 124 118 260 274 246 278 -23 8 -340
-282 -380 -347 -14 -22 -33 -41 -43 -41 -9 0 -30 -13 -45 -29 -29 -32 -177
-114 -194 -109 -6 2 35 44 91 92 106 94 132 128 57 77 -48 -33 -91 -73 -147
-136 -49 -55 -60 -63 -120 -85 -62 -23 -73 -20 -27 7 18 11 78 59 133 107 55
48 126 104 158 125 62 41 269 223 336 296 42 46 52 75 26 75 -8 0 -43 -26 -77
-58 -72 -66 -188 -161 -303 -249 -44 -34 -97 -77 -118 -97 -20 -19 -53 -47
-72 -62 -39 -29 -132 -151 -127 -166 1 -5 -2 -7 -8 -3 -5 3 -10 2 -10 -3 0 -5
-37 -26 -82 -46 -46 -21 -105 -48 -133 -61 -27 -13 -63 -27 -80 -31 -28 -6
-26 -4 20 33 37 30 71 74 130 173 87 144 61 116 548 573 75 71 137 133 137
138 0 23 -36 4 -108 -58 -42 -37 -83 -73 -90 -80 -8 -8 -84 -75 -170 -151 -86
-75 -198 -176 -250 -224 -51 -48 -99 -85 -106 -82 -30 12 -141 -118 -198 -230
-53 -105 -95 -146 -148 -146 -21 0 -28 24 -10 35 6 4 8 10 5 15 -3 5 0 21 6
37 36 94 56 206 53 296 -2 52 -8 106 -13 120 -9 24 -16 27 -57 27 l-47 0 49
53 c26 28 131 141 233 250 102 109 187 205 189 213 8 35 -33 3 -181 -143 -169
-168 -297 -316 -297 -345 0 -14 -8 -18 -34 -18 -43 0 -52 12 -25 36 12 10 49
59 84 109 35 49 104 136 155 193 60 67 90 108 86 118 -5 13 -9 13 -29 -3 -20
-16 -110 -110 -190 -198 -24 -26 -124 -171 -152 -220 -10 -17 -12 -17 -44 -1
l-33 18 29 31 c17 18 49 60 72 94 51 77 133 175 228 274 40 42 73 82 73 88 0
24 -28 7 -96 -57 -90 -85 -173 -183 -253 -299 -77 -114 -86 -122 -109 -99 -21
21 -25 15 136 226 116 154 133 180 114 180 -25 0 -239 -256 -279 -333 -14 -28
-15 -28 -34 -11 -10 9 -19 22 -19 28 0 9 151 214 244 330 31 39 30 52 -2 42
-26 -8 -135 -139 -207 -248 -32 -49 -61 -88 -64 -88 -7 0 -16 13 -59 91 l-32
56 56 64 c65 75 164 212 164 228 0 37 -76 -43 -163 -170 l-65 -97 -11 56 c-25
123 -2 273 58 397 22 44 27 62 18 68 -8 5 -7 7 3 5 9 -2 41 22 71 53 60 60
146 109 190 109 15 0 39 4 53 10 19 7 24 14 20 32 -32 134 -27 203 24 312 51
109 128 175 258 222 79 29 183 32 260 7 47 -14 53 -20 59 -50 12 -64 77 -54
89 14 11 56 78 190 130 254 57 72 202 181 277 209 129 47 215 60 364 56 77 -2
155 -9 173 -16z m-658 -39 c0 -6 -4 -13 -10 -16 -5 -3 -10 1 -10 9 0 9 5 16
10 16 6 0 10 -4 10 -9z m974 -97 c22 -8 20 -39 -7 -115 -30 -86 -34 -91 -58
-79 -27 15 -24 46 11 118 17 34 30 67 30 72 0 12 3 12 24 4z m104 -102 c8 -23
2 -43 -42 -134 -28 -59 -55 -108 -59 -108 -22 0 32 202 69 262 10 15 22 8 32
-20z m96 -143 c0 -28 -9 -57 -23 -79 l-22 -35 5 30 c3 17 8 54 11 83 8 65 30
65 29 1z m-278 -27 c-22 -23 -29 -10 -9 18 11 16 18 19 21 11 2 -7 -3 -20 -12
-29z m185 -117 c-5 -22 -15 -63 -21 -92 -13 -59 -40 -93 -40 -50 0 13 6 42 13
63 8 22 17 65 21 96 3 31 12 69 18 85 12 28 12 28 16 -17 2 -24 -1 -63 -7 -85z
m169 33 c0 -9 8 -30 17 -46 15 -25 15 -35 5 -70 -13 -44 -68 -122 -90 -130
-10 -3 -9 4 3 28 21 41 38 146 37 230 0 63 0 64 13 35 8 -16 14 -38 15 -47z
m-80 -37 c0 -16 -9 -39 -20 -52 l-19 -24 5 40 c8 54 12 65 24 65 5 0 10 -13
10 -29z m138 -191 c-2 -19 -7 -33 -12 -32 -5 2 -13 -2 -17 -10 -13 -21 -11 84
3 123 l12 34 8 -40 c5 -22 8 -56 6 -75z m-180 18 c-14 -41 -49 -100 -55 -94
-5 4 55 126 62 126 2 0 -1 -15 -7 -32z m-169 -44 c-48 -49 -57 -42 -12 10 21
24 40 40 42 34 2 -5 -12 -25 -30 -44z m221 -41 c-1 -5 -16 -26 -35 -48 -23
-27 -35 -34 -35 -23 0 18 46 78 61 78 5 0 9 -3 9 -7z m763 -287 c3 -8 -1 -20
-8 -26 -8 -7 -30 -36 -50 -66 -20 -30 -40 -54 -46 -54 -22 0 -6 52 33 104 42
56 61 68 71 42z m37 -79 c0 -29 -60 -150 -77 -155 -22 -6 -14 32 14 73 15 22
28 45 29 50 0 6 2 20 2 33 3 30 32 29 32 -1z m56 -163 c-9 -9 -23 -29 -31 -45
-37 -70 -36 -1 1 112 l18 53 14 -52 c13 -46 13 -53 -2 -68z m-3445 -1 c-9 -16
-10 -14 -11 12 0 21 3 26 11 18 8 -8 8 -16 0 -30z m3243 10 c-7 -29 -36 -75
-66 -105 -23 -23 -23 -10 3 49 32 75 77 115 63 56z m255 -105 c1 -27 -5 -41
-21 -52 -12 -9 -25 -16 -28 -16 -10 0 5 93 20 120 12 23 14 24 21 5 4 -11 8
-37 8 -57z m-180 45 c-1 -28 -53 -146 -65 -150 -7 -2 -1 31 15 82 14 48 31 85
38 85 7 0 13 -8 12 -17z m71 -91 c0 -24 -34 -110 -49 -125 -14 -14 -10 11 17
100 14 49 32 63 32 25z m-200 5 c0 -28 -29 -110 -46 -128 -35 -39 -44 -14 -20
53 24 67 66 115 66 75z m318 -53 c-3 -3 -2 -21 2 -41 21 -91 -56 -309 -157
-444 -110 -148 -326 -278 -553 -334 -73 -18 -240 -44 -240 -37 0 3 20 22 44
43 36 32 55 64 107 179 35 78 68 140 76 140 20 0 17 -11 -43 -148 -75 -172
-74 -166 -38 -158 39 9 77 53 99 112 10 27 28 74 40 104 12 30 28 75 36 99 8
25 20 46 27 49 18 6 15 -16 -16 -98 -87 -229 -90 -279 -13 -214 24 20 37 47
61 127 61 203 128 363 144 346 6 -6 -29 -134 -53 -189 -30 -70 -44 -104 -46
-115 -2 -5 -12 -33 -23 -62 -23 -56 -15 -78 23 -63 47 18 85 95 141 290 26 90
79 251 118 355 2 6 6 7 10 3 9 -8 -83 -317 -137 -461 -22 -59 -38 -110 -34
-113 14 -14 74 35 99 82 15 28 32 47 40 45 7 -2 20 -4 28 -5 17 -1 100 120
100 147 0 10 4 16 9 13 5 -3 15 2 22 12 13 16 13 16 -5 2 -18 -14 -19 -13 -13
24 7 42 31 76 55 76 10 0 12 -7 8 -27 -5 -21 -4 -24 4 -13 5 8 10 28 10 43 0
16 4 36 9 45 5 9 11 37 15 62 l6 45 -21 -52 c-13 -31 -28 -53 -37 -53 -15 0
-15 4 10 93 14 52 50 97 76 97 8 0 13 -2 10 -6z m-482 -127 c-20 -57 -36 -110
-36 -117 0 -25 -51 -126 -70 -138 -25 -16 -25 -7 1 70 11 34 34 77 50 95 36
41 38 59 3 37 l-25 -17 7 29 c15 62 93 182 102 156 2 -7 -13 -58 -32 -115z
m-3069 21 c-3 -8 -6 -5 -6 6 -1 11 2 17 5 13 3 -3 4 -12 1 -19z m2963 -62
c-17 -44 -35 -68 -86 -114 -54 -48 -72 -73 -114 -159 -28 -56 -56 -108 -63
-115 -8 -7 -19 -34 -25 -59 -20 -81 -99 -239 -119 -239 -44 1 -46 16 -11 66
19 27 51 88 72 137 23 51 44 87 53 87 10 0 12 6 8 19 -6 19 36 137 62 176 7
11 13 28 13 38 0 29 212 239 226 224 3 -2 -5 -30 -16 -61z m430 35 c0 -14 -62
-113 -67 -107 -3 3 4 32 17 65 15 42 26 58 36 54 8 -3 14 -8 14 -12z m-226
-18 c-10 -44 -38 -96 -53 -101 -17 -6 -11 32 13 91 19 45 50 52 40 10z m173
-130 c-30 -108 -49 -162 -62 -167 -8 -3 -15 -1 -15 4 0 22 63 180 72 180 5 0
7 -8 5 -17z m-437 -46 c0 -14 -50 -122 -57 -122 -19 0 -12 43 14 83 23 35 43
53 43 39z m-446 -258 c-34 -69 -122 -209 -131 -209 -5 0 -45 20 -52 26 -4 3
146 181 158 186 4 2 17 18 30 36 36 51 34 38 -5 -39z m-326 20 c-70 -102 -88
-122 -88 -101 0 12 13 36 28 54 16 18 39 45 52 60 32 37 37 28 8 -13z m-104
-101 c-4 -13 -7 -28 -7 -35 0 -7 -4 -11 -8 -10 -4 1 -41 -33 -82 -75 -46 -48
-84 -78 -96 -78 -12 0 -21 4 -21 9 0 7 210 211 218 211 2 0 0 -10 -4 -22z
m-48 -137 c-14 -22 -26 -45 -26 -51 0 -5 -12 -10 -26 -10 -25 0 -24 2 23 54
26 29 49 52 51 51 2 -2 -8 -21 -22 -44z m135 2 c10 -11 9 -17 -2 -28 -15 -14
-130 -47 -138 -39 -3 2 17 24 44 48 50 44 72 48 96 19z m-1186 -50 c-19 -32
-58 -105 -87 -163 -54 -105 -54 -105 -96 -111 -23 -3 -42 -3 -42 -1 0 2 11 13
25 24 14 11 37 41 52 66 90 159 148 242 168 242 10 0 4 -18 -20 -57z m842 -85
c-3 -8 -6 -5 -6 6 -1 11 2 17 5 13 3 -3 4 -12 1 -19z"/>
<path d="M7714 9131 c-52 -41 -98 -101 -127 -164 l-17 -37 25 16 c37 24 185
192 185 209 0 23 -13 18 -66 -24z"/>
<path d="M8168 9113 c-135 -142 -311 -361 -304 -379 3 -9 12 -14 18 -12 25 9
362 403 366 429 6 34 -23 20 -80 -38z"/>
<path d="M7983 9083 c-138 -143 -243 -277 -243 -308 0 -29 27 -15 71 38 24 28
101 118 172 200 116 134 125 147 101 147 -20 0 -45 -19 -101 -77z"/>
<path d="M7824 9077 c-151 -162 -201 -237 -160 -237 18 0 248 268 241 281 -12
19 -33 8 -81 -44z"/>
<path d="M8279 9038 c-106 -109 -240 -275 -288 -355 -38 -65 -19 -72 30 -11
19 24 58 68 87 99 98 105 242 284 242 302 0 28 -17 20 -71 -35z"/>
<path d="M7230 8814 c0 -8 5 -12 10 -9 6 3 10 10 10 16 0 5 -4 9 -10 9 -5 0
-10 -7 -10 -16z"/>
<path d="M7027 8802 c-22 -25 -22 -52 1 -52 25 0 42 19 42 47 0 28 -21 30 -43
5z"/>
<path d="M6911 8674 c-24 -27 -52 -66 -63 -87 -19 -39 -21 -77 -3 -79 12 -1
118 188 113 203 -2 7 -23 -10 -47 -37z"/>
<path d="M6912 8508 c-33 -20 -35 -38 -3 -38 15 0 48 47 39 55 -2 1 -18 -7
-36 -17z"/>
<path d="M6550 8059 c-7 -11 -10 -23 -7 -25 2 -2 9 7 15 21 14 30 7 33 -8 4z"/>
<path d="M6620 8019 c-12 -16 -19 -33 -16 -36 9 -9 67 48 60 59 -9 15 -22 8
-44 -23z"/>
<path d="M6468 7953 c-102 -131 -148 -233 -63 -140 52 56 125 163 125 183 0
26 -17 14 -62 -43z"/>
<path d="M6596 7818 c-93 -121 -186 -251 -186 -263 0 -36 25 -18 92 67 122
155 158 204 158 216 0 24 -40 11 -64 -20z"/>
<path d="M7395 7743 c-27 -25 -126 -121 -218 -212 -182 -180 -249 -263 -228
-284 9 -9 27 6 84 68 40 44 154 163 255 265 100 102 182 191 182 198 0 23 -25
11 -75 -35z"/>
<path d="M7575 7713 c-11 -3 -43 -26 -71 -52 -28 -25 -106 -95 -174 -156 -130
-116 -231 -217 -275 -275 -84 -111 -148 -240 -99 -199 9 7 38 45 64 84 45 66
224 249 456 465 56 52 106 105 113 118 6 12 10 21 9 21 -2 -1 -12 -4 -23 -6z"/>
<path d="M7678 7653 c-36 -32 -118 -105 -184 -163 -239 -211 -386 -354 -449
-438 -79 -104 -178 -290 -146 -273 11 6 41 45 68 87 90 143 140 199 349 394
353 330 450 427 438 440 -8 8 -28 -5 -76 -47z"/>
<path d="M7906 7520 c-64 -56 -156 -133 -204 -172 -134 -109 -287 -246 -309
-276 -11 -15 -37 -52 -58 -82 -20 -30 -50 -69 -66 -85 -38 -41 -40 -69 -3 -55
48 19 86 52 122 109 45 71 173 198 377 375 255 221 316 286 272 286 -8 0 -67
-45 -131 -100z"/>
<path d="M1900 9425 c-163 -20 -203 -25 -225 -29 -239 -50 -501 -154 -680
-270 -237 -155 -454 -437 -516 -671 -28 -109 -31 -346 -5 -452 10 -40 22 -73
28 -73 5 0 6 -4 3 -10 -6 -10 77 -184 102 -212 8 -9 16 -24 17 -33 4 -26 123
-160 198 -222 37 -31 68 -62 68 -69 0 -71 -76 -357 -114 -429 -9 -16 -16 -35
-16 -41 0 -6 -18 -43 -39 -83 -58 -104 -67 -136 -47 -166 20 -30 31 -33 16 -4
-7 11 -9 23 -7 25 3 3 11 -9 18 -26 14 -30 15 -31 69 -25 79 9 214 56 317 111
48 25 110 58 137 72 26 14 50 32 53 39 3 7 9 11 13 8 11 -7 159 105 241 182
l66 63 34 -18 c83 -42 614 -4 789 57 14 5 57 18 96 30 115 35 407 192 421 227
3 7 9 11 14 8 31 -19 279 250 366 397 34 57 69 122 78 144 10 22 24 56 32 75
21 48 30 140 14 140 -9 0 -8 5 2 15 18 17 23 208 8 259 -53 173 -75 239 -85
249 -7 7 -27 44 -45 82 -42 89 -106 178 -168 233 -26 24 -66 60 -88 81 -72 66
-229 160 -361 217 -157 68 -289 99 -484 114 -80 6 -161 12 -180 14 -19 2 -82
-2 -140 -9z m355 -130 c174 -32 244 -48 330 -74 72 -21 90 -31 90 -45 0 -11
-8 -20 -20 -22 -11 -2 -99 13 -195 33 -168 35 -183 37 -380 37 -175 0 -220 -3
-310 -23 -296 -64 -523 -153 -683 -269 -81 -58 -277 -223 -277 -232 0 -4 -16
-24 -35 -44 -36 -38 -41 -51 -27 -60 8 -4 168 95 182 113 3 3 23 19 45 36 22
16 42 32 45 35 7 8 80 50 87 50 16 0 -189 -170 -330 -274 -53 -38 -83 -69 -93
-91 -8 -19 -14 -37 -14 -40 0 -15 33 1 124 61 56 37 116 76 133 88 18 11 33
24 33 29 0 4 5 7 11 7 7 0 32 16 56 37 31 24 41 29 32 15 -8 -12 -16 -22 -19
-22 -6 0 -50 -34 -110 -86 -19 -17 -73 -58 -120 -91 -136 -97 -180 -140 -180
-174 0 -16 4 -29 10 -29 5 0 85 53 177 119 93 65 172 116 177 113 5 -3 0 -12
-11 -21 -11 -9 -33 -27 -49 -39 -16 -13 -63 -47 -104 -75 -95 -64 -193 -145
-202 -166 -4 -9 -7 -24 -7 -33 -1 -15 3 -16 25 -8 31 12 259 164 297 199 18
17 27 20 27 10 0 -8 -53 -53 -118 -102 -98 -73 -222 -180 -222 -192 0 -13 14
-35 22 -35 6 0 54 30 107 67 195 135 220 151 215 139 -2 -6 -25 -27 -50 -46
-119 -93 -251 -199 -266 -217 -16 -17 -16 -22 -4 -39 14 -18 16 -18 63 16 26
18 52 40 56 47 4 7 13 13 18 13 6 0 7 -4 4 -10 -3 -6 1 -7 9 -4 9 3 16 9 16
14 0 4 30 28 68 53 37 25 80 56 96 68 16 13 27 18 25 12 -2 -6 -75 -68 -161
-137 -124 -99 -158 -132 -158 -150 0 -41 26 -37 92 16 78 62 97 73 109 61 6
-6 -6 -21 -32 -38 -23 -16 -65 -56 -95 -89 -29 -33 -55 -58 -57 -56 -2 3 -24
46 -49 95 -72 141 -89 208 -91 355 -2 188 37 317 147 488 123 193 397 404 616
477 30 10 48 21 44 27 -4 7 -2 8 4 4 6 -4 58 7 114 24 57 16 173 43 258 59
182 34 374 40 505 16z m240 5 c3 -5 1 -10 -4 -10 -6 0 -11 5 -11 10 0 6 2 10
4 10 3 0 8 -4 11 -10z m-726 -206 c-14 -18 -24 -11 -15 11 3 9 11 13 16 10 8
-5 7 -11 -1 -21z m649 4 c-2 -6 -10 -13 -16 -14 -9 -2 -9 -1 -1 3 8 4 7 8 -2
14 -11 7 -10 9 4 9 10 0 17 -5 15 -12z m258 -75 c-11 -11 -17 4 -9 23 7 18 8
18 11 1 2 -10 1 -21 -2 -24z m-639 -15 c-3 -8 -6 -5 -6 6 -1 11 2 17 5 13 3
-3 4 -12 1 -19z m-722 -17 c5 -10 -43 -61 -57 -61 -15 0 -8 24 14 47 23 25 34
28 43 14z m-108 -63 c-3 -8 -6 -5 -6 6 -1 11 2 17 5 13 3 -3 4 -12 1 -19z
m1719 -5 c-10 -10 -19 5 -10 18 6 11 8 11 12 0 2 -7 1 -15 -2 -18z m-1746 -39
c-18 -21 -24 -10 -9 18 8 14 14 18 17 10 2 -7 -2 -19 -8 -28z m140 -18 c0 -3
-4 -8 -10 -11 -5 -3 -10 -1 -10 4 0 6 5 11 10 11 6 0 10 -2 10 -4z m1600 -52
c0 -8 -4 -12 -10 -9 -5 3 -10 10 -10 16 0 5 5 9 10 9 6 0 10 -7 10 -16z m151
-41 c-8 -15 -10 -15 -11 -2 0 17 10 32 18 25 2 -3 -1 -13 -7 -23z m-1271 -23
c0 -5 -5 -10 -11 -10 -5 0 -7 5 -4 10 3 6 8 10 11 10 2 0 4 -4 4 -10z m1388
-11 c-2 -6 -8 -10 -13 -10 -5 0 -11 4 -13 10 -2 6 4 11 13 11 9 0 15 -5 13
-11z m-2053 -28 c3 -5 1 -12 -5 -16 -5 -3 -10 1 -10 9 0 18 6 21 15 7z m1185
-57 c-18 -21 -24 -10 -9 18 8 14 14 18 17 10 2 -7 -2 -19 -8 -28z m454 -15
c-16 -17 -42 -40 -59 -51 -21 -15 -15 -5 20 30 27 29 54 52 59 52 5 0 -3 -14
-20 -31z m-1417 -11 c-3 -8 -6 -5 -6 6 -1 11 2 17 5 13 3 -3 4 -12 1 -19z
m1570 7 c0 -8 -4 -12 -9 -9 -4 3 -8 -2 -8 -10 0 -9 -4 -16 -10 -16 -15 0 -12
11 7 32 19 22 20 22 20 3z m-1180 -31 c-3 -3 -12 -4 -19 -1 -8 3 -5 6 6 6 11
1 17 -2 13 -5z m-617 -18 c0 -2 -8 -10 -17 -17 -16 -13 -17 -12 -4 4 13 16 21
21 21 13z m579 1 c-2 -1 -13 -9 -24 -17 -19 -14 -19 -14 -6 3 7 9 18 17 24 17
6 0 8 -1 6 -3z m1134 -22 c-3 -8 -9 -15 -14 -15 -10 0 -12 24 -3 33 11 11 24
-3 17 -18z m130 -21 c-10 -15 -19 -22 -21 -15 -2 7 4 19 14 26 26 20 27 19 7
-11z m-1910 -15 c-12 -12 -26 -18 -33 -14 -8 5 -4 11 12 20 36 20 45 17 21 -6z
m1721 -8 c-16 -16 -31 -27 -34 -24 -5 4 49 53 59 53 2 0 -9 -13 -25 -29z m106
-45 c0 -8 -7 -16 -15 -20 -13 -4 -14 -2 -5 14 13 23 20 26 20 6z m440 -32 c0
-9 -5 -14 -12 -12 -18 6 -21 28 -4 28 9 0 16 -7 16 -16z m-2290 -37 c0 -10
-41 -49 -46 -44 -6 6 26 45 39 46 4 1 7 -1 7 -2z m988 -52 c22 -24 32 -44 32
-67 0 -72 -71 -136 -133 -122 -126 27 -141 179 -24 229 42 17 84 4 125 -40z
m-388 29 c0 -8 -5 -12 -10 -9 -6 4 -8 11 -5 16 9 14 15 11 15 -7z m816 -3 c17
-10 38 -35 47 -54 34 -71 -20 -150 -101 -149 -76 1 -121 41 -122 108 0 92 96
144 176 95z m-896 -6 c39 -20 60 -53 60 -95 0 -109 -128 -152 -209 -71 -15 15
-21 34 -21 65 0 91 88 143 170 101z m1507 -47 c-3 -8 -6 -5 -6 6 -1 11 2 17 5
13 3 -3 4 -12 1 -19z m278 -91 c-6 -92 -11 -113 -51 -209 -58 -138 -103 -211
-187 -303 -46 -51 -67 -81 -63 -91 4 -11 2 -15 -7 -11 -8 3 -39 -19 -73 -51
-111 -107 -323 -229 -504 -289 -246 -82 -602 -123 -755 -87 -38 9 -88 18 -111
21 -37 4 -43 2 -67 -30 -54 -71 -293 -244 -438 -317 -63 -32 -236 -110 -244
-110 -3 0 -5 6 -5 13 0 23 41 52 160 114 147 76 321 190 435 287 50 42 111 95
138 117 26 22 47 36 47 31 0 -5 -7 -15 -16 -22 -8 -8 -19 -21 -24 -30 -10 -19
-6 -19 280 -22 159 -2 190 0 217 15 20 10 34 13 38 7 7 -12 5 -12 184 31 137
32 215 61 376 141 157 77 285 178 406 319 80 92 115 144 176 262 25 48 63 197
63 248 0 46 10 80 21 73 5 -3 7 -50 4 -107z m-205 33 c0 -5 -4 -10 -10 -10 -5
0 -10 5 -10 10 0 6 5 10 10 10 6 0 10 -4 10 -10z m-2134 -27 c-10 -10 -19 5
-10 18 6 11 8 11 12 0 2 -7 1 -15 -2 -18z m2222 -13 c2 -39 -10 -54 -21 -27
-6 17 3 67 13 67 3 0 7 -18 8 -40z m-2173 -59 c-3 -6 -11 -11 -17 -11 -6 0 -6
6 2 15 14 17 26 13 15 -4z m2359 -136 c-4 -8 -8 -15 -10 -15 -2 0 -4 7 -4 15
0 8 4 15 10 15 5 0 7 -7 4 -15z m-2426 -47 c-3 -7 -15 -14 -29 -16 -23 -2 -23
-2 -5 13 24 18 39 20 34 3z m712 -38 c0 -5 -4 -10 -10 -10 -5 0 -10 5 -10 10
0 6 5 10 10 10 6 0 10 -4 10 -10z m1448 -45 c-3 -3 -9 2 -12 12 -6 14 -5 15 5
6 7 -7 10 -15 7 -18z m-858 -19 c0 -3 -4 -8 -10 -11 -5 -3 -10 -1 -10 4 0 6 5
11 10 11 6 0 10 -2 10 -4z m-1350 -50 c0 -8 -23 -31 -50 -51 -57 -42 -100 -93
-100 -120 0 -15 6 -17 36 -12 20 3 50 17 67 30 75 57 197 137 197 130 0 -4
-28 -28 -61 -53 -75 -56 -162 -146 -156 -163 2 -6 15 -16 29 -21 20 -7 33 -3
64 18 33 23 39 24 42 10 2 -9 -8 -27 -24 -39 -48 -38 -5 -61 56 -30 30 16 40
9 18 -13 -9 -9 -8 -21 2 -51 16 -50 9 -122 -24 -251 -31 -120 -44 -154 -96
-263 -77 -160 -80 -110 -6 115 47 142 80 301 74 358 -2 29 -11 40 -52 67 -75
49 -239 215 -225 227 2 2 36 20 75 40 39 20 81 47 94 61 26 28 40 32 40 11z
m1790 -16 c0 -5 -4 -10 -10 -10 -5 0 -10 5 -10 10 0 6 5 10 10 10 6 0 10 -4
10 -10z m-1573 -92 c-3 -8 -6 -5 -6 6 -1 11 2 17 5 13 3 -3 4 -12 1 -19z
m1390 -10 c-3 -8 -6 -5 -6 6 -1 11 2 17 5 13 3 -3 4 -12 1 -19z m-977 -23 c-7
-9 -15 -13 -17 -11 -7 7 7 26 19 26 6 0 6 -6 -2 -15z m-500 -47 c0 -16 -3 -19
-11 -11 -6 6 -8 16 -5 22 11 17 16 13 16 -11z m1750 -2 c0 -16 -18 -31 -27
-22 -8 8 5 36 17 36 5 0 10 -6 10 -14z m-1290 0 c0 -3 -4 -8 -10 -11 -5 -3
-10 -1 -10 4 0 6 5 11 10 11 6 0 10 -2 10 -4z m1162 -98 c-9 -9 -12 -7 -12 12
0 19 3 21 12 12 9 -9 9 -15 0 -24z m-625 -30 c-3 -7 -5 -2 -5 12 0 14 2 19 5
13 2 -7 2 -19 0 -25z m-82 -78 c-16 -16 -31 -28 -34 -25 -2 3 8 19 24 35 16
16 31 28 34 25 2 -3 -8 -19 -24 -35z m-380 20 c-3 -5 -11 -10 -16 -10 -6 0 -7
5 -4 10 3 6 11 10 16 10 6 0 7 -4 4 -10z m111 -56 c-4 -9 -9 -15 -11 -12 -3 3
-3 13 1 22 4 9 9 15 11 12 3 -3 3 -13 -1 -22z m634 8 c0 -11 -22 -32 -32 -32
-5 0 -4 9 2 20 11 20 30 28 30 12z m-1060 -6 c0 -3 -4 -8 -10 -11 -5 -3 -10
-1 -10 4 0 6 5 11 10 11 6 0 10 -2 10 -4z m650 -5 c0 -5 -6 -14 -14 -20 -12
-10 -13 -8 -9 8 5 21 23 30 23 12z m140 0 c0 -14 -47 -67 -54 -61 -7 7 33 70
45 70 5 0 9 -4 9 -9z m-934 -38 c-8 -15 -15 -25 -16 -21 0 12 23 58 27 54 3
-2 -2 -17 -11 -33z m1046 5 c-8 -8 -9 -4 -5 13 4 13 8 18 11 10 2 -7 -1 -18
-6 -23z m-302 -16 c-6 -2 -8 -8 -4 -13 3 -5 0 -9 -5 -9 -13 0 -14 11 -5 35 5
13 8 14 15 3 5 -7 4 -14 -1 -16z m-120 -11 c0 -12 -62 -72 -68 -66 -5 5 51 75
61 75 4 0 7 -4 7 -9z m389 -24 c-12 -27 -39 -44 -39 -25 0 13 41 60 47 54 2
-2 -2 -15 -8 -29z m-464 -197 c-3 -5 -11 -10 -16 -10 -6 0 -7 5 -4 10 3 6 11
10 16 10 6 0 7 -4 4 -10z m-583 -82 c-7 -7 -12 -8 -12 -2 0 14 12 26 19 19 2
-3 -1 -11 -7 -17z"/>
<path d="M5651 9398 c-6 -24 -19 -83 -29 -133 l-18 -90 -99 0 c-55 0 -122 3
-150 7 -59 9 -86 -2 -69 -29 6 -9 17 -20 25 -24 8 -4 52 -26 99 -49 47 -22 96
-49 109 -60 l25 -18 -52 -82 c-29 -45 -52 -85 -52 -89 0 -4 -11 -18 -25 -31
-27 -25 -50 -83 -40 -100 12 -19 36 -10 83 33 62 57 158 130 201 151 39 20 34
23 165 -83 88 -72 117 -91 129 -84 17 10 -1 70 -36 119 -45 63 -89 152 -85
170 3 15 114 69 213 103 36 13 50 23 50 37 0 26 -40 44 -78 34 -18 -5 -78 -10
-135 -12 l-102 -3 -15 45 c-8 25 -22 79 -30 120 -22 106 -24 110 -49 110 -19
0 -26 -8 -35 -42z m65 -250 c8 -50 22 -60 65 -48 83 24 109 2 29 -25 -58 -19
-67 -38 -45 -91 8 -20 13 -39 11 -42 -3 -2 -20 8 -39 22 -19 14 -36 26 -39 26
-3 0 -29 -16 -58 -35 -74 -50 -84 -46 -49 19 16 29 27 60 24 68 -3 8 -29 26
-58 41 l-52 27 72 -5 72 -6 7 28 c3 15 11 43 16 62 10 33 12 33 25 16 7 -11
16 -36 19 -57z"/>
<path d="M9208 9403 c-26 -31 -30 -44 -18 -58 17 -21 54 -19 73 3 22 25 21 49
-2 62 -27 14 -36 13 -53 -7z"/>
<path d="M9372 9269 c-44 -32 -55 -66 -28 -88 18 -16 39 -5 86 43 28 30 32 40
24 54 -17 27 -36 25 -82 -9z"/>
<path d="M9446 9099 c-69 -53 -79 -72 -48 -88 15 -8 28 -2 66 29 59 49 89 86
81 100 -12 19 -32 10 -99 -41z"/>
<path d="M3890 9067 c-25 -19 -78 -53 -118 -77 -83 -49 -105 -76 -76 -97 10
-7 23 -13 30 -13 13 0 108 72 119 90 3 6 32 29 63 52 61 45 73 58 66 70 -10
16 -40 7 -84 -25z"/>
<path d="M4264 9085 c-9 -22 19 -59 79 -104 28 -22 71 -63 95 -91 47 -54 69
-61 98 -29 17 18 17 23 4 46 -8 14 -29 33 -47 43 -17 9 -58 39 -90 67 -100 85
-128 99 -139 68z"/>
<path d="M9560 9042 c-31 -27 -42 -43 -37 -55 8 -22 15 -21 54 3 55 33 79 90
39 90 -8 0 -33 -17 -56 -38z"/>
<path d="M9658 8929 c-43 -35 -46 -48 -19 -73 18 -17 21 -16 55 6 44 29 51 44
31 74 -19 30 -22 30 -67 -7z"/>
<path d="M5657 8563 c-4 -3 -7 -16 -7 -29 0 -20 17 -34 41 -34 12 0 28 41 22
58 -5 13 -45 17 -56 5z"/>
<path d="M4704 8359 c-25 -13 -50 -65 -60 -124 -9 -57 -20 -73 -51 -77 -23 -2
-28 -7 -26 -28 6 -68 10 -265 6 -277 -4 -10 -32 -13 -107 -13 -190 0 -431 -50
-616 -127 -261 -109 -458 -252 -619 -448 -85 -104 -157 -208 -194 -280 -36
-73 -113 -281 -126 -345 -53 -252 -63 -432 -36 -641 22 -175 69 -326 158 -504
87 -174 273 -409 394 -497 17 -13 60 -45 95 -71 37 -28 70 -46 80 -43 10 2 16
-1 15 -7 -1 -6 31 -29 71 -50 l74 -39 -7 -36 c-4 -21 -9 -39 -11 -41 -2 -2
-23 3 -46 13 -43 17 -43 17 -65 -9 -22 -25 -43 -83 -43 -118 0 -11 7 -34 16
-52 15 -32 14 -35 -15 -94 -39 -77 -39 -99 1 -138 39 -36 77 -57 136 -73 59
-15 81 0 115 82 l28 65 80 -23 c44 -13 154 -36 244 -51 l165 -27 0 -143 0
-143 -37 0 c-36 0 -237 -23 -313 -36 -66 -11 -205 -56 -262 -85 -72 -37 -108
-82 -108 -137 0 -25 5 -42 11 -42 8 0 8 -4 0 -14 -31 -37 52 -100 144 -112 11
-1 47 -9 80 -17 173 -42 447 -61 753 -54 237 6 295 10 372 23 43 8 76 13 115
18 56 6 180 39 217 58 60 29 72 55 63 143 -8 88 -29 121 -97 153 -93 43 -389
102 -533 105 l-74 2 -3 147 -3 148 45 6 c307 40 598 147 845 311 223 147 354
276 505 491 91 130 140 221 200 373 161 404 185 785 75 1206 -61 235 -162 451
-300 644 -117 163 -345 393 -505 508 -136 98 -349 207 -470 240 -183 50 -179
47 -159 140 14 65 -4 102 -60 124 -53 21 -131 29 -157 16z m94 -97 c10 -7 10
-24 2 -78 -18 -129 -30 -115 136 -163 337 -97 647 -288 868 -537 100 -111 236
-315 309 -460 88 -175 123 -291 183 -599 21 -107 25 -415 6 -438 -7 -8 -10
-16 -7 -19 10 -10 -35 -214 -69 -313 -88 -259 -152 -381 -310 -589 -162 -215
-437 -421 -696 -524 -203 -80 -328 -115 -450 -127 -14 -1 -34 -4 -45 -8 -53
-15 -241 -25 -253 -12 -2 2 -15 0 -28 -5 -14 -6 -26 -6 -29 0 -4 6 -34 10 -68
10 -130 1 -396 52 -469 90 -59 31 -73 27 -97 -29 -11 -27 -21 -52 -21 -54 0
-3 -7 -21 -15 -41 l-16 -37 -28 20 -29 21 19 38 c29 59 46 149 32 171 -11 18
-9 19 34 18 l47 -2 24 65 c30 78 26 72 46 64 23 -9 20 -38 -8 -82 -29 -47 -39
-79 -27 -86 20 -13 182 -56 282 -75 415 -82 829 -26 1209 163 191 95 417 280
564 463 166 207 324 594 356 868 13 115 13 346 0 455 -31 264 -131 514 -315
791 -119 178 -241 304 -460 470 -99 76 -224 147 -365 209 -58 26 -320 110
-341 110 -4 0 -16 -39 -28 -87 -19 -83 -34 -114 -47 -100 -16 16 33 346 61
415 15 33 21 37 43 24z m192 -419 c207 -68 494 -264 697 -476 187 -196 379
-537 432 -769 46 -197 53 -492 16 -693 -37 -205 -155 -490 -277 -667 -214
-311 -523 -527 -918 -642 -188 -54 -427 -71 -652 -46 -106 12 -289 48 -300 58
-4 4 -3 24 3 45 11 42 16 43 104 22 112 -27 343 -48 465 -41 399 20 770 184
1044 461 93 94 194 222 217 274 8 17 17 31 20 31 9 0 86 177 139 320 51 137
66 201 81 335 22 206 -12 485 -81 670 -125 331 -313 583 -593 792 -165 123
-285 189 -435 238 -131 43 -125 38 -101 103 10 26 16 25 139 -15z m-533 -124
c-5 -18 -2 -20 16 -14 35 12 127 18 127 8 0 -5 33 -9 73 -9 73 0 74 0 108 -38
47 -54 83 -105 77 -111 -2 -3 -23 9 -46 26 -62 46 -144 52 -206 15 -25 -15
-46 -30 -46 -34 0 -4 -4 -13 -9 -20 -6 -10 -15 -7 -37 16 -22 22 -50 34 -107
47 -42 10 -77 21 -77 24 0 3 -27 6 -59 7 -43 0 -72 7 -105 25 -47 25 -56 46
-17 41 12 -2 37 2 57 8 24 8 39 9 47 1 9 -7 25 -6 52 4 43 15 85 19 85 8 0 -4
-10 -18 -22 -32 -16 -16 -7 -13 26 12 56 42 71 46 63 16z m531 -78 c15 -10 59
-35 98 -54 100 -50 169 -141 144 -188 -10 -18 -13 -18 -47 -4 -40 17 -55 28
-121 90 -106 98 -163 219 -74 156z m-969 -25 c56 -58 119 -79 246 -83 61 -2
120 -6 133 -9 l23 -5 -20 -28 c-61 -85 -46 -132 59 -185 81 -40 98 -43 140
-21 37 19 56 55 65 125 9 66 18 80 57 80 31 0 68 -33 93 -81 16 -30 68 -76
112 -100 33 -18 95 -106 91 -129 -3 -12 -20 -15 -88 -15 -112 0 -133 -13 -328
-204 l-153 -149 3 -71 c1 -39 -1 -73 -4 -76 -3 -4 -20 14 -37 38 -43 62 -62
68 -253 71 -53 1 -72 -3 -95 -20 -41 -29 -73 -99 -73 -157 0 -93 50 -144 129
-132 25 3 59 7 75 8 l30 2 -3 -56 c-2 -53 -1 -56 33 -80 19 -13 43 -40 52 -61
9 -20 26 -46 38 -56 48 -43 144 -55 186 -22 29 22 86 26 172 10 30 -6 79 -12
107 -14 39 -3 64 -12 94 -34 23 -16 53 -33 67 -37 61 -19 112 -78 176 -203 41
-81 69 -107 165 -150 73 -33 119 -80 119 -121 0 -35 -104 -203 -163 -264 -25
-26 -55 -48 -66 -48 -29 -2 -33 -3 -56 -16 -11 -6 -37 -14 -58 -18 -43 -8
-152 -77 -167 -105 -5 -10 -36 -31 -67 -46 -32 -15 -71 -37 -88 -50 -16 -12
-55 -33 -87 -47 -89 -40 -177 -145 -178 -214 0 -12 -4 -24 -8 -27 -14 -9 -48
21 -66 58 -25 52 -20 94 19 161 83 142 145 305 145 381 0 20 -13 49 -35 80
-66 92 -145 230 -165 287 -23 66 -20 88 23 165 31 55 37 105 18 154 -11 29
-59 78 -77 78 -7 0 -38 19 -70 43 -108 79 -218 144 -291 171 -114 43 -150 92
-212 292 -33 105 -44 124 -72 124 -17 0 -22 -14 -32 -90 -5 -33 -22 -12 -34
40 -7 30 -19 83 -27 118 -19 83 -7 132 72 292 88 176 91 211 27 291 -19 24
-35 48 -35 52 0 4 37 25 83 46 45 21 107 50 137 64 30 14 62 26 71 26 8 1 30
-14 48 -33z m918 -160 c-9 -22 -27 -20 -27 3 0 11 -3 28 -6 38 -6 15 -4 15 16
-4 14 -13 20 -28 17 -37z m-397 -21 c0 -37 -18 -46 -50 -25 -13 9 -10 14 15
35 17 14 31 25 33 25 1 0 2 -16 2 -35z m-943 -50 c22 -19 24 -24 11 -25 -10 0
-18 -5 -18 -11 0 -6 8 -8 18 -5 10 4 27 0 38 -8 18 -14 18 -16 2 -43 -10 -15
-44 -80 -75 -143 l-58 -115 0 -100 0 -100 57 -116 c52 -106 92 -159 121 -159
22 0 48 -36 63 -87 20 -69 80 -130 160 -162 105 -42 183 -84 187 -102 3 -12
11 -16 26 -12 16 4 31 -4 58 -33 l36 -39 -24 -6 c-36 -10 -127 -10 -133 0 -3
4 -17 6 -31 4 -14 -3 -50 -2 -80 2 l-55 6 30 26 c17 13 30 31 30 40 0 9 -14 2
-42 -22 -46 -39 -71 -48 -112 -43 l-26 3 45 50 c61 67 37 71 -30 5 -47 -47
-56 -51 -84 -45 -42 9 -40 35 5 85 43 47 40 59 -7 31 -18 -11 -36 -18 -40 -16
-3 3 -14 -16 -24 -40 -10 -27 -23 -45 -33 -46 -36 -2 -77 3 -86 11 -4 4 31 47
78 94 47 48 86 92 86 99 0 6 -43 -32 -96 -85 -98 -101 -110 -107 -170 -89 -47
14 -153 36 -218 46 -69 10 -70 13 -29 59 21 23 71 80 112 127 146 167 142 161
120 174 -12 8 -29 -9 -172 -180 -60 -71 -120 -136 -132 -144 -20 -13 -26 -12
-54 8 -20 14 -38 20 -51 16 -17 -6 -20 -2 -20 28 0 19 4 57 10 86 9 47 18 59
113 153 57 57 145 154 196 216 52 62 102 117 112 123 22 11 26 42 5 37 -8 -2
-103 -99 -212 -217 -131 -141 -200 -208 -202 -197 -9 44 25 94 152 225 169
176 212 225 111 131 -44 -42 -102 -94 -129 -115 -27 -22 -63 -58 -79 -80 -17
-22 -27 -33 -24 -24 3 8 17 53 31 98 14 45 49 126 78 179 54 103 181 279 229
320 16 13 29 29 30 35 0 7 27 36 60 65 67 59 94 65 136 27z m1508 -75 c-5 -8
-11 -8 -17 -2 -6 6 -7 16 -3 22 5 8 11 8 17 2 6 -6 7 -16 3 -22z m345 17 c0
-7 -38 -54 -84 -104 -47 -49 -124 -137 -171 -194 -47 -57 -114 -138 -149 -179
-34 -41 -80 -100 -101 -130 -21 -30 -56 -77 -79 -104 -23 -27 -68 -90 -101
-139 -71 -107 -92 -124 -168 -138 -32 -5 -74 -21 -94 -35 -45 -30 -57 -30 -78
2 -9 14 -31 42 -49 62 -25 28 -35 50 -40 91 -10 74 -18 86 -73 105 -54 18 -87
20 -113 6 -10 -5 -26 -7 -34 -4 -22 9 -21 67 2 87 24 21 77 33 86 18 4 -6 27
-11 52 -11 74 0 88 -14 114 -120 17 -66 34 -87 98 -119 54 -27 60 -28 105 -16
56 14 82 36 97 81 14 41 -7 87 -49 109 -49 25 -58 40 -60 103 l-2 60 144 147
c132 135 146 146 166 136 15 -9 32 -9 59 -1 20 5 51 10 68 10 18 0 48 12 71
29 23 16 44 27 47 24 3 -3 17 19 31 50 16 33 41 68 63 85 46 36 78 53 85 46 6
-6 -128 -176 -275 -347 -51 -59 -102 -120 -113 -134 -11 -15 -42 -53 -70 -86
-67 -79 -115 -147 -115 -161 1 -16 64 54 261 289 46 55 101 121 121 146 52 65
328 349 339 349 5 0 9 -6 9 -13z m-264 -86 l-37 -36 -19 25 c-22 28 -26 66 -7
73 6 2 32 -3 56 -11 l43 -15 -36 -36z m324 20 c0 -14 -50 -74 -173 -208 -65
-70 -147 -168 -181 -218 -73 -105 -221 -292 -278 -351 -22 -23 -57 -66 -77
-95 -31 -44 -43 -55 -70 -57 -64 -6 -57 12 45 130 55 62 117 132 139 154 105
107 205 233 205 257 0 5 -8 3 -17 -4 -16 -13 -17 -12 -4 4 8 9 16 15 19 13 2
-3 14 7 26 22 53 68 79 95 210 224 134 131 156 149 156 129z m55 -81 c3 -6
-20 -38 -52 -72 -118 -126 -152 -164 -198 -223 -50 -62 -104 -125 -159 -185
-18 -19 -40 -45 -48 -58 -9 -12 -35 -44 -60 -70 -68 -72 -178 -212 -178 -227
0 -18 -7 -22 -53 -30 -31 -6 -37 -4 -37 10 0 9 64 85 143 169 79 84 179 200
223 258 70 95 388 437 406 438 4 0 10 -5 13 -10z m40 -89 c0 -19 -14 -46 -45
-82 -97 -116 -252 -289 -305 -340 -31 -30 -82 -83 -112 -119 -93 -108 -240
-260 -252 -260 -6 0 -14 7 -17 15 -4 10 22 45 77 103 46 48 118 127 159 176
41 49 147 165 235 259 88 93 182 193 208 223 27 30 49 54 50 54 1 0 2 -13 2
-29z m35 -156 c0 -18 -115 -151 -269 -311 -158 -164 -344 -364 -353 -377 -10
-16 -58 12 -58 34 0 10 10 24 23 30 21 11 178 167 489 487 81 84 152 152 158
152 5 0 10 -7 10 -15z m-1063 -47 c-3 -8 -6 -5 -6 6 -1 11 2 17 5 13 3 -3 4
-12 1 -19z m1122 -32 c11 -20 11 -27 -5 -44 -11 -11 -71 -75 -134 -143 -134
-145 -464 -463 -484 -467 -8 -2 -17 2 -21 8 -9 14 33 59 130 143 102 87 447
448 470 491 23 42 27 44 44 12z m-2679 -30 c0 -3 -4 -8 -10 -11 -5 -3 -10 -1
-10 4 0 6 5 11 10 11 6 0 10 -2 10 -4z m2730 -102 c-16 -29 -307 -344 -318
-344 -4 0 -25 -17 -47 -38 -22 -21 -74 -65 -115 -99 -41 -33 -84 -70 -94 -82
-23 -25 -42 -27 -50 -5 -7 19 52 77 149 144 69 48 265 241 400 393 46 51 72
74 79 67 6 -6 5 -18 -4 -36z m15 -149 c-40 -59 -232 -293 -304 -370 -77 -83
-110 -126 -159 -204 -42 -67 -47 -71 -50 -47 -4 28 29 81 76 123 13 12 21 26
18 31 -3 5 14 28 37 50 23 22 59 64 79 94 21 29 81 100 133 158 52 58 118 137
147 177 61 82 81 72 23 -12z m-1231 -46 c46 -20 53 -39 16 -39 -29 0 -90 32
-90 47 0 18 20 16 74 -8z m1391 -12 c7 -18 19 -96 26 -174 10 -113 10 -171 0
-288 -6 -80 -15 -153 -18 -161 -17 -44 -73 12 -113 116 -20 50 -22 69 -17 200
3 120 8 155 27 205 21 55 67 135 77 135 2 0 10 -15 18 -33z m-231 -179 c-30
-59 -75 -119 -95 -126 -10 -4 -29 -28 -41 -52 -16 -30 -30 -46 -45 -48 -33 -5
-29 7 22 62 25 27 45 51 45 53 0 5 124 143 128 143 1 0 -5 -15 -14 -32z m-244
19 c0 -2 -12 -14 -27 -28 l-28 -24 24 28 c23 25 31 32 31 24z m-71 -86 c-36
-48 -102 -126 -110 -129 -5 -2 -9 -10 -9 -17 0 -20 -51 -58 -63 -46 -18 18 5
50 90 130 80 76 123 105 92 62z m351 -1 c0 -5 -5 -10 -11 -10 -5 0 -7 5 -4 10
3 6 8 10 11 10 2 0 4 -4 4 -10z m-2690 -44 l33 -13 -44 -48 -44 -47 -7 33 c-8
43 1 89 17 89 7 0 27 -6 45 -14z m123 -41 l29 -6 -34 -38 c-18 -21 -60 -70
-93 -109 -64 -75 -73 -75 -74 -6 -1 41 99 174 126 169 10 -2 31 -6 46 -10z
m184 -33 c46 -9 83 -21 83 -27 0 -5 -51 -59 -112 -120 -62 -61 -145 -146 -185
-189 -40 -43 -77 -75 -83 -71 -31 19 3 65 198 268 47 48 82 90 79 94 -10 10
-75 -45 -194 -162 l-111 -112 -4 34 c-2 18 1 46 8 62 7 16 9 33 6 37 -4 4 -2
4 5 0 8 -4 44 34 100 104 72 90 92 110 108 105 11 -3 57 -14 102 -23z m2333
14 c0 -20 -46 -73 -56 -64 -7 8 36 78 49 78 4 0 7 -6 7 -14z m-2131 -52 c2 -2
-68 -74 -154 -161 -87 -87 -180 -185 -208 -218 -49 -60 -85 -94 -99 -95 -5 0
-8 10 -8 23 0 25 13 41 194 247 65 74 133 153 150 176 30 39 33 41 76 36 25
-2 47 -6 49 -8z m737 -40 c24 -20 44 -42 44 -50 0 -35 -102 -166 -190 -245
-52 -46 -137 -124 -190 -174 -167 -158 -180 -169 -185 -163 -4 3 49 66 116
139 67 74 147 166 177 204 31 39 96 111 144 162 48 50 88 96 88 102 0 19 -23
24 -33 6 -14 -26 -125 -150 -282 -315 -75 -80 -156 -169 -178 -199 l-41 -54
-13 32 c-16 38 -25 24 129 197 124 139 219 256 213 262 -15 15 -298 -275 -330
-339 -20 -37 -31 -37 -39 2 -12 60 -6 72 72 158 43 47 92 105 110 129 18 23
46 60 62 82 17 22 27 40 22 40 -9 0 -199 -190 -259 -259 l-30 -35 -7 48 c-9
56 -7 60 99 171 41 44 71 81 65 83 -15 5 -62 -32 -119 -94 l-51 -56 0 91 0 91
63 0 c34 -1 109 -5 167 -11 112 -10 110 -10 167 -8 23 1 41 -5 49 -15 13 -18
34 -22 34 -6 0 6 6 10 14 10 8 0 24 11 37 25 13 13 25 25 27 25 2 0 24 -16 48
-36z m-646 12 c0 -8 -5 -27 -10 -42 -7 -18 -7 -30 0 -39 7 -9 9 -36 4 -75 l-7
-62 -211 -209 c-116 -115 -214 -209 -219 -209 -4 0 -11 10 -16 23 -11 29 -5
36 126 171 173 176 313 334 313 352 0 28 -187 -150 -413 -394 -59 -63 -77 -69
-77 -29 0 29 51 90 305 367 33 36 78 86 99 113 32 39 44 47 72 47 23 0 34 -5
34 -14z m1487 -53 c-3 -10 -5 -4 -5 12 0 17 2 24 5 18 2 -7 2 -21 0 -30z m276
-68 c-53 -68 -86 -95 -100 -82 -9 10 65 113 108 151 66 57 62 21 -8 -69z m169
59 c-13 -24 -153 -164 -163 -164 -5 0 -9 4 -9 9 0 15 86 116 127 149 38 30 60
33 45 6z m89 -17 c0 -5 -33 -44 -73 -89 -40 -44 -77 -87 -81 -94 -4 -8 -12
-14 -17 -14 -24 0 -4 32 72 118 73 82 100 103 99 79z m79 -51 c0 -7 -7 -19
-16 -27 -9 -7 -30 -33 -47 -58 -56 -82 -130 -162 -139 -148 -13 21 -10 25 70
110 43 45 86 94 95 110 19 29 37 36 37 13z m-1470 -144 c0 -21 -45 -71 -219
-246 -120 -122 -224 -232 -232 -246 l-12 -25 -15 43 -14 43 93 88 c52 49 159
153 239 233 80 80 148 143 153 141 4 -2 7 -16 7 -31z m1500 11 c0 -10 -13 -31
-30 -48 -16 -16 -69 -75 -117 -130 -121 -138 -133 -151 -133 -142 0 26 62 110
168 225 42 47 81 91 85 98 11 20 27 17 27 -3z m-2125 -50 c7 -36 6 -36 -163
-207 -93 -94 -177 -184 -187 -200 l-18 -30 -24 28 c-23 27 -23 28 -4 52 32 41
374 394 382 394 4 0 10 -16 14 -37z m655 -74 c7 -11 9 -24 5 -27 -203 -203
-445 -454 -445 -462 0 -22 -24 -3 -31 25 -8 26 3 39 169 208 97 99 197 202
222 228 51 53 64 58 80 28z m1490 14 c-1 -15 -60 -77 -66 -70 -4 3 6 22 22 41
28 33 44 44 44 29z m-2114 -79 c9 -49 -4 -73 -76 -135 -69 -60 -230 -246 -230
-266 0 -16 -16 -17 -25 -3 -4 6 18 39 49 74 31 35 56 67 56 71 0 4 -29 -16
-65 -44 -53 -42 -67 -49 -72 -36 -6 18 10 37 217 248 68 70 128 127 132 127 4
0 10 -16 14 -36z m680 -36 c6 -19 -7 -35 -82 -104 -49 -45 -158 -150 -242
-233 -84 -83 -155 -151 -158 -151 -11 0 -2 35 17 62 24 34 441 448 451 448 4
0 10 -10 14 -22z m1464 12 c0 -8 -120 -140 -210 -231 -47 -46 -159 -170 -271
-299 -126 -144 -191 -210 -207 -210 -22 0 -12 13 93 122 94 98 193 206 296
323 24 28 95 103 156 168 62 65 113 122 113 127 0 6 7 10 15 10 8 0 15 -4 15
-10z m-130 -6 c0 -7 -49 -69 -105 -134 -111 -128 -544 -570 -590 -602 l-30
-21 26 29 c74 84 139 154 290 308 191 197 298 312 352 379 34 42 57 58 57 41z
m-1982 -113 c14 -40 -1 -61 -151 -216 -114 -117 -128 -128 -142 -114 -14 14
-7 26 66 125 75 101 194 234 210 234 4 0 12 -13 17 -29z m695 10 c4 -15 -19
-39 -98 -105 -57 -47 -129 -110 -159 -140 -67 -64 -221 -196 -230 -196 -28 0
40 80 116 137 16 12 98 89 184 172 86 83 162 151 169 151 7 0 15 -9 18 -19z
m57 -83 c-1 -14 -100 -90 -170 -131 -25 -14 -109 -87 -187 -161 -78 -75 -144
-136 -147 -136 -3 0 -6 9 -6 19 0 12 31 47 77 88 42 37 104 93 137 124 34 31
95 79 136 107 41 28 89 62 105 76 33 28 55 33 55 14z m923 -39 c4 -16 3 -18
-9 -8 -16 13 -19 29 -5 29 5 0 11 -9 14 -21z m286 -31 c-13 -18 -26 -35 -29
-38 -4 -3 -11 -13 -16 -22 -5 -9 -34 -43 -64 -75 -30 -32 -75 -82 -99 -111
-24 -28 -48 -52 -53 -52 -26 0 5 42 121 162 70 74 134 145 141 157 6 13 14 20
17 17 3 -2 -5 -20 -18 -38z m-1928 -25 l12 -36 -84 -79 c-115 -108 -146 -131
-164 -124 -8 3 -15 10 -15 15 0 6 34 45 75 87 40 42 91 99 112 125 21 27 41
48 45 49 3 0 12 -17 19 -37z m718 -5 c0 -7 -48 -52 -107 -101 -59 -48 -163
-141 -232 -207 -69 -66 -126 -120 -126 -120 -1 0 -4 8 -7 19 -6 25 250 276
367 359 91 64 106 71 105 50z m831 -23 c-7 -9 -15 -13 -18 -10 -3 2 1 11 8 20
7 9 15 13 18 10 3 -2 -1 -11 -8 -20z m-91 -7 c-9 -16 -14 -19 -17 -9 -2 7 2
17 9 22 20 13 21 11 8 -13z m-36 -151 c-147 -149 -238 -249 -268 -294 -26 -40
-45 -54 -45 -34 0 27 386 438 400 425 2 -3 -37 -46 -87 -97z m-1383 48 c0 -7
-17 -24 -37 -38 -21 -14 -60 -46 -86 -71 -48 -45 -77 -58 -77 -34 0 6 39 49
88 94 64 60 90 79 100 72 6 -6 12 -16 12 -23z m645 -13 c-34 -21 -210 -193
-303 -296 -43 -48 -66 -67 -78 -62 -20 8 23 60 163 197 113 111 199 179 228
179 16 0 15 -3 -10 -18z m654 2 c31 19 4 -17 -56 -74 -54 -53 -62 -58 -42 -28
13 20 26 35 28 32 8 -7 41 50 41 71 0 15 2 17 9 6 5 -7 14 -10 20 -7z m-1266
-74 c3 -13 -1 -21 -13 -25 -10 -3 -42 -28 -72 -55 -56 -52 -63 -56 -73 -40 -9
14 114 140 135 140 10 0 20 -9 23 -20z m13 -73 c-3 -28 -50 -93 -73 -101 -36
-14 -31 13 13 72 46 62 65 71 60 29z m1086 -55 c-12 -16 -29 -35 -38 -43 -10
-8 -2 7 17 32 37 50 55 59 21 11z m-122 0 c0 -5 -14 -21 -31 -38 -30 -28 -31
-28 -19 -4 7 14 17 31 23 38 11 14 27 16 27 4z m-900 -31 c0 -16 -51 -71 -61
-65 -14 8 -11 19 12 48 20 25 49 35 49 17z m380 -23 c0 -21 -124 -152 -139
-147 -9 3 4 26 40 68 30 35 58 70 64 77 12 17 35 18 35 2z m-330 -43 c0 -24
-24 -44 -37 -31 -9 8 14 56 27 56 5 0 10 -11 10 -25z m850 -26 c-12 -16 -25
-28 -28 -25 -5 6 36 56 45 56 3 0 -5 -14 -17 -31z m-130 -33 c-16 -25 -45 -55
-63 -68 -23 -16 -16 -5 28 44 33 37 61 67 63 68 2 0 -11 -20 -28 -44z m-350
10 c0 -20 -39 -66 -56 -66 -20 0 -18 8 14 45 29 36 42 43 42 21z m31 -69 c-8
-8 -11 -7 -11 4 0 20 13 34 18 19 3 -7 -1 -17 -7 -23z m184 -484 c-8 -33 -7
-237 1 -339 l6 -72 -26 5 c-18 4 -28 0 -32 -12 -12 -29 2 -35 118 -52 51 -7
63 -24 44 -62 -18 -34 -44 -55 -33 -26 7 15 3 17 -25 10 -53 -11 -214 -21
-247 -14 -17 4 -33 3 -36 0 -2 -4 -41 -4 -86 1 -88 8 -99 6 -99 -22 0 -33 81
-44 99 -12 10 16 10 16 11 0 0 -10 6 -18 13 -19 6 0 23 -2 37 -4 14 -2 81 -6
149 -9 124 -6 125 -6 152 20 l27 25 -11 -39 c-14 -52 -22 -54 -239 -41 -250
14 -508 49 -508 69 0 4 -20 18 -44 30 -43 20 -44 22 -34 48 7 15 16 32 21 39
14 19 163 61 262 73 50 6 128 18 175 27 47 8 97 18 112 20 20 4 30 0 34 -11 8
-21 64 -50 75 -39 4 4 13 94 19 198 14 236 13 235 46 235 24 0 25 -3 19 -27z
m12 -90 c-3 -10 -5 -4 -5 12 0 17 2 24 5 18 2 -7 2 -21 0 -30z m23 -149 c4
-65 6 -124 3 -131 -13 -33 -18 -2 -21 124 -2 76 0 135 3 131 4 -3 10 -59 15
-124z m453 -194 c-3 -11 -9 -20 -15 -20 -5 0 -4 9 2 20 6 11 12 20 14 20 2 0
2 -9 -1 -20z m107 0 c0 -6 -5 -16 -10 -23 -6 -7 -22 -25 -36 -42 -39 -47 -84
-112 -84 -124 0 -6 -4 -11 -10 -11 -20 0 -9 23 57 116 63 88 83 108 83 84z
m58 -76 c-18 -25 -43 -58 -55 -74 -13 -15 -23 -33 -23 -39 0 -6 -7 -11 -15
-11 -9 0 -12 6 -9 15 4 8 10 15 14 15 5 0 11 9 15 20 10 32 98 146 103 132 2
-7 -11 -33 -30 -58z m-420 16 c-7 -10 -14 -17 -17 -15 -4 4 18 35 25 35 2 0
-1 -9 -8 -20z m103 -13 c-10 -9 -11 -8 -5 6 3 10 9 15 12 12 3 -3 0 -11 -7
-18z m49 -76 c-18 -36 -40 -61 -40 -46 0 7 51 85 57 85 2 0 -6 -18 -17 -39z
m-222 -27 c-18 -39 -29 -50 -50 -52 -16 -2 -28 -2 -28 0 0 7 95 107 98 103 2
-1 -7 -25 -20 -51z m91 -18 c-11 -20 -25 -36 -30 -36 -15 0 -10 13 18 55 32
47 43 32 12 -19z m426 25 c3 -5 1 -12 -5 -16 -5 -3 -10 1 -10 9 0 18 6 21 15
7z m-1441 -33 c9 -34 8 -38 -9 -38 -8 0 -15 6 -16 13 0 6 -2 20 -4 30 -5 25
22 21 29 -5z"/>
<path d="M5347 5615 c-9 -19 -15 -35 -12 -35 7 0 37 61 33 66 -3 2 -12 -12
-21 -31z"/>
<path d="M5246 5469 c-62 -84 -75 -108 -50 -91 15 11 78 92 103 135 44 72 13
48 -53 -44z"/>
<path d="M5156 5448 c-42 -45 -76 -85 -76 -90 0 -26 35 9 129 130 51 65 30 50
-53 -40z"/>
<path d="M4989 5342 l-44 -47 45 40 c25 22 47 41 49 43 2 1 2 4 0 7 -3 2 -25
-17 -50 -43z"/>
<path d="M3295 7073 c-63 -70 -80 -99 -30 -53 45 43 100 110 88 109 -4 0 -30
-25 -58 -56z"/>
<path d="M3324 6688 c-132 -138 -236 -262 -259 -310 l-26 -53 96 100 c209 217
285 315 247 315 -4 0 -30 -24 -58 -52z"/>
<path d="M3434 6487 c-85 -92 -208 -240 -191 -231 15 9 169 169 236 247 52 59
11 45 -45 -16z"/>
<path d="M3456 6384 c-44 -47 -89 -97 -100 -112 -19 -24 -19 -25 0 -15 32 18
212 187 213 201 2 32 -41 4 -113 -74z"/>
<path d="M3594 6407 c-51 -55 -61 -74 -23 -42 37 31 63 64 57 71 -3 2 -18 -11
-34 -29z"/>
<path d="M4947 6970 c-20 -21 -47 -57 -61 -78 -13 -21 -54 -67 -91 -103 -74
-71 -139 -153 -133 -170 4 -11 134 127 194 207 20 27 56 70 79 95 46 49 71 89
57 89 -6 0 -26 -18 -45 -40z"/>
<path d="M4770 6894 c-140 -153 -179 -198 -175 -202 6 -6 90 66 141 120 42 43
139 177 132 182 -1 2 -46 -44 -98 -100z"/>
<path d="M4449 6340 c-13 -10 -19 -19 -13 -20 6 0 19 9 29 20 23 26 14 26 -16
0z"/>
<path d="M3950 3677 c19 -7 37 -12 39 -10 9 6 -6 13 -40 18 l-34 6 35 -14z"/>
<path d="M3905 8266 c-29 -43 18 -89 53 -54 25 25 8 78 -25 78 -7 0 -20 -11
-28 -24z"/>
<path d="M5762 8268 c-7 -7 -12 -22 -12 -35 0 -19 5 -23 30 -23 17 0 31 6 31
13 5 46 -23 71 -49 45z"/>
<path d="M9840 7322 c0 -8 -35 -48 -163 -183 -82 -85 -147 -163 -147 -173 0
-19 32 -1 45 25 9 17 40 55 68 84 29 29 57 58 62 64 6 6 21 22 35 34 14 13 39
39 56 58 16 18 41 41 54 50 16 10 21 21 17 32 -6 17 -27 24 -27 9z"/>
<path d="M9840 7180 c0 -5 5 -10 10 -10 6 0 10 5 10 10 0 6 -4 10 -10 10 -5 0
-10 -4 -10 -10z"/>
<path d="M9790 7124 c0 -8 5 -12 10 -9 6 3 10 10 10 16 0 5 -4 9 -10 9 -5 0
-10 -7 -10 -16z"/>
<path d="M9699 7049 c-12 -18 -25 -27 -27 -21 -5 16 -22 5 -22 -14 0 -25 27
-15 55 22 15 19 25 38 22 40 -3 3 -15 -9 -28 -27z"/>
<path d="M9456 7012 c-8 -16 -22 -34 -30 -41 -20 -16 -21 -31 -3 -31 8 0 19
11 25 24 6 14 23 32 36 42 26 16 26 34 1 34 -8 0 -21 -13 -29 -28z"/>
<path d="M8485 6928 c-29 -16 -106 -80 -102 -85 7 -6 102 45 121 66 20 23 9
34 -19 19z"/>
<path d="M8240 6850 c-9 -6 -10 -10 -3 -10 6 0 15 5 18 10 8 12 4 12 -15 0z"/>
<path d="M8150 6839 c0 -5 5 -7 10 -4 6 3 10 8 10 11 0 2 -4 4 -10 4 -5 0 -10
-5 -10 -11z"/>
<path d="M1950 6625 c-14 -17 -7 -45 13 -45 19 0 37 21 37 42 0 22 -32 24 -50
3z"/>
<path d="M2224 6613 c-9 -34 7 -58 37 -58 16 0 26 8 33 26 13 39 2 59 -33 59
-25 0 -32 -5 -37 -27z"/>
<path d="M9292 6550 c-98 -46 -195 -116 -276 -200 -86 -91 -113 -134 -171
-277 -24 -58 -48 -110 -54 -116 -8 -8 -23 -4 -51 12 -58 33 -89 25 -126 -30
-39 -58 -213 -578 -245 -731 -15 -72 -31 -93 -92 -124 -146 -75 -259 -174
-303 -267 -40 -86 -38 -88 82 -138 123 -51 120 -42 59 -183 -19 -45 -35 -93
-35 -106 0 -30 -30 -82 -84 -145 -21 -25 -36 -48 -32 -52 13 -13 55 18 100 75
26 32 57 65 71 72 13 7 28 24 33 39 29 77 52 165 52 195 0 48 22 68 59 55 37
-13 45 -31 42 -100 l-3 -56 74 -31 c40 -17 121 -39 180 -51 59 -11 137 -33
175 -49 37 -16 92 -37 121 -47 l53 -17 20 26 c11 14 29 26 39 26 18 0 140 -78
220 -140 41 -32 126 -77 154 -82 16 -2 22 7 32 47 36 135 27 244 -34 429 l-36
110 23 60 c39 104 98 258 124 326 163 419 174 523 62 551 -41 10 -45 14 -45
43 0 17 7 56 15 86 29 109 46 233 46 346 0 139 -3 156 -49 313 -32 109 -39
126 -66 142 -41 25 -59 23 -134 -11z m73 -122 c3 -18 11 -43 17 -55 9 -19 5
-29 -34 -75 -41 -50 -73 -106 -65 -114 2 -2 28 27 58 65 30 38 56 68 58 65 2
-2 -19 -43 -46 -91 -49 -86 -77 -148 -78 -168 0 -5 -16 -9 -35 -7 -53 4 -248
63 -261 78 -25 30 166 231 282 297 81 46 96 46 104 5z m70 -376 c-8 -42 -19
-80 -24 -85 -18 -18 -18 10 0 68 20 65 24 105 10 105 -5 0 -7 10 -4 21 6 21 7
21 20 -5 12 -24 12 -37 -2 -104z m-86 61 c-5 -21 -12 -50 -15 -65 -7 -31 -6
-30 -27 -22 -13 5 -12 13 9 51 13 25 24 52 24 59 0 8 4 14 9 14 5 0 5 -16 0
-37z m-334 -113 c128 -39 189 -62 273 -103 76 -37 82 -42 62 -52 -12 -6 -29
-23 -38 -37 -9 -14 -32 -38 -49 -53 -18 -15 -33 -34 -33 -43 1 -12 10 -7 30
17 16 19 32 32 35 29 9 -9 -29 -79 -54 -102 -24 -21 -28 -46 -8 -46 26 0 127
125 127 157 0 28 30 87 40 77 8 -8 -2 -52 -27 -114 -3 -8 -7 -25 -9 -37 -1
-12 -8 -30 -14 -40 -12 -18 -11 -15 5 36 11 35 -6 21 -73 -62 -32 -40 -62 -85
-66 -102 -6 -27 0 -24 59 38 36 37 65 63 65 58 0 -4 -23 -37 -51 -72 -28 -35
-54 -70 -59 -79 -5 -8 -10 -13 -12 -10 -2 3 -13 23 -25 45 -13 23 -30 41 -42
43 -26 4 -26 6 0 -70 19 -55 21 -76 16 -182 -4 -81 -13 -144 -27 -190 -28 -90
-132 -370 -175 -471 -18 -44 -37 -93 -41 -110 -9 -41 -42 -105 -54 -105 -18 0
-21 21 -6 44 53 82 243 607 266 736 7 36 16 82 22 103 5 22 7 41 4 44 -2 3 -9
-12 -15 -34 -6 -21 -26 -53 -46 -71 -37 -35 -46 -55 -20 -46 19 8 19 -1 1 -29
-8 -12 -33 -69 -56 -127 -22 -58 -45 -113 -50 -122 -6 -10 -10 -24 -10 -32 0
-14 -40 -118 -50 -126 -8 -8 -57 -113 -65 -140 -4 -14 -18 -50 -32 -82 l-25
-56 -41 18 c-43 19 -241 60 -289 60 -23 0 -28 5 -28 23 0 31 150 484 205 617
23 58 46 116 49 130 4 14 20 59 36 100 16 41 45 129 65 195 88 296 130 409
148 401 7 -3 44 -14 82 -26z m-297 -156 c12 -8 22 -21 22 -28 0 -26 -148 -473
-205 -619 -7 -18 -54 -47 -76 -47 -21 0 -1 77 102 385 55 165 102 306 104 313
6 16 26 15 53 -4z m766 -324 c16 -6 26 -17 26 -29 0 -44 -254 -690 -271 -691
-12 0 -39 68 -39 99 0 38 47 176 148 433 81 208 82 209 136 188z m-198 -65
c-9 -20 -22 -45 -31 -57 -13 -19 -15 -20 -15 -5 0 21 16 54 38 80 22 25 24 21
8 -18z m-857 -566 c-68 -190 -61 -179 -106 -168 -21 6 -85 20 -143 33 -75 16
-106 27 -108 38 -4 23 104 115 195 167 116 65 207 102 211 87 2 -7 -20 -78
-49 -157z m736 -184 c82 -154 92 -177 114 -273 23 -102 27 -152 11 -152 -6 0
-36 17 -68 39 -31 21 -92 58 -135 82 -87 49 -84 41 -48 139 11 30 32 101 47
157 15 57 29 102 30 100 1 -1 23 -42 49 -92z"/>
<path d="M9336 6354 c-9 -9 -14 -19 -11 -22 3 -3 13 2 22 11 9 9 14 19 11 22
-3 3 -13 -2 -22 -11z"/>
<path d="M9256 6123 c-6 -14 -5 -15 5 -6 7 7 10 15 7 18 -3 3 -9 -2 -12 -12z"/>
<path d="M9254 5834 c-10 -38 3 -41 36 -8 l30 29 -30 2 c-24 2 -31 -2 -36 -23z"/>
<path d="M8945 5573 c-78 -17 -132 -54 -156 -107 -24 -52 -23 -90 1 -143 26
-59 69 -83 145 -83 117 0 203 71 191 159 -5 37 -64 153 -84 164 -14 8 -77 15
-97 10z m56 -129 c14 -38 -6 -91 -41 -109 -43 -22 -55 -19 -74 24 -17 37 -17
40 -1 65 22 33 42 45 78 46 21 0 30 -6 38 -26z"/>
<path d="M8977 5072 c-20 -41 -45 -101 -56 -135 -33 -103 -44 -130 -74 -177
-16 -24 -30 -49 -31 -55 -1 -6 -11 -29 -23 -52 -12 -22 -19 -43 -16 -46 3 -3
-5 -22 -17 -42 -39 -62 -14 -56 34 9 20 26 26 41 18 44 -9 3 -6 14 9 38 11 19
18 34 14 34 -3 0 8 15 24 33 17 17 31 38 31 45 0 7 4 20 10 30 5 9 26 69 46
132 20 63 45 132 56 153 10 21 17 44 15 50 -2 7 -20 -21 -40 -61z"/>
<path d="M9115 4670 c3 -5 13 -10 21 -10 8 0 12 5 9 10 -3 6 -13 10 -21 10 -8
0 -12 -4 -9 -10z"/>
<path d="M9168 4469 c-15 -33 -25 -59 -23 -59 8 0 56 101 53 109 -2 5 -15 -18
-30 -50z"/>
<path d="M9210 4409 c-10 -23 -10 -33 -1 -42 15 -15 31 7 31 46 0 36 -14 34
-30 -4z m20 -14 c0 -8 -4 -15 -10 -15 -5 0 -7 7 -4 15 4 8 8 15 10 15 2 0 4
-7 4 -15z"/>
<path d="M2384 6506 c-18 -47 31 -76 59 -35 9 12 13 28 10 35 -7 18 -62 18
-69 0z"/>
<path d="M2110 6464 c-11 -12 -10 -18 3 -31 18 -18 44 -12 54 13 11 30 -35 45
-57 18z"/>
<path d="M7980 6453 c-227 -23 -452 -124 -581 -259 -91 -96 -185 -264 -209
-374 -6 -30 -14 -63 -17 -72 -4 -16 -17 -18 -102 -18 -54 0 -122 -7 -155 -15
-331 -86 -578 -472 -535 -835 23 -188 103 -354 232 -484 189 -188 398 -302
565 -307 64 -1 161 19 211 45 32 17 33 17 69 -10 44 -34 116 -54 155 -43 16 4
42 5 58 2 25 -5 31 -2 36 16 3 13 14 21 27 22 47 2 67 6 78 17 9 9 19 6 39
-14 41 -39 136 -62 253 -60 90 1 100 4 117 25 10 13 19 36 19 53 0 16 7 42 15
58 21 40 101 104 121 96 10 -4 14 -1 12 6 -8 23 -38 20 -76 -9 -20 -15 -46
-33 -57 -39 -11 -6 -31 -30 -44 -53 -27 -49 -58 -67 -94 -55 l-25 9 63 86 c35
48 71 89 79 92 21 8 20 27 -1 43 -23 17 -33 17 -33 0 0 -8 -22 -44 -50 -80
-27 -36 -57 -83 -66 -105 -11 -27 -22 -41 -35 -41 -25 0 -108 29 -136 47 l-22
15 30 25 c25 22 125 146 152 191 23 36 -18 1 -99 -84 -72 -76 -97 -97 -123
-100 -17 -2 -41 -9 -53 -15 -19 -10 -83 -29 -158 -46 -24 -5 -23 -4 11 33 19
22 57 66 84 99 27 33 90 104 139 158 69 76 87 100 76 107 -8 5 -19 6 -25 2
-13 -9 -126 -131 -177 -192 -21 -25 -44 -52 -51 -60 -8 -8 -33 -43 -56 -78
-24 -35 -49 -66 -57 -69 -23 -9 -76 18 -125 64 l-47 44 -31 -40 c-32 -40 -62
-58 -80 -46 -6 3 5 22 24 43 42 45 255 315 310 392 21 30 65 83 97 118 32 34
58 67 58 73 0 23 -62 -29 -108 -90 -27 -37 -74 -91 -104 -122 -65 -66 -259
-322 -288 -378 -14 -29 -28 -41 -51 -46 -43 -10 -58 8 -26 30 14 9 45 46 69
83 24 37 79 111 123 166 44 54 97 122 118 150 21 28 52 66 68 83 16 18 29 35
29 39 0 12 -250 -253 -303 -321 -91 -118 -99 -129 -120 -179 l-21 -48 -44 6
c-84 11 -358 153 -376 194 -3 7 12 34 33 60 22 26 70 83 107 127 36 44 129
144 205 223 125 129 149 162 118 162 -11 0 -175 -164 -295 -293 -39 -42 -97
-116 -129 -164 -32 -49 -60 -90 -62 -92 -2 -3 -15 7 -30 21 l-26 26 59 73 c82
103 209 245 333 371 156 159 112 152 -54 -9 -139 -134 -316 -337 -337 -385
-15 -32 -24 -27 -69 40 -95 141 -145 299 -134 422 15 160 67 302 150 410 25
33 41 60 35 60 -6 0 -8 5 -5 10 4 6 11 8 16 4 6 -3 31 14 57 38 99 93 213 138
347 138 l86 0 20 -45 c23 -51 32 -59 59 -50 23 7 33 37 31 92 -4 129 35 250
129 393 71 108 209 218 319 255 29 9 56 26 62 37 8 15 13 17 19 8 6 -9 20 -9
66 2 92 23 217 28 347 14 162 -16 346 -98 435 -192 49 -52 79 -55 100 -10 20
39 6 65 -65 121 -176 138 -458 213 -703 188z"/>
<path d="M2267 6343 c-11 -11 -8 -58 5 -71 20 -20 48 -14 60 13 9 21 8 28 -7
45 -18 20 -46 26 -58 13z"/>
<path d="M8100 6235 c-24 -31 -41 -58 -38 -60 10 -10 108 79 108 97 0 33 -27
19 -70 -37z"/>
<path d="M8226 6225 c-20 -30 -32 -55 -26 -55 6 0 32 19 58 42 26 24 49 44 52
46 6 4 -22 22 -36 22 -6 0 -28 -25 -48 -55z"/>
<path d="M7866 6215 c-10 -14 -16 -29 -13 -31 7 -8 39 35 35 47 -2 7 -12 0
-22 -16z"/>
<path d="M8348 6198 c-37 -35 -40 -42 -24 -46 12 -3 34 12 65 42 40 40 43 46
24 46 -12 0 -41 -18 -65 -42z"/>
<path d="M8455 6180 c-28 -28 -34 -40 -22 -40 19 0 67 48 67 67 0 18 -2 17
-45 -27z"/>
<path d="M6880 6195 c-15 -18 -6 -45 14 -45 15 0 36 29 36 49 0 16 -36 13 -50
-4z"/>
<path d="M1418 6165 c-3 -3 -21 -9 -40 -11 -63 -9 -164 -47 -273 -102 -100
-51 -120 -67 -220 -167 -91 -91 -118 -125 -157 -200 -52 -100 -93 -231 -76
-241 6 -4 5 -9 -3 -15 -11 -6 -14 -44 -13 -171 1 -149 3 -170 27 -241 84 -249
252 -438 470 -530 38 -16 76 -26 85 -22 9 3 13 3 9 -1 -10 -11 73 -41 134 -49
39 -5 54 -4 60 6 6 10 9 11 9 2 0 -9 18 -13 55 -13 65 0 66 -4 31 -88 -55
-132 -74 -286 -46 -382 24 -85 29 -80 -177 -183 -104 -51 -222 -108 -263 -127
-41 -19 -97 -48 -125 -65 -88 -56 -218 -122 -295 -149 -80 -29 -110 -50 -110
-75 0 -37 22 -92 49 -120 28 -30 32 -31 113 -31 46 0 140 -7 208 -15 69 -9
134 -15 145 -14 11 1 25 1 31 0 12 -1 67 -281 81 -411 l8 -75 270 -2 c191 -1
274 2 284 10 11 9 15 9 18 0 3 -7 14 -13 24 -13 11 0 17 5 14 10 -3 6 -1 10 4
10 6 0 11 -4 11 -10 0 -14 38 -12 122 6 40 9 87 17 103 19 38 4 324 117 385
152 25 14 74 48 108 75 82 64 119 79 220 89 46 5 87 11 92 14 5 3 -27 74 -69
158 -84 163 -129 282 -157 414 -21 99 -20 99 84 160 71 41 315 268 309 287 -2
6 -10 11 -18 11 -8 0 -33 20 -55 44 -49 53 -9 49 -434 39 -156 -4 -269 -3
-276 3 -6 5 -38 13 -72 17 -69 10 -77 3 -66 -54 5 -28 11 -34 38 -39 55 -10
230 -10 250 -1 13 7 17 6 13 -1 -10 -16 183 -27 331 -19 98 5 122 4 122 -7 0
-15 -49 -62 -100 -98 -19 -13 -81 -61 -138 -106 -57 -46 -120 -88 -140 -94
-20 -6 -71 -37 -112 -69 -41 -32 -133 -98 -205 -146 -185 -125 -200 -134 -211
-134 -5 0 -38 -18 -74 -40 -36 -22 -73 -40 -82 -40 -9 0 -23 -9 -31 -21 -11
-14 -16 -17 -19 -7 -4 11 -13 10 -48 -3 -36 -12 -56 -30 -66 -57 -1 -1 -14 4
-30 13 -16 8 -35 15 -41 15 -7 0 -13 8 -13 18 0 14 -4 13 -19 -7 -16 -21 -20
-22 -39 -10 -16 10 -28 11 -50 3 -19 -7 -35 -7 -50 -1 -16 7 -26 7 -34 -1 -7
-7 -19 -7 -35 -1 -13 5 -43 9 -66 8 -23 0 -167 5 -319 12 l-277 13 256 133
c305 157 396 202 522 255 52 22 122 53 155 70 64 32 181 54 341 64 50 3 98 7
109 9 21 4 172 -27 232 -48 52 -19 154 -32 154 -21 -1 23 -48 90 -72 102 -57
27 -254 63 -366 66 -61 2 -114 1 -117 -4 -2 -4 -35 -10 -71 -14 -50 -5 -72
-12 -86 -28 -10 -12 -18 -16 -18 -10 0 6 -9 13 -19 17 -30 9 -45 93 -39 217 4
100 6 107 52 198 27 52 52 100 57 106 5 7 60 36 122 67 62 30 150 80 197 112
l84 57 106 4 c182 6 292 -17 444 -93 122 -61 253 -170 292 -245 8 -16 19 -28
24 -28 5 0 23 -21 40 -46 23 -32 30 -52 25 -67 -24 -78 -23 -84 1 -81 52 5
114 67 124 124 7 38 4 45 -30 88 -20 26 -86 93 -145 150 -128 121 -251 196
-410 250 -90 31 -114 34 -247 39 -85 4 -148 10 -148 16 0 5 16 31 35 57 85
116 148 318 147 478 0 119 -38 301 -80 379 -9 17 -32 60 -51 95 -22 40 -68 96
-126 154 -79 78 -107 98 -196 142 -57 29 -142 63 -189 77 -83 24 -268 44 -282
30z m257 -132 c93 -27 200 -80 269 -134 31 -24 56 -46 56 -49 0 -3 22 -31 48
-63 124 -146 192 -378 171 -579 -16 -146 -108 -342 -215 -457 -48 -52 -156
-125 -258 -174 -52 -25 -172 -46 -266 -46 l-75 -1 42 36 c54 45 253 282 253
300 0 11 -5 12 -17 5 -26 -13 -158 -153 -238 -249 l-68 -83 -41 7 c-60 9 -62
14 -17 36 21 10 73 56 113 101 164 181 161 177 131 177 -25 0 -282 -254 -295
-292 -4 -9 -32 1 -109 38 -133 66 -250 175 -323 302 -76 130 -89 182 -90 347
-1 158 12 223 68 342 85 179 183 281 351 366 186 93 352 116 510 70z m-775
-194 c0 -6 -4 -7 -10 -4 -5 3 -10 11 -10 16 0 6 5 7 10 4 6 -3 10 -11 10 -16z
m-90 -119 c0 -5 -4 -10 -10 -10 -5 0 -10 5 -10 10 0 6 5 10 10 10 6 0 10 -4
10 -10z m-133 -512 c-3 -7 -5 -2 -5 12 0 14 2 19 5 13 2 -7 2 -19 0 -25z
m1478 -298 c3 -5 1 -10 -4 -10 -6 0 -11 5 -11 10 0 6 2 10 4 10 3 0 8 -4 11
-10z m-1305 -84 c0 -3 -4 -8 -10 -11 -5 -3 -10 -1 -10 4 0 6 5 11 10 11 6 0
10 -2 10 -4z m67 -98 c-3 -8 -6 -5 -6 6 -1 11 2 17 5 13 3 -3 4 -12 1 -19z
m1543 -30 c0 -13 -23 -5 -28 10 -2 7 2 10 12 6 9 -3 16 -11 16 -16z m-597
-123 c-3 -9 -8 -14 -10 -11 -3 3 -2 9 2 15 9 16 15 13 8 -4z m-788 -15 c3 -5
1 -10 -4 -10 -6 0 -11 5 -11 10 0 6 2 10 4 10 3 0 8 -4 11 -10z m1740 -10 c3
-5 2 -10 -4 -10 -5 0 -13 5 -16 10 -3 6 -2 10 4 10 5 0 13 -4 16 -10z m-95
-615 c-7 -9 -15 -13 -17 -11 -7 7 7 26 19 26 6 0 6 -6 -2 -15z m-190 -155 c0
-5 -7 -7 -15 -4 -8 4 -15 8 -15 10 0 2 7 4 15 4 8 0 15 -4 15 -10z m-65 -240
c41 -140 111 -326 136 -363 31 -45 36 -67 17 -67 -23 -1 -188 -76 -211 -96
-51 -45 -104 -78 -142 -90 -22 -7 -89 -33 -148 -58 -172 -72 -290 -88 -621
-84 l-259 3 -18 75 c-10 41 -23 113 -29 160 -6 47 -13 98 -16 114 l-6 29 53
-8 c65 -10 288 -7 344 5 56 12 177 55 222 78 21 11 85 42 143 70 58 28 130 68
162 89 136 92 255 184 282 218 l29 37 23 -28 c13 -16 31 -54 39 -84z m-645
-210 c0 -5 -4 -10 -10 -10 -5 0 -10 5 -10 10 0 6 5 10 10 10 6 0 10 -4 10 -10z
m-100 -80 c0 -5 -7 -7 -15 -4 -8 4 -15 8 -15 10 0 2 7 4 15 4 8 0 15 -4 15
-10z m-65 -10 c3 -5 -1 -10 -10 -10 -9 0 -13 5 -10 10 3 6 8 10 10 10 2 0 7
-4 10 -10z m-735 -10 c0 -5 -4 -10 -10 -10 -5 0 -10 5 -10 10 0 6 5 10 10 10
6 0 10 -4 10 -10z m-247 -7 c-7 -2 -21 -2 -30 0 -10 3 -4 5 12 5 17 0 24 -2
18 -5z m677 -48 c7 -8 8 -15 2 -15 -5 0 -15 7 -22 15 -7 8 -8 15 -2 15 5 0 15
-7 22 -15z m960 -282 c0 -5 -7 -17 -15 -27 -15 -20 -20 -10 -9 18 6 16 24 22
24 9z"/>
<path d="M1986 5788 c-18 -26 -20 -44 -6 -53 9 -5 40 50 40 70 0 13 -20 3 -34
-17z"/>
<path d="M980 5635 c-52 -52 -90 -95 -85 -95 6 0 52 36 103 80 51 44 97 80
102 80 6 0 10 7 10 15 0 35 -41 9 -130 -80z"/>
<path d="M2032 5679 c-30 -27 -35 -49 -12 -49 16 0 80 62 74 71 -9 16 -28 9
-62 -22z"/>
<path d="M2076 5604 c-34 -23 -37 -28 -23 -41 19 -20 41 -12 63 22 26 40 5 49
-40 19z"/>
<path d="M1426 5567 c-38 -28 -32 -156 9 -183 69 -45 113 95 53 171 -22 28
-36 31 -62 12z"/>
<path d="M1796 5548 c-9 -13 -16 -43 -16 -70 0 -86 68 -129 98 -62 15 31 15
94 2 128 -13 34 -62 36 -84 4z"/>
<path d="M984 5515 c-27 -19 -75 -53 -106 -75 -55 -38 -75 -70 -45 -70 29 0
217 146 217 168 0 19 -15 14 -66 -23z"/>
<path d="M2098 5498 c-15 -17 -25 -35 -22 -40 9 -15 69 26 72 50 5 31 -17 26
-50 -10z"/>
<path d="M940 5361 c-91 -63 -148 -117 -137 -128 10 -9 50 14 147 86 47 35 91
65 98 68 18 8 14 33 -6 33 -10 0 -56 -27 -102 -59z"/>
<path d="M2128 5404 c-32 -17 -53 -50 -38 -59 15 -9 94 37 98 58 4 21 -22 22
-60 1z"/>
<path d="M1025 5293 c-75 -45 -170 -118 -189 -145 -24 -33 -8 -41 33 -16 51
31 239 171 240 179 3 21 -34 13 -84 -18z"/>
<path d="M2158 5309 c-39 -20 -78 -63 -78 -85 0 -20 5 -18 60 23 43 32 69 67
58 78 -1 2 -19 -5 -40 -16z"/>
<path d="M1030 5166 c-94 -62 -180 -137 -180 -155 0 -25 24 -16 96 36 81 57
184 140 196 157 7 11 1 26 -10 26 -4 0 -50 -29 -102 -64z"/>
<path d="M2125 5166 c-48 -46 -49 -47 -20 -41 37 8 78 47 73 70 -2 14 -13 9
-53 -29z"/>
<path d="M1162 5139 c-29 -11 -153 -104 -222 -166 -40 -36 -48 -48 -39 -59 6
-8 16 -14 20 -14 7 0 215 169 274 221 16 15 -8 28 -33 18z"/>
<path d="M2019 4982 c-52 -54 -111 -110 -131 -126 -21 -15 -67 -67 -102 -115
-36 -48 -74 -95 -86 -106 -25 -23 -26 -35 -1 -35 23 0 60 37 118 115 51 68
191 215 277 292 53 47 65 73 32 73 -7 0 -55 -44 -107 -98z"/>
<path d="M1132 5000 c-86 -65 -192 -173 -192 -196 0 -31 35 -9 152 97 137 124
150 138 142 150 -9 16 -22 10 -102 -51z"/>
<path d="M1983 5049 c-14 -5 -23 -17 -23 -29 0 -13 -13 -28 -35 -42 -22 -12
-35 -27 -33 -37 6 -28 23 -18 72 42 50 62 55 80 19 66z"/>
<path d="M1195 4931 c-92 -78 -195 -184 -195 -200 0 -21 29 -10 87 33 61 46
213 207 213 225 0 24 -28 8 -105 -58z"/>
<path d="M1343 4932 c-6 -4 -68 -61 -137 -126 -100 -94 -124 -122 -115 -132 6
-8 17 -14 25 -14 28 0 264 242 264 271 0 11 -20 12 -37 1z"/>
<path d="M1993 4848 c-28 -29 -67 -68 -87 -87 -36 -34 -45 -51 -25 -51 23 0
46 21 84 77 21 32 50 70 64 86 44 49 15 29 -36 -25z"/>
<path d="M1384 4838 c-117 -106 -183 -176 -190 -202 -16 -65 12 -46 165 107
113 115 135 147 97 147 -7 0 -39 -24 -72 -52z"/>
<path d="M1704 4782 c-95 -101 -184 -205 -184 -217 0 -3 10 -5 23 -5 15 0 47
29 107 97 84 96 180 217 180 228 0 20 -39 -11 -126 -103z"/>
<path d="M2250 3207 c-36 -34 -101 -100 -145 -147 -44 -47 -75 -78 -70 -70 6
9 -3 0 -20 -20 -16 -19 -52 -57 -79 -85 -36 -37 -45 -51 -32 -53 9 -2 28 5 44
16 38 28 215 220 292 317 35 44 68 83 74 87 6 4 8 9 6 12 -3 2 -34 -23 -70
-57z"/>
<path d="M2358 3223 c-19 -21 -55 -63 -80 -94 -25 -31 -61 -74 -82 -95 -20
-22 -48 -59 -62 -83 -70 -117 95 56 241 252 19 26 35 49 35 52 0 14 -19 1 -52
-32z"/>
<path d="M2144 3200 c-27 -28 -93 -94 -147 -146 -83 -81 -97 -91 -91 -67 3 15
23 54 45 85 44 64 45 68 24 68 -9 0 -38 -34 -65 -77 -48 -73 -57 -100 -25 -73
8 7 15 8 15 3 0 -13 -49 -63 -61 -63 -15 0 -81 -110 -77 -128 3 -14 10 -10 34
17 71 83 100 112 114 115 21 3 190 179 244 254 25 34 44 62 42 62 -2 0 -25
-23 -52 -50z"/>
<path d="M2440 3191 c0 -6 -25 -38 -55 -71 -48 -52 -69 -90 -49 -90 8 0 134
132 134 141 0 3 -7 12 -15 19 -10 9 -15 9 -15 1z"/>
<path d="M1664 3104 c-28 -33 -60 -72 -73 -89 -12 -16 -39 -48 -60 -70 -68
-74 -102 -135 -76 -135 31 0 273 312 263 340 -2 7 -26 -14 -54 -46z"/>
<path d="M1761 3103 c-167 -200 -217 -271 -208 -295 7 -20 119 105 197 220 39
56 70 107 70 112 0 21 -21 8 -59 -37z"/>
<path d="M1851 3093 c-111 -137 -202 -276 -189 -288 19 -19 90 63 173 200 26
44 55 90 63 103 26 39 -13 27 -47 -15z"/>
<path d="M1567 3089 c-26 -17 -65 -52 -87 -77 -102 -121 -150 -186 -150 -206
0 -17 11 -9 58 39 80 85 239 275 230 275 -3 0 -26 -14 -51 -31z"/>
<path d="M1341 3083 c-18 -12 -22 -13 -16 -2 4 8 -11 -6 -33 -30 -71 -75 -45
-93 27 -20 28 27 57 69 49 69 -2 0 -14 -8 -27 -17z"/>
<path d="M1409 3053 c-80 -84 -159 -184 -153 -194 10 -17 61 29 127 114 36 45
72 89 81 96 9 7 16 17 16 22 0 21 -29 5 -71 -38z"/>
<path d="M6968 6105 c-10 -22 -9 -29 10 -48 18 -17 26 -19 40 -11 26 17 26 50
0 68 -30 21 -36 20 -50 -9z"/>
<path d="M6783 6054 c-3 -8 1 -23 10 -31 21 -21 47 -9 47 22 0 20 -5 25 -25
25 -14 0 -28 -7 -32 -16z"/>
<path d="M9686 5462 c-2 -4 -7 -23 -11 -42 -5 -29 1 -49 33 -113 65 -126 87
-220 86 -367 -1 -112 -4 -135 -32 -221 -36 -109 -110 -228 -201 -324 -53 -55
-103 -147 -88 -161 35 -35 219 132 299 271 122 212 161 469 103 671 -33 112
-80 206 -127 255 -38 39 -52 46 -62 31z"/>
<path d="M9670 5264 c0 -11 7 -29 16 -40 14 -18 15 -18 8 6 -3 14 -10 32 -15
40 -7 12 -8 11 -9 -6z"/>
<path d="M9681 5164 c-14 -30 -11 -37 13 -28 16 6 23 54 8 54 -5 0 -14 -12
-21 -26z"/>
<path d="M6666 5090 c-45 -44 -92 -99 -105 -122 -19 -37 -7 -27 79 62 96 100
129 140 114 140 -3 0 -43 -36 -88 -80z"/>
<path d="M6742 5035 c-115 -118 -190 -211 -179 -221 2 -3 51 46 108 108 57 62
132 141 167 175 47 47 58 63 44 63 -12 0 -68 -50 -140 -125z"/>
<path d="M6994 5135 c-32 -13 -267 -247 -352 -350 -52 -64 -77 -104 -69 -112
10 -9 43 21 99 91 32 39 125 141 207 226 83 85 149 155 148 156 -1 1 -16 -3
-33 -11z"/>
<path d="M2822 5093 c-37 -31 -33 -73 6 -73 52 0 82 58 43 80 -25 13 -25 13
-49 -7z"/>
<path d="M9585 5070 c-13 -25 -13 -30 -1 -30 18 0 33 20 33 43 0 26 -15 20
-32 -13z"/>
<path d="M6999 5016 c-73 -61 -329 -331 -366 -388 -14 -20 -23 -43 -21 -50 6
-15 32 11 204 202 67 74 154 170 194 213 39 42 68 77 63 77 -5 0 -38 -24 -74
-54z"/>
<path d="M9658 5033 c-18 -22 -48 -70 -48 -78 0 -16 19 1 44 40 29 46 32 70 4
38z"/>
<path d="M9727 4995 c6 -62 -26 -111 -166 -248 -73 -71 -108 -112 -105 -122 4
-8 8 -15 10 -15 2 0 25 23 51 52 26 29 89 93 138 142 50 49 85 90 79 93 -9 3
-8 11 1 31 9 17 12 43 8 70 -8 57 -22 54 -16 -3z"/>
<path d="M9644 4937 c-39 -22 -222 -232 -212 -243 3 -2 49 44 104 103 153 168
150 164 108 140z"/>
<path d="M7268 4883 c-74 -59 -330 -331 -389 -412 -34 -47 -54 -79 -44 -71 17
14 18 13 12 -2 -11 -30 0 -21 55 46 29 35 135 155 236 265 172 189 208 237
130 174z"/>
<path d="M7247 4739 c-62 -63 -142 -147 -178 -188 -35 -41 -75 -87 -89 -101
-55 -59 -101 -120 -92 -120 6 0 17 -3 25 -6 10 -3 36 21 78 73 35 43 113 134
174 203 170 193 208 240 202 247 -4 3 -58 -45 -120 -108z"/>
<path d="M9695 4773 c-22 -25 -77 -84 -122 -132 -46 -47 -83 -90 -83 -94 0
-17 82 39 107 73 15 19 54 63 86 97 39 41 58 68 55 81 -3 18 -9 14 -43 -25z"/>
<path d="M7789 4723 c-103 -108 -222 -247 -313 -367 -42 -53 -42 -56 -18 -56
12 0 48 36 93 92 41 50 105 130 143 177 38 47 87 106 109 131 81 93 70 110
-14 23z"/>
<path d="M7304 4668 c-123 -127 -228 -258 -272 -337 -29 -54 -31 -61 -15 -61
12 0 33 26 63 76 25 42 77 111 115 153 39 42 99 110 134 151 36 41 74 85 85
98 16 18 17 22 4 22 -8 0 -60 -46 -114 -102z"/>
<path d="M7470 4701 c-36 -26 -87 -72 -114 -102 -27 -30 -68 -74 -91 -99 -87
-92 -182 -240 -169 -262 12 -19 31 -4 61 50 37 68 175 243 269 339 35 38 77
80 91 96 38 38 28 34 -47 -22z"/>
<path d="M9667 4653 c-9 -15 -49 -64 -91 -107 -42 -44 -76 -83 -76 -88 0 -21
33 -4 77 40 46 46 121 168 110 179 -3 3 -12 -8 -20 -24z"/>
<path d="M7788 4569 c-40 -45 -77 -87 -83 -93 -118 -131 -185 -217 -185 -239
0 -33 28 -16 71 41 42 56 124 156 233 282 53 61 68 90 47 90 -5 0 -42 -37 -83
-81z"/>
<path d="M7878 4388 c-80 -84 -144 -155 -142 -157 5 -6 112 77 153 119 69 71
162 190 149 190 -7 0 -79 -69 -160 -152z"/>
<path d="M6004 4443 c-15 -16 -15 -18 6 -35 26 -21 40 -16 40 17 0 29 -25 39
-46 18z"/>
<path d="M5822 4354 c-24 -17 -29 -56 -9 -72 10 -8 22 -7 48 6 37 18 48 44 29
67 -16 19 -40 19 -68 -1z"/>
<path d="M6132 4338 c-6 -6 -12 -22 -12 -35 0 -20 5 -23 40 -23 44 0 61 20 43
49 -13 20 -54 26 -71 9z"/>
<path d="M8533 4283 c-87 -59 -148 -120 -177 -179 -26 -50 -31 -75 -37 -174
-4 -63 -13 -157 -20 -207 -7 -51 -10 -96 -6 -99 10 -10 73 31 164 109 175 149
252 300 241 475 -5 74 -19 92 -79 99 -36 4 -51 0 -86 -24z m45 -160 c-9 -71
-59 -193 -78 -193 -6 0 -8 5 -4 12 4 6 3 8 -4 5 -5 -4 -8 -16 -5 -27 4 -13 0
-20 -9 -20 -8 0 -23 -9 -33 -20 -29 -32 -37 -10 -29 74 8 89 36 138 104 181
23 14 43 32 47 40 13 36 19 9 11 -52z"/>
<path d="M5972 4199 c4 -31 32 -46 52 -30 9 8 16 22 16 32 0 15 -7 19 -36 19
-31 0 -35 -3 -32 -21z"/>
<path d="M8840 4161 c-21 -4 -36 -13 -38 -23 -5 -27 42 -50 113 -55 79 -7 118
12 113 55 -3 26 -4 27 -78 28 -41 1 -91 -1 -110 -5z"/>
<path d="M9149 4063 c-6 -16 -15 -55 -20 -88 -5 -33 -14 -79 -20 -102 -15 -56
-6 -93 24 -93 20 0 27 13 60 108 39 111 46 149 25 136 -8 -5 -9 0 -5 15 6 23
-15 51 -39 51 -8 0 -19 -12 -25 -27z"/>
<path d="M9676 3885 c-19 -19 -19 -21 -6 -46 21 -39 75 -13 68 33 -4 28 -39
36 -62 13z"/>
<path d="M5631 3578 c-52 -57 -207 -215 -344 -352 -232 -231 -249 -250 -231
-263 17 -12 16 -13 -11 -7 -26 5 -39 -3 -102 -58 -314 -277 -626 -529 -689
-557 -12 -5 -37 -23 -55 -39 -19 -16 -49 -37 -66 -46 -52 -26 -62 -50 -69
-174 l-7 -112 -76 -47 c-42 -25 -95 -62 -118 -80 -39 -31 -43 -39 -43 -78 0
-66 -13 -60 355 -159 72 -19 171 -44 220 -55 50 -11 128 -29 175 -40 47 -10
132 -31 190 -45 314 -81 420 -103 610 -131 58 -8 119 -20 135 -25 26 -8 59
-13 156 -24 17 -2 52 -28 100 -78 56 -57 92 -83 149 -110 126 -60 215 -70 422
-48 88 9 99 8 139 -12 60 -29 121 -49 368 -124 166 -50 216 -62 223 -52 6 10
8 8 8 -4 0 -10 6 -18 14 -18 7 0 57 -17 111 -37 85 -32 100 -35 119 -23 18 11
19 11 9 -1 -10 -13 14 -23 165 -72 97 -31 264 -81 370 -112 107 -30 198 -57
203 -60 23 -15 207 -56 248 -56 88 -1 107 14 203 156 41 61 137 202 213 315
76 113 153 223 170 245 18 22 38 51 45 63 l12 24 14 -21 c9 -12 23 -21 33 -21
24 0 133 162 125 184 -3 9 -9 16 -13 16 -7 -1 -82 -104 -100 -138 -12 -23 -31
-22 -31 3 0 20 132 237 197 324 31 40 107 151 171 245 63 94 168 248 234 343
144 210 180 274 176 321 -4 46 -36 69 -117 81 -36 6 -70 16 -77 23 -13 13 -56
197 -59 253 -1 17 -3 38 -3 48 -3 29 -58 54 -135 62 -40 3 -101 13 -136 21
-35 9 -76 14 -90 13 -14 -1 -39 3 -54 10 -16 6 -35 11 -43 11 -8 0 -28 7 -44
15 -17 9 -30 12 -30 8 0 -5 -4 -3 -8 2 -4 6 -43 23 -87 38 -44 14 -145 59
-225 100 -241 122 -398 161 -645 161 -184 0 -241 -12 -366 -74 l-77 -39 -64
71 c-106 119 -283 220 -488 276 -56 15 -77 18 -82 9 -6 -9 -10 -9 -15 -1 -13
18 -76 23 -105 8 -24 -13 -27 -12 -22 1 5 13 -7 15 -97 10 -57 -3 -124 -7
-149 -9 -52 -6 -228 -19 -250 -19 -8 0 -21 -4 -28 -10 -9 -7 -16 -7 -20 0 -4
6 -44 10 -95 9 -48 -1 -88 3 -90 8 -1 4 -30 9 -62 10 -33 0 -62 3 -65 6 -10
11 -131 40 -167 40 -35 0 -45 -7 -132 -102z m215 -18 c106 -25 325 -44 414
-36 36 3 124 12 195 21 126 15 316 15 425 0 136 -19 337 -101 436 -177 52 -40
144 -137 144 -152 0 -3 -7 -6 -17 -6 -9 0 -41 27 -70 60 -30 33 -59 60 -64 60
-24 0 -3 -41 46 -90 30 -30 55 -62 55 -72 0 -24 -13 -23 -36 3 -20 23 -159
129 -168 129 -21 0 4 -36 69 -100 75 -75 81 -85 67 -107 -6 -9 -30 9 -79 57
-40 39 -79 70 -87 70 -33 0 -14 -37 55 -106 58 -59 70 -76 64 -93 -6 -20 -13
-16 -81 49 -41 38 -81 70 -88 70 -34 0 -23 -23 44 -92 72 -76 78 -86 58 -106
-9 -9 -29 5 -85 58 -40 39 -80 70 -88 70 -31 0 -13 -35 55 -106 70 -74 70 -74
54 -100 l-17 -25 -49 55 c-47 53 -104 96 -127 96 -24 0 -9 -40 25 -66 20 -16
51 -48 69 -72 30 -38 32 -46 23 -73 -9 -27 -28 -41 -28 -20 0 17 -73 103 -112
132 -41 29 -78 38 -78 19 0 -6 29 -38 65 -72 36 -34 75 -74 87 -90 19 -28 20
-31 4 -46 -16 -16 -21 -13 -79 50 -55 59 -118 108 -139 108 -22 0 -3 -42 35
-75 57 -51 117 -126 117 -147 0 -27 -12 -22 -55 23 -58 60 -154 139 -169 139
-8 0 -17 -7 -20 -16 -4 -11 17 -37 69 -86 98 -92 121 -124 104 -144 -11 -13
-20 -7 -68 43 -31 32 -76 72 -101 88 -25 17 -46 33 -48 38 -2 4 -12 7 -23 7
-33 0 -22 -35 21 -65 51 -35 160 -151 160 -170 0 -33 -23 -21 -87 43 -82 83
-149 130 -164 115 -8 -8 18 -40 90 -110 56 -54 101 -102 101 -108 0 -5 -5 -17
-10 -25 -8 -12 -25 0 -92 66 -87 85 -124 114 -145 114 -28 0 -9 -28 88 -126
90 -92 99 -104 88 -122 -12 -18 -17 -15 -88 55 -108 107 -171 144 -171 99 0
-6 24 -32 53 -56 97 -81 166 -180 126 -180 -6 0 -39 29 -72 64 -75 77 -127
116 -155 116 -36 0 -34 -18 6 -43 60 -39 162 -159 162 -193 0 -26 -8 -20 -104
74 -57 56 -108 102 -115 102 -6 0 -14 -7 -18 -16 -4 -11 19 -41 76 -97 94 -95
101 -103 100 -137 0 -22 -6 -19 -57 37 -69 75 -141 133 -164 133 -31 0 -19
-27 30 -66 26 -22 57 -50 68 -64 12 -14 34 -38 48 -55 32 -37 41 -64 27 -78
-7 -7 -34 14 -93 74 -91 94 -143 139 -157 139 -31 0 -11 -31 84 -131 58 -62
105 -118 105 -125 0 -35 -30 -19 -114 62 -50 49 -101 95 -113 102 -64 35 -47
-10 32 -86 72 -70 135 -144 135 -160 0 -32 -28 -16 -93 51 -81 83 -165 143
-181 127 -6 -6 21 -41 81 -102 105 -109 131 -144 115 -160 -8 -8 -40 18 -114
91 -81 81 -107 101 -127 99 -38 -5 -34 -20 15 -56 25 -19 74 -70 109 -115 51
-64 62 -84 53 -94 -9 -12 -16 -8 -36 19 -39 52 -164 171 -200 191 -30 17 -33
17 -39 2 -4 -12 18 -40 79 -101 99 -97 141 -154 132 -177 -9 -25 -19 -21 -49
23 -39 56 -144 152 -189 174 -20 9 -47 16 -59 14 -18 -2 -4 -18 80 -87 105
-85 163 -156 163 -198 0 -13 -4 -23 -8 -23 -5 0 -30 25 -57 56 -66 76 -137
127 -290 206 -251 129 -460 182 -843 213 -195 16 -218 20 -437 72 -82 20 -167
40 -187 45 -43 10 -49 23 -15 34 55 17 338 232 582 442 190 164 647 607 845
820 52 56 96 102 97 102 1 0 41 -9 89 -20z m-198 -51 c2 -23 2 -23 -13 -5 -18
24 -20 39 -2 34 6 -3 13 -15 15 -29z m2577 -247 c94 -16 239 -67 370 -132 307
-150 555 -230 712 -230 40 0 73 -3 73 -6 0 -4 -12 -20 -27 -38 -16 -17 -87
-117 -159 -221 -72 -105 -176 -255 -231 -335 -55 -80 -151 -217 -213 -305 -63
-88 -152 -216 -198 -285 -163 -240 -186 -257 -328 -246 -63 5 -84 4 -91 -6 -4
-7 -24 -19 -43 -25 -32 -12 -49 -9 -170 27 -74 23 -141 43 -147 45 -7 2 -13 0
-13 -4 0 -13 55 -43 148 -80 45 -18 82 -36 82 -38 0 -16 -98 12 -166 47 -42
22 -81 40 -86 40 -4 0 -17 9 -28 20 -27 27 -70 37 -81 19 -13 -20 -11 -39 4
-39 6 0 55 -21 107 -46 90 -44 100 -47 180 -47 127 -1 220 7 228 20 4 7 30 12
57 12 28 0 67 7 88 15 20 9 37 13 37 9 0 -4 -26 -48 -58 -98 -33 -49 -66 -102
-76 -118 -16 -26 -18 -26 -44 -13 -15 8 -50 14 -78 14 -81 1 -235 29 -331 61
-49 17 -199 84 -333 150 -135 65 -280 131 -324 145 -134 45 -319 77 -466 83
-120 4 -149 2 -260 -22 -69 -15 -137 -29 -153 -32 l-27 -5 32 38 c18 21 60 67
93 103 84 93 185 209 223 256 48 62 176 185 192 185 5 0 21 21 36 48 15 26 58
81 94 122 36 41 81 94 100 116 183 218 520 601 572 650 72 67 137 102 266 143
79 25 90 26 230 19 81 -3 174 -11 207 -16z m1188 -521 c-77 -122 -488 -740
-589 -886 -176 -254 -430 -605 -492 -679 -20 -25 -46 -59 -57 -77 -23 -37 -34
-43 -55 -29 -12 9 -7 18 30 53 25 23 57 60 72 82 15 22 55 78 88 125 34 47 95
135 135 195 79 118 106 157 256 366 53 74 151 215 219 314 68 99 165 236 215
305 50 69 111 155 135 193 25 37 48 67 53 67 5 0 1 -13 -10 -29z m59 -213
c-17 -24 -44 -59 -62 -78 -46 -51 -19 -1 38 73 52 66 69 70 24 5z m77 -155
c-56 -82 -181 -267 -278 -413 -278 -417 -315 -470 -375 -550 -31 -41 -68 -100
-84 -130 -15 -30 -34 -60 -42 -66 -8 -7 -33 -38 -55 -70 -21 -33 -75 -110
-120 -172 -44 -62 -86 -123 -94 -135 -8 -12 -38 -59 -68 -104 -30 -46 -58 -83
-63 -83 -13 0 -13 -1 11 51 28 58 168 273 298 457 57 81 156 224 220 317 63
94 145 211 181 260 36 50 77 108 90 130 14 22 105 157 203 300 99 143 191 281
206 307 19 35 32 48 48 48 20 0 9 -19 -78 -147z m-2998 60 c13 -16 12 -17 -3
-4 -10 7 -18 15 -18 17 0 8 8 3 21 -13z m-2271 -113 c0 -5 -2 -10 -4 -10 -3 0
-8 5 -11 10 -3 6 -1 10 4 10 6 0 11 -4 11 -10z m2428 -102 c-6 -18 -28 -21
-28 -4 0 9 7 16 16 16 9 0 14 -5 12 -12z m2446 -70 c-33 -65 -133 -212 -174
-255 -32 -34 -47 -43 -33 -20 24 39 226 327 229 327 3 0 -8 -24 -22 -52z
m-4875 -78 c52 -10 139 -32 195 -49 111 -32 328 -67 369 -59 15 3 27 1 27 -3
0 -5 19 -9 43 -9 58 0 284 -36 338 -53 24 -8 62 -18 84 -22 68 -12 273 -93
382 -151 159 -85 126 -81 -85 10 -46 20 -141 50 -210 67 -70 16 -146 37 -169
44 -23 8 -100 17 -172 21 -116 6 -131 5 -131 -9 0 -22 5 -24 100 -37 237 -31
578 -125 735 -203 88 -43 145 -80 145 -94 0 -20 -16 -16 -99 23 -175 83 -351
132 -776 214 -103 20 -245 51 -350 75 -33 8 -80 17 -105 21 -25 3 -112 23
-195 44 -82 21 -171 41 -197 45 -45 6 -48 8 -48 37 0 27 3 30 23 24 98 -26
430 -87 507 -94 109 -8 126 -7 134 14 7 19 -23 31 -34 13 -7 -11 -15 -11 -42
-2 -18 7 -71 19 -117 28 -47 8 -137 28 -201 44 -64 16 -151 35 -193 42 -50 8
-77 17 -77 26 0 17 7 16 119 -7z m4892 -38 c-19 -38 -41 -62 -41 -46 0 13 52
96 57 91 2 -3 -5 -23 -16 -45z m-4843 -183 c318 -76 373 -89 472 -104 101 -16
318 -59 560 -111 101 -22 392 -114 475 -150 l30 -13 -28 -1 c-16 0 -64 9 -107
20 -44 11 -83 19 -87 19 -4 -1 -21 4 -38 11 -16 7 -48 14 -70 15 -22 2 -83 13
-135 25 -52 12 -129 27 -170 35 -41 7 -101 18 -133 25 -33 6 -66 9 -74 6 -8
-3 -12 -2 -9 3 6 9 -128 44 -309 81 -55 12 -116 25 -135 30 -19 5 -78 19 -130
30 -239 53 -310 72 -310 85 0 33 44 31 198 -6z m-315 -43 c-4 -22 0 -26 50
-40 30 -9 99 -25 153 -35 54 -11 139 -32 188 -46 49 -15 197 -51 330 -80 227
-51 492 -112 651 -150 102 -24 205 -58 205 -66 0 -4 -9 -5 -20 -2 -14 4 -20 0
-20 -12 0 -13 -7 -10 -29 14 -31 33 -50 38 -69 19 -9 -9 -15 -10 -20 -2 -6 10
-45 19 -185 44 -27 5 -84 18 -127 30 -44 11 -91 20 -105 20 -15 0 -34 4 -45
10 -10 5 -96 25 -191 45 -96 19 -232 51 -302 71 -71 20 -157 40 -191 45 -33 6
-83 16 -111 24 -27 8 -94 26 -147 41 -54 15 -98 31 -98 35 0 11 60 59 74 59 9
0 12 -9 9 -24z m4897 15 c0 -12 -31 -43 -37 -37 -6 6 20 46 29 46 5 0 8 -4 8
-9z m101 -48 c-10 -17 -10 -16 -11 3 0 23 13 41 18 25 2 -6 -1 -18 -7 -28z
m209 7 c0 -5 -4 -10 -10 -10 -5 0 -10 5 -10 10 0 6 5 10 10 10 6 0 10 -4 10
-10z m-356 -42 c-9 -18 -20 -35 -23 -38 -7 -6 -72 -99 -161 -231 -36 -53 -90
-128 -122 -166 -31 -38 -84 -110 -119 -159 -34 -49 -82 -116 -107 -148 -25
-32 -51 -75 -58 -95 l-13 -36 -1 63 c0 43 4 62 13 62 6 0 32 31 57 67 25 37
106 149 180 249 74 100 156 211 181 246 134 182 216 271 173 186z m123 10 c-3
-8 -6 -5 -6 6 -1 11 2 17 5 13 3 -3 4 -12 1 -19z m-56 -80 c-21 -34 -41 -48
-41 -29 0 6 4 11 8 11 5 0 15 11 22 25 7 14 18 25 23 25 5 0 0 -15 -12 -32z
m-118 -176 c-37 -53 -88 -127 -113 -164 -25 -37 -51 -68 -57 -68 -26 0 -13 24
75 140 11 14 45 63 77 110 60 88 78 106 83 90 2 -6 -27 -54 -65 -108z m-4303
78 c0 -5 -5 -10 -11 -10 -5 0 -7 5 -4 10 3 6 8 10 11 10 2 0 4 -4 4 -10z m67
-26 c-3 -3 -12 -4 -19 -1 -8 3 -5 6 6 6 11 1 17 -2 13 -5z m2113 -8 c8 -2 -11
-4 -42 -5 -32 0 -58 2 -58 7 0 7 64 6 100 -2z m-175 -5 c-3 -6 16 -13 42 -16
27 -4 71 -13 98 -20 55 -15 490 -115 501 -115 3 0 1 7 -6 15 -21 25 -164 74
-297 100 -155 31 -170 37 -78 30 160 -13 404 -95 566 -190 154 -90 278 -137
591 -226 149 -42 212 -69 222 -95 4 -9 5 -19 3 -21 -3 -2 -53 12 -113 32 -60
19 -147 44 -194 56 -47 11 -128 34 -180 49 -52 16 -122 34 -155 40 -33 6 -94
22 -135 35 -41 14 -106 29 -144 35 -39 6 -74 17 -80 26 -13 17 -247 103 -383
140 -51 14 -123 35 -160 48 -37 14 -95 27 -128 31 -83 10 -99 20 -51 33 21 6
43 9 51 6 7 -3 16 -1 20 5 3 6 8 11 11 11 3 0 3 -4 -1 -9z m-542 -166 c-43
-47 -81 -85 -85 -85 -5 0 -8 11 -8 25 0 27 48 80 108 120 69 44 64 25 -15 -60z
m152 75 c3 -6 -18 -40 -47 -76 -94 -117 -112 -135 -127 -125 -22 14 -5 43 75
132 68 76 87 89 99 69z m50 -60 c7 -21 -1 -32 -93 -140 -34 -39 -52 -35 -33 7
18 40 100 153 111 153 5 0 12 -9 15 -20z m295 16 c0 -2 -9 -6 -20 -9 -11 -3
-18 -1 -14 4 5 9 34 13 34 5z m225 -31 c179 -38 256 -58 315 -80 36 -13 90
-30 120 -36 30 -6 71 -20 91 -29 39 -21 259 -88 389 -120 83 -20 124 -33 165
-51 11 -4 62 -20 113 -34 51 -14 110 -32 130 -40 39 -15 120 -38 137 -39 6 -1
12 -12 13 -25 3 -20 1 -23 -15 -17 -10 4 -65 20 -123 36 -58 15 -152 41 -210
58 -58 16 -159 44 -225 62 -112 29 -443 133 -705 220 -103 35 -317 89 -373 95
-37 4 -38 5 -32 16 8 12 117 4 210 -16z m-1025 -10 c0 -8 -4 -15 -9 -15 -13 0
-22 16 -14 24 11 11 23 6 23 -9z m104 0 c-6 -16 -24 -21 -24 -7 0 11 11 22 21
22 5 0 6 -7 3 -15z m3186 -50 c-7 -8 -17 -12 -23 -8 -6 4 -3 11 8 19 23 17 32
10 15 -11z m-2720 -16 c0 -13 -73 -78 -88 -79 -17 0 -15 4 27 62 27 37 37 45
48 37 7 -7 13 -15 13 -20z m385 -25 c131 -22 324 -69 445 -108 58 -19 168 -53
245 -76 349 -103 418 -124 535 -160 69 -21 172 -51 229 -66 101 -27 147 -52
138 -77 -5 -17 -73 -28 -103 -17 -19 7 -31 7 -40 -1 -11 -9 -14 -8 -14 3 0 15
-22 22 -215 69 -113 27 -303 85 -575 175 -41 14 -118 39 -170 55 -52 17 -113
39 -135 49 -22 10 -123 41 -225 70 -102 28 -205 57 -230 65 -25 7 -62 16 -82
19 -21 4 -38 12 -38 18 0 12 97 5 235 -18z m-325 -63 c0 -13 -42 -52 -52 -49
-18 6 -13 23 7 23 15 0 19 6 18 22 -2 16 2 21 12 17 8 -4 15 -9 15 -13z m260
-81 c36 -11 106 -29 155 -41 50 -12 137 -38 195 -57 58 -19 164 -51 235 -72
72 -21 195 -61 275 -88 184 -64 541 -170 741 -221 111 -28 155 -44 157 -55 2
-9 -1 -16 -6 -16 -34 0 -501 130 -787 219 -159 49 -234 73 -600 190 -104 33
-230 73 -280 87 -88 27 -195 71 -195 80 0 3 10 2 23 -1 12 -4 51 -15 87 -25z
m1936 -86 c-21 -31 -40 -54 -43 -51 -2 3 12 31 32 62 20 32 39 55 42 51 3 -3
-11 -31 -31 -62z m-93 -134 c-6 -23 -31 -46 -40 -37 -7 8 24 57 36 57 5 0 7
-9 4 -20z m-186 -236 c-3 -3 -12 -4 -19 -1 -8 3 -5 6 6 6 11 1 17 -2 13 -5z
m-107 -90 c0 -8 -5 -12 -10 -9 -6 4 -8 11 -5 16 9 14 15 11 15 -7z"/>
<path d="M5722 3488 c-17 -24 -37 -50 -46 -57 -23 -19 -20 -28 11 -35 17 -5
29 -3 34 6 6 9 9 9 9 1 0 -17 89 -33 180 -33 83 0 96 6 86 43 -4 18 -13 22
-56 25 -41 2 -50 0 -50 -14 0 -14 -7 -15 -52 -8 -29 4 -63 8 -74 8 -12 1 -27
7 -33 13 -9 10 6 12 69 10 44 -2 80 1 80 5 0 4 20 8 43 8 70 0 63 12 -20 37
-144 41 -147 41 -181 -9z"/>
<path d="M6978 3294 c-12 -11 0 -22 49 -44 54 -24 63 -25 63 -7 0 32 -91 73
-112 51z"/>
<path d="M6063 3203 c-56 -3 -83 -8 -83 -16 0 -9 -2 -9 -8 0 -6 10 -17 10 -46
2 -21 -6 -36 -12 -34 -14 2 -3 94 -7 203 -10 211 -6 432 -27 477 -44 14 -5 35
-10 45 -9 10 0 49 -7 86 -16 38 -9 78 -16 90 -16 l22 1 -22 18 c-13 11 -46 24
-75 30 -29 7 -80 19 -113 28 -95 25 -208 40 -308 42 -50 1 -105 3 -122 5 -16
1 -67 1 -112 -1z"/>
<path d="M5840 3037 c0 -17 56 -24 210 -26 58 -1 142 -6 187 -12 74 -8 241
-46 286 -64 12 -5 17 -2 17 9 0 20 -39 40 -147 72 -82 25 -104 27 -320 32
-200 3 -233 2 -233 -11z"/>
<path d="M5663 2910 c-35 -14 -27 -30 15 -31 20 -1 41 -1 46 0 21 4 230 -20
302 -34 85 -18 281 -81 301 -97 13 -11 53 -2 53 12 0 20 -175 90 -285 115
-112 26 -399 49 -432 35z"/>
<path d="M5548 2761 c-37 -3 -73 -12 -80 -18 -15 -16 -32 -14 207 -18 175 -2
199 -4 305 -32 64 -17 148 -44 187 -62 81 -35 93 -37 93 -16 0 22 -151 90
-270 122 -77 21 -121 26 -235 28 -77 2 -170 0 -207 -4z"/>
<path d="M5362 2589 c-18 -6 -32 -15 -30 -21 3 -8 56 -12 169 -14 230 -3 341
-23 517 -92 100 -38 146 -52 153 -45 35 35 -209 145 -381 173 -81 12 -383 12
-428 -1z"/>
<path d="M5138 2369 c-13 -4 -47 -7 -75 -8 -29 -1 -53 -5 -53 -11 0 -11 72
-14 215 -11 132 4 385 -34 537 -80 38 -12 72 -19 75 -15 24 24 -101 70 -307
112 -98 19 -339 27 -392 13z"/>
<path d="M4457 2304 c-19 -19 5 -33 109 -59 79 -19 94 -19 94 3 0 14 -17 21
-87 36 -47 10 -92 20 -98 22 -6 3 -14 1 -18 -2z"/>
<path d="M4360 2231 c0 -34 165 -81 287 -81 60 0 74 3 82 19 10 18 6 31 -11
31 -5 0 -6 -5 -3 -10 20 -32 -107 -13 -246 36 -82 29 -109 31 -109 5z"/>
<path d="M4710 2241 c0 -14 18 -23 31 -15 8 4 7 9 -2 15 -18 11 -29 11 -29 0z"/>
<path d="M4805 2200 c-4 -6 -2 -17 4 -23 15 -15 25 -2 13 19 -7 12 -11 13 -17
4z"/>
<path d="M4903 2204 c-7 -3 -13 -12 -13 -20 0 -17 -16 -16 230 -21 113 -2 218
-5 233 -5 17 0 42 -13 60 -29 17 -16 39 -29 49 -29 10 0 18 -5 18 -11 0 -6 6
-9 14 -6 8 3 16 3 18 -1 5 -12 223 -112 243 -112 13 0 2 29 -17 47 -26 23
-149 72 -258 102 -40 11 -76 23 -79 27 -6 7 60 -3 85 -13 8 -3 14 0 14 6 0 6
-6 11 -12 11 -7 0 -26 7 -41 15 -70 36 -124 44 -285 41 -86 -2 -161 -5 -167
-6 -5 -1 -26 0 -45 3 -19 3 -41 4 -47 1z"/>
<path d="M5868 2073 c7 -3 16 -2 19 1 4 3 -2 6 -13 5 -11 0 -14 -3 -6 -6z"/>
<path d="M7825 3061 c-23 -7 -11 -9 50 -10 44 -1 109 -4 145 -7 54 -4 62 -2
45 8 -23 14 -196 21 -240 9z"/>
<path d="M8930 2899 c0 -30 188 -109 260 -109 27 0 60 27 60 48 0 7 -17 12
-43 12 -42 0 -157 26 -238 54 -36 13 -39 12 -39 -5z"/>
<path d="M7810 2904 c-19 -2 -59 -7 -88 -10 -36 -4 -55 -11 -62 -24 -9 -17 0
-18 163 -17 204 0 270 -13 484 -98 76 -30 141 -55 146 -55 19 0 83 -34 110
-58 22 -21 27 -23 27 -9 0 40 -243 171 -385 208 -16 4 -69 19 -117 33 -86 24
-209 38 -278 30z"/>
<path d="M8900 2835 c0 -36 66 -76 184 -110 55 -16 100 -13 94 7 -2 6 -58 30
-123 53 -66 24 -128 46 -137 50 -10 4 -18 4 -18 0z"/>
<path d="M8831 2754 c31 -37 256 -131 286 -119 23 8 -1 31 -45 46 -20 6 -81
29 -135 50 -108 43 -126 47 -106 23z"/>
<path d="M7745 2734 c-144 -15 -130 -34 26 -34 196 0 400 -53 627 -161 68 -33
127 -59 132 -59 43 0 -78 81 -205 138 -156 70 -309 111 -432 116 -60 2 -126 2
-148 0z"/>
<path d="M8882 2628 c7 -20 134 -81 153 -74 27 10 3 31 -71 60 -71 29 -88 32
-82 14z"/>
<path d="M7550 2571 c0 -5 46 -14 103 -21 231 -26 398 -69 547 -141 170 -83
230 -108 230 -99 0 34 -312 194 -448 229 -120 32 -432 55 -432 32z"/>
<path d="M8850 2551 c0 -11 14 -28 33 -39 39 -25 87 -38 87 -24 0 12 -12 21
-72 56 -45 25 -48 26 -48 7z"/>
<path d="M7428 2442 c-20 -2 -41 -9 -47 -16 -9 -10 14 -14 117 -19 219 -10
424 -67 667 -187 190 -94 218 -105 213 -88 -12 36 -339 204 -471 242 -157 46
-381 77 -479 68z"/>
<path d="M8830 2422 c0 -15 24 -32 47 -32 30 0 29 14 -2 28 -30 14 -45 15 -45
4z"/>
<path d="M7264 2265 c-10 -8 -17 -15 -14 -15 3 0 59 -2 125 -4 148 -5 269 -27
403 -71 119 -40 321 -143 370 -189 27 -25 35 -28 42 -16 30 49 -118 147 -337
224 -210 73 -535 112 -589 71z"/>
<path d="M7220 2205 c0 -11 10 -13 48 -10 61 5 63 6 27 14 -17 4 -33 2 -37 -4
-5 -6 -8 -6 -8 3 0 6 -7 12 -15 12 -8 0 -15 -7 -15 -15z"/>
<path d="M7340 2191 c0 -12 67 -34 79 -27 5 4 12 2 15 -3 3 -5 27 -12 53 -16
26 -4 77 -18 113 -31 36 -14 88 -32 115 -40 28 -9 88 -29 134 -45 89 -31 116
-36 105 -18 -12 20 -127 67 -255 104 -68 20 -137 41 -154 46 -34 11 -174 39
-192 39 -7 0 -13 -4 -13 -9z"/>
<path d="M6946 2002 c-6 -10 41 -20 89 -20 44 0 158 -24 299 -62 82 -22 151
-39 153 -37 7 7 -132 71 -207 95 -57 19 -105 25 -201 29 -81 3 -129 2 -133 -5z"/>
<path d="M6760 1881 c0 -7 23 -11 64 -11 128 0 359 -38 518 -86 84 -25 173
-57 197 -70 51 -28 74 -31 69 -7 -4 24 -49 47 -175 93 -162 60 -287 82 -495
87 -128 4 -178 2 -178 -6z"/>
<path d="M6748 1783 c-16 -3 -28 -8 -28 -13 0 -11 10 -13 150 -35 58 -9 148
-27 200 -40 52 -13 122 -28 155 -35 33 -7 96 -21 141 -31 56 -14 88 -17 105
-10 23 8 22 10 -25 30 -161 71 -580 150 -698 134z"/>
<path d="M8270 1614 c0 -10 13 -14 42 -14 48 0 45 8 -6 20 -28 6 -36 5 -36 -6z"/>
<path d="M7934 1549 c-3 -6 2 -18 12 -27 17 -16 17 -16 5 0 -7 9 -10 22 -6 28
3 5 4 10 1 10 -3 0 -8 -5 -12 -11z"/>
<path d="M7720 1540 c0 -5 3 -15 6 -24 5 -13 8 -13 20 -1 19 18 18 22 -6 28
-11 3 -20 1 -20 -3z"/>
<path d="M8190 1541 c0 -9 34 -21 64 -21 15 0 16 3 6 15 -13 16 -70 21 -70 6z"/>
<path d="M7545 1463 c112 -97 198 -137 386 -182 150 -36 214 -27 243 34 22 45
16 52 -20 28 -23 -15 -47 -18 -129 -17 -115 2 -223 30 -365 93 -97 44 -130 56
-115 44z"/>
<path d="M4810 1876 c0 -2 9 -6 20 -9 11 -3 18 -1 14 4 -5 9 -34 13 -34 5z"/>
<path d="M4873 1866 c0 -18 46 -31 60 -17 15 15 -1 31 -32 31 -17 0 -28 -5
-28 -14z"/>
<path d="M7898 843 c7 -3 16 -2 19 1 4 3 -2 6 -13 5 -11 0 -14 -3 -6 -6z"/>
<path d="M8004 820 c38 -11 71 -19 73 -16 6 5 -56 23 -108 31 -18 3 -3 -4 35
-15z"/>
<path d="M8130 770 c8 -5 20 -10 25 -10 6 0 3 5 -5 10 -8 5 -19 10 -25 10 -5
0 -3 -5 5 -10z"/>
<path d="M9493 3576 c-32 -30 -55 -57 -52 -60 3 -3 20 -9 38 -12 28 -6 36 -2
72 36 26 27 39 49 37 63 -6 39 -36 31 -95 -27z"/>
<path d="M2733 3529 c-19 -19 -17 -70 2 -63 11 5 13 2 9 -10 -3 -9 -12 -16
-19 -16 -14 0 -10 -35 7 -56 15 -20 56 -4 61 24 6 32 -14 98 -28 94 -5 -2 -12
6 -15 18 -4 17 -7 19 -17 9z"/>
<path d="M9638 3506 c-10 -7 -19 -24 -20 -37 -3 -21 1 -24 27 -22 31 2 69 37
62 57 -5 16 -49 18 -69 2z"/>
<path d="M9395 3502 c-37 -5 -55 -19 -55 -43 0 -21 32 -41 53 -33 16 6 41 57
36 71 -2 4 -17 6 -34 5z"/>
<path d="M3340 3277 c-70 -33 -166 -133 -181 -187 -38 -140 26 -280 157 -344
103 -51 200 -34 272 49 26 29 32 44 32 83 0 26 -9 65 -19 87 -23 52 -96 119
-122 112 -10 -3 -19 -1 -19 4 0 5 6 9 14 9 28 0 66 59 66 101 0 51 -13 75 -50
94 -40 21 -97 18 -150 -8z m124 -59 c23 -33 20 -50 -18 -87 l-34 -33 -16 30
c-22 43 -20 78 6 96 30 22 44 20 62 -6z m-111 -98 c24 -34 21 -46 -14 -78 -24
-21 -36 -45 -48 -97 l-17 -69 -22 32 c-18 24 -24 50 -28 114 -5 72 -3 87 15
116 12 18 35 41 53 52 l33 20 6 -33 c3 -18 13 -44 22 -57z m116 -115 c36 -18
83 -97 79 -132 -4 -35 -46 -64 -100 -70 -59 -7 -154 37 -140 65 5 9 24 47 41
85 29 61 35 67 62 67 16 0 43 -7 58 -15z"/>
<path d="M2580 2355 c-112 -27 -131 -34 -207 -75 -185 -99 -324 -285 -372
-496 -25 -109 -26 -189 -5 -321 13 -82 26 -119 79 -229 58 -119 72 -140 145
-213 99 -99 236 -174 320 -175 31 -1 50 -5 50 -13 0 -43 288 -22 440 32 142
50 275 187 384 396 59 112 70 166 69 329 -2 189 -23 275 -98 399 -64 107 -223
253 -342 316 -113 58 -331 82 -463 50z m454 -81 c3 -8 2 -12 -4 -9 -6 3 -10
10 -10 16 0 14 7 11 14 -7z m-84 -4 c0 -12 -28 -25 -36 -17 -9 9 6 27 22 27 8
0 14 -5 14 -10z m-356 -28 c-93 -68 -182 -190 -240 -330 -3 -8 -164 51 -164
60 0 26 66 110 122 157 76 62 141 98 221 121 92 27 107 25 61 -8z m263 -18
c63 -43 160 -180 141 -199 -2 -2 -43 -7 -91 -11 l-87 -7 0 29 c0 44 -11 75
-24 67 -6 -3 -6 0 2 8 16 17 15 52 -3 95 -14 34 -13 54 3 54 4 0 30 -16 59
-36z m-457 11 c0 -8 -7 -15 -15 -15 -16 0 -20 12 -8 23 11 12 23 8 23 -8z
m341 -55 c3 -30 10 -81 14 -112 l8 -58 -74 -1 c-117 -2 -122 -4 -138 -79 -7
-36 -14 -66 -15 -67 -1 -1 -18 2 -37 7 -18 5 -46 12 -61 15 l-27 5 32 71 c23
54 49 89 104 145 85 86 150 136 172 132 11 -2 18 -20 22 -58z m406 -66 c115
-114 117 -117 93 -127 -14 -5 -30 -9 -36 -8 -7 1 -15 -10 -18 -23 -6 -23 -41
-45 -52 -33 -3 3 -24 47 -46 99 -22 51 -53 113 -70 137 -29 44 -31 71 -4 71 8
0 68 -52 133 -116z m23 65 c0 -6 -4 -7 -10 -4 -5 3 -10 11 -10 16 0 6 5 7 10
4 6 -3 10 -11 10 -16z m-893 -24 c8 -22 -6 -33 -17 -15 -13 20 -12 30 0 30 6
0 13 -7 17 -15z m-37 -49 c0 -2 -7 -6 -15 -10 -8 -3 -15 -1 -15 4 0 6 7 10 15
10 8 0 15 -2 15 -4z m1140 -136 c0 -5 -4 -10 -9 -10 -6 0 -13 5 -16 10 -3 6 1
10 9 10 9 0 16 -4 16 -10z m-46 -86 c28 -59 49 -142 60 -231 l7 -53 -54 0 -55
0 -5 58 c-3 31 -15 101 -27 155 -23 107 -19 127 25 127 18 0 29 -12 49 -56z
m-320 17 c22 -18 20 -66 -4 -115 -11 -23 -55 -76 -98 -119 l-78 -77 -79 90
c-86 97 -109 135 -119 192 l-7 37 58 4 c118 9 311 1 327 -12z m-744 -19 l65
-18 -5 -64 c-3 -36 -5 -97 -4 -137 l1 -71 -94 -4 c-70 -2 -96 -7 -103 -18 -7
-10 -10 -11 -10 -2 0 6 -7 12 -15 12 -45 0 -25 172 36 303 14 32 10 32 129 -1z
m955 -176 c8 -55 13 -101 10 -104 -2 -3 -51 -8 -107 -11 -107 -7 -128 -13
-128 -36 0 -19 68 -28 157 -20 l76 7 -7 -74 c-12 -130 -28 -200 -48 -220 -23
-23 -25 -21 28 -37 71 -23 71 -24 29 -79 -33 -44 -202 -192 -219 -192 -16 0
-2 51 30 110 41 75 67 160 65 210 -4 72 -71 173 -146 220 -58 36 -55 51 28
140 86 91 127 164 127 226 0 38 2 41 24 37 13 -3 27 1 32 8 10 17 29 -53 49
-185z m-710 125 c24 -5 33 -15 50 -58 14 -38 44 -77 108 -142 48 -49 87 -94
87 -101 0 -6 -32 -45 -70 -86 -88 -92 -110 -138 -99 -199 9 -51 31 -96 66
-141 21 -25 87 -174 80 -180 -1 -1 -18 1 -37 4 -25 3 -49 20 -87 58 -54 56
-153 207 -153 234 0 9 19 22 51 33 29 11 49 23 46 30 -3 11 -22 12 -101 4 -15
-2 -22 11 -36 73 -10 41 -21 96 -24 123 l-7 47 149 0 c123 0 151 3 155 15 4 8
1 17 -5 21 -6 4 -74 11 -152 17 -83 5 -144 14 -149 21 -4 6 -5 38 -2 71 3 33
6 84 7 113 l0 52 46 -1 c26 -1 60 -4 77 -8z m-208 -307 c17 -3 23 -13 28 -42
3 -20 12 -77 21 -125 9 -48 15 -89 13 -91 -2 -1 -38 -18 -79 -38 l-76 -35 -49
84 c-44 74 -51 82 -62 66 -7 -9 -13 -12 -13 -6 0 7 5 15 10 18 6 3 8 16 5 28
-3 12 -7 38 -9 57 -2 19 -7 50 -11 68 l-8 32 104 -6 c57 -3 114 -7 126 -10z
m1071 9 c23 -5 24 -9 17 -62 -5 -50 -20 -105 -47 -183 -13 -36 -51 -70 -70
-63 -26 10 -27 41 -7 138 12 57 17 108 13 135 l-6 42 38 0 c22 0 50 -3 62 -7z
m-479 -120 c22 -21 53 -50 69 -64 39 -33 48 -67 31 -121 l-14 -43 -65 -8 c-98
-13 -168 -1 -202 33 -29 29 -35 61 -19 102 15 37 118 138 141 138 12 0 38 -17
59 -37z m-765 -185 c3 -15 2 -29 -3 -32 -11 -7 -21 17 -21 52 0 31 15 19 24
-20z m306 -106 c25 -46 67 -110 93 -143 26 -32 43 -59 37 -59 -24 0 -143 61
-203 104 -62 44 -137 118 -137 134 0 9 129 51 150 48 8 0 35 -39 60 -84z m464
-32 c77 0 84 -9 53 -63 -36 -60 -91 -107 -126 -107 -25 0 -30 5 -39 42 -6 23
-9 45 -6 50 3 4 1 8 -5 8 -9 0 -41 50 -41 64 0 8 53 14 84 10 16 -2 52 -4 80
-4z m-608 -107 c-11 -11 -19 6 -11 24 8 17 8 17 12 0 3 -10 2 -21 -1 -24z
m702 -86 c2 -10 -3 -17 -12 -17 -10 0 -16 9 -16 21 0 24 23 21 28 -4z m-460
-10 c2 -10 -3 -17 -12 -17 -18 0 -29 16 -21 31 9 14 29 6 33 -14z"/>
<path d="M2909 1734 c-18 -20 -25 -31 -14 -24 18 11 61 60 52 60 -1 0 -19 -16
-38 -36z"/>
<path d="M1275 2213 c-54 -29 -90 -81 -99 -145 -10 -67 9 -121 57 -165 l41
-36 -28 -21 c-53 -40 -117 -111 -140 -156 -32 -61 -79 -204 -74 -227 2 -12 21
-22 64 -33 33 -9 94 -36 135 -61 91 -54 99 -76 42 -112 -64 -40 -103 -92 -103
-135 0 -48 29 -101 70 -129 68 -47 213 -19 269 53 41 52 18 131 -58 198 -27
24 -27 57 0 82 11 10 77 39 147 64 150 53 151 54 101 169 -56 130 -118 212
-206 272 l-42 30 38 38 c64 64 77 173 31 248 -42 69 -174 104 -245 66z m145
-102 c20 -14 26 -28 28 -67 8 -153 -155 -166 -175 -15 -5 36 -2 44 31 77 40
40 66 41 116 5z m-16 -345 c56 -23 104 -75 152 -162 39 -72 49 -84 72 -84 43
-1 -219 -79 -265 -80 -27 0 -71 13 -120 34 -88 39 -86 34 -51 145 22 69 66
127 113 147 39 17 58 17 99 0z m11 -620 c54 -36 15 -90 -64 -89 -71 1 -91 10
-91 41 0 14 10 37 23 50 18 20 29 23 64 19 24 -2 54 -12 68 -21z"/>
<path d="M9446 1889 c-22 -52 0 -70 30 -23 16 23 16 26 1 41 -15 15 -18 14
-31 -18z"/>
<path d="M9394 1833 c-15 -15 -15 -18 2 -30 23 -17 38 -12 42 14 4 27 -23 37
-44 16z"/>
<path d="M9310 1713 c-37 -62 -145 -209 -161 -218 -16 -10 -10 -35 9 -35 10 0
36 29 67 77 28 42 72 100 99 130 39 43 47 58 42 78 -4 14 -10 25 -14 25 -4 0
-23 -26 -42 -57z"/>
<path d="M9456 1735 c-23 -30 -25 -37 -14 -55 17 -27 21 -26 53 20 46 66 10
100 -39 35z"/>
<path d="M9380 1611 c0 -22 15 -35 30 -26 7 4 7 13 0 26 -14 25 -30 25 -30 0z"/>
<path d="M9322 1557 c-12 -13 -22 -28 -22 -34 0 -6 -7 -13 -15 -17 -8 -3 -20
-16 -25 -28 -5 -13 -17 -33 -25 -44 -15 -20 -14 -22 11 -28 32 -8 46 3 74 57
12 23 31 50 42 60 22 21 21 50 -3 55 -8 1 -25 -8 -37 -21z"/>
<path d="M4276 1462 c-12 -20 6 -42 34 -42 30 0 48 16 34 30 -15 14 -61 22
-68 12z"/>
<path d="M9396 1457 c-24 -17 -13 -37 20 -37 20 0 25 4 22 22 -4 27 -18 32
-42 15z"/>
<path d="M4365 1437 c-4 -10 -5 -21 -1 -24 10 -10 18 4 13 24 -4 17 -4 17 -12
0z"/>
<path d="M4463 1425 c-7 -19 13 -36 37 -32 8 1 15 11 15 22 0 26 -42 34 -52
10z"/>
<path d="M4613 1383 c-7 -3 -13 -14 -13 -24 0 -16 6 -20 27 -17 16 2 29 10 31
19 3 17 -23 29 -45 22z"/>
<path d="M9173 1358 c-11 -13 -35 -45 -52 -72 -23 -37 -28 -52 -18 -58 20 -13
22 -11 67 53 33 47 40 65 34 80 -9 20 -10 20 -31 -3z"/>
<path d="M4737 1353 c-15 -14 -7 -43 12 -43 18 0 35 33 23 44 -7 8 -27 7 -35
-1z"/>
<path d="M4847 1333 c-10 -9 -8 -41 2 -47 16 -10 41 5 41 24 0 10 -7 21 -16
24 -19 7 -19 7 -27 -1z"/>
<path d="M4960 1290 c0 -25 4 -30 24 -30 33 0 40 26 13 45 -31 21 -37 19 -37
-15z"/>
<path d="M9030 1165 c7 -8 17 -15 22 -15 6 0 5 7 -2 15 -7 8 -17 15 -22 15 -6
0 -5 -7 2 -15z"/>
<path d="M4103 1058 c-59 -42 -78 -110 -47 -170 59 -114 214 -94 214 27 0 31
-30 47 -78 43 -46 -4 -51 -30 -8 -38 39 -7 43 -25 12 -46 -36 -23 -83 -3 -102
43 -26 62 14 115 96 125 14 2 25 9 25 18 0 26 -74 25 -112 -2z"/>
<path d="M4372 1072 c-8 -6 -14 -40 -16 -97 -4 -92 5 -143 26 -157 17 -10 99
-10 117 1 20 13 4 31 -27 31 -51 0 -73 11 -70 33 2 15 13 23 34 28 17 3 36 9
43 13 22 14 -9 36 -50 36 -38 0 -39 1 -39 34 l0 34 60 7 c33 4 60 11 60 16 0
23 -108 39 -138 21z"/>
<path d="M4925 1073 c-35 -8 -45 -33 -45 -113 0 -93 14 -138 43 -144 56 -11
95 -14 107 -6 21 13 3 40 -27 40 -56 0 -74 11 -71 39 3 23 8 26 46 29 34 3 42
7 42 23 0 16 -7 19 -46 19 -45 0 -45 0 -42 33 3 31 4 32 56 35 48 3 53 5 50
25 -3 19 -10 22 -48 24 -25 0 -54 -1 -65 -4z"/>
<path d="M5156 1064 c-12 -12 -16 -37 -16 -109 0 -94 11 -145 30 -145 5 0 10
18 10 40 0 53 15 52 78 -5 48 -43 52 -45 61 -26 9 16 5 24 -24 50 -42 36 -43
50 -10 81 35 33 33 72 -6 104 -36 30 -98 35 -123 10z m78 -35 c36 -17 39 -35
9 -59 -37 -29 -67 -23 -71 13 -7 55 12 69 62 46z"/>
<path d="M4755 1003 c-3 -38 -7 -74 -8 -81 -1 -6 -27 21 -57 60 -78 103 -85
99 -85 -42 0 -101 2 -115 18 -118 14 -3 17 4 18 35 1 21 4 51 8 67 6 28 6 27
53 -38 74 -103 98 -89 98 55 0 105 -5 129 -25 129 -9 0 -15 -22 -20 -67z"/>
<path d="M5471 1038 c-69 -165 -83 -223 -53 -223 7 0 18 11 25 25 11 21 20 25
57 25 37 0 46 -4 57 -25 14 -28 36 -33 41 -10 1 9 -15 63 -37 120 -31 83 -43
106 -60 108 -14 2 -24 -4 -30 -20z m39 -77 c15 -29 12 -41 -8 -41 -26 0 -30 6
-24 35 5 30 18 32 32 6z"/>
<path d="M5680 988 c1 -82 13 -155 28 -170 13 -13 94 -22 127 -14 20 5 26 12
23 29 -3 20 -10 22 -65 25 -73 3 -71 1 -75 122 -3 62 -6 75 -20 78 -16 3 -18
-5 -18 -70z"/>
<path d="M8770 836 c0 -9 7 -16 16 -16 9 0 14 5 12 12 -6 18 -28 21 -28 4z"/>
</g>
</svg>
