<svg xmlns="http://www.w3.org/2000/svg" viewBox="0 0 750 500"><g id="freepik--background-simple--inject-2"><path d="M692.76,346.24c17.27-32,19.82-68.47,15.77-103.72-3.59-31.26-9-67.11-24.17-95.33C646,75.71,548.89,42.17,470.07,63.66c-32.88,9-55.94,29.75-82.33,49.52-19.52,14.62-40.93,28.9-66.15,31.82-60.39,7-129.12-50-186.39-45s-102,56-104.13,100,41.65,89,37.49,119-31.24,110,76,113,163.48-57,205.14-44S483,439,560,429c50.27-6.52,99.42-31.21,127-73.14Q690.13,351.12,692.76,346.24Z" style="fill:#407BFF"></path><path d="M692.76,346.24c17.27-32,19.82-68.47,15.77-103.72-3.59-31.26-9-67.11-24.17-95.33C646,75.71,548.89,42.17,470.07,63.66c-32.88,9-55.94,29.75-82.33,49.52-19.52,14.62-40.93,28.9-66.15,31.82-60.39,7-129.12-50-186.39-45s-102,56-104.13,100,41.65,89,37.49,119-31.24,110,76,113,163.48-57,205.14-44S483,439,560,429c50.27-6.52,99.42-31.21,127-73.14Q690.13,351.12,692.76,346.24Z" style="fill:#fff;opacity:0.8"></path></g><g id="freepik--Clouds--inject-2"><path d="M606.36,104.54a9.54,9.54,0,0,1-.07-1.1c-.1-8.36-3.2-14.14-10.77-18.53-14.18-8.24-22.42,0-26.54,7.32S558.46,87.65,548.4,89s-9.61,12.36-12.35,18.3-8.7-1.83-16.47-.45-8.24,5.94-9.61,7.77-13.73-2.74-20.59.92a28.58,28.58,0,0,0-10.52,10.52h150s1.83-11-4.11-15.1C619.47,107.29,607.38,113.2,606.36,104.54Z" style="fill:none;stroke:#263238;stroke-linecap:round;stroke-linejoin:round"></path><path d="M536.71,118.23a3.38,3.38,0,0,0-1.39.7c-1.94,1.69-1.94,2.9-1.94,2.9" style="fill:none;stroke:#263238;stroke-linecap:round;stroke-linejoin:round"></path><path d="M569.85,104c-1.33,2.92-2.51,6.12-5.27,7.41-3.93,1.84-7.61-2.31-11.23-3.25a5.25,5.25,0,0,0-5.76,1.76c-1.63,1.87-1.66,6.1-3.81,7.3a9.75,9.75,0,0,1-4.13.65" style="fill:none;stroke:#263238;stroke-linecap:round;stroke-linejoin:round"></path><path d="M614.51,117.53c-.1-.27-.22-.53-.34-.78-2.89-5.76-9.71-1.13-13.9-2.74-3.73-1.44-2.51-7.33-3-10.41-1-5.95-8.45-10.5-14.3-9.58a18.19,18.19,0,0,0-11.05,6.42" style="fill:none;stroke:#263238;stroke-linecap:round;stroke-linejoin:round"></path><path d="M615.7,122.82a27.93,27.93,0,0,0-.5-3" style="fill:none;stroke:#263238;stroke-linecap:round;stroke-linejoin:round"></path><path d="M273.83,48.37c0-.24,0-.49-.05-.77-.07-5.83-2.23-9.86-7.51-12.93-9.9-5.75-15.65,0-18.52,5.11s-7.34-3.19-14.37-2.24-6.7,8.62-8.62,12.77S218.7,49,213.27,50s-5.75,4.16-6.71,5.43-9.57-1.91-14.36.64a20,20,0,0,0-7.35,7.34H289.57s1.28-7.66-2.87-10.53C283,50.29,274.55,54.41,273.83,48.37Z" style="fill:none;stroke:#263238;stroke-linecap:round;stroke-linejoin:round"></path><path d="M225.23,57.92a2.47,2.47,0,0,0-1,.49c-1.36,1.19-1.36,2-1.36,2" style="fill:none;stroke:#263238;stroke-linecap:round;stroke-linejoin:round"></path><path d="M248.35,48c-.93,2-1.75,4.27-3.67,5.17-2.75,1.28-5.31-1.61-7.84-2.27a3.65,3.65,0,0,0-4,1.23c-1.14,1.3-1.16,4.26-2.66,5.09a6.81,6.81,0,0,1-2.88.46" style="fill:none;stroke:#263238;stroke-linecap:round;stroke-linejoin:round"></path><path d="M279.52,57.44a4.41,4.41,0,0,0-.24-.54c-2-4-6.77-.8-9.7-1.92-2.6-1-1.75-5.11-2.1-7.26-.67-4.16-5.89-7.33-10-6.69a12.72,12.72,0,0,0-7.72,4.48" style="fill:none;stroke:#263238;stroke-linecap:round;stroke-linejoin:round"></path><path d="M280.35,61.13A18.82,18.82,0,0,0,280,59" style="fill:none;stroke:#263238;stroke-linecap:round;stroke-linejoin:round"></path><path d="M228.47,130.07c0-.38-.07-.79-.08-1.22-.11-9.35-3.58-15.82-12-20.73-15.87-9.22-25.08,0-29.68,8.18s-11.77-5.11-23-3.58-10.75,13.82-13.82,20.47-9.72-2.05-18.42-.51-9.21,6.65-10.75,8.7-15.35-3.07-23,1-11.77,11.77-11.77,11.77H253.7s2.05-12.28-4.6-16.88C243.14,133.15,229.62,139.76,228.47,130.07Z" style="fill:none;stroke:#263238;stroke-linecap:round;stroke-linejoin:round"></path><path d="M150.56,145.39a3.85,3.85,0,0,0-1.55.78c-2.17,1.9-2.17,3.25-2.17,3.25" style="fill:none;stroke:#263238;stroke-linecap:round;stroke-linejoin:round"></path><path d="M187.63,129.49c-1.49,3.27-2.8,6.86-5.89,8.3-4.39,2.05-8.51-2.59-12.56-3.64a5.86,5.86,0,0,0-6.44,2c-1.83,2.09-1.86,6.82-4.26,8.16-1.17.65-2.9.67-4.62.73" style="fill:none;stroke:#263238;stroke-linecap:round;stroke-linejoin:round"></path><path d="M237.59,144.61q-.18-.45-.39-.87c-3.22-6.45-10.85-1.27-15.54-3.08-4.17-1.6-2.8-8.19-3.36-11.63-1.09-6.66-9.45-11.75-16-10.72a20.36,20.36,0,0,0-12.36,7.19" style="fill:none;stroke:#263238;stroke-linecap:round;stroke-linejoin:round"></path><path d="M238.92,150.52a28.69,28.69,0,0,0-.56-3.41" style="fill:none;stroke:#263238;stroke-linecap:round;stroke-linejoin:round"></path></g><g id="freepik--Trees--inject-2"><path d="M294.47,172.92s40.3,4,60.73,29c0,0,21.59-28.95,60.36-28.35A78.35,78.35,0,1,0,294.45,173Z" style="fill:#407BFF"></path><path d="M294.47,172.92s40.3,4,60.73,29c0,0,21.59-28.95,60.36-28.35A78.35,78.35,0,1,0,294.45,173Z" style="fill:#407BFF;opacity:0.5"></path><polygon points="353.87 50.72 352.51 459.67 359.31 459.67 353.87 50.72" style="fill:#828282"></polygon><path d="M355.91,194.28s13.61-24.5,38.1-32c0,0-25.85,6.12-38.78,27.21Z" style="fill:#828282"></path><path d="M354.43,125.54S369.52,100.38,394,92.9c0,0-26.65,7.67-39.58,28.76Z" style="fill:#828282"></path><path d="M355,161.32S369.52,135.08,394,127.6c0,0-26.48,7.34-39.41,28.43Z" style="fill:#828282"></path><path d="M353.89,142.57s-13.13-24.5-36.76-32c0,0,24.95,6.12,37.42,27.22Z" style="fill:#828282"></path><path d="M353.89,176.59s-13.13-24.5-36.76-32c0,0,24.95,6.12,37.42,27.21Z" style="fill:#828282"></path><path d="M94.94,269.18s26.78,2.64,40.35,19.24c0,0,14.34-19.23,40.1-18.83a52.06,52.06,0,1,0-80.45-.37Z" style="fill:#407BFF"></path><path d="M94.94,269.18s26.78,2.64,40.35,19.24c0,0,14.34-19.23,40.1-18.83a52.06,52.06,0,1,0-80.45-.37Z" style="fill:#407BFF"></path><path d="M94.94,269.18s26.78,2.64,40.35,19.24c0,0,14.34-19.23,40.1-18.83a52.06,52.06,0,1,0-80.45-.37Z" style="fill:#fff;opacity:0.5"></path><polygon points="134.41 188 133.5 459.67 138.02 459.67 134.41 188" style="fill:#828282"></polygon><path d="M135.76,283.36s9-16.27,25.31-21.24c0,0-17.17,4.07-25.76,18.08Z" style="fill:#828282"></path><path d="M134.78,237.7S144.8,221,161.07,216c0,0-17.7,5.1-26.29,19.11Z" style="fill:#828282"></path><path d="M135.13,261.47s9.67-17.43,25.94-22.4c0,0-17.59,4.88-26.18,18.89Z" style="fill:#828282"></path><path d="M134.42,249S125.7,232.74,110,227.77c0,0,16.57,4.07,24.86,18.08Z" style="fill:#828282"></path><path d="M134.42,271.61S125.7,255.34,110,250.37c0,0,16.57,4.07,24.86,18.08Z" style="fill:#828282"></path><path d="M387.87,269.18s26.78,2.64,40.35,19.24c0,0,14.34-19.23,40.09-18.83a52,52,0,1,0-80.45-.37Z" style="fill:#407BFF"></path><path d="M387.87,269.18s26.78,2.64,40.35,19.24c0,0,14.34-19.23,40.09-18.83a52,52,0,1,0-80.45-.37Z" style="fill:#fff;opacity:0.30000000000000004"></path><polygon points="427.33 188 426.43 459.67 430.95 459.67 427.33 188" style="fill:#828282"></polygon><path d="M428.69,283.36s9-16.27,25.31-21.24c0,0-17.17,4.07-25.76,18.08Z" style="fill:#828282"></path><path d="M427.7,237.7S437.73,221,454,216c0,0-17.71,5.1-26.3,19.11Z" style="fill:#828282"></path><path d="M428.06,261.47S437.73,244,454,239.07c0,0-17.59,4.88-26.18,18.89Z" style="fill:#828282"></path><path d="M427.35,249s-8.72-16.27-24.42-21.24c0,0,16.57,4.07,24.86,18.08Z" style="fill:#828282"></path><path d="M427.35,271.61s-8.72-16.27-24.42-21.24c0,0,16.57,4.07,24.86,18.08Z" style="fill:#828282"></path><path d="M549.92,240.58s30.8,3,46.41,22.14c0,0,16.49-22.12,46.11-21.66a59.86,59.86,0,1,0-92.53-.43Z" style="fill:#407BFF"></path><path d="M549.92,240.58s30.8,3,46.41,22.14c0,0,16.49-22.12,46.11-21.66a59.86,59.86,0,1,0-92.53-.43Z" style="fill:#fff;opacity:0.30000000000000004"></path><polygon points="595.31 147.22 594.27 459.67 599.47 459.67 595.31 147.22" style="fill:#828282"></polygon><path d="M596.87,256.9s10.39-18.71,29.11-24.43c0,0-19.76,4.68-29.63,20.79Z" style="fill:#828282"></path><path d="M595.73,204.39s11.53-19.22,30.25-24.94c0,0-20.37,5.86-30.25,22Z" style="fill:#828282"></path><path d="M596.14,231.72s11.12-20,29.84-25.76c0,0-20.24,5.61-30.11,21.72Z" style="fill:#828282"></path><path d="M595.32,217.4s-10-18.72-28.08-24.44c0,0,19.06,4.68,28.59,20.8Z" style="fill:#828282"></path><path d="M595.32,243.39s-10-18.72-28.08-24.43c0,0,19.06,4.67,28.59,20.79Z" style="fill:#828282"></path></g><g id="freepik--Plants--inject-2"><path d="M72.71,423.17c2.1-.3,6.09-2.9,6.09-2.9s-2.51-2.11-2.68-2.22c-2-1.31-6.75-2.63-8.84-.91a3.21,3.21,0,0,0-.07,4.77C68.57,423.26,70.92,423.43,72.71,423.17Z" style="fill:#263238"></path><path d="M111.58,403.39s-.93-3.15-1-3.34c-1-2.21-4.18-5.91-6.87-5.63a3.21,3.21,0,0,0-2.69,3.94c.39,1.88,2.26,3.31,3.89,4.09C106.82,403.35,111.58,403.39,111.58,403.39Z" style="fill:#263238"></path><path d="M116.66,456.43c.93,1.15,1.77,2.24,2.53,3.24h1.91c-1-1.24-2.08-2.63-3.35-4.14-.73-.87-1.54-1.8-2.37-2.74a29.14,29.14,0,0,0,2.11-2.91,20.31,20.31,0,0,0,5.64.39c.13,1.12.25,2.22.34,3.25.22,2.33.35,4.4.44,6.15h1.55c-.13-1.78-.31-3.91-.59-6.3-.12-1.14-.28-2.35-.46-3.6.44-.13,4-1.24,5.32-2.4s2.41-2.73,2.28-4.41a2.82,2.82,0,0,0-3.24-2.66c-2.34.42-4.13,4.33-4.41,6.44,0,.12,0,1.49,0,2.36-.07-.51-.14-1-.22-1.53-.16-1-.35-2.06-.55-3.17-.11-.53-.23-1.06-.34-1.61s-.29-1.09-.43-1.65c-.35-1.27-.77-2.55-1.22-3.83.91-.14,4.12-.68,5.46-1.55s2.79-2.33,2.92-4a2.83,2.83,0,0,0-2.8-3.13c-2.38.07-4.74,3.66-5.34,5.7,0,.13-.3,1.64-.43,2.47-.27-.76-.55-1.53-.85-2.29-.88-2.22-1.84-4.43-2.79-6.63l-.86-2c.32,0,4.15-.61,5.65-1.58,1.34-.86,2.8-2.32,2.93-4a2.83,2.83,0,0,0-2.8-3.13c-2.38.07-4.74,3.66-5.34,5.7,0,.15-.42,2.33-.49,2.89-.63-1.49-1.24-3-1.78-4.48a50.74,50.74,0,0,1-1.83-6.17c.15,0,4.15-.59,5.69-1.59,1.34-.86,2.8-2.33,2.92-4a2.83,2.83,0,0,0-2.8-3.13c-2.38.07-4.73,3.66-5.33,5.7,0,.13-.33,1.79-.45,2.58h-.14a35.72,35.72,0,0,1-.68-6.44c0-1.19,0-2.33,0-3.44.75,0,4.2-.2,5.69-.94s3-2,3.34-3.66a2.83,2.83,0,0,0-2.44-3.42c-2.37-.19-5.11,3.12-5.93,5.08,0,.11-.37,1.24-.6,2.07,0-.5,0-1,.1-1.49.15-1.8.39-3.43.63-4.88.13-.82.27-1.56.41-2.25.73-.41,3.63-2.13,4.59-3.44s1.77-3.18,1.28-4.79a2.81,2.81,0,0,0-3.73-1.91c-2.2.92-3.1,5.12-2.93,7.24,0,.18.59,3,.63,3l0,0q-.23,1-.45,2.16c-.26,1.44-.54,3.07-.73,4.87a48.3,48.3,0,0,0-.34,5.83,36.1,36.1,0,0,0,.55,6.52.19.19,0,0,0,0,.07c-.33-.62-1.29-2.31-1.38-2.43-1.26-1.72-4.69-4.3-7-3.55a2.83,2.83,0,0,0-1.57,3.89c.69,1.53,2.56,2.42,4.11,2.78,1.75.4,5.55-.38,5.86-.44a48.76,48.76,0,0,0,1.74,6.43c.41,1.22.87,2.44,1.34,3.66l-.61-1.05c-1.26-1.72-4.69-4.29-7-3.55a2.83,2.83,0,0,0-1.58,3.89c.69,1.54,2.56,2.42,4.11,2.78s4.83-.23,5.69-.4c.19.46.37.93.56,1.4.9,2.23,1.81,4.45,2.63,6.66.29.78.55,1.56.81,2.33-.26-.46-.49-.85-.53-.91-1.26-1.72-4.69-4.29-7-3.55a2.83,2.83,0,0,0-1.58,3.89c.69,1.54,2.56,2.42,4.11,2.78s4.51-.18,5.54-.37c.24.8.49,1.6.69,2.39.12.55.28,1.06.37,1.61s.21,1.08.31,1.62c.16,1,.33,2.1.47,3.11.09.7.17,1.37.25,2.05-.28-.78-.86-2.29-.92-2.41a11,11,0,0,0-3.85-4,3.58,3.58,0,0,0-.34-.52,2.81,2.81,0,0,0-4.17-.44c-1.72,1.65-1.06,5.89-.13,7.8.06.12.79,1.28,1.26,2-.34-.38-.67-.76-1-1.15-.7-.78-1.42-1.53-2.2-2.34l-1.17-1.15c-.39-.4-.84-.76-1.27-1.15-1-.87-2-1.7-3.13-2.52.68-.62,3-2.84,3.69-4.3s1-3.48.23-4.95a2.81,2.81,0,0,0-4.06-1.06c-2,1.36-1.93,5.66-1.3,7.69,0,.13.65,1.53,1,2.3-.65-.49-1.3-1-2-1.44-2-1.36-4-2.68-6-4-.62-.4-1.23-.81-1.84-1.22.24-.21,3.13-2.79,3.84-4.43.64-1.46,1-3.49.23-4.95a2.82,2.82,0,0,0-4.06-1.07c-2,1.37-1.93,5.67-1.31,7.7,0,.15.94,2.18,1.19,2.68-1.35-.9-2.68-1.81-4-2.76A47.6,47.6,0,0,1,86.89,430c.11-.1,3.13-2.78,3.86-4.45.64-1.46,1-3.49.23-5a2.83,2.83,0,0,0-4.06-1.06c-2,1.37-1.93,5.66-1.31,7.69,0,.14.72,1.68,1.06,2.41l-.11.08a36.16,36.16,0,0,1-4.13-5c-.69-1-1.29-1.95-1.85-2.9.61-.44,3.39-2.49,4.22-3.93s1.43-3.35.77-4.89a2.82,2.82,0,0,0-3.92-1.51c-2.08,1.15-2.54,5.42-2.14,7.51,0,.11.37,1.24.64,2.06-.25-.43-.52-.88-.74-1.3-.87-1.58-1.56-3.08-2.17-4.41-.34-.76-.63-1.46-.89-2.11.37-.75,1.85-3.78,1.92-5.41s-.27-3.62-1.57-4.7a2.82,2.82,0,0,0-4.17.48c-1.32,2,.24,6,1.56,7.64.11.15,2.15,2.2,2.17,2.16l0,0c.25.63.51,1.31.82,2,.58,1.35,1.24,2.87,2.07,4.47A49.51,49.51,0,0,0,82.11,425a37,37,0,0,0,4,5.13l.06.05c-.61-.33-2.36-1.21-2.5-1.26-2-.74-6.28-1-7.75.87a2.82,2.82,0,0,0,.83,4.11c1.42.9,3.47.61,5,0,1.68-.63,4.43-3.37,4.64-3.59a50.71,50.71,0,0,0,5,4.4q1.55,1.19,3.15,2.31c-.54-.27-1-.51-1.1-.53-2-.74-6.28-1-7.75.87a2.82,2.82,0,0,0,.83,4.11c1.42.9,3.47.61,5,0s3.9-2.86,4.53-3.47l1.23.86c2,1.36,4,2.72,5.87,4.1.68.49,1.32,1,2,1.5l-1-.46c-2-.74-6.28-1-7.76.87a2.82,2.82,0,0,0,.84,4.11c1.42.9,3.47.61,5,.05s3.67-2.63,4.42-3.36c.64.53,1.29,1.07,1.89,1.62.4.38.82.72,1.2,1.13l1.15,1.18c.71.77,1.44,1.57,2.11,2.34l1.34,1.57c-.66-.5-2-1.44-2.1-1.5-1.86-1-6.06-1.94-7.8-.31a2.82,2.82,0,0,0,.21,4.19c1.26,1.11,3.33,1.12,4.89.8s4.73-2.55,5.11-2.83C115.31,454.77,116,455.62,116.66,456.43Z" style="fill:#263238"></path><path d="M685.13,424.5c-2.1-.3-6.08-2.9-6.09-2.9s2.51-2.11,2.69-2.22c2-1.31,6.74-2.63,8.83-.91a3.2,3.2,0,0,1,.07,4.77C689.27,424.59,686.92,424.76,685.13,424.5Z" style="fill:#263238"></path><path d="M647.2,404.72c-.05,0,.93-3.15,1-3.34,1-2.21,4.18-5.91,6.87-5.63a3.21,3.21,0,0,1,2.69,3.94c-.39,1.88-2.26,3.32-3.89,4.09C652,404.68,647.2,404.72,647.2,404.72Z" style="fill:#263238"></path><path d="M642.82,456.36c-.93,1.15-1.77,2.24-2.52,3.23h-1.91c1-1.23,2.08-2.62,3.34-4.13.74-.88,1.54-1.8,2.37-2.74a32.45,32.45,0,0,1-2.11-2.91,21.12,21.12,0,0,1-5.64.39c-.13,1.12-.25,2.21-.34,3.25-.22,2.33-.35,4.4-.44,6.14H634c.13-1.78.31-3.9.59-6.29.13-1.14.28-2.35.46-3.6-.44-.13-4-1.25-5.32-2.41s-2.41-2.72-2.28-4.4a2.81,2.81,0,0,1,3.24-2.66c2.34.42,4.13,4.33,4.41,6.44,0,.12,0,1.49,0,2.35.08-.5.14-1,.23-1.52.15-1,.34-2.06.54-3.17.11-.53.23-1.07.34-1.61s.29-1.09.43-1.65c.35-1.28.77-2.55,1.22-3.83-.91-.14-4.11-.68-5.46-1.55s-2.79-2.33-2.92-4a2.82,2.82,0,0,1,2.8-3.12c2.38.06,4.74,3.66,5.34,5.7,0,.12.3,1.64.43,2.47.28-.77.55-1.53.85-2.3.88-2.21,1.84-4.42,2.79-6.63.29-.67.57-1.35.86-2-.32,0-4.15-.61-5.65-1.58-1.34-.86-2.8-2.33-2.92-4a2.82,2.82,0,0,1,2.79-3.13c2.39.07,4.74,3.66,5.34,5.7.05.15.42,2.33.49,2.89.63-1.49,1.24-3,1.78-4.48a50.88,50.88,0,0,0,1.83-6.18c-.15,0-4.15-.59-5.69-1.58-1.33-.86-2.79-2.33-2.92-4a2.82,2.82,0,0,1,2.8-3.13c2.38.06,4.74,3.66,5.33,5.7,0,.13.33,1.79.45,2.58h.14a36.47,36.47,0,0,0,.69-6.43c0-1.19,0-2.33-.06-3.44-.75,0-4.2-.2-5.69-.94s-3-2-3.34-3.66a2.83,2.83,0,0,1,2.44-3.42c2.37-.2,5.11,3.11,5.93,5.08,0,.1.37,1.24.61,2.07,0-.5-.06-1-.1-1.49-.15-1.8-.4-3.43-.63-4.88-.14-.82-.28-1.56-.42-2.25-.73-.42-3.63-2.13-4.59-3.45s-1.77-3.18-1.28-4.78a2.82,2.82,0,0,1,3.74-1.91c2.19.92,3.1,5.12,2.92,7.24,0,.18-.59,3-.62,3l0,0c.15.66.3,1.37.45,2.15.26,1.45.55,3.08.74,4.88a50.39,50.39,0,0,1,.33,5.83,36.07,36.07,0,0,1-.55,6.51.24.24,0,0,1,0,.08c.33-.62,1.3-2.31,1.39-2.43,1.25-1.72,4.69-4.3,7-3.55a2.82,2.82,0,0,1,1.57,3.89c-.69,1.53-2.56,2.42-4.11,2.77-1.74.41-5.55-.37-5.85-.43a49.84,49.84,0,0,1-1.75,6.42c-.41,1.23-.87,2.45-1.34,3.67l.61-1.05c1.26-1.72,4.69-4.3,7-3.55a2.83,2.83,0,0,1,1.57,3.89c-.69,1.54-2.56,2.42-4.11,2.78s-4.83-.24-5.69-.4c-.19.46-.37.93-.56,1.39-.9,2.24-1.81,4.46-2.63,6.67-.29.78-.55,1.55-.81,2.33.26-.47.49-.86.53-.91,1.26-1.72,4.69-4.3,7-3.55a2.83,2.83,0,0,1,1.57,3.89c-.69,1.54-2.56,2.42-4.11,2.78s-4.51-.18-5.54-.38c-.24.81-.48,1.61-.68,2.4-.13.54-.28,1.06-.38,1.61s-.21,1.08-.31,1.61c-.16,1-.33,2.1-.46,3.12-.1.7-.18,1.37-.26,2.05.28-.78.86-2.29.92-2.41a11,11,0,0,1,3.86-4,2.93,2.93,0,0,1,.33-.53,2.81,2.81,0,0,1,4.17-.43c1.72,1.64,1.06,5.89.13,7.8-.06.11-.79,1.27-1.26,2,.34-.39.67-.76,1-1.15.7-.78,1.42-1.53,2.2-2.35l1.18-1.15c.38-.39.84-.75,1.26-1.14,1-.87,2-1.7,3.13-2.52-.68-.62-3.05-2.84-3.69-4.3s-1-3.49-.23-5a2.82,2.82,0,0,1,4.06-1.07c2,1.37,1.93,5.66,1.31,7.7,0,.12-.66,1.53-1,2.3.65-.49,1.3-1,2-1.45,2-1.35,4-2.67,6-4l1.83-1.22c-.24-.22-3.12-2.8-3.84-4.43-.64-1.46-1-3.49-.23-5a2.83,2.83,0,0,1,4.06-1.06c1.95,1.37,1.93,5.66,1.31,7.7,0,.15-.94,2.17-1.19,2.68,1.35-.9,2.68-1.81,4-2.76A50.16,50.16,0,0,0,672.6,430c-.12-.1-3.14-2.78-3.87-4.46-.64-1.45-1.05-3.48-.23-4.95a2.81,2.81,0,0,1,4.06-1.06c2,1.36,1.93,5.66,1.31,7.69,0,.14-.72,1.68-1.06,2.41l.12.07a36.8,36.8,0,0,0,4.12-5c.69-1,1.29-1.94,1.85-2.89-.61-.44-3.39-2.49-4.22-3.93s-1.42-3.35-.77-4.9a2.83,2.83,0,0,1,3.92-1.5c2.09,1.15,2.54,5.42,2.14,7.51,0,.11-.37,1.24-.63,2.06.24-.44.51-.88.74-1.3.86-1.58,1.56-3.08,2.16-4.41.34-.77.63-1.46.89-2.11-.37-.75-1.85-3.78-1.92-5.41s.28-3.63,1.57-4.7a2.82,2.82,0,0,1,4.17.47c1.33,2-.24,6-1.56,7.65-.11.15-2.15,2.2-2.17,2.16l0-.05c-.24.64-.51,1.31-.82,2.05-.57,1.35-1.24,2.87-2.07,4.47a49.51,49.51,0,0,1-2.94,5.05,37,37,0,0,1-4,5.13l-.06.05c.61-.33,2.36-1.21,2.5-1.27,2-.74,6.28-1,7.75.88a2.82,2.82,0,0,1-.83,4.11c-1.42.9-3.47.61-5,.05-1.68-.63-4.43-3.37-4.64-3.59a50.63,50.63,0,0,1-5,4.39c-1,.8-2.08,1.57-3.15,2.32l1.1-.54c2-.74,6.28-1,7.75.88a2.82,2.82,0,0,1-.83,4.11c-1.42.9-3.47.61-5,.05s-3.9-2.86-4.52-3.47c-.42.28-.82.57-1.24.86-2,1.36-4,2.71-5.87,4.1-.67.49-1.32,1-2,1.5l.94-.47c2-.74,6.29-1,7.76.88a2.82,2.82,0,0,1-.84,4.11c-1.42.9-3.47.61-5,.05s-3.67-2.64-4.41-3.36c-.65.53-1.3,1.07-1.9,1.62-.4.38-.82.72-1.2,1.13l-1.15,1.17c-.7.78-1.44,1.57-2.1,2.35-.47.53-.91,1.05-1.35,1.57.66-.5,2-1.44,2.1-1.5,1.86-1,6.06-1.94,7.8-.31a2.82,2.82,0,0,1-.2,4.19c-1.27,1.1-3.34,1.12-4.9.8-1.71-.36-4.73-2.55-5.1-2.83C644.17,454.7,643.47,455.55,642.82,456.36Z" style="fill:#263238"></path></g><g id="freepik--character-2--inject-2"><path d="M479,340.74l9,8.66a81,81,0,0,0-10,13.34c-4,7-21.67,35-23,38.66s2,4.34,4.67,5.34,15,6.66,19.66,6.66,6.34.67,6.34-2-9.34-7.66-10.34-9.33-5-9.33-5-9.33,32.34-33,34.67-36.67,6-13.67,5-16-19-12.33-19-12.33Z" style="fill:#d4d4d4;stroke:#263238;stroke-linecap:round;stroke-linejoin:round"></path><path d="M467.67,397.74l-8.79-3.43A72.5,72.5,0,0,0,455,401.4c-1.33,3.67,2,4.34,4.67,5.34s15,6.66,19.66,6.66,6.34.67,6.34-2-9.34-7.66-10.34-9.33-5-9.33-5-9.33l-2,2.66Z" style="fill:#407BFF;stroke:#263238;stroke-linecap:round;stroke-linejoin:round"></path><path d="M485.29,412.89c-4.41-.74-11-3.39-16.62-5.82-4.44-1.9-9.94-4.6-13.38-6.33-.12.26-.23.5-.29.66-1.33,3.67,2,4.34,4.67,5.34s15,6.66,19.66,6.66C482.77,413.4,484.57,413.76,485.29,412.89Z" style="fill:#fff;stroke:#263238;stroke-linecap:round;stroke-linejoin:round"></path><path d="M436,314.4s14.33,11,24.33,19,18,14.34,18,14.34,12-9,14-12,7.67-6.67,7.67-6.67l-51-22.33S437.67,304.4,436,314.4Z" style="fill:#d4d4d4;stroke:#263238;stroke-linecap:round;stroke-linejoin:round"></path><circle cx="407" cy="411" r="48.67" style="fill:#263238;stroke:#263238;stroke-linecap:round;stroke-linejoin:round"></circle><circle cx="407" cy="411" r="43.33" style="fill:#fff;stroke:#263238;stroke-linecap:round;stroke-linejoin:round"></circle><circle cx="407" cy="411" r="41.33" style="fill:#fff;stroke:#263238;stroke-linecap:round;stroke-linejoin:round"></circle><circle cx="583.67" cy="411" r="48.67" style="fill:#263238;stroke:#263238;stroke-linecap:round;stroke-linejoin:round"></circle><circle cx="583.67" cy="411" r="43.33" style="fill:#fff;stroke:#263238;stroke-linecap:round;stroke-linejoin:round"></circle><circle cx="583.67" cy="411" r="41.33" style="fill:#fff;stroke:#263238;stroke-linecap:round;stroke-linejoin:round"></circle><circle cx="584.22" cy="411" r="6" style="fill:none;stroke:#263238;stroke-linecap:round;stroke-linejoin:round"></circle><line x1="441.9" y1="322.11" x2="475.33" y2="415.67" style="fill:none;stroke:#263238;stroke-linecap:round;stroke-miterlimit:10;stroke-width:4px"></line><path d="M585.26,413.15c-11.67-12.31-41.39-93.32-46.44-107.22a2.86,2.86,0,0,1,1-3.3l11.38-8.31" style="fill:none;stroke:#263238;stroke-linecap:round;stroke-miterlimit:10;stroke-width:4px"></path><path d="M408.26,408.89s22.7-70.58,136.92-82.64" style="fill:none;stroke:#263238;stroke-linecap:round;stroke-miterlimit:10;stroke-width:4px"></path><path d="M492,413.86s18.45-4.26,30.86-24.47,22.35-38.67,30.86-43.28" style="fill:none;stroke:#263238;stroke-linecap:round;stroke-miterlimit:10;stroke-width:4px"></path><path d="M425.14,310.82s-.34,8.89,2.05,11.63,17.78,3.08,25,2.05,10.26-3.76,9.57-5.81-12-9.24-19.83-9.92S425.48,307.74,425.14,310.82Z" style="fill:#fff;stroke:#263238;stroke-linecap:round;stroke-linejoin:round"></path><path d="M540.57,280.84s26.6,3.55,31.92,23.06-12.42,28.73-23.41,28.73" style="fill:none;stroke:#263238;stroke-linecap:round;stroke-linejoin:round"></path><path d="M559.37,274.46s23.76,21.28,18.8,36.53-34.06,11.71-34.77,10.65" style="fill:none;stroke:#263238;stroke-linecap:round;stroke-linejoin:round"></path><path d="M488.31,301.77c3.46-1.67,12.19,2.41,15.64,3.5a127.21,127.21,0,0,1,17.72,7c2.09,1,9.66,3.18,9.66,6.18,0,2.67-20,71.34-20,71.34a122.66,122.66,0,0,0,12,5c4.34,1.33,11.34,2,12,3s-1.66,4.33-5,5.66-27.66,3.34-30.33,3.34-3.67,1-2.67-3.34,2-20.66,2-20.66S501,360.07,501,354.4s4-24.66,4-24.66l-22.33-.67a206,206,0,0,1,3.23-21.27c.3-1.38.47-4.05,1.38-5.19A3,3,0,0,1,488.31,301.77Z" style="fill:#fff;stroke:#263238;stroke-linecap:round;stroke-linejoin:round"></path><path d="M424.33,289.07s-3,12.33-1,19.33,16,8.34,16,8.34l47.34,19.66L494,300.74l-25.25-8.25S424.67,287.4,424.33,289.07Z" style="fill:#fff;stroke:#263238;stroke-linecap:round;stroke-linejoin:round"></path><line x1="480.65" y1="317.37" x2="484.63" y2="319.05" style="fill:none;stroke:#263238;stroke-linecap:round;stroke-linejoin:round"></line><line x1="452.44" y1="305.41" x2="476.39" y2="315.56" style="fill:none;stroke:#263238;stroke-linecap:round;stroke-linejoin:round"></line><path d="M440,291.1s-8,6.66-5.65,7.32,7.32-6.65,7.32-3-2,7.65-.67,8,4.33-1,4.33-1l4.38,1.85" style="fill:none;stroke:#263238;stroke-linecap:round;stroke-linejoin:round"></path><path d="M511.33,389.74s.21-.7.56-1.93A3.83,3.83,0,0,0,511.33,389.74Z" style="fill:none;stroke:#263238;stroke-linecap:round;stroke-linejoin:round"></path><path d="M523.33,394.74a122.66,122.66,0,0,1-12-5c-.33,3.66-.33,5.66-.33,5.66l-12.71.74a66.82,66.82,0,0,1-1,7.26c-1,4.34,0,3.34,2.67,3.34s27-2,30.33-3.34,5.67-4.66,5-5.66S527.67,396.07,523.33,394.74Z" style="fill:#407BFF;stroke:#263238;stroke-linecap:round;stroke-linejoin:round"></path><path d="M500,406.74c2.67,0,27-2,30.33-3.34,2.86-1.14,5-3.75,5.1-5.1-10.78,5.1-38.1,5.1-38.1,5.1C496.33,407.74,497.33,406.74,500,406.74Z" style="fill:#fff;stroke:#263238;stroke-linecap:round;stroke-linejoin:round"></path><polygon points="486.33 402.33 403.33 405 402.33 414 484.33 429.67 486.33 402.33" style="fill:#fff;stroke:#263238;stroke-linecap:round;stroke-linejoin:round"></polygon><circle cx="484.33" cy="416" r="13.67" style="fill:#fff;stroke:#263238;stroke-linecap:round;stroke-linejoin:round"></circle><path d="M509.35,409.25l-23.45,5.31a2.84,2.84,0,0,0-2,3.75h0a2.83,2.83,0,0,0,3.64,1.65l25.73-9.65Z" style="fill:#fff;stroke:#263238;stroke-linecap:round;stroke-miterlimit:10"></path><rect x="506.19" y="406.24" width="15.73" height="5.47" style="fill:#fff;stroke:#263238;stroke-linecap:round;stroke-miterlimit:10"></rect><circle cx="407" cy="411" r="8.67" style="fill:#fff;stroke:#263238;stroke-linecap:round;stroke-linejoin:round"></circle><path d="M498.36,259.56l23,9.93s10.64,2.13,11.71,3.55a20,20,0,0,1,2.48,4.61c.35,1.07-2.13,1.07-2.13,1.07s2.84,3.9,1.78,5-2.13,1.42-2.84,0a5.3,5.3,0,0,0-2.13-2.13l-6.74-2.12-3.9-5s-32.64-3.19-35.47-4.26-13.48-16.31-13.48-16.31L476,247.5Z" style="fill:#d4d4d4;stroke:#263238;stroke-linecap:round;stroke-linejoin:round"></path><path d="M458.25,202.49s-5-1-11.25,3-13.75,13.25-16.25,22.25-3.5,28-3.5,35.25S423,280.49,423,284.74s.75,6.25,3,6.25,16-.25,24.5,1.5,15.5,2.25,18.25,0,2-15.75,2-17.5S479,251.74,481,242s-2.25-27.5-4.25-31.5S464,202.24,463,202.24,458.25,202.49,458.25,202.49Z" style="fill:#407BFF;stroke:#263238;stroke-linecap:round;stroke-linejoin:round"></path><line x1="436.05" y1="246.62" x2="432.73" y2="248.57" style="fill:none;stroke:#263238;stroke-linecap:round;stroke-linejoin:round"></line><polyline points="433.44 240.41 453.31 236.5 440.04 244.28" style="fill:none;stroke:#263238;stroke-linecap:round;stroke-linejoin:round"></polyline><path d="M457.25,191.24l-1.5,12.25s8.25,9,10.75,11.25,8,3.75,8,3.75v-8.75L478.25,192S462.75,196,457.25,191.24Z" style="fill:#fff;stroke:#263238;stroke-linecap:round;stroke-linejoin:round"></path><path d="M451.51,171.62s-4.31-.94-4.31,4.3a10.26,10.26,0,0,0,3.37,7.87s2.63,1.31,3.75-1.12c0,0,.56,8.05,1.5,9.92s6.93,7.31,14.05,7.68,10.3-7.49,11.05-10.3,1.87-6.74,1.87-6.74,1.12,1.68,3.56-.75,4.31-5.62,2.81-9.18a4.12,4.12,0,0,0-4.87-2.62v-8.8a7.93,7.93,0,0,0-5.43-8.24c-6.18-2.25-17.8-.75-23.23,5.43s-4.87,8.8-4.87,8.8Z" style="fill:#fff;stroke:#263238;stroke-linecap:round;stroke-linejoin:round"></path><path d="M468.18,182.1s-7.3-.56-9.18.57-1.5,10.67,0,13.86,8.24,5.8,11.8,5.62,6.37-4.69,6.93-7.5.94-11.42,0-12S468.18,182.1,468.18,182.1Z" style="fill:#263238;stroke:#263238;stroke-linecap:round;stroke-linejoin:round"></path><polyline points="470.62 169.18 470.43 181.92 465.93 180.04" style="fill:none;stroke:#263238;stroke-linecap:round;stroke-linejoin:round"></polyline><path d="M461.81,184.73s3.37,2.24,9,1.31c0,0-3.56,3.37-5.24,3.56S461.81,184.73,461.81,184.73Z" style="fill:#fff"></path><path d="M462,171.8c0,1-.42,1.88-.94,1.88s-.93-.84-.93-1.88.42-1.87.93-1.87S462,170.77,462,171.8Z" style="fill:#263238"></path><path d="M474.55,171.8c0,1-.42,1.88-.94,1.88s-.93-.84-.93-1.88.42-1.87.93-1.87S474.55,170.77,474.55,171.8Z" style="fill:#263238"></path><path d="M457.13,168.24s4.31-3.55,8.24-.37" style="fill:none;stroke:#263238;stroke-linecap:round;stroke-linejoin:round"></path><path d="M471.74,166.56s4.49-1.69,6.93,1.87" style="fill:none;stroke:#263238;stroke-linecap:round;stroke-linejoin:round"></path><path d="M463.1,158.63s-3.42,5.82,1,5.48,14-6.84,14-6.84,1.37,6.49,2.73,7.52,2.4,1.71,2.4,1.71l-.34,11.29s1.71,1,1.71-4.11,1.71-13.34,1-20.86-13-15.39-18.12-16.42-5.82,4.45-5.82,4.45-10.94,2.05-8.89,5.47,1,3.08,1,3.08-7.53-.68-6.84,6.5a76.06,76.06,0,0,0,3.62,15.43s1,6.84,2.73,6.84.21-4,.21-5a43.89,43.89,0,0,0-1.43-5.64Z" style="fill:#263238;stroke:#263238;stroke-linecap:round;stroke-linejoin:round"></path><path d="M531.34,278s4.61-.36,7.1,2.12,3.9,9.94,7.8,13.13,8.16.71,11.35-3.55S559,274.1,558,272s-19.16,1.42-19.16,1.42" style="fill:none;stroke:#263238;stroke-linecap:round;stroke-miterlimit:10;stroke-width:4px"></path><path d="M441.67,232.4s32.33,25.34,36,26.34,59,9.33,59,9.33.66,3,3.33,3.67a25.22,25.22,0,0,0,5.33.66s-.33,3.34,1.34,3.34,7.66,1,8.66,0,1.67-6.67,1-8.34S537,261.74,537,261.74L488.67,243.4s-23.34-29-29-33-14.34,2.34-14.34,2.34" style="fill:#fff;stroke:#263238;stroke-linecap:round;stroke-linejoin:round"></path><path d="M441.67,232.4s9.82,7.7,19.25,14.77l19.35-14c-7.28-8.76-17.17-20.33-20.6-22.75-5.67-4-14.34,2.34-14.34,2.34" style="fill:#407BFF;stroke:#263238;stroke-linecap:round;stroke-linejoin:round"></path><line x1="549.33" y1="270.4" x2="549.33" y2="276.4" style="fill:none;stroke:#263238;stroke-linecap:round;stroke-linejoin:round"></line><line x1="552.33" y1="269.07" x2="552" y2="276.07" style="fill:none;stroke:#263238;stroke-linecap:round;stroke-linejoin:round"></line><line x1="555" y1="269.07" x2="555.33" y2="275.74" style="fill:none;stroke:#263238;stroke-linecap:round;stroke-linejoin:round"></line></g><g id="freepik--character-1--inject-2"><path d="M251.57,164.72a44.69,44.69,0,0,1,3,10.33c1,6,2.63,8.2,3.85,8.74s1.57,2.73.9,4.39-3.63,1.82-3.63,1.82-1.45,8.38-1.79,9.72-1.66,3.66-6.33,2.66c-2.06-.44-9.67-3.33-9.67-3.33s-1,15.33-1,19.33v5.34l-16.66-3s1.33-9,1.66-14-1.33-12.67-4.33-19-8.67-8.34-5-15,20.33-12.34,26.33-12.67S251.57,164.72,251.57,164.72Z" style="fill:#fff;stroke:#263238;stroke-linecap:round;stroke-linejoin:round"></path><line x1="252.51" y1="178.95" x2="252.66" y2="181.22" style="fill:none;stroke:#263238;stroke-linecap:round;stroke-linejoin:round"></line><path d="M249.49,177.29s.3-3.64,3.33-2.58" style="fill:none;stroke:#263238;stroke-linecap:round;stroke-linejoin:round"></path><path d="M253.72,192.27s-3.93.3-4.84-3.33" style="fill:none;stroke:#263238;stroke-linecap:round;stroke-linejoin:round"></path><path d="M247.18,235.44l12.42,17.38s34.76,17,39,18.45,17,6.38,21.28,6.74,8.16,5,8.16,5-.36,3.19-1.78,4.26-5.32-.36-7.8-.36a20.83,20.83,0,0,1-6-1.41s-5-7.1-6-7.45-30.51-8.52-39-11.71-19.51-7.09-22.35-12.06,1.42-17.38,1.42-17.38Z" style="fill:#d4d4d4;stroke:#263238;stroke-linecap:round;stroke-linejoin:round"></path><path d="M233.57,328.67s11.33,9.33,17,14.33a54.06,54.06,0,0,0,10.33,7.33s-9.33,11-11,21.34-15.66,39-15.33,41.33,12.67,2.67,17,2.67,10.33,1.66,12.33,0-7-6.34-9.33-7.67-6.33-6.33-6.33-6.33S267.9,370,272.9,361s11-13.33,8-21.33-38.33-16.34-40.66-17S233.57,323,233.57,328.67Z" style="fill:#d4d4d4;stroke:#263238;stroke-linecap:round;stroke-linejoin:round"></path><path d="M238.34,402.8c-2.25,5.35-3.89,9.38-3.77,10.2.33,2.33,12.67,2.67,17,2.67s10.33,1.66,12.33,0-7-6.34-9.33-7.67-6.33-6.33-6.33-6.33l-1.67,2.66Z" style="fill:#fff;stroke:#263238;stroke-linecap:round;stroke-linejoin:round"></path><path d="M263.9,415.67c.51-.42.31-1-.3-1.74-5.25-.51-14.43-1.37-19.7-1.6a24.65,24.65,0,0,1-8.74-1.63,7.43,7.43,0,0,0-.59,2.3c.33,2.33,12.67,2.67,17,2.67S261.9,417.33,263.9,415.67Z" style="fill:#fff;stroke:#263238;stroke-linecap:round;stroke-linejoin:round"></path><path d="M323.24,325.67s-25,4.33-37.67,23c-9.62,14.17-32.67,40-42,42.66" style="fill:none;stroke:#263238;stroke-linecap:round;stroke-linejoin:bevel;stroke-width:4px"></path><path d="M326.24,337.67s-16.34,9-25,20.33-17.34,48-34.67,58.33" style="fill:none;stroke:#263238;stroke-linecap:round;stroke-linejoin:bevel;stroke-width:4px"></path><line x1="224.9" y1="332.33" x2="249.9" y2="415.67" style="fill:none;stroke:#263238;stroke-linecap:round;stroke-miterlimit:10;stroke-width:4px"></line><circle cx="181.57" cy="411" r="48.67" style="fill:#263238;stroke:#263238;stroke-linecap:round;stroke-linejoin:round"></circle><circle cx="181.57" cy="411" r="43.33" style="fill:#fff;stroke:#263238;stroke-linecap:round;stroke-linejoin:round"></circle><circle cx="181.57" cy="411" r="41.33" style="fill:#fff;stroke:#263238;stroke-linecap:round;stroke-linejoin:round"></circle><circle cx="358.24" cy="411" r="48.67" style="fill:#263238;stroke:#263238;stroke-linecap:round;stroke-linejoin:round"></circle><circle cx="358.24" cy="411" r="43.33" style="fill:#fff;stroke:#263238;stroke-linecap:round;stroke-linejoin:round"></circle><circle cx="358.24" cy="411" r="41.33" style="fill:#fff;stroke:#263238;stroke-linecap:round;stroke-linejoin:round"></circle><circle cx="358.24" cy="411" r="6" style="fill:none;stroke:#263238;stroke-linecap:round;stroke-linejoin:round"></circle><path d="M358.24,411s-22.67-38-23.67-43-15.67-58.67-15.67-58.67l10-23a1,1,0,0,0-.52-1.38l-13.14-1.62" style="fill:none;stroke:#263238;stroke-linecap:round;stroke-linejoin:bevel;stroke-width:4px"></path><line x1="181.24" y1="407.67" x2="232.24" y2="359.67" style="fill:none;stroke:#263238;stroke-linecap:round;stroke-miterlimit:10;stroke-width:4px"></line><path d="M213.33,320.68s-6.1-1.06-7.42,1.06-1.59,9,1.32,10.6,21.74,2.38,26.25,1.85,5.83-6.09,3.18-8.21S213.33,320.68,213.33,320.68Z" style="fill:#fff;stroke:#263238;stroke-linecap:round;stroke-linejoin:round"></path><polygon points="260.9 402.33 177.9 405 176.9 414 258.9 429.67 260.9 402.33" style="fill:#fff;stroke:#263238;stroke-linecap:round;stroke-linejoin:round"></polygon><circle cx="258.9" cy="416" r="13.67" style="fill:#fff;stroke:#263238;stroke-linecap:round;stroke-linejoin:round"></circle><circle cx="258.9" cy="416" r="4.67" style="fill:#fff;stroke:#263238;stroke-linecap:round;stroke-linejoin:round"></circle><path d="M285.24,423a1.69,1.69,0,0,1-.38,0l-26.33-5a2,2,0,1,1,.75-3.92l26.33,5a2,2,0,0,1-.37,4Z" style="fill:#fff;stroke:#263238;stroke-linecap:round;stroke-linejoin:round"></path><circle cx="181.57" cy="411" r="8.67" style="fill:#fff;stroke:#263238;stroke-linecap:round;stroke-linejoin:round"></circle><path d="M242.68,222.19a20.67,20.67,0,0,0-11.11-7.52c-9-2.34-14.67-.34-19,10.33s3.33,28.33,4.67,32.67-1.67,12.66-5,20-10,15-9,28.33,15.33,20.33,18.66,20.67l3.34.33s23,11.33,33,14a91.17,91.17,0,0,0,17.66,3s-6.66,5-6.66,17.33-.67,60.34-.67,60.34,2,3,3,3,32.67-8.34,32.67-8.34,1-4.33-.67-4.33-25.67-5.67-25.67-5.67,11.67-49.33,14.34-55,1.33-12.33-1.67-16.66S268.57,310,252.9,303l-3.33-6c-.86-13.52-.65-13.53-1.67-24.67-.33-3.66,3.67-29,1-37.66A38.16,38.16,0,0,0,242.68,222.19Z" style="fill:#fff;stroke:#263238;stroke-linecap:round;stroke-linejoin:round"></path><path d="M210.31,281.44c7.27,1.37,24.3,11.41,38.8,9.33-.32-4.81-1.07-16.9-1.21-18.44-.33-3.66,3.67-29,1-37.66a38.16,38.16,0,0,0-6.22-12.48,20.67,20.67,0,0,0-11.11-7.52c-9-2.34-14.67-.34-19,10.33s3.33,28.33,4.67,32.67-1.67,12.66-5,20C211.67,278.9,211,280.15,210.31,281.44Z" style="fill:#fff;stroke:#263238;stroke-linecap:round;stroke-linejoin:round"></path><path d="M217.17,263.7a39.93,39.93,0,0,1-1.23,4.62h32.15c.12-1.33.27-2.89.44-4.62Z" style="fill:#263238"></path><path d="M248.86,286.83c-.1-1.45-.2-3-.3-4.63H213.12c3.24,1.07,7.51,2.9,12.27,4.63Z" style="fill:#263238"></path><path d="M214.26,273c-.63,1.55-1.3,3.11-2,4.63h36c-.13-2-.24-3.7-.31-4.63Z" style="fill:#263238"></path><path d="M213.93,222.06h28.65a23.27,23.27,0,0,0-4.93-4.63H217.06A20.07,20.07,0,0,0,213.93,222.06Z" style="fill:#263238"></path><path d="M211.42,235.94c.14,1.54.38,3.09.67,4.63h37.66a31.69,31.69,0,0,0-.53-4.63Z" style="fill:#263238"></path><path d="M212,226.69a20.36,20.36,0,0,0-.71,4.62h36.44a39.45,39.45,0,0,0-2.12-4.62Z" style="fill:#263238"></path><path d="M216.11,254.44c.5,1.39.9,2.5,1.13,3.23a7.26,7.26,0,0,1,.26,1.4H249c.14-1.5.27-3.05.39-4.63Z" style="fill:#263238"></path><path d="M213.16,245.19c.43,1.63.9,3.19,1.37,4.63h35.12c.08-1.58.14-3.13.16-4.63Z" style="fill:#263238"></path><path d="M252.9,303l-3.33-6s-.17-2-.67-9.33c-11.32,1.9-27.92-8-36.83-9.66-3.38,7.23-9.82,14.86-8.83,28,1,13.33,15.33,20.33,18.66,20.67l3.34.33.29.15c5.91-15.07,27-22.48,27-22.48h3.68C255.12,304.05,254,303.49,252.9,303Z" style="fill:#407BFF;stroke:#263238;stroke-linecap:round;stroke-linejoin:round"></path><path d="M227.64,306.89q1.2.75,2.58,1.53" style="fill:none;stroke:#263238;stroke-linecap:round;stroke-linejoin:round"></path><path d="M220.8,283.07s1.45,2.17-.72,2.89-4.35,4-4.35,4,3.62.36,4,1.45-3.26,2.89-2.89,4c.29.87,1.28,4.55,7.66,9.34" style="fill:none;stroke:#263238;stroke-linecap:round;stroke-linejoin:round"></path><path d="M223.24,326.67l5,3a62.78,62.78,0,0,1,11-17c7-7.34,19.66-6.34,19.66-6.34s-3-3.33-6-3.33-13.66,2.33-19.66,7.33S223.24,326.67,223.24,326.67Z" style="fill:#fff;stroke:#263238;stroke-linecap:round;stroke-linejoin:round"></path><line x1="245.08" y1="298.11" x2="252.9" y2="303" style="fill:none;stroke:#263238;stroke-linecap:round;stroke-linejoin:round"></line><line x1="239.57" y1="294.67" x2="241.57" y2="295.91" style="fill:none;stroke:#263238;stroke-linecap:round;stroke-linejoin:round"></line><line x1="302.24" y1="282.67" x2="298.24" y2="282.67" style="fill:none;stroke:#263238;stroke-linecap:round;stroke-linejoin:round;stroke-width:4px"></line><path d="M303.57,412c-1.67,0-25.67-5.67-25.67-5.67v7l-9.24,1.44c-.05,4.23-.09,6.9-.09,6.9s2,3,3,3,32.67-8.34,32.67-8.34S305.24,412,303.57,412Z" style="fill:#fff;stroke:#263238;stroke-linecap:round;stroke-linejoin:round"></path><path d="M304.51,414.42l-34.89,8.66c.64.77,1.43,1.59,1.95,1.59,1,0,32.67-8.34,32.67-8.34A13.37,13.37,0,0,0,304.51,414.42Z" style="fill:#fff;stroke:#263238;stroke-linecap:round;stroke-linejoin:round"></path><rect x="278.59" y="421.71" width="16.63" height="4.91" rx="0.46" transform="translate(-102.01 91.04) rotate(-15.34)" style="fill:#fff;stroke:#263238;stroke-linecap:round;stroke-linejoin:round"></rect><line x1="323.61" y1="327.61" x2="354.44" y2="330.91" style="fill:none;stroke:#263238;stroke-linecap:round;stroke-linejoin:round;stroke-width:2px"></line><path d="M373.38,293.06a2.85,2.85,0,0,0-1.69.53,6,6,0,0,0,.27-1.71,5.76,5.76,0,0,0-5.47-6,5.28,5.28,0,0,0-3.25,1.11,3,3,0,0,0-2.64-1.75,3.16,3.16,0,0,0-3.07,3.21,2.65,2.65,0,0,0-.89-.17c-.12,0-.23,0-.34,0a3.22,3.22,0,0,0,.17-1,3,3,0,1,0-6.07-.06,3.2,3.2,0,0,0,.14,1h-.75a4.2,4.2,0,0,0,.07-.62,3.17,3.17,0,0,0-3-3.31,3,3,0,0,0-2.46,1.33,2.82,2.82,0,0,0-2.36-1.38,3,3,0,0,0-2.89,3.05,3.26,3.26,0,0,0,.4,1.59,5.1,5.1,0,0,0-2-.45,6,6,0,0,0-.13,11.95l21.76,2.77a3.57,3.57,0,0,0-.37,1.5,3.18,3.18,0,0,0,3,3.31,3.05,3.05,0,0,0,2.9-2.25,5,5,0,0,0,1.23.18,5.78,5.78,0,0,0,5.6-5.92,6.74,6.74,0,0,0-.09-1.11,2.9,2.9,0,0,0,1.88.75,3.28,3.28,0,0,0,.07-6.55Z" style="fill:#407BFF;stroke:#263238;stroke-linecap:round;stroke-linejoin:round"></path><polygon points="352 329.7 329.15 327.75 329.02 295.62 357.58 298.06 352 329.7" style="fill:#fff;stroke:#263238;stroke-linecap:round;stroke-linejoin:round"></polygon><circle cx="342.3" cy="293.21" r="4.79" style="fill:#fff;stroke:#263238;stroke-linecap:round;stroke-linejoin:round"></circle><path d="M343.85,293.21a1.55,1.55,0,1,1-1.55-1.54A1.54,1.54,0,0,1,343.85,293.21Z" style="fill:#fff;stroke:#263238;stroke-linecap:round;stroke-linejoin:round"></path><path d="M358.24,286.67a4.79,4.79,0,1,1-4.79-4.79A4.79,4.79,0,0,1,358.24,286.67Z" style="fill:#fff;stroke:#263238;stroke-linecap:round;stroke-linejoin:round"></path><path d="M355,286.67a1.55,1.55,0,1,1-1.55-1.55A1.54,1.54,0,0,1,355,286.67Z" style="fill:#fff;stroke:#263238;stroke-linecap:round;stroke-linejoin:round"></path><path d="M364.57,294.33a4.79,4.79,0,1,1-4.78-4.78A4.78,4.78,0,0,1,364.57,294.33Z" style="fill:#fff;stroke:#263238;stroke-linecap:round;stroke-linejoin:round"></path><path d="M361.33,294.33a1.55,1.55,0,1,1-1.54-1.54A1.54,1.54,0,0,1,361.33,294.33Z" style="fill:#fff;stroke:#263238;stroke-linecap:round;stroke-linejoin:round"></path><path d="M368.24,287.67a4.79,4.79,0,1,1-4.79-4.79A4.79,4.79,0,0,1,368.24,287.67Z" style="fill:#fff;stroke:#263238;stroke-linecap:round;stroke-linejoin:round"></path><path d="M365,287.67a1.55,1.55,0,1,1-1.55-1.55A1.54,1.54,0,0,1,365,287.67Z" style="fill:#fff;stroke:#263238;stroke-linecap:round;stroke-linejoin:round"></path><path d="M349,283.67a4.79,4.79,0,1,1-4.79-4.79A4.78,4.78,0,0,1,349,283.67Z" style="fill:#fff;stroke:#263238;stroke-linecap:round;stroke-linejoin:round"></path><path d="M345.76,283.67a1.55,1.55,0,1,1-1.55-1.55A1.54,1.54,0,0,1,345.76,283.67Z" style="fill:#fff;stroke:#263238;stroke-linecap:round;stroke-linejoin:round"></path><path d="M248.9,166.38a24.57,24.57,0,0,0-11.33,19.34c-1,13.66-2.92,26-10.67,29.33-19.33,8.33-34,1.35-37,4.33s-1.33,8.34-1.33,8.34-9.33-1.34-12.33-5.67c-4.76-6.87-5-17,6.33-25.33s22.33-7.67,22.33-7.67.67,1,7-6.33,24-13.67,27.34-14.67A71.36,71.36,0,0,1,248.9,166.38Z" style="fill:#263238;stroke:#263238;stroke-linecap:round;stroke-linejoin:round"></path><path d="M204.9,189.05l58.67-28s-13.67-4.67-15.67-6.67-5.33-8.33-6.66-8.66-34,12.66-35.67,14.66.33,17,.67,20.34S204.9,189.05,204.9,189.05Z" style="fill:#fff;stroke:#263238;stroke-linecap:round;stroke-linejoin:round"></path><path d="M231.87,161.78a41.62,41.62,0,0,1,4.23-1.57" style="fill:none;stroke:#263238;stroke-linecap:round;stroke-linejoin:round"></path><path d="M206.52,175.59s10.73-6.73,20.3-11.46" style="fill:none;stroke:#263238;stroke-linecap:round;stroke-linejoin:round"></path><path d="M204.9,189.05s-1.33-6-1.33-7,14.67-6.33,20-7.33,17.33-3,17.33-3Z" style="fill:#fff;stroke:#263238;stroke-linecap:round;stroke-linejoin:round"></path><path d="M237.9,230.33s-2.6-5.93-7.33-7c-10.33-2.33-14.33,4.34-13,13.67s26.67,31,32,33,48,9.33,48,9.33l1.67,1.67,4,2s-.67,4.33,2,4,10.66,2.33,11.66-.33.34-7.67-2-8.67-19.66-4.67-26-7.67-34-15-34-15Z" style="fill:#fff;stroke:#263238;stroke-linecap:round;stroke-linejoin:round"></path><line x1="307.06" y1="281.15" x2="306.86" y2="286.81" style="fill:none;stroke:#263238;stroke-linecap:round;stroke-linejoin:round"></line><line x1="309.49" y1="287.02" x2="310.3" y2="280.34" style="fill:none;stroke:#263238;stroke-linecap:round;stroke-linejoin:round"></line><line x1="313.13" y1="287.42" x2="313.74" y2="280.74" style="fill:none;stroke:#263238;stroke-linecap:round;stroke-linejoin:round"></line></g><g id="freepik--Floor--inject-2"><line x1="682" y1="459.67" x2="695" y2="459.67" style="fill:none;stroke:#263238;stroke-linecap:round;stroke-linejoin:round"></line><line x1="141" y1="459.67" x2="671" y2="459.67" style="fill:none;stroke:#263238;stroke-linecap:round;stroke-linejoin:round"></line><line x1="56" y1="459.67" x2="124" y2="459.67" style="fill:none;stroke:#263238;stroke-linecap:round;stroke-linejoin:round"></line></g></svg>