<svg xmlns="http://www.w3.org/2000/svg" viewBox="0 0 750 500"><g id="freepik--background-complete--inject-2"><path d="M688.13,242.33S573.87,201.42,503,201.42c-85.1,0-167.77,18.23-199.14,24.25-82.39,15.81-242,16.66-242,16.66Z" style="fill:#dbdbdb"></path><path d="M61.87,242.33s64.88-23.8,138.17-23.8c51.16,0,124.59,4.93,193.75,13,26.32,3.07,163.4,10.79,163.4,10.79Z" style="fill:#ebebeb"></path><path d="M53.5,179.71c-.55,0-.6-1.09,0-1.17,2.59-.33,5.18-2.65,7.77-3a23.14,23.14,0,0,0,7.43-1.77C72.59,171.84,75,168,79,166.12c7-3.26,14.2-1.87,21,1a24,24,0,0,0,12.86,1.9c4-.51,7.85-1.6,11.81-2.17a23.44,23.44,0,0,1,10.6.51c3.56,1.15,6.61,3.37,10,5,4.4,2.12,8.76,1.76,13.5,1.9,3.42.1,10.57,2.26,10.57,4.56C169.29,180.37,60.28,179.71,53.5,179.71Z" style="fill:#ebebeb"></path><path d="M546.79,185.7c-4.77,0-123.93-.83-157.58-.83-2.36,0,.62-4.07,1.92-4.36,4.14-.9,8.45-.95,12.65-1.38a41.18,41.18,0,0,0,12.06-3c3.31-1.39,6.62-3,10.2-3.57,6.94-1.09,13,2.67,19.52,4.33a14.72,14.72,0,0,0,11.83-1.62c3-1.8,5.74-4,8.88-5.55a48.73,48.73,0,0,1,38.93-1.79,45.34,45.34,0,0,1,8.52,4.36c3.18,2.08,5.92,4.75,9.1,6.81,7.06,4.57,15.79,3.08,23.48,5.7C546.73,184.91,547.2,185.7,546.79,185.7Z" style="fill:#ebebeb"></path><path d="M254.5,97.54c-6.31,0-112.55.7-119.22.49-.48,0-.74-.72-.26-1,4.21-2.08,9-1.67,13.35-3.14,2.58-.87,4.16-2.55,5.94-4.48a12.33,12.33,0,0,1,5.53-3.61,11.71,11.71,0,0,1,6-.19c2.16.52,4,1.75,6.08,2.53,5.11,1.93,10.07.1,13.71-3.68,3-3.11,6-6,10-7.73a13.37,13.37,0,0,1,10.65-.14c3.89,1.76,6.57,5.31,10.23,7.45,4.33,2.53,9.52,1.93,14.32,2.7s8.47,4.8,12.67,7.12a8.94,8.94,0,0,0,4.58,1.42c.94,0,1.86-.28,2.79-.39,1.45-.18,2.82-.14,3.79,1.07C255,96.29,254.91,97.54,254.5,97.54Z" style="fill:#ebebeb"></path><path d="M598.3,152.48c-4.61,0-82.17.51-87,.36-.35,0-.54-.53-.19-.7,3.07-1.52,6.56-1.22,9.75-2.29a10.37,10.37,0,0,0,4.34-3.27,9,9,0,0,1,4-2.64,8.53,8.53,0,0,1,4.4-.13,36.43,36.43,0,0,1,4.44,1.84c3.72,1.41,7.34.07,10-2.69,2.2-2.27,4.35-4.41,7.34-5.64a9.72,9.72,0,0,1,7.77-.1c2.84,1.28,4.79,3.88,7.47,5.43,3.16,1.86,6.95,1.42,10.45,2s6.19,3.5,9.25,5.2a6.59,6.59,0,0,0,3.35,1,20.39,20.39,0,0,0,2-.28,2.8,2.8,0,0,1,2.77.78C598.64,151.57,598.6,152.48,598.3,152.48Z" style="fill:#ebebeb"></path><path d="M411.41,75.17c-4.61,0-82.16.51-87,.36-.35,0-.54-.53-.19-.7,3.07-1.52,6.56-1.22,9.75-2.29a10.39,10.39,0,0,0,4.34-3.27,8.94,8.94,0,0,1,4-2.64,8.64,8.64,0,0,1,4.4-.14,38.16,38.16,0,0,1,4.44,1.85c3.73,1.4,7.35.07,10-2.69,2.19-2.27,4.35-4.42,7.33-5.64a9.72,9.72,0,0,1,7.77-.11c2.84,1.29,4.8,3.88,7.47,5.44,3.17,1.85,7,1.42,10.45,2s6.19,3.51,9.26,5.21a6.52,6.52,0,0,0,3.34,1,20,20,0,0,0,2-.28,2.77,2.77,0,0,1,2.77.78C411.75,74.26,411.72,75.17,411.41,75.17Z" style="fill:#ebebeb"></path><path d="M695,86.83H563.32c-.53,0-.73-.57-.2-.82,4.72-2.21,10-1.64,14.89-3.17,2.87-.91,4.66-2.74,6.69-4.83a13.56,13.56,0,0,1,6.21-3.88,12.93,12.93,0,0,1,6.68-.07c2.38.62,4.42,2,6.69,2.94,5.61,2.25,11.15.34,15.28-3.77,3.4-3.38,6.75-6.57,11.32-8.33a14.76,14.76,0,0,1,11.8.08c4.28,2,7.17,6,11.18,8.5,4.75,2.91,10.52,2.37,15.81,3.32s9.71,3.25,14.32,5.92a9.91,9.91,0,0,0,5,1.68,29.45,29.45,0,0,0,3.1-.37c1.61-.16,3.13-.09,4.19,1.27C696.58,85.64,698.11,86.83,695,86.83Z" style="fill:#ebebeb"></path></g><g id="freepik--Floor--inject-2"><polygon points="49.53 242.86 130.9 242.62 212.27 242.53 375 242.36 537.73 242.53 619.1 242.62 700.47 242.86 619.1 243.1 537.73 243.19 375 243.36 212.27 243.19 130.9 243.1 49.53 242.86" style="fill:#263238"></polygon></g><g id="freepik--Trees--inject-2"><path d="M236.76,232.72c-.74.75-9.4,1.08-12.54,1.08s-11.81-.33-12.55-1.08,9.74-58.28,12.55-58.28S237.51,232,236.76,232.72Z" style="fill:#455a64"></path><path d="M236.94,218.06c-2.14.82-10.06,4-11.77,5,0-.36,0-.72,0-1.08l5.75-3.35a69.88,69.88,0,0,0,6.18-3.68c.09-.06,0-.26-.09-.2a51,51,0,0,0-6.05,3.34c-1.94,1.14-3.87,2.32-5.79,3.5q0-4.12,0-8.27a65.45,65.45,0,0,0,9-4.59c.1-.06,0-.24-.08-.19a66.32,66.32,0,0,0-8.95,4.41c0-1.43,0-2.87,0-4.3-.08-7.38-.09-14.77-.28-22.16,1.88-.94,3.81-1.78,5.69-2.73.12-.07,0-.28-.1-.23-1.9.74-3.74,1.63-5.61,2.45-.1-3.81-.24-7.62-.47-11.42a.1.1,0,0,0-.2,0c-.26,7.07-.24,14.15-.15,21.23-1.95-1.56-4-2.93-6-4.44-.07-.06-.15.07-.07.13,2.07,1.58,4,3.32,6.08,4.89,0,.4,0,.8,0,1.2-2.11-1-4.25-1.86-6.39-2.77-.16-.07-.31.17-.14.25,2.17,1,4.34,2.1,6.54,3.08.05,3.51.11,7,.15,10.52.08,6.12.22,12.24.35,18.36q-6-3-12-5.87a.13.13,0,0,0-.14.23,128.49,128.49,0,0,0,12.19,6.12c.1,5.08.21,10.17.27,15.25,0,.31.49.31.48,0-.07-6.48-.08-13-.09-19.46a120.31,120.31,0,0,0,11.92-4.84C237.28,218.32,237.14,218,236.94,218.06Z" style="fill:#37474f"></path><path d="M618.3,232.72c-.74.75-9.4,1.08-12.54,1.08s-11.81-.33-12.55-1.08,9.74-58.28,12.55-58.28S619.05,232,618.3,232.72Z" style="fill:#455a64"></path><path d="M618.48,218.06c-2.14.82-10.06,4-11.78,5V222l5.75-3.35a69.88,69.88,0,0,0,6.18-3.68c.09-.06,0-.26-.09-.2a51,51,0,0,0-6,3.34c-2,1.14-3.87,2.32-5.79,3.5q0-4.12,0-8.27a65.45,65.45,0,0,0,9-4.59c.1-.06,0-.24-.08-.19a66.32,66.32,0,0,0-9,4.41l0-4.3c-.08-7.38-.09-14.77-.28-22.16,1.88-.94,3.81-1.78,5.69-2.73.12-.07,0-.28-.1-.23-1.9.74-3.74,1.63-5.61,2.45-.1-3.81-.24-7.62-.48-11.42a.1.1,0,1,0-.19,0c-.27,7.07-.24,14.15-.16,21.23-1.94-1.56-4-2.93-6-4.44-.07-.06-.15.07-.07.13,2.07,1.58,4,3.32,6.08,4.89,0,.4,0,.8,0,1.2-2.11-1-4.25-1.86-6.39-2.77-.16-.07-.31.17-.14.25,2.17,1,4.34,2.1,6.54,3.08.05,3.51.11,7,.15,10.52.08,6.12.22,12.24.35,18.36q-6-3-12-5.87a.13.13,0,0,0-.14.23,127.31,127.31,0,0,0,12.19,6.12c.1,5.08.21,10.17.27,15.25,0,.31.49.31.48,0-.07-6.48-.08-13-.1-19.46a119.51,119.51,0,0,0,11.93-4.84C618.82,218.32,618.68,218,618.48,218.06Z" style="fill:#37474f"></path><path d="M93,233c-.73.73-9.18,1-12.26,1s-11.53-.32-12.25-1S78,176,80.75,176,93.73,232.24,93,233Z" style="fill:#455a64"></path><path d="M93.18,218.64c-2.09.8-9.83,4-11.5,4.87,0-.35,0-.71,0-1.06,1.87-1.1,3.74-2.18,5.62-3.27s4.16-2.22,6-3.59c.09-.07,0-.26-.09-.21a50.88,50.88,0,0,0-5.91,3.27c-1.9,1.11-3.78,2.26-5.66,3.42,0-2.69,0-5.38,0-8.08a64.64,64.64,0,0,0,8.82-4.48c.09-.06,0-.23-.08-.19a65.62,65.62,0,0,0-8.74,4.31l0-4.2c-.08-7.21-.1-14.43-.28-21.64,1.84-.93,3.73-1.74,5.56-2.67.12-.07,0-.28-.09-.23-1.87.73-3.66,1.59-5.48,2.4-.1-3.73-.25-7.44-.47-11.16a.1.1,0,0,0-.19,0c-.26,6.91-.24,13.82-.15,20.74-1.9-1.52-3.93-2.86-5.86-4.33-.08-.06-.15.07-.08.12,2,1.54,3.92,3.25,5.94,4.78,0,.39,0,.78,0,1.17-2.06-.94-4.15-1.82-6.24-2.71-.16-.07-.3.16-.14.24,2.12,1,4.24,2.06,6.39,3l.15,10.27c.08,6,.21,12,.34,17.94-3.89-2-7.82-3.89-11.76-5.75-.15-.07-.28.15-.13.23a124.64,124.64,0,0,0,11.89,6q.16,7.44.28,14.9a.24.24,0,0,0,.47,0c-.07-6.34-.08-12.67-.1-19A117.11,117.11,0,0,0,93.32,219C93.51,218.89,93.38,218.56,93.18,218.64Z" style="fill:#37474f"></path><path d="M178.4,232.21c-.78.78-9.88,1.13-13.18,1.13s-12.4-.35-13.18-1.13S162.27,171,165.22,171,179.18,231.43,178.4,232.21Z" style="fill:#37474f"></path><path d="M178.58,216.81c-2.25.86-10.57,4.24-12.37,5.23v-1.13c2-1.19,4-2.35,6-3.53a67.38,67.38,0,0,0,6.5-3.86c.1-.07,0-.27-.09-.21a52.55,52.55,0,0,0-6.36,3.51q-3.06,1.8-6.08,3.68c0-2.9,0-5.79,0-8.69a69.19,69.19,0,0,0,9.48-4.82c.11-.06,0-.25-.08-.2a67.73,67.73,0,0,0-9.4,4.63l0-4.52c-.09-7.75-.1-15.51-.3-23.27,2-1,4-1.87,6-2.87.13-.07,0-.3-.1-.24-2,.78-3.93,1.71-5.9,2.57q-.15-6-.5-12a.1.1,0,0,0-.2,0c-.28,7.43-.26,14.87-.17,22.3-2-1.63-4.22-3.07-6.3-4.66-.08-.06-.16.08-.08.14,2.18,1.65,4.21,3.49,6.39,5.14,0,.42,0,.84,0,1.26-2.22-1-4.47-2-6.71-2.92-.17-.07-.33.18-.15.26,2.28,1.1,4.56,2.21,6.87,3.25,0,3.68.11,7.36.16,11,.08,6.43.22,12.86.36,19.29Q159.24,223,152.87,220c-.16-.08-.3.15-.14.24a131.77,131.77,0,0,0,12.79,6.43c.12,5.34.23,10.68.29,16a.26.26,0,0,0,.51,0c-.08-6.81-.09-13.62-.11-20.44a123.46,123.46,0,0,0,12.53-5.09C178.94,217.08,178.8,216.73,178.58,216.81Z" style="fill:#455a64"></path><path d="M126.05,232.21c-.78.78-9.87,1.13-13.18,1.13s-12.4-.35-13.18-1.13S109.92,171,112.87,171,126.83,231.43,126.05,232.21Z" style="fill:#37474f"></path><path d="M126.23,216.81c-2.24.86-10.57,4.24-12.36,5.23,0-.38,0-.76,0-1.13,2-1.19,4-2.35,6-3.53a67.23,67.23,0,0,0,6.49-3.86c.1-.07,0-.27-.09-.21a52.42,52.42,0,0,0-6.35,3.51c-2,1.2-4.07,2.43-6.09,3.68,0-2.9,0-5.79,0-8.69a69.31,69.31,0,0,0,9.49-4.82c.1-.06,0-.25-.09-.2a68.85,68.85,0,0,0-9.4,4.63l0-4.52c-.08-7.75-.1-15.51-.3-23.27,2-1,4-1.87,6-2.87.13-.07,0-.3-.1-.24-2,.78-3.93,1.71-5.89,2.57-.11-4-.26-8-.51-12a.1.1,0,0,0-.2,0c-.28,7.43-.26,14.87-.16,22.3-2-1.63-4.23-3.07-6.31-4.66-.08-.06-.16.08-.08.14,2.18,1.65,4.21,3.49,6.4,5.14,0,.42,0,.84,0,1.26-2.22-1-4.46-2-6.7-2.92-.18-.07-.34.18-.16.26,2.28,1.1,4.56,2.21,6.87,3.25,0,3.68.11,7.36.16,11,.09,6.43.23,12.86.36,19.29Q106.89,223,100.52,220c-.16-.08-.3.15-.14.24a131.93,131.93,0,0,0,12.8,6.43c.11,5.34.22,10.68.29,16a.25.25,0,0,0,.5,0c-.07-6.81-.08-13.62-.1-20.44a124.23,124.23,0,0,0,12.52-5.09C126.59,217.08,126.45,216.73,126.23,216.81Z" style="fill:#455a64"></path><path d="M323.56,232.21c-.78.78-9.87,1.13-13.18,1.13S298,233,297.2,232.21,307.43,171,310.38,171,324.34,231.43,323.56,232.21Z" style="fill:#37474f"></path><path d="M323.74,216.81c-2.24.86-10.57,4.24-12.36,5.23,0-.38,0-.76,0-1.13,2-1.19,4-2.35,6-3.53a67.23,67.23,0,0,0,6.49-3.86c.1-.07.05-.27-.09-.21a52.42,52.42,0,0,0-6.35,3.51c-2,1.2-4.07,2.43-6.09,3.68,0-2.9,0-5.79,0-8.69a69.31,69.31,0,0,0,9.49-4.82c.1-.06,0-.25-.09-.2a68.85,68.85,0,0,0-9.4,4.63l0-4.52c-.09-7.75-.1-15.51-.3-23.27,2-1,4-1.87,6-2.87.13-.07,0-.3-.1-.24-2,.78-3.93,1.71-5.89,2.57-.11-4-.26-8-.51-12a.1.1,0,0,0-.2,0c-.28,7.43-.26,14.87-.16,22.3-2.05-1.63-4.23-3.07-6.31-4.66-.08-.06-.16.08-.08.14,2.18,1.65,4.21,3.49,6.39,5.14,0,.42,0,.84,0,1.26-2.22-1-4.46-2-6.7-2.92-.18-.07-.34.18-.16.26,2.28,1.1,4.56,2.21,6.87,3.25.05,3.68.11,7.36.16,11,.09,6.43.23,12.86.36,19.29Q304.4,223,298,220c-.16-.08-.3.15-.14.24a132.92,132.92,0,0,0,12.79,6.43c.12,5.34.23,10.68.3,16a.25.25,0,0,0,.5,0c-.07-6.81-.08-13.62-.1-20.44a124.23,124.23,0,0,0,12.52-5.09C324.1,217.08,324,216.73,323.74,216.81Z" style="fill:#455a64"></path><path d="M139.63,235.44c.54.55,6.9.79,9.21.79s8.66-.24,9.21-.79-7.15-42.78-9.21-42.78S139.08,234.9,139.63,235.44Z" style="fill:#455a64"></path><path d="M139.5,224.68c1.57.6,7.39,3,8.64,3.66,0-.27,0-.53,0-.79l-4.22-2.47a49.25,49.25,0,0,1-4.54-2.69c-.07,0,0-.2.06-.16a37.67,37.67,0,0,1,4.44,2.46q2.15,1.26,4.26,2.57c0-2,0-4,0-6.07a48.58,48.58,0,0,1-6.63-3.37c-.07,0,0-.18.06-.14a47.68,47.68,0,0,1,6.57,3.24l0-3.16c.05-5.42.07-10.85.2-16.27-1.38-.69-2.8-1.31-4.17-2-.09,0,0-.2.07-.16,1.39.54,2.74,1.19,4.11,1.8.08-2.8.19-5.6.36-8.39a.07.07,0,0,1,.14,0c.19,5.19.18,10.39.11,15.59,1.43-1.14,2.95-2.15,4.41-3.26,0,0,.11.05,0,.1-1.52,1.15-2.94,2.43-4.46,3.59,0,.29,0,.58,0,.88,1.54-.71,3.12-1.37,4.68-2,.12-.05.23.12.11.18-1.6.77-3.18,1.55-4.8,2.27,0,2.57-.08,5.15-.11,7.72-.06,4.49-.16,9-.26,13.48q4.4-2.22,8.84-4.32c.11,0,.21.11.1.17a93.4,93.4,0,0,1-8.94,4.5c-.08,3.73-.16,7.46-.21,11.2a.18.18,0,0,1-.35,0c.05-4.77.06-9.53.07-14.29a88,88,0,0,1-8.75-3.56C139.25,224.87,139.35,224.62,139.5,224.68Z" style="fill:#37474f"></path><path d="M619.51,235.44c.55.55,6.9.79,9.21.79s8.67-.24,9.21-.79-7.15-42.78-9.21-42.78S619,234.9,619.51,235.44Z" style="fill:#455a64"></path><path d="M619.38,224.68c1.57.6,7.39,3,8.64,3.66,0-.27,0-.53,0-.79l-4.22-2.47a49.25,49.25,0,0,1-4.54-2.69c-.07,0,0-.2.06-.16a37.8,37.8,0,0,1,4.45,2.46c1.43.84,2.84,1.7,4.25,2.57,0-2,0-4,0-6.07a47.89,47.89,0,0,1-6.62-3.37c-.08,0,0-.18.06-.14a48.25,48.25,0,0,1,6.57,3.24c0-1.06,0-2.11,0-3.16.06-5.42.07-10.85.21-16.27-1.38-.69-2.8-1.31-4.18-2-.09,0,0-.2.07-.16,1.4.54,2.74,1.19,4.12,1.8.07-2.8.18-5.6.35-8.39a.07.07,0,0,1,.14,0c.2,5.19.18,10.39.11,15.59,1.43-1.14,3-2.15,4.41-3.26.06,0,.11.05.06.1-1.52,1.15-3,2.43-4.47,3.59,0,.29,0,.58,0,.88,1.55-.71,3.12-1.37,4.68-2,.13-.05.24.12.11.18-1.59.77-3.18,1.55-4.8,2.27,0,2.57-.08,5.15-.11,7.72-.06,4.49-.16,9-.25,13.48q4.38-2.22,8.83-4.32c.11,0,.21.11.1.17a93.4,93.4,0,0,1-8.94,4.5c-.08,3.73-.16,7.46-.21,11.2a.18.18,0,0,1-.35,0c0-4.77.06-9.53.07-14.29a89,89,0,0,1-8.75-3.56C619.13,224.87,619.23,224.62,619.38,224.68Z" style="fill:#37474f"></path><path d="M320.7,235.44c.55.55,6.9.79,9.21.79s8.67-.24,9.22-.79-7.16-42.78-9.22-42.78S320.16,234.9,320.7,235.44Z" style="fill:#455a64"></path><path d="M320.58,224.68c1.57.6,7.38,3,8.64,3.66v-.79q-2.1-1.25-4.22-2.47a49.25,49.25,0,0,1-4.54-2.69c-.07,0,0-.2.07-.16a38.48,38.48,0,0,1,4.44,2.46c1.43.84,2.84,1.7,4.25,2.57,0-2,0-4,0-6.07a47.45,47.45,0,0,1-6.63-3.37c-.07,0,0-.18.06-.14a48.25,48.25,0,0,1,6.57,3.24c0-1.06,0-2.11,0-3.16.06-5.42.07-10.85.21-16.27-1.38-.69-2.8-1.31-4.18-2-.09,0,0-.2.07-.16,1.4.54,2.75,1.19,4.12,1.8.07-2.8.18-5.6.35-8.39a.08.08,0,0,1,.15,0c.19,5.19.17,10.39.11,15.59,1.43-1.14,2.95-2.15,4.4-3.26.06,0,.11.05.06.1-1.52,1.15-2.94,2.43-4.47,3.59,0,.29,0,.58,0,.88,1.55-.71,3.12-1.37,4.69-2,.12-.05.23.12.1.18-1.59.77-3.18,1.55-4.79,2.27l-.12,7.72c-.06,4.49-.16,9-.25,13.48q4.38-2.22,8.84-4.32c.11,0,.21.11.09.17a92.24,92.24,0,0,1-8.94,4.5c-.08,3.73-.16,7.46-.2,11.2a.18.18,0,0,1-.36,0c.06-4.77.06-9.53.08-14.29a88,88,0,0,1-8.75-3.56A.14.14,0,0,1,320.58,224.68Z" style="fill:#37474f"></path><path d="M93.11,235.44c.54.55,6.9.79,9.21.79s8.66-.24,9.21-.79-7.15-42.78-9.21-42.78S92.56,234.9,93.11,235.44Z" style="fill:#455a64"></path><path d="M93,224.68c1.57.6,7.38,3,8.64,3.66v-.79l-4.21-2.47a48,48,0,0,1-4.54-2.69c-.07,0,0-.2.06-.16a38.48,38.48,0,0,1,4.44,2.46q2.14,1.26,4.26,2.57c0-2,0-4,0-6.07A48,48,0,0,1,95,217.82c-.07,0,0-.18.06-.14a48.25,48.25,0,0,1,6.57,3.24c0-1.06,0-2.11,0-3.16,0-5.42.06-10.85.2-16.27-1.38-.69-2.8-1.31-4.18-2-.09,0,0-.2.07-.16,1.4.54,2.75,1.19,4.12,1.8.08-2.8.18-5.6.35-8.39a.08.08,0,0,1,.15,0c.19,5.19.18,10.39.11,15.59,1.43-1.14,3-2.15,4.41-3.26,0,0,.11.05,0,.1-1.52,1.15-2.94,2.43-4.46,3.59,0,.29,0,.58,0,.88,1.55-.71,3.13-1.37,4.69-2,.12-.05.23.12.11.18-1.6.77-3.19,1.55-4.8,2.27l-.12,7.72c0,4.49-.15,9-.25,13.48q4.4-2.22,8.84-4.32c.11,0,.21.11.1.17a92.41,92.41,0,0,1-9,4.5q-.12,5.59-.2,11.2c0,.22-.36.22-.35,0,0-4.77.06-9.53.07-14.29a88,88,0,0,1-8.75-3.56C92.73,224.87,92.83,224.62,93,224.68Z" style="fill:#37474f"></path><path d="M491.17,233c-.72.73-9.18,1-12.25,1s-11.53-.32-12.26-1S476.18,176,478.92,176,491.9,232.24,491.17,233Z" style="fill:#455a64"></path><path d="M491.34,218.64c-2.09.8-9.82,4-11.49,4.87,0-.35,0-.71,0-1.06l5.61-3.27a67.64,67.64,0,0,0,6-3.59c.09-.07,0-.26-.08-.21a49.29,49.29,0,0,0-5.91,3.27c-1.9,1.11-3.79,2.26-5.66,3.42q0-4,0-8.08a63.51,63.51,0,0,0,8.82-4.48c.1-.06,0-.23-.08-.19a65.62,65.62,0,0,0-8.74,4.31c0-1.4,0-2.8,0-4.2-.07-7.21-.09-14.43-.27-21.64,1.83-.93,3.72-1.74,5.56-2.67.12-.07,0-.28-.1-.23-1.86.73-3.65,1.59-5.48,2.4-.1-3.73-.24-7.44-.47-11.16a.1.1,0,0,0-.19,0c-.25,6.91-.23,13.82-.15,20.74-1.9-1.52-3.92-2.86-5.86-4.33-.07-.06-.15.07-.07.12,2,1.54,3.91,3.25,5.94,4.78,0,.39,0,.78,0,1.17-2.07-.94-4.16-1.82-6.24-2.71-.16-.07-.31.16-.14.24,2.12,1,4.24,2.06,6.38,3,.05,3.42.11,6.85.16,10.27.07,6,.2,12,.33,17.94q-5.83-3-11.76-5.75c-.15-.07-.28.15-.13.23a126,126,0,0,0,11.9,6c.11,5,.21,9.93.27,14.9,0,.3.48.3.47,0-.07-6.34-.08-12.67-.09-19A117.11,117.11,0,0,0,491.49,219C491.68,218.89,491.55,218.56,491.34,218.64Z" style="fill:#37474f"></path><path d="M598,232.21c-.78.78-9.87,1.13-13.18,1.13s-12.4-.35-13.18-1.13S581.85,171,584.79,171,598.75,231.43,598,232.21Z" style="fill:#37474f"></path><path d="M598.16,216.81c-2.25.86-10.57,4.24-12.37,5.23v-1.13c2-1.19,4-2.35,6-3.53a68.62,68.62,0,0,0,6.5-3.86c.09-.07,0-.27-.1-.21a52.42,52.42,0,0,0-6.35,3.51c-2,1.2-4.07,2.43-6.09,3.68,0-2.9,0-5.79,0-8.69a69.19,69.19,0,0,0,9.48-4.82c.1-.06,0-.25-.08-.2a68.4,68.4,0,0,0-9.41,4.63c0-1.51,0-3,0-4.52-.08-7.75-.1-15.51-.29-23.27,2-1,4-1.87,6-2.87.13-.07,0-.3-.1-.24-2,.78-3.93,1.71-5.89,2.57-.11-4-.26-8-.5-12a.11.11,0,0,0-.21,0c-.28,7.43-.25,14.87-.16,22.3-2-1.63-4.22-3.07-6.3-4.66-.08-.06-.16.08-.08.14,2.17,1.65,4.21,3.49,6.39,5.14,0,.42,0,.84,0,1.26-2.21-1-4.46-2-6.7-2.92-.18-.07-.33.18-.15.26,2.28,1.1,4.55,2.21,6.86,3.25q.09,5.52.17,11c.08,6.43.22,12.86.36,19.29Q578.8,223,572.44,220c-.16-.08-.3.15-.14.24a133.08,133.08,0,0,0,12.8,6.43c.11,5.34.22,10.68.29,16a.25.25,0,0,0,.5,0c-.07-6.81-.08-13.62-.1-20.44a123.29,123.29,0,0,0,12.52-5.09C598.52,217.08,598.37,216.73,598.16,216.81Z" style="fill:#455a64"></path><path d="M545.63,232.21c-.79.78-9.88,1.13-13.18,1.13s-12.4-.35-13.18-1.13S529.5,171,532.45,171,546.41,231.43,545.63,232.21Z" style="fill:#37474f"></path><path d="M545.81,216.81c-2.25.86-10.57,4.24-12.37,5.23v-1.13c2-1.19,4-2.35,6-3.53a68.62,68.62,0,0,0,6.5-3.86c.1-.07,0-.27-.09-.21a52.55,52.55,0,0,0-6.36,3.51q-3.06,1.8-6.08,3.68c0-2.9,0-5.79,0-8.69a69.19,69.19,0,0,0,9.48-4.82c.11-.06,0-.25-.08-.2a67.73,67.73,0,0,0-9.4,4.63c0-1.51,0-3,0-4.52-.08-7.75-.09-15.51-.29-23.27,2-1,4-1.87,6-2.87.13-.07,0-.3-.1-.24-2,.78-3.93,1.71-5.9,2.57q-.15-6-.5-12a.11.11,0,0,0-.21,0c-.27,7.43-.25,14.87-.16,22.3-2-1.63-4.22-3.07-6.3-4.66-.08-.06-.16.08-.08.14,2.18,1.65,4.21,3.49,6.39,5.14,0,.42,0,.84,0,1.26-2.22-1-4.47-2-6.71-2.92-.17-.07-.33.18-.15.26,2.28,1.1,4.55,2.21,6.87,3.25,0,3.68.11,7.36.16,11,.08,6.43.22,12.86.36,19.29Q526.47,223,520.1,220c-.17-.08-.31.15-.15.24a133.08,133.08,0,0,0,12.8,6.43c.11,5.34.23,10.68.29,16a.26.26,0,0,0,.51,0c-.08-6.81-.09-13.62-.11-20.44A123.29,123.29,0,0,0,546,217.18C546.17,217.08,546,216.73,545.81,216.81Z" style="fill:#455a64"></path><path d="M559.2,235.44c.55.55,6.9.79,9.21.79s8.67-.24,9.22-.79-7.15-42.78-9.22-42.78S558.66,234.9,559.2,235.44Z" style="fill:#455a64"></path><path d="M559.08,224.68c1.57.6,7.38,3,8.64,3.66v-.79q-2.1-1.25-4.22-2.47a49.25,49.25,0,0,1-4.54-2.69c-.06,0,0-.2.07-.16a38.48,38.48,0,0,1,4.44,2.46c1.43.84,2.84,1.7,4.25,2.57,0-2,0-4,0-6.07a47.45,47.45,0,0,1-6.63-3.37c-.07,0,0-.18.06-.14a48.25,48.25,0,0,1,6.57,3.24c0-1.06,0-2.11,0-3.16.06-5.42.07-10.85.21-16.27-1.38-.69-2.8-1.31-4.18-2-.09,0,0-.2.07-.16,1.4.54,2.75,1.19,4.12,1.8.07-2.8.18-5.6.35-8.39a.08.08,0,0,1,.15,0c.19,5.19.17,10.39.11,15.59,1.43-1.14,2.95-2.15,4.4-3.26.06,0,.12.05.06.1-1.52,1.15-2.94,2.43-4.47,3.59,0,.29,0,.58,0,.88,1.55-.71,3.12-1.37,4.69-2,.12-.05.23.12.1.18-1.59.77-3.18,1.55-4.79,2.27l-.12,7.72c-.06,4.49-.16,9-.25,13.48q4.38-2.22,8.84-4.32c.11,0,.21.11.09.17a92.24,92.24,0,0,1-8.94,4.5c-.08,3.73-.16,7.46-.2,11.2a.18.18,0,0,1-.36,0c.06-4.77.06-9.53.08-14.29a88,88,0,0,1-8.75-3.56A.14.14,0,0,1,559.08,224.68Z" style="fill:#37474f"></path><path d="M512.68,235.44c.55.55,6.9.79,9.21.79s8.67-.24,9.21-.79-7.15-42.78-9.21-42.78S512.14,234.9,512.68,235.44Z" style="fill:#455a64"></path><path d="M512.55,224.68c1.57.6,7.39,3,8.65,3.66v-.79q-2.1-1.25-4.22-2.47a49.25,49.25,0,0,1-4.54-2.69c-.07,0,0-.2.07-.16a38.48,38.48,0,0,1,4.44,2.46c1.43.84,2.84,1.7,4.25,2.57,0-2,0-4,0-6.07a47.45,47.45,0,0,1-6.63-3.37c-.07,0,0-.18.06-.14a48.25,48.25,0,0,1,6.57,3.24c0-1.06,0-2.11,0-3.16.06-5.42.07-10.85.21-16.27-1.38-.69-2.8-1.31-4.18-2-.09,0,0-.2.07-.16,1.4.54,2.75,1.19,4.12,1.8.07-2.8.18-5.6.35-8.39a.07.07,0,0,1,.14,0c.2,5.19.18,10.39.12,15.59,1.43-1.14,2.95-2.15,4.4-3.26.06,0,.11.05.06.1-1.52,1.15-2.94,2.43-4.47,3.59,0,.29,0,.58,0,.88,1.55-.71,3.12-1.37,4.69-2,.12-.05.23.12.1.18-1.59.77-3.18,1.55-4.8,2.27,0,2.57-.08,5.15-.11,7.72-.06,4.49-.16,9-.25,13.48q4.38-2.22,8.83-4.32c.12,0,.22.11.1.17a93.4,93.4,0,0,1-8.94,4.5c-.08,3.73-.16,7.46-.2,11.2a.18.18,0,0,1-.36,0c0-4.77.06-9.53.08-14.29a88.2,88.2,0,0,1-8.76-3.56C512.3,224.87,512.4,224.62,512.55,224.68Z" style="fill:#37474f"></path><path d="M437.27,235.44c.54.55,6.9.79,9.21.79s8.67-.24,9.21-.79-7.15-42.78-9.21-42.78S436.72,234.9,437.27,235.44Z" style="fill:#455a64"></path><path d="M437.14,224.68c1.57.6,7.39,3,8.64,3.66,0-.27,0-.53,0-.79l-4.22-2.47a49.25,49.25,0,0,1-4.54-2.69c-.07,0,0-.2.06-.16a36.89,36.89,0,0,1,4.44,2.46q2.14,1.26,4.26,2.57c0-2,0-4,0-6.07a47.89,47.89,0,0,1-6.62-3.37c-.08,0,0-.18.06-.14a48.25,48.25,0,0,1,6.57,3.24c0-1.06,0-2.11,0-3.16.06-5.42.07-10.85.2-16.27-1.37-.69-2.79-1.31-4.17-2-.09,0,0-.2.07-.16,1.4.54,2.74,1.19,4.12,1.8.07-2.8.18-5.6.35-8.39a.07.07,0,0,1,.14,0c.19,5.19.18,10.39.11,15.59,1.43-1.14,3-2.15,4.41-3.26.06,0,.11.05.05.1-1.52,1.15-2.94,2.43-4.46,3.59,0,.29,0,.58,0,.88,1.55-.71,3.12-1.37,4.68-2,.13-.05.24.12.11.18-1.59.77-3.18,1.55-4.8,2.27,0,2.57-.08,5.15-.11,7.72-.06,4.49-.16,9-.26,13.48q4.39-2.22,8.84-4.32c.11,0,.21.11.1.17a93.4,93.4,0,0,1-8.94,4.5c-.08,3.73-.16,7.46-.21,11.2a.18.18,0,0,1-.35,0c.05-4.77.06-9.53.07-14.29a89,89,0,0,1-8.75-3.56C436.89,224.87,437,224.62,437.14,224.68Z" style="fill:#37474f"></path><path d="M663.09,235.44c.55.55,6.9.79,9.21.79s8.67-.24,9.21-.79-7.15-42.78-9.21-42.78S662.55,234.9,663.09,235.44Z" style="fill:#37474f"></path><path d="M663,224.68c1.57.6,7.39,3,8.65,3.66v-.79q-2.1-1.25-4.22-2.47a49.25,49.25,0,0,1-4.54-2.69c-.07,0,0-.2.07-.16a38.48,38.48,0,0,1,4.44,2.46c1.43.84,2.84,1.7,4.25,2.57,0-2,0-4,0-6.07a47.45,47.45,0,0,1-6.63-3.37c-.07,0,0-.18.06-.14a48.25,48.25,0,0,1,6.57,3.24c0-1.06,0-2.11,0-3.16.06-5.42.07-10.85.21-16.27-1.38-.69-2.8-1.31-4.18-2-.09,0,0-.2.07-.16,1.4.54,2.75,1.19,4.12,1.8.07-2.8.18-5.6.35-8.39a.07.07,0,0,1,.14,0c.2,5.19.18,10.39.12,15.59,1.42-1.14,3-2.15,4.4-3.26.06,0,.11.05.06.1-1.52,1.15-3,2.43-4.47,3.59,0,.29,0,.58,0,.88,1.55-.71,3.12-1.37,4.69-2,.12-.05.23.12.1.18-1.59.77-3.18,1.55-4.8,2.27,0,2.57-.08,5.15-.11,7.72-.06,4.49-.16,9-.25,13.48q4.38-2.22,8.83-4.32c.12,0,.21.11.1.17a93.4,93.4,0,0,1-8.94,4.5c-.08,3.73-.16,7.46-.21,11.2a.18.18,0,0,1-.35,0c.05-4.77.06-9.53.08-14.29a88.2,88.2,0,0,1-8.76-3.56C662.71,224.87,662.81,224.62,663,224.68Z" style="fill:#455a64"></path></g><g id="freepik--character-2--inject-2"><path d="M399.91,230.56c5.75,14.6,19.66,41.88,26.59,49.45,6.13,6.68,32,1.74,44.14-1.36,3.32-.85-8.52-26.06-12.1-25.3-5.74,1.22-18.64,4.2-19.74,3.44-3.06-2.12-19.5-20.84-28.23-29.41C399.1,216.12,397.22,223.75,399.91,230.56Z" style="fill:#d3766a"></path><path d="M446.53,283c-8.83.81-16.94.39-20-3-6.93-7.57-20.84-34.85-26.59-49.45-1.31-3.33-1.54-6.85-.07-8.27Z" style="opacity:0.1"></path><path d="M475,280.06c-5.49,2.07-18.38,1.92-21.47.69s-3.57-23.15-.91-25.3,21.68-7.69,27.37-5.84S480.71,277.91,475,280.06Z" style="fill:#d3766a"></path><path d="M470.69,248.52c-1.92,2.45,2.06,3.31,2.06,3.31s-6,.14-7,3.42,3.88,4.05,4.23,4.11c-.32,0-5.85.28-6.52,3.69s4.32,3.58,4.64,3.58c-.3.11-4.22,1.55-4.14,4.25.14,4.65,10.26,1.24,13.56,3.05,0,0-2.43,5.94-2.46,6.13,0,0,9.69-3.05,11.89-7.64a3.26,3.26,0,0,0-.87-4s3.23-.64,3.84-3.3c.32-1.37-1.6-3.09-1.6-3.09a4.06,4.06,0,0,0,3-3c.32-1.92-1.65-3.34-1.65-3.34s2.19-1.74,1.88-3.8C490.88,247.73,474.81,243.29,470.69,248.52Z" style="fill:#d3766a"></path><path d="M489.33,255.43a0,0,0,1,0,0-.08,28.92,28.92,0,0,0-16.83-3.59c-.18,0-.23.33,0,.35A59.16,59.16,0,0,1,489.33,255.43Z" style="fill:#263238"></path><path d="M488.38,262.05c.06,0,.1-.07,0-.11a27.16,27.16,0,0,0-18.6-2.78c-.22.06-.37.33-.11.28C474.05,258.75,483.33,260.18,488.38,262.05Z" style="fill:#263238"></path><path d="M467.66,266.9c6.2-1.24,12.18-.36,18.19,1.42.07,0,.1-.09,0-.13-2.7-1.67-6.65-2.41-9.77-2.72a16.67,16.67,0,0,0-8.5,1.21C467.51,266.72,467.53,266.92,467.66,266.9Z" style="fill:#263238"></path><path d="M472.75,251.83a19.56,19.56,0,0,0-3.4.71,6.28,6.28,0,0,0-2.88,1.66,2.06,2.06,0,0,0-.53,1.4,3,3,0,0,0,.41,1.49,3.72,3.72,0,0,0,2.59,1.56l2.52.42-2.51.48a10.26,10.26,0,0,0-3.18,1.14,3.72,3.72,0,0,0-2,2.33,2.14,2.14,0,0,0,1.08,2.46,6.44,6.44,0,0,0,3.16.65l3-.05-2.82,1a10,10,0,0,0-2.23,1.14,4.13,4.13,0,0,0-1.53,1.76,2,2,0,0,0,.36,2A4.3,4.3,0,0,0,467,273a33.41,33.41,0,0,0,5.23.31c.88,0,1.77,0,2.66.09a6.19,6.19,0,0,1,2.58.58,6.68,6.68,0,0,0-2.59-.33c-.88,0-1.76.06-2.64.11a28.26,28.26,0,0,1-5.36,0,5,5,0,0,1-2.65-1.05,2.72,2.72,0,0,1-.64-2.92,5,5,0,0,1,1.84-2.23,10.76,10.76,0,0,1,2.46-1.31l.19,1a7.35,7.35,0,0,1-3.74-.74,3.1,3.1,0,0,1-1.42-1.54,3.47,3.47,0,0,1-.13-2.06,4.66,4.66,0,0,1,2.48-2.95,11.38,11.38,0,0,1,3.52-1.2v.9a4.47,4.47,0,0,1-3.11-2.1,3.79,3.79,0,0,1-.41-1.87,2.67,2.67,0,0,1,.75-1.75,6.57,6.57,0,0,1,3.22-1.59A15.83,15.83,0,0,1,472.75,251.83Z" style="fill:#263238"></path><path d="M455.72,253.94S473.67,236.69,477,247c1,3.06,1.35,16.83-1.41,16.95-3.57.17-4.8-5.55-5-9.26,0,0-5.28,6.73-11.06,4.45A6.18,6.18,0,0,1,455.72,253.94Z" style="fill:#d3766a"></path><path d="M476.65,246.17a13,13,0,0,1,1.05,3.64,26.71,26.71,0,0,1,.36,3.79,43.42,43.42,0,0,1-.34,7.63,7,7,0,0,1-.55,1.95,2.59,2.59,0,0,1-.69.92,2,2,0,0,1-.54.33,2.09,2.09,0,0,1-.62.13,3.22,3.22,0,0,1-2.11-.71,5.94,5.94,0,0,1-1.34-1.59,11.34,11.34,0,0,1-1.3-3.71,26.15,26.15,0,0,1-.44-3.82l.79.24a15.4,15.4,0,0,1-2.08,2,13.89,13.89,0,0,1-2.42,1.6,9.59,9.59,0,0,1-2.73.93,7.44,7.44,0,0,1-2.86,0,8.42,8.42,0,0,0,2.79-.28,10,10,0,0,0,2.53-1.11,14.42,14.42,0,0,0,2.22-1.66,15.35,15.35,0,0,0,1.85-2l.67-.91.12,1.15a29.6,29.6,0,0,0,.53,3.66,11.57,11.57,0,0,0,1.23,3.38,3.15,3.15,0,0,0,2.49,1.79c.85,0,1.27-1.3,1.48-2.46s.34-2.45.45-3.69.19-2.5.21-3.75A24.19,24.19,0,0,0,476.65,246.17Z" style="fill:#263238"></path><path d="M431,246.28l-18.47,15.88s-12.15-21.52-13.66-33S404,217.65,411,224.85C416,229.9,431,246.28,431,246.28Z" style="fill:#407BFF"></path><path d="M412.42,257.49c2.09-2.21,4.48-4.18,6.76-6.19s4.82-4,7.2-6c.06-.06.17.06.1.12-2.25,2.07-4.41,4.23-6.74,6.21a85.16,85.16,0,0,1-7.27,5.87S412.39,257.52,412.42,257.49Z" style="fill:#263238"></path><path d="M424.76,251.7l-12.19,10.46s-12.15-21.52-13.67-33c-.75-5.74.53-8.62,2.88-9.17Z" style="opacity:0.1"></path><path d="M504.76,381.62c2.34-.78.26-7.53-2.34-9.62a69,69,0,0,0-7.74-4.08C486.2,363.85,474,358.4,474,358.4l10.38-44-42.29.23S430.56,356,430.63,358.53c0,.16,0,.32,0,.47.36,11.66.94,21.2,1.9,21.8C435.1,382.42,502.41,382.41,504.76,381.62Z" style="fill:#d3766a"></path><path d="M504.76,381.62c-2.35.79-69.66.8-72.22-.82-1-.6-1.54-10.14-1.9-21.79,0-.16,0-.33,0-.48a50.08,50.08,0,0,1,1.32-6.18h43.5L474,358.41s12.19,5.44,20.66,9.51a68,68,0,0,1,7.74,4.08C505,374.09,507.1,380.84,504.76,381.62Z" style="fill:#ebebeb"></path><path d="M505.52,382c-2.39.8-70.93.72-73.53-.94-1-.61-1.58-10.6-1.92-22.69,0-.12,0-.25,0-.38l44.22-.44,0,.75s26.22,11.76,28.9,13.89S507.92,381.2,505.52,382Z" style="fill:#a6a6a6"></path><path d="M504.75,379.34c-11.56-.3-58.18-.41-69.62.18-.09,0-.09.07,0,.07,11.44.55,58.07.28,69.62-.06C505,379.52,505,379.35,504.75,379.34Z" style="fill:#263238"></path><path d="M479.2,357.68c-4.54-.85-10.11-.16-13.58,3.08-.14.12,0,.31.19.26a64.17,64.17,0,0,1,13.37-2.76A.29.29,0,0,0,479.2,357.68Z" style="fill:#263238"></path><path d="M482.48,359.66c-4.55-.85-10.11-.16-13.58,3.08-.14.12,0,.31.19.27a63.56,63.56,0,0,1,13.37-2.77A.29.29,0,0,0,482.48,359.66Z" style="fill:#263238"></path><path d="M485.76,361.65c-4.55-.86-10.11-.17-13.58,3.07-.14.12,0,.31.19.27a64.06,64.06,0,0,1,13.37-2.77A.29.29,0,0,0,485.76,361.65Z" style="fill:#263238"></path><path d="M485.12,347.77c-1.78-2.46-5.11-1.36-7,.24a24.31,24.31,0,0,0-7,10.4c0,.1,0,.15.11.17a.56.56,0,0,0,.71.56c3.75-1.38,7.94-2.4,11.16-4.89C485,352.79,486.81,350.1,485.12,347.77Zm-7.94,8.11c-1.83.73-3.68,1.36-5.49,2.15,1.38-2,2.66-4.1,4.23-6a27.08,27.08,0,0,1,2.42-2.6c1.35-1.22,6.71-3.84,5.9,1.15C483.8,353.34,479.36,355,477.18,355.88Z" style="fill:#263238"></path><path d="M459.55,357.21c3.74,1.6,8.05,1.53,12,1.92a.57.57,0,0,0,.55-.73.13.13,0,0,0,.06-.19,24.25,24.25,0,0,0-9.42-8.29c-2.24-1.06-5.74-1.29-6.84,1.55C454.89,354.15,457.36,356.28,459.55,357.21ZM457.5,354c-2.05-4.62,3.8-3.45,5.42-2.6a25.17,25.17,0,0,1,3,1.9c2,1.43,3.77,3.11,5.61,4.72-1.95-.31-3.9-.45-5.86-.69C463.33,357,458.62,356.52,457.5,354Z" style="fill:#263238"></path><path d="M502.1,382.24c-14.29.52-67.82.29-70.12-1.18-1-.62-1.57-10.6-1.91-22.69,0-.12,0-.25,0-.37l40.27-.41Z" style="opacity:0.1"></path><path d="M379.37,287s-3.78,25.55,9.45,33.67c8.84,5.42,47.89-2.08,49.55-6.9,3.14-9.12,3.15-12.46,3.15-12.46l-10,48.34,49.19.58s9.24-40,6.86-82.45c-.87-15.69-22-20.44-36.65-12.63-14.23,7.56-43.51,30.48-43.51,30.48Z" style="fill:#37474f"></path><path d="M437.21,320.7c3.14-6.26,3.13-8.82,11.27-28.39,1.09-2.61,2-5.29,3-7.94s2.22-5.47,3.06-8.29c0-.14.26-.06.21.07-1,2.42-1.65,5-2.5,7.41s-1.67,4.81-2.55,7.21l-1.15,3.09c.15-.21.3-.41.44-.62q1-1.42,2-2.82c1.39-1.91,3-3.69,4.28-5.7.08-.12.27,0,.19.12-1.4,1.91-2.46,4.07-3.79,6-.64.95-1.31,1.88-2,2.81a19.23,19.23,0,0,1-2,2.46c-1.14,3-3.65,10.35-4.85,13.36-3.78,9.47-2.55,6.39-5.21,11.43C437.54,321.2,437.07,321,437.21,320.7Z" style="fill:#263238"></path><path d="M458.05,341.69c-7.41-.08-14.8-.5-22.2-.64-.14,0-.17-.22,0-.22,7.38,0,14.75-.33,22.13-.24s14.8.45,22.2.7c.19,0,.22.3,0,.3C472.8,341.6,465.43,341.77,458.05,341.69Z" style="fill:#263238"></path><path d="M439.9,339.22c.67-3.27,1.62-6.49,2.48-9.71s1.74-6.45,2.63-9.67c1.78-6.45,3.64-12.87,5.49-19.29,1.06-3.65,2.19-7.27,3.31-10.9,0-.1.19-.07.16,0q-5,19.43-10.63,38.66c-1.07,3.64-2,7.32-3.33,10.9A.06.06,0,0,1,439.9,339.22Z" style="fill:#263238"></path><path d="M488,382.34c2.34-.78.27-7.53-2.34-9.61a65.47,65.47,0,0,0-7.74-4.08c-8.47-4.08-20.65-9.52-20.65-9.52l10.38-44-42.3.23s-11.55,41.3-11.48,43.86c0,.16,0,.32,0,.48.37,11.65.94,21.19,1.9,21.79C418.3,383.15,485.61,383.13,488,382.34Z" style="fill:#d3766a"></path><path d="M488,382.34c-2.36.79-69.67.81-72.23-.82-1-.6-1.54-10.14-1.9-21.79,0-.16,0-.32,0-.48a49.71,49.71,0,0,1,1.32-6.17h43.5l-1.43,6.05s12.19,5.45,20.66,9.51a66.29,66.29,0,0,1,7.75,4.09C488.23,374.81,490.3,381.56,488,382.34Z" style="fill:#ebebeb"></path><path d="M488.72,382.72c-2.39.8-70.93.73-73.53-.94-1-.61-1.57-10.6-1.92-22.68v-.38l44.21-.45,0,.75s26.22,11.77,28.9,13.9S491.12,381.93,488.72,382.72Z" style="fill:#a6a6a6"></path><path d="M488,380.06c-11.55-.29-58.18-.4-69.62.18-.09,0-.09.07,0,.08,11.45.54,58.07.27,69.62-.07C488.19,380.24,488.19,380.07,488,380.06Z" style="fill:#263238"></path><path d="M462.4,358.41c-4.54-.86-10.1-.17-13.58,3.07-.13.12,0,.31.19.27A64.19,64.19,0,0,1,462.38,359,.29.29,0,0,0,462.4,358.41Z" style="fill:#263238"></path><path d="M465.68,360.39c-4.54-.86-10.1-.16-13.58,3.07-.14.13,0,.32.19.27A64.19,64.19,0,0,1,465.66,361,.29.29,0,0,0,465.68,360.39Z" style="fill:#263238"></path><path d="M469,362.37c-4.54-.85-10.1-.16-13.58,3.07-.14.13,0,.32.19.27a64.19,64.19,0,0,1,13.37-2.77A.29.29,0,0,0,469,362.37Z" style="fill:#263238"></path><path d="M468.33,348.5c-1.79-2.47-5.11-1.36-7,.23a24.22,24.22,0,0,0-7,10.41.12.12,0,0,0,.11.16.56.56,0,0,0,.71.57c3.76-1.39,7.94-2.4,11.16-4.9C468.16,353.51,470,350.83,468.33,348.5Zm-7.94,8.1c-1.83.73-3.69,1.36-5.49,2.16a69.5,69.5,0,0,1,4.23-6,25.77,25.77,0,0,1,2.41-2.6c1.35-1.23,6.71-3.84,5.9,1.14C467,354.06,462.57,355.74,460.39,356.6Z" style="fill:#263238"></path><path d="M442.75,357.94c3.74,1.6,8.05,1.52,12,1.91a.56.56,0,0,0,.54-.73c.07,0,.12-.1.06-.18a24.27,24.27,0,0,0-9.42-8.3c-2.24-1.06-5.73-1.28-6.84,1.55S440.56,357,442.75,357.94Zm-2.05-3.25c-2-4.62,3.8-3.45,5.42-2.6a25.24,25.24,0,0,1,3,1.91,70.36,70.36,0,0,1,5.61,4.72c-1.94-.31-3.9-.46-5.85-.7C446.54,357.74,441.83,357.24,440.7,354.69Z" style="fill:#263238"></path><path d="M362.58,289.67s-3,21.51,10.27,29.63c8.83,5.42,47.34,4.08,49-.74,3.14-9.12,2.87-14.58,2.87-14.58l-10,45.71,49.2.58s11.5-39.17,9.76-80.63c-.62-14.73-24.52-23.65-37.46-12.55-12.23,10.49-33.93,34.77-33.93,34.77Z" style="fill:#37474f"></path><path d="M420.41,323.34c3.14-6.26,3.13-8.82,11.28-28.39,1.08-2.61,2-5.28,3-7.94s2.22-5.47,3.06-8.29c0-.14.26-.06.21.07-.95,2.42-1.65,4.95-2.5,7.41s-1.67,4.81-2.54,7.21c-.38,1-.77,2.06-1.16,3.09.15-.21.3-.41.44-.62.66-.94,1.31-1.89,2-2.82,1.39-1.91,3-3.69,4.28-5.7.07-.12.27,0,.18.12-1.4,1.91-2.46,4.07-3.78,6-.65,1-1.32,1.88-2,2.81a19.23,19.23,0,0,1-2,2.46c-1.14,3-3.65,10.35-4.85,13.36-3.78,9.47-2.54,6.39-5.21,11.43C420.74,323.84,420.27,323.61,420.41,323.34Z" style="fill:#263238"></path><path d="M441.25,341.7c-7.41-.08-14.8-.5-22.2-.64-.14,0-.16-.22,0-.22,7.38,0,14.75-.33,22.13-.24s14.8.45,22.2.7c.19,0,.22.3,0,.3C456,341.61,448.63,341.78,441.25,341.7Z" style="fill:#263238"></path><path d="M423.1,339.23c.68-3.27,1.62-3.86,2.49-7.08s1.73-6.45,2.62-9.67c1.78-6.45,3.64-12.87,5.5-19.29,1.05-3.65,2.19-7.27,3.3-10.9a.09.09,0,0,1,.17,0q-4.95,19.43-10.64,38.66c-1.07,3.64-2.05,4.7-3.32,8.27C423.19,339.33,423.08,339.3,423.1,339.23Z" style="fill:#263238"></path><path d="M463.89,350.27c1.1-4.25,2-8.53,2.87-12.83s1.63-8.61,2.3-12.94q2.07-13,3.28-26.06c.43-4.35.79-8.72,1-13.08a127,127,0,0,0,.07-13.09,30.42,30.42,0,0,0-.94-6.4,10.15,10.15,0,0,0-.55-1.48c-.22-.49-.47-1-.73-1.44a20.13,20.13,0,0,0-1.8-2.67,20.55,20.55,0,0,0-2.26-2.31,22.78,22.78,0,0,0-2.65-1.9,33.36,33.36,0,0,0-5.95-2.72,30.42,30.42,0,0,1,6.13,2.42,22.82,22.82,0,0,1,2.78,1.81,20.21,20.21,0,0,1,2.44,2.28,19.27,19.27,0,0,1,1.95,2.72c.29.48.55,1,.8,1.47a10.25,10.25,0,0,1,.64,1.58,32.32,32.32,0,0,1,1.15,6.57,107.87,107.87,0,0,1,.12,13.21c-.18,4.4-.5,8.78-.9,13.16-.91,8.73-2,17.46-3.6,26.1-.79,4.32-1.66,8.63-2.66,12.9-.52,2.14-1.05,4.27-1.63,6.39S464.58,348.19,463.89,350.27Z" style="fill:#263238"></path><path d="M361.12,303.19c.16.17,58.28-18.05,58.89-18.75.84-1-8.78-55.12-15.77-64.05-1.5-1.91-11.21-5.45-16.13,0C368.93,241.82,360.56,302.56,361.12,303.19Z" style="fill:#407BFF"></path><path d="M419.42,268.22a11.91,11.91,0,0,0-1.63-9.07c.95-6.16-1.78-8.92-1.78-8.92-2.7-12.53-6.28-25-10.79-30.06-2.87-3.23-14.63-4.64-19.32,1.64-7.38,9.88-13,24.25-17.38,37.51,0,0-3.81,5.23-3.37,11.17a10.78,10.78,0,0,0-3.31,9.79s-3.88,7.38-2.77,12.85a6.61,6.61,0,0,0,2.69,4c.24,0,58.05-14.51,58.55-15.28a6.29,6.29,0,0,0,1.34-3.71C422.2,273.31,419.42,268.22,419.42,268.22ZM395,239c-1.4,5.09-7.88,10.06-11.07,10.18s-5.08-2.08-5.19-6.49,4-14.78,7.71-16.77C392,222.93,396.34,233.94,395,239Z" style="fill:#455a64"></path><path d="M421.46,274.18l-62.19,13.31a28.08,28.08,0,0,1,1.11-3.82l60.15-12.89A20.94,20.94,0,0,1,421.46,274.18Z" style="fill:#fff"></path><path d="M419.68,265.1l-57.95,12.4a10.76,10.76,0,0,1,1-3.83l56.24-12A12,12,0,0,1,419.68,265.1Z" style="fill:#fff"></path><path d="M418,256.47l-52.78,11.29a17.76,17.76,0,0,1,.94-3.8l51.3-11A12.2,12.2,0,0,1,418,256.47Z" style="fill:#fff"></path><path d="M383.88,249.2c0,3.63,0,7.25-.09,10.88s-.2,7.24-.29,10.87L383,281.81c-.19,3.62-.39,7.24-.67,10.85,0-3.62,0-7.25.09-10.87l.29-10.87c.16-3.62.28-7.24.47-10.86S383.6,252.82,383.88,249.2Z" style="fill:#263238"></path><path d="M400,228.32c1.51,4.63,2.9,9.3,4.25,14s2.6,9.38,3.83,14.08,2.34,9.46,3.27,14.24a55.13,55.13,0,0,1,1,7.26c0,2.44-.1,4.87-.27,7.3,0-2.43,0-4.87-.1-7.29a54.75,54.75,0,0,0-1.21-7.15c-1-4.74-2.19-9.47-3.42-14.17s-2.44-9.41-3.67-14.12Z" style="fill:#263238"></path><path d="M362.29,279.3c4.69-1.08,9.39-2.1,14.09-3.11l14.12-3,14.13-2.9,7.06-1.47c2.36-.47,4.7-1,7.05-1.52-4.62,1.37-9.31,2.46-14,3.55s-9.4,2.07-14.1,3.07-9.43,1.91-14.15,2.81S367,278.52,362.29,279.3Z" style="fill:#263238"></path><path d="M365.15,270.5c4.29-1,8.58-1.89,12.88-2.8L390.94,265l12.91-2.6c4.31-.88,8.61-1.74,12.9-2.71C412.54,261,408.25,262,404,263s-8.58,1.87-12.88,2.78-8.62,1.71-12.95,2.5S369.49,269.82,365.15,270.5Z" style="fill:#263238"></path><rect x="400.22" y="248.89" width="11.49" height="3.74" transform="translate(-50.18 110.69) rotate(-14.63)" style="fill:#263238"></rect><rect x="402.04" y="255.84" width="11.49" height="3.74" transform="translate(-51.88 111.37) rotate(-14.63)" style="fill:#263238"></rect><rect x="405.75" y="274.13" width="11.49" height="3.74" transform="translate(-56.38 112.91) rotate(-14.63)" style="fill:#263238"></rect><path d="M391.84,204.6s-11.43,7.24-10.39,9.34,14.82,3,18.28,1.44,11.11-9.46,11.11-9.46Z" style="fill:#407BFF"></path><path d="M391.84,204.6s-11.43,7.24-10.39,9.34,14.82,3,18.28,1.44,11.11-9.46,11.11-9.46Z" style="opacity:0.1"></path><path d="M403.73,229.82c-3.2.41-11.12-3.78-12.87-8.49-.12-.32.79-3.41,1.73-7.21.56-2.31,1.13-4.89,1.47-7.29.07-.49,14.5,5.83,14.5,5.83a38.53,38.53,0,0,0-2.79,9,6.85,6.85,0,0,0,0,1,.85.85,0,0,1,0,.16C405.77,224.72,407.16,229.38,403.73,229.82Z" style="fill:#d3766a"></path><path d="M405.74,222.65s0,.1,0,.16a9.79,9.79,0,0,1-1.55-.14c-8.81-1.48-9.54-12.89-9.59-15.76,2.62.77,14,5.75,14,5.75a38.53,38.53,0,0,0-2.79,9A5.66,5.66,0,0,0,405.74,222.65Z" style="fill:#263238"></path><path d="M392.58,191.24c-1.62,5.39,1.31,20.92,5.15,24.37,5.58,5,14.67,5.44,18.91-1.26,4.1-6.49-.06-26.67-4.36-29.8C406,179.94,395,183.27,392.58,191.24Z" style="fill:#d3766a"></path><path d="M408.11,200.63s-.07.06-.06.11c.22,1,.3,2.27-.58,2.79,0,0,0,.07,0,.06C408.62,203.21,408.49,201.58,408.11,200.63Z" style="fill:#263238"></path><path d="M407,199.71c-1.7.18-1.22,3.58.36,3.41S408.41,199.55,407,199.71Z" style="fill:#263238"></path><path d="M413.93,199.77s.08,0,.09.08c.12,1.06.43,2.25,1.43,2.46,0,0,0,.06,0,.06C414.27,202.38,413.87,200.79,413.93,199.77Z" style="fill:#263238"></path><path d="M414.71,198.53c1.68-.37,2.29,3,.74,3.36S413.3,198.84,414.71,198.53Z" style="fill:#263238"></path><path d="M405.41,198.34a11.38,11.38,0,0,0,1.25-.65,2.31,2.31,0,0,0,1.15-.91.72.72,0,0,0-.24-.85,1.8,1.8,0,0,0-1.83.07,2.63,2.63,0,0,0-1.34,1.35A.77.77,0,0,0,405.41,198.34Z" style="fill:#263238"></path><path d="M415.78,196.63a13,13,0,0,1-1.4-.16A2.24,2.24,0,0,1,413,196a.72.72,0,0,1-.09-.88,1.79,1.79,0,0,1,1.73-.59,2.61,2.61,0,0,1,1.75.77A.78.78,0,0,1,415.78,196.63Z" style="fill:#263238"></path><path d="M408.22,210.39c.29.21.59.52,1,.49a2.85,2.85,0,0,0,1.09-.42,0,0,0,0,1,.06,0,1.45,1.45,0,0,1-1.26.77,1.15,1.15,0,0,1-1-.82C408.1,210.39,408.18,210.36,408.22,210.39Z" style="fill:#263238"></path><path d="M408.88,207.08a3.63,3.63,0,0,0,2.62,1.25,4.38,4.38,0,0,0,1.3-.12l.25-.07.22-.07a.26.26,0,0,0,.18-.26h0a.45.45,0,0,0,0-.11h0v-.1c-.1-.81-.35-2-.35-2,.31.1,1.92.57,1.84.14A53.9,53.9,0,0,0,412,195a.09.09,0,0,0-.18.06c.55,3.37,1.69,6.62,2.3,10a6.15,6.15,0,0,0-1.77-.27c-.11,0,.53,2.35.55,2.72a.1.1,0,0,1,0,0A5.06,5.06,0,0,1,409,207C408.88,206.92,408.8,207,408.88,207.08Z" style="fill:#263238"></path><path d="M412.26,207.86a4.3,4.3,0,0,1-1.51,1.57,2,2,0,0,1-1.15.24c-.88-.1-1-.87-1-1.56a4.79,4.79,0,0,1,.23-1.06A5.6,5.6,0,0,0,412.26,207.86Z" style="fill:#263238"></path><path d="M410.75,209.43a2,2,0,0,1-1.15.24c-.88-.1-1-.87-1-1.56A2,2,0,0,1,410.75,209.43Z" style="fill:#ff9bbc"></path><path d="M392.5,205.15c2.93-.94,4.09-10.94,4.09-10.94s.12,4.22.91,4.09,3.82-6,4-10.09a32.37,32.37,0,0,0,7.64,3.4c3.79,1,7.37,1.7,7.34,1.07-.06-1.9-2-7.19-4.7-8.86-3-1.92-6.88-3.66-12.93-1.1s-7.33,5.76-8.13,8.85S391.42,205.5,392.5,205.15Z" style="fill:#263238"></path><path d="M410.56,182.34c-5.2-2.84-16.68-1.94-19.33,7.13a26.89,26.89,0,0,0-.4,12s7-6.32,9.75-7.51c6.9-3,16.07-2,16.07-2S415.23,184.89,410.56,182.34Zm-8.82,9.2c0-1.56.58-3.85,4-4.45a4,4,0,0,1,4.77,3A27,27,0,0,0,401.74,191.54Z" style="fill:#407BFF"></path><path d="M396.58,204.07s-3.64-4.94-5.89-3.63.57,8.53,3.28,9.46a2.72,2.72,0,0,0,3.61-1.56Z" style="fill:#d3766a"></path><path d="M391.55,202.49a0,0,0,0,0,0,.07c1.89.71,2.93,2.43,3.66,4.22a1.51,1.51,0,0,0-2.26-.36.06.06,0,0,0,.06.1,1.69,1.69,0,0,1,1.86.54,8.86,8.86,0,0,1,.92,1.47c.09.17.39.07.32-.12l0,0C396.07,206,394.13,202.66,391.55,202.49Z" style="fill:#263238"></path><path d="M426.66,300.44l-3.23-3.82c2.78-2.35,68.38-57.69,105.79-73.49,19.58-8.28,45.21-13.68,63.26-16.76,19.51-3.32,34.64-4.73,34.79-4.74v1.78c-.59.06-59.42,8.82-96.11,24.32S427.34,299.87,426.66,300.44Z" style="fill:#407BFF"></path><path d="M426.66,300.44l-3.23-3.82c2.78-2.35,68.38-57.69,105.79-73.49,19.58-8.28,45.21-13.68,63.26-16.76,19.51-3.32,34.64-4.73,34.79-4.74v1.78c-.59.06-59.42,8.82-96.11,24.32S427.34,299.87,426.66,300.44Z" style="opacity:0.4"></path><rect x="522.26" y="307.16" width="208.49" height="1" transform="translate(313.97 931.75) rotate(-89.55)" style="fill:#263238"></rect><path d="M627.68,422.33a2.43,2.43,0,0,1-2.43-2.43v-8.41h1v8.41a1.43,1.43,0,0,0,2.86,0v-3.22h1v3.22A2.43,2.43,0,0,1,627.68,422.33Z" style="fill:#dbdbdb"></path><path d="M385.28,238.56c3.8,17.28,20,48.95,29.65,51.8,7.75,2.3,36.78-7.71,44-11.94,3.2-1.88-3-27.15-6.77-26C439.57,256.28,424,263.34,422.4,263c-3.63-.89-16.63-19.39-25.34-30.18C386.12,219.2,383.58,230.8,385.28,238.56Z" style="fill:#d3766a"></path><path d="M493.06,257.93a4.12,4.12,0,0,1-2.29,4.11,6.07,6.07,0,0,1,1.41,3.91c-.12,2.51-4.12,3.43-4.12,3.43a7.48,7.48,0,0,1,.83,4.36c-.36,2.4-4.26,3.9-4.26,3.9a6.61,6.61,0,0,1-1.69,4.29c-3,3.05-9.3,1.68-13.33.86s-14.73-7-16.88-7.92l-2.54-21.63s19.69-8,24.4-6.7C478.61,247.68,492.63,254.74,493.06,257.93Z" style="fill:#d3766a"></path><path d="M490.67,261.58c-3.77-2.46-8.07-3.68-12.3-5.13a.07.07,0,1,0,0,.14c4.21,1.4,8.1,3.62,12.25,5.19C490.69,261.82,490.77,261.65,490.67,261.58Z" style="fill:#263238"></path><path d="M488,269a11.69,11.69,0,0,0-2.88-1c-1.05-.31-2.1-.59-3.16-.86q-3.17-.81-6.38-1.46a.08.08,0,0,0,0,.15c2.1.54,4.2,1.11,6.28,1.74,1,.31,2.08.64,3.12,1a13.85,13.85,0,0,0,3,.79A.15.15,0,0,0,488,269Z" style="fill:#263238"></path><path d="M484.54,277.61a8.33,8.33,0,0,0-2.65-.81l-2.9-.69c-1.93-.48-3.86-.95-5.77-1.49-.1,0-.15.12-.05.15,1.94.56,3.87,1.14,5.82,1.68.95.27,1.91.53,2.87.78a7.62,7.62,0,0,0,2.66.48A.06.06,0,0,0,484.54,277.61Z" style="fill:#263238"></path><path d="M415.29,253.75,396,268.66S385,246.54,384.08,235s5.66-11.28,12.32-3.73C401.08,236.62,415.29,253.75,415.29,253.75Z" style="fill:#407BFF"></path><path d="M396.12,264c2.2-2.1,4.69-3.95,7.07-5.83s5-3.7,7.49-5.59c.07,0,.17.07.1.12-2.36,1.95-4.62,4-7,5.87a90.42,90.42,0,0,1-7.56,5.49S396.09,264,396.12,264Z" style="fill:#263238"></path><path d="M384.74,239.21c.6,1.45,1.05,2.94,1.5,4.43s.82,3,1.2,4.52a15.27,15.27,0,0,1-.95-2.15c-.28-.73-.51-1.48-.73-2.23A33.9,33.9,0,0,1,384.74,239.21Z" style="fill:#263238"></path><path d="M384.72,242.45c.36.55.66,1.08,1,1.6l.46.8a9.43,9.43,0,0,1,.47.83,3.65,3.65,0,0,1-1.36-1.37A3.7,3.7,0,0,1,384.72,242.45Z" style="fill:#263238"></path></g><g id="freepik--character-1--inject-2"><path d="M209.81,382.85c2.32.79,68.8,1,71.34-.57,1-.6,1.57-10.28,2-22,.08-2.53.16-5.14.21-7.8L284,317l-44.45-.28.58,35.46.17,7.81s-25.49,11.29-28.09,13.34S207.49,382.07,209.81,382.85Z" style="fill:#ad6359"></path><path d="M209.81,382.85c2.32.79,68.8,1,71.34-.57,1.18-.74,1.82-14.88,2.17-29.8l-43.24-.28.17,7.81s-25.49,11.29-28.09,13.34S207.49,382.07,209.81,382.85Z" style="fill:#fff"></path><path d="M209.81,382.85c2.32.79,68.8,1,71.34-.57,1-.6,1.57-10.28,2-22L240.25,360s-25.49,11.29-28.09,13.34S207.49,382.07,209.81,382.85Z" style="fill:#407BFF"></path><path d="M210.78,380.19c11.14-.23,56.11-.12,67.15.49.09,0,.09.07,0,.07-11,.47-56,0-67.16-.37C210.54,380.37,210.54,380.2,210.78,380.19Z" style="fill:#263238"></path><path d="M235.92,361.1c4.46-.05,9.63,1.54,12.39,5.2.1.14-.1.29-.23.22a61.62,61.62,0,0,0-12.24-4.87A.28.28,0,0,1,235.92,361.1Z" style="fill:#263238"></path><path d="M232.47,362.43c4.46-.05,9.63,1.54,12.39,5.2.11.14-.1.29-.23.23A61,61,0,0,0,232.4,363,.28.28,0,0,1,232.47,362.43Z" style="fill:#263238"></path><path d="M229,363.76c4.46-.05,9.62,1.55,12.38,5.2.11.14-.1.29-.23.23A61,61,0,0,0,229,364.31.28.28,0,0,1,229,363.76Z" style="fill:#263238"></path><path d="M348.26,167s-58.32,87.8-59.7,94c-2.13,9.47-2.73,98.06-2.73,98.06l-48.66-1s.28-77.52,9-104.69c6.32-19.57,51.86-84.48,51.86-84.48Z" style="fill:#455a64"></path><path d="M238.62,349.69c7.71-.06,35-.36,45.3.59a.08.08,0,0,1,0,.15c-3.53.51-37.6-.28-45.3-.53A.11.11,0,1,1,238.62,349.69Z" style="fill:#263238"></path><path d="M292,384.1c2.45.16,68.41-17.23,70.46-19.41a.88.88,0,0,0,.16-.45c.26-2.16-3.12-10.26-5.48-20.63-.15-.66-1.39-3.81-3.13-8.06-4.78-11.67-13.32-31.72-13.32-31.72l-43.07,11.05,15.86,31.87,2.15,7.5s-21.78,17.42-23.77,20.06S289.53,383.93,292,384.1Z" style="fill:#ad6359"></path><path d="M292,384.1c2.45.16,68.41-17.23,70.46-19.41a.88.88,0,0,0,.16-.45c.26-2.16-3.12-10.26-5.48-20.63-.15-.66-1.39-3.81-3.13-8.06l-40.53,11.2,2.15,7.5s-21.78,17.42-23.77,20.06S289.53,383.93,292,384.1Z" style="fill:#fff"></path><path d="M292,384.1c2.44.17,68.4-17.23,70.45-19.42.78-.82-.92-9.74-5.31-21.07l-41.52,10.65s-21.78,17.41-23.77,20.05S289.53,383.93,292,384.1Z" style="fill:#407BFF"></path><path d="M292.22,381.28c10.72-3.06,54.24-14.41,65.07-16.62.09,0,.1,0,0,.07-10.56,3.27-54.17,14.26-65,16.73C292,381.51,292,381.35,292.22,381.28Z" style="fill:#263238"></path><path d="M311.68,356.41c4.3-1.18,9.7-1,13.3,1.88.14.11,0,.31-.16.28A61.82,61.82,0,0,0,311.75,357,.28.28,0,0,1,311.68,356.41Z" style="fill:#263238"></path><path d="M308.69,358.58c4.3-1.18,9.7-1,13.3,1.88.14.11,0,.3-.17.27a61.73,61.73,0,0,0-13.07-1.6A.28.28,0,0,1,308.69,358.58Z" style="fill:#263238"></path><path d="M305.69,360.74c4.3-1.18,9.7-.95,13.3,1.88.14.11,0,.31-.16.28a61.92,61.92,0,0,0-13.08-1.61A.28.28,0,0,1,305.69,360.74Z" style="fill:#263238"></path><path d="M312.62,354.35l48.25-12.66s-37.65-80.57-37.28-86.85c.33-5.56,33.84-54.34,35.69-63.48,3-14.94-4.25-28.3-11.3-36.57l-49.91,14.07s4,8.63,11.28,14.08c0,0-31.36,52.37-32.17,69.6S312.62,354.35,312.62,354.35Z" style="fill:#455a64"></path><path d="M311.84,345.67c7-2,5-1.53,12-3.45,3.44-1,26-7.12,29.38-7.44.07,0,.1.12,0,.15-3.08,1.38-25.77,7.16-29.22,8-7.06,1.79-5,1.2-12.13,2.92A.11.11,0,0,1,311.84,345.67Z" style="fill:#263238"></path><path d="M301.69,180.93a89.33,89.33,0,0,1,13.81,6.52.15.15,0,1,1-.13.27c-4.66-2-9.41-4-13.95-6.25A.3.3,0,0,1,301.69,180.93Z" style="fill:#263238"></path><path d="M307.55,179.7a21.72,21.72,0,0,1,.89,2.69,5.82,5.82,0,0,1,.35,2.21c0,.14-.21.15-.29.05a7.49,7.49,0,0,1-.93-2.15c-.31-.84-.63-1.66-.91-2.5A.47.47,0,0,1,307.55,179.7Z" style="fill:#263238"></path><path d="M307.54,175.18c-.19-.77-.39-1.53-.61-2.29s-.49-1.57-.65-2.37c0-.13-.23-.07-.2,0,.2.77.29,1.57.43,2.35s.28,1.57.44,2.35a43.39,43.39,0,0,0,1.1,4.32,5.19,5.19,0,0,1-2.22-.68,4.1,4.1,0,0,1-1.36-2.13c-.31-.87-.59-1.75-.92-2.62a17.4,17.4,0,0,1-1-2.91c0-.13-.22-.07-.19.06a31.83,31.83,0,0,0,1.77,6.16,3.42,3.42,0,0,0,1.37,2,6.77,6.77,0,0,0,2.68.52c.1.05.25,0,.23-.14A45.09,45.09,0,0,0,307.54,175.18Z" style="fill:#263238"></path><path d="M308.38,184.66c-1.9,3.42-4.07,6.71-6.1,10.06s-3.87,6.61-5.72,10q-5.6,10.15-10.34,20.77-2.36,5.24-4.43,10.59A79.63,79.63,0,0,0,278.17,247a29.82,29.82,0,0,0-.49,11.37,78.31,78.31,0,0,0,2.94,11.36,204.32,204.32,0,0,0,9.42,25c.13.27.57.06.48-.22-2.64-7.43-5.37-14.84-7.74-22.37-2.3-7.3-5-14.87-3.75-22.63a58.49,58.49,0,0,1,3.17-10.89q2-5.41,4.33-10.73c3-7,6.43-13.75,9.91-20.51,1.94-3.78,4-7.52,6-11.29s3.92-7.69,6.15-11.35A.1.1,0,0,0,308.38,184.66Z" style="fill:#263238"></path><path d="M344.72,177.33c-.9-.15-2.23.16-6.14-.11a20.64,20.64,0,0,1-3.21-.52,7,7,0,0,1-3-1.21,15.76,15.76,0,0,1-3.4-4.68A24.39,24.39,0,0,1,326.6,165c0-.12-.2-.06-.18.06.21,1.14.32,2.29.62,3.42a21.36,21.36,0,0,0,1.15,3.1,12.56,12.56,0,0,0,3.49,5.16c1.76,1.33,4.23,1.58,6.36,1.73,1.24.08,6.09-.05,6.74-.74C344.9,177.63,344.89,177.36,344.72,177.33Z" style="fill:#263238"></path><path d="M351.07,333.45c-5.24-13.7-22.9-54.35-28.45-67-1.32-3-2.91-6.09-3.6-9.35-.75-3.54.34-6.73,1.84-9.91a170.5,170.5,0,0,1,9.32-16.91c3.39-5.49,7-10.86,10.51-16.26s7.2-10.7,10.07-16.43c2.75-5.48,4.28-11.32,3.49-17.47s-3.42-11.81-6.25-17.2c-.75-1.42-1.51-2.83-2.27-4.25-.05-.1-.22,0-.16.1,3.16,5.65,6.19,11.58,7.65,17.91a29.09,29.09,0,0,1,.7,9.57,30.26,30.26,0,0,1-2.71,9.35c-2.62,5.77-6.28,11.08-9.73,16.36s-7.13,10.77-10.56,16.24a183.63,183.63,0,0,0-9.61,16.95c-1.27,2.59-2.67,5.3-3,8.22-.34,3.2.81,6.26,2.05,9.15,5.36,12.58,29.64,69.56,30.4,71.11C350.88,333.82,351.14,333.65,351.07,333.45Z" style="fill:#263238"></path><path d="M297.77,109.1c-3.42,8.67-20.54,40.83-32.7,42.84-14.73,2.44-26.37-.54-34.07-1-1.93-.1.26-25.84,4.84-25.09,7.13,1.17,23.15,3.37,24.68,3.15,2.67-.36,17.44-16.32,27.41-24.72C296.91,96.75,299.8,104,297.77,109.1Z" style="fill:#ad6359"></path><path d="M216.8,149.23c5,2.16,17.13,2.54,20.07,1.51s4.28-21.53,1.88-23.65-20-8.09-25.4-6.58S211.56,147,216.8,149.23Z" style="fill:#ad6359"></path><rect x="-79.24" y="223.97" width="382.02" height="1" transform="translate(-124.42 308.71) rotate(-83.16)" style="fill:#263238"></rect><path d="M251.49,202.25c-.28-.79-28.39-79.69-55.64-122.8-27-42.64-62-43.89-62.31-43.86l-.11-1.4c1.54-.13,38.09-2.58,66.65,42.59,27.55,43.58,55.84,123,56.12,123.8Z" style="fill:#407BFF"></path><path d="M251.49,202.25c-.28-.79-28.39-79.69-55.64-122.8-27-42.64-62-43.89-62.31-43.86l-.11-1.4c1.54-.13,38.09-2.58,66.65,42.59,27.55,43.58,55.84,123,56.12,123.8Z" style="opacity:0.4"></path><path d="M222.13,119.87c1.7,2.36-2.06,3-2.06,3s5.64.37,6.45,3.49-3.81,3.63-4.13,3.68c.3,0,5.47.5,6,3.72s-4.19,3.18-4.5,3.17c.28.11,3.89,1.62,3.71,4.15-.32,4.34-9.66.74-12.83,2.3,0,0,2,5.66,2.07,5.84,0,0-9-3.25-10.83-7.63a3,3,0,0,1,1-3.69s-3-.73-3.47-3.25c-.23-1.29,1.63-2.82,1.63-2.82a3.82,3.82,0,0,1-2.66-3c-.22-1.81,1.68-3.06,1.68-3.06s-2-1.72-1.61-3.64C203.25,118.31,218.49,114.8,222.13,119.87Z" style="fill:#ad6359"></path><path d="M204.39,125.58a0,0,0,1,1,0-.07,27.13,27.13,0,0,1,15.91-2.69c.17,0,.2.32,0,.33A55.54,55.54,0,0,0,204.39,125.58Z" style="fill:#263238"></path><path d="M205,131.83a.06.06,0,0,1,0-.11,25.38,25.38,0,0,1,17.53-1.85c.2.06.33.32.09.27C218.57,129.31,209.83,130.28,205,131.83Z" style="fill:#263238"></path><path d="M224.23,137.2c-5.76-1.41-11.39-.83-17.09.6-.08,0-.1-.09,0-.12,2.6-1.46,6.33-2,9.26-2.16a15.65,15.65,0,0,1,7.92,1.48C224.37,137.05,224.35,137.23,224.23,137.2Z" style="fill:#263238"></path><path d="M220.07,122.88a17.76,17.76,0,0,1,3.15.81,5.88,5.88,0,0,1,2.63,1.66,2,2,0,0,1,.45,1.34,2.86,2.86,0,0,1-.45,1.37,3.44,3.44,0,0,1-2.49,1.36l-2.37.29,2.33.56a9.72,9.72,0,0,1,2.93,1.19,3.51,3.51,0,0,1,1.75,2.26,2,2,0,0,1-1.11,2.26,6,6,0,0,1-3,.49l-2.83-.17,2.61,1.08a9.17,9.17,0,0,1,2,1.16,3.83,3.83,0,0,1,1.36,1.71,1.81,1.81,0,0,1-.42,1.85,3.94,3.94,0,0,1-2.08.79,30.82,30.82,0,0,1-4.91.09c-.82,0-1.66,0-2.49,0a6,6,0,0,0-2.45.44,6.33,6.33,0,0,1,2.45-.21c.82,0,1.64.13,2.47.22a26.19,26.19,0,0,0,5,.17,4.62,4.62,0,0,0,2.52-.87,2.57,2.57,0,0,0,.72-2.71,4.73,4.73,0,0,0-1.63-2.17A10.14,10.14,0,0,0,224,136.5l-.22.91a6.89,6.89,0,0,0,3.53-.54,2.89,2.89,0,0,0,1.39-1.39,3.27,3.27,0,0,0,.21-1.92,4.42,4.42,0,0,0-2.21-2.87,10.56,10.56,0,0,0-3.25-1.26l0,.84a4.15,4.15,0,0,0,3-1.84,3.54,3.54,0,0,0,.47-1.73,2.56,2.56,0,0,0-.64-1.68,6.19,6.19,0,0,0-2.95-1.61A14.91,14.91,0,0,0,220.07,122.88Z" style="fill:#263238"></path><path d="M235.93,125.55s-16.11-16.89-19.62-7.36c-1.05,2.83-1.95,15.71.63,15.94,3.33.3,4.71-5,5.05-8.47,0,0,4.67,6.52,10.18,4.62A5.8,5.8,0,0,0,235.93,125.55Z" style="fill:#ad6359"></path><path d="M216.65,117.42a12.08,12.08,0,0,0-1.14,3.37,27.91,27.91,0,0,0-.49,3.54,40.66,40.66,0,0,0,0,7.15,6.38,6.38,0,0,0,.44,1.85,2.48,2.48,0,0,0,.61.9,2,2,0,0,0,.5.33,1.76,1.76,0,0,0,.57.14,3,3,0,0,0,2-.58,5.41,5.41,0,0,0,1.32-1.43,10.91,10.91,0,0,0,1.37-3.42,22.85,22.85,0,0,0,.56-3.57l-.75.2a14.22,14.22,0,0,0,1.88,2,12.67,12.67,0,0,0,2.19,1.6,9,9,0,0,0,2.53,1,6.87,6.87,0,0,0,2.67.1,8.1,8.1,0,0,1-2.6-.37,9.84,9.84,0,0,1-2.32-1.15,12.26,12.26,0,0,1-2-1.65,14,14,0,0,1-1.66-2l-.59-.88-.16,1.07a27.36,27.36,0,0,1-.64,3.41,10.63,10.63,0,0,1-1.29,3.11,2.94,2.94,0,0,1-2.4,1.58c-.8,0-1.14-1.27-1.29-2.36a33.32,33.32,0,0,1-.27-3.48c0-1.18-.08-2.35-.05-3.52A22.65,22.65,0,0,1,216.65,117.42Z" style="fill:#263238"></path><path d="M238.85,124.45,230.41,153s26.66,4,37-.61,23.05-26.17,28.94-38.69,2.81-20.51-13.39-6-21.1,20.21-22.28,20.52S238.85,124.45,238.85,124.45Z" style="fill:#c7c7c7"></path><path d="M236.39,152.63c.4-2.24,1.11-4.45,1.72-6.64s1.22-4.32,1.86-6.47c1.27-4.35,2.45-8.76,4-13a.08.08,0,0,1,.16,0c-.85,4.49-2.17,8.91-3.43,13.29-.63,2.2-1.29,4.4-2,6.58a62.91,62.91,0,0,1-2.17,6.28C236.51,152.79,236.38,152.73,236.39,152.63Z" style="fill:#263238"></path><path d="M293,114.74c2.64-.85,6.26-7.7,6.86-12.57,0-.34-1.53-3.06-3.28-6.46-1.05-2.07-2.18-4.4-3.05-6.6L281,97.94a37.86,37.86,0,0,1,4.68,7.91,6.12,6.12,0,0,1,.27.94,1.24,1.24,0,0,0,0,.16C286.42,108.77,288.82,116.05,293,114.74Z" style="fill:#ad6359"></path><path d="M287.46,106.47A9.45,9.45,0,0,1,286,107a.62.62,0,0,0,0-.16,4.27,4.27,0,0,0-.26-.94A37.43,37.43,0,0,0,281,97.93l11.57-8.19C293.44,93.52,294.84,103.34,287.46,106.47Z" style="fill:#263238"></path><path d="M289.75,70.54c3.15,4.51,5.19,19.83,2.68,24.2-3.65,6.35-11.95,9.54-17.94,4.62-5.8-4.77-8.11-24.78-5.08-29C273.87,64.15,285.1,63.87,289.75,70.54Z" style="fill:#ad6359"></path><path d="M277.53,83.73s.08,0,.08.08c.07,1,.32,2.22,1.29,2.48a0,0,0,0,1,0,.06C277.74,86.29,277.42,84.72,277.53,83.73Z" style="fill:#263238"></path><path d="M278.35,82.56c1.65-.28,2.1,3,.57,3.31S277,82.8,278.35,82.56Z" style="fill:#263238"></path><path d="M272,84.28s-.07.06-.07.1c.17,1,.2,2.24-.69,2.7,0,0,0,.07,0,.06C272.38,86.83,272.34,85.23,272,84.28Z" style="fill:#263238"></path><path d="M271,83.33c-1.68.09-1.36,3.44.19,3.35S272.35,83.25,271,83.33Z" style="fill:#263238"></path><path d="M279.46,80.86a12.44,12.44,0,0,1-1.35-.28,2.18,2.18,0,0,1-1.32-.55.72.72,0,0,1,0-.87,1.75,1.75,0,0,1,1.74-.41,2.56,2.56,0,0,1,1.63.91A.76.76,0,0,1,279.46,80.86Z" style="fill:#263238"></path><path d="M269.61,82.19c.45-.14.85-.34,1.28-.52a2.24,2.24,0,0,0,1.2-.78.72.72,0,0,0-.15-.86,1.76,1.76,0,0,0-1.79-.09,2.58,2.58,0,0,0-1.43,1.19A.76.76,0,0,0,269.61,82.19Z" style="fill:#263238"></path><path d="M280.38,93.13c-.22.27-.42.64-.79.72a2.74,2.74,0,0,1-1.14-.11s-.07,0,0,.05a1.4,1.4,0,0,0,1.38.39,1.09,1.09,0,0,0,.69-1C280.49,93.1,280.41,93.09,280.38,93.13Z" style="fill:#263238"></path><path d="M278.88,90.18a3.55,3.55,0,0,1-2.14,1.88,4.11,4.11,0,0,1-1.25.22,1.07,1.07,0,0,1-.25,0H275a.29.29,0,0,1-.24-.21h0a.33.33,0,0,1,0-.1h0v-.09c-.13-.79-.22-2-.22-2-.27.18-1.66,1-1.69.63a53.58,53.58,0,0,1-.06-10.82.1.1,0,0,1,.19,0c.38,3.31.17,6.68.49,10a6.2,6.2,0,0,1,1.59-.73c.12,0,.13,2.36.21,2.71a.1.1,0,0,0,0,0,4.94,4.94,0,0,0,3.49-1.62C278.84,90,278.93,90.09,278.88,90.18Z" style="fill:#263238"></path><path d="M275.9,91.82a4.16,4.16,0,0,0,1.84,1.07,1.89,1.89,0,0,0,1.15-.08c.8-.33.72-1.09.48-1.71a5,5,0,0,0-.5-.95A5.49,5.49,0,0,1,275.9,91.82Z" style="fill:#263238"></path><path d="M277.74,92.89a1.89,1.89,0,0,0,1.15-.08c.8-.33.72-1.09.48-1.71A2,2,0,0,0,277.74,92.89Z" style="fill:#ff99ba"></path><path d="M293.1,82.39c-3.77,1-6.66-3.15-6.48-7,0,0-9.9,3.35-12-4.72a9.47,9.47,0,0,1-6.3,5.2l-.13,3c-1.1-.1-2.79-2.84-.7-5.67a9.94,9.94,0,0,1,1.89-7.13,5.66,5.66,0,0,1,5.81-2A8.6,8.6,0,0,1,281,61.35a7.32,7.32,0,0,1,6.05,2.86s5.23,0,6.79,3.37a7.55,7.55,0,0,1,.18,6.17s1.54,1.16,1.5,4.34C295.52,80.13,294.23,82.08,293.1,82.39Z" style="fill:#263238"></path><path d="M274.71,69.92a10.27,10.27,0,0,0,.37,2,8.14,8.14,0,0,0,.75,1.86,5.22,5.22,0,0,0,2.93,2.46,8.52,8.52,0,0,0,3.93.21c.65-.15,1.32-.26,2-.45l2-.59c-.62.29-1.26.54-1.89.82s-1.31.38-2,.58a8.46,8.46,0,0,1-4.15-.11,5.56,5.56,0,0,1-3.1-2.75A8.28,8.28,0,0,1,274.71,69.92Z" style="fill:#263238"></path><path d="M270.4,75.66a10.7,10.7,0,0,0,2.76-2.27,6.45,6.45,0,0,0,.94-1.47,7.43,7.43,0,0,0,.55-1.71,4.49,4.49,0,0,1-.2,1.85,4.94,4.94,0,0,1-.93,1.64,6,6,0,0,1-1.42,1.23A5.34,5.34,0,0,1,270.4,75.66Z" style="fill:#263238"></path><path d="M290.48,83.32s1.87-5.7,4.36-5.17,2.07,8.1-.15,9.79a2.66,2.66,0,0,1-3.83-.34Z" style="fill:#ad6359"></path><path d="M294.67,80.32s.06,0,0,.06c-1.54,1.25-2,3.15-2.11,5a1.47,1.47,0,0,1,2-1c.05,0,0,.1,0,.11A1.62,1.62,0,0,0,293,85.58a7.72,7.72,0,0,0-.41,1.64c0,.18-.34.19-.34,0v0C291.53,84.93,292.33,81.27,294.67,80.32Z" style="fill:#263238"></path><path d="M297.29,77.16l-.45-10.92s-7.55-5.4-9.41-6.27-9.78-2.43-9.78-2.43L271,64.68Z" style="fill:#407BFF"></path><path d="M262.39,67.16s18,4,37.27,18.55l-2.37-8.55S284.62,66.39,271,64.68Z" style="fill:#407BFF"></path><path d="M262.39,67.16s18,4,37.27,18.55l-2.37-8.55S284.62,66.39,271,64.68Z" style="opacity:0.1"></path><path d="M354.42,164.08c-.09.21-61.68,13.22-62.49,12.77-1.12-.64-8.09-62.28-4.51-73,.77-2.3,8.72-8.9,15.21-5.38C327.88,112.12,354.74,163.3,354.42,164.08Z" style="fill:#c7c7c7"></path><path d="M353.23,161.81c-.22.07-61.57,13.19-62.31,12.63a8.77,8.77,0,0,1-2.73-3.45C286,166.61,287,160.88,287,160.88a11.93,11.93,0,0,1-1.52-9.09c-3-5.48-1.33-9-1.33-9-1.67-12.71-.23-32.58,2.31-38.85,1.62-4,12.23-9.29,18.76-5,10.27,6.83,20.37,18.47,29,29.48,0,0,5.35,3.65,6.93,9.39a10.77,10.77,0,0,1,6.41,8.11s6.13,5.64,6.93,11.17A6.52,6.52,0,0,1,353.23,161.81Z" style="fill:#407BFF"></path><path d="M308,122.81c-3,1-10.82-1.54-13.85-5.86s-2.62-16.15,3.65-15.19c4.13.63,11.52,9,12.9,13.19S311,121.86,308,122.81Z" style="fill:#c7c7c7"></path><path d="M352.09,151.49,287,167a20.52,20.52,0,0,1-.23-3.76l62.9-15A29.63,29.63,0,0,1,352.09,151.49Z" style="fill:#fff"></path><path d="M346.43,142.82l-61,14.54a12.07,12.07,0,0,1-.33-3.73l58.77-14A10.69,10.69,0,0,1,346.43,142.82Z" style="fill:#fff"></path><path d="M339.86,134.87,284,148.19a10.46,10.46,0,0,1-.29-3.76l53.86-12.83A18.5,18.5,0,0,1,339.86,134.87Z" style="fill:#fff"></path><path d="M309.34,123c2.05,3.38,4,6.8,6,10.23l5.82,10.34L326.83,154c1.87,3.48,3.72,7,5.5,10.51-2.06-3.38-4-6.81-6-10.23L320.51,144l-5.67-10.42C313,130,311.12,126.55,309.34,123Z" style="fill:#263238"></path><path d="M286,107q.69,4.08,1.44,8.14l1.49,8.14c1,5.41,2,10.83,3.22,16.21s2.38,10.75,3.93,16a57.13,57.13,0,0,0,2.82,7.73l3.18,7.64-3.53-7.48a60.89,60.89,0,0,1-3-7.72c-1.67-5.27-2.92-10.66-4.11-16s-2.15-10.82-3.05-16.27c-.44-2.72-.87-5.44-1.27-8.17S286.36,109.69,286,107Z" style="fill:#263238"></path><path d="M347.49,146c-5,1.39-10,2.7-15.07,4l-15.11,3.81-15.15,3.65c-5.06,1.19-10.12,2.36-15.21,3.45,5-1.39,10-2.71,15.07-4l15.11-3.81,15.16-3.65C337.35,148.22,342.41,147.05,347.49,146Z" style="fill:#263238"></path><path d="M341.09,137.85c-4.6,1.31-9.23,2.55-13.85,3.77l-13.89,3.57-13.94,3.4c-4.65,1.1-9.3,2.19-14,3.2,4.6-1.31,9.22-2.54,13.84-3.76l13.9-3.57,13.93-3.4C331.75,140,336.41,138.86,341.09,137.85Z" style="fill:#263238"></path><rect x="285.93" y="127.26" width="12.74" height="4.15" transform="translate(601.79 209.26) rotate(170.61)" style="fill:#263238"></rect><rect x="287.23" y="135.1" width="12.74" height="4.15" transform="translate(605.64 224.64) rotate(170.61)" style="fill:#263238"></rect><rect x="294.88" y="166.19" width="12.74" height="4.15" transform="translate(625.91 285.16) rotate(170.61)" style="fill:#263238"></rect><path d="M302.93,109.38c2.17,9.07,6.63,45.23-2.17,53.86-10.66,10.45-28.37,18.7-34.91,22.77-1.64,1-13.16-24.87-9-26.9,6.5-3.13,21.45-10.3,22.59-11.35,2-1.83,7.35-25.1,10.69-37.71C293.16,98.7,301.65,104,302.93,109.38Z" style="fill:#ad6359"></path><path d="M230,173.55a4.1,4.1,0,0,0,3.11,3.52,6.15,6.15,0,0,0-.54,4.13c.66,2.43,4.76,2.47,4.76,2.47a7.54,7.54,0,0,0,.12,4.44c.86,2.26,5,2.89,5,2.89a6.64,6.64,0,0,0,2.57,3.84c3.54,2.35,9.44-.34,13.21-2s12.9-9.93,14.8-11.33l-10.51-24.29s-19,2.68-23.19,5.27C235.86,164.66,229.78,170.34,230,173.55Z" style="fill:#ad6359"></path><path d="M233.15,176.61c3.17-3.21,7.11-5.32,10.92-7.64.09-.05.17.08.08.13-3.82,2.27-7.14,5.26-10.86,7.68A.11.11,0,0,1,233.15,176.61Z" style="fill:#263238"></path><path d="M237.31,183.32a11.5,11.5,0,0,1,2.59-1.65c1-.52,1.93-1,2.9-1.51q2.92-1.47,5.92-2.78c.09,0,.17.08.08.13-1.94,1-3.87,2-5.77,3l-2.84,1.61a13.83,13.83,0,0,1-2.73,1.41A.15.15,0,0,1,237.31,183.32Z" style="fill:#263238"></path><path d="M242.56,191A8.35,8.35,0,0,1,245,189.6l2.68-1.29c1.79-.88,3.58-1.75,5.33-2.69.09,0,.17.09.08.14-1.78,1-3.54,1.94-5.33,2.88L245.1,190a7.69,7.69,0,0,1-2.5,1S242.53,191,242.56,191Z" style="fill:#263238"></path><path d="M263.5,155.79,273,184s24.11-12,29.93-21.74,3.84-34.66,1.47-48.29S292.94,94.48,288,115.68s-8.12,30.38-8.91,31.31S263.5,155.79,263.5,155.79Z" style="fill:#c7c7c7"></path><path d="M294,171.2c.37-.83,6.94-4.66,10.27-12.21,1.45-3.3,2.45-13.36,2.4-19.65,0-2.41-.26-4.82-.43-7.22-.35-4.86-.79-9.72-.82-14.58a0,0,0,1,1,.09,0,93,93,0,0,1,1.26,9.29c0-.17.07-.34.1-.51a43.71,43.71,0,0,0,.74-4.39c0-.11.18-.08.16,0-.18,1.46-.22,2.93-.36,4.39-.07.71-.14,1.41-.27,2.12,0,.26-.1.54-.16.83.07,1,.14,1.93.19,2.9.13,2.45.12,4.9.21,7.36.23,6.76-.51,15.69-2.41,20.31-3.22,7.8-10.61,11-10.8,11.35C294.06,171.31,293.9,171.32,294,171.2Z" style="fill:#263238"></path><path d="M277.68,180.27c-1-2.06-1.65-4.28-2.41-6.43s-1.48-4.23-2.2-6.36c-1.45-4.29-3-8.58-4.18-13a.08.08,0,0,1,.15-.06c1.89,4.17,3.34,8.54,4.83,12.86.75,2.16,1.46,4.34,2.15,6.52a59,59,0,0,1,1.83,6.39C277.87,180.33,277.72,180.35,277.68,180.27Z" style="fill:#263238"></path><path d="M90.77,422.81a1.51,1.51,0,0,1-.3,0,2.39,2.39,0,0,1-1.62-.91,2.43,2.43,0,0,1-.5-1.8l1-8.35,1,.13-1,8.35a1.43,1.43,0,0,0,1.24,1.59,1.43,1.43,0,0,0,1.6-1.24l.4-3.2,1,.12-.4,3.2A2.43,2.43,0,0,1,90.77,422.81Z" style="fill:#dbdbdb"></path></g><g id="freepik--boat--inject-2"><path d="M214.37,384.48h294c35.33,0,101.92-87.24,101.92-87.24-.49-4.66-110.92-2.88-117-1.31-30.09,7.83-85.44,23.64-152,23.64-135.41,0-192.73-1.22-201.71-1.22C139.67,318.35,185.61,384.48,214.37,384.48Z" style="fill:#407BFF"></path><path d="M214.37,384.48h294c35.33,0,101.92-87.24,101.92-87.24-.49-4.66-110.92-2.88-117-1.31-30.09,7.83-85.44,23.64-152,23.64-135.41,0-192.73-1.22-201.71-1.22C139.67,318.35,185.61,384.48,214.37,384.48Z" style="opacity:0.2"></path><path d="M610.33,297.24s-66.59,87.24-101.92,87.24H375s38.71-2.13,48.59-7.11c23.66-11.94,69.78-81.44,69.78-81.44l.19,0C501.4,294.33,609.84,292.62,610.33,297.24Z" style="opacity:0.1"></path><path d="M139.67,318.35c19.74.14,39.47.07,59.19-.05s39.43-.31,59.13-.49l29.55-.48c9.85-.11,19.7-.36,29.54-.55l29.53-.79,14.75-.44c4.78-.15,9.61-.54,14.43-1,19.31-2,38.64-5.49,57.88-9.33,9.62-1.94,19.22-4,28.83-6.1s19.17-4.34,28.86-6.52c1.22-.27,2.43-.54,3.72-.79.59-.13,1.4-.27,2.07-.37l2-.23c2.58-.26,5.09-.37,7.61-.48,5-.19,10-.24,14.95-.23,9.92,0,19.82.31,29.7.75s19.75,1.09,29.61,1.87c4.93.41,9.85.91,14.77,1.46,2.46.27,4.91.61,7.36,1,1.23.19,2.45.39,3.67.62.61.11,1.22.25,1.82.4a5.28,5.28,0,0,1,1.73.67,5.15,5.15,0,0,0-1.78-.42c-.61-.07-1.22-.11-1.83-.16-1.23-.08-2.46-.13-3.69-.17-2.46-.08-4.93-.08-7.39-.12-4.93-.05-9.86,0-14.78.05-9.86.05-19.71.3-29.55.49q-7.38.16-14.75.44c-4.92.18-9.83.32-14.72.56s-9.79.52-14.62.94c-2.41.21-4.81.47-7.13.77l-1.7.26c-.55.09-.95.17-1.57.31-1.12.25-2.32.54-3.5.83-19.07,4.74-38.29,9.7-57.68,13.74q-14.53,3.11-29.24,5.62c-4.9.83-9.81,1.61-14.75,2.31s-9.9,1.29-14.89,1.75-10,.86-15.09,1l-14.83.29c-9.88.23-19.76.24-29.64.29s-19.76,0-29.63-.12-19.76-.35-29.63-.54c-19.75-.46-39.48-1.32-59.2-2.38-9.86-.58-19.72-1.16-29.57-1.93S149.48,319.51,139.67,318.35Z" style="fill:#ebebeb"></path></g><g id="freepik--Fishes--inject-2"><path d="M143.93,438.53c-1.05,0-12.54-20.08-24.23-22.85S89.88,417.87,88.94,418s4.75,4.87,4.44,5-3.74-2.39-4.46-2.26,8.36,22.07,20.14,25.55c14.4,4.25,33.64-3.62,33.64-3.62s-.63,11.59,3.41,10.53.07-10.27.07-10.27,3.29,2.32,6.41,1.83,9.9-6.1,8.61-7.64C158,433.31,143.93,438.53,143.93,438.53Z" style="fill:#c7c7c7"></path><path d="M102.58,422.05c3.24-.11,3.4,4.93.16,5S99.34,422.15,102.58,422.05Z" style="fill:#263238"></path><path d="M112.31,430.17c1.28-3.43-1-9.93-3.26-14a.06.06,0,0,1,.1-.06c1.63,2.27,6.5,10.14,4.09,15.11-1.92,3.95-10.84,6.43-13.76,6.59-.2,0-.22-.15,0-.2,2.3-.65,11.58-4,12.85-7.44" style="opacity:0.2"></path><path d="M657.51,435.41s-16.34-13.16-28.68-12.81S603.52,435.19,603.17,436s6.89,1.95,6.89,1.95-5.18-.61-5.82.08,13.57,11.37,22.4,13,30.17-12.58,30.17-12.58,4.58,8.94,8.23,6c2.31-1.85-6.21-7.11-6.21-7.11s15.17-2.27,12.3-5.78C668.92,428.88,660.43,430.21,657.51,435.41Z" style="fill:#c7c7c7"></path><path d="M614.9,435.46c2.85-1.55,5.25,2.88,2.39,4.43S612,437,614.9,435.46Z" style="fill:#263238"></path><path d="M621.77,448.87c1.76-1.62,8.56-8.76,8.16-12.41s-5.31-8.45-9.2-11c-.06-.05,0-.14.06-.1,2.48,1.29,10.36,6.15,10.43,11.67.06,4.39-6.8,10.61-9.34,12.06C621.7,449.14,621.61,449,621.77,448.87Z" style="opacity:0.2"></path><path d="M593.61,453.38s-5.71-7.22-11.12-7.31-15.15,6.89-15.08,7.39,4.93,8.27,11.7,10.22,14.74-8.52,14.74-8.52,1.82,2.67,3.46,2.12-1.79-3.09-1.79-3.09,3.87-2.17,2.7-4.34C597.53,448.58,594.78,450.44,593.61,453.38Z" style="fill:#c7c7c7"></path><path d="M573.6,456.15a1.58,1.58,0,0,0,1.51-2.78A1.58,1.58,0,0,0,573.6,456.15Z" style="fill:#263238"></path><path d="M576.22,448.36c1,.88,4.66,4.78,4.44,6.77s-2.9,4.61-5,6c0,0,0,.07,0,0,1.34-.71,5.65-3.35,5.69-6.36,0-2.39-3.71-5.79-5.09-6.58C576.18,448.21,576.13,448.29,576.22,448.36Z" style="opacity:0.2"></path><path d="M233.77,432.42s5.72-7.22,11.13-7.3S260.05,432,260,432.51s-4.93,8.27-11.7,10.22-14.74-8.52-14.74-8.52-1.83,2.67-3.47,2.12,1.8-3.09,1.8-3.09-3.87-2.17-2.7-4.35C229.85,427.63,232.61,429.49,233.77,432.42Z" style="fill:#c7c7c7"></path><path d="M253.78,435.2a1.58,1.58,0,0,1-1.5-2.78A1.58,1.58,0,0,1,253.78,435.2Z" style="fill:#263238"></path><path d="M251.17,427.41c-1,.88-4.67,4.78-4.44,6.77s2.89,4.61,5,6c0,0,0,.08,0,.06-1.35-.71-5.65-3.35-5.69-6.36,0-2.4,3.71-5.79,5.09-6.58C251.2,427.26,251.25,427.33,251.17,427.41Z" style="opacity:0.2"></path><path d="M469.56,430.46s-8.09-1.65-12.43-.08S448,437.72,448,438s8.15,1.61,11.46.47,10.27-7.09,10.27-7.09,5.17,2.52,6,1.37-4.78-2-4.78-2,5.6-2.92,4.77-4.12S469.56,430.46,469.56,430.46Z" style="fill:#455a64"></path><path d="M662.54,459s-7.49-3.47-12.08-2.94-10.56,5.05-10.62,5.33,7.57,3.43,11,3.08,11.63-4.54,11.63-4.54,4.45,3.65,5.54,2.72-4.2-3-4.2-3,6.12-1.55,5.59-2.91S662.54,459,662.54,459Z" style="fill:#455a64"></path><path d="M306.94,442.13S299.82,438,295.2,438s-11,4-11.09,4.26,7.2,4.16,10.69,4.15,12-3.38,12-3.38,4.07,4.06,5.25,3.24-3.89-3.41-3.89-3.41,6.25-.94,5.85-2.35S306.94,442.13,306.94,442.13Z" style="fill:#455a64"></path><path d="M420.32,425.82s-4.23-2.8-7.17-2.75-8.37,3.05-8.72,3.62,6.23,3.5,8.46,3.1a35,35,0,0,0,7.16-3c.11-.11,3,3.69,4.44,2.4s-3.58-2.86-3.58-2.86,4.33-1.45,3.95-2.65S421.52,424.17,420.32,425.82Z" style="fill:#455a64"></path><path d="M170.73,427s4.94-1.15,7.67-.08,6.79,5.78,6.92,6.42-7.06,1.12-9,0a34.32,34.32,0,0,1-5.66-5.31c-.07-.15-4.11,2.4-5,.7s4.34-1.43,4.34-1.43-3.54-2.87-2.76-3.87S170.18,425,170.73,427Z" style="fill:#455a64"></path><path d="M509,428.56s-5.78,10.49-11.15,12.74S480.45,443,480.45,443s7.07-10.09,12.95-11.89,14.38-3.63,14.38-3.63,2-9.86,4.53-8.8-2.76,8.29-2.76,8.29,7.65-7.07,9.11-4.67S509,428.56,509,428.56Z" style="fill:#455a64"></path><path d="M84.36,458.52s4-2.82,6.68-3.34,8.2,3,8.2,3-4.12,3.56-7.44,4-7.08-2.3-7.08-2.3S80.28,463,79.66,462s4-2.51,4-2.51-5.23-.31-5.12-1.93S84.36,458.52,84.36,458.52Z" style="fill:#455a64"></path><path d="M431.4,446.55s-4.81.73-7.13,2.24-3.84,7.83-3.84,7.83,5.43-.31,8.15-2.27,3.5-6.56,3.5-6.56,5.37-.83,5.1-2-4.6,1-4.6,1,3.54-3.85,2.34-4.94S431.4,446.55,431.4,446.55Z" style="fill:#455a64"></path></g><g id="freepik--Water--inject-2"><path d="M126.09,282.47c7.68-.21,15.36-.31,23-.39l23-.11,23,.11,11.52.14,11.52.25-11.52.24-11.52.14-23,.12-23-.12C141.45,282.77,133.77,282.67,126.09,282.47Z" style="fill:#dbdbdb"></path><polygon points="101.75 384.51 129.22 384.27 156.68 384.13 211.6 384.01 266.53 384.13 293.99 384.26 321.45 384.51 293.99 384.75 266.53 384.89 211.6 385.01 156.68 384.89 129.22 384.75 101.75 384.51" style="fill:#dbdbdb"></polygon><polygon points="476.34 384.51 503.8 384.27 531.26 384.13 586.19 384.01 641.11 384.13 668.58 384.26 696.04 384.51 668.58 384.75 641.11 384.89 586.19 385.01 531.26 384.89 503.8 384.75 476.34 384.51" style="fill:#dbdbdb"></polygon><polygon points="403.86 391.85 426.65 391.61 449.44 391.47 495.02 391.35 540.61 391.46 563.4 391.6 586.19 391.85 563.4 392.09 540.61 392.23 495.02 392.35 449.44 392.23 426.65 392.09 403.86 391.85" style="fill:#dbdbdb"></polygon><path d="M525.35,261.64c6.24-.2,12.48-.3,18.71-.38s12.48-.07,18.71-.12,12.48,0,18.71.12l9.36.14c3.12.08,6.24.13,9.36.24-3.12.12-6.24.17-9.36.25l-9.36.14c-6.23.08-12.47.07-18.71.11s-12.47,0-18.71-.11S531.59,261.85,525.35,261.64Z" style="fill:#dbdbdb"></path><path d="M571.17,252.71c3.67-.21,7.34-.31,11-.39s7.33-.1,11-.11,7.33,0,11,.11l5.5.14c1.83.09,3.66.13,5.5.25-1.84.11-3.67.16-5.5.24l-5.5.14c-3.67.09-7.33.11-11,.12s-7.33,0-11-.12S574.84,252.91,571.17,252.71Z" style="fill:#dbdbdb"></path><path d="M83.32,271.21c3.66-.2,7.31-.3,11-.38s7.31-.1,11-.12,7.31,0,11,.12l5.48.14c1.82.08,3.65.13,5.48.24-1.83.12-3.66.17-5.48.25l-5.48.14c-3.65.09-7.31.1-11,.11s-7.3,0-11-.11S87,271.42,83.32,271.21Z" style="fill:#dbdbdb"></path><path d="M49.53,416c1.74-.1,3.48-.09,5.21-.26s3.47-.28,5.2-.51l5.17-.65,5.17-.75q10.31-1.61,20.56-3.56,20.52-3.89,40.88-8.48h.11c12.67,3.32,25.44,6.32,38.29,8.84,6.43,1.27,12.88,2.41,19.37,3.31A152.15,152.15,0,0,0,209,415.67a142.17,142.17,0,0,0,19.53-1.57c6.48-.88,12.92-2.08,19.35-3.35,12.84-2.58,25.58-5.66,38.21-9.09l.12,0,.12,0a366.4,366.4,0,0,0,39.55,10.17c6.68,1.3,13.4,2.4,20.17,3.07,1.69.16,3.39.26,5.08.4s3.39.12,5.09.19,3.39,0,5.09-.05l2.54-.08,2.55-.18c6.78-.45,13.55-1.28,20.29-2.21s13.47-2.06,20.18-3.23q20.13-3.6,40.07-8.11l.13,0,.14.06a169.39,169.39,0,0,0,20.53,6.5c7,1.79,14,3.22,21.13,4.38s14.26,1.91,21.44,2.49,14.37.74,21.57.57c1.8,0,3.6,0,5.4-.11l5.39-.27,2.69-.13,2.7-.22,5.38-.44c7.16-.74,14.31-1.57,21.41-2.79a304.11,304.11,0,0,0,42-9.83l.07,0,.08,0c6.77,2,13.62,3.79,20.5,5.43s13.8,3.08,20.76,4.36,14,2.29,21,3.11,14.1,1.22,21.18,1.31c-7.08,0-14.15-.46-21.19-1.18s-14-1.76-21-3-13.91-2.65-20.81-4.24-13.75-3.34-20.56-5.32h.16A307.06,307.06,0,0,1,575,412.22c-7.11,1.24-14.28,2.08-21.45,2.84l-5.4.45-2.69.22-2.7.15-5.41.28c-1.8.07-3.6.08-5.41.12-7.21.19-14.43-.1-21.63-.53s-14.38-1.31-21.51-2.46-14.21-2.57-21.21-4.34a171.92,171.92,0,0,1-20.67-6.51l.27,0q-20,4.57-40.1,8.2c-6.72,1.18-13.45,2.34-20.21,3.27-3.38.52-6.77.89-10.16,1.32s-6.79.72-10.21.91l-2.56.17-2.56.08c-1.71,0-3.42.13-5.14,0s-3.42-.05-5.13-.2-3.41-.25-5.11-.41c-6.81-.69-13.55-1.82-20.25-3.13a368.24,368.24,0,0,1-39.63-10.27h.23c-12.66,3.42-25.42,6.48-38.29,9-6.44,1.27-12.89,2.45-19.4,3.32A143.2,143.2,0,0,1,209,416.32a151.34,151.34,0,0,1-19.61-1.75c-6.5-.92-13-2.07-19.39-3.36-12.86-2.55-25.63-5.56-38.3-8.92h.11q-20.4,4.45-40.93,8.24Q80.62,412.41,70.3,414l-5.17.72-5.19.62c-1.72.22-3.46.31-5.19.48S51.27,415.93,49.53,416Z" style="fill:#dbdbdb"></path></g></svg>
