<svg xmlns="http://www.w3.org/2000/svg" viewBox="0 0 750 500"><g id="freepik--background-complete--inject-2"><circle cx="627.17" cy="385.69" r="72.58" transform="translate(-89.03 556.44) rotate(-45)" style="fill:#e0e0e0"></circle><path d="M693.34,365.77l-7.59-10.55a15.06,15.06,0,1,0-18-24.11l-8-10.27a28.06,28.06,0,1,1,33.6,44.93Z" style="fill:#e0e0e0"></path><rect x="415.39" y="99.34" width="31.95" height="68.39" style="fill:#f5f5f5"></rect><rect x="448.67" y="172.52" width="39.26" height="66.08" style="fill:#f5f5f5"></rect><polygon points="492.7 98.16 529.99 98.16 529.99 37.49 531.31 37.49 531.31 98.16 565.82 98.16 565.82 36.14 492.7 36.14 492.7 98.16" style="fill:#f5f5f5"></polygon><rect x="415.39" y="172.52" width="31.95" height="66.08" style="fill:#f5f5f5"></rect><rect x="531.31" y="172.52" width="34.5" height="66.08" style="fill:#f5f5f5"></rect><rect x="448.67" y="99.34" width="39.26" height="68.39" style="fill:#f5f5f5"></rect><rect x="531.31" y="99.34" width="34.5" height="68.39" style="fill:#f5f5f5"></rect><rect x="415.39" y="239.78" width="31.95" height="59.55" style="fill:#f5f5f5"></rect><polygon points="447.34 98.16 447.34 37.49 448.67 37.49 448.67 98.16 487.93 98.16 487.93 36.14 415.39 36.14 415.39 98.16 447.34 98.16" style="fill:#f5f5f5"></polygon><rect x="448.67" y="239.78" width="39.26" height="59.55" style="fill:#f5f5f5"></rect><rect x="531.31" y="239.78" width="34.5" height="59.55" style="fill:#f5f5f5"></rect><rect x="492.7" y="99.34" width="37.28" height="68.39" style="fill:#f5f5f5"></rect><rect x="492.7" y="239.78" width="37.28" height="59.55" style="fill:#f5f5f5"></rect><rect x="492.7" y="172.52" width="37.28" height="66.08" style="fill:#f5f5f5"></rect><rect x="259.67" y="99.34" width="31.95" height="68.39" style="fill:#f5f5f5"></rect><rect x="292.95" y="172.52" width="39.26" height="66.08" style="fill:#f5f5f5"></rect><polygon points="336.99 98.16 374.27 98.16 374.27 37.49 375.6 37.49 375.6 98.16 410.1 98.16 410.1 36.14 336.99 36.14 336.99 98.16" style="fill:#f5f5f5"></polygon><rect x="259.67" y="172.52" width="31.95" height="66.08" style="fill:#f5f5f5"></rect><rect x="375.6" y="172.52" width="34.5" height="66.08" style="fill:#f5f5f5"></rect><rect x="292.95" y="99.34" width="39.26" height="68.39" style="fill:#f5f5f5"></rect><rect x="375.6" y="99.34" width="34.5" height="68.39" style="fill:#f5f5f5"></rect><rect x="259.67" y="239.78" width="31.95" height="59.55" style="fill:#f5f5f5"></rect><polygon points="291.62 98.16 291.62 37.49 292.95 37.49 292.95 98.16 332.21 98.16 332.21 36.14 259.67 36.14 259.67 98.16 291.62 98.16" style="fill:#f5f5f5"></polygon><rect x="292.95" y="239.78" width="39.26" height="59.55" style="fill:#f5f5f5"></rect><rect x="375.6" y="239.78" width="34.5" height="59.55" style="fill:#f5f5f5"></rect><rect x="336.99" y="99.34" width="37.28" height="68.39" style="fill:#f5f5f5"></rect><rect x="336.99" y="239.78" width="37.28" height="59.55" style="fill:#f5f5f5"></rect><rect x="336.99" y="172.52" width="37.28" height="66.08" style="fill:#f5f5f5"></rect><rect x="64.24" y="51.29" width="110.67" height="154.08" style="fill:#fff"></rect><path d="M174.91,205.37s0-.25,0-.74,0-1.22,0-2.17c0-1.91,0-4.73,0-8.4,0-7.34,0-18.07-.07-31.64,0-27.12-.07-65.61-.11-111.13l.23.23-110.66,0h0l.26-.26c0,57.66,0,111,0,154.08l-.21-.21,80.47.11,22.32.06,5.86,0,2,0-2,0-5.83,0-22.27.05-80.6.11H64v-.21C64,162.3,64,109,64,51.29V51h.27l110.66,0h.24v.24c-.05,45.58-.09,84.13-.12,111.29,0,13.54-.05,24.25-.06,31.58,0,3.65,0,6.45,0,8.36,0,.93,0,1.65,0,2.14S174.91,205.37,174.91,205.37Z" style="fill:#e0e0e0"></path><rect x="75.39" y="132.75" width="86.23" height="5.55" style="fill:#f5f5f5"></rect><rect x="95.22" y="130.65" width="48.58" height="10.04" style="fill:#f5f5f5"></rect><path d="M111.87,88.45c4.95,0,7.23,3,7.23,7.91v16c0,4.86-2.28,7.86-7.23,7.86h-7.46V88.45ZM111.82,117c2.55,0,3.78-1.59,3.78-4.5V96.18c0-2.91-1.23-4.5-3.82-4.5H108V117Z" style="fill:#e0e0e0"></path><path d="M122.14,96.13c0-4.86,2.41-8,7.27-8s7.32,3.14,7.32,8v16.46c0,4.82-2.41,8-7.32,8s-7.27-3.18-7.27-8Zm3.5,16.64c0,2.91,1.23,4.59,3.77,4.59s3.78-1.68,3.78-4.59V96c0-2.86-1.19-4.59-3.78-4.59s-3.77,1.73-3.77,4.59Z" style="fill:#e0e0e0"></path><path d="M114.11,149.08v34.69h-3.86V149.08Z" style="fill:#e0e0e0"></path><path d="M123.13,183.77V152.59h-6.39v-3.51h16.65v3.51H127v31.18Z" style="fill:#e0e0e0"></path><polygon points="78.27 91.08 82.47 106.25 86.16 102.06 92.32 112.52 88.24 94.52 84.43 98.84 78.27 91.08" style="fill:#f5f5f5"></polygon><polygon points="160.67 89.56 156.47 104.72 152.78 100.53 146.63 110.99 150.7 92.99 154.51 97.31 160.67 89.56" style="fill:#f5f5f5"></polygon><polygon points="118.99 58.78 113.52 76.87 119.96 74.98 119.5 89.56 126.91 68.66 120.26 70.61 118.99 58.78" style="fill:#e0e0e0"></polygon><polygon points="143.24 116.42 142.24 116.42 142.24 75.59 98.19 75.59 98.19 116.42 97.19 116.42 97.19 74.59 143.24 74.59 143.24 116.42" style="fill:#e0e0e0"></polygon><polygon points="143.24 190.15 97.19 190.15 97.19 148.32 98.19 148.32 98.19 189.15 142.24 189.15 142.24 148.32 143.24 148.32 143.24 190.15" style="fill:#e0e0e0"></polygon><path d="M88.61,116.42h3.3a3.32,3.32,0,0,1,3.32,3.32v31.53a3.31,3.31,0,0,1-3.31,3.31h-3.3a3.31,3.31,0,0,1-3.31-3.31V119.73A3.31,3.31,0,0,1,88.61,116.42Z" style="fill:#e0e0e0"></path><path d="M147.12,116.42h3.3a3.31,3.31,0,0,1,3.31,3.31v31.53a3.31,3.31,0,0,1-3.31,3.31h-3.3a3.31,3.31,0,0,1-3.31-3.31V119.73A3.32,3.32,0,0,1,147.12,116.42Z" style="fill:#e0e0e0"></path><rect x="81.21" y="129.69" width="4.09" height="10.63" style="fill:#ebebeb"></rect><rect x="153.65" y="129.69" width="4.09" height="10.63" style="fill:#ebebeb"></rect><rect x="55.24" y="53.46" width="30.96" height="5.56" transform="translate(-19.63 54.7) rotate(-37.51)" style="fill:#e0e0e0"></rect><rect x="152.22" y="198.5" width="30.96" height="5.56" transform="matrix(0.79, -0.61, 0.61, 0.79, -87.89, 143.75)" style="fill:#e0e0e0"></rect><rect x="453.82" y="332.12" width="48.65" height="12.87" style="fill:#ebebeb"></rect><rect x="669.97" y="163.81" width="48.65" height="12.87" style="fill:#ebebeb"></rect><path d="M481.9,358.55s0-.09,0-.24l0-.66c0-.6,0-1.45,0-2.53,0-2.22,0-5.42-.09-9.44l.15.15-48.65.09.25-.24h0v6.52c0,2.14,0,4.26,0,6.33l-.24-.25,34.67.11,10.24.07,2.76,0h.73l.25,0h-.22l-.7,0-2.71,0-10.18.07-34.84.11H433v-.24c0-2.07,0-4.19,0-6.33V345.7h0l.25-.25,48.65.09h.16v.15c0,4.06-.06,7.29-.08,9.53,0,1.07,0,1.9,0,2.5,0,.26,0,.47,0,.63A.85.85,0,0,1,481.9,358.55Z" style="fill:#e0e0e0"></path><rect x="50.3" y="253.42" width="48.65" height="12.87" style="fill:#ebebeb"></rect><path d="M78.38,279.85a2.07,2.07,0,0,1,0-.23l0-.66c0-.61,0-1.45,0-2.54,0-2.22,0-5.41-.08-9.44l.15.15-48.65.1L30,267h0v3.27c0,1.09,0,2.18,0,3.25v6.33l-.24-.24,34.67.11,10.23.07,2.77,0,.72,0h.26s-.07,0-.22,0h-.7l-2.71,0L64.57,280l-34.84.11h-.24v-.24q0-3.11,0-6.33V267h0l.25-.25,48.65.1h.15V267c0,4.07-.06,7.29-.08,9.53,0,1.07,0,1.9,0,2.5,0,.26,0,.47,0,.64S78.39,279.86,78.38,279.85Z" style="fill:#e0e0e0"></path><path d="M668.72,265.15a1,1,0,0,1,0-.23c0-.18,0-.39,0-.66,0-.61,0-1.45,0-2.54,0-2.22,0-5.41-.09-9.44l.16.15-48.65.1c.11-.11-.25.24.24-.25h0v6.52q0,3.23,0,6.33l-.24-.24,34.67.11,10.24.07,2.77,0,.72,0h.26a1,1,0,0,1-.23,0h-.69l-2.72,0-10.18.07-34.84.11h-.24v-6.57c0-1.07,0-2.16,0-3.25V252.3h0c.5-.5.14-.14.26-.25l48.65.1h.15v.15c0,4.07-.07,7.29-.09,9.53,0,1.07,0,1.91,0,2.5l0,.64A1.23,1.23,0,0,1,668.72,265.15Z" style="fill:#e0e0e0"></path><path d="M675.31,252.28s0-.09,0-.25,0-.4,0-.68c0-.63,0-1.49,0-2.58,0-2.25-.06-5.44-.1-9.36l.18.18-29.23.07c-.22.22.3-.31.25-.25h0v3.33c0,1.11,0,2.2,0,3.28v6.24l-.24-.24,20.91.12,6.09.06,1.64,0,.59,0a3.28,3.28,0,0,1-.53,0l-1.59,0-6,.06-21.07.12h-.24v-.24c0-2,0-4.09,0-6.24v-6.61h0l.25-.25,29.23.07h.18v.18c0,4-.07,7.19-.1,9.47,0,1.07,0,1.92,0,2.54A6.65,6.65,0,0,1,675.31,252.28Z" style="fill:#e0e0e0"></path><path d="M627,70.72a1.35,1.35,0,0,1,0-.24c0-.17,0-.39,0-.66,0-.6,0-1.45,0-2.53,0-2.22-.05-5.42-.09-9.45L627,58l-48.65.09c.11-.11-.25.25.24-.25h0V70.72l-.25-.25,34.67.11,10.24.07,2.77,0,.72,0,.26,0h-.23l-.69,0-2.72,0-10.18.07L578.36,71h-.24V64.38c0-1.07,0-2.15,0-3.24V57.85h0c.5-.49.14-.13.26-.24l48.65.09h.15v.15c0,4.07-.07,7.3-.09,9.54,0,1.07,0,1.9,0,2.5l0,.63A1.66,1.66,0,0,1,627,70.72Z" style="fill:#e0e0e0"></path><path d="M633.61,57.84s0-.08,0-.24,0-.41,0-.68c0-.64,0-1.5,0-2.58,0-2.26-.06-5.45-.1-9.37l.18.18-29.23.07.25-.25h0v3.35c0,1.1,0,2.2,0,3.27v6.24l-.24-.23,20.91.11,6.09.07,1.64,0,.59,0a3.28,3.28,0,0,1-.53,0l-1.59,0-6,.07-21.07.11h-.24v-.24q0-3,0-6.24V45h0c0,.06.47-.47.25-.24l29.23.07h.18V45c0,4-.07,7.19-.1,9.48,0,1.06,0,1.91,0,2.54A6.36,6.36,0,0,1,633.61,57.84Z" style="fill:#e0e0e0"></path><path d="M238.77,112.42a1.35,1.35,0,0,1,0-.24v-.66c0-.6,0-1.45,0-2.53,0-2.22,0-5.41-.08-9.44l.15.15-48.65.1c.11-.11-.25.24.24-.25h0v12.85l-.24-.24,34.67.11,10.23.07,2.77,0h.72l.26,0h-.23l-.69,0-2.71,0-10.18.07-34.84.11h-.25V99.57h0l.25-.25,48.65.1h.15v.15c0,4.06-.06,7.29-.08,9.53,0,1.07,0,1.9,0,2.5l0,.63A1.66,1.66,0,0,1,238.77,112.42Z" style="fill:#e0e0e0"></path><path d="M245.37,99.55a.77.77,0,0,1,0-.25c0-.18,0-.41,0-.68,0-.63,0-1.49-.05-2.58,0-2.26-.05-5.44-.09-9.36l.18.17-29.23.07.24-.24h0v6.61c0,2.15,0,4.24,0,6.24l-.24-.24,20.92.11,6.09.07,1.64,0,.59,0a3.43,3.43,0,0,1-.53,0l-1.6,0-6,.06-21.07.11h-.23v-.23c0-2,0-4.09,0-6.24V86.7h0l.25-.25,29.23.07h.18v.18c0,4-.07,7.19-.09,9.47,0,1.07,0,1.92,0,2.54S245.38,99.56,245.37,99.55Z" style="fill:#e0e0e0"></path></g><g id="freepik--Floor--inject-2"><path d="M715,457.31c0,.14-152.67.26-340.95.26s-341-.12-341-.26,152.64-.26,341-.26S715,457.16,715,457.31Z" style="fill:#263238"></path></g><g id="freepik--Speaker--inject-2"><rect x="614.09" y="68.94" width="8.08" height="15.18" transform="translate(1236.26 153.07) rotate(180)" style="fill:#263238"></rect><rect x="588.31" y="80.09" width="66.76" height="115.83" transform="translate(1243.38 276) rotate(180)" style="fill:#455a64"></rect><rect x="655.07" y="80.09" width="20.52" height="115.83" transform="translate(1330.66 276) rotate(180)" style="fill:#263238"></rect><circle cx="618.94" cy="114.45" r="19.07" transform="translate(406.25 706.86) rotate(-80.73)" style="fill:#263238"></circle><path d="M614.2,114.45a4.74,4.74,0,1,0,4.74-4.74A4.74,4.74,0,0,0,614.2,114.45Z" style="fill:#455a64"></path><circle cx="618.94" cy="166.57" r="19.07" transform="translate(-13.44 62.04) rotate(-5.68)" style="fill:#263238"></circle><path d="M614.2,166.57a4.74,4.74,0,1,0,4.74-4.74A4.74,4.74,0,0,0,614.2,166.57Z" style="fill:#455a64"></path><path d="M600,133.1s-.12-.09-.31-.3-.47-.5-.79-.92a24.3,24.3,0,0,1-2.42-3.76,26,26,0,0,1,2.37-28,24.48,24.48,0,0,1,3-3.3c.39-.36.72-.6.94-.77s.34-.26.35-.24-.41.42-1.15,1.16a28.49,28.49,0,0,0-2.87,3.37A26.45,26.45,0,0,0,596.82,128a28.75,28.75,0,0,0,2.27,3.8A14.46,14.46,0,0,1,600,133.1Z" style="fill:#263238"></path><path d="M591.75,121.3s-.17-.23-.4-.7a12.79,12.79,0,0,1-.78-2.06,19.24,19.24,0,0,1,1.34-14.18,12.68,12.68,0,0,1,1.15-1.88c.32-.42.5-.63.53-.61s-.58,1-1.35,2.65a21,21,0,0,0-1.32,13.92C591.37,120.22,591.84,121.26,591.75,121.3Z" style="fill:#263238"></path><path d="M639,128c-.1,0,.64-1.58,1.37-4.21a32.09,32.09,0,0,0,.92-4.7,35,35,0,0,0,.14-5.85,33.84,33.84,0,0,0-.94-5.79,30.08,30.08,0,0,0-1.55-4.53c-1.08-2.51-2-3.93-1.93-4a5.39,5.39,0,0,1,.7,1,11.47,11.47,0,0,1,.72,1.2c.26.49.58,1,.85,1.66a29.05,29.05,0,0,1,1.68,4.56,33.55,33.55,0,0,1,1,5.87,32,32,0,0,1-.19,6,28.94,28.94,0,0,1-1,4.74,18.49,18.49,0,0,1-.62,1.76,10.6,10.6,0,0,1-.55,1.29A5.17,5.17,0,0,1,639,128Z" style="fill:#263238"></path><path d="M646.9,122.74c-.09,0,.31-1.39.63-3.65a31.47,31.47,0,0,0-2.47-17.37c-.93-2.08-1.7-3.28-1.62-3.33a3.91,3.91,0,0,1,.6.8,20.57,20.57,0,0,1,1.36,2.37,28.52,28.52,0,0,1,2.49,17.59,20.14,20.14,0,0,1-.64,2.66A3.71,3.71,0,0,1,646.9,122.74Z" style="fill:#263238"></path><path d="M596.24,175.63a3,3,0,0,1-.52-.73,6.94,6.94,0,0,1-.51-.93,10.52,10.52,0,0,1-.57-1.28,17.09,17.09,0,0,1-.95-3.52,18.29,18.29,0,0,1,.77-8.84A17,17,0,0,1,596,157a11.61,11.61,0,0,1,.78-1.16,7.24,7.24,0,0,1,.67-.82c.39-.44.61-.66.64-.64s-.78,1-1.77,2.8a19.63,19.63,0,0,0-1.41,3.27,19.47,19.47,0,0,0-.75,8.62,18.25,18.25,0,0,0,.83,3.47C595.65,174.49,596.33,175.58,596.24,175.63Z" style="fill:#263238"></path><path d="M642,173.14c-.08,0,.46-1.1,1-2.93a21.3,21.3,0,0,0,.65-3.26,22.73,22.73,0,0,0,.07-4.07,23.17,23.17,0,0,0-.73-4,20.4,20.4,0,0,0-1.18-3.11c-.82-1.72-1.53-2.68-1.45-2.73s.23.2.56.63a13.3,13.3,0,0,1,1.22,1.93,17.8,17.8,0,0,1,1.31,3.14,21.3,21.3,0,0,1,.79,4.1,21.08,21.08,0,0,1-.11,4.17,18.38,18.38,0,0,1-.78,3.31,14.34,14.34,0,0,1-.89,2.11C642.18,172.9,642,173.16,642,173.14Z" style="fill:#263238"></path><rect x="661" y="68.94" width="8.08" height="15.18" transform="translate(1330.08 153.07) rotate(180)" style="fill:#263238"></rect></g><g id="freepik--musical-notes--inject-2"><path d="M497.42,192.4a3.32,3.32,0,1,1-4.19-2.11A3.32,3.32,0,0,1,497.42,192.4Z" style="fill:#263238"></path><path d="M496.61,191.5c-.11.17-3-1.77-6.1-4.74s-5.51-5.38-5.4-5.52,2.85,2,5.9,5S496.73,191.34,496.61,191.5Z" style="fill:#263238"></path><path d="M489.78,175.85c.19,0,.06,1.87-1.34,3.58s-3.18,2.25-3.22,2.07,1.41-1,2.66-2.53S489.57,175.8,489.78,175.85Z" style="fill:#263238"></path><path d="M492.13,178.37c.2,0,.15,1.84-1.34,3.42s-3.33,1.78-3.32,1.59,1.5-.67,2.78-2.09S491.92,178.33,492.13,178.37Z" style="fill:#263238"></path><path d="M564.31,269a3.32,3.32,0,1,1,1.92-4.29A3.32,3.32,0,0,1,564.31,269Z" style="fill:#263238"></path><path d="M565.17,268.14c-.17-.1,1.63-3.1,4.46-6.32s5.12-5.74,5.27-5.64-1.9,2.94-4.71,6.12S565.34,268.25,565.17,268.14Z" style="fill:#263238"></path><path d="M580.5,260.6c0,.19-1.87.15-3.64-1.17s-2.4-3.08-2.21-3.13,1,1.37,2.64,2.54S580.54,260.39,580.5,260.6Z" style="fill:#263238"></path><path d="M578.09,263.06c0,.2-1.84.23-3.48-1.18s-1.93-3.24-1.74-3.24.74,1.46,2.21,2.68S578.12,262.85,578.09,263.06Z" style="fill:#263238"></path><path d="M535.05,142.64a4.38,4.38,0,1,1,1.11-6.09A4.38,4.38,0,0,1,535.05,142.64Z" style="fill:#263238"></path><path d="M535.89,141.29c-.4-.13.86-4.6,3.47-9.62s4.84-8.92,5.21-8.77-1.26,4.49-3.86,9.45S536.29,141.42,535.89,141.29Z" style="fill:#263238"></path><path d="M555.69,131.71c0,.35-3.67.3-7.37-2.13a10.26,10.26,0,0,1-3.75-4.12c-.62-1.35-.47-2.32-.29-2.32s.46.76,1.23,1.79a13.83,13.83,0,0,0,3.65,3.39C552.47,130.52,555.79,131.24,555.69,131.71Z" style="fill:#263238"></path><path d="M546.18,151.45a4.38,4.38,0,1,1,1.11-6.1A4.38,4.38,0,0,1,546.18,151.45Z" style="fill:#263238"></path><path d="M547,150.09c-.4-.12.85-4.6,3.47-9.62s4.84-8.91,5.2-8.76-1.25,4.48-3.85,9.45S547.42,150.23,547,150.09Z" style="fill:#263238"></path><path d="M554.44,134.42c0,.4-3.46.58-7-1.58s-5-5.3-4.68-5.45,2.25,2.26,5.47,4.15S554.48,134,554.44,134.42Z" style="fill:#263238"></path><path d="M563.66,198a2.23,2.23,0,1,1,.73-3.07A2.24,2.24,0,0,1,563.66,198Z" style="fill:#263238"></path><path d="M564.13,197.29c-.2-.07.55-2.32,2-4.8s2.71-4.41,2.89-4.33-.76,2.25-2.21,4.71S564.33,197.37,564.13,197.29Z" style="fill:#263238"></path><path d="M574.46,192.94c0,.18-1.88.06-3.7-1.28a5.24,5.24,0,0,1-1.8-2.2c-.28-.7-.18-1.19-.08-1.19s.21.41.57.95a7.1,7.1,0,0,0,1.77,1.82C572.85,192.25,574.52,192.7,574.46,192.94Z" style="fill:#263238"></path><path d="M569.1,202.73a2.23,2.23,0,1,1,.72-3.07A2.24,2.24,0,0,1,569.1,202.73Z" style="fill:#263238"></path><path d="M569.56,202.07c-.2-.08.55-2.33,2-4.81s2.7-4.41,2.88-4.32-.76,2.25-2.21,4.7S569.76,202.15,569.56,202.07Z" style="fill:#263238"></path><path d="M573.75,194.29c0,.2-1.78.2-3.53-1s-2.43-2.83-2.24-2.9,1.08,1.21,2.67,2.26S573.78,194.06,573.75,194.29Z" style="fill:#263238"></path><path d="M497.39,270a2.23,2.23,0,1,1,.72-3.07A2.24,2.24,0,0,1,497.39,270Z" style="fill:#263238"></path><path d="M497.85,269.35c-.2-.08.56-2.33,2-4.81s2.7-4.41,2.88-4.32-.76,2.25-2.21,4.7S498.05,269.42,497.85,269.35Z" style="fill:#263238"></path><path d="M508.18,265c0,.18-1.88.06-3.7-1.27a5.3,5.3,0,0,1-1.8-2.2c-.28-.7-.17-1.2-.08-1.19s.21.4.57.94a7.1,7.1,0,0,0,1.77,1.82C506.57,264.3,508.24,264.75,508.18,265Z" style="fill:#263238"></path><path d="M502.82,274.79a2.23,2.23,0,1,1,.72-3.08A2.23,2.23,0,0,1,502.82,274.79Z" style="fill:#263238"></path><path d="M503.28,274.12c-.2-.08.56-2.32,2-4.81s2.7-4.41,2.88-4.32-.76,2.25-2.21,4.71S503.48,274.2,503.28,274.12Z" style="fill:#263238"></path><path d="M507.47,266.34c0,.2-1.78.2-3.53-1s-2.43-2.83-2.24-2.9,1.09,1.21,2.67,2.26S507.5,266.11,507.47,266.34Z" style="fill:#263238"></path><path d="M530.21,234.74a3.53,3.53,0,1,1-2.27-4.44A3.53,3.53,0,0,1,530.21,234.74Z" style="fill:#263238"></path><path d="M530.08,233.47c-.32.11-1.7-3.36-2.48-7.85s-1.26-8.07-1-8.15S528,221,528.8,225.4,530.4,233.36,530.08,233.47Z" style="fill:#263238"></path><path d="M538.07,217.67c.16.23-2.2,2-5.76,2.24a8.27,8.27,0,0,1-4.41-.81c-1.06-.55-1.43-1.25-1.32-1.34s.67.26,1.66.55a11.22,11.22,0,0,0,4,.38C535.43,218.48,537.9,217.32,538.07,217.67Z" style="fill:#263238"></path><path d="M541.62,234.94a3.52,3.52,0,1,1-2.26-4.44A3.53,3.53,0,0,1,541.62,234.94Z" style="fill:#263238"></path><path d="M541.5,233.66c-.32.12-1.71-3.36-2.49-7.85s-1.25-8.06-.94-8.14,1.38,3.48,2.15,7.92S541.82,233.56,541.5,233.66Z" style="fill:#263238"></path><path d="M538.59,220c.21.24-1.93,2.07-5.26,2.42s-5.82-.92-5.66-1.2,2.54.35,5.53,0S538.4,219.71,538.59,220Z" style="fill:#263238"></path></g><g id="freepik--speech-bubble--inject-2"><path d="M202.1,218.63l10.08,1.22a31.25,31.25,0,1,0-4.93-10.07v0Z" style="fill:#fff"></path><path d="M202.1,218.63s.09-.18.3-.56l1-1.69,3.79-6.67.09-.17.1.17h0l-.2.09a31.12,31.12,0,0,1-.47-15.44,30.46,30.46,0,0,1,3.77-9.33,31.18,31.18,0,0,1,7.53-8.52,31.35,31.35,0,0,1,37.91-.61,30.82,30.82,0,0,1,9.65,11.5c.27.58.57,1.15.82,1.75L267,191l.33.9.24.93.49,1.84a32.06,32.06,0,0,1,.67,7.47,31.42,31.42,0,0,1-35.08,30.4l-1.33-.18a8.26,8.26,0,0,1-1.3-.24l-2.5-.6a42.8,42.8,0,0,1-4.56-1.74,31.05,31.05,0,0,1-11.9-9.82l.07,0-7.53-1-1.91-.25-.62-.1.67.07,1.95.21,7.47.83h.05l0,0a31.07,31.07,0,0,0,11.87,9.65,41.84,41.84,0,0,0,4.51,1.69l2.48.59a8,8,0,0,0,1.28.22l1.32.18a31.14,31.14,0,0,0,31-16.32,31.44,31.44,0,0,0,3.55-13.7,32.14,32.14,0,0,0-.67-7.35l-.48-1.81-.24-.91-.32-.89-.66-1.77c-.24-.58-.54-1.15-.81-1.72a30.32,30.32,0,0,0-9.48-11.31,31,31,0,0,0-44.8,8.91,30.54,30.54,0,0,0-3.78,9.21,31.37,31.37,0,0,0,.35,15.3l.23.82-.43-.73v0h.19l-3.87,6.53c-.44.74-.78,1.3-1,1.7Z" style="fill:#263238"></path><path d="M243.61,198.07l-2.12-.09-4.34-6.63.19-4.23s-3.26-.34-3.12,5.21-.21,4.11-.21,4.11-6.94-.27-7.54.31c-.44.42-.92,7.31-1.16,11A4,4,0,0,0,228,212a2.83,2.83,0,0,0,.75.14c1.73.07,10.63-1,10.63-1l3.66.16Z" style="fill:#407BFF"></path><polygon points="249.71 197.17 247.79 211.57 244.17 211.42 244.78 197.25 249.71 197.17" style="fill:#407BFF"></polygon></g><g id="freepik--character-2--inject-2"><path d="M285.13,387.41c.5-6.26,4.15-10.94,8.81-15.14a31,31,0,0,1,17-7.47A30.7,30.7,0,0,1,330,368.48a24.55,24.55,0,0,1,11.59,15.41c2,8.8-1.93,18.43-9,24.07s-16.78,7.41-25.61,5.52a29.76,29.76,0,0,1-16-8.93,22.7,22.7,0,0,1-5.88-17.14" style="fill:#263238"></path><path d="M309.85,375.53c-2.52.29-5-.7-7.51-1-5.55-.59-10.94,2.63-14.29,7.09-3.12,4.15-4.14,9.93-3.75,16a22.07,22.07,0,0,0,4,11.64,17.38,17.38,0,0,0,14.32,6.93l3-28.41c2.77-2,5.59-4.1,7.57-6.91a5.79,5.79,0,0,0,1.18-2.74,2.64,2.64,0,0,0-1.22-2.58C312.12,375.05,310.94,375.4,309.85,375.53Z" style="fill:#263238"></path><path d="M291.71,400.13l11.14-22.63a4.6,4.6,0,0,1,5.43-3.05L360,387.87a16.67,16.67,0,0,1,8.91,5.85l2.36,3c5.38,6.9,2,17.27-6.47,19.33a5.86,5.86,0,0,1-1.5.21,11.16,11.16,0,0,1-1.22-.07,38.86,38.86,0,0,1-8-1.58c-4.66-.93-6.57-1.34-6.53-1.33s-3.72,9.47-17,8.78c-6.58-.35-17-2.89-25.39-5.25C297.62,414.72,289.27,407.62,291.71,400.13Z" style="fill:#ffbe9d"></path><path d="M316.88,414.2a1.68,1.68,0,0,0,2-1.23,1.61,1.61,0,0,0-1.12-2,1.68,1.68,0,0,0-2,1.23A1.61,1.61,0,0,0,316.88,414.2Z" style="fill:#263238"></path><path d="M311.12,415.73c.26-.16-.4-1.6,0-3.36s1.54-2.88,1.37-3.12-.51,0-1,.49a4.59,4.59,0,0,0-1.36,2.44,4.41,4.41,0,0,0,.28,2.73C310.65,415.55,311,415.81,311.12,415.73Z" style="fill:#263238"></path><path d="M320.32,398.43a1.7,1.7,0,0,0,2-1.23,1.6,1.6,0,0,0-1.13-2,1.67,1.67,0,0,0-2,1.23A1.61,1.61,0,0,0,320.32,398.43Z" style="fill:#263238"></path><path d="M314.91,399c.26-.16-.39-1.6,0-3.37s1.54-2.87,1.36-3.11-.5,0-1,.49a4.66,4.66,0,0,0-1.35,2.43,4.44,4.44,0,0,0,.28,2.74C314.45,398.81,314.8,399.08,314.91,399Z" style="fill:#263238"></path><path d="M326.9,407.63a11.55,11.55,0,0,0-1.13,2.76c-.15.45-.33.85-.65.86a2.28,2.28,0,0,1-1.27-.58l-3.16-2.07c-4.5-2.9-8.24-5.1-8.35-4.91s3.44,2.67,7.94,5.57l3.18,2a2.66,2.66,0,0,0,1.72.61,1.16,1.16,0,0,0,.82-.6,3.12,3.12,0,0,0,.27-.75A11.79,11.79,0,0,0,326.9,407.63Z" style="fill:#263238"></path><path d="M347.56,413.31a33.34,33.34,0,0,0-.92-18.13s7.95,6.2,4,18.77Z" style="fill:#eb996e"></path><path d="M331.32,407.79a3.26,3.26,0,0,1-.58-3.11,3,3,0,0,1,1.51-1.78,1.9,1.9,0,0,1,2.14.31,2.2,2.2,0,0,1,.09,2.45,6.86,6.86,0,0,1-1.83,2,2,2,0,0,1-.63.39.6.6,0,0,1-.66-.14" style="fill:#eb996e"></path><path d="M311.36,398.45c.45-.25-.09-1.87-.2-3.87s.16-3.68-.32-3.86c-.23-.07-.63.29-1,1a6.16,6.16,0,0,0-.53,3,6.09,6.09,0,0,0,.92,2.89C310.69,398.28,311.14,398.57,311.36,398.45Z" style="fill:#263238"></path><path d="M303.5,413.57c.46-.22.31-1.53.6-3s.84-2.65.48-3c-.17-.17-.62-.06-1.11.4a4.41,4.41,0,0,0-.88,4.85C302.89,413.41,303.27,413.67,303.5,413.57Z" style="fill:#263238"></path><path d="M307.27,370.21c-7.91.63-20.58,8.93-21.84,16.77L290,401a12.22,12.22,0,0,0,11-5.95c1.17-2,2-4.6,4.13-5.46s4.83.54,7.08-.23c3.13-1.07,4.09-5.76,7.34-6.35,1.43-.26,2.9.39,4.32.11,1.89-.38,5.06-4.2,4.91-6.12s-3.2-2.63-4.66-3.59a8.63,8.63,0,0,0-5.6-1.57C314.66,371.8,311,369.91,307.27,370.21Z" style="fill:#263238"></path><path d="M329,382.65c-1-.21-3-1.79-2.91-2.76.14-2.6,1.31-7.1,7.71-5.78,8.75,1.81,5.13,10.22,4.88,10.18S332.27,383.36,329,382.65Z" style="fill:#ffbe9d"></path><path d="M335.89,380.94c0-.05.14-.13.31-.37a1.57,1.57,0,0,0,.25-1.13c-.14-1-1.45-2.08-3-2.44a5.13,5.13,0,0,0-2.27,0,1.79,1.79,0,0,0-1.4.91.77.77,0,0,0,.23,1c.22.17.4.15.41.2s-.19.16-.53,0a1,1,0,0,1-.48-.45,1.18,1.18,0,0,1-.05-.89,2.16,2.16,0,0,1,1.69-1.31,5.18,5.18,0,0,1,2.54,0c1.75.42,3.22,1.66,3.32,3a1.67,1.67,0,0,1-.52,1.35C336.1,381,335.9,381,335.89,380.94Z" style="fill:#eb996e"></path><path d="M288,397.84c3.32,1.69,6.48,8.19,8.62,11.23,4.09,5.81,5.61,7.14,17.31,10.06-4.58,1.09-8.95,1.71-13.46.39a19.48,19.48,0,0,1-11.13-8.16A15.17,15.17,0,0,1,288,397.84" style="fill:#263238"></path><path d="M294.11,373.54a7.44,7.44,0,0,0-1.55-7.35,13.36,13.36,0,0,0-6.72-3.88,22.9,22.9,0,0,0-20.12,4.23,13.13,13.13,0,0,0-4.06,5.12A7.16,7.16,0,0,0,262,378a5,5,0,0,0,5.68,2.24,6,6,0,0,0,1.17,7.22,9,9,0,0,0,7.33,2.19,17.9,17.9,0,0,0,7.29-2.89c5.45-3.43,10.12-8.62,11.47-14.93Z" style="fill:#263238"></path><path d="M294.66,371.75c.19.32-.48,1.07-1.51,2.25a25.87,25.87,0,0,0-3.47,4.66c-2.1,4.3-3.75,7.89-4.44,7.7s-.12-4.31,2.11-8.86a11.84,11.84,0,0,1,2.28-3.05,14.11,14.11,0,0,1,2.33-1.86C293.41,371.68,294.49,371.45,294.66,371.75Z" style="fill:#407BFF"></path><path d="M333.44,408.61a16.13,16.13,0,0,1-.82-3.49,15.36,15.36,0,0,1-.53-3.55,10.57,10.57,0,0,1,1.05,3.45A10.45,10.45,0,0,1,333.44,408.61Z" style="fill:#263238"></path><path d="M304.68,456.46a2,2,0,0,1-.56-.51,3.83,3.83,0,0,1-.83-2,7.75,7.75,0,0,1,.38-3.38c.39-1.29,1.15-2.6,1.74-4.13A8.69,8.69,0,0,0,306,444a4.85,4.85,0,0,0-.54-2.61c-.88-1.7-2.64-2.91-4.23-4.43a8.28,8.28,0,0,1-2-2.77,6.55,6.55,0,0,1-.35-3.59c.35-2.4,1.48-4.72,1.33-7.18a6.79,6.79,0,0,0-1.2-3.36,14,14,0,0,0-2.43-2.61c-1.79-1.54-3.74-2.79-5.38-4.3a19.67,19.67,0,0,1-5.82-18,17.29,17.29,0,0,1,.58-2.06,4.63,4.63,0,0,1,.28-.7c.06,0-.32,1-.66,2.8a19.79,19.79,0,0,0,.27,7.74,19.16,19.16,0,0,0,5.67,9.83c1.61,1.46,3.56,2.7,5.39,4.26a14.22,14.22,0,0,1,2.53,2.71,7.29,7.29,0,0,1,1.29,3.61c.14,2.67-1,5-1.34,7.3a6,6,0,0,0,.3,3.32,7.73,7.73,0,0,0,1.92,2.61c1.53,1.51,3.34,2.74,4.27,4.58a5.22,5.22,0,0,1,.56,2.84,9,9,0,0,1-.66,2.57c-.63,1.56-1.41,2.85-1.82,4.09a7.89,7.89,0,0,0-.45,3.27,4,4,0,0,0,.72,1.94C304.49,456.28,304.71,456.43,304.68,456.46Z" style="fill:#263238"></path><path d="M325.55,376.52a6,6,0,0,1,.2,1.26,23.59,23.59,0,0,1,.15,3.48,11,11,0,0,1-1.25,5,8.4,8.4,0,0,1-5,3.83,16.61,16.61,0,0,1-6.33.53c-1.94-.17-3.66-.46-5.11-.63s-2.62-.25-3.43-.26a7.69,7.69,0,0,1-1.28,0,5.36,5.36,0,0,1,1.27-.17,23.39,23.39,0,0,1,3.48.11c1.46.12,3.19.37,5.11.52a17,17,0,0,0,6.14-.55,8,8,0,0,0,4.76-3.58,11,11,0,0,0,1.3-4.82C325.68,378.34,325.44,376.52,325.55,376.52Z" style="fill:#263238"></path><path d="M271.93,373.35a1.67,1.67,0,0,1-.24-.45c-.14-.31-.34-.76-.58-1.35a24.69,24.69,0,0,1-1.57-5.2A10.81,10.81,0,0,1,271,358.5a7.21,7.21,0,0,1,3.86-2.85,15.32,15.32,0,0,1,5.12-.51,19.44,19.44,0,0,1,9.53,2.4,9.92,9.92,0,0,1,4.76,6.38,7.42,7.42,0,0,1-.93,5.3,5.76,5.76,0,0,1-.94,1.15,3.07,3.07,0,0,1-.42.31,10.21,10.21,0,0,0,1.19-1.56,7.49,7.49,0,0,0,.74-5.13,9.65,9.65,0,0,0-4.65-6,19.22,19.22,0,0,0-9.3-2.29,14.84,14.84,0,0,0-4.94.48,6.72,6.72,0,0,0-3.62,2.64,9.16,9.16,0,0,0-1.48,3.86,12.11,12.11,0,0,0,0,3.66,27.93,27.93,0,0,0,1.4,5.17c.2.56.36,1,.49,1.39A1.75,1.75,0,0,1,271.93,373.35Z" style="fill:#263238"></path><path d="M281.75,379.32a3.8,3.8,0,0,1,0,1.11,21.2,21.2,0,0,1-.48,3,24.61,24.61,0,0,1-1.41,4.27,9.68,9.68,0,0,1-3.28,4.45,3.92,3.92,0,0,1-2.89.59,4.33,4.33,0,0,1-2.34-1.44,5.3,5.3,0,0,1-1.12-2.2,6.29,6.29,0,0,1-.1-2.14A9.52,9.52,0,0,1,271,384a3.81,3.81,0,0,1,.57-1,5.79,5.79,0,0,1-.38,1,10.14,10.14,0,0,0-.7,2.87,5.22,5.22,0,0,0,1.22,4,3.9,3.9,0,0,0,2.07,1.26,3.48,3.48,0,0,0,2.52-.53,9.53,9.53,0,0,0,3.12-4.21,26.78,26.78,0,0,0,1.48-4.16C281.55,380.89,281.66,379.31,281.75,379.32Z" style="fill:#263238"></path><path d="M419.91,432.42c0,.25-1.42,14.69-1.42,14.69s-2.85,1.71-2.85,1.81-10.35.79-10.35.79l-4.9,1.86-5.26.49-12.52,4.72s.12,1.17,1.67,1.17l11.59-.18,11.28-3.48L406.9,458a23.31,23.31,0,0,1,3.65,0c.31.19,9.11-.62,10.54-.81s6.73-1.17,9.17-3.78S433.54,433,433.54,433Z" style="fill:#ffbe9d"></path><path d="M354.45,386.11s26.71-12,41.54-9.46,29.42,8,42,7,31.61.1,31.61.1l-5.81,46.63-47.09,5.48s-15.8,4.52-23.22,1.61-36-22.61-36-22.61Z" style="fill:#263238"></path><path d="M413.51,451.26c2.78.3,10.9,0,10.9,0l5.08-2.33,12,4.62-1.83,5.14a4.82,4.82,0,0,1-4.35,2.75H409.09a2,2,0,0,1,1.75-1.85c1.75-.41,4.52-1.34,4.52-1.34l-14.9,3.19H396s-7,.41-3.31-2C397,456.69,412,451.09,413.51,451.26Z" style="fill:#ffbe9d"></path><path d="M358.32,400.66s1,17.09,22.9,17.41,51.93-10.64,51.93-10.64l-3.87,43.86,11.93,3.3s5.2-17.75,7.24-25.22c3.78-13.79,4.77-34.26,3.16-38.46s-17.17-6.38-28.78-7-44.51,0-44.51,0C364.46,384.69,358.52,390.77,358.32,400.66Z" style="fill:#ffbe9d"></path><path d="M430.79,434.17a6,6,0,0,1-.1,1.14c-.12.8-.27,1.86-.45,3.16-.43,2.78-1,6.58-1.7,11l0,.13-.13.05-4.53,1.88-.05,0h-10.2a6.34,6.34,0,0,0-1.18.05,11.29,11.29,0,0,0-1.14.31c-.76.22-1.49.48-2.2.74-2.85,1-5.39,2.07-7.53,2.93l-5,2.05-1.38.54a.26.26,0,1,1-.05-.09l1.34-.64c1.17-.54,2.87-1.3,5-2.2s4.65-2,7.5-3c.72-.26,1.46-.53,2.22-.77a11.09,11.09,0,0,1,1.2-.32,5.54,5.54,0,0,1,1.27-.07h10.05l4.55-1.84-.15.18c.77-4.44,1.42-8.24,1.89-11,.24-1.29.43-2.34.58-3.14A8.86,8.86,0,0,1,430.79,434.17Z" style="fill:#eb996e"></path><path d="M433.45,452.83a8.73,8.73,0,0,1-2.75-1.36,9.4,9.4,0,0,1-2.48-1.8A8.73,8.73,0,0,1,431,451,9.4,9.4,0,0,1,433.45,452.83Z" style="fill:#eb996e"></path><path d="M439.78,396.68c0,.09-.73.42-1.8,1.21a12.14,12.14,0,0,0-4.83,8.76c-.1,1.32,0,2.15-.06,2.16a5.18,5.18,0,0,1-.31-2.18,11,11,0,0,1,1.39-5.13,10.89,10.89,0,0,1,3.6-3.91A5.24,5.24,0,0,1,439.78,396.68Z" style="fill:#eb996e"></path><path d="M685.83,414.28c-.61-.32-17.34-1.1-17.34-1.1l.75,18.81,18.08.25Z" style="fill:#ffbe9d"></path><path d="M684.64,434.63l1.38-.15s11.94,22,16.41,21.77l-5.27-45.75-15.4,2.41C685.75,419.34,686.93,426.42,684.64,434.63Z" style="fill:#263238"></path><path d="M686.17,434.63c.23,0,.2-1.17.8-2.35s1.49-1.88,1.38-2.07-1.39.29-2.09,1.73S686,434.7,686.17,434.63Z" style="fill:#fff"></path><path d="M688.74,439.19c.22,0,.5-1,1.37-1.85s1.86-1.21,1.83-1.43-1.34-.22-2.4.88S688.52,439.21,688.74,439.19Z" style="fill:#fff"></path><path d="M694.89,441.24c0-.21-1.15-.39-2.32.33s-1.55,1.82-1.35,1.89.79-.65,1.76-1.22S694.89,441.47,694.89,441.24Z" style="fill:#fff"></path><path d="M693.74,411a12.79,12.79,0,0,0,2.16-.47,3.37,3.37,0,0,1,3.14.63h0l3,26,2.13,19.21s-1.74,1-4-1.19Z" style="fill:#e0e0e0"></path><path d="M531.85,394.85s-12-16.07-31-18.65c-11.41-1.55-36.1,7.4-36.1,7.4l-1,46.73s28.71,1.61,41.29,3.22,63.86,1,73.53,0,25.48-3.87,25.48-3.87L677,432.26V413.61s-35.47-10.37-51.6-12.95S531.85,394.85,531.85,394.85Z" style="fill:#407BFF"></path><path d="M676.82,419.47a4.55,4.55,0,0,1-.55,0l-1.61-.11-6.19-.5c-5.38-.45-13.16-1-22.79-1.76-19.24-1.42-45.84-3.07-75.24-4.6l-75.31-3.81-22.82-1.25-6.2-.38-1.61-.11-.55-.05h.55l1.62.06,6.2.28,22.83,1.08c19.27.93,45.9,2.13,75.32,3.66s56,3.24,75.24,4.76c9.62.75,17.4,1.41,22.77,1.92l6.19.59,1.61.17Z" style="fill:#fff"></path><path d="M677,416.81l-.55,0-1.61-.11-6.19-.5c-5.38-.45-13.16-1.05-22.79-1.76-19.24-1.42-45.84-3.07-75.24-4.6L495.29,406l-22.82-1.25-6.2-.38-1.61-.11-.55-.06h.55l1.62.06,6.2.28,22.83,1.08c19.27.92,45.9,2.13,75.32,3.66s56,3.24,75.24,4.76c9.62.75,17.4,1.41,22.77,1.92l6.19.59,1.61.17Z" style="fill:#fff"></path></g><g id="freepik--character-1--inject-2"><path d="M112.64,457.45a35.13,35.13,0,0,0-2.57-7.22,16.43,16.43,0,0,1-1.55-6.74l-.1-.64c-.48-6.56-1.5-13.88-1.88-20.32L85.46,423c-1.8,1.95-2.08,4.88-1.69,7.51s1.35,5.14,1.67,7.77c.47,3.85-.44,7.76-.08,11.63a18.52,18.52,0,0,0,6,11.8,20.13,20.13,0,0,0,12.3,5c2.57.14,5.38-.3,7.19-2.14S113.07,460,112.64,457.45Z" style="fill:#407BFF"></path><path d="M115.68,372.14l-33.37,5.57-7.57,13v3.18s0,5.82,0,9,11.74,21.85,11.74,21.85l19,.79s.67-3.43,4.54-8.81c3-4.2,7.63-6.28,9.42-12.11a65.05,65.05,0,0,0,2.26-12.29Z" style="fill:#ae7461"></path><path d="M82.7,419.62a9.55,9.55,0,0,1-.78-1.47c-.46-1-1.12-2.35-1.84-4.12a33.47,33.47,0,0,1-1.93-6.44,19.78,19.78,0,0,1,.15-8.23,14.44,14.44,0,0,1,4.19-7.07,21.6,21.6,0,0,1,5.58-3.77,31.36,31.36,0,0,1,4.2-1.68c.51-.16.91-.27,1.18-.34a1.23,1.23,0,0,1,.42-.08,10.86,10.86,0,0,1-1.53.62,38.74,38.74,0,0,0-4.11,1.81,22.38,22.38,0,0,0-5.4,3.79,14.2,14.2,0,0,0-4,6.85,19.64,19.64,0,0,0-.18,8,34.93,34.93,0,0,0,1.8,6.38c.66,1.78,1.27,3.19,1.68,4.18A10.19,10.19,0,0,1,82.7,419.62Z" style="fill:#6f4439"></path><path d="M84.6,421.73c.06.09,2.47,4.23,4.22,7.25a10,10,0,0,0,6.28,4.72c2.74.67,6.05.79,7.8-1.62l.49-.68a15.16,15.16,0,0,0,2.33-4.84,26.72,26.72,0,0,1,1.51-4.38,5.69,5.69,0,0,0,.87-2.53c-7.17,2.59-15.18,2.87-23.68,1.78" style="fill:#fafafa"></path><path d="M85.46,423h2.07s-2.83,4.83-2.07,6.7A41.42,41.42,0,0,1,87.32,439c.19,2.72-.73,10.93,1.33,14.58s5.23,8.76,10.84,10.12,9.92-.72,11-3.34-1.84-14.56-1.84-14.56l1.38,4.41a35.13,35.13,0,0,1,2.57,7.22c.43,2.52,0,5.35-1.78,7.18s-4.62,2.28-7.19,2.14a20.13,20.13,0,0,1-12.3-5,18.52,18.52,0,0,1-6-11.8c-.36-3.87.55-7.78.08-11.63-.32-2.63-1.28-5.15-1.67-7.77S83.66,425,85.46,423" style="fill:#e0e0e0"></path><path d="M102.36,438.72s-.29.44-1,.87a7.19,7.19,0,0,1-3,1,7.1,7.1,0,0,1-3.16-.39c-.76-.29-1.17-.6-1.14-.66a13.22,13.22,0,0,0,4.25.52A13.37,13.37,0,0,0,102.36,438.72Z" style="fill:#263238"></path><path d="M103.4,443s-.29.43-1,.87a7.19,7.19,0,0,1-3,1,7.12,7.12,0,0,1-3.16-.38c-.76-.29-1.17-.61-1.14-.66a13.22,13.22,0,0,0,4.25.52A13.37,13.37,0,0,0,103.4,443Z" style="fill:#263238"></path><path d="M104.51,446.87c0,.05-.26.46-.93.94a7.28,7.28,0,0,1-6.12,1.05c-.78-.24-1.21-.52-1.18-.58a13,13,0,0,0,4.27.22A13.31,13.31,0,0,0,104.51,446.87Z" style="fill:#263238"></path><path d="M99,438.55s0-.14,0-.42a7,7,0,0,1,.07-1.19,9.26,9.26,0,0,1,1.64-4.1,8.14,8.14,0,0,1,2.21-2.16,1.5,1.5,0,0,1,.93-.21.87.87,0,0,1,.73.78,2.18,2.18,0,0,1-.16,1c-.1.28-.21.57-.34.86a12.63,12.63,0,0,1-2.08,3.29,9,9,0,0,1-1.53,1.42,2.72,2.72,0,0,1-2.17.51,11,11,0,0,1-2-.79c-.62-.29-1.24-.58-1.84-.88a23,23,0,0,1-3.32-2,3,3,0,0,1-.7-.68,1.36,1.36,0,0,1-.23-1,1,1,0,0,1,.73-.76,1.87,1.87,0,0,1,.93.1,13.61,13.61,0,0,1,2.76,1.32,13.23,13.23,0,0,1,3.29,2.94,9.5,9.5,0,0,1,.69,1,1.36,1.36,0,0,1,.19.37s-.36-.45-1-1.22a14.24,14.24,0,0,0-3.32-2.75,13,13,0,0,0-2.71-1.22c-.49-.18-1-.14-1.06.33s.28.88.76,1.22a23.85,23.85,0,0,0,3.27,1.92c.59.29,1.2.58,1.82.86a9.82,9.82,0,0,0,1.88.75,2.21,2.21,0,0,0,1.78-.42,8.55,8.55,0,0,0,1.43-1.33,12.69,12.69,0,0,0,2-3.15,4.5,4.5,0,0,0,.48-1.57c0-.46-.56-.49-1-.24a7.93,7.93,0,0,0-2.11,2,9.8,9.8,0,0,0-1.74,3.9C99,438,99,438.55,99,438.55Z" style="fill:#263238"></path><path d="M178.76,338.29s13.1-6,24.35-9c6-1.61,11.52-2.33,14.18-.8,7.63,4.4,12.27,9.55,13.3,17.54s1.46,92,1.46,92l-19.49,3.34-7.64-35.48s-5.18-10.72-5.7-21.36-.43-12.34-.43-12.34l-17.92,12.34L174.17,356Z" style="fill:#ae7461"></path><path d="M212,440.22c-.45-.65-4-19.73-4-19.73l24.12-3.25.69,21.89Z" style="fill:#fafafa"></path><path d="M235.2,435.68l.05,1.61s27.12,10.27,27.53,15.44l-53.3,1.07.36-18C217.84,439.34,226.14,439.59,235.2,435.68Z" style="fill:#407BFF"></path><g style="opacity:0.6000000000000001"><path d="M215.35,441.42A2.22,2.22,0,0,0,213.9,444a2.09,2.09,0,0,0,2.48,1.49,2.34,2.34,0,0,0,1.53-2.71,2.17,2.17,0,0,0-2.75-1.26" style="fill:#fff"></path></g><path d="M235.44,437.44c0,.26-1.3.41-2.57,1.28s-1.92,2-2.16,1.91.11-1.64,1.66-2.67S235.49,437.19,235.44,437.44Z" style="fill:#263238"></path><path d="M241.08,439.67c.06.26-1.05.73-1.92,1.87s-1.09,2.32-1.35,2.32-.45-1.5.64-2.89S241.07,439.42,241.08,439.67Z" style="fill:#263238"></path><path d="M244.39,446.41c-.24.06-.62-1.25,0-2.71s1.84-2.07,2-1.85-.63,1-1.14,2.22S244.65,446.38,244.39,446.41Z" style="fill:#263238"></path><path d="M209.48,449.82a14.7,14.7,0,0,1-.21,2.54,4,4,0,0,0,1.22,3.51h0l30.25-.66,22.37-.55s.92-2.16-2-4.43Z" style="fill:#e0e0e0"></path><path d="M235.55,437s-.12,0-.34-.16a5,5,0,0,1-.87-.67,6.19,6.19,0,0,1-1.76-3.59,5.81,5.81,0,0,1,.31-2.81,1.77,1.77,0,0,1,1.2-1.19,1.62,1.62,0,0,1,1.58.85,10.78,10.78,0,0,1,.67,7.29l-.52-.07,0-.45a9.63,9.63,0,0,1,3.35-6.65,1.64,1.64,0,0,1,.91-.32,1,1,0,0,1,.89.46,1.88,1.88,0,0,1,.07,1.72,12.18,12.18,0,0,1-1.31,2.55,11.61,11.61,0,0,1-2.87,2.94,6.8,6.8,0,0,1-.95.59,1.22,1.22,0,0,1-.36.16s.44-.31,1.19-.91a12.64,12.64,0,0,0,2.68-3,11.76,11.76,0,0,0,1.2-2.49,1.41,1.41,0,0,0,0-1.3c-.23-.36-.73-.32-1.15,0a9.3,9.3,0,0,0-3.1,6.28l0,.42-.52-.07a10.53,10.53,0,0,0-.57-6.9,1.16,1.16,0,0,0-1.1-.65c-.4.05-.69.47-.86.89a5.5,5.5,0,0,0-.36,2.61,6.28,6.28,0,0,0,1.55,3.49C235.12,436.73,235.58,437,235.55,437Z" style="fill:#263238"></path><path d="M208.26,349.92c.07.06-.89,1.24-2.24,3.29a45.3,45.3,0,0,0-6.91,17.68c-.4,2.42-.49,3.94-.58,3.94a3.72,3.72,0,0,1,0-1.07,29.22,29.22,0,0,1,.24-2.92,39.87,39.87,0,0,1,7-17.84,27.42,27.42,0,0,1,1.8-2.31C208,350.17,208.23,349.89,208.26,349.92Z" style="fill:#6f4439"></path><path d="M186.8,389.81l-28.1,4.65s-29.49,10.13-38.51,7.3c0,0,5.35-27.11-15.82-24.58-27.3,3.27-29.63,23.67-29.63,23.67a31.25,31.25,0,0,1-6.11-16.37c-.84-10.13,2-21.21,2-21.21L73.46,356l77.83-13.07,38.6-12.1,13.22-1.54s-13.74,19.57-15.28,29.87S186.8,389.81,186.8,389.81Z" style="fill:#455a64"></path><path d="M126.67,370.46a6,6,0,0,1,.47,1.17,11.59,11.59,0,0,1,.43,1.41c.15.56.34,1.19.46,1.9a31.15,31.15,0,0,1,.61,5.07,33.32,33.32,0,0,1-1.84,12.3,31.53,31.53,0,0,1-2.07,4.66c-.33.65-.69,1.19-1,1.68a13.94,13.94,0,0,1-.83,1.22,5.37,5.37,0,0,1-.79,1c-.09-.06,1-1.5,2.28-4.06a35.38,35.38,0,0,0,1.94-4.64,37.3,37.3,0,0,0,1.44-6,39,39,0,0,0,.38-6.14,35.73,35.73,0,0,0-.5-5C127.17,372.18,126.57,370.49,126.67,370.46Z" style="fill:#263238"></path><path d="M149.25,372.14a22.19,22.19,0,0,1-1.32,2.77c-.84,1.69-2,4-3,6.7s-1.95,5.12-2.54,6.91a23,23,0,0,1-1,2.9,14.27,14.27,0,0,1,.65-3,62.34,62.34,0,0,1,2.41-7,64.08,64.08,0,0,1,3.2-6.68A14.72,14.72,0,0,1,149.25,372.14Z" style="fill:#263238"></path><path d="M178.81,367.16a3,3,0,0,1-.2.91c-.16.58-.42,1.4-.77,2.41a69.79,69.79,0,0,1-3.21,7.69,70.81,70.81,0,0,1-4.07,7.28c-.57.89-1.06,1.61-1.42,2.09s-.56.73-.59.71a33.71,33.71,0,0,1,1.69-3c1.07-1.83,2.5-4.4,3.92-7.31s2.55-5.62,3.33-7.59A31.49,31.49,0,0,1,178.81,367.16Z" style="fill:#263238"></path><path d="M95.45,261.84S83.2,267,78.84,279.54s-13.88,61-8.71,74.88,60.72,15.52,60.72,15.52l11.44-1.09V351.7L133,350.33s-5.45-2.72-6.26-2.72-29.14-9.8-29.14-9.8l1.36-4.9s7.9-11.71,8.17-17-1.7-27.64-1.7-27.64Z" style="fill:#407BFF"></path><path d="M159.36,252.12l-63.91,9.72L93.8,335.63l22.89,17.7,49-6,14.89-55.49s7.74-15,2.1-27.59c-1.82-4.07-7.33-11-11.82-11.94A32.49,32.49,0,0,0,159.36,252.12Z" style="fill:#407BFF"></path><path d="M142.11,281.53c-5.93-3.93-13-5.83-17.77-11.09s-4-7.74-5.83-14l-10.23,5c1.26,10.35,6.42,16.27,15,22.25a23.31,23.31,0,0,0,9.7,4.21,13.36,13.36,0,0,0,10.12-2.32,2.7,2.7,0,0,0,.89-1C144.41,283.38,143.18,282.24,142.11,281.53Z" style="fill:#407BFF"></path><path d="M182.83,277.52a3.73,3.73,0,0,1-.07,1c-.08.61-.22,1.5-.4,2.6-.36,2.2-.92,5.22-1.6,8.54s-1.39,6.32-1.93,8.47c-.27,1.08-.5,1.95-.68,2.55a3.17,3.17,0,0,1-.32.92,27.4,27.4,0,0,1,.63-3.55c.49-2.31,1.1-5.25,1.78-8.5L182,281A25.54,25.54,0,0,1,182.83,277.52Z" style="fill:#263238"></path><path d="M116.47,268.48a13.43,13.43,0,0,0-3.12-2.1,14.22,14.22,0,0,0-3.91-1.09,28.13,28.13,0,0,0-5-.13c-1.79.09-3.5.23-5.07.26a23.7,23.7,0,0,1-4.16-.25,13.43,13.43,0,0,1-2.72-.73,2.9,2.9,0,0,1-.92-.48,26,26,0,0,0,3.69.84,26.34,26.34,0,0,0,4.1.13c1.54-.05,3.25-.21,5-.3a26.48,26.48,0,0,1,5.1.18,13.47,13.47,0,0,1,4,1.24,9.11,9.11,0,0,1,2.31,1.62A3,3,0,0,1,116.47,268.48Z" style="fill:#263238"></path><path d="M130.43,284.94a3,3,0,0,1-.82-.22,18,18,0,0,1-2.15-.91,25.71,25.71,0,0,1-11-10.46,17.65,17.65,0,0,1-1-2.09,2.61,2.61,0,0,1-.27-.82c.09,0,.59,1.07,1.6,2.72a29.23,29.23,0,0,0,10.86,10.32C129.34,284.41,130.47,284.85,130.43,284.94Z" style="fill:#263238"></path><path d="M154.88,261.49s.1.28.18.81a16.94,16.94,0,0,1,.21,2.26,26.55,26.55,0,0,1-.85,7.44,26.05,26.05,0,0,1-2.91,6.9,18,18,0,0,1-1.29,1.88c-.33.42-.53.64-.56.62s.61-1,1.52-2.68a30.28,30.28,0,0,0,2.73-6.85,30.77,30.77,0,0,0,1-7.3C154.91,262.67,154.79,261.5,154.88,261.49Z" style="fill:#263238"></path><path d="M108.2,320.82a1.79,1.79,0,0,1,.08-.51c.08-.39.18-.87.31-1.45s.32-1.39.45-2.29.36-1.92.45-3.06c.06-.57.12-1.17.19-1.79s.07-1.27.11-1.94c.1-1.34,0-2.78,0-4.29a58,58,0,0,0-1.26-9.75,58.77,58.77,0,0,0-3-9.36c-.63-1.37-1.2-2.69-1.86-3.87-.32-.59-.6-1.18-.93-1.71l-.93-1.54c-.57-1-1.2-1.82-1.71-2.57a22,22,0,0,0-1.39-1.88l-.89-1.18a1.85,1.85,0,0,1-.29-.43,2.05,2.05,0,0,1,.37.36l1,1.12a21.5,21.5,0,0,1,1.47,1.83c.54.75,1.19,1.56,1.78,2.55l1,1.53c.33.54.62,1.12,1,1.72.68,1.17,1.27,2.5,1.92,3.88a51.39,51.39,0,0,1,4.31,19.28c0,1.53,0,3-.08,4.33,0,.68-.06,1.34-.13,2s-.16,1.22-.23,1.8c-.12,1.15-.36,2.17-.53,3.07a21.64,21.64,0,0,1-.54,2.28c-.17.57-.3,1-.41,1.43A1.63,1.63,0,0,1,108.2,320.82Z" style="fill:#263238"></path><path d="M101.54,332a31.25,31.25,0,0,1,1.9-5.34,29.31,29.31,0,0,1,2.39-5.13,31.66,31.66,0,0,1-1.9,5.33A30.1,30.1,0,0,1,101.54,332Z" style="fill:#263238"></path><path d="M144.05,352a2.06,2.06,0,0,1-.57,0l-1.59-.2-5.83-.83L116.83,348l-1.25-.2h-.09l-.07-.07a59.77,59.77,0,0,0-14.07-11.94c-2-1.23-3.69-2.12-4.87-2.71l-1.36-.68a2.83,2.83,0,0,1-.46-.26,1.79,1.79,0,0,1,.51.17c.32.13.8.31,1.4.59a50.48,50.48,0,0,1,5,2.58,57.06,57.06,0,0,1,14.28,11.9l-.15-.09,1.25.2,19.2,3.08,5.81,1,1.57.29A2.7,2.7,0,0,1,144.05,352Z" style="fill:#263238"></path><path d="M163.4,309.92a1.91,1.91,0,0,1-.22.45l-.72,1.25a21.22,21.22,0,0,1-1.22,1.92c-.5.73-1,1.59-1.75,2.45s-1.44,1.86-2.33,2.82-1.85,2-2.89,3.05a54.65,54.65,0,0,1-15.89,10.7c-1.37.57-2.65,1.14-3.91,1.54s-2.41.8-3.49,1.09-2.06.52-2.93.71a20.28,20.28,0,0,1-2.24.41l-1.42.19a2.69,2.69,0,0,1-.5,0,1.55,1.55,0,0,1,.48-.14l1.41-.29c.61-.12,1.35-.27,2.21-.5s1.84-.42,2.89-.78,2.23-.67,3.44-1.14,2.51-1,3.86-1.57a62.39,62.39,0,0,0,8.32-4.65,61.61,61.61,0,0,0,7.43-6c1-1,2-2,2.91-3s1.66-1.89,2.35-2.76,1.28-1.68,1.81-2.39.95-1.34,1.29-1.86l.8-1.19C163.27,310.05,163.38,309.91,163.4,309.92Z" style="fill:#263238"></path><path d="M142.29,365.77a1.87,1.87,0,0,1-.38.11c-.25.07-.63.16-1.12.26-1,.21-2.46.47-4.37.7s-4.25.43-7,.48c-1.36,0-2.82,0-4.37,0s-3.18-.22-4.89-.4c-6.83-.74-14.91-1.95-23.82-3.68-4.45-.89-9.12-1.87-13.87-3.28-1.19-.35-2.37-.75-3.55-1.22a8.85,8.85,0,0,1-3.32-2,12.81,12.81,0,0,1-3.38-7,18.47,18.47,0,0,1-.23-4.3v0a133.32,133.32,0,0,1,2.21-27.95c1.52-8.46,3.43-15.93,5.09-22.16s3.1-11.23,4.07-14.69c.48-1.7.86-3,1.13-4,.12-.43.22-.77.3-1a1.65,1.65,0,0,1,.12-.34,1.46,1.46,0,0,1-.07.36l-.25,1c-.25.94-.6,2.28-1,4l-3.91,14.73c-1.62,6.24-3.48,13.71-5,22.15a134.74,134.74,0,0,0-2.16,27.85h0v0a18.48,18.48,0,0,0,.23,4.16A12.31,12.31,0,0,0,76,356.36a8.61,8.61,0,0,0,3.14,1.87c1.16.46,2.33.85,3.51,1.2,4.72,1.41,9.37,2.4,13.81,3.3,8.89,1.76,17,3,23.77,3.78a71.08,71.08,0,0,0,16.18.12c1.91-.19,3.38-.42,4.37-.59l1.13-.21A1.78,1.78,0,0,1,142.29,365.77Z" style="fill:#fff"></path><path d="M142.29,363.72a1.89,1.89,0,0,1-.37.11c-.25.06-.61.18-1.1.27a32.72,32.72,0,0,1-4.3.51,110.42,110.42,0,0,1-15.89-.49c-6.69-.62-14.63-1.67-23.35-3.37a111.93,111.93,0,0,1-13.54-3.37,15.53,15.53,0,0,1-3.38-1.55A12.36,12.36,0,0,1,77.83,353a20.64,20.64,0,0,1-2.73-7.14c-.12-.63-.22-1.27-.29-1.91s0-1.28,0-1.92c0-1.27-.07-2.53,0-3.78l.09-3.72.24-3.66c.38-4.82,1-9.45,1.74-13.83,1.55-8.75,3.51-16.52,5.25-23s3.25-11.71,4.27-15.32c.5-1.78.9-3.18,1.18-4.16.13-.45.24-.81.32-1.07a1.49,1.49,0,0,1,.13-.37s0,.13-.08.38-.15.63-.27,1.09c-.25,1-.62,2.39-1.08,4.18l-4.11,15.36c-1.69,6.49-3.61,14.26-5.13,23-.73,4.37-1.33,9-1.71,13.79l-.22,3.64-.1,3.71c-.05,1.24,0,2.49,0,3.75,0,.63,0,1.28,0,1.88s.16,1.25.28,1.87a20.31,20.31,0,0,0,2.65,7,11.71,11.71,0,0,0,2.4,2.69,15.12,15.12,0,0,0,3.24,1.48,115.32,115.32,0,0,0,13.46,3.39c8.7,1.72,16.62,2.8,23.29,3.46a116.77,116.77,0,0,0,15.85.67,38.19,38.19,0,0,0,4.29-.42c.49-.07.86-.17,1.11-.21A1.67,1.67,0,0,1,142.29,363.72Z" style="fill:#fff"></path><path d="M223.14,295.17c2.41,2.3,6.94,9.16,7.78,12.39,1.31,5,2.25,12.29-1.78,15.82-6.53,5.72-41.66,12-41.66,12l-6.8-16.61,16.83-12.32-19.64-8.86-5.34-44.68a135.81,135.81,0,0,1,26.42,20C208.56,282.51,217.57,289.87,223.14,295.17Z" style="fill:#407BFF"></path><path d="M216.18,300.71c0,.08-1.18.17-3.07.45a44.45,44.45,0,0,0-7.24,1.72,43.33,43.33,0,0,0-6.84,3c-1.68.9-2.68,1.54-2.73,1.47s.21-.22.64-.54a21.85,21.85,0,0,1,1.91-1.26,35,35,0,0,1,14.21-4.72c1-.1,1.74-.14,2.28-.14A2.35,2.35,0,0,1,216.18,300.71Z" style="fill:#263238"></path><path d="M232.11,314.14a1.51,1.51,0,0,1-.17.47,6.82,6.82,0,0,1-.72,1.24,11.16,11.16,0,0,1-4.06,3.34,38.84,38.84,0,0,1-7.32,2.69c-2.8.83-5.89,1.73-9.14,2.64-6.5,1.82-12.42,3.35-16.71,4.4-2.15.53-3.9.94-5.1,1.2l-1.4.3a2.57,2.57,0,0,1-.49.07s.15-.08.47-.17l1.37-.39,5-1.37c4.27-1.14,10.17-2.73,16.67-4.55l9.15-2.6a41.27,41.27,0,0,0,7.28-2.55,11.57,11.57,0,0,0,4.06-3.13C231.81,314.77,232.06,314.12,232.11,314.14Z" style="fill:#fff"></path><path d="M231.71,311.31a1.82,1.82,0,0,1-.28.42,9.4,9.4,0,0,1-.91,1.11,16.4,16.4,0,0,1-4.15,3.3,39.24,39.24,0,0,1-7.28,2.95c-2.8.9-5.85,2-9.11,3-6.5,2-12.48,3.52-16.84,4.47-2.18.49-3.95.83-5.17,1.06l-1.42.24a1.46,1.46,0,0,1-.5,0,2.26,2.26,0,0,1,.48-.15l1.39-.33,5.14-1.22c4.32-1.05,10.28-2.6,16.76-4.62,3.25-1,6.3-2.07,9.12-2.95a40.42,40.42,0,0,0,7.25-2.81,17.77,17.77,0,0,0,4.18-3.11C231.25,311.83,231.66,311.28,231.71,311.31Z" style="fill:#fff"></path><path d="M220.55,294.68s-.16-.11-.45-.36l-1.22-1.12-4.48-4.13c-3.79-3.46-9.13-8.15-15.25-13.05s-11.87-9.09-16.08-12l-5-3.47-1.35-.94a2.42,2.42,0,0,1-.46-.37,2.5,2.5,0,0,1,.51.28c.38.22.84.51,1.42.86,1.22.76,3,1.89,5.1,3.33,4.27,2.87,10.06,7,16.2,11.93s11.44,9.66,15.18,13.2c1.87,1.77,3.36,3.22,4.36,4.25l1.16,1.19C220.44,294.52,220.57,294.67,220.55,294.68Z" style="fill:#fff"></path><path d="M147.22,349.6c-.22-.71-.8-4.56-.8-4.56l5-8.15,10.84-8.56,18.7-8.94,6,14.64-8.7,4.27-4.56,10.07-3.6,4.67-.7,10.83a1.73,1.73,0,0,1-2.3-.5c-.82-1.31-1-9.25-.86-8.8s-1,9.9-2.08,9.91-3.62-1.61-3.62-1.61l.8-9.54s-1.51,11.45-2.42,11.15a3.58,3.58,0,0,1-2.78-3.27c0-2.17-.56-15-.56-15l-4.27,2.85s3.46,7.52,2.47,8.23S149.13,355.77,147.22,349.6Z" style="fill:#ae7461"></path><path d="M134.26,249.16c-4.2-3-21.71-5.74-26.74-6.91-2.56-.59-5.69-.75-7.35,1.29C98.94,245,99,247.22,98,248.87c-2,3.27-7.26,3.2-9.36,6.43-1.79,2.76-.23,6.66,2.42,8.62s6,2.52,9.24,3.21a83.38,83.38,0,0,1,17.72,6c1.28.61,2.85,1.24,4,.46a3.85,3.85,0,0,0,1.35-2.47c2-8.4,3.69-15.9-1.82-22.54Z" style="fill:#407BFF"></path><g style="opacity:0.30000000000000004"><path d="M126.94,248.64c-2.65-.54-13.29-2.43-16.2-4a4.54,4.54,0,0,0-3-.48c-3.44.73-3.31,5.48-5.81,7.65-1.42,1.22-3.42,1.39-5.19,2s-3.9,2.29-3.24,4.33a3,3,0,0,0,1.18,1.53,7.59,7.59,0,0,0,4,1,64,64,0,0,0,11.25,0,17.22,17.22,0,0,0,8.58-4.23v-3.95C143,254.33,130.75,249.43,126.94,248.64Z"></path></g><path d="M160.88,213.24a5.62,5.62,0,0,0,2.59-10.87,5.84,5.84,0,0,0-4.9-9.94,7,7,0,0,0-10.43-5.94,7.87,7.87,0,0,0-9.67-.38,5.59,5.59,0,0,0-5.12,9.39" style="fill:#263238"></path><path d="M161.68,214.05a23.84,23.84,0,0,0-23.3-22.4l-1.23,0c-13.31.5-20.33,12.09-19.45,25.39l1,44.33,1.68,2.61c5.07,6.48,15.4,13.73,19.83,18.13h0c6.89-3.54,9-5.34,9.16-13.83l.16-9.27s12.82-1.72,13.24-14.5C163,238.32,162.37,225.57,161.68,214.05Z" style="fill:#ae7461"></path><path d="M149.64,259A31,31,0,0,1,133,253.73s3.75,9.28,16.53,8.39Z" style="fill:#6f4439"></path><path d="M157,226.73a1.82,1.82,0,0,1-1.79,1.8,1.74,1.74,0,0,1-1.85-1.68,1.82,1.82,0,0,1,1.79-1.81A1.75,1.75,0,0,1,157,226.73Z" style="fill:#263238"></path><path d="M158.8,220.24c-.23.24-1.59-.82-3.56-.85s-3.42.92-3.63.67.14-.53.78-1a5,5,0,0,1,2.91-.83,4.87,4.87,0,0,1,2.83,1C158.72,219.7,158.92,220.14,158.8,220.24Z" style="fill:#263238"></path><path d="M139.42,226.4a1.82,1.82,0,0,1-1.8,1.8,1.74,1.74,0,0,1-1.85-1.68,1.83,1.83,0,0,1,1.8-1.81A1.76,1.76,0,0,1,139.42,226.4Z" style="fill:#263238"></path><path d="M139.48,220.21c-.23.24-1.59-.81-3.55-.85s-3.43.92-3.64.67.14-.53.78-1a5,5,0,0,1,2.91-.84,4.81,4.81,0,0,1,2.83,1C139.4,219.67,139.6,220.11,139.48,220.21Z" style="fill:#263238"></path><path d="M146.32,234.93a12.82,12.82,0,0,1,3.2-.51c.5,0,1-.13,1.07-.47a2.56,2.56,0,0,0-.31-1.5c-.44-1.22-.91-2.5-1.4-3.85-1.95-5.48-3.35-10-3.13-10.06s2,4.31,3.93,9.79c.47,1.35.92,2.64,1.34,3.87a2.84,2.84,0,0,1,.22,2,1.25,1.25,0,0,1-.84.72,3.42,3.42,0,0,1-.85.1A12.69,12.69,0,0,1,146.32,234.93Z" style="fill:#263238"></path><path d="M140.15,212.53c-.2.53-2.16.23-4.47.46s-4.19.82-4.48.34c-.14-.23.2-.73,1-1.23a7.83,7.83,0,0,1,6.82-.61C139.82,211.85,140.24,212.27,140.15,212.53Z" style="fill:#263238"></path><path d="M158.2,214.54c-.36.44-1.7,0-3.33-.1s-3,.23-3.32-.24c-.13-.23.09-.67.7-1.08a4.68,4.68,0,0,1,2.72-.68,4.62,4.62,0,0,1,2.64,1C158.17,213.87,158.35,214.33,158.2,214.54Z" style="fill:#263238"></path><path d="M160.57,208.16s-3.21-8.08-7-10c-4.63-2.36-6.74,2.73-11.17,1.39s-8.85-3.6-13.47-.25c-5.06,3.67-2.78,6.36-3.2,12-1.72,23-6,29.39-7,18.54-.1-1.19-3.38-2.21-3.76-7.23-.5-6.51-.59-14.41,1-19,1.3-3.86,3.57-6.5,7.61-9.38,6.37-4.55,15-4.47,20.84-3.76S161.31,198.14,160.57,208.16Z" style="fill:#263238"></path><path d="M119.49,229.5a3.47,3.47,0,0,0-3.67-3.42c-2.39.18-5.07,1.48-5,6.41.1,8.75,8.86,6.84,8.88,6.59S119.57,233.16,119.49,229.5Z" style="fill:#ae7461"></path><path d="M117.73,235.81s-.15.11-.4.23a1.54,1.54,0,0,1-1.14,0c-.93-.33-1.72-1.79-1.78-3.36a4.84,4.84,0,0,1,.4-2.19,1.77,1.77,0,0,1,1.13-1.18.78.78,0,0,1,.9.4c.12.25.07.42.12.44s.18-.15.11-.51a1,1,0,0,0-.35-.55,1.18,1.18,0,0,0-.85-.21,2.14,2.14,0,0,0-1.57,1.38,5.09,5.09,0,0,0-.5,2.44c.07,1.76,1,3.4,2.26,3.75a1.63,1.63,0,0,0,1.39-.25C117.72,236,117.77,235.83,117.73,235.81Z" style="fill:#6f4439"></path><path d="M120,212.58a8.33,8.33,0,0,0,3.67,1.78,2.85,2.85,0,0,0,3.2-1.94c.12-.61,0-1.31.39-1.78s1.37-.35,2.1-.26a5.57,5.57,0,0,0,5.87-3.88c.63,1,2.14,1,3.14.36a12.81,12.81,0,0,0,2.43-2.5,3.61,3.61,0,0,1,3-1.44,8.68,8.68,0,0,0,1.89.46c1.15-.08,1.74-1.41,1.94-2.55s.36-2.46,1.34-3.06,2.08-.2,3.13,0,2.42,0,2.71-1.07a2,2,0,0,0-.36-1.59,5.64,5.64,0,0,0-6.63-2.28A7.68,7.68,0,0,0,133.79,191a7.78,7.78,0,0,0-12.5,2.58,5.64,5.64,0,0,0-6.53,8.08,5.38,5.38,0,0,0-3,4.21c-.07,1.81,1.66,3.65,3.41,3.21a3.12,3.12,0,0,0,5.34,3.22" style="fill:#263238"></path><path d="M148.45,195.39s0,.06,0,.16,0,.27-.07.47a5.5,5.5,0,0,1-.67,1.67,6.07,6.07,0,0,1-2,2,5.74,5.74,0,0,1-3.6.95l.15-.19a3.14,3.14,0,0,1-.22,2.41,9,9,0,0,1-1.54,2.12,6.65,6.65,0,0,1-1,1,3,3,0,0,1-1.39.49,3.21,3.21,0,0,1-2.8-1.07l.33-.08a6.54,6.54,0,0,1-2.87,4.47,4.8,4.8,0,0,1-2.89.89,9,9,0,0,1-2.82-.68l.24-.1a6.79,6.79,0,0,1-2.12,2.65,3.66,3.66,0,0,1-3.07.77,4.83,4.83,0,0,1-3.63-3.84l.2.09a4.47,4.47,0,0,1-3,.38,5,5,0,0,1-2.08-1,4.22,4.22,0,0,1-1-1.09,1.72,1.72,0,0,1-.21-.46,5,5,0,0,0,1.25,1.43,4.83,4.83,0,0,0,2,.88,4.28,4.28,0,0,0,2.84-.4l.17-.09,0,.18a4.55,4.55,0,0,0,3.44,3.57,3.31,3.31,0,0,0,2.77-.73,6.56,6.56,0,0,0,2-2.52l.07-.16.17.06a8.28,8.28,0,0,0,2.69.65,4.43,4.43,0,0,0,2.67-.82,6.26,6.26,0,0,0,2.72-4.22l.06-.42.26.33a2.86,2.86,0,0,0,2.47.94,2.66,2.66,0,0,0,1.24-.42,6.26,6.26,0,0,0,.94-.92,8.79,8.79,0,0,0,1.5-2,2.86,2.86,0,0,0,.24-2.18l-.07-.21.22,0a5.64,5.64,0,0,0,3.45-.85,6.24,6.24,0,0,0,2-1.92A6.57,6.57,0,0,0,148.45,195.39Z" style="fill:#455a64"></path><path d="M148.61,239.81l-4.2-1.44a3,3,0,0,0-1.74-.24,2.28,2.28,0,0,0-1.32,2.64,4.12,4.12,0,0,0,4.06,3.35c1.91-.06,2.65-2.36,3.2-4.31" style="fill:#6f4439"></path><path d="M146.73,244.16a2.89,2.89,0,0,1-2.36.21,4,4,0,0,1-2.21-1.46,4.18,4.18,0,0,1-.73-3.15,4,4,0,0,1,.65-1.61,1.09,1.09,0,0,1,.37-.33.8.8,0,0,1,.54-.06c.29.07.49.15.73.22l2.42.81a10.38,10.38,0,0,1,2.19.87,10.3,10.3,0,0,1-2.3-.51l-2.46-.7-.68-.2c-.17,0-.25,0-.4.21a3.73,3.73,0,0,0-.54,1.38,3.84,3.84,0,0,0,.61,2.78,3.78,3.78,0,0,0,1.91,1.39A6,6,0,0,0,146.73,244.16Z" style="fill:#263238"></path><path d="M176.29,356.39a4.81,4.81,0,0,0-2.28-4.34,9.11,9.11,0,0,0-4.92-1.27,17.32,17.32,0,0,0-12.21,4.89l-.76,2s4.66,3.49,5.2,3.54,9.41-1.31,9.41-1.31Z" style="fill:#263238"></path><path d="M162.63,368.9a2.55,2.55,0,0,1,.06.43c0,.3.07.71.12,1.24.1,1.12.24,2.73.42,4.79.34,4.18.83,10.19,1.44,17.61s1.28,16.29,2.06,26.12c.38,4.92.78,10.08,1.19,15.43a25.68,25.68,0,0,1-.41,8.22,11,11,0,0,1-1.8,3.87,5.28,5.28,0,0,1-3.72,2.22,3.21,3.21,0,0,1-2.15-.71,5.06,5.06,0,0,1-1.35-1.75,10.43,10.43,0,0,1-.73-2c-.18-.68-.41-1.34-.53-2a35.75,35.75,0,0,1-.79-8.19,83.76,83.76,0,0,1,2-15.37c1-4.84,1.93-9.42,2.52-13.76s1-8.4,1.19-12.12a145.74,145.74,0,0,0-.1-17.64c-.13-2.08-.27-3.69-.37-4.79,0-.52-.09-.94-.11-1.24a2.77,2.77,0,0,1,0-.43,2.78,2.78,0,0,1,.07.42c0,.31.09.72.16,1.24.14,1.09.31,2.7.48,4.78a136.64,136.64,0,0,1,.26,17.68c-.18,3.73-.53,7.81-1.13,12.16s-1.5,9-2.48,13.79a84.5,84.5,0,0,0-2,15.28,35.11,35.11,0,0,0,.78,8.07c.12.68.35,1.33.52,2a10.3,10.3,0,0,0,.7,1.93,4.51,4.51,0,0,0,1.21,1.58,2.72,2.72,0,0,0,1.8.6,4.75,4.75,0,0,0,3.32-2,10.63,10.63,0,0,0,1.71-3.67,25.08,25.08,0,0,0,.4-8.05c-.4-5.35-.79-10.52-1.16-15.43-.73-9.83-1.39-18.69-2-26.14L163,375.37c-.14-2.06-.25-3.67-.32-4.79l-.07-1.25A3.48,3.48,0,0,1,162.63,368.9Z" style="fill:#263238"></path><path d="M142.29,353.33s7.39-5.87,9-6.21,3.64.91,6.71.57a33.34,33.34,0,0,1,5.78-.11s.93,2.95-1.35,4.09a23.37,23.37,0,0,1-5.8,1.66l-2.11,1.91,7.57,3.25h7.05l8.19-2.34s2.27.52,1.13,2.34-7.27,5.46-7.27,5.46.22,1.13-1.94,2.95c0,0-8.75,8-11,8.3a10.22,10.22,0,0,1-3.64,0l-12.28-6.82Z" style="fill:#ae7461"></path><path d="M142.29,353.33s0,.09,0,.27l0,.78c0,.71,0,1.7,0,3,0,2.62,0,6.36.09,11l-.09-.15L154.68,375l-.06,0a9.45,9.45,0,0,0,2.33.11c.4,0,.81-.07,1.21-.13a4.82,4.82,0,0,0,1.08-.44,37.33,37.33,0,0,0,4.17-3q2.07-1.67,4.15-3.5c.69-.6,1.4-1.24,2.07-1.86a5.78,5.78,0,0,0,.87-1.05,2.15,2.15,0,0,0,.41-1.14v-.19l.13-.09c1.58-1,3.16-2,4.69-3.09a15.38,15.38,0,0,0,2.16-1.85,2.21,2.21,0,0,0,.6-1.12,1,1,0,0,0-.54-1,2.74,2.74,0,0,0-.69-.29h.13l-8.19,2.34H162l-.05,0-7.56-3.25-.35-.15.28-.26c.72-.64,1.42-1.28,2.11-1.91l.06,0h.07a23.89,23.89,0,0,0,5.32-1.44A3.7,3.7,0,0,0,163,351a2.49,2.49,0,0,0,.61-1,4.21,4.21,0,0,0,0-2.36l.19.14a34.71,34.71,0,0,0-5.11,0,12.39,12.39,0,0,1-4.62-.25c-2.93-1.23-4.92,1.05-6.59,2-1.67,1.17-2.94,2.13-3.81,2.77l-1,.73a2.49,2.49,0,0,1-.34.24,1.54,1.54,0,0,1,.31-.28c.23-.2.55-.46,1-.78.84-.68,2.09-1.66,3.74-2.87.83-.59,1.75-1.26,2.82-1.9a5.42,5.42,0,0,1,.87-.43,2.38,2.38,0,0,1,1-.16,12.78,12.78,0,0,1,2.09.33,12.08,12.08,0,0,0,4.52.2,32.72,32.72,0,0,1,5.17-.07h.14l0,.13a4.76,4.76,0,0,1,0,2.62,2.84,2.84,0,0,1-.71,1.2,4,4,0,0,1-1.19.74,23.6,23.6,0,0,1-5.43,1.49l.12-.06-2.1,1.92-.07-.4,7.57,3.24-.1,0h7l8.18-2.34.07,0h.06a2.87,2.87,0,0,1,.86.37,1.8,1.8,0,0,1,.61.59,1.39,1.39,0,0,1,.18.87,2.67,2.67,0,0,1-.74,1.41,16,16,0,0,1-2.23,1.92c-1.56,1.14-3.15,2.16-4.74,3.12l.12-.27a2.46,2.46,0,0,1-.48,1.52,6.19,6.19,0,0,1-.95,1.14c-.71.65-1.39,1.26-2.1,1.87q-2.08,1.83-4.17,3.5a34.68,34.68,0,0,1-4.26,3,4.79,4.79,0,0,1-1.23.49c-.42.06-.83.11-1.25.13a9.77,9.77,0,0,1-2.47-.14h0l-12.26-6.87-.09,0v-.1c0-4.7.07-8.46.09-11.09,0-1.26,0-2.25,0-3l0-.76A.79.79,0,0,1,142.29,353.33Z" style="fill:#6f4439"></path><path d="M158.14,353c0,.1-1.65.33-3.54,1.15a15,15,0,0,0-2.23,1.34c-.56.39-.92.62-1,.56s.23-.38.74-.85a8.41,8.41,0,0,1,2.25-1.53C156.36,352.85,158.16,352.84,158.14,353Z" style="fill:#6f4439"></path><path d="M170.73,364.71a12.23,12.23,0,0,1-2.51.34c-1.55.15-3.69.32-6.06.47a30.27,30.27,0,0,1-6.12.08,3.42,3.42,0,0,1-2.28-1.12,7.11,7.11,0,0,0,2.33.75,42.07,42.07,0,0,0,6-.24c2.37-.15,4.52-.26,6.08-.31A11.4,11.4,0,0,1,170.73,364.71Z" style="fill:#6f4439"></path><path d="M167.08,367.69a35.58,35.58,0,0,1-5.58,2.45,10.27,10.27,0,0,1-4.24,1c-1.16-.08-1.75-.58-1.7-.63a7.33,7.33,0,0,0,1.71.25,11.86,11.86,0,0,0,4-1.16A36.21,36.21,0,0,1,167.08,367.69Z" style="fill:#6f4439"></path></g></svg>