<svg xmlns="http://www.w3.org/2000/svg" viewBox="0 0 500 500"><g id="freepik--background-simple--inject-4"><path d="M475.77,253.26c-5.12,43.36-24.92,93.79-64.47,117-59.75,35-54.75,88.85-171.38,112.25a240.09,240.09,0,0,1-51.71,4.89,201.3,201.3,0,0,1-25.38-2.07c-74.13-10.83-124-62.36-142.31-124.55-24.09-81.8,24-135.35,55.88-167.62S131.62,60.31,246.09,36.4a232.64,232.64,0,0,1,53.15-5c40.73,1,85.15,14.38,115.9,42.29q3.45,3.15,6.74,6.51C464.6,124,482.76,194.13,475.77,253.26Z" style="fill:#407BFF"></path><path d="M475.77,253.26c-5.12,43.36-24.92,93.79-64.47,117-59.75,35-54.75,88.85-171.38,112.25a240.09,240.09,0,0,1-51.71,4.89,201.3,201.3,0,0,1-25.38-2.07c-74.13-10.83-124-62.36-142.31-124.55-24.09-81.8,24-135.35,55.88-167.62S131.62,60.31,246.09,36.4a232.64,232.64,0,0,1,53.15-5c40.73,1,85.15,14.38,115.9,42.29q3.45,3.15,6.74,6.51C464.6,124,482.76,194.13,475.77,253.26Z" style="fill:#fff;opacity:0.8"></path></g><g id="freepik--Clouds--inject-4"><path d="M264.57,194.32c-.13-.41-.27-.83-.42-1.24C258.64,177.75,233,176.7,233,195.53c0,3.63-8.7,0-12,4.71s.37,7.62-4,9.07-4.71-2.17-10.15-1.81-4.72,5.44-6.53,6.89-1.82.73-5.81,1.09-4.71,3.26-4.71,3.26h95.4s3.63-10.88-2.9-14.87-6.53,1.45-11.61-.72C266.53,201.35,265.75,197.94,264.57,194.32Z" style="fill:none;stroke:#b2b2b2;stroke-linecap:round;stroke-linejoin:round"></path><path d="M267.87,214.78s2-6.11-2.87-10.6-9.88-2-11.32,0-1.44,5.75-3.77,6.1-1.8-3.95-6.83-2.87-3.05,6.11-5.39,7.19-2.33-2.88-5.57-1.62-3.05,3.59-3.05,3.59" style="fill:none;stroke:#b2b2b2;stroke-linecap:round;stroke-linejoin:round"></path><path d="M242.07,202.57a9.1,9.1,0,0,0-9.2-.8c-5.2,2.4-2.8,7.4-5.2,8.6s-3.6-.2-6.6,1.2-2.8,3.4-2.8,3.4" style="fill:none;stroke:#b2b2b2;stroke-linecap:round;stroke-linejoin:round"></path><path d="M438.48,70.5c-.11-.34-.22-.68-.35-1-4.51-12.56-25.53-13.43-25.53,2,0,3-7.13,0-9.81,3.86s.3,6.25-3.27,7.44-3.87-1.79-8.33-1.49-3.86,4.46-5.35,5.65-1.48.59-4.75.89-3.87,2.68-3.87,2.68h78.2s3-8.92-2.38-12.19-5.35,1.19-9.52-.6C440.09,76.26,439.44,73.46,438.48,70.5Z" style="fill:none;stroke:#b2b2b2;stroke-linecap:round;stroke-linejoin:round"></path><path d="M441.18,87.26a8.72,8.72,0,0,0-2.35-8.68c-4-3.69-8.1-1.62-9.28,0s-1.18,4.71-3.09,5-1.47-3.24-5.6-2.35-2.5,5-4.42,5.89-1.91-2.36-4.56-1.33-2.5,2.95-2.5,2.95" style="fill:none;stroke:#b2b2b2;stroke-linecap:round;stroke-linejoin:round"></path><path d="M420,77.26a7.47,7.47,0,0,0-7.54-.66c-4.26,2-2.29,6.07-4.26,7.05s-3-.16-5.41,1-2.3,2.78-2.3,2.78" style="fill:none;stroke:#b2b2b2;stroke-linecap:round;stroke-linejoin:round"></path><path d="M240.79,30.12c-.08-.25-.16-.49-.25-.73-3.24-9-18.36-9.66-18.36,1.44,0,2.14-5.13,0-7.06,2.78s.22,4.49-2.35,5.35-2.78-1.29-6-1.07S204,41.1,202.93,42s-1.07.43-3.42.64a2.93,2.93,0,0,0-2.78,1.93H253s2.14-6.42-1.71-8.77-3.85.86-6.84-.43C242,34.26,241.48,32.25,240.79,30.12Z" style="fill:none;stroke:#b2b2b2;stroke-linecap:round;stroke-linejoin:round"></path><path d="M242.74,42.18a6.29,6.29,0,0,0-1.7-6.25c-2.86-2.65-5.82-1.17-6.67,0s-.85,3.39-2.22,3.6-1.06-2.33-4-1.69-1.8,3.6-3.18,4.23-1.37-1.69-3.28-1-1.8,2.12-1.8,2.12" style="fill:none;stroke:#b2b2b2;stroke-linecap:round;stroke-linejoin:round"></path><path d="M227.53,35a5.39,5.39,0,0,0-5.43-.47c-3.07,1.42-1.65,4.36-3.07,5.07s-2.12-.12-3.89.71-1.65,2-1.65,2" style="fill:none;stroke:#b2b2b2;stroke-linecap:round;stroke-linejoin:round"></path></g><g id="freepik--Trees--inject-4"><g style="opacity:0.4"><path d="M363,110c.3.83.63,1.53.63,1.53Z" style="fill:#263238;stroke:#263238;stroke-linecap:round;stroke-linejoin:round"></path><path d="M369.14,108.39l-.12-1.15,5.82-.36-13.29-5.16,4,.2,4.57,1.83,1.15-3.81-8.51-4,2.91-.18-8.62-1.71-8.3-1.69L347,83.28l5.86,5.44-1.55-7.81,5.8,6.73L356.31,77l4.14,7.62,0-7.09,4,3.1.8-3.19,4.43,1.83-1.5-2.33,5.48-.06-5.9-4.48,3.5.82,2.61-.52s-4.07-2.45-5.36-2.52-20,6.13-20,6.13l-4,2.38-9.3-1.09,4.18-6.25-4.86.41,2.68-2.13,6.9-2.56-3.54-.18L345,64.48,342.43,64l7.73,0,3.67-2.4a21.06,21.06,0,0,0-9.68.17c-5.23,1.36-11.93,6.52-12.92,7.11s.73-1.89.73-1.89l-3.52-.5,5.29-2.64-2.58-.13L339,61l-7.4-.36,7.82-1.55-6-2.23,8,1.68-9.16-4,9.31.77-8.25-2.66,9.94,1.13L339.19,51,344,50.9l-2.81-1.75,2.91-.18,4.84-.09-4.41-2.15,2.94-.82L346,44.54l3.85.19-6.33-2.24,1.12-3.17L341,40.43l.09-1.93-2.62.84-.55-2-2.7,2.45-1.5-2.33-1.23,5.42-1.75,2.82L330,48.6l-.91-7.78-1.47,10.24-1.52-8.45-1.62,6.69-1.93-6.54-.27,5.47-4.62-4.42L324.07,37l-6.3,3.56.64-6.41-2.21,5.69L314,44.92l.33-6.75-1.57,5.73-3.17-1.12,0,7.09-4.3-4.4.95,6.81-3.3-5,.65,6.48-1.88-1.06L304,58.94l-2.85-1.1,2.06,4-1.62.24s-.07,1.48-.08,3c-.61-1.77-1.5-3.68-1.5-3.68l-.75,2.22-1.66.89-3.51-7.27,3.63-1.75-3.46-1.78,2.33-1.5-2.83-1.43,1.73-2.5-2.19-1.39-.55-2-1.59-.4,2.36-2.14,1.2-4.78-3.2-.48L291,34.78l-2,.55-1.8-2.67-1.08,2.2-6.64-2.58,6.2,5.14-5.38-2.19,4,3.74-3.53-.18L287.12,41l-1.38,1.86-4.51.11,1.85,1.7-3.57.47,3.7,3.41L276.84,47l8.73,6.22-9.85-3.05,6.84,5.16-4.84.09,2.79,2.39s-2.46,0-4.11-.06c2.4.64,6.89,2.46,6.89,2.46l-4.5-.22,4,3.09-3.62,1.44L287,70.69l-6.16.67L284,72.48,280.3,75.2l8.92,2.37L283,80.17l5.46.27-3.05,3.07,3-.54,1.21-.22,2.17,1.72L290.05,87l3.86.19L292.21,89s-9.19-3.35-11.75-3.79-7-1.31-9.63-.79S265,85.74,264,86s-4.82-.24-7.41,0-9,.2-10,.16l-7.72-.38c-1,0,6.9,3.88,6.9,3.88l6.16-.66-2.36,2.14,7.15-1.27-4.23,7.54,6.31-3.89-1.21,5.1,4.57-7.84-.67,7.06-.84,4.15,3.6-7.88,0,7.41,2.24-5.79,1.44-3.7L271,93.77l-1.23,5.43,4.69-3.64-2.26,6.66,5.66-3.6-3.59,7.57,5.09-5.24-1.25,5.74,5.36-4.25-.29,6.11,1.72-8.94,1.36,5.22.56-4.81.62,7.13,4.2-6.89-.33,6.75.56-1.51,1.67-4.5,1.72-2.18.42,4.54-1.63,7-8.42,7.33s-20,20-21.88,25.7-2.77,17.27-2.59,20.18.88,8.43.88,8.43l3.29-14.67.15,1.76.26,3.09,1.68-8,2.21-5.69.7,5.51,3.16-12.09.09,4.84,2-8.29v6.45l3.36-9.51v6.77l.88-3.73,1.15-4.88s-4.08,24.31-3.67,29.17.48,10,.48,10l6.11-12.92s1.41-2.51.46-2.88,2-1.83,2-1.83l-2.51-1.42,5.57-1.66-5.33-3.16,5.48-.06-2.45-2.69,3.54.17-1.5-2.33,2.9.14-2.71-4,4.83.23-3.69-3.72,3.49,1.13-.87-2,4.49.54L293.12,130l4.47.86-2.75-3,3.87-.14L296.63,124l3.88-.14-2.4-3.66,3.49,1.14.44-2.56-.19-2.59c1.1-2.85.22-4.5.22-4.5l2.26-.22s-3.37,23-3.08,30.16,2.56,33.66,4.59,38.27c1.86,4.21,4.83,13,5.33,14.54.47,12.37.83,22.16.93,24.89.31,9.12,3.21,105.61,3.21,105.61l6.47-.44-3.87-100s-.86-21.28-2.27-31.22c-1.29-9-2.45-40-2.34-51.8l1.28,4.63s-.07,3.58-.13,6.78c0,2.24-.09,4.28-.11,4.81-.07,1.29,3.81-5.61,3.81-5.61l-.81,5.35-.6,3.93-.09,8.37,3-8.55-.38,7.71,1.54-5.08L320,174.18l3.25-7.26-1.53,11.53,1.2-2.13,2.33-4.14-1.35,8,3.4-3.7-.19,3.86,1.41-2.51-.25,5.14,2.75-3.41,3,4.66-1-6.82,2.59-.19L332,172.83l-2.08-3.65,2.83,1.43-3.68-3.73,2.91-.18-2.29-5.91,2.2,1.07-6.5-5.48,7.27,2.94L329.3,155l2-.87-6.2-5.13,8.19,3.94L329.14,145l2.24.43-1.7-2.7-.39-.62-2.57-6.9,2.56.45-4-3.42-1.1-3.92-2.7-4,6,2.87L320.59,122l6.34,2.24L333,137.74l-.29,6.11,4.4-4.3-.7,7.7,3.76-4.33-1.3,6.71,2.41-3.11L340,154.19l3.53-6.27-.07,8.05,2.2-5.37-.38,7.72,3.16-5.33-.36,7.4,2.52-5.36-.67,7.06,3.53-6.27-.34,7.07s3.56-6.92,3.82-5.62-.1,8.7-.1,8.7l1.75-2.81.15,3.55s1.77,3.31,2.37,4.31,4.83,6.68,4.83,6.68-1.69-11.69-2.25-13.33-5.58-11.23-5.58-11.23l-2.71-4,4.68,3.13-4.52-6.35,4.1,1.81-6.47-6.11,2.55.44-5.92-4.15,5.39,1.87-7-2.6,3.94-1.42-4.7-2.8s3.59-.8,2-1.52-2.83-1.43-2.83-1.43l5.16-.07-5.3-3.8,3.54.17-8.83-4s-1.86-1.7-3.72-3.08-5.6-4.14-7.79-5.54-6.23-4.49-6.23-4.49l4.74,1.84,7.21,4.22-.85-2.3-.81-3.26,2.46,2.38.39-1.27,3.07,3,.48-3.2,1.23,1.35s-.48-3.57.47-3.2,1.81,2.66,1.81,2.66l1.55-5.4,2.14,2.36,1.08-2.21,1.56,1.05,3.88,13.08.34-7.08,1.92,6.87,1.37-8.32,3.15,8.22,1.14-3.5.83-3.82-1-6.18L363,110c-.43-1.22-.77-2.73.19-2.69,1.61.08,3.32,4.68,3.32,4.68l-.73-4.87,3.65,4.37Zm-63,38,3.22,1,.06,1.52Zm3.75,14.9-1.45-2.53,1.36.06Zm-1.23-7a5.09,5.09,0,0,0,1,.24l0,.86Zm.83-3.54c-.32-.73-.59-1.29-.59-1.29l.55.19C309.5,150,309.52,150.38,309.53,150.75Zm-.19-5.08-2-2.41,2,.55C309.29,144.42,309.31,145,309.34,145.67Zm.63,16.74L310,164l-2-1.73Zm-.85,3.18,1,0c.35,9.23.71,18.74,1,27.17Zm0-24.9L307.48,138l-.52-.85-2.07-4,3.2.48-1.14-3-.46-3.89s-1.36,1.55-1.28-.06.25-5.15.32-6.75.27-5.47.27-5.47l2.73,9.87C308.64,127.22,308.86,133.13,309.15,140.69Z" style="fill:#263238;stroke:#263238;stroke-linecap:round;stroke-linejoin:round"></path><path d="M275,57.54c-.38.1.34.17,1.36.2A3.63,3.63,0,0,0,275,57.54Z" style="fill:#263238;stroke:#263238;stroke-linecap:round;stroke-linejoin:round"></path></g><g style="opacity:0.4"><path d="M18.74,89c-.12.59,1-.76,2.32-2.56A9.9,9.9,0,0,0,18.74,89Z" style="fill:#263238;stroke:#263238;stroke-linecap:round;stroke-linejoin:round"></path><path d="M40.75,104.62c-.43,1,.35-.45,1.23-2.14A20.19,20.19,0,0,0,40.75,104.62Z" style="fill:#263238;stroke:#263238;stroke-linecap:round;stroke-linejoin:round"></path><path d="M137.78,117.2c.11,1.11.28,2.08.28,2.08Z" style="fill:#263238;stroke:#263238;stroke-linecap:round;stroke-linejoin:round"></path><path d="M136.08,88.68A15.8,15.8,0,0,0,138,92.17C139.12,93.35,137.44,90.74,136.08,88.68Z" style="fill:#263238;stroke:#263238;stroke-linecap:round;stroke-linejoin:round"></path><path d="M25.59,86.06C26.84,83.8,32,79.61,32,79.61S27.85,83.4,30.41,82s5.37-2.72,5.37-2.72-6.08,6.32-2.64,4.17,6.34-3.68,6.34-3.68-2.6,2.78-.71,1.64S42.88,79,42.88,79,37,84.27,39.4,82.53a53.23,53.23,0,0,1,5.67-3.42s-3.85,5-2.3,4a39.1,39.1,0,0,1,4.92-2.34s-4.56,4.73-3.24,3.63c.69-.59,2.36-1.78,3.77-2.76,1.25-.88,2.3-1.6,2.3-1.6l2.22.68S46.33,85.24,49,84.17c.4-.16.82-.33,1.24-.52a27.14,27.14,0,0,0-2.87,4.29c-5,9-9,17-8.4,16.2s5.07-5.91,4.77-5.2c-.15.33-1,2-1.79,3.54,1.72-2.72,4.49-6.56,4.49-6.56s-4.07,9.41-2.82,7.16,5.62-8.47,5.62-8.47S47.49,98.74,47,99.79c.71-1.65,5.72-8.71,5.72-8.71S47.63,100.33,50,98a24.15,24.15,0,0,0,2.08-2.34.45.45,0,0,0,.32,0c1.82-.33,6.45-5.88,6.45-5.88s-3.66,6.53-1.83,4.24a60,60,0,0,1,4.66-5S57.61,96,58.9,94.3s5.74-6.18,5.74-6.18-4,6.66-2.91,5.45a37.88,37.88,0,0,1,3.61-3.19s-4.83,6-3.18,4.77a31.39,31.39,0,0,1,4.45-2.54l2.56.54S55.59,98.74,49.68,104s-11.31,9.36-13,13.36c-1.57,3.64-4.9,11.35-5.18,12,.4-.95,7.13-10,7.13-10s-5,9.58-2.92,7.4a71.16,71.16,0,0,0,5.44-7.43s-5,11.54-3,8.78,6.6-11.39,6.6-11.39-3.36,9.72-2,8.61,6.9-10.15,6.9-10.15L47.24,122l4.22-6.56s-1.86,5.62-.75,5,5-5.67,5-5.67L54.25,118,61,109.46s-2.54,5.89-1.9,5.05,5.34-7.19,5.34-7.19-3,5.68-2,4.7,7.37-9.94,7.37-9.94l-2,7.23.55-.74,2.76-3.69s2.36,1,1.14,1.89S66.9,112,66.9,112s-3.72,5.38-5,7.63-2.6,4.74-2.6,4.74l6.21-6-3.89,6.42,2.84-2.69-2.75,6.36,2.16-2.42-3,6.83s3.08-4.54,2.91-3.5-2.22,9.66-2.22,9.66c1.31.85.51,9.16.82,8.45s2.37-4.84,2.37-4.84-2.45,7.61-1.8,6.77,4.26-7.94,4.26-7.94-1.87,7.57-1.94,8.38S67,148.64,67,148.64l.46,4.11a61.71,61.71,0,0,0,5.94-4.7,15.45,15.45,0,0,0,2.54-3.93l.07-2.76,1.92,1.38-3-5.22,3.86,3.34-4.83-6.28,4.6,4.23-.7-2.26,3,1.56-1.9-7.25,2.79,2.6-1.16-6.37,3.42,5.67,3.15,11.11c-.2,13.53-.58,31.58-1.1,52.27-.73,29-9.76,90.49-9.76,90.49s.23,21,1.47,40.68h8.86c-.78-6.11-1.35-12.81-1.6-20.15-1.4-41.39,7.2-80.69,8.46-95.24s-.62-56.13-1.51-61.82A78.49,78.49,0,0,1,91.52,135l.3-2.44,1,2.93-.28-7.11.73.88.89-4.53.28-1.39.82-3.84.15,4.82,2.14-5L97,124.45l4.28-3.46-1.83,4.24s4-2.75,3.11-2-4.67,5-4.67,5l5.13-2.82-5.14,6.72,5.1-3.38-5,5.67,5.2-3.62-6.35,7.59,6.14-5.16s-6.62,6.91-5.48,6.85,7.79-4.46,7.79-4.46l-3.11,5.92,4-3.56-2.34,5.42,3.65-4.57L104.75,146l3.41-4.67L106,147.61l1.71-.1.74,2.83L111,145l-2.11,7.47,2-4.71.28,5.15,1.77-3.43-.29,5.19,1.53-3.53.12,4.24.19-8.23,0-2-.33-3.77,1.58,1.52-.56-3.87s-1.34-3.37-.16-2.87a19.21,19.21,0,0,1,3.23,2.24l-3.49-4.86-4.39-8.6,3.3,1.42s-3.59-4.62-2.65-4.22,3.67,1.87,3.67,1.87l-4.27-4.36,6.47.56-.49,5.65,2.7-3-2,5.28,3.41-2.72-3.15,7.3,3.94-3.32-2.71,6.93,3-4.3-2.08,8,3.48-5.48-.87,9.12L126,138.1l-.73,7.51,2.3-4-.35,4,1.15-2,.56,3.57.7,4.51,1.44,1.18,1.17-7.87,1.52,8.76,1.87-5.62,1.49,8.19.82-5.83.25-1.81.32-4.62,1.61,2.1-1.37-3.95,1.17.51s-8-7.36-6.58-6.75,7.46,6,7.46,6-4-5.63-6.47-8.94-2.52-3.88-4.22-7.69-3.85-7.25-4.76-9a29.18,29.18,0,0,0-3.42-5.66c-1.4-1.91-.6-1.51-1.29-2.35a35.52,35.52,0,0,0-2.67-2.72,97.53,97.53,0,0,1-8.32-9.18l8.07,4.6,6.13,9.08s-5.32-9-4.48-8.36a69.56,69.56,0,0,1,4.56,5.6s-2.24-5.16-1.5-4.28,5.56,9.11,5.56,9.11-2.37-7.45-.92-6.27,4.35,8,4.35,8-1.93-7.82-.66-5.6,5.62,14.16,5.62,14.16-3.1-12.23-2-11.49a6.42,6.42,0,0,0,2.69.89l.71,5.33c-.17-1.65-.22-3.61.56-3.11,1.31.85,3.78,8.06,3.78,8.06s-1.59-8-.15-6.77,3,10.52,3,10.52l.85-5.22s.25,6.54.66,5.59,1.33-7,1.33-7l1,6.84,1.46-4.68.32,5.72,1.26-4.2.76,5.36s-.39-4.92.61-3.37a27,27,0,0,1,2,5.63s-2.36-9.4-1.42-9a19.5,19.5,0,0,1,3.12,2.47s-5.39-8.2-3.75-7.48a22.9,22.9,0,0,1,3,1.55l-6.51-5.61,4.5,2.51s-9.71-7.27-9-7l-3.06-1.33s.71-3.6-5.23-9.24S126.12,88.7,125,88.2s5,1.32,5,1.32-4.17-2.64-3.12-2.46,6.22,2.4,6.22,2.4-5.1-5-4.16-4.59,6.62,5.38,6.62,5.38l-.9-3.74s.68,1,1.46,2.17c-1.51-3.32-3-7.6-3-7.6l4.89,7.42s-1.93-5.86-.86-5.12,3.49,4.86,3.49,4.86-.2-3.68-.33-5a31.51,31.51,0,0,0,2.35,4.25l0-3.91,1.93,5.87,1.19-3.4,1.73,6.33.66-4.74,1.47,3.71s-.19-5.39.48-3.71a57.81,57.81,0,0,1,1.6,6s.52-5.08,1.52-3.53a46.33,46.33,0,0,1,2.68,6.74s-.08-7.57.56-6.46a15.16,15.16,0,0,1,1.1,3.27s-.2-3.44.64-2.79a21.22,21.22,0,0,1,2.62,3.64s-.87-3.17,0-2.52,2.42,2.16,2.42,2.16-2.82-3.18-.53-1.35a20.28,20.28,0,0,1,3.66,3.81l-3.79-6.1,4.77,3.18s-6-6.22-5.27-5.91,3.5,1,2.66.31-6.29-3.55-4.43-3.31a18.88,18.88,0,0,0,3.9,0l-6-2.88s3.57.14,2.4-.36-10.17-3-10.17-3,9.36,1-3.19-1.66c-2.52-.52-4.83-1-7-1.3l-.85-.67L143.91,76l-5.48-3.48c1.41.61-.33-1.82-.33-1.82l-8.38-3.9s4.92,1.57,4.08.92-3.2-1.65-7.77-3.35c-2.46-.91-6.58-.21-9.87.64-1.17-.42-2.89-.85-2.89-.85a19.29,19.29,0,0,1,4.58-.25c1.27.27-1.89-.82-1.89-.82s5.76.26,7.34-.18S121,61.08,121,61.08l4.24-.12,8.08,2.64s-9.38-5.44-7.23-5.91,1.85.24,2.8.65l2.82,1.22s8.07,4.6,11.13,5.92-6.15-5.17-6.15-5.17l4.95,2.14A17.18,17.18,0,0,0,139,60.19c-.7-.31,3.16,1.08,3.16,1.08a32.07,32.07,0,0,0-4-3.11c-.94-.4,5.18.29,5.18.29l-7.06-3.05,7.24.05S130,53.22,125.35,52.34s-3.87.56-5.49.42S114,56.65,114,56.65L116.26,54s-5.6,2.61-7.15,3.62-8.92,9-8.92,9a55,55,0,0,0,.69-6.13,10.51,10.51,0,0,1,3.51-1c1.72-.1-2.72-1.46-2.72-1.46l3.3-.52-3-2.13,1.11-.64c1.11-.64,2-.8,6.6-1.06s3.61-1.23,3.61-1.23L111,52l-2.49-1.35-1.33,0-3.62-.14,4.59-2.21-6.81-.42s4.12-2.41,7.45-2.37,3.13.52,3.13.52l5.41,4.29-1.57-3.47,3.57.14s-2.08-2.3-3.06-3.27,3.91,0,5-.06-3.53-1.52-5.41-2.34,3.24-1.67,3.24-1.67l-3.7-.48,2.79-1.31-.9-1.79-2.93.46-2.76.44,3.1-2a47.73,47.73,0,0,0-12.34,5.28c-5.77,3.65-7,5.91-7,5.91l-.12-4.25-2.58,5.32-.82-6.5-1.09,5.11-.63-5-.61,1.41L90,50.75l-.71,1.65-.21,4.38-3.32,4.43,3.48-1.57L86.09,65l3.57-1.8A54.77,54.77,0,0,0,85.51,67c-.64.84,1.55-1,1.55-1l-4,4.13s4.72-1.87,5.63-2-1,1-2.67,3.59a13,13,0,0,0-1.21,2.42,49.11,49.11,0,0,0-5.48-5c-10.58-8.48-11.76-9-14.42-9.3s-6.84.95-6.84.95,5,.76,4.18.69-6.54,2.2-5.63,2,6.09.12,6.09.12l-4.76,3.25s4.86-1.54,4.08-1a29.94,29.94,0,0,0-2.84,2.68l2.94-1L60.42,70.1,63.11,69l-2,4.7.17,1.4-1-.09c-9.56-.49-16.22-2.53-21.07-1s-11.46,4.55-13.42,6.5c-1.06,1-3.07,3.77-4.68,5.87,2.73-2.49,6.87-5.77,6.87-5.77S24.33,88.31,25.59,86.06Zm103.7-11.79-.36,0-.67-.82Zm-3.43-.16-.84,0c-.78-.7-1.51-1.32-1.51-1.32Zm-2.89,0h-.31l-.45,0c-.9-.81-1.7-1.51-1.7-1.51S121.64,73.29,123,74.08Zm-3.59.26c-.39,0-.78.12-1.16.19l-.17-.77ZM71.69,72.45c-.31.71,1.31.85,1.31.85a35.86,35.86,0,0,0-1.89,3.09A13.63,13.63,0,0,1,74,74.28l-.57,2L74.9,76l.89-.13,2,.58-.84,1.31s4.18-1.27,3.3-.53-2.09,1.61-2.09,1.61l2.62-.26L79.16,80a94.78,94.78,0,0,0-12-3.83c.44-.39,1.07-.95,1.74-1.52C70.3,73.36,71.86,72.06,71.69,72.45Zm-5.93.79,2.9-1.54-1.88,4.35c-1.11-.25-2.22-.47-3.3-.64Z" style="fill:#263238;stroke:#263238;stroke-linecap:round;stroke-linejoin:round"></path></g><g style="opacity:0.4"><path d="M362.33,146.79c-.11.5.8-.64,2-2.17A8.56,8.56,0,0,0,362.33,146.79Z" style="fill:#263238;stroke:#263238;stroke-linecap:round;stroke-linejoin:round"></path><path d="M381,160c-.37.85.3-.38,1-1.81A16.71,16.71,0,0,0,381,160Z" style="fill:#263238;stroke:#263238;stroke-linecap:round;stroke-linejoin:round"></path><path d="M463.09,170.69c.1.94.24,1.76.24,1.76Z" style="fill:#263238;stroke:#263238;stroke-linecap:round;stroke-linejoin:round"></path><path d="M461.65,146.55a13.91,13.91,0,0,0,1.66,3C464.23,150.51,462.81,148.29,461.65,146.55Z" style="fill:#263238;stroke:#263238;stroke-linecap:round;stroke-linejoin:round"></path><path d="M368.12,144.33c1.06-1.91,5.43-5.46,5.43-5.46s-3.51,3.21-1.34,2,4.53-2.29,4.53-2.29-5.14,5.34-2.23,3.52,5.37-3.12,5.37-3.12-2.2,2.36-.6,1.4,3.48-2,3.48-2-5,4.46-2.94,3a44.44,44.44,0,0,1,4.79-2.89s-3.26,4.26-1.95,3.41a33,33,0,0,1,4.17-2s-3.86,4-2.74,3.07c.59-.5,2-1.5,3.19-2.34l2-1.35,1.88.57s-5.43,3.81-3.15,2.9c.34-.13.7-.28,1.06-.44a23,23,0,0,0-2.43,3.63c-4.24,7.63-7.66,14.43-7.11,13.72s4.29-5,4-4.41c-.12.29-.85,1.72-1.51,3,1.46-2.3,3.8-5.56,3.8-5.56s-3.45,8-2.39,6.07,4.76-7.17,4.76-7.17l-1.9,4.38c.6-1.39,4.84-7.36,4.84-7.36s-4.33,7.82-2.3,5.86a20.28,20.28,0,0,0,1.76-2,.44.44,0,0,0,.27,0c1.54-.28,5.46-5,5.46-5s-3.09,5.52-1.55,3.58a51.51,51.51,0,0,1,3.95-4.2s-3.47,5.83-2.38,4.41,4.86-5.23,4.86-5.23-3.38,5.63-2.46,4.61a30.87,30.87,0,0,1,3-2.7s-4.09,5.09-2.69,4a26.68,26.68,0,0,1,3.77-2.16l2.17.47s-11.51,4.72-16.51,9.18-9.57,7.93-11,11.32L373.09,181c.34-.8,6-8.51,6-8.51s-4.22,8.12-2.47,6.27a61,61,0,0,0,4.6-6.29s-4.21,9.77-2.5,7.43,5.59-9.64,5.59-9.64-2.85,8.23-1.73,7.29,5.84-8.59,5.84-8.59l-2,5.75,3.58-5.55s-1.59,4.76-.64,4.22,4.2-4.81,4.2-4.81l-1.21,2.79,5.73-7.22s-2.16,5-1.61,4.27,4.52-6.09,4.52-6.09-2.55,4.81-1.72,4,6.24-8.42,6.24-8.42l-1.7,6.12.47-.62,2.33-3.13s2,.86,1,1.6-4.51,4.43-4.51,4.43-3.15,4.55-4.21,6.46-2.21,4-2.21,4l5.26-5-3.29,5.43,2.4-2.27-2.32,5.38,1.83-2.05-2.5,5.78s2.6-3.84,2.46-3-1.88,8.18-1.88,8.18c1.11.71.44,7.75.69,7.15s2-4.1,2-4.1-2.07,6.44-1.53,5.73,3.62-6.72,3.62-6.72-1.59,6.41-1.65,7.1,1.4-1.05,1.4-1.05l.39,3.47a53.38,53.38,0,0,0,5-4,13.14,13.14,0,0,0,2.14-3.33l.07-2.34,1.62,1.18-2.58-4.43,3.27,2.83L409,185.41l3.89,3.57-.59-1.91,2.51,1.32-1.61-6.13,2.36,2.2-1-5.39,2.89,4.79,2.67,9.4c-.17,11.46-.49,26.74-.94,44.26-.61,24.55-8.25,76.59-8.25,76.59s.06,5.48.29,13.2h7c-.51-33.47,6.24-64.61,7.25-76.43,1.07-12.31-.51-47.52-1.27-52.34a66.76,66.76,0,0,1-.31-12.79l.26-2.07.82,2.49-.24-6,.62.74.76-3.83.23-1.18.69-3.25.13,4.08,1.81-4.19-.44,4.31,3.63-2.93-1.55,3.59s3.37-2.33,2.63-1.7-3.95,4.2-3.95,4.2l4.34-2.38-4.35,5.69,4.31-2.87-4.2,4.81,4.4-3.07-5.38,6.43,5.2-4.38s-5.6,5.86-4.63,5.81,6.59-3.78,6.59-3.78l-2.64,5,3.43-3-2,4.59,3.09-3.87L435.13,195l2.89-3.95-1.84,5.35,1.45-.08.62,2.4,2.18-4.5-1.78,6.32,1.72-4,.24,4.36L442.1,198l-.24,4.39,1.3-3,.1,3.6.16-7,0-1.7-.28-3.19,1.34,1.28-.48-3.27s-1.13-2.86-.14-2.43a16.32,16.32,0,0,1,2.74,1.89l-3-4.11L440,177.26l2.79,1.2s-3-3.91-2.24-3.57,3.1,1.58,3.1,1.58L440,172.78l5.47.48-.41,4.78,2.29-2.56-1.7,4.47,2.89-2.3-2.67,6.18,3.34-2.81-2.29,5.87,2.51-3.65-1.75,6.81,2.95-4.64-.74,7.73,3.24-4.75-.62,6.35,2-3.42-.3,3.42,1-1.7.47,3,.59,3.82,1.22,1,1-6.66,1.29,7.41,1.58-4.76,1.26,6.93.69-4.93.22-1.53.26-3.91,1.37,1.77-1.16-3.33,1,.43s-6.77-6.24-5.58-5.72,6.32,5.09,6.32,5.09-3.38-4.77-5.48-7.57-2.13-3.28-3.57-6.51-3.26-6.14-4-7.65a25.47,25.47,0,0,0-2.89-4.8c-1.19-1.61-.51-1.27-1.1-2-.29-.36-.91-1-2.25-2.29a82.31,82.31,0,0,1-7.05-7.77l6.83,3.89,5.19,7.68s-4.51-7.62-3.8-7.08a61,61,0,0,1,3.87,4.75s-1.9-4.37-1.28-3.63,4.71,7.71,4.71,7.71-2-6.3-.78-5.3,3.69,6.79,3.69,6.79-1.64-6.61-.56-4.73,4.75,12,4.75,12-2.62-10.36-1.71-9.73a5.51,5.51,0,0,0,2.28.75l.6,4.51c-.14-1.4-.19-3.06.48-2.63,1.11.72,3.2,6.82,3.2,6.82s-1.35-6.73-.13-5.72,2.54,8.9,2.54,8.9l.73-4.42s.21,5.53.56,4.73,1.13-5.89,1.13-5.89l.81,5.78,1.23-3.95.27,4.84,1.07-3.56.64,4.54s-.33-4.17.52-2.85a23.17,23.17,0,0,1,1.73,4.76s-2-8-1.21-7.61a16.09,16.09,0,0,1,2.65,2.09s-4.57-6.94-3.18-6.34a18.68,18.68,0,0,1,2.51,1.32l-5.52-4.75,3.82,2.12s-8.22-6.15-7.63-5.89l-2.59-1.12s.61-3.05-4.42-7.82-9.07-7.47-10.07-7.9,4.24,1.12,4.24,1.12-3.52-2.23-2.64-2.09,5.27,2,5.27,2-4.32-4.23-3.53-3.88a72,72,0,0,1,5.61,4.55l-.76-3.17s.57.84,1.23,1.84c-1.28-2.81-2.56-6.43-2.56-6.43l4.14,6.28s-1.64-5-.73-4.34,3,4.12,3,4.12-.18-3.12-.29-4.28a26.33,26.33,0,0,0,2,3.6v-3.31l1.64,5,1-2.88,1.47,5.36.55-4,1.25,3.13s-.16-4.56.41-3.13a50.47,50.47,0,0,1,1.35,5.08s.44-4.31,1.29-3a39.76,39.76,0,0,1,2.27,5.71s-.07-6.42.47-5.48a12.6,12.6,0,0,1,.93,2.77s-.16-2.91.55-2.36a17.81,17.81,0,0,1,2.21,3.08s-.73-2.68,0-2.14,2.05,1.84,2.05,1.84-2.39-2.69-.46-1.15a17.07,17.07,0,0,1,3.1,3.23l-3.2-5.16,4,2.69s-5.06-5.26-4.46-5,3,.81,2.25.27-5.33-3-3.76-2.81a15.59,15.59,0,0,0,3.31,0l-5.1-2.43s3,.12,2-.31-8.6-2.54-8.6-2.54,7.92.83-2.71-1.4c-2.13-.45-4.09-.81-5.89-1.1l-.72-.57,3.85.95-4.64-2.95c1.2.52-.28-1.54-.28-1.54l-7.09-3.3s4.16,1.33,3.45.78-2.7-1.4-6.58-2.84c-2.08-.77-5.56-.17-8.35.55-1-.36-2.45-.72-2.45-.72a16.64,16.64,0,0,1,3.88-.22c1.08.23-1.6-.69-1.6-.69a38.41,38.41,0,0,0,6.22-.15c1.34-.37-1.93-1.55-1.93-1.55l3.59-.1,6.83,2.24s-7.94-4.61-6.11-5,1.56.2,2.36.55l2.39,1s6.83,3.89,9.42,5-5.2-4.37-5.2-4.37l4.18,1.81a14.69,14.69,0,0,0-2.24-1.92c-.6-.26,2.68.92,2.68.92a26.39,26.39,0,0,0-3.36-2.63c-.8-.35,4.39.24,4.39.24l-6-2.58,6.13,0s-11.48-1.88-15.41-2.64-3.28.48-4.65.36-5,3.29-5,3.29l1.91-2.24s-4.73,2.21-6.05,3.06-7.54,7.61-7.54,7.61a46.62,46.62,0,0,0,.58-5.18,8.7,8.7,0,0,1,3-.85c1.45-.08-2.31-1.23-2.31-1.23l2.8-.45-2.53-1.8.94-.54c.94-.54,1.71-.68,5.59-.9s3.05-1,3.05-1l-2-.38-2.1-1.14-1.12,0-3.07-.11,3.88-1.87-5.76-.36s3.49-2,6.31-2,2.65.43,2.65.43l4.58,3.63-1.33-2.94,3,.13s-1.76-1.95-2.59-2.77,3.31,0,4.28,0-3-1.29-4.59-2S447.3,105,447.3,105l-3.13-.4,2.37-1.11-.77-1.51-2.48.39-2.34.36,2.63-1.7a40.34,40.34,0,0,0-10.44,4.47c-4.89,3.1-5.95,5-5.95,5l-.1-3.59-2.18,4.5-.7-5.5-.92,4.33-.53-4.25-.52,1.19.41,7.27-.6,1.4-.19,3.7-2.8,3.76L422,122l-2.66,4.52,3-1.53a46.4,46.4,0,0,0-3.51,3.21c-.55.71,1.31-.85,1.31-.85l-3.4,3.5s4-1.59,4.76-1.73-.83.82-2.26,3a11.9,11.9,0,0,0-1,2.05,42.28,42.28,0,0,0-4.63-4.26c-9-7.18-10-7.61-12.21-7.87a18.56,18.56,0,0,0-5.79.81s4.22.64,3.54.58-5.54,1.86-4.77,1.72,5.16.1,5.16.1l-4,2.76s4.11-1.3,3.45-.88a26.09,26.09,0,0,0-2.4,2.28l2.49-.82-1.44,2.22,2.29-.91-1.73,4,.15,1.18c-.29,0-.58-.06-.86-.07-8.09-.43-13.73-2.15-17.84-.85s-9.7,3.85-11.36,5.49c-.89.89-2.6,3.2-4,5,2.31-2.1,5.81-4.87,5.81-4.87S367.06,146.24,368.12,144.33Zm87.79-10-.31,0-.57-.7S455.37,133.92,455.91,134.35Zm-2.91-.13-.71,0c-.66-.6-1.28-1.12-1.28-1.12Zm-2.44,0h-.26l-.38,0-1.44-1.28S449.43,133.52,450.56,134.19Zm-3,.22c-.33,0-.66.1-1,.16l-.14-.65Zm-40.37-1.6c-.26.6,1.11.72,1.11.72s-2.15,3.33-1.61,2.62a11.47,11.47,0,0,1,2.43-1.79l-.49,1.68,1.27-.2.76-.11,1.68.49-.72,1.11s3.54-1.07,2.8-.45-1.78,1.36-1.78,1.36l2.23-.22-1.36,1.15a81.28,81.28,0,0,0-10.2-3.25l1.47-1.28C406,133.58,407.29,132.48,407.15,132.81Zm-5,.67,2.45-1.3L403,135.86c-.94-.22-1.88-.4-2.8-.55Z" style="fill:#263238;stroke:#263238;stroke-linecap:round;stroke-linejoin:round"></path></g></g><g id="freepik--Fence--inject-4"><line x1="21.68" y1="269.11" x2="486.56" y2="269.11" style="fill:none;stroke:#263238;stroke-linejoin:round;stroke-width:4px"></line><line x1="34.68" y1="269.23" x2="34.68" y2="328.11" style="fill:none;stroke:#263238;stroke-linejoin:round;stroke-width:4px"></line><line x1="60.15" y1="269.23" x2="60.15" y2="328.11" style="fill:none;stroke:#263238;stroke-linejoin:round;stroke-width:4px"></line><line x1="85.63" y1="269.23" x2="85.63" y2="328.11" style="fill:none;stroke:#263238;stroke-linejoin:round;stroke-width:4px"></line><line x1="111.1" y1="269.23" x2="111.1" y2="328.11" style="fill:none;stroke:#263238;stroke-linejoin:round;stroke-width:4px"></line><line x1="136.57" y1="269.23" x2="136.57" y2="328.11" style="fill:none;stroke:#263238;stroke-linejoin:round;stroke-width:4px"></line><line x1="162.04" y1="269.23" x2="162.04" y2="328.11" style="fill:none;stroke:#263238;stroke-linejoin:round;stroke-width:4px"></line><line x1="187.52" y1="269.23" x2="187.52" y2="328.11" style="fill:none;stroke:#263238;stroke-linejoin:round;stroke-width:4px"></line><line x1="212.99" y1="269.23" x2="212.99" y2="328.11" style="fill:none;stroke:#263238;stroke-linejoin:round;stroke-width:4px"></line><line x1="238.46" y1="269.23" x2="238.46" y2="328.11" style="fill:none;stroke:#263238;stroke-linejoin:round;stroke-width:4px"></line><line x1="263.94" y1="269.23" x2="263.94" y2="328.11" style="fill:none;stroke:#263238;stroke-linejoin:round;stroke-width:4px"></line><line x1="289.41" y1="269.23" x2="289.41" y2="328.11" style="fill:none;stroke:#263238;stroke-linejoin:round;stroke-width:4px"></line><line x1="314.88" y1="269.23" x2="314.88" y2="328.11" style="fill:none;stroke:#263238;stroke-linejoin:round;stroke-width:4px"></line><line x1="340.35" y1="269.23" x2="340.35" y2="328.11" style="fill:none;stroke:#263238;stroke-linejoin:round;stroke-width:4px"></line><line x1="365.83" y1="269.23" x2="365.83" y2="328.11" style="fill:none;stroke:#263238;stroke-linejoin:round;stroke-width:4px"></line><line x1="391.3" y1="269.23" x2="391.3" y2="328.11" style="fill:none;stroke:#263238;stroke-linejoin:round;stroke-width:4px"></line><line x1="416.77" y1="269.23" x2="416.77" y2="328.11" style="fill:none;stroke:#263238;stroke-linejoin:round;stroke-width:4px"></line><line x1="442.25" y1="269.23" x2="442.25" y2="328.11" style="fill:none;stroke:#263238;stroke-linejoin:round;stroke-width:4px"></line><line x1="467.72" y1="269.23" x2="467.72" y2="328.11" style="fill:none;stroke:#263238;stroke-linejoin:round;stroke-width:4px"></line></g><g id="freepik--Plants--inject-4"><path d="M421,303.73a9.91,9.91,0,0,0,2.82.31s-.43-1.31-.47-1.39c-.43-.92-1.82-2.44-2.95-2.28a1.35,1.35,0,0,0-1.09,1.69A2.85,2.85,0,0,0,421,303.73Z" style="fill:#263238"></path><path d="M421.67,309.53a9.55,9.55,0,0,0,2.78-.44,24,24,0,0,0,1.08,3c.25.57.51,1.13.79,1.7-.17-.24-.31-.46-.34-.48-.66-.77-2.4-1.87-3.45-1.42a1.34,1.34,0,0,0-.6,1.91A2.81,2.81,0,0,0,424,315a8.84,8.84,0,0,0,2.7-.42c.1.22.21.44.32.65.51,1,1,2.06,1.51,3.08q.25.54.48,1.08l-.29-.42c-.66-.77-2.4-1.86-3.45-1.42a1.35,1.35,0,0,0-.6,1.92,2.77,2.77,0,0,0,2.07,1.16,8.55,8.55,0,0,0,2.62-.39c.15.37.3.75.43,1.12s.17.49.24.75l.21.76c.12.49.24,1,.34,1.47.08.33.14.65.2,1-.16-.36-.5-1.06-.53-1.12-.54-.86-2.1-2.21-3.2-1.93a1.35,1.35,0,0,0-.88,1.81A2.78,2.78,0,0,0,428,325.5a9.49,9.49,0,0,0,2.8,0c.11.52.2,1,.29,1.53s.12.71.17,1H432c-.07-.37-.15-.76-.23-1.16s-.23-1.12-.36-1.7a14.9,14.9,0,0,0,1.56-.74,9.72,9.72,0,0,0,2.27,1.47q-.3.75-.6,1.44l-.31.69h.75l.18-.43c.21-.5.42-1.05.64-1.61a9.3,9.3,0,0,0,2.79.21,2.83,2.83,0,0,0,2-1.32,1.35,1.35,0,0,0-.75-1.86c-1.08-.37-2.73.86-3.33,1.68,0,.05-.37.62-.57,1l.26-.69c.17-.47.33-.95.5-1.46.08-.25.15-.5.23-.75s.13-.53.2-.79c.15-.62.27-1.25.37-1.89a8.79,8.79,0,0,0,2.65.6,2.82,2.82,0,0,0,2.15-1,1.35,1.35,0,0,0-.45-2c-1-.52-2.84.44-3.56,1.16,0,0-.5.62-.75.94.06-.39.12-.77.17-1.16.14-1.13.25-2.28.36-3.43,0-.35.07-.7.11-1.05a9.24,9.24,0,0,0,2.74.64,2.82,2.82,0,0,0,2.15-1,1.36,1.36,0,0,0-.46-2c-1-.52-2.83.44-3.55,1.16-.05.05-.71.88-.87,1.1.08-.77.17-1.54.28-2.29a25.43,25.43,0,0,1,.66-3,9.88,9.88,0,0,0,2.75.64,2.82,2.82,0,0,0,2.15-1,1.35,1.35,0,0,0-.45-2c-1-.52-2.83.44-3.55,1.16-.06,0-.77.94-.89,1.11,0-.05,0-.11,0-.17a17,17,0,0,1,1.19-2.85c.26-.51.54-1,.82-1.43a9.33,9.33,0,0,0,2.6.92,2.84,2.84,0,0,0,2.25-.77,1.34,1.34,0,0,0-.24-2c-.95-.63-2.86.12-3.66.76,0,0-.44.43-.73.73.13-.2.26-.42.39-.61.47-.71,1-1.34,1.39-1.9q.36-.47.69-.84a9.15,9.15,0,0,0,2.72-.39,2.82,2.82,0,0,0,1.64-1.72,1.34,1.34,0,0,0-1.12-1.66c-1.14-.12-2.49,1.43-2.9,2.36,0,.08-.45,1.41-.43,1.41h0c-.21.24-.44.5-.68.8-.44.54-.94,1.16-1.44,1.87a25.58,25.58,0,0,0-1.48,2.37,17.32,17.32,0,0,0-1.27,2.86.06.06,0,0,0,0,0c0-.34,0-1.27,0-1.34-.13-1-1-2.89-2.1-3.09a1.35,1.35,0,0,0-1.56,1.26,2.85,2.85,0,0,0,1.09,2.12,9.67,9.67,0,0,0,2.55,1.17,25.34,25.34,0,0,0-.75,3.09c-.11.61-.2,1.23-.28,1.85,0-.29,0-.54,0-.58-.14-1-1-2.88-2.1-3.09a1.35,1.35,0,0,0-1.56,1.27,2.83,2.83,0,0,0,1.08,2.11,8.88,8.88,0,0,0,2.48,1.14l-.09.72c-.13,1.14-.26,2.29-.43,3.4-.06.4-.13.78-.2,1.17,0-.26,0-.47,0-.51-.13-1-1-2.88-2.1-3.09a1.35,1.35,0,0,0-1.56,1.27,2.83,2.83,0,0,0,1.09,2.11,8.47,8.47,0,0,0,2.41,1.12c-.09.4-.17.79-.27,1.17s-.12.51-.21.76l-.24.75c-.17.47-.35,1-.53,1.41s-.24.62-.36.92c.06-.39.16-1.16.17-1.22a5.28,5.28,0,0,0-.71-2.55,1,1,0,0,0,0-.3,1.35,1.35,0,0,0-1.65-1.15c-1.1.3-1.8,2.23-1.85,3.25,0,.06,0,.71.07,1.13-.06-.24-.11-.48-.17-.72-.11-.49-.24-1-.38-1.49-.08-.25-.15-.5-.23-.76s-.18-.51-.27-.77c-.21-.59-.46-1.19-.73-1.78a8.83,8.83,0,0,0,2.54-.95,2.8,2.8,0,0,0,1.24-2,1.34,1.34,0,0,0-1.46-1.38c-1.13.12-2.11,1.93-2.32,2.93,0,.06-.08.79-.11,1.19-.16-.35-.32-.71-.5-1.06-.5-1-1-2-1.59-3.05-.16-.32-.32-.63-.49-.94a9.16,9.16,0,0,0,2.64-1,2.89,2.89,0,0,0,1.24-2,1.35,1.35,0,0,0-1.46-1.38c-1.13.12-2.12,1.93-2.32,2.92,0,.08-.11,1.13-.13,1.4-.35-.68-.7-1.37-1-2.07a22,22,0,0,1-1.11-2.87,9.53,9.53,0,0,0,2.65-1,2.85,2.85,0,0,0,1.24-2,1.36,1.36,0,0,0-1.46-1.39c-1.13.13-2.12,1.93-2.32,2.93,0,.08-.12,1.21-.13,1.42a1.15,1.15,0,0,0-.06-.17,18,18,0,0,1-.57-3,15.57,15.57,0,0,1-.11-1.64,9,9,0,0,0,2.68-.67,2.83,2.83,0,0,0,1.45-1.88,1.35,1.35,0,0,0-1.3-1.53c-1.14,0-2.31,1.68-2.63,2.65,0,.05-.13.61-.21,1,0-.24,0-.48,0-.71,0-.87.06-1.66.11-2.35,0-.4.07-.76.11-1.1a8.83,8.83,0,0,0,2.06-1.82,2.83,2.83,0,0,0,.42-2.34,1.35,1.35,0,0,0-1.86-.76c-1,.53-1.28,2.56-1.11,3.57,0,.09.4,1.42.42,1.41l0,0c-.05.32-.09.67-.13,1.05-.07.7-.14,1.49-.16,2.35a22.27,22.27,0,0,0,.06,2.8,17.66,17.66,0,0,0,.52,3.09s0,0,0,0c-.18-.28-.71-1.05-.75-1.11-.67-.77-2.41-1.86-3.46-1.42a1.35,1.35,0,0,0-.6,1.92A2.83,2.83,0,0,0,421.67,309.53Z" style="fill:#263238"></path><path d="M441.23,304.17s.36-1.33.38-1.42c.14-1-.18-3-1.21-3.54a1.36,1.36,0,0,0-1.84.82,2.85,2.85,0,0,0,.49,2.32A9.58,9.58,0,0,0,441.23,304.17Z" style="fill:#263238"></path><path d="M40.2,303.73A9.88,9.88,0,0,0,43,304s-.43-1.31-.47-1.39c-.44-.92-1.83-2.44-3-2.28a1.34,1.34,0,0,0-1.08,1.69A2.85,2.85,0,0,0,40.2,303.73Z" style="fill:#263238"></path><path d="M40.89,309.53a9.47,9.47,0,0,0,2.77-.44,25.83,25.83,0,0,0,1.09,3c.24.57.51,1.13.78,1.7l-.33-.48c-.67-.77-2.41-1.87-3.46-1.42a1.34,1.34,0,0,0-.6,1.91A2.83,2.83,0,0,0,43.21,315a8.74,8.74,0,0,0,2.7-.42c.11.22.21.44.32.65.52,1,1,2.06,1.52,3.08.17.36.32.72.48,1.08l-.29-.42c-.67-.77-2.41-1.86-3.46-1.42a1.35,1.35,0,0,0-.6,1.92A2.78,2.78,0,0,0,46,320.6a8.62,8.62,0,0,0,2.63-.39c.15.37.29.75.42,1.12s.18.49.24.75l.21.76c.12.49.24,1,.35,1.47.07.33.13.65.2,1-.16-.36-.5-1.06-.54-1.12-.54-.86-2.09-2.21-3.2-1.93a1.36,1.36,0,0,0-.88,1.81,2.8,2.8,0,0,0,1.87,1.46,9.51,9.51,0,0,0,2.8,0c.1.52.2,1,.28,1.53s.13.71.18,1h.71c-.07-.37-.14-.76-.22-1.16s-.23-1.12-.36-1.7a16,16,0,0,0,1.56-.74,9.52,9.52,0,0,0,2.27,1.47c-.2.5-.41,1-.61,1.44l-.3.69h.75l.18-.43c.21-.5.42-1.05.63-1.61a9.33,9.33,0,0,0,2.79.21,2.83,2.83,0,0,0,2-1.32,1.34,1.34,0,0,0-.74-1.86c-1.08-.37-2.73.86-3.34,1.68l-.56,1,.25-.69c.18-.47.34-.95.51-1.46.07-.25.15-.5.22-.75s.14-.53.21-.79c.14-.62.26-1.25.37-1.89a8.65,8.65,0,0,0,2.64.6,2.8,2.8,0,0,0,2.15-1,1.35,1.35,0,0,0-.45-2c-1-.52-2.83.44-3.55,1.16-.05,0-.51.62-.75.94.06-.39.12-.77.17-1.16.14-1.13.25-2.28.36-3.43,0-.35.07-.7.11-1.05a9.16,9.16,0,0,0,2.73.64,2.82,2.82,0,0,0,2.15-1,1.35,1.35,0,0,0-.45-2c-1-.52-2.83.44-3.55,1.16-.06.05-.72.88-.88,1.1.08-.77.17-1.54.29-2.29a23.58,23.58,0,0,1,.66-3,9.79,9.79,0,0,0,2.75.64,2.82,2.82,0,0,0,2.15-1,1.35,1.35,0,0,0-.45-2c-1-.52-2.84.44-3.56,1.16,0,0-.76.94-.88,1.11,0-.05,0-.11,0-.17a17.93,17.93,0,0,1,1.2-2.85c.26-.51.53-1,.81-1.43a9.41,9.41,0,0,0,2.61.92,2.82,2.82,0,0,0,2.24-.77,1.35,1.35,0,0,0-.23-2c-1-.63-2.86.12-3.66.76,0,0-.44.43-.73.73l.38-.61c.48-.71,1-1.34,1.39-1.9.25-.31.48-.59.7-.84a9.19,9.19,0,0,0,2.72-.39,2.84,2.84,0,0,0,1.64-1.72,1.35,1.35,0,0,0-1.13-1.66c-1.13-.12-2.48,1.43-2.9,2.36,0,.08-.45,1.41-.43,1.41h0c-.22.24-.44.5-.69.8-.44.54-.94,1.16-1.43,1.87a23.63,23.63,0,0,0-1.49,2.37,18.19,18.19,0,0,0-1.27,2.86.06.06,0,0,1,0,0c0-.34,0-1.27,0-1.34-.13-1-1-2.89-2.1-3.09a1.34,1.34,0,0,0-1.55,1.26,2.8,2.8,0,0,0,1.08,2.12,9.7,9.7,0,0,0,2.56,1.17,23.62,23.62,0,0,0-.75,3.09c-.11.61-.2,1.23-.28,1.85,0-.29,0-.54,0-.58-.13-1-1-2.88-2.1-3.09a1.34,1.34,0,0,0-1.55,1.27,2.8,2.8,0,0,0,1.08,2.11,8.75,8.75,0,0,0,2.48,1.14l-.09.72c-.14,1.14-.27,2.29-.43,3.4-.06.4-.13.78-.2,1.17,0-.26,0-.47,0-.51-.14-1-1-2.88-2.1-3.09a1.35,1.35,0,0,0-1.56,1.27,2.82,2.82,0,0,0,1.08,2.11,8.59,8.59,0,0,0,2.41,1.12c-.08.4-.16.79-.26,1.17s-.13.51-.22.76l-.24.75c-.17.47-.34,1-.52,1.41s-.25.62-.37.92c.06-.39.17-1.16.17-1.22A5.15,5.15,0,0,0,54,322c0-.1,0-.2,0-.3a1.36,1.36,0,0,0-1.65-1.15c-1.1.3-1.8,2.23-1.85,3.25,0,.06,0,.71.06,1.13-.05-.24-.1-.48-.16-.72-.12-.49-.25-1-.39-1.49-.07-.25-.15-.5-.22-.76s-.18-.51-.27-.77c-.22-.59-.47-1.19-.73-1.78a9,9,0,0,0,2.54-.95,2.87,2.87,0,0,0,1.24-2A1.35,1.35,0,0,0,51.11,315c-1.14.12-2.12,1.93-2.33,2.93,0,.06-.08.79-.1,1.19-.17-.35-.33-.71-.5-1.06-.51-1-1-2-1.59-3.05l-.49-.94a9.13,9.13,0,0,0,2.63-1,2.82,2.82,0,0,0,1.24-2,1.34,1.34,0,0,0-1.46-1.38c-1.13.12-2.11,1.93-2.32,2.92,0,.08-.11,1.13-.12,1.4-.36-.68-.71-1.37-1-2.07a23.62,23.62,0,0,1-1.12-2.87,9.42,9.42,0,0,0,2.65-1,2.78,2.78,0,0,0,1.24-2,1.35,1.35,0,0,0-1.46-1.39c-1.13.13-2.11,1.93-2.32,2.93,0,.08-.12,1.21-.12,1.42l-.06-.17a18,18,0,0,1-.58-3c-.06-.56-.09-1.11-.11-1.64a9,9,0,0,0,2.68-.67,2.83,2.83,0,0,0,1.45-1.88A1.34,1.34,0,0,0,46,300.11c-1.14,0-2.32,1.68-2.63,2.65,0,.05-.14.61-.21,1,0-.24,0-.48,0-.71,0-.87.05-1.66.11-2.35,0-.4.07-.76.11-1.1a8.61,8.61,0,0,0,2-1.82,2.84,2.84,0,0,0,.43-2.34,1.35,1.35,0,0,0-1.86-.76c-1,.53-1.28,2.56-1.11,3.57,0,.09.39,1.42.41,1.41l0,0c0,.32-.09.67-.13,1.05-.07.7-.14,1.49-.16,2.35a24.44,24.44,0,0,0,.07,2.8,17.66,17.66,0,0,0,.52,3.09,0,0,0,0,0,0,0c-.18-.28-.71-1.05-.76-1.11-.66-.77-2.4-1.86-3.45-1.42a1.35,1.35,0,0,0-.6,1.92A2.81,2.81,0,0,0,40.89,309.53Z" style="fill:#263238"></path><path d="M60.45,304.17s.36-1.33.37-1.42c.14-1-.18-3-1.21-3.54a1.34,1.34,0,0,0-1.83.82,2.81,2.81,0,0,0,.48,2.32A9.57,9.57,0,0,0,60.45,304.17Z" style="fill:#263238"></path><path d="M69.2,312.47a6.19,6.19,0,0,0,1.81.2s-.28-.84-.3-.89c-.28-.59-1.17-1.56-1.9-1.46a.86.86,0,0,0-.69,1.08A1.79,1.79,0,0,0,69.2,312.47Z" style="fill:#263238"></path><path d="M69.65,316.19a6,6,0,0,0,1.78-.28,14.76,14.76,0,0,0,.69,1.92c.16.37.33.73.5,1.09l-.21-.31c-.43-.49-1.54-1.19-2.22-.91a.87.87,0,0,0-.38,1.23,1.82,1.82,0,0,0,1.33.75,5.92,5.92,0,0,0,1.73-.27c.06.14.13.28.2.41.33.66.66,1.32,1,2,.11.23.21.46.31.69a2.77,2.77,0,0,0-.19-.27c-.42-.49-1.54-1.19-2.21-.91a.87.87,0,0,0-.39,1.23,1.83,1.83,0,0,0,1.33.75,5.56,5.56,0,0,0,1.68-.25c.1.24.19.48.27.71a4.5,4.5,0,0,1,.16.48c0,.17.09.33.13.49s.16.63.22.94.09.42.13.62c-.1-.23-.32-.68-.34-.71-.35-.56-1.34-1.42-2-1.24a.87.87,0,0,0-.57,1.16,1.87,1.87,0,0,0,1.2.94,6.08,6.08,0,0,0,1.79,0c.07.34.13.67.19,1s.08.45.11.66h.46c0-.23-.09-.48-.15-.74s-.14-.72-.23-1.09a10.4,10.4,0,0,0,1-.47,6.51,6.51,0,0,0,1.46.94c-.13.32-.26.63-.39.92s-.13.3-.2.44h.48l.12-.27.41-1a5.79,5.79,0,0,0,1.78.14,1.84,1.84,0,0,0,1.27-.85.86.86,0,0,0-.48-1.19c-.69-.23-1.75.55-2.14,1.08l-.36.62c.06-.14.11-.29.17-.44.11-.3.21-.6.32-.93,0-.16.09-.32.14-.48s.09-.34.13-.51c.1-.4.17-.8.24-1.21a6,6,0,0,0,1.7.39,1.83,1.83,0,0,0,1.37-.65.86.86,0,0,0-.29-1.25c-.65-.34-1.81.28-2.27.74l-.49.6c0-.24.08-.49.11-.74.09-.73.16-1.46.23-2.2,0-.22,0-.45.07-.67a5.9,5.9,0,0,0,1.76.41A1.79,1.79,0,0,0,83.4,319a.87.87,0,0,0-.29-1.26c-.64-.33-1.81.29-2.27.75,0,0-.46.56-.56.7,0-.49.11-1,.18-1.47a16.92,16.92,0,0,1,.42-1.93,6.05,6.05,0,0,0,1.77.42,1.83,1.83,0,0,0,1.37-.65.86.86,0,0,0-.29-1.25c-.65-.34-1.81.28-2.27.74,0,0-.49.61-.57.72l0-.12a12,12,0,0,1,.76-1.82c.17-.33.35-.63.53-.92a5.53,5.53,0,0,0,1.67.59,1.81,1.81,0,0,0,1.44-.49.87.87,0,0,0-.16-1.28c-.6-.4-1.83.08-2.34.49l-.47.47.25-.39c.3-.46.61-.86.89-1.22.16-.2.3-.38.44-.54a6.11,6.11,0,0,0,1.75-.25,1.81,1.81,0,0,0,1-1.1.86.86,0,0,0-.72-1.06c-.73-.08-1.59.91-1.86,1.51,0,.05-.29.9-.28.9h0l-.44.51c-.28.35-.6.75-.92,1.2a15.31,15.31,0,0,0-1,1.52,10.89,10.89,0,0,0-.81,1.83v0c0-.22,0-.82,0-.86-.09-.65-.63-1.85-1.35-2a.87.87,0,0,0-1,.81,1.81,1.81,0,0,0,.7,1.35,5.7,5.7,0,0,0,1.64.75,14.1,14.1,0,0,0-.48,2c-.07.39-.13.79-.18,1.18,0-.18,0-.35,0-.37-.09-.65-.63-1.85-1.35-2a.86.86,0,0,0-1,.81,1.81,1.81,0,0,0,.7,1.36,5.91,5.91,0,0,0,1.59.73l-.06.46c-.09.73-.17,1.46-.28,2.18,0,.25-.08.5-.12.74,0-.16,0-.3,0-.32-.09-.65-.63-1.85-1.35-2a.87.87,0,0,0-1,.81,1.84,1.84,0,0,0,.7,1.36,5.37,5.37,0,0,0,1.54.71c-.05.26-.1.51-.17.75s-.08.33-.13.49-.11.32-.16.48l-.33.9c-.08.21-.16.4-.24.59,0-.25.11-.74.11-.78a3.48,3.48,0,0,0-.45-1.64,1.28,1.28,0,0,0,0-.19.86.86,0,0,0-1.06-.73c-.71.19-1.15,1.43-1.19,2.08,0,0,0,.46,0,.72,0-.15-.07-.3-.11-.46s-.16-.62-.25-.95c0-.16-.09-.32-.14-.49s-.12-.33-.17-.49c-.14-.38-.3-.76-.47-1.14a6.15,6.15,0,0,0,1.63-.61,1.86,1.86,0,0,0,.79-1.3.87.87,0,0,0-.94-.89c-.72.08-1.35,1.24-1.48,1.88,0,0-.06.51-.07.77l-.32-.69c-.33-.65-.68-1.3-1-2l-.32-.6a6,6,0,0,0,1.69-.63,1.8,1.8,0,0,0,.8-1.3.87.87,0,0,0-.94-.88c-.72.08-1.35,1.24-1.49,1.87,0,.05-.07.73-.07.9-.23-.44-.46-.88-.66-1.32a15.59,15.59,0,0,1-.71-1.85,6.2,6.2,0,0,0,1.7-.62,1.86,1.86,0,0,0,.79-1.3.87.87,0,0,0-.94-.89c-.72.08-1.35,1.24-1.48,1.88,0,0-.08.78-.08.91,0,0,0-.08,0-.11a11.71,11.71,0,0,1-.37-1.95c0-.36-.06-.71-.07-1.05a6,6,0,0,0,1.72-.43,1.84,1.84,0,0,0,.93-1.2.87.87,0,0,0-.83-1c-.73,0-1.49,1.08-1.69,1.7l-.13.65c0-.15,0-.31,0-.46,0-.55,0-1.05.07-1.5,0-.26,0-.49.07-.7a5.86,5.86,0,0,0,1.32-1.17,1.83,1.83,0,0,0,.27-1.5.87.87,0,0,0-1.19-.49c-.65.34-.82,1.65-.71,2.29,0,.06.25.91.26.9h0c0,.21-.06.43-.09.67,0,.45-.09,1-.1,1.51a13.63,13.63,0,0,0,0,1.79,11.86,11.86,0,0,0,.33,2v0c-.11-.18-.45-.67-.48-.71-.43-.49-1.54-1.19-2.22-.91a.87.87,0,0,0-.38,1.23A1.78,1.78,0,0,0,69.65,316.19Z" style="fill:#263238"></path><path d="M82.18,312.76s.23-.86.24-.91c.09-.65-.12-2-.78-2.27a.86.86,0,0,0-1.17.52,1.78,1.78,0,0,0,.31,1.49A6.55,6.55,0,0,0,82.18,312.76Z" style="fill:#263238"></path></g><g id="freepik--Floor--inject-4"><line x1="487.4" y1="328.37" x2="18.94" y2="328.37" style="fill:none;stroke:#263238;stroke-linecap:round;stroke-linejoin:round"></line></g><g id="freepik--character-2--inject-4"><polygon points="338.97 327.69 311.47 327.69 306.79 308.39 337.99 300.98 338.97 327.69" style="fill:#263238;stroke:#263238;stroke-linecap:round;stroke-linejoin:round"></polygon><path d="M293.2,269l-2.82,16.9a72.25,72.25,0,0,0-9.61,8.29c-4.81,5-7.95,8.28-7.95,8.28s-6.47,1.33-8.62,4.31-3.81,7-3.31,10.11,1.49,6.63,3.14,5-.66-4.64-.33-5.3,6.3-2.49,8.12-3.81,4.64-6.47,4.64-6.47,13.59-3.64,16.57-5.3,11.6-8.95,12.26-13.59,1.33-12.26,1.33-12.26Z" style="fill:#fff;stroke:#263238;stroke-linecap:round;stroke-linejoin:round"></path><path d="M321.86,234.15s-12.42,4.31-17.89,8.12-8,5.31-8.12,7.46-6,20.22-6,20.22,1.66.16,7,4a86.25,86.25,0,0,1,7.29,5.64L302.48,289s-7.29,7.79-10.94,14.75S288.06,316,288.06,316s16.24-6,31.15-9.94S351.52,297,351.52,297s9.78-56.5,10.11-57.49-1.82-7.46-4-8.29-22.37-2.32-23-2.32S321.86,234.15,321.86,234.15Z" style="fill:#407BFF;stroke:#263238;stroke-linecap:round;stroke-linejoin:round"></path><line x1="307.37" y1="297.46" x2="329.21" y2="284.98" style="fill:none;stroke:#263238;stroke-linecap:round;stroke-linejoin:round"></line><line x1="304.84" y1="296.49" x2="312.05" y2="291.22" style="fill:none;stroke:#263238;stroke-linecap:round;stroke-linejoin:round"></line><path d="M342.24,230.67s1,13.16-7.17,20.38" style="fill:none;stroke:#263238;stroke-linecap:round;stroke-linejoin:round"></path><path d="M318.29,235.84s-2.14,9,1.17,14.23" style="fill:none;stroke:#263238;stroke-linecap:round;stroke-linejoin:round"></path><path d="M315.17,243.05s0,8,2.93,12.09" style="fill:none;stroke:#263238;stroke-linecap:round;stroke-linejoin:round"></path><line x1="304.13" y1="279.56" x2="305.62" y2="250.56" style="fill:none;stroke:#263238;stroke-linecap:round;stroke-linejoin:round"></line><path d="M314.24,186.27s-10.94,6.46-10.94,13.92,3.82,10.1,4,13.09-8.45,6.46-6.79,12.92,11.6,9.11,16.9,8.45a41.81,41.81,0,0,0,21-9.11c7.79-6.3,13.59-19.55,3.48-27S314.24,186.27,314.24,186.27Z" style="fill:#263238;stroke:#263238;stroke-linecap:round;stroke-linejoin:round"></path><path d="M318.71,192.9s-7.29,10.27-7.62,13.58,1.33,7.46.67,10.28-1,5.3.82,8.78,7.79,8.61,9.28,8.61c0,0-1.32,8.79,2,11.11s10.61,1.65,14.09-5,1.16-16.57,1.82-24.36,1.66-14.75-3.81-17.24S318.71,192.9,318.71,192.9Z" style="fill:#fff;stroke:#263238;stroke-linecap:round;stroke-linejoin:round"></path><path d="M313.91,189.75s12.26,5.47,19.88,11.43c0,0,2.65.66,1.49,7.95S331,230,331,230a92.47,92.47,0,0,1,11.26.66c4,.67,11.44-.66,14.75-6.62s5.8-14.75.33-24.86S333.13,179,327.66,178s-13.75,1.16-14.91,6.46S313.91,189.75,313.91,189.75Z" style="fill:#263238;stroke:#263238;stroke-linecap:round;stroke-linejoin:round"></path><path d="M315.57,217.09a2.89,2.89,0,0,0,3,1" style="fill:none;stroke:#263238;stroke-linecap:round;stroke-linejoin:round"></path><path d="M318.55,221.56s4.47.83,7.79-4.47a45.07,45.07,0,0,1-3.32,5.3C321.86,223.72,318.55,221.56,318.55,221.56Z" style="fill:none;stroke:#263238;stroke-linecap:round;stroke-linejoin:round"></path><path d="M320.87,203.28s2-3.74,6.3-.44" style="fill:none;stroke:#263238;stroke-linecap:round;stroke-linejoin:round"></path><path d="M312.25,207.31s1-3.15,3.48-1.66" style="fill:none;stroke:#263238;stroke-linecap:round;stroke-linejoin:round"></path><path d="M315.32,210.29c0,1-.48,1.83-1.08,1.83s-1.08-.82-1.08-1.83.49-1.82,1.08-1.82S315.32,209.29,315.32,210.29Z" style="fill:#263238"></path><ellipse cx="323.18" cy="207.2" rx="1.08" ry="1.82" style="fill:#263238"></ellipse><path d="M321.86,234.15a24.75,24.75,0,0,0,4.64-2c2.82-1.5,4.48-2.16,4.48-2.16l-9.12,9.28Z" style="fill:#263238;stroke:#263238;stroke-linecap:round;stroke-linejoin:round"></path><path d="M348,264.48l-4.14,22.37-30,11.6c-4.31,1.65-15.58,6.13-17.73,7.95a13.66,13.66,0,0,0-3,3.31l62.47-16.07L363,260.33Z" style="fill:#fff;stroke:#263238;stroke-linecap:round;stroke-linejoin:round"></path><path d="M350.36,245.59l-3.64,21.87L371.57,261s-5.3-23-9.44-27.84-11.44-2.49-11.44-2.49" style="fill:#407BFF;stroke:#263238;stroke-linecap:round;stroke-linejoin:round"></path><circle cx="361.29" cy="299.35" r="4.73" style="fill:#fff;stroke:#263238;stroke-linecap:round;stroke-linejoin:round"></circle><circle cx="362.38" cy="298.79" r="1.82" style="fill:#fff;stroke:#263238;stroke-linecap:round;stroke-linejoin:round"></circle><path d="M299.18,330.42s0,14.44,2.73,23.21,14.24,27.89,15.6,33.55,3.12,17.55,4.68,21.84,7.52,9,9.95,9.75c3.32,1,7.8.78,5.46-8S324.53,385,324.34,377.43s-4.49-39.2-4.49-46.81-.58-17-3.51-19.5-16.38-.78-22.82,4.29S287.48,329.06,299.18,330.42Z" style="fill:#fff;stroke:#263238;stroke-linecap:round;stroke-linejoin:round"></path><path d="M299.18,330.42s1-7.8,1.75-11.89" style="fill:none;stroke:#263238;stroke-linecap:round;stroke-linejoin:round"></path><path d="M272.37,307.48a15.13,15.13,0,0,0,12.57,4.13c8.08-.89,81.52-22.8,84.93-24.59S385,276.6,386.21,274.45s.9,2-.72,4.31-9.88,9.87-14.36,12.74-74.34,24.06-81.34,26.4a23.61,23.61,0,0,1-18.78-2C266.62,313.23,267.34,309.46,272.37,307.48Z" style="fill:#263238;stroke:#263238;stroke-linecap:round;stroke-linejoin:round"></path><circle cx="280.35" cy="323.34" r="5.04" style="fill:#fff;stroke:#263238;stroke-linecap:round;stroke-linejoin:round"></circle><path d="M288.77,318.62l-7.85,3.32s-1,.69-.57,1.4a1.61,1.61,0,0,0,1.13.81,10.7,10.7,0,0,1,2.95-.83c1,0,.65,1.2,2,1.3s1.85-2.5,2-2.87a16.37,16.37,0,0,1,2.58-1.75S291.52,317.27,288.77,318.62Z" style="fill:#263238;stroke:#263238;stroke-linecap:round;stroke-linejoin:round"></path><path d="M265.59,306.29s-2.22,1-2.12,2.42a24.93,24.93,0,0,0,2.7,7.25c.78,1,1.65,3.39,3.2,2.9s1.25-1.06.87-1.64a46,46,0,0,1-2.71-6C267.53,310.74,265.59,306.29,265.59,306.29Z" style="fill:#fff;stroke:#263238;stroke-linecap:round;stroke-linejoin:round"></path><path d="M263.47,308.71s-2.13,2.8-1.84,3.67,3.58,8,4.25,8.32,1.94-.29,1.45-1.45-1.83-3.87-1.83-4.16S263.47,308.71,263.47,308.71Z" style="fill:#fff;stroke:#263238;stroke-linecap:round;stroke-linejoin:round"></path><path d="M268.88,304.84s-2.13-.49-2.71.48.78,5.32,1.36,7.45,2,5.42,3.38,5.61,1.45-.29,1.07-1.55a29,29,0,0,0-1.74-3.48c-.2-.48-.87-6-.87-6" style="fill:#fff;stroke:#263238;stroke-linecap:round;stroke-linejoin:round"></path><path d="M270.43,306.09v4.74s-2.13,5.61-1.55,5.9,1.74-.29,2.13-.87,2.42-2.61,2.9-3.48,1.07-7.45,1.07-7.45" style="fill:#fff;stroke:#263238;stroke-linecap:round;stroke-linejoin:round"></path><circle cx="291.85" cy="319.96" r="5.84" style="fill:#fff;stroke:#263238;stroke-linecap:round;stroke-linejoin:round"></circle><path d="M295.45,319.27a2.25,2.25,0,1,1-2.24-2.24A2.24,2.24,0,0,1,295.45,319.27Z" style="fill:none;stroke:#263238;stroke-linecap:round;stroke-linejoin:round"></path><circle cx="366.37" cy="297.91" r="5.34" style="fill:#fff;stroke:#263238;stroke-linecap:round;stroke-linejoin:round"></circle><circle cx="367.61" cy="297.28" r="2.05" style="fill:#fff;stroke:#263238;stroke-linecap:round;stroke-linejoin:round"></circle><path d="M324.28,311s15.47-16.65,21.35-20.76,12.73,1.17,11.75,16.06-13.61,65.62-14,69.93,2.75,14.69.59,21.94-6.27,4.7-8.42,1.77-2.74-12.93-2.35-19.59,3.13-5.49,2.54-18.22-.68-38.79-.68-38.79S324.67,325.52,324.28,311Z" style="fill:#fff;stroke:#263238;stroke-linecap:round;stroke-linejoin:round"></path><line x1="335.05" y1="323.36" x2="334.46" y2="306.32" style="fill:none;stroke:#263238;stroke-linecap:round;stroke-linejoin:round"></line><path d="M334.82,314l.17,7.82v3.74c-.14,5,.28,26.62.74,36.64.59,12.73-2.15,11.56-2.54,18.22s.19,16.65,2.35,19.59,6.27,5.48,8.42-1.77-1.55-17.72-.59-21.94c7.51-32.75,8.44-36.34,10.17-46.83.73-2.21,2.59-14.29,2.59-14.29s-5.8-3.11-11.09-3.32C337.2,311.48,334.82,314,334.82,314Z" style="fill:#fff;stroke:#263238;stroke-linecap:round;stroke-linejoin:round"></path><path d="M354.55,324.63A23.46,23.46,0,0,0,335,323v2.54c0,.38,0,.88,0,1.46,2.84-1.32,10.13-3.66,18.83,1.47C354,327.5,354.28,326.14,354.55,324.63Z" style="fill:#263238"></path><path d="M334.86,315.63l.08,4c2.82-1.35,10.62-4,19.86,1.94l.27.12c.24-1.41.47-2.77.65-3.89C346.73,312.5,339,314.06,334.86,315.63Z" style="fill:#263238"></path><path d="M344,398.19c1.83-6.15-.14-14.54-.55-19.58-.79-.67-3.42-2.76-5.24-2.62a4.65,4.65,0,0,0-3.33,2.16s-.34-1-.83-2.2a16.21,16.21,0,0,0-.82,4.42c-.39,6.66.19,16.65,2.35,19.59S341.81,405.44,344,398.19Z" style="fill:#263238;stroke:#263238;stroke-linecap:round;stroke-linejoin:round"></path><path d="M332.14,418.77c3.32,1,7.8.78,5.46-8S324.53,385,324.34,377.43c-.18-7.13-4-35.29-4.44-45.09-11.14-4.79-17.74-.24-20.59,2.76.22,5,.85,12.92,2.6,18.53,2.73,8.78,14.24,27.89,15.6,33.55s3.12,17.55,4.68,21.84S329.71,418.06,332.14,418.77Z" style="fill:#fff;stroke:#263238;stroke-linecap:round;stroke-linejoin:round"></path><path d="M320.72,342a18.44,18.44,0,0,0-11.6-1.6,16.85,16.85,0,0,0-8.88,5.24c.24,1.68.52,3.36.88,4.94.56-1,3.49-5.47,8.8-6.58,3.42-.71,7.19.09,11.26,2.38C321,344.89,320.86,343.43,320.72,342Z" style="fill:#263238"></path><path d="M307.75,332.81a16.55,16.55,0,0,0-8.31,4.66c.1,1.63.24,3.44.44,5.31a14.19,14.19,0,0,1,8.64-6.36c3.59-.76,7.59.16,11.92,2.73-.15-1.61-.28-3.09-.38-4.39C315.74,332.65,311.62,332,307.75,332.81Z" style="fill:#263238"></path><path d="M337.6,410.78c-1.36-5.09-5.52-12.92-8.83-20.09l.64,3.12a6.7,6.7,0,0,0-4.88.58c-2.14,1.37-2.14,5.86-2.14,5.86l-4-8.95c1.19,6.07,2.56,14.3,3.8,17.72,1.56,4.29,7.52,9,9.95,9.75C335.46,419.75,339.94,419.55,337.6,410.78Z" style="fill:#263238;stroke:#263238;stroke-linecap:round;stroke-linejoin:round"></path></g><g id="freepik--character-1--inject-4"><path d="M158.83,318.74l-8.06.15a11.25,11.25,0,0,0-10.94,9.83c-3.13,24.91-11.09,90-9.79,97.34,1.61,9.14,16.93,12.37,28.49,10.76s15.33-8.34,16.4-15.06c.85-5.33-3-67.19-4.67-92.52A11.24,11.24,0,0,0,158.83,318.74Z" style="fill:#263238;stroke:#263238;stroke-linecap:round;stroke-linejoin:round"></path><path d="M174.66,243.33S194.24,262.55,206,282c8.25,13.65,6,12.21,4.89,13.32S162,331.51,162,331.51a65.81,65.81,0,0,1-9.1,7.55c-4.22,2.66-9.55,3.77-12,0a6.66,6.66,0,0,1,2.22-9.55c2.88-1.56,19.1-14.22,25.32-19.77s19.1-19.32,19.1-19.32L162,276s-10.88-3.11,0-17.77S174.66,243.33,174.66,243.33Z" style="fill:#407BFF;stroke:#263238;stroke-linecap:round;stroke-linejoin:round"></path><path d="M158.49,334.76a14.69,14.69,0,0,1-2-.81c-4.18-2.09-5.7-6.23-6.23-9.5-3.35,2.54-6.07,4.5-7.09,5.06a6.66,6.66,0,0,0-2.22,9.55c2.44,3.77,7.77,2.66,12,0A48.19,48.19,0,0,0,158.49,334.76Z" style="fill:#fff;stroke:#263238;stroke-linecap:round;stroke-linejoin:round"></path><path d="M146.19,327.44c-1.41,1-2.5,1.76-3.06,2.07a6.66,6.66,0,0,0-2.22,9.55c2.44,3.77,7.77,2.66,12,0,.82-.52,1.65-1.12,2.48-1.76C147.86,335.65,146.2,331.09,146.19,327.44Z" style="fill:#fff;stroke:#263238;stroke-linecap:round;stroke-linejoin:round"></path><path d="M189.55,291.08s6,4.67,9.32,5.11" style="fill:none;stroke:#263238;stroke-linecap:round;stroke-linejoin:round"></path><path d="M202.84,216.91l5.62,6.43A79.83,79.83,0,0,0,218.53,236a199.75,199.75,0,0,1,14.91,16.79c.74,1.2-1.67,8.38-.94,9.58s1.55,5.57,2.07,6.81,1.73-.4,1.69-1.54-1-4.1-.69-4.85,1-3.65,1-3.65,4.65,7.12,6,9.07,5.44,8.53,5.46,6.7-2.48-7.63-2.48-7.63-.78-10.08-4.05-15.24-9.6-23.3-14.65-28.27a84.37,84.37,0,0,1-10.07-12.68c-.37-.6-4.91-11.17-4.91-11.17s-.92,7.75-3.86,10.73A48.65,48.65,0,0,0,202.84,216.91Z" style="fill:#fff;stroke:#263238;stroke-linecap:round;stroke-linejoin:round"></path><path d="M165.34,169.15s-11.78,2.44-13.33,8,2.67,8.21.89,10.88-9.11-2-15.33,1.33,1.56,12.66.67,15.55-5.11-.22-6.66,2.66a6,6,0,0,0,0,5.56s1.55-2.45,3.33-1.34,1.11,5.33,10.44,5.56,17.32,2,21.54-8,27.32-6.89,27.32-6.89,8.44,8.22,12.66-1.77.67-31.1-6.89-36.2S165.34,169.15,165.34,169.15Z" style="fill:#263238;stroke:#263238;stroke-linecap:round;stroke-linejoin:round"></path><path d="M190.21,181.59s-5.33,2.66-12.88,5.55-22.65,30-24,31.32-27.76,16.21-26.87,34.2,17.77,40.64,25.32,50.19,10.44,15.77,10.44,15.77l1.11,3.56s-8.44,8.44-10.44,16.88-11.11,47.53-11.11,47.53-.22,2.22,3.34,5.33,9.1,1.55,9.55.22,10.21-27.32,17.54-43.53S187.55,322,187.77,314.4s-23.32-52-23.32-52,13.32-15.54,15.54-18,13.11-9.55,15.55-11.33,12.22-2.66,16.88-7.55,3.56-15.32,3.11-18.88,1.56-10.66.89-15.76-1.33-7.11-9.11-8.67S190.88,180.48,190.21,181.59Z" style="fill:#407BFF;stroke:#263238;stroke-linecap:round;stroke-linejoin:round"></path><path d="M154.68,392.14c.18-.56,2-5.39,4.56-12-8.15.5-12.6-2.61-14.78-5-1.54,6.62-2.67,11.45-2.67,11.45s-.22,2.22,3.34,5.33S154.23,393.47,154.68,392.14Z" style="fill:#fff;stroke:#263238;stroke-linecap:round;stroke-linejoin:round"></path><path d="M148.23,244.66S156.9,252,160,258.43" style="fill:none;stroke:#263238;stroke-linecap:round;stroke-linejoin:round"></path><path d="M150.46,254s3.1,2,5.33,3.56" style="fill:none;stroke:#263238;stroke-linecap:round;stroke-linejoin:round"></path><path d="M216.42,190.92c-.67-5.11-1.33-7.11-9.11-8.67s-16.43-1.77-17.1-.66c0,0-5.33,2.66-12.88,5.55-6,2.29-16.71,19.78-21.57,27.6l-.4.65-.28.44c-.11.18-.21.35-.32.51l-.26.43c-.06.08-.11.16-.16.24l-.2.32-.15.22-.17.25a1,1,0,0,1-.11.17l-.14.2-.07.1-.16.19-.15.12-.06,0-.18.14-.08,0-.81.55h0c-.69.46-1.6,1.07-2.68,1.81.67,1.12,1.44,2.31,2.3,3.54,1.36,4.25,4.89,10.35,13.43,18.16,3,2.71,7.56,4.51,11.33,5.62l1.44-1.67.45-.52.19-.21.55-.63.07-.07.41-.47.1-.11.34-.39.49-.48.21-.18.42-.38.31-.25.46-.38.38-.29.5-.39.44-.34.53-.39.5-.37.48-.35,1.57-1.12c3.71-2.63,7.87-5.39,9.26-6.41,2.45-1.77,12.22-2.66,16.88-7.55s3.56-15.32,3.11-18.88S217.09,196,216.42,190.92Z" style="fill:#fff;stroke:#263238;stroke-linecap:round;stroke-linejoin:round"></path><path d="M212.42,225.56c4.67-4.88,3.56-15.32,3.11-18.88s1.56-10.66.89-15.76c-.64-4.91-1.3-6.95-8.25-8.48a36,36,0,0,1,4.7,15.58c.88,12.44.44,13.33-5.33,18.88s-15.11,5.78-17.11-1.33,3.11-14.44-2.44-24.88a50.43,50.43,0,0,0-3.86-6.32c-1.16.5-2.47,1-3.88,1.62l.41.26s8,6.89,6.66,17.33-5.33,14.88-14.65,14.88c-5.57,0-10.82-4.51-14.15-8.15-2.46,3.91-4.31,7-5,7.92,3.59,7,10.94,19.16,20.25,22.88a45,45,0,0,0,7.37,2.26c3.57-3,12.24-8.69,14.39-10.26C198,231.34,207.76,230.45,212.42,225.56Z" style="fill:#263238;stroke:#263238;stroke-linecap:round;stroke-linejoin:round"></path><path d="M174.89,227.34s3.33,6,8,6.89,10.89-1.56,10.89-1.56" style="fill:none;stroke:#fff;stroke-linecap:round;stroke-linejoin:round"></path><path d="M202.46,198.36c-.53-1.86-.62-7.6-.62-7.6l2.66.79c2.66.8,6.11,1.86,8.23,0s7.44-8.23,7.44-8.23,3.45-1.06,4.25-2.92-2.39-3.19-2.92-5.58.8-5.84,2.12-9,0-10.89,0-10.89l-36.65,4s-1.06,8.5.53,12.49,3.19,5.31,2.66,7.7a3.75,3.75,0,0,1-2.71,2.85l-3.32,2.45" style="fill:#fff;stroke:#263238;stroke-linecap:round;stroke-linejoin:round"></path><path d="M186.9,167.56s-.47-3.41,1.86-3.57,5.27,3.26,6.2,4.19,2.63,1.55,3.4-.93.62-9.76.62-9.76l-12,1.39A72.69,72.69,0,0,0,186.9,167.56Z" style="fill:#263238;stroke:#263238;stroke-linecap:round;stroke-linejoin:round"></path><path d="M212.47,167.71a10.31,10.31,0,0,1,8.21-1.24" style="fill:none;stroke:#263238;stroke-linecap:round;stroke-linejoin:round"></path><path d="M213.4,173.91s2.63-3.1,5-1.08" style="fill:none;stroke:#263238;stroke-linecap:round;stroke-linejoin:round"></path><path d="M209.68,181a6.07,6.07,0,0,0,5.11,3.72" style="fill:none;stroke:#263238;stroke-linecap:round;stroke-linejoin:round"></path><path d="M189.38,174.69s2,3.1,4.49,2.79" style="fill:#fff;stroke:#263238;stroke-linecap:round;stroke-linejoin:round"></path><polygon points="201.84 190.76 198.52 188.33 201.77 195.77 201.84 190.76" style="fill:#263238;stroke:#263238;stroke-linecap:round;stroke-linejoin:round"></polygon><path d="M181.16,161.21a37.21,37.21,0,0,0,20.46,4.33,148.39,148.39,0,0,0,22.94-3.87s-.47-12.86-1.24-16.27-14.11-9-18.91-9.92-18,3.72-20.61,8.06S181.16,161.21,181.16,161.21Z" style="fill:#407BFF;stroke:#263238;stroke-linecap:round;stroke-linejoin:round"></path><path d="M181.16,161.21s-9.45,4.33-13.17,5.73-5.89,2.17-4.65,3.25,7.13,1.86,11.93.78,15-6.51,15-6.51Z" style="fill:#fff;stroke:#263238;stroke-linecap:round;stroke-linejoin:round"></path><path d="M180.66,186.25s-6.88,1.33-11.33,5.11-39.75,36.65-40,38.87,6.44,53.52,6.88,56.41,6,10.66,7.33,12,3.55,2,5.55,2.67,4.89,1.78,3.33-.67-3.1-4-4-6.44a21.39,21.39,0,0,1-1.11-4.66,13,13,0,0,1,2.88,3.11c1.34,2,2.89,3.55,3.56,2s-.89-3.78-2.67-6.67-7.55-4.66-9.1-6,2.44-45.31,2.88-46,33.76-25.54,33.76-25.54" style="fill:#fff;stroke:#263238;stroke-linecap:round;stroke-linejoin:round"></path><path d="M142.46,383.48s-3.11.89-3.11,2.88-.44,2.89-.89,5.34-2.89,6.21-2.44,7.55,2.22,6,11.55,9.77,15.77,5.77,19.77,4.89,4.22-5.33,2.44-6.67-8-7.77-9.55-10.88-2.45-3.55-2.89-6.22-.67-4.66-3.11-3.33a25.75,25.75,0,0,0-4.88,3.77S143.35,388.14,142.46,383.48Z" style="fill:#fff;stroke:#263238;stroke-linecap:round;stroke-linejoin:round"></path><path d="M147.57,409c8.83,4.12,15.77,5.77,19.77,4.89a4.44,4.44,0,0,0,2.7-1.69c-12.58,2.18-22.59-5-28-9.42a23.88,23.88,0,0,1-5.49-6,4.39,4.39,0,0,0-.51,2.46C136.46,400.58,138.45,404.76,147.57,409Z" style="fill:#fff;stroke:#263238;stroke-linecap:round;stroke-linejoin:round"></path></g></svg>
