<svg xmlns="http://www.w3.org/2000/svg" viewBox="0 0 500 500"><g id="freepik--background-complete--inject-24"><path d="M371.38,449.42c-3.69-5.37-8.23-10.07-12.31-15.12-8.57-10.59-13.13-23.3-14.39-36.8a99.21,99.21,0,0,1,.43-22.19c0-.17-.27-.21-.3,0-2.06,12.66-2.08,25.67,1.67,38a60.33,60.33,0,0,0,8.26,17.28c3.75,5.34,8.4,9.94,12.55,15A47.79,47.79,0,0,1,378,467.79c.06.33.54.18.5-.14A42.35,42.35,0,0,0,371.38,449.42Z" style="fill:#ebebeb"></path><path d="M344.35,378.36s-7.73-8.79,3.75-31C348.1,347.34,356.5,366.84,344.35,378.36Z" style="fill:#ebebeb"></path><path d="M328.88,378.36s11,9.33,12.93,14.91,3.68,16.4,3.68,16.4S329.8,403.4,328.88,378.36Z" style="fill:#ebebeb"></path><path d="M344.37,393.26s1.82-13.83,11.24-24c0,0,.74,10.75-1.77,15.61S344.37,393.26,344.37,393.26Z" style="fill:#ebebeb"></path><path d="M348.47,415.18s-2.28-14,9-26.77c0,0,1.92,8.83,0,14.72S348.47,415.18,348.47,415.18Z" style="fill:#ebebeb"></path><path d="M354.74,430.58s-4.63-9.05-17.56-13.32C337.18,417.26,340,432.71,354.74,430.58Z" style="fill:#ebebeb"></path><path d="M359.78,435.16s-1.73-9.65,0-17.16a42.69,42.69,0,0,1,5.69-13.25S371.6,424.35,359.78,435.16Z" style="fill:#ebebeb"></path><path d="M370,449.05s-3.58-7.06-25.62-7.79c0,0,7.15,9.71,14.64,10.74S370,449.05,370,449.05Z" style="fill:#ebebeb"></path><path d="M368.42,445.43A18.46,18.46,0,0,1,370,429S374.62,438.71,368.42,445.43Z" style="fill:#ebebeb"></path><path d="M138.84,317.2a.35.35,0,0,0-.67.21,94.63,94.63,0,0,1,3.34,29.72c-.5,10.19-2.35,20.24-4.49,30.2-4.17,19.48-9.57,39.12-8.41,59.23.6,10.51,3,21.15,8.41,30.3.17.29.58,0,.44-.29-18.82-38.29,2.9-78.47,5.06-117.7C143.09,338.37,142.53,327.15,138.84,317.2Z" style="fill:#ebebeb"></path><path d="M139.69,319.7s-4.82-3.84-5.4-8.93,1.4-11.62,1.4-11.62S141.86,309.74,139.69,319.7Z" style="fill:#ebebeb"></path><path d="M141.75,331.77s-1.8-9.21,1.4-14.65A76,76,0,0,0,148.64,305S153.61,323.06,141.75,331.77Z" style="fill:#ebebeb"></path><path d="M142.71,342.17A15.57,15.57,0,0,1,133,335c-3.46-6-3.65-17.19-3.65-17.19s8.19,9.27,10.15,14.26A90.42,90.42,0,0,1,142.71,342.17Z" style="fill:#ebebeb"></path><path d="M140.12,360.73s1.85-12-9.84-19.59c0,0,.59,10.55,3.45,14.92S140.12,360.73,140.12,360.73Z" style="fill:#ebebeb"></path><path d="M142.44,350.08s.34-7.47,1.72-10.76,5.91-7,5.91-7S148.41,344.46,142.44,350.08Z" style="fill:#ebebeb"></path><path d="M139.55,370.06s2.65-11,6.74-16.09a36.77,36.77,0,0,1,9.92-8.27S154,364.85,139.55,370.06Z" style="fill:#ebebeb"></path><path d="M138,375.82s-9.76-1.83-13.48-21.94c0,0,9.07,5.08,11.11,9.58S138,375.82,138,375.82Z" style="fill:#ebebeb"></path><path d="M135,389.77s2.36-8.9,5.12-12.2,7.78-6,7.78-6S148.06,382.85,135,389.77Z" style="fill:#ebebeb"></path><path d="M136,385.49s-6.54-1.7-9.63-6.52-3.63-11.4-3.63-11.4S135.66,374.05,136,385.49Z" style="fill:#ebebeb"></path><path d="M131,406.12a17.94,17.94,0,0,1-7.25-8.34c-2.45-5.8-1.22-15.54-1.22-15.54S133.44,392.92,131,406.12Z" style="fill:#ebebeb"></path><path d="M130.61,413.69s3.07-11,5.45-13.08,7.3-5.88,7.3-5.88S140.57,406.62,130.61,413.69Z" style="fill:#ebebeb"></path><path d="M128.92,431.68a19.49,19.49,0,0,1-6-8.7,25.44,25.44,0,0,1-1.17-12.1S127.37,416.89,128.92,431.68Z" style="fill:#ebebeb"></path><path d="M130.4,442.13s-.88-9.82,1.3-16.32,7.65-12.13,7.65-12.13.65,15.64-1.91,20.09A38.81,38.81,0,0,1,130.4,442.13Z" style="fill:#ebebeb"></path><path d="M188.05,408.75c.24,1.19.64,2.15-.52,2.67s-1.14-.13-1.93-1.13a9,9,0,0,0-1.52-1.68c-2.58-1.92-5.83-.69-5.3,2.74.73,4.71,4.49,6.44,8.05,8.71,2.52,1.6,2.79,4.45,4.52,6.65,1.33,1.7,3.16,2.89,4.71,4.35a10.34,10.34,0,0,1,3.25,8.43,25.76,25.76,0,0,1-.63,4.46c-.23,1.05.11,1.2-1,1s-1.17-1-1.59-1.83c-1-2.1-3.09-10.52-6.79-9.06a2.86,2.86,0,0,0-1.45,3.15,5.08,5.08,0,0,0,1,2c.29.39.82.77,1,1.23.83.72.45,1.33-1.17,1.8-.16-.18-.32-.35-.49-.52-1.2-.51-2.59-3-3.51-4a5.9,5.9,0,0,0-1.61-1.34,2.87,2.87,0,0,0-3.51.8c-2.63,3.11,1.09,7.62,3.55,9.51a19,19,0,0,0,5.75,2.93c2.49.8,6.71.59,7.67,3.58.78,2.43.71,12.43.74,15.31h7.55c.66-6.07.43-18.94.89-25,.16-2.11.1-4.43,1-6.4a15.15,15.15,0,0,1,2.78-3.65,29.27,29.27,0,0,1,3.58-3.46,19.42,19.42,0,0,1,5.29-2.44c2.82-1.08,4.67-3.56,7.63-4.44,2.74-.82,5.66-.8,8.34-1.83,1.47-.56,3.71-1.65,4-3.4s-1.24-2.92-2.79-3.06c-2.32-.22-4.81,1.58-6.67,2.72-1.05.66-2.1,1.33-3.2,1.91-.72.39-3.93,2.06-4.86,1.47-1.33-.83.45-3,1-3.61.36-.4.77-.77,1.17-1.14,1.14-1,2.36-2,3.53-3q3.42-3,6.7-6.07c4-3.81,6.73-7.22,6.78-13,0-2.62.18-10.39-4.58-9.21-3.84.95-2,8.34-2.24,11.05-.35,4-3,4.91-5.81,7a19.16,19.16,0,0,0-4.33,4.82c-1.46,2.2-2.61,4.61-3.88,6.91a6.75,6.75,0,0,1-.79,1.37c-.35,1.05-1.16,1.22-2.41.51,0-.26.05-.51.08-.75-.23-1.44.93-3.4,1.57-4.62,2.07-4,5.44-8.33,3.51-13.1-.79-1.93-4.57-5.67-5.83-2.19-1,2.85.59,6-.29,8.89-.75,2.46-2.57,4.33-3,6.93-.29,1.75-.06,3.54-.58,5.25a14.26,14.26,0,0,1-2.26,4.07,46.5,46.5,0,0,1-3.22,3.94c-.43.48-1.09,1.5-1.68,1.78-1.24.58-1.74-.65-2.21-1.68-2.53-5.55-.09-13.45,2.63-18.43,2.89-5.28,6.19-9.72,7.13-15.84a31.11,31.11,0,0,0,.07-9.19c-.24-1.63-.61-3.39-2-4.46a3.25,3.25,0,0,0-3.9-.17c-1.32,1.05-1.31,2.94-1.3,4.46.06,5.8,2.12,12.57-1.53,17.57a20.42,20.42,0,0,1-.53-4.87,32.17,32.17,0,0,0,.23-4.15c-.18-1.65-1.4-3.37-3.26-3-1.5.28-2,1.84-2.15,3.16a53.5,53.5,0,0,0,.1,10.28c.22,3.3.5,6.61.42,9.92a34.72,34.72,0,0,1-.56,5.59c-.34,1.7-1.23,6.25-3.2,2.7-1.38-2.51-.68-6.12-.73-8.86a12.76,12.76,0,0,0-1.35-6.29c-1.24-2.13-3.46-3.33-5.11-5.08a15.36,15.36,0,0,1-4-8.29c-.38-2.6-.56-8.67-5-7.51-3.47.91-2.72,6.33-2.39,8.87.63,4.88,3.29,7.25,7.07,10C185.34,403.41,187.4,405.53,188.05,408.75Z" style="fill:#ebebeb"></path><path d="M165.94,89.17c5.1-1.28,9.75-3.69,14.58-5.73C195.39,77.08,211.47,71,228,72.76a64.16,64.16,0,0,1,16.1,4.3c15.19,6.42,28.26,12.92,45.18,9.53,20.7-4,40.79-14.63,62.23-15.08,11.39-.24,22.45,3.79,32.31,8.72,9.45,4.52,18.29,10.22,28.76,12.14v1c-5.41.83-11,0-16.33-1.22C385,89.43,374,84.46,362.57,82.79l-1.81-.28L359,82.35c-.91-.1-2.66-.2-3.57-.19-22.16-.32-43.32,9.93-65.59,9.89-1.91.08-4.26-.09-6.18-.17l-4.1-.39c-1.2-.15-2.83-.47-4-.62-11.18-2-21.79-6.57-32.86-8.5-15.19-2.77-30.13-.67-45.07,2.69-5.07,1.12-10.18,2.38-15.4,3.48s-10.73,2.35-16.21,1.63v-1Z" style="fill:#ebebeb;opacity:0.30000000000000004"></path><path d="M115.73,351c5.09-1.28,9.74-3.69,14.58-5.74,14.87-6.35,30.94-12.45,47.51-10.67a63.74,63.74,0,0,1,16.1,4.3c15.2,6.42,28.26,12.92,45.19,9.53,20.7-4,40.78-14.63,62.23-15.08,11.38-.24,22.45,3.79,32.31,8.71,9.45,4.52,18.28,10.22,28.75,12.14v1c-5.41.84-11,.05-16.32-1.22-11.35-2.71-22.29-7.69-33.73-9.35l-1.8-.29-1.8-.15c-.91-.11-2.66-.2-3.57-.2-22.15-.31-43.32,9.94-65.58,9.89-1.91.08-4.27-.09-6.19-.16-1-.1-3.08-.29-4.09-.4-1.21-.14-2.84-.46-4-.62-11.18-2-21.8-6.56-32.87-8.5-15.19-2.77-30.13-.66-45.06,2.69-5.08,1.13-10.18,2.39-15.41,3.49s-10.72,2.34-16.2,1.63v-1Z" style="fill:#ebebeb;opacity:0.30000000000000004"></path><path d="M89.41,437.26c5.1-1.27,9.75-3.68,14.58-5.73,14.87-6.36,31-12.45,47.52-10.68a64.29,64.29,0,0,1,16.1,4.31c15.19,6.42,28.25,12.92,45.18,9.53,20.7-4,40.79-14.63,62.23-15.09,11.39-.23,22.45,3.8,32.31,8.72,9.45,4.52,18.29,10.22,28.76,12.14v1c-5.41.84-11,.05-16.33-1.22-11.34-2.72-22.29-7.69-33.73-9.36l-1.8-.28-1.79-.15a35.59,35.59,0,0,0-3.57-.2c-22.16-.32-43.32,9.93-65.59,9.89-1.91.08-4.26-.09-6.18-.16-1-.1-3.08-.29-4.1-.4-1.2-.15-2.83-.46-4.05-.62-11.18-2-21.79-6.56-32.86-8.5-15.19-2.77-30.13-.67-45.07,2.69-5.07,1.12-10.18,2.38-15.4,3.49S94.89,439,89.41,438.26v-1Z" style="fill:#ebebeb;opacity:0.5"></path><path d="M40.45,241.12c5.1-1.28,9.75-3.69,14.58-5.73,14.87-6.36,31-12.45,47.52-10.68a64.16,64.16,0,0,1,16.1,4.3c15.19,6.42,28.26,12.92,45.18,9.53,20.7-4,40.79-14.63,62.24-15.08,11.38-.24,22.44,3.79,32.3,8.71,9.45,4.52,18.29,10.22,28.76,12.15v1c-5.41.83-11,0-16.33-1.23-11.34-2.71-22.29-7.68-33.72-9.35l-1.81-.29-1.79-.15c-.91-.1-2.66-.2-3.57-.19-22.16-.32-43.32,9.93-65.59,9.89-1.91.07-4.26-.09-6.18-.17l-4.1-.39c-1.2-.15-2.83-.47-4-.63-11.18-2-21.79-6.56-32.86-8.49-15.19-2.77-30.13-.67-45.07,2.69-5.07,1.12-10.18,2.38-15.4,3.48s-10.73,2.35-16.21,1.63v-1Z" style="fill:#ebebeb;opacity:0.30000000000000004"></path><path d="M51.73,128.11c7.58-2.54,14.44-6.58,22-9.37,7.12-2.77,14.59-5.19,22.25-6a64.49,64.49,0,0,1,14.16.29c19.49,2.82,38.73,11.54,58.38,10.84,23.45-1.49,46.64-13,70.56-8.59v1c-4,1-7.78,1.88-11.55,3.06-3.17.94-8,2.65-11.21,3.74-24.66,8.91-47.07,16.27-72.2,3.5-10.59-5.23-22-9.93-34-8-11.06,1.89-23,5.21-34,7.67-7.86,1.64-16.16,4.21-24.31,2.94v-1Z" style="fill:#ebebeb;opacity:0.5"></path><path d="M459.55,203.85c-9.13,4.35-17.83,9.73-27.94,11.45-5.12.82-10.49.52-15.57,1.1-6.35.65-12.8,2.33-19.33,3.07-9.11.77-18.78-1.58-27.12-4.66-4.13-1.56-9.49-4-13.58-5.71-4.47-1.87-9-3.5-14-5.22v-1c10-3.33,21.45-1.23,31.15,1.85,5.95,1.92,11.33,4.37,17.16,6,3.33.9,7.06,2,10.48,2.75a33.21,33.21,0,0,0,14.71-.22c4.85-1.16,9.26-4,13.81-6a73.56,73.56,0,0,1,14.41-4.2c5.1-.93,10.75-1.85,15.85-.24v1Z" style="fill:#ebebeb;opacity:0.30000000000000004"></path><path d="M180.28,150.58c9.13-4.35,17.83-9.73,27.94-11.46,5.12-.81,10.49-.52,15.56-1.1,6.36-.65,12.81-2.33,19.33-3.06,9.12-.78,18.79,1.57,27.13,4.66,4.12,1.55,9.49,4,13.57,5.71,4.48,1.87,9,3.5,14,5.21v1c-10.05,3.33-21.45,1.24-31.15-1.84-6-1.92-11.33-4.38-17.17-6-3.32-.89-7.06-2-10.47-2.75a33.21,33.21,0,0,0-14.71.23c-4.85,1.16-9.26,3.95-13.81,5.95a74.45,74.45,0,0,1-14.41,4.2c-5.1.92-10.76,1.85-15.85.24v-1Z" style="fill:#ebebeb;opacity:0.5"></path><path d="M337.38,257.26c-9.13,4.34-17.83,9.72-27.94,11.45-5.12.81-10.49.52-15.56,1.1-6.36.65-12.81,2.33-19.33,3.06-9.12.78-18.79-1.57-27.13-4.65-4.12-1.56-9.49-4-13.57-5.72-4.48-1.87-9-3.49-14-5.21v-1c10.05-3.33,21.45-1.24,31.15,1.84,6,1.92,11.33,4.38,17.17,6,3.32.89,7.05,2,10.47,2.75a33.21,33.21,0,0,0,14.71-.23c4.85-1.16,9.26-3.95,13.81-5.94a73.58,73.58,0,0,1,14.41-4.21c5.1-.92,10.76-1.85,15.85-.23v1Z" style="fill:#ebebeb;opacity:0.5"></path><path d="M179.78,131.34s-13.12-10-29.57,0C150.21,131.34,164.44,140.24,179.78,131.34Z" style="fill:#ebebeb"></path><path d="M179.78,131.34s5.56-5.22,6.89-4.44-4.11,4.44-4.11,4.44,4.45,5,2.44,5.45S179.78,131.34,179.78,131.34Z" style="fill:#ebebeb"></path><path d="M145.84,148.16s-9.13-7-20.58,0C125.26,148.16,135.16,154.35,145.84,148.16Z" style="fill:#ebebeb"></path><path d="M145.84,148.16s3.87-3.64,4.8-3.1-2.86,3.1-2.86,3.1,3.1,3.48,1.7,3.79S145.84,148.16,145.84,148.16Z" style="fill:#ebebeb"></path><path d="M157.51,117.85s-9.13-7-20.58,0C136.93,117.85,146.83,124,157.51,117.85Z" style="fill:#ebebeb"></path><path d="M157.51,117.85s3.87-3.64,4.8-3.1-2.86,3.1-2.86,3.1,3.1,3.48,1.7,3.79S157.51,117.85,157.51,117.85Z" style="fill:#ebebeb"></path><path d="M276.61,310.34s13.12-10,29.58,0C306.19,310.34,292,319.24,276.61,310.34Z" style="fill:#dbdbdb"></path><path d="M276.61,310.34s-5.55-5.22-6.89-4.45,4.12,4.45,4.12,4.45-4.45,5-2.45,5.45S276.61,310.34,276.61,310.34Z" style="fill:#dbdbdb"></path><path d="M310.55,327.16s9.13-7,20.59,0C331.14,327.16,321.23,333.35,310.55,327.16Z" style="fill:#dbdbdb"></path><path d="M310.55,327.16s-3.87-3.64-4.8-3.1,2.86,3.1,2.86,3.1-3.09,3.48-1.7,3.79S310.55,327.16,310.55,327.16Z" style="fill:#dbdbdb"></path><path d="M298.88,296.85s9.13-7,20.59,0C319.47,296.85,309.56,303,298.88,296.85Z" style="fill:#dbdbdb"></path><path d="M298.88,296.85s-3.87-3.64-4.8-3.1,2.86,3.1,2.86,3.1-3.09,3.48-1.7,3.79S298.88,296.85,298.88,296.85Z" style="fill:#dbdbdb"></path><path d="M381.11,378.19s13.12-10,29.57,0C410.68,378.19,396.45,387.09,381.11,378.19Z" style="fill:#ebebeb"></path><path d="M381.11,378.19s-5.56-5.22-6.89-4.44,4.11,4.44,4.11,4.44-4.45,5-2.44,5.45S381.11,378.19,381.11,378.19Z" style="fill:#ebebeb"></path><path d="M187,371.07s13.12-10,29.57,0C216.52,371.07,202.29,380,187,371.07Z" style="fill:#ebebeb"></path><path d="M187,371.07s-5.56-5.22-6.9-4.45,4.12,4.45,4.12,4.45-4.45,5-2.45,5.45S187,371.07,187,371.07Z" style="fill:#ebebeb"></path><path d="M410.63,361.19s9.13-7,20.59,0C431.22,361.19,421.31,367.38,410.63,361.19Z" style="fill:#ebebeb"></path><path d="M410.63,361.19s-3.87-3.64-4.8-3.1,2.86,3.1,2.86,3.1-3.09,3.48-1.7,3.79S410.63,361.19,410.63,361.19Z" style="fill:#ebebeb"></path><path d="M368.49,360.69s9.14-7,20.59,0C389.08,360.69,379.17,366.88,368.49,360.69Z" style="fill:#ebebeb"></path><path d="M368.49,360.69s-3.87-3.64-4.8-3.1,2.87,3.1,2.87,3.1-3.1,3.48-1.7,3.79S368.49,360.69,368.49,360.69Z" style="fill:#ebebeb"></path><path d="M417.87,78.51s9.14-7,20.59,0C438.46,78.51,428.55,84.7,417.87,78.51Z" style="fill:#dbdbdb"></path><path d="M417.87,78.51s-3.87-3.64-4.8-3.1,2.87,3.1,2.87,3.1-3.1,3.48-1.7,3.79S417.87,78.51,417.87,78.51Z" style="fill:#dbdbdb"></path><path d="M392.79,93.41s13.11-10,29.57,0C422.36,93.41,408.13,102.31,392.79,93.41Z" style="fill:#dbdbdb"></path><path d="M392.79,93.41s-5.56-5.22-6.9-4.44S390,93.41,390,93.41s-4.45,5-2.45,5.45S392.79,93.41,392.79,93.41Z" style="fill:#dbdbdb"></path><path d="M91.11,287.85s-13.12-10-29.57,0C61.54,287.85,75.77,296.74,91.11,287.85Z" style="fill:#dbdbdb"></path><path d="M91.11,287.85s5.56-5.23,6.89-4.45-4.11,4.45-4.11,4.45,4.45,5,2.45,5.45S91.11,287.85,91.11,287.85Z" style="fill:#dbdbdb"></path><path d="M107,271.61s-9.14-7-20.59,0C86.41,271.61,96.31,277.8,107,271.61Z" style="fill:#dbdbdb"></path><path d="M107,271.61s3.87-3.64,4.8-3.1-2.87,3.1-2.87,3.1,3.1,3.48,1.7,3.79S107,271.61,107,271.61Z" style="fill:#dbdbdb"></path></g><g id="freepik--Floor--inject-24"><path d="M452.49,468.58c-129.73.61-275.25.62-405,0,129.73-.62,275.25-.61,405,0Z" style="fill:#263238"></path></g><g id="freepik--Plants--inject-24"><path d="M398.26,380.22a3.4,3.4,0,0,0-2.1,3.42c0,1.25.26,2.44.21,3.68a54.32,54.32,0,0,1-6.5,12c-3.43,5-7.18,9.93-9.78,15.46-.15.31-.27.61-.41.93.74-3.66,1.48-7.33,2.46-10.93a118.22,118.22,0,0,0,3.32-13.05,54,54,0,0,0,.42-13.44,53,53,0,0,0-1-6.26c-.44-2-.85-4.24-2.09-5.94a.36.36,0,0,0-.63.13,7.87,7.87,0,0,0,1.8,5.42c.14.69.26,1.36.39,2a57.93,57.93,0,0,1,.76,6.18,53.4,53.4,0,0,1-.83,13.47c-.24,1.2-.52,2.39-.83,3.58.11-6.69-2.12-13.42-4.39-19.6s-4.59-12.45-4.2-18.93a.25.25,0,0,0,.15-.15c.77-1.65,1.34-3.32.71-5.11a.37.37,0,0,0-.66,0c-2.76,7.3-.22,15.31,2.33,22.27,2.79,7.59,5.4,15.3,5.56,23.43-.66,2.33-1.36,4.65-1.95,7a116.19,116.19,0,0,0-2.23,12.14,57,57,0,0,0-3.26,14.48c-.18,1.83-.3,3.68-.37,5.53-.23-1.2-.5-2.38-.79-3.56A109.71,109.71,0,0,0,370,421.26c-.61-1.59-1.26-3.17-1.91-4.75a53.26,53.26,0,0,1,.16-10.86c.48-3.25,1.2-6.47,1.77-9.71a57.72,57.72,0,0,0,1-9.55c0-2.16.27-5.71-1.55-7.3a.28.28,0,0,0-.45.17,5.53,5.53,0,0,0,1.2,4.18c0,.44,0,.87,0,1.25a41.24,41.24,0,0,1-.18,5.21c-.29,3-.81,5.91-1.36,8.85s-1.22,5.87-1.49,8.84a30.68,30.68,0,0,0,.33,7.6c-.94-2.24-1.87-4.47-2.79-6.72s-1.76-4.36-2.57-6.57c-.35-.93-.7-1.87-1-2.82a22.64,22.64,0,0,0,.19-5.14.34.34,0,0,0-.46-.28c-3.28,1,.55,8.83,1.21,10.56,1.88,5,4,9.85,6,14.79.9,2.23,1.77,4.46,2.6,6.73a42.11,42.11,0,0,0-5.66-5.2,32.31,32.31,0,0,1-5-5.15,15.62,15.62,0,0,1-1.81-3c-.1-.22-.22-.52-.35-.84h0A7.61,7.61,0,0,0,358,408c0-.15-.22-.3-.37-.17-1.23,1.09-.47,3.21,0,4.52a15.8,15.8,0,0,0,3.36,5.38,61.81,61.81,0,0,0,5.83,5.25,22.47,22.47,0,0,1,4.65,4.69c.74,2.11,1.42,4.24,2,6.4a69,69,0,0,1,1.64,7.28c0,3.42.17,6.85.49,10.24a92.05,92.05,0,0,0,2.95,16.93h.63a152.94,152.94,0,0,1-2.71-19.78c-.68-12.66.22-25.7,6.61-36.93,3.87-6.77,9.19-13.09,12.57-20.19a9.33,9.33,0,0,0,1.29-3,29.78,29.78,0,0,0,1.86-8A.38.38,0,0,0,398.26,380.22Zm-15.41-12.41a15,15,0,0,1,.7,2.05A6.92,6.92,0,0,1,382.85,367.81Zm-7.47-13.08a5.39,5.39,0,0,1-.36,2C375.11,356.06,375.23,355.4,375.38,354.73ZM369.49,380a5.67,5.67,0,0,1,.68,2.47A4.86,4.86,0,0,1,369.49,380Zm-8.72,17.72c-.26-1-.48-2.32,0-3C360.81,395.68,360.79,396.7,360.77,397.71Zm-3.18,13a3,3,0,0,1,0-2.08A8.52,8.52,0,0,1,357.59,410.68ZM397,385.52c-.16-1.64-.31-3.45.95-4.3A29.69,29.69,0,0,1,397,385.52Z" style="fill:#407BFF"></path><path d="M113.9,428c-5.37,13.44-11.76,26.29-14.46,40.54h-.71c1.45-16.4,10.42-31.45,15.79-46.74.71-2.05,1.37-4.12,2-6.19,2.43-11.06-1.27-21.64-4.15-32.33-1.74-6.46-3.18-13-2.79-19.64a.84.84,0,0,1,.55-.83c2.83-.77,4.26,3.77,5.17,6.09.08.18.14.35.21.5a67.74,67.74,0,0,1,4.13,13.14C122.81,398.26,119.76,413.31,113.9,428Z" style="fill:#455a64"></path><path d="M113.9,428c-5.37,13.44-11.76,26.29-14.46,40.54h-.71c1.45-16.4,10.42-31.45,15.79-46.74.71-2.05,1.37-4.12,2-6.19,2.43-11.06-1.27-21.64-4.15-32.33-1.74-6.46-3.18-13-2.79-19.64a.84.84,0,0,1,.55-.83c2.83-.77,4.26,3.77,5.17,6.09.08.18.14.35.21.5a67.74,67.74,0,0,1,4.13,13.14C122.81,398.26,119.76,413.31,113.9,428Z" style="opacity:0.1"></path><path d="M118,368.89a91.66,91.66,0,0,1-2.93,14.38,103.88,103.88,0,0,1-6.72,17.31c-.31.63-.63,1.26-1,1.9a.51.51,0,0,1-.23.23c0,.12-.07.23-.1.34-1.72,6.13-3.75,12.18-5.13,18.41a112.86,112.86,0,0,0-2.1,28.26c.06,2.15.18,4.31.31,6.46.24,4.06.58,8.12.92,12.14l0,.21h-.78c0-.14,0-.27,0-.4a1.08,1.08,0,0,1,0-.19c0-.1,0-.2,0-.3-.06-.45-.11-.89-.16-1.33-.66-5.29-1.23-10.6-1.55-15.91-.1-1.78-.18-3.57-.22-5.35a102.62,102.62,0,0,1,1.45-21c1.47-8.07,4.27-15.79,6.33-23.71l.15-.59c.3-1.15.59-2.3.87-3.46A146.31,146.31,0,0,0,110.4,376a114.91,114.91,0,0,0-.44-25.35c-1.06-7.92-3.4-15.78-3.17-23.83,0-1.41.22-3.36,2.17-2.91,2.34.53,3.55,5.15,4.3,7A72.76,72.76,0,0,1,118.37,353,81.76,81.76,0,0,1,118,368.89Z" style="fill:#455a64"></path><path d="M101.13,457.34a49.5,49.5,0,0,0-.22,10.33c0,.28,0,.57.09.86h-1l-.06-.4,0-.19c0-.09,0-.18,0-.28v0c-.06-.45-.11-.89-.16-1.33a46.07,46.07,0,0,1,0-9.17c0-.33.06-.64.1-1,.12-1.15.28-2.3.47-3.43a133.66,133.66,0,0,1,3.1-13.48c2.87-10.58,5.53-21.09,4.07-32.13-.17-1.38-.42-2.75-.72-4.09-.25-1.13-.54-2.24-.86-3.34-.58-2-1.26-4-2-5.92a.39.39,0,0,1-.26-.18c-14-22.31-24-53.57-6.48-76.87a.78.78,0,0,1,1.32.24c1.14,5.35-.45,10.32-1.84,15.47a71.39,71.39,0,0,0-2.51,17.44,74.43,74.43,0,0,0,6.24,30.57c2.26,5.29,4.6,10.45,6.39,15.79.47,1.43.91,2.87,1.29,4.33a52.09,52.09,0,0,1,1.58,8.93C111,425.91,103,441.39,101.13,457.34Z" style="fill:#455a64"></path><path d="M401,389.5a67.6,67.6,0,0,1-3.65,15.68c-1.47,4.3-3.18,8.54-4.78,12.8-.35,1.09-.71,2.19-1.05,3.28s-.63,2-.92,2.95c-1.11,3.6-2.12,7.23-2.9,10.93-.3,1.43-.56,2.86-.78,4.32a92.94,92.94,0,0,0,.25,29.07h-.74c-.56-2.68-1-5.36-1.32-8.06a83.47,83.47,0,0,1-.19-18c.11-1.17.25-2.34.41-3.5a114.15,114.15,0,0,1,4.35-17.76c.3-1,.61-1.94.92-2.92,4-12.62,8.09-25.17,5.38-38.61A67.54,67.54,0,0,0,390.63,364c-1.27-2.64-2.66-5.22-4.13-7.74-.65-1.09-1.3-2.18-2-3.26-4.77-7.65-15.2-23.49-12-25.18,4.08-2.18,11.72,8.47,15.06,14.24,1.05,1.82,2.08,3.67,3.07,5.55,1.48,2.82,2.87,5.7,4.13,8.65C399.27,366.81,402.08,378.05,401,389.5Z" style="fill:#455a64"></path><path d="M401,389.5a67.6,67.6,0,0,1-3.65,15.68c-1.47,4.3-3.18,8.54-4.78,12.8-.35,1.09-.71,2.19-1.05,3.28s-.63,2-.92,2.95c-1.11,3.6-2.12,7.23-2.9,10.93-.3,1.43-.56,2.86-.78,4.32a92.94,92.94,0,0,0,.25,29.07h-.74c-.56-2.68-1-5.36-1.32-8.06a83.47,83.47,0,0,1-.19-18c.11-1.17.25-2.34.41-3.5a114.15,114.15,0,0,1,4.35-17.76c.3-1,.61-1.94.92-2.92,4-12.62,8.09-25.17,5.38-38.61A67.54,67.54,0,0,0,390.63,364c-1.27-2.64-2.66-5.22-4.13-7.74-.65-1.09-1.3-2.18-2-3.26-4.77-7.65-15.2-23.49-12-25.18,4.08-2.18,11.72,8.47,15.06,14.24,1.05,1.82,2.08,3.67,3.07,5.55,1.48,2.82,2.87,5.7,4.13,8.65C399.27,366.81,402.08,378.05,401,389.5Z" style="opacity:0.1"></path><path d="M400.33,344.76c-3.94-12.23-9.26-24.91-8.39-38,.67-10.15,5.71-20,15.34-24.19.4-.18,1,0,1,.55-.92,10.59-6.58,18.31-6.18,30.74.32,10.33,2.82,19.48,6.43,28.78,3.74,9.62,4.93,18.75,2.4,28.87A185.82,185.82,0,0,1,403.7,393c-7.23,22.84-22.84,45.14-17.4,70,.08.37-.46.52-.55.17-3.59-14.11,0-28.33,5-41.6,4.65-12.33,10.68-24.26,13.45-37.22C407.11,370.74,404.54,357.81,400.33,344.76Z" style="fill:#455a64"></path><path d="M400.33,344.76c-3.94-12.23-9.26-24.91-8.39-38,.67-10.15,5.71-20,15.34-24.19.4-.18,1,0,1,.55-.92,10.59-6.58,18.31-6.18,30.74.32,10.33,2.82,19.48,6.43,28.78,3.74,9.62,4.93,18.75,2.4,28.87A185.82,185.82,0,0,1,403.7,393c-7.23,22.84-22.84,45.14-17.4,70,.08.37-.46.52-.55.17-3.59-14.11,0-28.33,5-41.6,4.65-12.33,10.68-24.26,13.45-37.22C407.11,370.74,404.54,357.81,400.33,344.76Z" style="opacity:0.1"></path><path d="M420.15,397.38c-.76,6.54-3.84,12.49-7.6,17.87a115.94,115.94,0,0,1-13.11,14.9c-1.45,1.46-2.92,3-4.3,4.59-.46.54-.92,1.11-1.36,1.68s-1.06,1.43-1.53,2.17a52.42,52.42,0,0,0-2.89,29.94h-.94a51.21,51.21,0,0,1-.06-23.33,17.28,17.28,0,0,1,1.15-4.12,49.8,49.8,0,0,1,3.51-8.22,1.51,1.51,0,0,1,.09-.18c.37-.67.74-1.32,1.13-2,3.26-5.44,7.37-10.34,10.39-16a93.92,93.92,0,0,0,8.51-20.89c1-4,.86-24.18,3.64-22.76C418.63,372,421.59,385,420.15,397.38Z" style="fill:#455a64"></path><path d="M406.44,336.88c-1.59,3-3.63,6.43-5.57,9.56-1.53,2.47-3,4.77-4.14,6.6-.67,1.08-1.33,2.17-2,3.26-1.48,2.52-2.87,5.1-4.13,7.74a67.57,67.57,0,0,0-5.39,15.69c-2.7,13.44,1.4,26,5.39,38.61.2.65.4,1.3.61,1.94.1.33.2.66.31,1,.14.47.29.94.42,1.4.83,2.67,1.6,5.35,2.27,8,.33,1.34.64,2.68.9,4s.55,2.84.75,4.28a85,85,0,0,1-1.1,29.51h-.74a92.94,92.94,0,0,0,.26-29.07c-.16-1-.33-2-.53-3-.23-1.19-.48-2.38-.76-3.56-.6-2.54-1.3-5.05-2.06-7.55l-.33-1.1-.39-1.28c-.18-.55-.35-1.11-.53-1.67l-1-3.28c-3.5-9.31-7.51-18.48-8.44-28.48-1.05-11.45,1.76-22.69,6.28-33.2,1.25-2.95,2.65-5.83,4.13-8.65q1.49-2.82,3.06-5.55a67.46,67.46,0,0,1,3.81-5.82,35,35,0,0,1,6.66-7.27c1.72-1.27,3.33-1.83,4.6-1.15C410.2,328.63,408.82,332.34,406.44,336.88Z" style="fill:#455a64"></path><path d="M142.83,447.6c4.16-6.05,9.28-11.35,13.88-17,9.66-11.94,14.8-26.27,16.23-41.49a111.37,111.37,0,0,0-.49-25c0-.19.31-.23.34,0,2.32,14.27,2.34,28.94-1.88,42.88a68.41,68.41,0,0,1-9.31,19.48c-4.24,6-9.48,11.21-14.16,16.86a54.06,54.06,0,0,0-12.1,25.09c-.06.37-.6.2-.55-.16A47.73,47.73,0,0,1,142.83,447.6Z" style="fill:#37474f"></path><path d="M173.31,367.5s8.71-9.92-4.23-35C169.08,332.52,159.61,354.51,173.31,367.5Z" style="fill:#37474f"></path><path d="M190.75,367.5S178.34,378,176.18,384.3,172,402.79,172,402.79,189.71,395.72,190.75,367.5Z" style="fill:#37474f"></path><path d="M173.28,384.3s-2.05-15.6-12.67-27.05c0,0-.83,12.12,2,17.59S173.28,384.3,173.28,384.3Z" style="fill:#37474f"></path><path d="M168.66,409s2.57-15.74-10.21-30.17c0,0-2.15,9.95,0,16.59S168.66,409,168.66,409Z" style="fill:#37474f"></path><path d="M161.6,426.37s5.21-10.2,19.79-15C181.39,411.35,178.18,428.76,161.6,426.37Z" style="fill:#37474f"></path><path d="M155.92,431.53s1.94-10.88,0-19.35a48.23,48.23,0,0,0-6.43-14.93S142.59,419.35,155.92,431.53Z" style="fill:#37474f"></path><path d="M144.4,447.19s4-7.95,28.88-8.78c0,0-8.05,10.95-16.5,12.11S144.4,447.19,144.4,447.19Z" style="fill:#37474f"></path><path d="M146.17,443.11a20.83,20.83,0,0,0-1.77-18.48S139.17,435.53,146.17,443.11Z" style="fill:#37474f"></path><path d="M356.64,446a11.61,11.61,0,0,0,6.94,4.17c2.11.53,4.21.86,5.56,2.81a11.41,11.41,0,0,1,1.55,4.4,64.06,64.06,0,0,1,.94,11.15h18.73c.05-.35.08-.7.1-1,.12-3-.31-5.77.22-8.72a20.21,20.21,0,0,1,3-7.67c2-2.9,4.84-4.39,7.59-6.39s5.87-6.5,2.9-9.71-4.1,1.94-5.45,3.59a6.64,6.64,0,0,1-2.34,2.07c-.41.14-1.66.6-1.88-.36-.17-.75,1.82-2.93,2.22-3.43,1.31-1.66,2.78-3.18,4-4.91,2.89-4.1,3.61-9.05,3.27-14-.19-2.65,0-8.93-3.71-9.27-3.5-.32-4.28,3.69-3.87,6.29.52,3.22,2.6,6.73,1.61,10-.81,2.67-3.6,4-5.35,6-3.06,3.4-4,8-5.26,12.23-.25.8-.55,3-2.14,2.38a12.79,12.79,0,0,1-.34-2.42,18.34,18.34,0,0,1,.29-4.44,23.11,23.11,0,0,1,3.24-7.63c2.57-4.35,3.22-9.18,2.88-14.19-.16-2.21-1.74-5.51-4.45-3.64-1.33.93-1.61,2.75-1.71,4.25-.08,1.13,0,2.28-.1,3.43-.06.6-.2,2.36-.69,2.69-.77.51-.57-.12-.84-.8-1.09-2.7-.56-6.69-.54-9.56s0-5.93,0-8.89.58-9.24-4-9.36c-3.85-.12-3.75,5.1-3.69,7.68.14,5.54,1.36,11,2.5,16.36.71,3.36,1.43,6.72,1.82,10.14a39.41,39.41,0,0,1,.54,6.15c-1.08-4.33-3.43-10.63-6.92-6.57-1.91,2.21-.14,5.06.83,7.24a43.7,43.7,0,0,1,3.57,13.37c.13,1.26.38,7.2-1.94,3.52a13.38,13.38,0,0,1-1.55-4.53A43.48,43.48,0,0,0,372,439.7a25.4,25.4,0,0,0-5.36-7.95c-2.91-2.92-5.83-5.15-5.47-9.71.22-2.64,2.12-5.73.37-8.22a3.18,3.18,0,0,0-4.09-1.22c-1.94,1.13-1.6,4.12-1.65,6a70,70,0,0,0-.05,9.82,8.59,8.59,0,0,0,3.57,6.29c1.78,1.35,3.65,2.41,4.15,4.79.16.75.39,2-.73,2.25-.56.13-2.1-1.09-2.7-1.32-1.42-.55-3.37-.74-4.41.63C354.44,442.62,355.63,444.66,356.64,446Z" style="fill:#37474f"></path><path d="M106.84,438.19c2.39,3.15,5.6,4.7,9.35,5.62,2.84.71,5.67,1.15,7.49,3.78a15.76,15.76,0,0,1,2.09,5.93,87.81,87.81,0,0,1,1.26,15h25.23a13.43,13.43,0,0,0,.13-1.41c.16-4-.42-7.77.3-11.74a27,27,0,0,1,4-10.33c2.65-3.91,6.51-5.91,10.22-8.61s7.9-8.75,3.91-13.08-5.53,2.61-7.35,4.84a9,9,0,0,1-3.14,2.78c-.56.2-2.24.81-2.54-.48-.23-1,2.45-3.94,3-4.62,1.76-2.23,3.75-4.28,5.4-6.61,3.89-5.53,4.87-12.19,4.41-18.82-.26-3.57,0-12-5-12.49-4.72-.43-5.77,5-5.21,8.48.7,4.34,3.5,9.06,2.16,13.52-1.08,3.59-4.84,5.46-7.2,8.09-4.12,4.59-5.39,10.74-7.09,16.48-.33,1.08-.73,4-2.87,3.2a16.51,16.51,0,0,1-.46-3.26,24.48,24.48,0,0,1,.39-6c.7-3.79,2.42-7,4.36-10.28,3.46-5.85,4.34-12.36,3.88-19.1-.21-3-2.35-7.43-6-4.91-1.8,1.26-2.17,3.71-2.31,5.72-.11,1.53,0,3.08-.13,4.62-.08.82-.27,3.18-.93,3.63-1,.69-.77-.16-1.13-1.08-1.47-3.64-.75-9-.73-12.88l.06-12c0-4,.78-12.44-5.35-12.61-5.19-.15-5.06,6.88-5,10.35.19,7.46,1.83,14.77,3.37,22,1,4.52,1.92,9.05,2.44,13.65a51.36,51.36,0,0,1,.73,8.29c-1.45-5.84-4.62-14.32-9.32-8.86-2.57,3-.19,6.82,1.12,9.76a59,59,0,0,1,4.81,18c.18,1.7.51,9.7-2.62,4.75a18.23,18.23,0,0,1-2.08-6.1c-.82-4-1.36-8-3-11.81a34.22,34.22,0,0,0-7.21-10.7c-3.92-3.94-7.86-6.94-7.37-13.08.29-3.55,2.86-7.72.49-11.07-1.21-1.71-3.53-2.79-5.5-1.64-2.61,1.52-2.16,5.55-2.22,8.05-.11,4.36-.58,8.88-.07,13.22a11.59,11.59,0,0,0,4.81,8.48c2.4,1.82,4.91,3.24,5.58,6.45.22,1,.53,2.69-1,3-.75.17-2.83-1.47-3.63-1.78-1.91-.74-4.54-1-5.94.85C103.88,433.64,105.48,436.39,106.84,438.19Z" style="fill:#407BFF"></path><path d="M309.37,453.69a7.68,7.68,0,0,0,4.57,2.75c1.39.35,2.77.56,3.66,1.85a7.62,7.62,0,0,1,1,2.9,43,43,0,0,1,.62,7.34h12.33a5.38,5.38,0,0,0,.07-.69,39.28,39.28,0,0,1,.14-5.74,13.25,13.25,0,0,1,2-5.05c1.29-1.91,3.18-2.89,5-4.21s3.87-4.28,1.92-6.4-2.71,1.28-3.6,2.37a4.53,4.53,0,0,1-1.53,1.36c-.28.1-1.1.39-1.24-.24s1.19-1.92,1.46-2.26c.86-1.09,1.83-2.09,2.64-3.23a14,14,0,0,0,2.15-9.2c-.12-1.74,0-5.88-2.44-6.1s-2.82,2.43-2.55,4.14c.34,2.12,1.71,4.43,1.06,6.61-.53,1.76-2.37,2.67-3.52,4-2,2.24-2.64,5.25-3.47,8-.16.53-.36,2-1.4,1.57a8.4,8.4,0,0,1-.23-1.6,12.44,12.44,0,0,1,.19-2.92,15.39,15.39,0,0,1,2.14-5,15.76,15.76,0,0,0,1.89-9.34c-.1-1.46-1.15-3.64-2.93-2.4a3.52,3.52,0,0,0-1.12,2.79c-.06.75,0,1.51-.07,2.26,0,.4-.13,1.56-.45,1.78-.51.33-.38-.08-.56-.53-.71-1.78-.36-4.41-.35-6.3l0-5.85c0-1.95.38-6.08-2.62-6.17-2.54-.07-2.47,3.37-2.43,5.06A59.51,59.51,0,0,0,323.37,436c.46,2.21.94,4.42,1.19,6.67a25.25,25.25,0,0,1,.36,4.06c-.71-2.86-2.26-7-4.56-4.34-1.25,1.46-.09,3.34.55,4.78a28.9,28.9,0,0,1,2.35,8.8c.09.83.25,4.74-1.28,2.32a9,9,0,0,1-1-3,28,28,0,0,0-1.47-5.78,16.85,16.85,0,0,0-3.52-5.23c-1.92-1.92-3.85-3.39-3.61-6.39.15-1.74,1.4-3.78.24-5.42a2.09,2.09,0,0,0-2.69-.8c-1.27.75-1.05,2.72-1.08,3.94a46.43,46.43,0,0,0,0,6.46,5.64,5.64,0,0,0,2.35,4.15c1.17.89,2.4,1.58,2.72,3.15.11.49.26,1.32-.47,1.48-.37.09-1.39-.72-1.78-.87-.93-.36-2.22-.48-2.9.42S308.7,452.81,309.37,453.69Z" style="fill:#455a64"></path><path d="M81.61,417.58v1.09c0,6.43,0,13.12-.11,19.43,0,.32,0,.63,0,.95,0,.66,0,1.31,0,2,0,.39,0,.77,0,1.16-.18,14.66-.45,26.36-.45,26.36H66.27L64.42,457.2c0-.27-.08-.55-.13-.82-1-5.86-2.15-13.3-3.39-21.11,0-.31-.09-.61-.15-.92-1.56-9.88-3.18-20.27-4.43-28.75,0-.25-.07-.5-.1-.75h0c-.12-.87-.25-1.72-.37-2.55,0-.26-.07-.52-.11-.77-1.13-7.9-1.81-13.4-1.59-13.93C55,385.52,77,383.1,80,384.66,81.21,385.32,81.59,400.39,81.61,417.58Z" style="fill:#407BFF"></path><path d="M81.61,417.58v1.09c0,6.43,0,13.12-.11,19.43,0,.32,0,.63,0,.95,0,.66,0,1.31,0,2,0,.39,0,.77,0,1.16-.18,14.66-.45,26.36-.45,26.36H66.27L64.42,457.2c0-.27-.08-.55-.13-.82-1-5.86-2.15-13.3-3.39-21.11,0-.31-.09-.61-.15-.92-1.56-9.88-3.18-20.27-4.43-28.75,0-.25-.07-.5-.1-.75h0c-.12-.87-.25-1.72-.37-2.55,0-.26-.07-.52-.11-.77-1.13-7.9-1.81-13.4-1.59-13.93C55,385.52,77,383.1,80,384.66,81.21,385.32,81.59,400.39,81.61,417.58Z" style="opacity:0.1"></path><path d="M76.84,386.28a33,33,0,0,1-5.16,3.35c-1.44.82-3,1.95-4.72,2.16-3.24.4-7.4-1.71-10.3-3-.27-.12-.06-.49.19-.44a21.71,21.71,0,0,1,2.42.63,30,30,0,0,1,14.11-1.81.44.44,0,0,1,.2.08,20.16,20.16,0,0,1,3-1.48A.28.28,0,0,1,76.84,386.28Z" style="opacity:0.1"></path><path d="M68,401.94a35.38,35.38,0,0,1-12.16.36c0-.26-.07-.52-.11-.77,4.05-.09,8.12-.34,12.17-.35A.39.39,0,0,1,68,401.94Z" style="opacity:0.1"></path><path d="M69.12,405.19c-3.87,1-8.63.9-12.8.41,0-.25-.07-.5-.1-.75,1.83-.05,3.66-.06,5.49-.1a61.87,61.87,0,0,1,7.32-.23A.34.34,0,0,1,69.12,405.19Z" style="opacity:0.1"></path><path d="M81.61,417.58v1.09a41.74,41.74,0,0,1-10.16,1.68.36.36,0,0,1-.1-.71C74.77,418.88,78.2,418.31,81.61,417.58Z" style="opacity:0.1"></path><path d="M75.63,421.15a15.53,15.53,0,0,0-3.41.64c-1.27.27-2.54.54-3.82.76-.27.05-.21.52.07.49,2.27-.21,5.28-.24,7.31-1.35A.29.29,0,0,0,75.63,421.15Z" style="opacity:0.1"></path><path d="M70.83,435a33.25,33.25,0,0,1-9.93.27c0-.31-.09-.61-.15-.92a65.22,65.22,0,0,1,10-.14C71.15,434.24,71.3,434.9,70.83,435Z" style="opacity:0.1"></path><path d="M81.5,438.1c0,.32,0,.63,0,.95a42.4,42.4,0,0,1-9.32,1.66.22.22,0,0,1-.06-.43C75.22,439.49,78.37,438.82,81.5,438.1Z" style="opacity:0.1"></path><path d="M81.47,441c0,.39,0,.77,0,1.16-1.59.31-3.2.55-4.77.84-2.72.5-5.45,1-8.2,1.26-.31,0-.35-.44-.07-.51,3-.78,6-1.32,9-1.91C78.77,441.59,80.12,441.28,81.47,441Z" style="opacity:0.1"></path><path d="M72,457.26a29.23,29.23,0,0,1-7.53-.06c0-.27-.08-.55-.13-.82a70.4,70.4,0,0,1,7.56.14C72.24,456.56,72.4,457.19,72,457.26Z" style="opacity:0.1"></path><path d="M74.66,459.31c-2.11-.23-4.38,0-6.51,0-.11,0-.14.17,0,.19a15.73,15.73,0,0,0,6.61.35C75,459.75,74.94,459.34,74.66,459.31Z" style="opacity:0.1"></path><path d="M95.34,420c0,.36-.1.73-.16,1.1q-.15,1-.3,2.1-.09.58-.18,1.2c-.63,4.19-1.36,8.78-2.12,13.36-.06.39-.12.76-.19,1.15-1.28,7.73-2.62,15.35-3.6,20.92-.08.39-.14.77-.21,1.14-.82,4.61-1.36,7.57-1.36,7.57H74.39s0-2.32.06-6.07c0-.22,0-.44,0-.67,0-3.05.08-6.93.15-11.22l0-.88q0-1.14,0-2.31c0-.28,0-.56,0-.84.09-5.3.2-11,.34-16.43,0-.26,0-.52,0-.77.33-12.92.8-24.15,1.45-24.58,1.56-1,18.2-.52,19.93,1.9C96.9,407.35,96.36,412.7,95.34,420Z" style="fill:#407BFF"></path><path d="M84.29,419.43a77.41,77.41,0,0,0,11,.56c0,.36-.1.73-.16,1.1a47.77,47.77,0,0,1-11-1.18C83.84,419.84,84,419.38,84.29,419.43Z" style="opacity:0.1"></path><path d="M95.44,408.25c-2.58,1.13-5.86,2.45-8.71,2.47s-5.83-2.53-8.21-4.08a.23.23,0,0,1,.24-.4c.73.33,1.51.76,2.31,1.18,3.9-.76,7.78-1.17,11.35.93.92-.28,1.83-.57,2.72-.81C95.56,407.43,95.85,408.07,95.44,408.25Z" style="opacity:0.1"></path><path d="M94.88,423.19q-.09.58-.18,1.2a47.27,47.27,0,0,1-9.53-1.33c-.28-.06-.22-.53.07-.5C88.44,422.88,91.67,423,94.88,423.19Z" style="opacity:0.1"></path><path d="M84.93,431.63A24.3,24.3,0,0,1,75,430.11c0-.26,0-.52,0-.77a78.57,78.57,0,0,0,9.91,1.44A.43.43,0,0,1,84.93,431.63Z" style="opacity:0.1"></path><path d="M92.58,437.75c-.06.39-.12.76-.19,1.15A42.94,42.94,0,0,1,81.62,437c-.23-.07-.13-.39.11-.36C85.35,437.12,89,437.41,92.58,437.75Z" style="opacity:0.1"></path><path d="M85.74,439.83c-2.38-.85-5-1.13-7.37-2-.33-.11-.55.41-.24.56,2.27,1.07,5,2.22,7.52,2.07A.34.34,0,0,0,85.74,439.83Z" style="opacity:0.1"></path><path d="M82.73,449.64a19.79,19.79,0,0,1-8.07-2.26c0-.28,0-.56,0-.84a49.92,49.92,0,0,0,8.17,2.23A.45.45,0,0,1,82.73,449.64Z" style="opacity:0.1"></path><path d="M87.08,452.52C83,453,78.6,452,74.61,450.57l0-.88c4.13,1.05,8.29,1.49,12.51,2.35C87.43,452.1,87.33,452.49,87.08,452.52Z" style="opacity:0.1"></path><path d="M88.79,459.82c-.08.39-.14.77-.21,1.14-2.91-.47-5.84-1.19-8.65-1.78-.3-.06-.23-.56.07-.52C82.85,459,85.87,459.3,88.79,459.82Z" style="opacity:0.1"></path><path d="M81,462.86a16.31,16.31,0,0,1-6.59-.4c0-.22,0-.44,0-.67a43.27,43.27,0,0,1,6.58.54A.28.28,0,0,1,81,462.86Z" style="opacity:0.1"></path><path d="M443.22,407.87c-.06.45-.13.91-.2,1.38-.12.85-.25,1.73-.38,2.62-.07.49-.15,1-.22,1.5-.78,5.24-1.7,11-2.65,16.7-.08.48-.15.95-.24,1.43-1.6,9.66-3.27,19.19-4.5,26.15-.09.49-.18,1-.25,1.42-1,5.77-1.71,9.46-1.71,9.46H417s0-2.9.08-7.59v-.83c.05-3.81.11-8.66.19-14l0-1.09c0-.95,0-1.92.05-2.89,0-.35,0-.7,0-1.05.11-6.63.25-13.75.42-20.53,0-.32,0-.65,0-1,.41-16.14,1-30.17,1.81-30.72,1.95-1.3,22.74-.65,24.91,2.39C445.16,392.08,444.5,398.76,443.22,407.87Z" style="fill:#407BFF"></path><path d="M429.41,407.17a97.11,97.11,0,0,0,13.81.7c-.06.45-.13.91-.2,1.38a60.33,60.33,0,0,1-13.77-1.48C428.85,407.68,429,407.11,429.41,407.17Z" style="opacity:0.1"></path><path d="M443.35,393.2c-3.23,1.41-7.33,3.06-10.89,3.09-3.73,0-7.29-3.17-10.25-5.1a.29.29,0,0,1,.29-.5c.91.41,1.89.94,2.89,1.47,4.87-.94,9.72-1.46,14.17,1.17,1.15-.35,2.29-.72,3.41-1C443.49,392.17,443.86,393,443.35,393.2Z" style="opacity:0.1"></path><path d="M442.64,411.87c-.07.49-.15,1-.22,1.5a59.76,59.76,0,0,1-11.91-1.66c-.35-.08-.27-.67.08-.63C434.6,411.48,438.63,411.61,442.64,411.87Z" style="opacity:0.1"></path><path d="M430.21,422.42a30.32,30.32,0,0,1-12.4-1.9c0-.32,0-.65,0-1a96.36,96.36,0,0,0,12.38,1.8A.54.54,0,0,1,430.21,422.42Z" style="opacity:0.1"></path><path d="M439.77,430.07c-.08.48-.15.95-.24,1.43a53.25,53.25,0,0,1-13.45-2.43.23.23,0,0,1,.13-.45C430.74,429.27,435.24,429.64,439.77,430.07Z" style="opacity:0.1"></path><path d="M431.22,432.67c-3-1.07-6.21-1.42-9.21-2.47-.41-.14-.69.51-.3.7,2.84,1.34,6.2,2.78,9.4,2.58A.41.41,0,0,0,431.22,432.67Z" style="opacity:0.1"></path><path d="M427.45,444.92a24.86,24.86,0,0,1-10.07-2.82c0-.35,0-.7,0-1.05a63.18,63.18,0,0,0,10.21,2.79A.55.55,0,0,1,427.45,444.92Z" style="opacity:0.1"></path><path d="M432.89,448.52c-5.08.55-10.59-.7-15.58-2.44l0-1.09c5.17,1.3,10.36,1.86,15.64,2.93C433.33,448,433.2,448.49,432.89,448.52Z" style="opacity:0.1"></path><path d="M435,457.65c-.09.49-.18,1-.25,1.42-3.65-.58-7.31-1.48-10.82-2.22-.37-.08-.29-.71.09-.65C427.61,456.66,431.39,457,435,457.65Z" style="opacity:0.1"></path><path d="M425.34,461.44c-2.54.55-5.5.09-8.22-.5v-.83a54.15,54.15,0,0,1,8.22.68A.34.34,0,0,1,425.34,461.44Z" style="opacity:0.1"></path><path d="M424.57,405.44l-.06,1.73c-.31,7.8-.72,16.22-1.14,24.23l-.09,1.69c0,.91-.1,1.82-.14,2.71q-.06.81-.09,1.62c-.95,17.14-1.87,31.11-1.87,31.11H405.61s-.86-7-2.05-17.21c0-.33-.08-.68-.11-1-1.2-10.21-2.7-23.33-4-35.59,0-.33-.07-.66-.11-1-.56-5.33-1.1-10.47-1.54-15.12,0-.38-.07-.76-.11-1.13-.1-1.06-.2-2.08-.29-3.08,0-.34-.06-.66-.09-1-.75-8.31-1.12-14.24-.81-15.39,1.3-4.77,23.06-5,27.72-3C425.35,375.46,425.2,388.9,424.57,405.44Z" style="fill:#407BFF"></path><path d="M424.57,405.44l-.06,1.73c-.31,7.8-.72,16.22-1.14,24.23l-.09,1.69c0,.91-.1,1.82-.14,2.71q-.06.81-.09,1.62c-.95,17.14-1.87,31.11-1.87,31.11H405.61s-.86-7-2.05-17.21c0-.33-.08-.68-.11-1-1.2-10.21-2.7-23.33-4-35.59,0-.33-.07-.66-.11-1-.56-5.33-1.1-10.47-1.54-15.12,0-.38-.07-.76-.11-1.13-.1-1.06-.2-2.08-.29-3.08,0-.34-.06-.66-.09-1-.75-8.31-1.12-14.24-.81-15.39,1.3-4.77,23.06-5,27.72-3C425.35,375.46,425.2,388.9,424.57,405.44Z" style="opacity:0.1"></path><path d="M422.29,377.38c-3.54,1.87-8,3.88-11.93,4.55-3.7.62-8-1.47-11.26-3.13-.37-.2-.1-.75.28-.66.81.19,1.63.43,2.45.7,2.47-.92,5.08-1.88,7.73-1.8a34.57,34.57,0,0,1,7.3,1.32c1.68-.64,3.36-1.3,5.07-1.84A.47.47,0,0,1,422.29,377.38Z" style="opacity:0.1"></path><path d="M411.42,395.4a77.56,77.56,0,0,1-14-1c0-.34-.06-.66-.09-1a79,79,0,0,1,14.23,1.18C412,394.68,411.86,395.37,411.42,395.4Z" style="opacity:0.1"></path><path d="M405,399.19a44.49,44.49,0,0,1-7.19-.59c0-.38-.07-.76-.11-1.13a45.76,45.76,0,0,1,7.41.94A.4.4,0,0,1,405,399.19Z" style="opacity:0.1"></path><path d="M424.57,405.44l-.06,1.73c-5.09.63-10.31.8-15.23.92-.32,0-.3-.44,0-.48C414.35,407,419.46,406.13,424.57,405.44Z" style="opacity:0.1"></path><path d="M414.86,414.42a43.54,43.54,0,0,1-15.42.29c0-.33-.07-.66-.11-1,2.21-.05,4.42,0,6.62,0,2.92,0,5.89-.39,8.79-.16C415.21,413.6,415.37,414.3,414.86,414.42Z" style="opacity:0.1"></path><path d="M423.37,431.4l-.09,1.69c-4.12-.08-8.38-.67-12.29-1a.29.29,0,0,1,0-.58C414.92,431.44,419.24,431.16,423.37,431.4Z" style="opacity:0.1"></path><path d="M423.14,435.8q-.06.81-.09,1.62a110.39,110.39,0,0,1-15.35-1.69c-.29,0-.21-.51.07-.51C412.75,435.34,418.05,435.28,423.14,435.8Z" style="opacity:0.1"></path><path d="M414,452c-3.33.39-7-.19-10.43-.71,0-.33-.08-.68-.11-1,3.56,0,7.34,0,10.65.94A.4.4,0,0,1,414,452Z" style="opacity:0.1"></path><path d="M417.9,454.26c-3.19.12-6.38.42-9.58.49a.36.36,0,0,0,0,.72,43.36,43.36,0,0,0,9.73-.13C418.67,455.25,418.52,454.23,417.9,454.26Z" style="opacity:0.1"></path><path d="M412.14,468.53h-11s-1.41-4-3.49-9.87c-.05-.15-.11-.3-.17-.46-.74-2.13-1.57-4.51-2.46-7-.11-.33-.23-.67-.35-1-2.36-6.75-5-14.45-7.42-21.42h0c-.11-.35-.23-.69-.34-1-.35-1-.69-2-1-3-.08-.22-.15-.43-.22-.64-2.87-8.52-5-15.17-5.08-16.28-.22-3.46,18.62-8.23,21.21-8,.64.05,1.56,4.09,2.6,10.17.05.32.11.65.16,1,1,6.1,2.14,14,3.2,22.05.07.52.14,1,.2,1.57.82,6.24,1.6,12.47,2.25,17.85,0,.37.09.74.13,1.09C411.43,462.25,412.14,468.53,412.14,468.53Z" style="fill:#407BFF"></path><path d="M401.11,401.11c-1.9,2.63-4.33,6.58-7.35,8s-7.92.13-11.15-.52c-.35-.07-.26-.61.08-.61,1,0,2.15.15,3.3.27a18.83,18.83,0,0,1,5.62-4.39,14.45,14.45,0,0,1,6.67-.66,33.26,33.26,0,0,1,2.27-2.53C400.82,400.4,401.35,400.77,401.11,401.11Z" style="opacity:0.1"></path><path d="M393.22,423.13c-2.41.63-4.86,1.08-7.29,1.57-.08-.22-.15-.43-.22-.64,2.43-.57,4.86-1.18,7.33-1.61C393.47,422.38,393.67,423,393.22,423.13Z" style="opacity:0.1"></path><path d="M397.19,426.15a58.74,58.74,0,0,1-9.9,2.59c-.11-.35-.23-.69-.34-1a59.7,59.7,0,0,1,10.11-2.43C397.6,425.22,397.61,426,397.19,426.15Z" style="opacity:0.1"></path><path d="M408,434.55c-2.58,1.15-5.27,2.14-7.81,3.1-.41.16-.68-.52-.3-.71,2.57-1.29,5.22-2.73,7.91-4C407.87,433.5,407.94,434,408,434.55Z" style="opacity:0.1"></path><path d="M405.6,437.7a30.09,30.09,0,0,0-7.78,3.51.25.25,0,0,0,.2.46,30.77,30.77,0,0,0,7.86-3.31A.36.36,0,0,0,405.6,437.7Z" style="opacity:0.1"></path><path d="M402.29,448.7a39.46,39.46,0,0,1-7.23,2.47c-.11-.33-.23-.67-.35-1A37.56,37.56,0,0,1,402,448C402.38,448,402.69,448.5,402.29,448.7Z" style="opacity:0.1"></path><path d="M410.38,453.49a58.21,58.21,0,0,1-10.72,1.83c-.21,0-.24-.31,0-.35,3.58-.75,7.1-1.66,10.63-2.57C410.29,452.77,410.34,453.14,410.38,453.49Z" style="opacity:0.1"></path><path d="M405.7,457.06q-4,.68-8,1.6c-.05-.15-.11-.3-.17-.46,2.66-.67,5.32-1.27,8-1.8C405.94,456.32,406.12,457,405.7,457.06Z" style="opacity:0.1"></path><path d="M404.6,410.93c-3.17,1.47-6.48,2.73-9.58,4.28-.2.1-.37-.2-.17-.3,3.14-1.6,6.31-3.48,9.59-5C404.49,410.26,404.55,410.59,404.6,410.93Z" style="opacity:0.1"></path><path d="M282.26,418c.2,1,.53,1.82-.45,2.26s-1-.12-1.63-.95a7,7,0,0,0-1.28-1.43c-2.18-1.62-4.92-.58-4.47,2.31.61,4,3.78,5.44,6.8,7.36,2.12,1.35,2.35,3.76,3.81,5.62a34.54,34.54,0,0,0,4,3.66,8.77,8.77,0,0,1,2.74,7.12,21.67,21.67,0,0,1-.53,3.77c-.2.89.09,1-.86.85s-1-.84-1.34-1.54c-.88-1.78-2.61-8.88-5.74-7.65a2.39,2.39,0,0,0-1.22,2.66,4,4,0,0,0,.89,1.7c.24.33.68.65.84,1,.7.61.38,1.12-1,1.52-.13-.15-.27-.29-.41-.43-1-.44-2.19-2.57-3-3.35a5,5,0,0,0-1.35-1.13,2.42,2.42,0,0,0-3,.67c-2.22,2.63.92,6.44,3,8a15.94,15.94,0,0,0,4.86,2.47c2.1.68,5.67.51,6.47,3,.66,2,.61,10.49.63,12.93h6.37c.57-5.12.37-16,.76-21.14.14-1.78.09-3.74.87-5.4a12.54,12.54,0,0,1,2.34-3.08,23.86,23.86,0,0,1,3-2.92,16.62,16.62,0,0,1,4.46-2.07c2.39-.91,3.95-3,6.45-3.74,2.31-.69,4.78-.68,7-1.54,1.24-.48,3.13-1.4,3.4-2.87a2.36,2.36,0,0,0-2.35-2.59c-2-.19-4.07,1.33-5.64,2.3-.89.55-1.77,1.12-2.7,1.61-.61.32-3.32,1.74-4.1,1.24-1.13-.7.38-2.54.83-3.05.31-.34.65-.65,1-1,1-.88,2-1.69,3-2.54,1.93-1.66,3.81-3.38,5.66-5.13,3.38-3.22,5.68-6.09,5.72-11,0-2.21.16-8.77-3.86-7.78-3.25.81-1.7,7-1.89,9.34-.3,3.36-2.55,4.14-4.91,5.94a16.34,16.34,0,0,0-3.66,4.07c-1.23,1.86-2.19,3.89-3.27,5.84a5.83,5.83,0,0,1-.67,1.15c-.29.89-1,1-2,.43,0-.22.05-.43.07-.63-.19-1.22.79-2.87,1.33-3.9,1.75-3.41,4.6-7,3-11.07-.66-1.62-3.86-4.78-4.92-1.84-.87,2.4.5,5.06-.24,7.5-.64,2.08-2.17,3.66-2.53,5.85-.24,1.48-.05,3-.49,4.44a12.13,12.13,0,0,1-1.9,3.43,41.54,41.54,0,0,1-2.72,3.33c-.37.41-.92,1.27-1.42,1.5-1.05.49-1.47-.54-1.87-1.41-2.14-4.69-.08-11.36,2.22-15.57,2.44-4.45,5.22-8.2,6-13.37a26.21,26.21,0,0,0,.06-7.76,5.43,5.43,0,0,0-1.68-3.76,2.71,2.71,0,0,0-3.29-.14c-1.12.88-1.11,2.47-1.1,3.76.05,4.89,1.79,10.61-1.29,14.83a17.21,17.21,0,0,1-.45-4.11,25.66,25.66,0,0,0,.19-3.5c-.14-1.4-1.18-2.85-2.74-2.56-1.28.24-1.68,1.55-1.83,2.67a44.86,44.86,0,0,0,.1,8.67c.18,2.79.41,5.59.34,8.38a28.6,28.6,0,0,1-.47,4.72c-.28,1.44-1,5.27-2.7,2.28-1.17-2.12-.57-5.17-.61-7.48a10.81,10.81,0,0,0-1.14-5.31c-1-1.8-2.92-2.82-4.32-4.29a12.94,12.94,0,0,1-3.4-7c-.32-2.2-.48-7.32-4.2-6.34-2.93.77-2.29,5.35-2,7.49.53,4.12,2.78,6.12,6,8.44C280,413.5,281.71,415.29,282.26,418Z" style="fill:#37474f;opacity:0.1"></path><path d="M282.26,418c.2,1,.53,1.82-.45,2.26s-1-.12-1.63-.95a7,7,0,0,0-1.28-1.43c-2.18-1.62-4.92-.58-4.47,2.31.61,4,3.78,5.44,6.8,7.36,2.12,1.35,2.35,3.76,3.81,5.62a34.54,34.54,0,0,0,4,3.66,8.77,8.77,0,0,1,2.74,7.12,21.67,21.67,0,0,1-.53,3.77c-.2.89.09,1-.86.85s-1-.84-1.34-1.54c-.88-1.78-2.61-8.88-5.74-7.65a2.39,2.39,0,0,0-1.22,2.66,4,4,0,0,0,.89,1.7c.24.33.68.65.84,1,.7.61.38,1.12-1,1.52-.13-.15-.27-.29-.41-.43-1-.44-2.19-2.57-3-3.35a5,5,0,0,0-1.35-1.13,2.42,2.42,0,0,0-3,.67c-2.22,2.63.92,6.44,3,8a15.94,15.94,0,0,0,4.86,2.47c2.1.68,5.67.51,6.47,3,.66,2,.61,10.49.63,12.93h6.37c.57-5.12.37-16,.76-21.14.14-1.78.09-3.74.87-5.4a12.54,12.54,0,0,1,2.34-3.08,23.86,23.86,0,0,1,3-2.92,16.62,16.62,0,0,1,4.46-2.07c2.39-.91,3.95-3,6.45-3.74,2.31-.69,4.78-.68,7-1.54,1.24-.48,3.13-1.4,3.4-2.87a2.36,2.36,0,0,0-2.35-2.59c-2-.19-4.07,1.33-5.64,2.3-.89.55-1.77,1.12-2.7,1.61-.61.32-3.32,1.74-4.1,1.24-1.13-.7.38-2.54.83-3.05.31-.34.65-.65,1-1,1-.88,2-1.69,3-2.54,1.93-1.66,3.81-3.38,5.66-5.13,3.38-3.22,5.68-6.09,5.72-11,0-2.21.16-8.77-3.86-7.78-3.25.81-1.7,7-1.89,9.34-.3,3.36-2.55,4.14-4.91,5.94a16.34,16.34,0,0,0-3.66,4.07c-1.23,1.86-2.19,3.89-3.27,5.84a5.83,5.83,0,0,1-.67,1.15c-.29.89-1,1-2,.43,0-.22.05-.43.07-.63-.19-1.22.79-2.87,1.33-3.9,1.75-3.41,4.6-7,3-11.07-.66-1.62-3.86-4.78-4.92-1.84-.87,2.4.5,5.06-.24,7.5-.64,2.08-2.17,3.66-2.53,5.85-.24,1.48-.05,3-.49,4.44a12.13,12.13,0,0,1-1.9,3.43,41.54,41.54,0,0,1-2.72,3.33c-.37.41-.92,1.27-1.42,1.5-1.05.49-1.47-.54-1.87-1.41-2.14-4.69-.08-11.36,2.22-15.57,2.44-4.45,5.22-8.2,6-13.37a26.21,26.21,0,0,0,.06-7.76,5.43,5.43,0,0,0-1.68-3.76,2.71,2.71,0,0,0-3.29-.14c-1.12.88-1.11,2.47-1.1,3.76.05,4.89,1.79,10.61-1.29,14.83a17.21,17.21,0,0,1-.45-4.11,25.66,25.66,0,0,0,.19-3.5c-.14-1.4-1.18-2.85-2.74-2.56-1.28.24-1.68,1.55-1.83,2.67a44.86,44.86,0,0,0,.1,8.67c.18,2.79.41,5.59.34,8.38a28.6,28.6,0,0,1-.47,4.72c-.28,1.44-1,5.27-2.7,2.28-1.17-2.12-.57-5.17-.61-7.48a10.81,10.81,0,0,0-1.14-5.31c-1-1.8-2.92-2.82-4.32-4.29a12.94,12.94,0,0,1-3.4-7c-.32-2.2-.48-7.32-4.2-6.34-2.93.77-2.29,5.35-2,7.49.53,4.12,2.78,6.12,6,8.44C280,413.5,281.71,415.29,282.26,418Z" style="fill:#37474f"></path></g><g id="freepik--character-1--inject-24"><path d="M285,65.76c-1.4-1.15-6.15-7.44-14.91-6.3-8.29,1.08-24.3,14-28.26,16.29s-8.49-1.46-13.19,1.13c-4.05,2.22-3,5.7-5.12,8.2-1.66,1.93-6.18,2.71-7.29,7-1,3.88,2.06,6.06,2.83,8.41s-2,6.94-.16,10.9,7.1,4,8.6,5.6-1.57,8.14,3.8,12.91,11.19,2.09,14.1,3.41,6.54,8.11,11.56,8,9-3.09,11.35-3.24,4.37,2.36,8.72.83,3.58-6.2,5.84-9.12c1.58-2,4.82-2,6.53-5.84,2.36-5.26-3-9.2-.73-14.78,1.76-4.38,12.49-20.21,8-31.55C293.61,69.76,285,65.76,285,65.76Z" style="fill:#263238"></path><path d="M242.76,75.16a6.34,6.34,0,0,1-3.06.28l-3.06-.3a19.52,19.52,0,0,0-6,0,6.15,6.15,0,0,0-4.41,3.26,9.33,9.33,0,0,0-.76,2.8,11.06,11.06,0,0,1-.75,3.15,5.24,5.24,0,0,1-2.64,2.12c-.95.45-1.88.83-2.77,1.29a7.31,7.31,0,0,0-3.93,4,4.18,4.18,0,0,0,0,2.75,7.77,7.77,0,0,0,1.53,2.5c.64.77,1.37,1.49,2.07,2.25a5.22,5.22,0,0,1,1.57,2.63,5.45,5.45,0,0,0-1.79-2.41c-.75-.69-1.55-1.34-2.28-2.09a8.1,8.1,0,0,1-1.8-2.63,5,5,0,0,1-.12-3.27c.56-2.2,2.47-3.73,4.29-4.68.93-.51,1.89-.92,2.78-1.36a4.3,4.3,0,0,0,2.09-1.64c.76-1.58.54-3.92,1.59-5.9a6.91,6.91,0,0,1,5.21-3.66,19.41,19.41,0,0,1,6.24.29l3,.55A6.84,6.84,0,0,0,242.76,75.16Z" style="fill:#263238"></path><path d="M296.28,92.43c-.92,3.58-2.62,6.88-4,10.29-.67,1.7-1.39,3.38-1.92,5.1a12,12,0,0,0-.56,2.56,1.94,1.94,0,0,0,0,.59,2.42,2.42,0,0,0,.11.58c.12.42.27.84.43,1.26a55,55,0,0,1,1.79,5.26,9.44,9.44,0,0,1-.14,5.71,5.72,5.72,0,0,1-1.69,2.4,7.29,7.29,0,0,1-2.55,1.28,12,12,0,0,0-4.91,2.31c1.19-1.45,3-2.17,4.71-2.85a6.87,6.87,0,0,0,2.27-1.3,5.05,5.05,0,0,0,1.32-2.14,9.18,9.18,0,0,0-.05-5.14,51.19,51.19,0,0,0-1.86-5.13c-.15-.44-.3-.89-.42-1.36a3.85,3.85,0,0,1-.12-1.55,13.39,13.39,0,0,1,.65-2.81,43.69,43.69,0,0,1,2.12-5.14l2.43-4.95A46,46,0,0,0,296.28,92.43Z" style="fill:#263238"></path><path d="M270.44,138.47a9.51,9.51,0,0,0-3.49,1.69c-1.12.69-2.25,1.38-3.41,2a19.47,19.47,0,0,1-3.7,1.62,8.68,8.68,0,0,1-4.16.35c-2.89-.71-4.81-3-6.24-5.17-.73-1.11-1.39-2.25-2.12-3.33a8.25,8.25,0,0,0-2.68-2.77,7.68,7.68,0,0,1,3.14,2.43c.84,1,1.59,2.12,2.39,3.14,1.56,2,3.41,4,5.75,4.55a7.72,7.72,0,0,0,3.61-.27,24,24,0,0,0,3.61-1.36c1.19-.52,2.35-1.13,3.53-1.71.6-.28,1.21-.56,1.82-.81A3.88,3.88,0,0,1,270.44,138.47Z" style="fill:#263238"></path><path d="M264.78,134.16c5.07,28.76,11,47.35,18.27,52.34,6.35,4.38,24.95,14.7,30.12,15.06,4.27.31,12-26.45,8.08-28.77s-17.11-6.32-22.21-9.42c-2.89-1.76-18.71-28-23.18-34.55C270.49,121,262.56,121.57,264.78,134.16Z" style="fill:#ad6359"></path><path d="M334.91,204.11c-2,.22-1.9,1.27,1.13,3.17s16.66,6.83,14.54,11.44-21.25-2.63-26.06-6.18-11.35-11-11.35-11C317.17,202.23,327,202.91,334.91,204.11Z" style="fill:#ad6359"></path><path d="M321.25,172.79c11.21,2.28,25.31,4.44,34.9,13.07a6.38,6.38,0,0,1,2.12,3.61c4.37,3.8,3.89,7,3.89,7,3,4.78,2,8,2,8s5.08,4.51,2.86,8c-2.47,4-9.12-3.15-15.17-4.82-13.86-3.83-34.63-5.4-38.73-6.11Z" style="fill:#ad6359"></path><path d="M340.2,193.45a93.15,93.15,0,0,1,11.94,4,91.71,91.71,0,0,1,11.91,7,.11.11,0,0,0,.13-.18,48.88,48.88,0,0,0-23.93-11.05C340.05,193.23,340,193.39,340.2,193.45Z" style="fill:#263238"></path><path d="M341.29,184.75c3.88,1.39,10.69,3.89,20.78,11.83a0,0,0,0,0,.06-.06,43.88,43.88,0,0,0-20.77-12C341.11,184.5,341,184.66,341.29,184.75Z" style="fill:#263238"></path><path d="M342,180.09c6.51,2.62,10.28,5.1,16.26,9.39,0,0,.08,0,0-.06-6.28-5.59-9.19-6.91-16.25-9.57C341.79,179.76,341.72,180,342,180.09Z" style="fill:#263238"></path><path d="M264.77,134.16c1.39,7.88,2.85,15,4.38,21.29l13.79-15.6c-3-4.74-5.63-8.92-7.08-11C270.5,121,262.56,121.58,264.77,134.16Z" style="opacity:0.1"></path><path d="M213.69,162.07l42.49,37.13c9.55-14.66,18.37-29.84,18.51-66.59.05-12.65-14.88-17.16-23.08-9.45C236,137.79,213.69,162.07,213.69,162.07Z" style="fill:#ad6359"></path><path d="M256.18,199.2l-42.49-37.14s22.35-24.26,37.92-38.9a13.87,13.87,0,0,1,8.17-3.71c1.41,6.62,5.47,24.13,8.92,23.44s4.52-11.79,4.8-16a13.7,13.7,0,0,1,1.2,5.77C274.56,169.36,265.73,184.53,256.18,199.2Z" style="fill:#407BFF"></path><path d="M273.37,154.4c-15.87,4-22.67,0-35.43-10.15-1.41-1.07-2.84-2.17-4.31-3.24l.78-.8c1.36,1.13,2.69,2.27,4.06,3.37,12.57,10.43,19.62,12.79,35.21,8.21C273.59,152.68,273.49,153.55,273.37,154.4Z" style="fill:#fff"></path><path d="M258.14,196.14c-.29.47-.6.94-.9,1.4a26.35,26.35,0,0,1-5.22-2h0l-3.57-3.13A26.32,26.32,0,0,0,258.14,196.14Z" style="fill:#fff"></path><path d="M263.85,135.05c.28.87.59,1.7.89,2.48-7.63,2.52-14.29,3.5-22.54-.05a25.77,25.77,0,0,1-3.38-1.76l1.75-1.77a28.08,28.08,0,0,0,10.57,3C255.43,137.35,259.63,136.31,263.85,135.05Z" style="fill:#fff"></path><path d="M274.68,134.29c-.68.16-1.4.34-2.13.55.15-.8.27-1.61.39-2.39.58-.13,1.16-.25,1.74-.35,0,.17,0,.35,0,.52C274.69,133.18,274.69,133.73,274.68,134.29Z" style="fill:#fff"></path><path d="M265.77,182.34c-.27.61-.56,1.21-.84,1.8-4.27-2.35-7.51-6.07-11-9.34-10.46-10-16.31-12.44-30.21-7.19q-1.32.49-2.58.93l-2.31-2c4.19-1.24,8.39-2.74,12.66-3.33C246.24,161,253.75,177,265.77,182.34Z" style="fill:#fff"></path><path d="M270.19,170.22c-.23.82-.47,1.63-.73,2.42A19.75,19.75,0,0,1,262,172c-5.78-2-9.64-6.66-13.92-10.62-9.22-8.8-14.85-11.75-25.6-8.72l2.65-2.8.52-.08c15.84-2.39,23.35,16.12,37,20.13a10.91,10.91,0,0,0,2,.36A24.22,24.22,0,0,0,270.19,170.22Z" style="fill:#fff"></path><path d="M261.73,127.77a17.24,17.24,0,0,1-2.07-.49,23.36,23.36,0,0,1-7.52-4.59,13.55,13.55,0,0,1,1.22-.93,24.6,24.6,0,0,0,6.93,3.42q.4.12.84.21C261.32,126.16,261.52,127,261.73,127.77Z" style="fill:#fff"></path><path d="M260.21,121.74c-.08,1.38,3.56,11.53,9.5,13,1.94.47,5-10,5-10l.4-.72L280.76,114,269,100.41S260.26,121.16,260.21,121.74Z" style="fill:#ad6359"></path><path d="M280.76,114,275.12,124l-.4.72s-.56,1.89-1.35,4c-7.63-3.57-9.5-10.66-9.86-15.28,2.49-6,5.48-13.1,5.48-13.1Z" style="fill:#263238"></path><path d="M304,92.94c5.12,26.1-9.94,32.11-15.57,33.21-5.11,1-22.64,3.74-30.42-21.7s2.73-36.06,14.3-39S298.9,66.84,304,92.94Z" style="fill:#ad6359"></path><path d="M299.9,92.85a16.3,16.3,0,0,1-1.84-.15,3,3,0,0,1-1.83-.52.92.92,0,0,1-.14-1.14,2.33,2.33,0,0,1,2.23-.83,3.42,3.42,0,0,1,2.29.94A1,1,0,0,1,299.9,92.85Z" style="fill:#263238"></path><path d="M282.07,95.93a17.87,17.87,0,0,0,1.74-.6,2.93,2.93,0,0,0,1.65-.94,1,1,0,0,0-.14-1.15A2.36,2.36,0,0,0,283,93a3.41,3.41,0,0,0-2,1.48A1,1,0,0,0,282.07,95.93Z" style="fill:#263238"></path><path d="M285,99c-2.91.21-2.28,6,.42,5.83S287.4,98.82,285,99Z" style="fill:#263238"></path><path d="M283.85,99.42c-.48.38-.91,1-1.52,1.15s-1.3-.41-1.82-.94c-.06-.06-.1,0-.1.07.11,1.12.66,2.22,1.87,2.25s1.78-1,1.94-2.18C284.25,99.55,284,99.27,283.85,99.42Z" style="fill:#263238"></path><path d="M297.87,97c2.88-.51,3.69,5.28,1,5.76S295.46,97.38,297.87,97Z" style="fill:#263238"></path><path d="M299.13,97.16c.5.25,1,.74,1.59.7s1-.74,1.34-1.39c0-.07.08,0,.09,0,.19,1.1,0,2.3-1,2.66s-1.79-.52-2.2-1.58C298.82,97.4,298.93,97.07,299.13,97.16Z" style="fill:#263238"></path><path d="M287.64,114.76c.46.39.93.95,1.59,1a4.65,4.65,0,0,0,1.91-.57c.06,0,.12,0,.09.08a2.44,2.44,0,0,1-2.23,1.13,1.93,1.93,0,0,1-1.53-1.51C287.44,114.75,287.58,114.7,287.64,114.76Z" style="fill:#263238"></path><path d="M294.38,107.35s.69,2.64.85,3.91c0,.12-.29.21-.72.29,0,0,0,0-.05,0a6.09,6.09,0,0,1-6.12-1.55c-.1-.11.05-.26.17-.2a9.15,9.15,0,0,0,5.69.92c.05-.36-1.34-4.54-1.14-4.53.86,0,2.39.24,3,.31-.42-1.73-1.83-6.57-2.57-9.71-.05-.2.25-.3.32-.12a84.5,84.5,0,0,1,3.67,10.76C297.52,107.73,294.91,107.51,294.38,107.35Z" style="fill:#263238"></path><path d="M294.29,110.59a7.35,7.35,0,0,1-2.35,2.93,3.35,3.35,0,0,1-1.95.59c-1.51,0-1.86-1.33-1.87-2.52a8.55,8.55,0,0,1,.23-1.87A9.59,9.59,0,0,0,294.29,110.59Z" style="fill:#263238"></path><path d="M291.94,113.52a3.35,3.35,0,0,1-1.95.59c-1.51,0-1.86-1.33-1.87-2.52C289.69,111.38,291.45,112.06,291.94,113.52Z" style="fill:#ff9cbd"></path><path d="M259.15,107.78c5.61-3.14,5.43-9.42,5.43-9.42a28,28,0,0,0,10.86-10.18c-.14.57-1.14,4.67-1.71,6.74,16.44-4.12,20.69-17.55,20.69-17.55,5.79,5.26,7.11,8.76,8,10.49,0,0-.6-10.54-6.34-17.31-7-8.29-15.68-6.17-15.68-6.17a22.85,22.85,0,0,0-22.49,8.55C247.93,85.68,259.15,107.78,259.15,107.78Z" style="fill:#263238"></path><path d="M286.2,91.38a29.51,29.51,0,0,1-8.32,3.7s0,0,0,0a25.43,25.43,0,0,0,11.7-8.29,24.67,24.67,0,0,0,3.24-5.38,17.76,17.76,0,0,0,1.77-6.67.13.13,0,1,1,.25,0,21.24,21.24,0,0,1-.85,6.84,18.58,18.58,0,0,1-3.31,5.89,20.7,20.7,0,0,1-4.47,3.94Z" style="fill:#263238"></path><path d="M290.8,119.46c-3.16.12-5.67-3-5.84-5-.21-2.57,1.25-4.6,4.58-4.53a15.6,15.6,0,0,0,3-.23c2.62-.43,3-1.12,4.84.31S298.1,119.19,290.8,119.46Z" style="fill:#407BFF"></path><path d="M306.07,115.26l-13.33,2c-.82.12-1.69-1.14-1.94-2.82s.22-3.14,1-3.26l13.34-2c2.52-.37,6.51-5.5,5.58-11.82l-7.37-49.85,6.08-.9,7.37,49.86C318.24,105.94,312.21,114.35,306.07,115.26Z" style="fill:#407BFF"></path><path d="M306.07,115.26l-13.33,2c-.82.12-1.69-1.14-1.94-2.82s.22-3.14,1-3.26l13.34-2c2.52-.37,6.51-5.5,5.58-11.82l-7.37-49.85,6.08-.9,7.37,49.86C318.24,105.94,312.21,114.35,306.07,115.26Z" style="opacity:0.30000000000000004"></path><rect x="303.48" y="53.1" width="8.04" height="2.51" rx="0.61" transform="translate(-4.64 45.58) rotate(-8.41)" style="fill:#407BFF"></rect><rect x="303.95" y="56.25" width="8.04" height="2.51" rx="0.61" transform="translate(-5.1 45.69) rotate(-8.41)" style="fill:#407BFF"></rect><rect x="307.79" y="82.21" width="8.04" height="2.51" rx="0.61" transform="translate(-8.86 46.53) rotate(-8.42)" style="fill:#407BFF"></rect><path d="M269.51,97.54s-10.28,0-13.88,2.23c-1.48.89.21,5.38,1.14,6.3.58.58,2.14.17,12.11.49C268.88,106.56,267.93,101.2,269.51,97.54Z" style="fill:#407BFF"></path><path d="M306.31,106a7.57,7.57,0,0,1-.73.92c-1.07,1.14-2.45,1.65-4.76,1-1.51-.42-2.66-1.93-5.14-1.71a8.38,8.38,0,0,0-4.3,1.47A24.91,24.91,0,0,0,289,109.5l-.57.48a4.63,4.63,0,0,1-.56.43,6.51,6.51,0,0,1-.93.55c-3.71,1.89-9.79,1.84-12.09.06-2.1-1.63-3.63-6.28-3.28-10.74a13.22,13.22,0,0,1,.5-2.82,10.8,10.8,0,0,1,1.1-2.59l.27-.43a6.53,6.53,0,0,1,.89-1c2.27-2.24,6.58-4,11.24-5l1.43-.28c1-.19,2.09-.34,3.12-.45,1.2-.13,2.39-.21,3.54-.22,4.08-.07,7.65.58,9.49,2.13a9.82,9.82,0,0,1,2.79,4.36,18.22,18.22,0,0,1,.68,2.46,23,23,0,0,1,.21,8.07A4.71,4.71,0,0,1,306.31,106Z" style="fill:#fff;opacity:0.2"></path><g style="opacity:0.2"><path d="M306.31,106a7.57,7.57,0,0,1-.73.92l-9.45-5a1.36,1.36,0,0,1,1-2.52,1.25,1.25,0,0,1,.27.1l9.41,5A4.71,4.71,0,0,1,306.31,106Z" style="fill:#fff"></path><path d="M291.38,107.67A24.91,24.91,0,0,0,289,109.5l-17.43-9.22a13.22,13.22,0,0,1,.5-2.82Z" style="fill:#fff"></path><path d="M286,100.61a.92.92,0,0,1-1.06.46.67.67,0,0,1-.18-.07l-11.61-6.13.27-.43a6.53,6.53,0,0,1,.89-1l11.31,6A.92.92,0,0,1,286,100.61Z" style="fill:#fff"></path><path d="M306.61,96.39l-16.5-8.73c1.2-.13,2.39-.21,3.54-.22l12.28,6.49A18.22,18.22,0,0,1,306.61,96.39Z" style="fill:#fff"></path><path d="M303.33,97.27a.46.46,0,0,1-.53.22l-.1,0-17.14-9.07,1.43-.28,16.15,8.54A.46.46,0,0,1,303.33,97.27Z" style="fill:#fff"></path><path d="M287.86,110.41a6.51,6.51,0,0,1-.93.55l-8.85-4.68a.46.46,0,0,1,.34-.84.16.16,0,0,1,.09,0Z" style="fill:#fff"></path></g><path d="M277.26,112.77a6.9,6.9,0,0,1-2.73-1.42c-3.19-2.88-5.27-11.55-1.48-17.16h0c2.55-3.78,10-6,15.63-6.82,5.21-.73,11.82-.62,14.76,1.85,4.86,4.08,4.67,13.9,3.29,17-.94,2.08-3.31,2.94-6,2.19a8.26,8.26,0,0,1-1.65-.72,6.43,6.43,0,0,0-3.35-1c-2.31.06-3.6,1-7,3.68A13.81,13.81,0,0,1,277.26,112.77ZM273.81,94.7c-3.42,5.07-1.64,13.29,1.34,16,2.73,2.46,9.28,1.93,13-1,3.28-2.63,4.85-3.8,7.54-3.88a7.28,7.28,0,0,1,3.81,1.08,7.12,7.12,0,0,0,1.46.65c1.8.5,4.05.32,5-1.68,1.25-2.78,1.41-12.12-3-15.87-2.27-1.9-7.65-2.53-14-1.64-7.15,1-13,3.52-15,6.42Z" style="fill:#407BFF"></path><path d="M289.52,87.26l-.84.12a40.63,40.63,0,0,0-9,2.28c-2.88,1.13-5.4,2.63-6.66,4.53-3.8,5.61-1.71,14.29,1.49,17.16a6.48,6.48,0,0,0,2.72,1.41,8.75,8.75,0,0,0,2.26.35,12.76,12.76,0,0,1-5.94-.07,6.46,6.46,0,0,1-2.73-1.41c-3.2-2.87-5.29-11.55-1.5-17.16,1.29-1.9,3.78-3.4,6.67-4.53a40.49,40.49,0,0,1,9-2.28A43.59,43.59,0,0,1,289.52,87.26Z" style="fill:#407BFF"></path><path d="M289.52,87.26l-.84.12a40.63,40.63,0,0,0-9,2.28c-2.88,1.13-5.4,2.63-6.66,4.53-3.8,5.61-1.71,14.29,1.49,17.16a6.48,6.48,0,0,0,2.72,1.41,8.75,8.75,0,0,0,2.26.35,12.76,12.76,0,0,1-5.94-.07,6.46,6.46,0,0,1-2.73-1.41c-3.2-2.87-5.29-11.55-1.5-17.16,1.29-1.9,3.78-3.4,6.67-4.53a40.49,40.49,0,0,1,9-2.28A43.59,43.59,0,0,1,289.52,87.26Z" style="opacity:0.1"></path><path d="M262.56,105.64s-6.66-7.63-10.18-5.17,2.1,14,6.67,15.12a4.49,4.49,0,0,0,5.73-3Z" style="fill:#ad6359"></path><path d="M254.07,103.72c-.07,0-.07.11,0,.12,3.22.92,5.15,3.61,6.6,6.45-1-1-2.35-1.53-3.77-.28-.07.07,0,.18.11.16a2.76,2.76,0,0,1,3.13.63,13,13,0,0,1,1.71,2.3c.17.26.66.05.52-.25l0-.07C262,108.84,258.33,103.67,254.07,103.72Z" style="fill:#263238"></path><path d="M258.13,120.67c-5.67-3.51-22.81,17.34-18.31,21.72C246.51,148.88,263.88,124.22,258.13,120.67Z" style="fill:#ad6359"></path><path d="M253.66,130.76c-24.82,15.61-42.5,20.94-49.45,20.79-7.71-.16-22.9-4.13-32.32-8.48-3.89-1.8,9.84-31.56,14.07-29.78s19.16,9.24,23.47,9.77c3.35.42,32.31-4.37,39.11-5C258,117.1,264.48,124,253.66,130.76Z" style="fill:#ad6359"></path><path d="M152,129.48c1.51,1.62.67,2.43-3.23,1.81s-18.8-6.35-20.36-1S148,143.47,154.52,144s17.37-.92,17.37-.92C168.08,140.73,159.38,134.17,152,129.48Z" style="fill:#ad6359"></path><path d="M186,113.29c-11-6.21-24.26-14.6-38.49-14.35a7,7,0,0,0-4.37,1.48c-6.37,0-8.29,3-8.29,3-5.94,1.81-7.47,5.16-7.47,5.16s-7.49.08-8.19,4.62c-.8,5.08,9.87,4,16.11,7,14.29,6.83,32.71,20.53,36.63,22.91Z" style="fill:#ad6359"></path><path d="M155.27,116.78a102.64,102.64,0,0,0-12.86-5.26,102.64,102.64,0,0,0-15-2.79.13.13,0,0,1,0-.25,53.94,53.94,0,0,1,27.89,8.11C155.55,116.71,155.48,116.88,155.27,116.78Z" style="fill:#263238"></path><path d="M160.64,108.75c-4.23-1.64-11.7-4.48-25.83-5.17a0,0,0,0,1,0-.09,48.38,48.38,0,0,1,25.92,5.06C161,108.68,160.92,108.86,160.64,108.75Z" style="fill:#263238"></path><path d="M163.45,104.39c-7.31-2.53-12.24-3.19-20.32-3.94,0,0,0-.08,0-.08,9.27-.12,12.65.89,20.44,3.78C163.84,104.25,163.74,104.48,163.45,104.39Z" style="fill:#263238"></path><path d="M224.28,146.24c6.66-3.71,16.61-8.46,23.53-11.9a98,98,0,0,1-23.53,11.9Z" style="fill:#263238"></path><path d="M246.7,136.13a6.44,6.44,0,0,1-4.83,1.88c1.65-.53,3.2-1.27,4.83-1.88Z" style="fill:#263238"></path><path d="M151.19,222.19s-31.86,3.76-31.89,3.75c-8-2.37-15-4.31-18.75-5h-.06a6,6,0,0,0-2.64-.15l-.07,0c-2.31,1.89-23.14,65.12-23.12,67.57s7,2.6,9.77.79S106,266.75,106,266.75l43.85-4.95Z" style="fill:#ad6359"></path><path d="M151.19,222.19s-31.86,3.76-31.89,3.75c-8-2.37-15-4.31-18.75-5h-.06a6,6,0,0,0-2.64-.15l-.07,0c-2.31,1.89-23.14,65.12-23.12,67.57s7,2.6,9.77.79S106,266.75,106,266.75l43.85-4.95Z" style="fill:#263238"></path><path d="M106,266.75l11.29-41.41s-17.06-5.76-19.77-4.91-31.25,69.46-30.92,87.14c0,1,16.91-4.48,22.06-2.95,3.85,1.14,10.79,5.38,11.9,5C101.5,309.35,100.18,285,106,266.75Z" style="fill:#263238"></path><path d="M88.55,304.59l.09,0c2.83.84,7.3,3.33,9.93,4.48.4-5.72,4.11-33.85,1.58-34.34C96.86,274.11,90.09,296.82,88.55,304.59Z" style="fill:#37474f"></path><path d="M69.36,307.32c4-.83,11.47-2.78,16.26-3,1.18-7.54,7.67-31.05,3.33-32.24S72,298.77,69.36,307.32Z" style="fill:#37474f"></path><path d="M117.28,225.34,106,266.75s-7.16,1.08-8.39.39S94.22,258,94.22,258l15.65-34.86A15.2,15.2,0,0,1,117.28,225.34Z" style="fill:#37474f"></path><path d="M130.5,224.6l2.8,39s63.36-6.71,79.23-14.09c20.45-9.52,44.35-51.28,44.35-51.28L227.8,173.86S195,211.41,187.44,213.28C181.94,214.63,130.5,224.6,130.5,224.6Z" style="fill:#ad6359"></path><g style="opacity:0.1"><path d="M130.5,224.6l2.8,39s63.36-6.71,79.23-14.09c20.45-9.52,44.35-51.28,44.35-51.28L227.8,173.86S195,211.41,187.44,213.28C181.94,214.63,130.5,224.6,130.5,224.6Z"></path></g><path d="M148.23,210.83s-23.93-20.22-23.94-20.25c-3.92-7.35-7.48-13.73-9.63-16.85,0,0,0,0,0,0-.81-1.18-1.42-1.89-1.75-2l-.07,0c-3-.31-62.63,29.24-64.36,31s3.06,6.81,6.29,7.51,31.14-.41,31.14-.41l34.3,27.76Z" style="fill:#263238"></path><path d="M85.88,209.74l37.41-21s-7.87-16.2-10.38-17.53-71.4,26.5-83.76,39.14c-.73.75,15.06,8.91,17.58,13.64,1.89,3.55,3.75,11.47,4.77,12S68.81,218.41,85.88,209.74Z" style="fill:#263238"></path><path d="M46.69,223.88a.59.59,0,0,1,0,.08c1.39,2.61,2.75,7.54,3.79,10.22,4.35-3.73,27-20.84,25.56-23C74.23,208.4,53.3,219.52,46.69,223.88Z" style="fill:#37474f"></path><path d="M31.27,212.14c3.4,2.27,10,6.21,13.52,9.5,6.2-4.46,27.5-16.34,25.3-20.26S39.23,208,31.27,212.14Z" style="fill:#37474f"></path><path d="M123.29,188.72l-37.41,21s-5.8-4.34-6.17-5.7,4.16-8.85,4.16-8.85l35.82-13.32A15,15,0,0,1,123.29,188.72Z" style="fill:#37474f"></path><path d="M256.88,198.18s-25.7,21.49-32.13,22.32c-.56.07-8.78-1.31-12.15-3.27,0,0-15.5,32.72-30.21,42.83-7.88,5.42-28.35,3.85-37.51-2.86-14-10.25-41.13-33-41.13-33l27.46-27.73,28.39,23.2c12.55-20.81,11.48-14.26,19.53-27.49,1.12-1.83,3.34-9.85,9.68-15.65,7.92-7.23,13.91-10.62,24.88-14.47Z" style="fill:#ad6359"></path><path d="M189.76,175.69s24.09,16.21,22.84,41.54a33.3,33.3,0,0,0,13.45,4.07s12.33-2,21.55-9c0,0,6.47-7.48,9.28-14.12l-43.19-36.11A37.74,37.74,0,0,0,189.76,175.69Z" style="fill:#407BFF"></path><path d="M254,203.56c-.32.51-.65,1-1,1.49-4.19-2.2-8.17-4.8-12.58-6.35-9.64-3.6-18.8-2.26-28.5.37-.87.24-1.72.45-2.55.66-.32-.76-.65-1.49-1-2.21.95-.25,1.92-.53,2.93-.83,3.19-.88,6.43-1.81,9.79-2.4a36.53,36.53,0,0,1,20.25,2C246,198.15,249.91,201,254,203.56Z" style="fill:#fff"></path><path d="M255.49,197c-5.2-1.78-10.05-5.3-16.35-10.34-5.43-4.13-11.19-8.66-18-10-9-1.53-17.76,1.69-26.67,2.78-.5-.45-1-.86-1.42-1.24,3.22-.59,6.42-1.45,9.63-2.24,6.57-1.62,13.45-3,20.18-1.15,6.64,2.06,11.53,6.94,16.77,11.14,4.83,4,8.85,6.83,12.85,8.52Z" style="fill:#fff"></path><path d="M221.33,168.45c-8.11,2.81-15,4.07-23.66.35l-.37-.16c.89-.64,1.78-1.22,2.66-1.73a26,26,0,0,0,6.64,1.35c4.17.38,8.26-.58,12.37-1.79Z" style="fill:#fff"></path><path d="M249.39,210.12c-.39.48-.72.9-1,1.23-4.31-.94-9.07-.17-15.63,2.3-7.19,2.64-13.28,4.37-20.14,3,0-.94,0-1.86,0-2.77a23.63,23.63,0,0,0,3.07.4c8.37.76,16.46-3.92,24.84-5.07A17.63,17.63,0,0,1,249.39,210.12Z" style="fill:#fff"></path></g><g id="freepik--character-2--inject-24"><path d="M243.55,297.13c-14.2,23.66-26.74,35-33.14,36.05-9.22,1.47-34.83,2.51-49.19-1.67-4.67-1.37,1.6-30.6,6.74-29.79,10.16,1.62,37,2.82,38.28,2.24,4.9-2.2,15.37-11.45,24.85-18.8C246,273.57,251.89,283.25,243.55,297.13Z" style="fill:#f7a9a0"></path><path d="M168.14,333.33a96.34,96.34,0,0,1-13.68-.28c-3.54-.5-13.71-2.22-13.55-6.18.11-2.7,6.21-2.39,10.53-2.27,2.27.06,5.53-.88,5.52-2.37,0-2.59-5.92-2.65-10-2.23-7.91.83-19.21,3.63-21.61-1.27-.91-1.86,1.76-3.29,5.18-4.33-5.11.7-10.29.84-11.38-1.18-.63-1.15-.22-2.16.82-3.06a3.07,3.07,0,0,1-2.87-1.87c-.68-1.94.85-3.66,3.19-5.07a1.72,1.72,0,0,1-.83-1.31c-.86-5.42,18.3-11.26,23.56-10.25,15.49,3,29.83,10.87,29.83,10.87C176.36,309.4,168.16,333.33,168.14,333.33Z" style="fill:#f7a9a0"></path><path d="M153.36,311.2a26.1,26.1,0,0,0-11-.61c-4.6.75-8.18,2.43-12.4,3.85a.09.09,0,0,0,.06.18c2-.68,10.1-3,12.12-3.4a24.74,24.74,0,0,1,11.16,0S153.4,311.21,153.36,311.2Z" style="fill:#263238"></path><path d="M153.42,304.09A61.4,61.4,0,0,0,140.88,303c-4.6.22-8.91,2-13.13,3.7-2.53,1-5,2.09-7.53,3.22-.1.05,0,.22.06.17,4.3-1.77,8.66-3.42,13.06-4.92a32.7,32.7,0,0,1,12.71-1.79c2.47.14,4.91.48,7.36.81A0,0,0,1,0,153.42,304.09Z" style="fill:#263238"></path><path d="M151.83,297.13c-3.9-.87-7.3-1.65-11.32-1.15-5.33.65-11.3,3.1-13.4,4-2.32,1-4.6,2-6.87,3.09-.09,0,0,.21.08.17a128,128,0,0,1,15.75-5.89A25.68,25.68,0,0,1,144,296.1a46.64,46.64,0,0,1,7.88,1.06S151.85,297.14,151.83,297.13Z" style="fill:#263238"></path><path d="M243.54,297.13c-3.34,5.58-6.6,10.47-9.7,14.71l-7.12-23.22c1.47-1.18,2.92-2.35,4.37-3.47C246,273.57,251.88,283.25,243.54,297.13Z" style="opacity:0.1"></path><path d="M288.76,269.65l20.44,52.6c-17,4-54.76,2.93-79.22-24.08-7.13-7.88-1.77-16.75,6.36-19.9C258.39,269.72,288.76,269.65,288.76,269.65Z" style="fill:#f7a9a0"></path><path d="M237.48,281.64c.46,1.28-.13,12-5.37,15.05-1.7,1-7.59-8.08-7.59-8.08l-.58-.57-8.22-8,7.37-16.23S237.27,281.1,237.48,281.64Z" style="fill:#f7a9a0"></path><path d="M215.72,280.05l8.22,8,.59.58s1.06,1.64,2.42,3.45c6.25-5.56,6-12.84,5.06-17.33-4.07-5-8.92-10.92-8.92-10.92Z" style="fill:#263238"></path><path d="M185.76,269.85c6.94,25.48,23,24.2,28.48,22.7,5-1.36,21.79-6.64,17.53-32.7s-18.31-30.9-29.88-28.38S178.83,244.36,185.76,269.85Z" style="fill:#f7a9a0"></path><path d="M192.43,270.81c-2.79.89-.8,6.41,1.79,5.58S194.76,270.06,192.43,270.81Z" style="fill:#263238"></path><path d="M205.34,266.76c2.75-1,4.55,4.58,2,5.51S203,267.6,205.34,266.76Z" style="fill:#263238"></path><path d="M189.39,268c.56-.28,1-.62,1.56-.95s1.11-.6,1.41-1.26a1,1,0,0,0-.38-1.09,2.33,2.33,0,0,0-2.35.25,3.48,3.48,0,0,0-1.63,1.85A1,1,0,0,0,189.39,268Z" style="fill:#263238"></path><path d="M206.61,262.85a15.71,15.71,0,0,1-1.81.23,3,3,0,0,1-1.89-.11.92.92,0,0,1-.37-1.08,2.34,2.34,0,0,1,2-1.28,3.44,3.44,0,0,1,2.43.44A1,1,0,0,1,206.61,262.85Z" style="fill:#263238"></path><path d="M210.22,282.08c-.24.55-.41,1.25-1,1.56a4.82,4.82,0,0,1-2,.33c-.06,0-.09.08,0,.11a2.42,2.42,0,0,0,2.49,0,1.93,1.93,0,0,0,.69-2C210.39,282,210.25,282,210.22,282.08Z" style="fill:#263238"></path><path d="M200.68,278.43s.55,2.66,1,3.86c0,.11.35.06.76-.06a.06.06,0,0,0,.05,0,6,6,0,0,0,4.76-4.07.13.13,0,0,0-.23-.1,9.09,9.09,0,0,1-4.66,3.32c-.21-.3-.8-4.63-1-4.53-.75.42-2,1.26-2.49,1.57-.4-1.71-1.27-6.64-2-9.77-.05-.2-.36-.15-.34,0a84.28,84.28,0,0,0,1.46,11.2C198.05,280.15,200.28,278.81,200.68,278.43Z" style="fill:#263238"></path><path d="M202.42,281.85a7.54,7.54,0,0,0,3.54,1.4,3.39,3.39,0,0,0,2-.46c1.32-.79,1-2.11.38-3.15a8.06,8.06,0,0,0-1.14-1.53A9.7,9.7,0,0,1,202.42,281.85Z" style="fill:#263238"></path><path d="M206,283.25a3.39,3.39,0,0,0,2-.46c1.32-.79,1-2.11.38-3.15C206.87,280.24,205.66,281.72,206,283.25Z" style="fill:#ff9cbd"></path><g style="opacity:0.2"><path d="M217.13,269.41a.43.43,0,0,0,.59.11.42.42,0,0,0-.48-.7A.43.43,0,0,0,217.13,269.41Z"></path><path d="M209.58,274.16a.42.42,0,0,0,.59.1.43.43,0,0,0,.11-.59.44.44,0,0,0-.6-.11A.43.43,0,0,0,209.58,274.16Z"></path><path d="M213.94,274.93a.43.43,0,0,0,.59.11.42.42,0,1,0-.59-.11Z"></path><path d="M214.93,266.66a.42.42,0,1,0,.69-.49.42.42,0,0,0-.69.49Z"></path><path d="M212.84,271a.44.44,0,0,0,.6.11.43.43,0,0,0,.1-.6.42.42,0,0,0-.59-.1A.43.43,0,0,0,212.84,271Z"></path><path d="M191.33,278.49a.43.43,0,0,0,.7-.49.43.43,0,0,0-.59-.11A.44.44,0,0,0,191.33,278.49Z"></path><path d="M195.44,278.58a.42.42,0,0,0,.59.1.42.42,0,1,0-.59-.1Z"></path><path d="M196.35,281.36a.42.42,0,1,0,.1-.59A.42.42,0,0,0,196.35,281.36Z"></path><path d="M192.85,281.42a.43.43,0,0,0,.6.1.42.42,0,0,0,.1-.59.43.43,0,0,0-.59-.11A.44.44,0,0,0,192.85,281.42Z"></path></g><path d="M223.29,236.24s8.34,3.75,9.78,7.62,1.31,21.19-2,22.32-8.25-10.59-8.25-10.59-8-.25-14,.1a25.71,25.71,0,0,1-4-8.38,19.12,19.12,0,0,0,.81,8.66,32.41,32.41,0,0,0-6.44,1.25c-.89.28-1.78.62-2.69,1a54.13,54.13,0,0,1-2.59-6.57,27.46,27.46,0,0,0,1.16,7.17c-.53.23-1.07.47-1.59.72a79.86,79.86,0,0,1-3.2-11.27,23.53,23.53,0,0,0-1.44,13.59c-3,1.63-5.14,3-5.14,3-4.31-11.49-2.41-24.74,8.32-31.54,12-7.6,28.61.82,28.61.82s-.68-3.67.57-3.79,1.38,4.16,1.38,4.16,3.37-.93,4,0C227.08,235.75,223.29,236.24,223.29,236.24Z" style="fill:#263238"></path><path d="M209.24,287.82c2.92-1.2,3.91-5.09,3.22-7-.87-2.43-3.05-3.66-6-2.22a16.62,16.62,0,0,1-2.82,1c-2.56.7-3.2.23-4.27,2.29S202.49,290.61,209.24,287.82Z" style="fill:#407BFF"></path><path d="M193.6,290.36l13-3.76-1.72-5.9-12.94,3.76c-2.45.71-8.22-2.29-10-8.42l-14-48.4L162,229.35l14,48.4C178.66,287,187.65,292.08,193.6,290.36Z" style="fill:#455a64"></path><path d="M207.14,283.23c.47,1.63.21,3.14-.59,3.37s-1.83-.9-2.31-2.53-.2-3.14.59-3.37S206.66,281.6,207.14,283.23Z" style="fill:#455a64"></path><rect x="162.93" y="234.32" width="8.04" height="2.51" rx="0.61" transform="translate(392.95 415.28) rotate(163.81)" style="fill:#407BFF"></rect><rect x="163.82" y="237.38" width="8.04" height="2.51" rx="0.61" transform="translate(395.55 421.03) rotate(163.81)" style="fill:#407BFF"></rect><rect x="171.13" y="262.58" width="8.04" height="2.51" rx="0.61" transform="translate(416.91 468.39) rotate(163.81)" style="fill:#407BFF"></rect><path d="M219.47,259s8-3.87,12.21-3.4c1.72.2,3.39,4.62,2.93,5.85-.29.77-1.88,1-10.81,5.48C223.8,267,222.43,261.7,219.47,259Z" style="fill:#407BFF"></path><path d="M189.53,282a6.8,6.8,0,0,0,1,.53c1.45.59,2.91.48,4.75-1.06,1.2-1,1.61-2.86,4-3.69a8.4,8.4,0,0,1,4.52-.46,26.88,26.88,0,0,1,2.94.67l.72.2a4.82,4.82,0,0,0,.68.16,7.45,7.45,0,0,0,1.08.11c4.16.17,9.67-2.41,11-5,1.22-2.35.68-7.22-1.49-11.13a13.38,13.38,0,0,0-1.63-2.36,10.65,10.65,0,0,0-2.08-1.89,4.94,4.94,0,0,0-.42-.27,6.28,6.28,0,0,0-1.25-.59c-3-1.1-7.64-.9-12.3.13l-1.42.34c-1,.26-2,.56-3,.89-1.14.38-2.26.81-3.31,1.27-3.74,1.63-6.71,3.71-7.75,5.89a9.8,9.8,0,0,0-.71,5.13,16.59,16.59,0,0,0,.4,2.51,23.12,23.12,0,0,0,3.17,7.43A4.5,4.5,0,0,0,189.53,282Z" style="fill:#fff;opacity:0.2"></path><g style="opacity:0.2"><path d="M189.53,282a6.8,6.8,0,0,0,1,.53l6.51-8.47a1.36,1.36,0,0,0-2-1.87,1.26,1.26,0,0,0-.2.2l-6.49,8.44A4.5,4.5,0,0,0,189.53,282Z" style="fill:#fff"></path><path d="M203.8,277.34a26.88,26.88,0,0,1,2.94.67l12-15.64a13.38,13.38,0,0,0-1.63-2.36Z" style="fill:#fff"></path><path d="M205.75,268.69a.92.92,0,0,0,1.15,0l.14-.14,8-10.41a4.94,4.94,0,0,0-.42-.27,6.28,6.28,0,0,0-1.25-.59l-7.8,10.14A.92.92,0,0,0,205.75,268.69Z" style="fill:#fff"></path><path d="M185.26,273.42l11.37-14.8c-1.14.38-2.26.81-3.31,1.27l-8.46,11A16.59,16.59,0,0,0,185.26,273.42Z" style="fill:#fff"></path><path d="M188.61,272.86a.45.45,0,0,0,.57,0l.08-.07,11.81-15.38-1.42.34-11.13,14.48A.46.46,0,0,0,188.61,272.86Z" style="fill:#fff"></path><path d="M208.14,278.37a7.45,7.45,0,0,0,1.08.11l6.1-7.93a.47.47,0,0,0-.09-.65.44.44,0,0,0-.57,0,.23.23,0,0,0-.07.07Z" style="fill:#fff"></path></g><path d="M207.35,278.66c-4.23-1.07-5.77-1.34-7.89-.44a6.35,6.35,0,0,0-2.65,2.29,8.48,8.48,0,0,1-1.19,1.33c-2.17,1.82-4.68,2-6.4.53-2.53-2.2-6.78-11.05-4.07-16.78,1.65-3.48,7.62-6.32,12.66-7.83,5.43-1.62,13.16-2.68,17.05-.31h0c5.78,3.53,7.5,12.28,5.79,16.23a6.61,6.61,0,0,1-1.89,2.42A13.76,13.76,0,0,1,207.35,278.66Zm7-20.42c-3-1.82-9.39-1.67-16.31.4-6.19,1.85-10.82,4.66-12.09,7.34-2.49,5.26,1.54,13.69,3.84,15.7,1.66,1.44,3.78.67,5.21-.54a7.88,7.88,0,0,0,1.06-1.2,7.24,7.24,0,0,1,3-2.57c2.48-1.05,4.39-.64,8.47.4,4.61,1.16,10.78-1.08,12.24-4.45,1.59-3.68-.21-11.9-5.43-15.08Z" style="fill:#455a64"></path><path d="M197,258l.81-.24a40.3,40.3,0,0,1,9.11-1.66c3.09-.18,6,.15,7.94,1.34,5.78,3.52,7.5,12.28,5.79,16.23a6.61,6.61,0,0,1-1.89,2.42,9.13,9.13,0,0,1-1.91,1.25,12.69,12.69,0,0,0,5.37-2.53,6.57,6.57,0,0,0,1.9-2.43c1.72-3.94,0-12.7-5.78-16.22-2-1.19-4.86-1.52-8-1.34a40.41,40.41,0,0,0-9.11,1.65A44.93,44.93,0,0,0,197,258Z" style="fill:#37474f"></path><path d="M226.35,262.43s2.57-9.73,6.79-9.09,4.27,13.35.71,16.4a4.46,4.46,0,0,1-6.44-.19Z" style="fill:#f7a9a0"></path><path d="M233.06,257c.07,0,.11.06.06.11-2.46,2.23-3,5.47-3,8.64.47-1.39,1.42-2.4,3.23-1.91.1,0,.07.17,0,.19a2.73,2.73,0,0,0-2.5,1.94,13.18,13.18,0,0,0-.52,2.8c0,.3-.56.34-.57,0v-.07C228.27,265,229.24,258.81,233.06,257Z" style="fill:#263238"></path><path d="M250.14,285.08c9.11,16.11,22.78,43.12,21.49,48.37-2.73,11.13-18.8,24.43-25.66,31.17-2.71,2.67-23.78-22.1-20.46-24.46,3.8-2.7,15.05-12.25,16.31-15.74.48-1.33-1.82-16.41-4-31.7C235.32,275,246.07,277.9,250.14,285.08Z" style="fill:#f7a9a0"></path><path d="M225.51,340.16s-11.49,5-18.86,8.66c-4.1,2-10.83,6.14-13.17,9-3.49,4.29-15.36,24.49-10.52,27.47,4.37,2.7,12.36-15.95,12.36-15.95s-9.72,18.1-3.85,20.39,12.09-20,12.09-20S194,388.58,200.41,390c4.85,1,11.63-18.8,11.63-18.8s-8.12,16.24-3.18,17.54c5.46,1.44,12.87-16.49,12.87-16.49,13.12,1.18,19.86-3.62,24.24-7.61C247,363.66,225.51,340.16,225.51,340.16Z" style="fill:#f7a9a0"></path><path d="M198.29,362.89c-1.22,2.08-2.47,4.18-3.5,6.37s-2,4.41-2.81,6.68a41.41,41.41,0,0,0-2.35,9.15c1.17-5.5,4.74-13.38,5.77-15.57s1.95-4.41,3-6.6C198.4,362.87,198.32,362.84,198.29,362.89Z" style="fill:#263238"></path><path d="M206.25,366.46c-1.44,2.73-3,5.39-4.3,8.18s-2.32,5.54-3.44,8.4c-.08.22.06.19.16,0,1.23-2.82,2.59-5.33,3.86-8.13s2.42-5.66,3.79-8.4C206.34,366.45,206.27,366.42,206.25,366.46Z" style="fill:#263238"></path><path d="M213.63,368.3a69.7,69.7,0,0,0-5.61,13c-.07.23.11.17.2-.05,1.79-4.36,3.16-7.8,5.56-12.87C213.81,368.31,213.68,368.22,213.63,368.3Z" style="fill:#263238"></path><path d="M253,289.8a161.57,161.57,0,0,1,17.15,35.51c-.7-1.49-1.36-3-2.08-4.48-4.61-9.91-10.13-21.28-15.07-31Z" style="fill:#263238"></path><path d="M254.93,291.22a8.11,8.11,0,0,1,.9,4,8.14,8.14,0,0,1-.9-4Z" style="fill:#263238"></path><path d="M238.07,294.81a105.48,105.48,0,0,1,2.38,16.31,76.63,76.63,0,0,1-2.38-16.31Z" style="fill:#263238"></path><path d="M237.36,297.12a8.22,8.22,0,0,1,1.68,3.7,8.11,8.11,0,0,1-1.68-3.7Z" style="fill:#263238"></path><path d="M402.32,202.59l-36.86-7.77s-10,36.73-10.44,37.33a149.3,149.3,0,0,0-24.73,10.16c-4,2.07-16.06.47-41.53,27.34l15.74,40.52c39.47-13.35,63.29-30,81.2-48.6C398.86,247.93,402.32,202.59,402.32,202.59Z" style="fill:#f7a9a0"></path><g style="opacity:0.1"><path d="M402.32,202.59l-36.86-7.77s-10,36.73-10.44,37.33a149.3,149.3,0,0,0-24.73,10.16c-4,2.07-16.06.47-41.53,27.34l15.74,40.52c39.47-13.35,63.29-30,81.2-48.6C398.86,247.93,402.32,202.59,402.32,202.59Z"></path></g><path d="M362.68,210.45s5.39-30.3,5.39-30.33c-1.66-8-3-15.07-3.31-18.78,0,0,0,0,0-.06a5.64,5.64,0,0,1,.08-2.6l0-.06c2.06-2.11,65.7-17.22,68.09-17s2,7.07,0,9.63-23.79,19.24-23.79,19.24L401,214.66Z" style="fill:#f7a9a0"></path><g style="opacity:0.1"><path d="M362.68,210.45s5.39-30.3,5.39-30.33c-1.66-8-3-15.07-3.31-18.78,0,0,0,0,0-.06a5.64,5.64,0,0,1,.08-2.6l0-.06c2.06-2.11,65.7-17.22,68.09-17s2,7.07,0,9.63-23.79,19.24-23.79,19.24L401,214.66Z"></path></g><path d="M409.13,170.49l-41.48,7.6s-4.22-17.19-3.16-19.77,70.61-24.8,87.89-23c1,.11-5.79,16.19-4.73,21.35.8,3.87,4.37,11,3.94,12.07S427.47,166.32,409.13,170.49Z" style="fill:#407BFF"></path><g style="opacity:0.1"><path d="M447.63,156.57a.24.24,0,0,0,0,.09c.58,2.84,2.65,7.43,3.55,10.1-5.63-.09-33.49,1.19-33.75-1.32C417.09,162.16,439.9,157.43,447.63,156.57Z"></path><path d="M451.91,138c-1.15,3.85-3.68,11-4.25,15.67-7.49.51-31.05,4.91-31.85.57S443.31,139.91,451.91,138Z"></path></g><path d="M367.65,178.09l41.48-7.6s1.66-6.92,1.08-8.18-8.7-4.08-8.7-4.08l-35.44,12.41A15,15,0,0,0,367.65,178.09Z" style="opacity:0.1"></path><path d="M304.5,310.17l-15.74-40.52s14.89-16.9,26.35-22.48c4.32-2.11,14-5,14-5L347.66,233l29.18,41.4S340.44,301,304.5,310.17Z" style="fill:#455a64"></path><path d="M376.84,274.42S340.44,301,304.5,310.17l-9.3-23.93L347.66,233Z" style="fill:#37474f"></path><path d="M361.92,182.82l-28.45,24.8s14.66,35.36,14.81,36.09c0,0-2.78,3.09-19.52,10.44,0,0-17.17,8.08-33.56,32.09l14,36c55.32-20,82.81-45.79,93.87-65.31C412.55,240.21,361.92,182.82,361.92,182.82Z" style="fill:#f7a9a0"></path><path d="M345.45,230.39s-14.61-27.78-14.64-27.79c-7.56-3.13-14.13-6-17.38-7.82l-.06,0a5.65,5.65,0,0,1-2.1-1.53s0,0,0-.06c-.59-2.88,22.69-64,24.22-65.87s7,2.35,7.93,5.45,2.54,30.49,2.54,30.49l29.59,36.15Z" style="fill:#f7a9a0"></path><path d="M345.93,163.23l-17,38.57s-16.59-6.17-18.13-8.5S330,121,341.16,107.69c.66-.79,10.13,13.89,15,15.91,3.64,1.52,11.57,2.58,12.19,3.53S352.8,145.72,345.93,163.23Z" style="fill:#407BFF"></path><g style="opacity:0.1"><path d="M356.06,123.56l.09,0c2.68,1.11,7.63,2,10.35,2.74-3.24,4.6-17.84,28.36-20.07,27.17C343.52,152,352.43,130.44,356.06,123.56Z"></path><path d="M343.12,109.59c2.54,3.12,7,9.23,10.58,12.33-3.78,6.48-13.39,28.43-17.44,26.66S339.86,117.77,343.12,109.59Z"></path></g><path d="M328.9,201.8l17-38.57s-4.79-5.26-6.15-5.49-8.27,4.9-8.27,4.9l-9.65,36.28A14.77,14.77,0,0,0,328.9,201.8Z" style="opacity:0.1"></path><path d="M294.07,283.33l15.13,38.92s33-9.77,56.82-25.13c7.17-4.62,17.53-13.75,17.53-13.75l-36.21-40.58-20.93,12.39s-7.26,1.91-11.91,4.9S294.07,283.33,294.07,283.33Z" style="fill:#455a64"></path><path d="M327,255.07a40.06,40.06,0,0,0-8.68-3.21c-.1,0-.14.14,0,.18a72.81,72.81,0,0,1,8.2,4,62.21,62.21,0,0,1,8,4.67s.11,0,.06-.08A43.52,43.52,0,0,0,327,255.07Z" style="fill:#263238"></path><path d="M306.72,315.87c14.27-6.52,31.57-13.33,45.25-20.73,8.6-5,16.78-10.72,24.87-16.52-10.36,8.31-21.18,16.32-33.29,21.92s-24.38,10.63-36.83,15.33Z" style="fill:#263238"></path><path d="M294.07,283.33c5.6-7.81,11.42-15.59,18.43-22.22,3.89-3.31,9.06-4.75,13.91-5.93-1.74.58-3.46,1.2-5.14,1.92-2.89,1.24-5.87,2.51-8.16,4.69-4.27,4.1-8,8.74-11.89,13.2-1.77,2.09-5.36,6.28-7.15,8.34Z" style="fill:#263238"></path><polygon points="288.76 269.65 309.2 322.25 304.6 324.51 283.4 268.81 288.76 269.65" style="fill:#37474f"></polygon></g><g id="freepik--Fishes--inject-24"><path d="M304.14,203.38S320.19,186,332.2,189.94s20.38,15.5,20.38,15.5-12.46,15.25-26.05,14.25-22.35-12.18-22.35-12.18-5.33,6.87-7.43,6.2,2.05-4.71-.1-7.52c-2.93-3.83-5.29-9.86-4.42-11.31S299.55,199.05,304.14,203.38Z" style="fill:#37474f"></path><path d="M335.64,206.19c-3-.6-3.91,4-.95,4.61S338.6,206.8,335.64,206.19Z" style="fill:#263238"></path><path d="M336.62,206.66s-.05,0,0,0c1.32,1.88.48,4.09-1.11,5.46-.06,0,0,.06,0,0C337.43,211.36,338.5,208.11,336.62,206.66Z" style="fill:#263238"></path><path d="M323.38,206.45c-2.59-1-5.4-2.35-8.18-2.59-1.68.63-1.54,3.91-1.49,5.37a9.65,9.65,0,0,0,1.16,4.32,1.54,1.54,0,0,0,.81.66,4.64,4.64,0,0,0,1.85,0,31.16,31.16,0,0,0,6.74-1.86c-2.72.57-5.63,1.65-8.4,1.25-1.63-1-1.71-6-1.31-7.83a2.42,2.42,0,0,1,.65-1.33c0-.09.38,0,.64,0,2.32.37,5.24,1.36,7.53,2Z" style="fill:#263238"></path><path d="M314.35,205.37a27.89,27.89,0,0,0,7.46,1.53,27.29,27.29,0,0,0-7.46-1.53Z" style="fill:#263238"></path><path d="M315.17,213.14a27.44,27.44,0,0,0,7.51-1.23,28.09,28.09,0,0,0-7.51,1.23Z" style="fill:#263238"></path><path d="M314.73,211.36a27.66,27.66,0,0,0,7.59-.59,27.25,27.25,0,0,0-7.59.59Z" style="fill:#263238"></path><path d="M314.29,209.5a27.39,27.39,0,0,0,7.62,0,28.18,28.18,0,0,0-7.62,0Z" style="fill:#263238"></path><path d="M314.21,207.5a27.67,27.67,0,0,0,7.59.66,27.67,27.67,0,0,0-7.59-.66Z" style="fill:#263238"></path><g style="opacity:0.1"><path d="M327.94,219c.37-4.92-.29-24.4-.68-29.12,0-.14-.21-.1-.22,0-.23,5,.07,24.42.59,29.09C327.67,219.37,327.92,219.35,327.94,219Z"></path><path d="M306.22,209.12a168,168,0,0,0,14.68-15.85,168,168,0,0,0-14.68,15.85Z"></path><path d="M316.38,204.07a70.28,70.28,0,0,0,9.53-10.28,70.28,70.28,0,0,0-9.53,10.28Z"></path><path d="M317.1,194.28a69.85,69.85,0,0,0,10.29,9.53,69.85,69.85,0,0,0-10.29-9.53Z"></path><path d="M313.54,197.21a115.69,115.69,0,0,0,13.14,12.19,115.69,115.69,0,0,0-13.14-12.19Z"></path><path d="M320.65,205.43a33.56,33.56,0,0,0,6.6-7.12,33.82,33.82,0,0,0-6.6,7.12Z"></path><path d="M323.25,208.68a15.46,15.46,0,0,0,4.48-4.84,15.7,15.7,0,0,0-4.48,4.84Z"></path><path d="M309.36,211.68a16.78,16.78,0,0,0,4.64-5,16.78,16.78,0,0,0-4.64,5Z"></path><path d="M321.68,217.59a17.83,17.83,0,0,0,4.7-5.27,18.09,18.09,0,0,0-4.7,5.27Z"></path><path d="M306,206.91a21.05,21.05,0,0,0,5.63,5.22,21.05,21.05,0,0,0-5.63-5.22Z"></path><path d="M321.31,192.43a26.5,26.5,0,0,0,6.32,5.86,26.88,26.88,0,0,0-6.32-5.86Z"></path><path d="M308.34,203.61a21.37,21.37,0,0,0,5.65,5.24,21.21,21.21,0,0,0-5.65-5.24Z"></path><path d="M320,213.82a21.21,21.21,0,0,0,5.65,5.24,21.21,21.21,0,0,0-5.65-5.24Z"></path><path d="M311,200.63a10.52,10.52,0,0,0,4,3.66,10.45,10.45,0,0,0-4-3.66Z"></path></g><path d="M341.85,220.64s10.6-11.48,18.53-8.88S373.85,222,373.85,222s-8.24,10.08-17.21,9.42-14.76-8-14.76-8-3.53,4.54-4.91,4.1,1.35-3.11-.07-5C335,220,333.41,216,334,215S338.81,217.78,341.85,220.64Z" style="fill:#455a64"></path><path d="M362.65,222.5a1.55,1.55,0,0,0-.62,3A1.55,1.55,0,0,0,362.65,222.5Z" style="fill:#263238"></path><path d="M363.3,222.81s0,0,0,0a2.7,2.7,0,0,1-.73,3.61c-.05,0,0,0,0,0C363.84,225.91,364.55,223.77,363.3,222.81Z" style="fill:#263238"></path><path d="M354.56,222.67a21.41,21.41,0,0,0-5.41-1.71c-1.11.42-1,2.58-1,3.55a6.35,6.35,0,0,0,.76,2.85,1,1,0,0,0,.54.44,3.15,3.15,0,0,0,1.22,0,20.94,20.94,0,0,0,4.45-1.23c-1.79.37-3.71,1.09-5.54.82-1.08-.68-1.13-4-.87-5.17a1.63,1.63,0,0,1,.43-.88c0-.06.25,0,.42,0,1.54.25,3.46.9,5,1.31Z" style="fill:#263238"></path><path d="M348.59,222a18.4,18.4,0,0,0,4.93,1,18.1,18.1,0,0,0-4.93-1Z" style="fill:#263238"></path><path d="M349.13,227.09a18.12,18.12,0,0,0,5-.81,18.57,18.57,0,0,0-5,.81Z" style="fill:#263238"></path><path d="M348.84,225.92a18,18,0,0,0,5-.4,18.4,18.4,0,0,0-5,.4Z" style="fill:#263238"></path><path d="M348.56,224.69a18,18,0,0,0,5,0,18.35,18.35,0,0,0-5,0Z" style="fill:#263238"></path><path d="M348.5,223.37a18.34,18.34,0,0,0,5,.43,18,18,0,0,0-5-.43Z" style="fill:#263238"></path><g style="opacity:0.1"><path d="M357.57,231c.25-3.26-.19-16.12-.45-19.24,0-.09-.14-.06-.14,0-.16,3.28,0,16.14.39,19.22C357.39,231.21,357.55,231.19,357.57,231Z"></path><path d="M343.22,224.43a111.55,111.55,0,0,0,9.7-10.46,111.55,111.55,0,0,0-9.7,10.46Z"></path><path d="M349.93,221.1a46.58,46.58,0,0,0,6.3-6.79,46,46,0,0,0-6.3,6.79Z"></path><path d="M350.41,214.63a46.58,46.58,0,0,0,6.79,6.3,46,46,0,0,0-6.79-6.3Z"></path><path d="M348.05,216.57a77,77,0,0,0,8.69,8.05,76.1,76.1,0,0,0-8.69-8.05Z"></path><path d="M352.76,222a22.57,22.57,0,0,0,4.35-4.7,21.83,21.83,0,0,0-4.35,4.7Z"></path><path d="M354.47,224.14a10.25,10.25,0,0,0,3-3.19,10.37,10.37,0,0,0-3,3.19Z"></path><path d="M345.3,226.13a11.2,11.2,0,0,0,3.06-3.3,10.84,10.84,0,0,0-3.06,3.3Z"></path><path d="M353.43,230a11.64,11.64,0,0,0,3.11-3.48,12,12,0,0,0-3.11,3.48Z"></path><path d="M343.09,223a14.06,14.06,0,0,0,3.73,3.44,14.06,14.06,0,0,0-3.73-3.44Z"></path><path d="M353.19,213.41a17.44,17.44,0,0,0,4.17,3.87,17.64,17.64,0,0,0-4.17-3.87Z"></path><path d="M344.62,220.79a14,14,0,0,0,3.73,3.46,14.13,14.13,0,0,0-3.73-3.46Z"></path><path d="M352.35,227.54a14,14,0,0,0,3.73,3.46,14.13,14.13,0,0,0-3.73-3.46Z"></path><path d="M346.4,218.83a6.77,6.77,0,0,0,2.6,2.41,6.84,6.84,0,0,0-2.6-2.41Z"></path></g><path d="M267,250.56s10.6-11.48,18.54-8.88S299,251.92,299,251.92s-8.23,10.08-17.21,9.41-14.76-8-14.76-8-3.53,4.54-4.91,4.09,1.35-3.11-.07-5c-1.93-2.53-3.49-6.52-2.92-7.48S263.93,247.7,267,250.56Z" style="fill:#455a64"></path><path d="M287.77,252.42a1.55,1.55,0,0,0-.63,3A1.55,1.55,0,0,0,287.77,252.42Z" style="fill:#263238"></path><path d="M288.41,252.73s0,0,0,0a2.7,2.7,0,0,1-.73,3.61s0,0,0,0C289,255.83,289.66,253.69,288.41,252.73Z" style="fill:#263238"></path><path d="M279.67,252.59a21.29,21.29,0,0,0-5.41-1.71c-1.11.42-1,2.58-1,3.54a6.37,6.37,0,0,0,.77,2.86,1,1,0,0,0,.53.43,2.81,2.81,0,0,0,1.22,0,21.17,21.17,0,0,0,4.46-1.22c-1.8.37-3.72,1.08-5.55.82-1.08-.68-1.13-4-.87-5.17a1.56,1.56,0,0,1,.43-.88c0-.06.25,0,.42,0,1.54.24,3.46.9,5,1.31Z" style="fill:#263238"></path><path d="M273.7,251.87a18.1,18.1,0,0,0,4.93,1,18.48,18.48,0,0,0-4.93-1Z" style="fill:#263238"></path><path d="M274.24,257a18.25,18.25,0,0,0,5-.81,18.25,18.25,0,0,0-5,.81Z" style="fill:#263238"></path><path d="M274,255.83a18.39,18.39,0,0,0,5-.39,18.42,18.42,0,0,0-5,.39Z" style="fill:#263238"></path><path d="M273.67,254.61a18,18,0,0,0,5,0,18,18,0,0,0-5,0Z" style="fill:#263238"></path><path d="M273.61,253.29a18.34,18.34,0,0,0,5,.43,18,18,0,0,0-5-.43Z" style="fill:#263238"></path><g style="opacity:0.1"><path d="M282.68,260.89c.25-3.25-.19-16.12-.45-19.23,0-.1-.14-.07-.14,0-.16,3.28,0,16.14.39,19.22C282.51,261.12,282.67,261.11,282.68,260.89Z"></path><path d="M268.33,254.35a110.43,110.43,0,0,0,9.7-10.47,110.43,110.43,0,0,0-9.7,10.47Z"></path><path d="M275,251a46.1,46.1,0,0,0,6.3-6.8A47.17,47.17,0,0,0,275,251Z"></path><path d="M275.52,244.55a46.58,46.58,0,0,0,6.8,6.29,46.58,46.58,0,0,0-6.8-6.29Z"></path><path d="M273.17,246.49a75.92,75.92,0,0,0,8.68,8,75.92,75.92,0,0,0-8.68-8Z"></path><path d="M277.87,251.91a22.13,22.13,0,0,0,4.36-4.7,22.35,22.35,0,0,0-4.36,4.7Z"></path><path d="M279.59,254.06a10.22,10.22,0,0,0,3-3.19,10.22,10.22,0,0,0-3,3.19Z"></path><path d="M270.41,256a11.08,11.08,0,0,0,3.06-3.3,11.07,11.07,0,0,0-3.06,3.3Z"></path><path d="M278.54,260a11.76,11.76,0,0,0,3.11-3.48,11.91,11.91,0,0,0-3.11,3.48Z"></path><path d="M268.2,252.89a13.93,13.93,0,0,0,3.73,3.45,14.1,14.1,0,0,0-3.73-3.45Z"></path><path d="M278.3,243.33a17.5,17.5,0,0,0,4.18,3.87,17.48,17.48,0,0,0-4.18-3.87Z"></path><path d="M269.73,250.71a13.86,13.86,0,0,0,3.74,3.46,14.33,14.33,0,0,0-3.74-3.46Z"></path><path d="M277.46,257.46a14,14,0,0,0,3.74,3.46,14,14,0,0,0-3.74-3.46Z"></path><path d="M271.51,248.74a6.87,6.87,0,0,0,2.6,2.42,7,7,0,0,0-2.6-2.42Z"></path></g><path d="M361.84,179s10.61-11.48,18.54-8.88,13.46,10.24,13.46,10.24-8.23,10.08-17.21,9.41-14.76-8-14.76-8-3.52,4.54-4.91,4.09,1.35-3.11-.07-5c-1.93-2.53-3.49-6.52-2.92-7.48S358.81,176.15,361.84,179Z" style="fill:#455a64"></path><path d="M382.65,180.87a1.55,1.55,0,0,0-.63,3A1.55,1.55,0,0,0,382.65,180.87Z" style="fill:#263238"></path><path d="M383.3,181.18s0,0,0,0a2.67,2.67,0,0,1-.73,3.6s0,0,0,0C383.83,184.28,384.54,182.14,383.3,181.18Z" style="fill:#263238"></path><path d="M374.55,181a21.58,21.58,0,0,0-5.41-1.72c-1.1.42-1,2.59-1,3.55a6.37,6.37,0,0,0,.77,2.86,1,1,0,0,0,.54.43,2.81,2.81,0,0,0,1.22,0,20.52,20.52,0,0,0,4.45-1.23c-1.8.38-3.72,1.09-5.55.83-1.07-.68-1.13-4-.87-5.17a1.5,1.5,0,0,1,.44-.88c0-.06.25,0,.42,0,1.53.24,3.46.9,5,1.31Z" style="fill:#263238"></path><path d="M368.58,180.32a18.1,18.1,0,0,0,4.93,1,18.4,18.4,0,0,0-4.93-1Z" style="fill:#263238"></path><path d="M369.12,185.46a18.19,18.19,0,0,0,5-.81,18.25,18.25,0,0,0-5,.81Z" style="fill:#263238"></path><path d="M368.84,184.28a18.35,18.35,0,0,0,5-.39,18.32,18.32,0,0,0-5,.39Z" style="fill:#263238"></path><path d="M368.55,183.06a18,18,0,0,0,5,0,18,18,0,0,0-5,0Z" style="fill:#263238"></path><path d="M368.49,181.74a18.78,18.78,0,0,0,5,.43,17.92,17.92,0,0,0-5-.43Z" style="fill:#263238"></path><g style="opacity:0.1"><path d="M377.57,189.34c.24-3.25-.2-16.12-.46-19.23,0-.1-.13-.07-.14,0-.15,3.28,0,16.14.39,19.22C377.39,189.57,377.55,189.56,377.57,189.34Z"></path><path d="M363.21,182.8a110.43,110.43,0,0,0,9.7-10.47,110.43,110.43,0,0,0-9.7,10.47Z"></path><path d="M369.93,179.47a46.58,46.58,0,0,0,6.29-6.8,46.58,46.58,0,0,0-6.29,6.8Z"></path><path d="M370.4,173a46.58,46.58,0,0,0,6.8,6.29,46.07,46.07,0,0,0-6.8-6.29Z"></path><path d="M368.05,174.94a75.92,75.92,0,0,0,8.68,8,75.92,75.92,0,0,0-8.68-8Z"></path><path d="M372.75,180.36a22.13,22.13,0,0,0,4.36-4.7,22.62,22.62,0,0,0-4.36,4.7Z"></path><path d="M374.47,182.51a10.37,10.37,0,0,0,3-3.19,10.25,10.25,0,0,0-3,3.19Z"></path><path d="M365.29,184.49a11,11,0,0,0,3.06-3.3,11.2,11.2,0,0,0-3.06,3.3Z"></path><path d="M373.43,188.4a12.17,12.17,0,0,0,3.11-3.48,11.64,11.64,0,0,0-3.11,3.48Z"></path><path d="M363.09,181.34a13.89,13.89,0,0,0,3.72,3.45,13.89,13.89,0,0,0-3.72-3.45Z"></path><path d="M373.18,171.78a17.69,17.69,0,0,0,4.18,3.87,17.48,17.48,0,0,0-4.18-3.87Z"></path><path d="M364.61,179.16a14,14,0,0,0,3.74,3.46,14,14,0,0,0-3.74-3.46Z"></path><path d="M372.34,185.91a14.17,14.17,0,0,0,3.74,3.46,13.86,13.86,0,0,0-3.74-3.46Z"></path><path d="M366.39,177.19a7,7,0,0,0,2.61,2.42,7.05,7.05,0,0,0-2.61-2.42Z"></path></g></g><g id="freepik--Bubbles--inject-24"><path d="M351.33,182.23h-.07a3.83,3.83,0,0,1-3.06-1.45,4.56,4.56,0,0,1,.71-6h0a4.47,4.47,0,0,1,5.45-.19,4.24,4.24,0,0,1,.35,6A4.29,4.29,0,0,1,351.33,182.23Zm.5-7.46a3.42,3.42,0,0,0-2.24.78h0a3.59,3.59,0,0,0-.59,4.63,2.84,2.84,0,0,0,2.28,1,3.4,3.4,0,0,0,2.44-5.84A3,3,0,0,0,351.83,174.77Z" style="fill:#dbdbdb"></path><path d="M216.53,448.32h-.07a3.79,3.79,0,0,1-3.06-1.46,4.54,4.54,0,0,1,.71-6h0a4.44,4.44,0,0,1,5.44-.2,4.24,4.24,0,0,1,.36,6A4.3,4.3,0,0,1,216.53,448.32Zm-1.75-6.69h0a3.61,3.61,0,0,0-.58,4.64,2.89,2.89,0,0,0,2.27,1.05,3.35,3.35,0,0,0,2.66-1.2,3.26,3.26,0,0,0-.21-4.65A3.46,3.46,0,0,0,214.78,441.63Z" style="fill:#dbdbdb"></path><path d="M317.76,258.45h-.07a3.83,3.83,0,0,1-3.06-1.45,4.56,4.56,0,0,1,.71-6h0a4.49,4.49,0,0,1,5.45-.2,4.26,4.26,0,0,1,.36,6A4.33,4.33,0,0,1,317.76,258.45ZM316,251.77h0a3.58,3.58,0,0,0-.58,4.63,2.84,2.84,0,0,0,2.27,1.05,3.37,3.37,0,0,0,2.65-1.19,3.26,3.26,0,0,0-.2-4.65A3.44,3.44,0,0,0,316,251.77Z" style="fill:#dbdbdb"></path><path d="M346.62,171.1a1.69,1.69,0,0,1-.73-.16,1.84,1.84,0,0,1-1-.94,2,2,0,0,1,0-1.56,1.77,1.77,0,0,1,1.05-1h0a1.78,1.78,0,0,1,2.37,1,1.87,1.87,0,0,1-1,2.51A1.83,1.83,0,0,1,346.62,171.1Zm.12-2.76a1.26,1.26,0,0,0-.42.08h0a.72.72,0,0,0-.45.42,1,1,0,0,0,0,.76.84.84,0,0,0,.44.43.83.83,0,0,0,.66,0,.87.87,0,0,0,.48-1.21A.69.69,0,0,0,346.74,168.34Z" style="fill:#dbdbdb"></path><path d="M158,366.71a1.7,1.7,0,0,1-.67-.13,1.85,1.85,0,0,1-1-1,2,2,0,0,1,0-1.56,1.78,1.78,0,0,1,1-1h0a1.79,1.79,0,0,1,2.37,1,1.86,1.86,0,0,1-1,2.51A1.91,1.91,0,0,1,158,366.71Zm.12-2.76a1.37,1.37,0,0,0-.43.08h0a.74.74,0,0,0-.46.42,1,1,0,0,0,0,.76.85.85,0,0,0,.47.44.83.83,0,0,0,.64,0,.87.87,0,0,0,.47-1.21A.69.69,0,0,0,158.15,364Z" style="fill:#dbdbdb"></path><path d="M388.24,86.89a1.93,1.93,0,0,1-.67-.12,1.9,1.9,0,0,1-1-1,2,2,0,0,1,0-1.56,1.73,1.73,0,0,1,1-1h0a1.78,1.78,0,0,1,2.37,1,1.9,1.9,0,0,1-1.73,2.65Zm.12-2.76a1.37,1.37,0,0,0-.43.08h0a.79.79,0,0,0-.46.42,1.05,1.05,0,0,0,0,.76.82.82,0,0,0,.47.44.79.79,0,0,0,.64,0,.87.87,0,0,0,.47-1.21A.69.69,0,0,0,388.36,84.13Z" style="fill:#dbdbdb"></path><path d="M342.23,426.9a1.77,1.77,0,0,1-.67-.13,1.83,1.83,0,0,1-1-1,2,2,0,0,1,0-1.56,1.77,1.77,0,0,1,1.05-1h0a1.78,1.78,0,0,1,2.36,1,1.9,1.9,0,0,1-1.73,2.65Zm-.31-2.68h0a.72.72,0,0,0-.45.42,1,1,0,0,0,0,.76.85.85,0,0,0,.47.44.76.76,0,0,0,.63,0,.87.87,0,0,0,.48-1.21A.81.81,0,0,0,341.92,424.22Z" style="fill:#dbdbdb"></path><path d="M166.34,247.42a1.76,1.76,0,0,1-.74-.16,1.87,1.87,0,0,1-1-.94,2,2,0,0,1,0-1.57,1.76,1.76,0,0,1,1-1h0a1.78,1.78,0,0,1,2.37,1,1.85,1.85,0,0,1-1,2.5A1.72,1.72,0,0,1,166.34,247.42Zm-.31-2.68a.74.74,0,0,0-.46.42,1,1,0,0,0,0,.76.92.92,0,0,0,.44.43.85.85,0,0,0,.67,0,.88.88,0,0,0,.48-1.21.81.81,0,0,0-1.12-.4Z" style="fill:#dbdbdb"></path><path d="M305.94,256.88a1.89,1.89,0,0,1-1.69-1.11,2,2,0,0,1,0-1.56,1.72,1.72,0,0,1,1.05-1h0a1.76,1.76,0,0,1,2.36,1,1.92,1.92,0,0,1-1.73,2.66Zm-.31-2.69h0a.78.78,0,0,0-.45.42,1,1,0,0,0,0,.77.84.84,0,0,0,.45.42.79.79,0,0,0,.66,0,.86.86,0,0,0,.48-1.2A.82.82,0,0,0,305.63,254.19Z" style="fill:#dbdbdb"></path><path d="M65.91,154.18a1.83,1.83,0,0,1-.73-.15,1.89,1.89,0,0,1-1-.95,2,2,0,0,1,0-1.56,1.72,1.72,0,0,1,1-1h0a1.77,1.77,0,0,1,2.36,1,1.9,1.9,0,0,1-1.73,2.65Zm.12-2.76a1.37,1.37,0,0,0-.43.08h0a.75.75,0,0,0-.45.42,1,1,0,0,0,0,.76.9.9,0,0,0,.45.43.79.79,0,0,0,.66,0,.87.87,0,0,0,.48-1.21A.71.71,0,0,0,66,151.42Z" style="fill:#dbdbdb"></path><path d="M114.67,330.25a1.76,1.76,0,0,1-.74-.16,1.84,1.84,0,0,1-1-.94,2,2,0,0,1,0-1.56,1.88,1.88,0,0,1,3.41,0,1.86,1.86,0,0,1-1,2.51A1.91,1.91,0,0,1,114.67,330.25Zm.12-2.76a1.37,1.37,0,0,0-.43.08h0a.74.74,0,0,0-.46.42,1,1,0,0,0,0,.76.88.88,0,0,0,.44.43.81.81,0,0,0,.67,0,.87.87,0,0,0,.47-1.21A.68.68,0,0,0,114.79,327.49Z" style="fill:#dbdbdb"></path><path d="M204.4,207.21a1.93,1.93,0,0,1-.74-.16,1.8,1.8,0,0,1-.95-1,2,2,0,0,1,0-1.56,1.72,1.72,0,0,1,1.05-1h0a1.77,1.77,0,0,1,2.36,1,1.85,1.85,0,0,1-1,2.5A1.72,1.72,0,0,1,204.4,207.21Zm-.31-2.69h0a.78.78,0,0,0-.45.42,1,1,0,0,0,0,.77.84.84,0,0,0,.45.42.78.78,0,0,0,.66,0,.88.88,0,0,0,.48-1.21A.82.82,0,0,0,204.09,204.52Z" style="fill:#dbdbdb"></path><path d="M426.14,218.81a1.92,1.92,0,0,1-.74-.15,1.8,1.8,0,0,1-.95-.95,2,2,0,0,1,0-1.56,1.72,1.72,0,0,1,1.05-1h0a1.77,1.77,0,0,1,2.36,1,1.9,1.9,0,0,1-1.73,2.65Zm-.31-2.68a.78.78,0,0,0-.45.42,1,1,0,0,0,0,.76.83.83,0,0,0,.45.43.79.79,0,0,0,.66,0,.87.87,0,0,0,.48-1.21.81.81,0,0,0-1.12-.4Z" style="fill:#dbdbdb"></path><path d="M357.06,169.72a2.82,2.82,0,0,1-2.8-2.87,2.9,2.9,0,0,1,2.8-3,2.93,2.93,0,0,1,0,5.85Zm0-4.85a1.91,1.91,0,0,0-1.8,2,1.84,1.84,0,1,0,1.8-2Z" style="fill:#dbdbdb"></path><path d="M172,70.44a3.93,3.93,0,0,1-2.51-.83,4.25,4.25,0,0,1-.38-6A4.38,4.38,0,0,1,172.53,62a3.85,3.85,0,0,1,3.07,1.44,4.56,4.56,0,0,1-.69,6h0A4.43,4.43,0,0,1,172,70.44Zm.51-7.46a3.3,3.3,0,0,0-2.61,1.21,3.24,3.24,0,0,0,.22,4.64,3.44,3.44,0,0,0,4.14-.17,3.6,3.6,0,0,0,.56-4.64,2.83,2.83,0,0,0-2.27-1Z" style="fill:#dbdbdb"></path><path d="M177.11,76.86a1.7,1.7,0,0,1-1.62-1.1,1.88,1.88,0,0,1,3.42-1.57,2,2,0,0,1,0,1.57,1.71,1.71,0,0,1-1,1h0A2.3,2.3,0,0,1,177.11,76.86Zm.11-2.76a.85.85,0,0,0-.33.07.86.86,0,0,0-.47,1.21.79.79,0,0,0,1.11.4h0a.76.76,0,0,0,.46-.42,1.05,1.05,0,0,0,0-.76.83.83,0,0,0-.45-.43A.77.77,0,0,0,177.22,74.1Z" style="fill:#dbdbdb"></path><path d="M166.79,80.37a2.78,2.78,0,0,1-2.16-.93,3,3,0,0,1-.71-2,3,3,0,0,1,.7-2,2.73,2.73,0,0,1,2.16-1h0a2.65,2.65,0,0,1,2.13,1,3.08,3.08,0,0,1,.67,1.87,3.26,3.26,0,0,1-.69,2,2.66,2.66,0,0,1-2.1,1h0Zm0-4.85h0a1.78,1.78,0,0,0-1.4.6,2,2,0,0,0-.46,1.33,2,2,0,0,0,.47,1.33,1.77,1.77,0,0,0,1.4.59h0a1.67,1.67,0,0,0,1.32-.64,2.21,2.21,0,0,0,.47-1.34,2.06,2.06,0,0,0-.45-1.25A1.66,1.66,0,0,0,166.79,75.52Z" style="fill:#dbdbdb"></path><path d="M397.86,94.69a2.82,2.82,0,0,1-2.8-2.87,2.91,2.91,0,0,1,2.8-3,2.93,2.93,0,0,1,0,5.85Zm0-4.85a1.91,1.91,0,0,0-1.8,2,1.84,1.84,0,1,0,3.68,0A1.83,1.83,0,0,0,397.86,89.84Z" style="fill:#dbdbdb"></path><path d="M93,152.43a2.82,2.82,0,0,1-2.8-2.87,2.9,2.9,0,0,1,2.8-3,2.93,2.93,0,0,1,0,5.85Zm0-4.85a1.91,1.91,0,0,0-1.8,2,1.84,1.84,0,1,0,1.8-2Z" style="fill:#dbdbdb"></path><path d="M104.34,338.81a2.82,2.82,0,0,1-2.8-2.87,2.91,2.91,0,0,1,2.8-3,2.93,2.93,0,0,1,0,5.85Zm0-4.85a1.91,1.91,0,0,0-1.8,2,1.84,1.84,0,1,0,1.8-2Z" style="fill:#dbdbdb"></path><path d="M170.44,256.34a2.82,2.82,0,0,1-2.81-2.87,2.92,2.92,0,0,1,2.81-3,2.93,2.93,0,0,1,0,5.85Zm0-4.85a1.92,1.92,0,0,0-1.81,2,1.84,1.84,0,1,0,1.81-2Z" style="fill:#dbdbdb"></path><path d="M192.87,406.52a2.82,2.82,0,0,1-2.8-2.88,2.91,2.91,0,0,1,2.8-3,2.93,2.93,0,0,1,0,5.86Zm0-4.86a1.92,1.92,0,0,0-1.8,2,1.84,1.84,0,1,0,1.8-2Z" style="fill:#dbdbdb"></path><path d="M264.71,100.49a2.82,2.82,0,0,1-2.8-2.88,2.91,2.91,0,0,1,2.8-3,2.93,2.93,0,0,1,0,5.86Zm0-4.86a1.91,1.91,0,0,0-1.8,2,1.84,1.84,0,1,0,1.8-2Z" style="fill:#dbdbdb"></path><path d="M307.1,268.23a2.82,2.82,0,0,1-2.8-2.87,2.91,2.91,0,0,1,2.8-3,2.93,2.93,0,0,1,0,5.85Zm0-4.85a1.91,1.91,0,0,0-1.8,2,1.84,1.84,0,1,0,3.68-.05A1.83,1.83,0,0,0,307.1,263.38Z" style="fill:#dbdbdb"></path></g><g id="freepik--Water--inject-24"><path d="M33,57c18.49-1.91,36.17-6.68,54-11.59,8-2.11,16-4.58,24.39-5.52a47.35,47.35,0,0,1,11.44.65c16,2.62,31.64,6.75,47.69,9.15,18.12,2.8,36.72,4.3,54.78.08,13.59-2.87,26.52-8.06,39.57-12.85,7.08-2.47,14.54-5.19,22.34-5.16a7.78,7.78,0,0,1,4.72,1.45,11.28,11.28,0,0,1,2,2c8.36,11.85,22,12.44,35.52,12.24,22.88-.7,45.66-4.79,68.54-7.1a42.82,42.82,0,0,1,15,1.15c9.27,2,18.13,4.73,27.08,7.2s17.76,5.19,26.94,6.17v1c-13.49.52-28.35-3-41.66-5.21-7.63-1.18-15.4-3.28-23.05-2.76-14.77,2.5-29.44,6.15-44.4,8-14.1,1.82-28.64,2.86-43,.73-11.2-1.48-21.76-7-27.93-16.88-10.16-.66-23.06,3.72-33.86,6.42-18,4.94-36.36,9.3-55.17,10.07a279,279,0,0,1-69.85-5.65,116.52,116.52,0,0,0-13.11-2c-3.74-.22-8.26.65-12.7,1.48C88.7,52.79,75,56,61.1,57.47A133.55,133.55,0,0,1,33,58V57Z" style="fill:#ebebeb"></path><path d="M139.93,46.61c13.41-2.2,26.29-4.39,39.35-7.57,4.33-1,8.59-2.11,13.18-3a22.38,22.38,0,0,1,7.75-.42c4.93.72,14.94,4,19.79,5.21a234.38,234.38,0,0,0,26.09,5.76c-15.61,2.56-31.52-1.34-46.75-4.2a18.09,18.09,0,0,0-5.59.51c-17.45,4-35.95,6.8-53.82,3.69Z" style="fill:#ebebeb"></path><path d="M294.65,46.61c13.41-2.2,26.29-4.39,39.34-7.57,4.34-1,8.6-2.11,13.19-3a22.38,22.38,0,0,1,7.75-.42c4.93.72,14.94,4,19.79,5.21a234.38,234.38,0,0,0,26.09,5.76c-15.61,2.56-31.52-1.34-46.75-4.2a18.09,18.09,0,0,0-5.59.51c-17.45,4-36,6.8-53.82,3.69Z" style="fill:#ebebeb"></path><path d="M371.78,387.8c-5.48.72-10.91-.63-16.21-1.62-10.22-2.19-20.28-4.9-30.51-6.33s-19.82-1.69-30,.15c-11.73,2-23,7.12-34.89,8.8a78,78,0,0,1-10.25.9c-22.4.51-43.68-9.55-65.87-9.95-9.44-.07-18.21,2.47-27.28,5.41-10.15,3.21-20.85,7.37-31.71,5.84v-1c10.47-1.92,19.31-7.62,28.76-12.14,9.86-4.93,20.92-8.95,32.3-8.72,21.44.45,41.54,11.13,62.23,15.09,10.21,2,20.7.43,30.38-3.38,10.05-3.86,19.84-9.28,30.91-10.46s22.21,1.36,32.59,4.8c9.55,3.08,18.26,7.78,27.63,11.12.61.16,1.24.31,1.88.49v1Z" style="fill:#ebebeb;opacity:0.30000000000000004"></path><path d="M440.37,290.05c-5.48.72-10.91-.63-16.21-1.63-10.22-2.19-20.28-4.89-30.51-6.32s-19.82-1.69-30,.15c-11.73,2-23,7.12-34.89,8.8a77.9,77.9,0,0,1-10.25.9c-22.39.51-43.68-9.56-65.87-9.95-9.44-.07-18.21,2.47-27.28,5.41-10.15,3.2-20.85,7.37-31.71,5.84v-1c10.47-1.92,19.31-7.62,28.76-12.14,9.86-4.93,20.92-9,32.3-8.72,21.45.45,41.54,11.12,62.23,15.08,10.22,2,20.7.44,30.38-3.37,10.05-3.86,19.84-9.28,30.91-10.46s22.21,1.36,32.59,4.8c9.56,3.08,18.26,7.78,27.63,11.12.61.15,1.24.31,1.88.49v1Z" style="fill:#ebebeb;opacity:0.30000000000000004"></path><path d="M429.09,139.73c-8.15,1.27-16.45-1.29-24.31-2.93-11-2.47-23-5.78-34-7.67-12-1.91-23.42,2.8-34,8-25.14,12.78-47.56,5.41-72.2-3.49-3.09-1.08-8.08-2.79-11.21-3.74-3.77-1.19-7.59-2.11-11.55-3.06v-1c23.93-4.43,47.11,7.1,70.56,8.58,19.65.7,38.88-8,58.38-10.83a63.88,63.88,0,0,1,14.16-.29c11.68,1.38,22.75,6,33.31,10.82,2.71,1.24,5.36,2.54,8.12,3.62.93.41,1.83.63,2.8,1v1Z" style="fill:#ebebeb;opacity:0.5"></path><path d="M248.41,408.57c-8.15,1.27-16.45-1.3-24.3-2.94-11.05-2.47-23-5.77-34.06-7.67-12-1.9-23.42,2.8-34,8-25.14,12.78-47.55,5.41-72.2-3.5-3.09-1.08-8.08-2.79-11.21-3.74-3.77-1.18-7.58-2.1-11.55-3.06v-1c23.93-4.42,47.11,7.1,70.57,8.59,19.65.7,38.88-8,58.37-10.84a64.51,64.51,0,0,1,14.16-.29c11.68,1.39,22.75,6,33.31,10.83,2.72,1.24,5.36,2.53,8.13,3.62.92.41,1.82.63,2.79,1v1Z" style="fill:#ebebeb;opacity:0.30000000000000004"></path><path d="M59.63,200.27c5.1-1.61,10.76-.68,15.85.24a73.58,73.58,0,0,1,14.41,4.21c4.55,2,9,4.78,13.81,5.94a33.21,33.21,0,0,0,14.71.23c3.42-.72,7.15-1.85,10.48-2.75,5.83-1.61,11.21-4.07,17.16-6,9.7-3.08,21.1-5.17,31.15-1.84v1c-5,1.72-9.56,3.34-14,5.21-4.15,1.69-9.44,4.15-13.58,5.71-8.34,3.09-18,5.44-27.12,4.66-6.53-.73-13-2.41-19.33-3.06-5.08-.58-10.45-.29-15.57-1.1s-9.8-2.77-14.44-4.79-8.84-4.53-13.5-6.67v-1Z" style="fill:#ebebeb;opacity:0.30000000000000004"></path><path d="M300.54,162.2c-5.09,1.61-10.75.69-15.85-.24a73.76,73.76,0,0,1-14.41-4.2c-4.55-2-9-4.79-13.81-5.95a33.36,33.36,0,0,0-14.71-.22c-3.42.71-7.14,1.85-10.47,2.75-5.84,1.61-11.21,4.06-17.17,6-9.7,3.08-21.1,5.18-31.15,1.85v-1c5-1.72,9.56-3.34,14-5.22,4.14-1.68,9.43-4.14,13.57-5.71,8.34-3.08,18-5.43,27.13-4.66,6.52.74,13,2.42,19.33,3.07,5.07.58,10.44.28,15.56,1.1s9.81,2.77,14.45,4.79,8.83,4.52,13.49,6.66v1Z" style="fill:#ebebeb;opacity:0.5"></path><path d="M143.44,304.19c5.09-1.61,10.75-.69,15.85.23a73.78,73.78,0,0,1,14.41,4.21c4.55,2,9,4.79,13.81,5.94a33.21,33.21,0,0,0,14.71.23c3.42-.71,7.15-1.85,10.47-2.75,5.84-1.61,11.21-4.06,17.17-6,9.7-3.08,21.1-5.17,31.15-1.84v1c-5,1.72-9.56,3.34-14,5.22-4.14,1.68-9.43,4.14-13.57,5.71-8.34,3.08-18,5.43-27.13,4.66-6.52-.74-13-2.42-19.33-3.07-5.07-.58-10.44-.29-15.56-1.1s-9.81-2.77-14.45-4.79-8.83-4.53-13.49-6.66v-1Z" style="fill:#ebebeb;opacity:0.5"></path></g></svg>
