<svg xmlns="http://www.w3.org/2000/svg" viewBox="0 0 500 500"><g id="freepik--background-complete--inject-2"><rect y="382.4" width="500" height="0.25" style="fill:#ebebeb"></rect><rect x="332.11" y="389.21" width="97.6" height="0.25" style="fill:#ebebeb"></rect><rect x="289" y="394.99" width="46.67" height="0.25" style="fill:#ebebeb"></rect><rect x="430.71" y="398.49" width="19.19" height="0.25" style="fill:#ebebeb"></rect><rect x="126.47" y="395.11" width="92.53" height="0.25" style="fill:#ebebeb"></rect><rect x="97.67" y="395.11" width="19.9" height="0.25" style="fill:#ebebeb"></rect><rect x="57.79" y="390.89" width="32.86" height="0.25" style="fill:#ebebeb"></rect><path d="M237,337.8H43.91a5.71,5.71,0,0,1-5.7-5.71V60.66A5.71,5.71,0,0,1,43.91,55H237a5.71,5.71,0,0,1,5.71,5.71V332.09A5.71,5.71,0,0,1,237,337.8ZM43.91,55.2a5.46,5.46,0,0,0-5.45,5.46V332.09a5.46,5.46,0,0,0,5.45,5.46H237a5.47,5.47,0,0,0,5.46-5.46V60.66A5.47,5.47,0,0,0,237,55.2Z" style="fill:#ebebeb"></path><path d="M453.31,337.8H260.21a5.72,5.72,0,0,1-5.71-5.71V60.66A5.72,5.72,0,0,1,260.21,55h193.1A5.71,5.71,0,0,1,459,60.66V332.09A5.71,5.71,0,0,1,453.31,337.8ZM260.21,55.2a5.47,5.47,0,0,0-5.46,5.46V332.09a5.47,5.47,0,0,0,5.46,5.46h193.1a5.47,5.47,0,0,0,5.46-5.46V60.66a5.47,5.47,0,0,0-5.46-5.46Z" style="fill:#ebebeb"></path><rect x="133.48" y="298.28" width="58.18" height="84.11" style="fill:#e6e6e6"></rect><rect x="57.02" y="298.28" width="76.46" height="84.11" transform="translate(190.51 680.68) rotate(180)" style="fill:#f0f0f0"></rect><rect x="57.02" y="291.12" width="134.64" height="8.71" style="fill:#e6e6e6;opacity:0.7000000000000001;mix-blend-mode:multiply"></rect><rect x="133.48" y="290.23" width="61.11" height="8.05" style="fill:#e6e6e6"></rect><rect x="54.09" y="290.23" width="79.4" height="8.05" transform="translate(187.57 588.51) rotate(180)" style="fill:#f0f0f0"></rect><rect x="213.85" y="330.48" width="47.6" height="51.92" style="fill:#ebebeb"></rect><rect x="151.29" y="330.48" width="62.55" height="51.92" transform="translate(365.14 712.87) rotate(180)" style="fill:#f5f5f5"></rect><rect x="151.29" y="324.61" width="110.15" height="7.13" style="fill:#e6e6e6;opacity:0.7000000000000001;mix-blend-mode:multiply"></rect><rect x="213.85" y="323.89" width="50" height="6.59" style="fill:#ebebeb"></rect><rect x="148.89" y="323.89" width="64.96" height="6.59" transform="translate(362.74 654.36) rotate(180)" style="fill:#f5f5f5"></rect><circle cx="267.03" cy="361.54" r="20.86" style="fill:#f5f5f5"></circle><circle cx="291.03" cy="367.47" r="14.92" style="fill:#ebebeb"></circle><rect x="395.32" y="289.63" width="19.96" height="92.77" style="fill:#e0e0e0"></rect><polygon points="326.66 382.4 407.36 382.4 417.33 272.78 336.64 272.78 326.66 382.4" style="fill:#e6e6e6"></polygon><polygon points="322.49 382.4 403.18 382.4 413.15 272.78 332.46 272.78 322.49 382.4" style="fill:#f0f0f0"></polygon><polygon points="392.15 370.26 399.92 284.91 343.49 284.91 335.73 370.26 392.15 370.26" style="fill:#fff"></polygon></g><g id="freepik--Shadow--inject-2"><ellipse id="freepik--path--inject-2" cx="250" cy="416.24" rx="193.89" ry="11.32" style="fill:#f5f5f5"></ellipse></g><g id="freepik--Window--inject-2"><rect x="250.75" y="101.89" width="193.83" height="148.61" style="fill:#407BFF"></rect><rect x="250.75" y="101.89" width="193.83" height="148.61" style="fill:#fff;opacity:0.8"></rect><rect x="52.75" y="101.89" width="193.83" height="148.61" style="fill:#407BFF"></rect><rect x="52.75" y="101.89" width="193.83" height="148.61" style="fill:#fff;opacity:0.8"></rect><g style="opacity:0.2"><polygon points="221 217.37 177.75 217.37 177.75 229.17 167.89 229.17 167.89 237.04 162.38 237.04 162.38 229.17 145.89 229.17 145.89 237.04 115.88 237.04 115.88 241 80.67 241 80.67 222.65 64.85 222.65 64.85 237.58 52.75 237.58 52.75 250.5 64.85 250.5 73.83 250.5 80.67 250.5 115.88 250.5 135.87 250.5 145.89 250.5 162.38 250.5 167.89 250.5 170.56 250.5 177.75 250.5 184.38 250.5 207.92 250.5 221 250.5 246.58 250.5 246.58 237.09 221 237.09 221 217.37" style="fill:#407BFF"></polygon></g><polygon points="176.07 250.52 144.11 250.52 171.14 101.89 203.11 101.89 176.07 250.52" style="fill:#fff;opacity:0.5"></polygon><polygon points="432.48 237.58 432.48 222.65 416.67 222.65 416.67 241 381.45 241 381.45 237.04 348.62 237.04 348.62 229.17 319.58 229.17 319.58 217.37 289.42 217.37 289.42 237.09 250.75 237.09 250.75 250.5 289.42 250.5 312.96 250.5 319.58 250.5 345.79 250.5 348.62 250.5 361.46 250.5 381.45 250.5 416.67 250.5 423.5 250.5 432.48 250.5 444.58 250.5 444.58 237.58 432.48 237.58" style="fill:#407BFF;opacity:0.2"></polygon><polygon points="359.6 250.52 317.94 250.52 344.98 101.89 386.63 101.89 359.6 250.52" style="fill:#fff;opacity:0.5"></polygon><polygon points="134.25 250.52 118.27 250.52 145.3 101.89 161.28 101.89 134.25 250.52" style="fill:#fff;opacity:0.5"></polygon><path d="M290,138.37c.85-1.62,3-3,5.54-3.6a12.84,12.84,0,0,1,8.66-4.09,11.1,11.1,0,0,1,2.87.13,18,18,0,0,1,11.26-5c4.38-.34,7.7,1,8.86,3.24a14.33,14.33,0,0,1,2.27-.37c3.37-.26,5.9.83,6.63,2.62a10.73,10.73,0,0,1,3.59-.92c3.43-.27,5.71,1.31,5.1,3.53a4.09,4.09,0,0,1-.81,1.46c4.9.45,8.88,1.68,6.43,3.18h0l-68.16,5.31h0C280.38,140.69,285.54,139.18,290,138.37Z" style="fill:#fff"></path><path d="M200.54,206.56a4.19,4.19,0,0,1,2.77-1.8,6.38,6.38,0,0,1,4.33-2,5.11,5.11,0,0,1,1.43.07,9,9,0,0,1,5.63-2.49c2.19-.17,3.85.5,4.43,1.62a7.19,7.19,0,0,1,1.13-.18c1.69-.14,3,.41,3.32,1.31a5.44,5.44,0,0,1,1.8-.47c1.71-.13,2.85.66,2.55,1.77a2.06,2.06,0,0,1-.41.73c2.45.23,4.44.84,3.22,1.59h0l-34.08,2.65h0C195.74,207.72,198.32,207,200.54,206.56Z" style="fill:#fff"></path><path d="M376.45,193.15a2.14,2.14,0,0,1,.06-.86c.52-1.87,3.29-3.57,6.19-3.8a6.88,6.88,0,0,1,1.72.07,11.52,11.52,0,0,1,7.19-3.16,8.16,8.16,0,0,1,3.86.52,13.89,13.89,0,0,1,7.34-2.77c4.55-.36,7.58,1.74,6.77,4.68l-.06.18.21,0c2.2-.18,3.67.84,3.27,2.26a2.9,2.9,0,0,1-.86,1.3c2.31.38,3.8,1,2.51,1.84h0l-43.75,3.4h0C369.64,194.6,373.51,193.65,376.45,193.15Z" style="fill:#fff"></path><path d="M84.4,138a2,2,0,0,1,.06-.86c.52-1.87,3.29-3.57,6.19-3.8a6.8,6.8,0,0,1,1.71.07,11.55,11.55,0,0,1,7.19-3.16,8.16,8.16,0,0,1,3.86.52,13.89,13.89,0,0,1,7.34-2.77c4.55-.36,7.58,1.74,6.76,4.68a1.27,1.27,0,0,1-.06.18l.21,0c2.2-.18,3.67.84,3.28,2.26a3,3,0,0,1-.86,1.3c2.31.37,3.79,1,2.5,1.84h0l-43.74,3.4h0C77.59,139.49,81.45,138.53,84.4,138Z" style="fill:#fff"></path></g><g id="freepik--character-1--inject-2"><path d="M68.83,389.17C66.5,396.83,64,404.91,64,404.91l5.92,1.76,5.91-14.34Z" style="fill:#ce7a63"></path><path d="M120.19,396.19c1.36,7.9,2.75,16.25,2.75,16.25l6.07-1.09-1.14-15.47Z" style="fill:#ce7a63"></path><path d="M127.27,157.66c3.68,2.94,3.65,7.64.81,11.19s-7.42,4.61-11.1,1.67-5.08-8.79-2.24-12.34S123.58,154.71,127.27,157.66Z" style="fill:#407BFF"></path><path d="M130,164.63l-5.64,7a8.36,8.36,0,0,0,2.18-1.28.59.59,0,0,1,.75,0l6.84,5.75c.59.5,3-2.5,2.37-3l-7.11-5.41a.59.59,0,0,1-.17-.73A8.38,8.38,0,0,0,130,164.63Z" style="fill:#407BFF"></path><path d="M130,164.63l-5.64,7a8.36,8.36,0,0,0,2.18-1.28.59.59,0,0,1,.75,0l6.84,5.75c.59.5,3-2.5,2.37-3l-7.11-5.41a.59.59,0,0,1-.17-.73A8.38,8.38,0,0,0,130,164.63Z" style="fill:#fff;opacity:0.6000000000000001"></path><path d="M83.38,229.42l-4.74,4.33c-1.6,1.45-3.14,2.94-4.64,4.4s-2.9,2.95-4.07,4.33c-.58.67-1.07,1.36-1.4,1.82-.16.23-.26.41-.29.39s.05-.26,0-1.11l-.2-1.11c.43,2.1.87,4.29,1.35,6.47l1.43,6.63c.92,4.46,1.84,9,2.52,13.52h0a3.9,3.9,0,0,1-7.2,2.57c-1.21-2-2.28-4.09-3.35-6.17s-2.05-4.18-3-6.3-1.9-4.26-2.75-6.45-1.72-4.4-2.47-6.72a3.72,3.72,0,0,1-.17-.79l0-.32a11.48,11.48,0,0,1,.42-4.48,18.26,18.26,0,0,1,1-2.77,30,30,0,0,1,2.29-3.94,56,56,0,0,1,4.82-6.09c1.65-1.87,3.36-3.58,5.1-5.25s3.49-3.22,5.48-4.81a7.72,7.72,0,0,1,10,11.73Z" style="fill:#cf7a64"></path><path d="M72.32,268.11l4,3.19-7.47,5.21a15.36,15.36,0,0,1-2.54-3.62,4,4,0,0,1,1.84-5.26h0A4,4,0,0,1,72.32,268.11Z" style="fill:#ce7a63"></path><path d="M77.2,279.13l-2.92,1.39a2.63,2.63,0,0,1-3.29-.88l-2.17-3.13,7.47-5.21,2.13,4.28A2.62,2.62,0,0,1,77.2,279.13Z" style="fill:#ce7a63"></path><path d="M136.48,171l-.18-3.8a2.63,2.63,0,0,0-2.32-2.49l-3.21-.37a2.63,2.63,0,0,0-2.93,2.36l-.45,4.76,2.49,7.17,4.59.5C137.94,177.72,136.48,171,136.48,171Z" style="fill:#ce7a63"></path><path d="M61.69,410.49l5.41,1.43.83-.45.84.88c3.3.87,7.79,1.92,10.1,1.76a1.42,1.42,0,0,0-.07-1.5s-8-5-8.34-7l-6.63-1.75" style="fill:#263238"></path><path d="M121.32,417.14h5.59l.69-.64,1,.64c3.41,0,10.4-.13,12.59-.87a1.42,1.42,0,0,0-.45-1.43s-10.2-2.8-11-4.68h-8.06" style="fill:#263238"></path><path d="M81.44,337.41c1.12-28.93-1.55-47,3.58-62.29L110.61,271s-4.72,49-10.38,69.28-25.31,56.27-25.31,56.27l-8.43-2.24S73.9,361.15,81.44,337.41Z" style="fill:#263238"></path><path d="M101.51,295.26l4.76,12.33c-1.52,10.81-3.34,21.86-5.29,29.82C98.9,323,100.41,299.32,101.51,295.26Z" style="opacity:0.2"></path><path d="M110.07,339.78a252.15,252.15,0,0,1-17-65.95l28-4.57s4.14,50.54,6,71.32c1.89,21.6,2,60.15,2,60.15l-9.23,1.83S111,366.64,110.07,339.78Z" style="fill:#263238"></path><path d="M82.68,195.54c1.65,5.32,3,14.4,1.4,18.74,3.1,2.13,7.63,3.19,13.5,2.24s4.55-3.33,2.67-5.15c-4.52-1.5-4.12-6.5-3.36-8.54Z" style="fill:#ce7a63"></path><path d="M98,189.21c.17.52.59.85.93.74s.48-.64.31-1.16-.59-.85-.93-.74S97.82,188.69,98,189.21Z" style="fill:#263238"></path><path d="M98.2,190a19.46,19.46,0,0,0,4,3.63,3.18,3.18,0,0,1-2.33,1.31Z" style="fill:#ba4d3c"></path><path d="M98,185.6a.31.31,0,0,1-.25.18,2.53,2.53,0,0,0-2,1.26.33.33,0,0,1-.44.15.34.34,0,0,1-.15-.43,3.18,3.18,0,0,1,2.46-1.62.32.32,0,0,1,.36.28A.28.28,0,0,1,98,185.6Z" style="fill:#263238"></path><path d="M79.88,193.67c2.51,6.28,3.66,10.09,8,12.29,6.5,3.31,13.45-2.32,12.87-9.24-.53-6.24-4.54-15.47-11.65-15.9A9.34,9.34,0,0,0,79.88,193.67Z" style="fill:#ce7a63"></path><path d="M92.78,193.11c3-1.05,3.33-4.78,2.16-5.5,2.67-3.11,5.43-9.23-1.08-10.39s-10.15.24-12.58.61a9.8,9.8,0,0,0,2.94.95c-4.26.39-8,3.92-11,5.89a9.7,9.7,0,0,0,2.83.24s-4.61,3.92-.78,6.7c-1.66,1.33,2.34,9.75,9.34,13.18,7.66-.07,7.22-2.12,7.22-2.12S96.67,196.05,92.78,193.11Z" style="fill:#263238"></path><path d="M90.7,194a5.71,5.71,0,0,0,3.47,2.35c1.78.34,2.33-1.46,1.54-3.2-.71-1.56-2.49-3.63-4.14-3.18S89.65,192.44,90.7,194Z" style="fill:#ce7a63"></path><path d="M78.72,214.16c9-2.46,21.9-4.25,30.71-4a9.85,9.85,0,0,1,9.29,7.67c3,12.94,3.44,36.25,4.31,59.66-19.21,9.73-40.72,5.87-40.72,5.87-1.13-4.59-.85-20.18-.48-28.55-2.38-8.22-6.7-17.41-10-28.32A9.86,9.86,0,0,1,78.72,214.16Z" style="fill:#407BFF"></path><path d="M119.36,221l-10.72,3.61c4.08,2.67,8,2.76,11.65,2.67C120,225,119.71,222.88,119.36,221Z" style="opacity:0.2"></path><path d="M119.35,276.52c-.34-15.78-2.38-48.11-5.23-56.37l.47-.16c2.87,8.31,4.92,40.71,5.26,56.52Z" style="fill:#fff;opacity:0.5"></path><path d="M110.2,210.92l2.9-1.2c1-.44,2-.87,3-1.33,2-.9,3.91-1.88,5.75-2.89a43.26,43.26,0,0,0,5-3.22,16.51,16.51,0,0,0,3.29-3.2l-.45,1.07a13.06,13.06,0,0,0,1-4.28,39.16,39.16,0,0,0,0-5.73c-.12-2-.37-4.09-.66-6.19s-.66-4.27-1-6.28l0-.26a3.87,3.87,0,0,1,7.1-2.68,51.2,51.2,0,0,1,3.42,6.38,55.74,55.74,0,0,1,2.57,6.84,39.59,39.59,0,0,1,1.53,7.58,24.21,24.21,0,0,1-.65,9,3,3,0,0,1-.23.62l-.22.45a26.56,26.56,0,0,1-6,7.83,45.72,45.72,0,0,1-6.77,5.19,62.56,62.56,0,0,1-7,3.89c-1.2.57-2.39,1.12-3.62,1.61-.61.25-1.23.49-1.85.72s-1.21.44-2,.7a7.72,7.72,0,0,1-5.41-14.45Z" style="fill:#cf7a64"></path><path d="M143.45,280.87l-.46-.2c.37-.83.83-1.8,1.36-2.93a90.72,90.72,0,0,0,5.29-13l.48.14A91.37,91.37,0,0,1,144.8,278C144.27,279.08,143.81,280.05,143.45,280.87Z" style="fill:#407BFF"></path><path d="M152.52,255.79l-.49-.11c4.85-20.43,9.93-58.23-10.56-81.85l.38-.33C162.48,197.29,157.39,235.27,152.52,255.79Z" style="fill:#407BFF"></path></g><g id="freepik--character-2--inject-2"><path d="M413.32,209.78c-5.45-6.06-16-3.22-21.89.89l1.5,4.83c6.15-1.64,6.94,5.48,9.61,12.61,3.81,10.14,17.22,16.2,27.52,4.53C415.32,229.89,417.88,214.85,413.32,209.78Z" style="fill:#263238"></path><path d="M426.86,230.55a4.8,4.8,0,0,1-1.14-.13c-4.19-1-6.76-7.17-9-12.64-1.36-3.28-2.65-6.38-4-7.76-5.63-5.55-15.75-2-21.14,2.24a.5.5,0,0,1-.7-.08.52.52,0,0,1,.08-.71c5.68-4.49,16.4-8.14,22.46-2.16,1.54,1.52,2.86,4.71,4.26,8.09,2.17,5.24,4.63,11.18,8.32,12,1.73.41,3.62-.32,5.77-2.2a.5.5,0,0,1,.71,0,.51.51,0,0,1-.05.71C430.43,229.69,428.58,230.55,426.86,230.55Z" style="fill:#263238"></path><path d="M391.15,209.11c3.72-.89,6.48,1.08,6.11,4.72s-3.44,4.28-4.5,2.67S391.15,209.11,391.15,209.11Z" style="fill:#407BFF"></path><path d="M370.82,216a9.09,9.09,0,0,1,6.65-10.61c5.89-1.25,13.07-.11,16.46,5s-1.94,19-10.39,18.78C371.83,228.81,370.82,216,370.82,216Z" style="fill:#263238"></path><path d="M379.6,283.72s-4.18,30.16-7.92,50c-3.93,20.81-18.6,67.73-19.23,69.14l5.54,2.45s25-39.6,25.54-64.07c9.73-14.93,15.24-31.89,17-41.55,2.17-12.21-2.69-23.1-2.69-23.1Z" style="fill:#407BFF"></path><path d="M395.28,297.21a1.34,1.34,0,0,0-.07.18c-2.11,4.41-3.22,12.29-3.22,19.67a63.35,63.35,0,0,0,.44,7.63,124.32,124.32,0,0,0,6.94-19.88Z" style="opacity:0.2"></path><path d="M349.25,409.76a48.07,48.07,0,0,0,3.2-6.93,9.62,9.62,0,0,1,5.54,2.45c-1.51,3.25-3.26,6.17-3.26,6.17Z" style="fill:#ffb573"></path><path d="M377.91,249c0,.47,0,.71,0,1l0,.92c0,.6-.06,1.2-.11,1.79-.1,1.19-.25,2.36-.46,3.53a35.71,35.71,0,0,1-2,6.92,29.78,29.78,0,0,1-3.53,6.5,26.67,26.67,0,0,1-2.42,2.91c-.46.44-.9.9-1.39,1.31l-.36.32-.18.15-.31.27a6.56,6.56,0,0,1-2,1.09,9.16,9.16,0,0,1-2.94.47,14.34,14.34,0,0,1-2.18-.18,27.23,27.23,0,0,1-3.6-.83,52.88,52.88,0,0,1-6.27-2.38,87,87,0,0,1-11.37-6.14,2.49,2.49,0,0,1,2.1-4.48l.06,0c3.89,1.27,7.87,2.51,11.74,3.59,1.93.53,3.87,1,5.7,1.32a18.19,18.19,0,0,0,2.56.3,5.56,5.56,0,0,0,1,0c.23,0,.38-.11.14-.06a2,2,0,0,0-.64.34s-.09.09-.07.06l.05,0,.11-.12.21-.22c.29-.29.54-.62.8-.93a22.56,22.56,0,0,0,1.43-2,25.28,25.28,0,0,0,2.14-4.65,33.64,33.64,0,0,0,1.28-5.19c.16-.88.28-1.79.36-2.68,0-.45.07-.9.09-1.34l0-.64v-.86a5,5,0,0,1,10,0Z" style="fill:#ffb573"></path><path d="M405.46,275.13s6.85,4.51,9.38,16.65c2,9.6.71,24.31-1.21,44.33,11.13,20,1.6,68.33,1.6,68.33h-6.05c.07-1.54-5.9-48.47-10-69.25-3.9-19.78-14.19-57.43-14.19-57.43Z" style="fill:#407BFF"></path><path d="M408.19,411s1-1.59,1-6.79c0,0,3.62-.92,6.05.21-.19,3.59-.48,7.06-.48,7.06Z" style="fill:#ffb573"></path><path d="M415.21,409.09h-7a.58.58,0,0,0-.4.14,31.32,31.32,0,0,1-9.29,4,2.2,2.2,0,0,0-1.56,1.56h17.72a1.54,1.54,0,0,0,1.52-1.84,17.77,17.77,0,0,1-.36-3.25A.65.65,0,0,0,415.21,409.09Z" style="fill:#263238"></path><path d="M356,409.09h-7a.59.59,0,0,0-.4.14,31.18,31.18,0,0,1-9.29,4,2.21,2.21,0,0,0-1.56,1.56h17.73A1.54,1.54,0,0,0,357,413a19.71,19.71,0,0,1-.36-3.25A.64.64,0,0,0,356,409.09Z" style="fill:#263238"></path><path d="M368.17,252.48c.67,2.6-2.2,9.53,3.65,12a116.88,116.88,0,0,0,7.78,19.27l25.86-8.59C401,266.25,401,261.56,401,243.92a6.87,6.87,0,0,0-7.62-6.83c-1.08.11-2.23.26-3.4.45a87,87,0,0,0-12.1,2.55c-1.28.39-2.6.84-3.85,1.29A9.35,9.35,0,0,0,368.17,252.48Z" style="fill:#263238"></path><path d="M385.93,224.16c.05,4.06.79,11.35,4.06,13.38,0,0-8.67,4.44-11.75,12.47-3.38-4.83-.35-9.92-.35-9.92,4.12-2,3.33-5.15,1.94-8Z" style="fill:#ffb573"></path><path d="M395.35,244.31h0l5.67,3.16h0l.08,7.83h0c-2.56-2.8-5.37-7.94-5.74-10.92,0,0,0-.06,0-.08Z" style="opacity:0.2"></path><path d="M383.44,227.39l-3.61,4.68a12.6,12.6,0,0,1,.83,2.07c1.61-.59,3.5-2.9,3.31-4.67A5.77,5.77,0,0,0,383.44,227.39Z" style="opacity:0.2"></path><path d="M388.53,216.15c-.19,6.66-.13,9.48-3.31,13-4.78,5.29-12.75,3.59-14.52-3-1.59-5.92-1-15.81,5.27-18.66A8.94,8.94,0,0,1,388.53,216.15Z" style="fill:#ffb573"></path><path d="M376.62,206.28c3.44,8.68,12,9.58,11.77,14.1C391.87,215.22,389.2,204.67,376.62,206.28Z" style="fill:#263238"></path><path d="M378.64,218.2c0,.54-.26,1-.61,1s-.65-.42-.67-1,.25-1,.61-1S378.62,217.66,378.64,218.2Z" style="fill:#263238"></path><path d="M372,218.51c0,.54-.25,1-.61,1s-.65-.42-.67-1,.26-1,.61-1S372,218,372,218.51Z" style="fill:#263238"></path><path d="M371.48,217.57l-1.31-.33S370.87,218.23,371.48,217.57Z" style="fill:#263238"></path><path d="M374.1,219.07a14.36,14.36,0,0,1-1.82,3.51,2.34,2.34,0,0,0,1.94.3Z" style="fill:#ed893e"></path><path d="M377.69,225.05a6.18,6.18,0,0,1-.91.1.14.14,0,0,1-.16-.15.16.16,0,0,1,.15-.17,4.27,4.27,0,0,0,3.44-1.78.16.16,0,1,1,.27.16A4.45,4.45,0,0,1,377.69,225.05Z" style="fill:#263238"></path><path d="M389.94,221.09a4.27,4.27,0,0,1-2.7,2.26c-1.48.37-2.17-1.27-1.7-2.9.42-1.47,1.7-3.43,3.17-3.06S390.66,219.66,389.94,221.09Z" style="fill:#ffb573"></path><path d="M380.28,215.08a.35.35,0,0,1-.22-.12,2.53,2.53,0,0,0-2.06-1,.33.33,0,0,1-.35-.29.32.32,0,0,1,.29-.34,3.14,3.14,0,0,1,2.62,1.25.31.31,0,0,1-.05.44A.29.29,0,0,1,380.28,215.08Z" style="fill:#263238"></path><path d="M370.31,215.08a.37.37,0,0,1-.23,0,.33.33,0,0,1-.11-.44,3.14,3.14,0,0,1,2.45-1.55.31.31,0,0,1,.33.31.31.31,0,0,1-.31.32,2.55,2.55,0,0,0-1.93,1.25A.3.3,0,0,1,370.31,215.08Z" style="fill:#263238"></path><path d="M378.12,217.26l-1.31-.33S377.51,217.92,378.12,217.26Z" style="fill:#263238"></path><path d="M403.08,278.19A4.88,4.88,0,0,0,399.5,276l-1.76-.19a5.92,5.92,0,0,0-5.13,2.06h0a2.12,2.12,0,0,0-.24,2.4l1.23,2.25a2.14,2.14,0,0,0,2.75.91l1.13-.51s4.18-1.34,6.1-4Z" style="fill:#ffb573"></path><path d="M398.57,238.59c1.07.66,1.9,1.21,2.79,1.86s1.73,1.27,2.58,1.94a63,63,0,0,1,4.86,4.26A47.65,47.65,0,0,1,417,257.06c.28.49.55,1,.81,1.53.14.25.25.52.38.78l.19.4.11.25c.08.19.16.37.23.56a6.94,6.94,0,0,1,.36,2.17,7.73,7.73,0,0,1-.2,1.75,10,10,0,0,1-.95,2.43,22.26,22.26,0,0,1-4.71,5.55,55.52,55.52,0,0,1-10.43,7.21,2.5,2.5,0,0,1-3-3.92l.07-.08c2.69-2.8,5.45-5.7,7.75-8.57.57-.71,1.09-1.44,1.55-2.13a9.74,9.74,0,0,0,1-1.87c.08-.24.09-.42.06-.4a.54.54,0,0,0-.06.26,1.93,1.93,0,0,0,.1.69,1.72,1.72,0,0,0,.07.21c0,.06,0-.06-.05-.08l-.16-.28c-.11-.18-.2-.36-.32-.54-.23-.36-.45-.72-.7-1.08a45.86,45.86,0,0,0-7.18-8c-1.36-1.25-2.8-2.43-4.26-3.6-.73-.58-1.48-1.14-2.23-1.69s-1.55-1.11-2.18-1.53l-.12-.08a5,5,0,0,1,5.4-8.41Z" style="fill:#ffb573"></path><path d="M341.38,262.7l-1.12-1.36a5.93,5.93,0,0,0-5.11-2.16h0a2.13,2.13,0,0,0-1.86,1.54l-.71,2.46a2.13,2.13,0,0,0,1.31,2.58l1.17.44s3.91,2,7.12,1.47l.19-.89A4.88,4.88,0,0,0,341.38,262.7Z" style="fill:#ffb573"></path><path d="M348.42,253.06c-1,4.62-5.17,6.71-9.62,5.78s-7.46-4.53-6.5-9.15,5.55-8.5,10-7.57S349.39,248.44,348.42,253.06Z" style="fill:#407BFF"></path><path d="M343.45,258.67l-8.84-1.84a8.8,8.8,0,0,0,2.13,1.36.61.61,0,0,1,.35.67l-2,8.7c-.18.75,3.58,1.53,3.72.78l1.61-8.79a.58.58,0,0,1,.58-.48A8.61,8.61,0,0,0,343.45,258.67Z" style="fill:#407BFF"></path><path d="M343.45,258.67l-8.84-1.84a8.8,8.8,0,0,0,2.13,1.36.61.61,0,0,1,.35.67l-2,8.7c-.18.75,3.58,1.53,3.72.78l1.61-8.79a.58.58,0,0,1,.58-.48A8.61,8.61,0,0,0,343.45,258.67Z" style="fill:#fff;opacity:0.6000000000000001"></path><path d="M342.13,262.89c-.6-3.08-3.32-3.83-5.25-5.06-.32-.21-1.16.4-.89,1.05a3.16,3.16,0,0,0,1.63,1.92,3.91,3.91,0,0,0,2.87,4.4A4,4,0,0,0,342.13,262.89Z" style="fill:#ffb573"></path><path d="M401.53,273.56c-1.27.84-3.35,2-2.85,3s2.41,4.36,3.53,4.11a7.14,7.14,0,0,0,3.55-2.34C406.52,277.3,402.31,273.06,401.53,273.56Z" style="fill:#fff"></path></g><g id="freepik--Table--inject-2"><path d="M163.78,318.06h3.11v92.72a1.55,1.55,0,0,1-1.56,1.55h0a1.54,1.54,0,0,1-1.55-1.55Z" style="fill:#263238"></path><path d="M148.34,329h3.11v90.29a1.55,1.55,0,0,1-1.55,1.56h0a1.56,1.56,0,0,1-1.56-1.56Z" style="fill:#263238"></path><polygon points="165.33 345.9 149.9 352.05 149.9 343.49 165.33 337.34 165.33 345.9" style="fill:#263238"></polygon><path d="M336.22,318.06h-3.11v92.72a1.55,1.55,0,0,0,1.56,1.55h0a1.54,1.54,0,0,0,1.55-1.55Z" style="fill:#263238"></path><path d="M351.66,329h-3.11v90.29a1.55,1.55,0,0,0,1.55,1.56h0a1.56,1.56,0,0,0,1.56-1.56Z" style="fill:#263238"></path><polygon points="334.67 345.9 350.1 352.05 350.1 343.49 334.67 337.34 334.67 345.9" style="fill:#263238"></polygon><path d="M250,316.87h0a1.34,1.34,0,0,1-1.33-1.33V303.79a1.34,1.34,0,0,1,1.33-1.33h0a1.34,1.34,0,0,1,1.33,1.33v11.75A1.34,1.34,0,0,1,250,316.87Z"></path><polygon points="376.33 325.27 123.67 325.27 173.31 309.67 326.7 309.67 376.33 325.27" style="fill:#407BFF"></polygon><path d="M345.58,315.6h0l-18.88-5.93H173.3l-18.88,5.93-1.31.41-29.44,9.26H376.33L346.89,316h0ZM175.29,310H324.71l17.42,5.65H157.87Zm194.62,14.66H130.09L156.6,316H343.4Z" style="fill:#fff;opacity:0.8"></path><rect x="123.67" y="325.27" width="252.67" height="3.78" style="fill:#407BFF"></rect><rect x="123.67" y="325.27" width="252.67" height="3.78" style="opacity:0.2"></rect><path d="M250,323.15h0a.56.56,0,0,1-.56-.55V298.91a.56.56,0,0,1,.56-.55h0a.56.56,0,0,1,.56.55V322.6A.56.56,0,0,1,250,323.15Z" style="fill:#407BFF"></path><path d="M250,323.15h0a.56.56,0,0,1-.56-.55V298.91a.56.56,0,0,1,.56-.55h0a.56.56,0,0,1,.56.55V322.6A.56.56,0,0,1,250,323.15Z" style="fill:#fff;opacity:0.9"></path><path d="M250,332.48h0a1.34,1.34,0,0,1-1.33-1.34V319.39a1.34,1.34,0,0,1,1.33-1.33h0a1.34,1.34,0,0,1,1.33,1.33v11.75A1.34,1.34,0,0,1,250,332.48Z"></path><path d="M294.14,269.25c.65,1.49-.6,3.47-2.8,4.43s-4.5.53-5.14-1,.6-3.47,2.79-4.43S293.49,267.77,294.14,269.25Z" style="fill:#fff"></path><path d="M289,274.44a4.94,4.94,0,0,1-.87-.08,2.58,2.58,0,0,1-1.82-4.19,5.85,5.85,0,0,1,2.57-2.11,5.79,5.79,0,0,1,3.3-.45,2.82,2.82,0,0,1,2.18,1.54c.7,1.61-.61,3.75-2.93,4.76A6.13,6.13,0,0,1,289,274.44Zm2.31-6.41a5.69,5.69,0,0,0-2.23.49,5.34,5.34,0,0,0-2.35,1.92,2.08,2.08,0,0,0,1.5,3.43,5.27,5.27,0,0,0,3-.42c2.07-.9,3.26-2.74,2.67-4.1a2.32,2.32,0,0,0-1.81-1.25A4.92,4.92,0,0,0,291.32,268Z" style="fill:#407BFF"></path><path d="M230.35,304.82l-.32-.38c9.9-8.24,27.14-20.05,53-29.54l.17.47C257.41,284.84,240.22,296.61,230.35,304.82Z" style="fill:#407BFF"></path><path d="M212.61,306.07a168.11,168.11,0,0,0-25.42-15.62l.22-.45a168.66,168.66,0,0,1,25.5,15.67Z" style="fill:#407BFF"></path><path d="M179.28,287a86.41,86.41,0,0,0-8.85-3l.14-.48a88.13,88.13,0,0,1,8.9,3Z" style="fill:#407BFF"></path><path d="M271.2,275.2l-.15-.47a87.75,87.75,0,0,1,9.09-2.37l.1.49A90.09,90.09,0,0,0,271.2,275.2Z" style="fill:#407BFF"></path></g></svg>