<svg xmlns="http://www.w3.org/2000/svg" viewBox="0 0 500 500"><g id="freepik--Garlands--inject-2"><g id="freepik--Flags--inject-2"><path d="M24,88.74s.57,15.37-.24,20.53C23,114.13,34,97.51,36.09,86.41,36.09,86.41,27,88.29,24,88.74Z" style="fill:#f5f5f5"></path><path d="M44.42,84.76s1.66,16.8.33,21.54S55.2,92.83,57.28,81.72C57.28,81.72,48.64,83.64,44.42,84.76Z" style="fill:#e0e0e0"></path><path d="M87.55,73.43s1.41,14.35.07,19.08S97.34,80.3,99.41,69.19C99.41,69.19,90.83,72.29,87.55,73.43Z" style="fill:#e0e0e0"></path><path d="M67.24,79.16s.39,15-1.18,19.67,10.41-12.31,13-23.3C79.09,75.53,71.41,78,67.24,79.16Z" style="fill:#f5f5f5"></path><path d="M108.58,66.12s1.2,14.12-.12,18.86,9.6-12.06,11.63-23.18C120.09,61.8,113.48,64.46,108.58,66.12Z" style="fill:#f5f5f5"></path><path d="M128.88,58.23s2.07,15.51,1.69,20.42S141,64,140.88,52.71C140.88,52.71,132.79,56.3,128.88,58.23Z" style="fill:#e0e0e0"></path><path d="M168.93,38.61s2,15.68,1.59,20.59,9.36-15.79,9.2-27.08C179.72,32.12,171.91,36.84,168.93,38.61Z" style="fill:#e0e0e0"></path><path d="M150.15,48.23s1,15.47.37,20.36,10.13-15,10.53-26.25C161.05,42.34,154,46.31,150.15,48.23Z" style="fill:#f5f5f5"></path><path d="M185.79,28.26c-34.43,21.35-90.43,48.3-167.69,61v1c78.52-12.87,135.17-40.45,169.57-62Z" style="fill:#e0e0e0"></path></g><g id="freepik--flags--inject-2"><path d="M474,88.74s-.57,15.37.24,20.53c.77,4.86-10.17-11.76-12.31-22.86C461.91,86.41,471,88.29,474,88.74Z" style="fill:#f5f5f5"></path><path d="M453.58,84.76s-1.66,16.8-.33,21.54S442.8,92.83,440.72,81.72C440.72,81.72,449.36,83.64,453.58,84.76Z" style="fill:#e0e0e0"></path><path d="M410.45,73.43s-1.41,14.35-.07,19.08-9.72-12.21-11.79-23.32C398.59,69.19,407.17,72.29,410.45,73.43Z" style="fill:#e0e0e0"></path><path d="M430.76,79.16s-.39,15,1.17,19.67-10.4-12.31-13-23.3C418.9,75.53,426.59,78,430.76,79.16Z" style="fill:#f5f5f5"></path><path d="M389.42,66.12s-1.2,14.12.12,18.86-9.6-12.06-11.63-23.18C377.91,61.8,384.52,64.46,389.42,66.12Z" style="fill:#f5f5f5"></path><path d="M369.12,58.23s-2.07,15.51-1.69,20.42S357,64,357.12,52.71C357.12,52.71,365.21,56.3,369.12,58.23Z" style="fill:#e0e0e0"></path><path d="M329.07,38.61s-2,15.68-1.59,20.59-9.36-15.79-9.2-27.08C318.28,32.12,326.09,36.84,329.07,38.61Z" style="fill:#e0e0e0"></path><path d="M347.85,48.23s-1,15.47-.37,20.36-10.13-15-10.53-26.25C337,42.34,344,46.31,347.85,48.23Z" style="fill:#f5f5f5"></path><path d="M312.21,28.26c34.43,21.35,90.43,48.3,167.69,61v1c-78.52-12.87-135.17-40.45-169.57-62Z" style="fill:#e0e0e0"></path></g></g><g id="freepik--Shadows--inject-2"><ellipse id="freepik--Shadow--inject-2" cx="403.06" cy="430.43" rx="70.78" ry="40.87" style="fill:#e6e6e6"></ellipse><ellipse id="freepik--shadow--inject-2" cx="101.34" cy="430.43" rx="70.78" ry="40.87" style="fill:#e6e6e6"></ellipse></g><g id="freepik--Circle--inject-2"><circle id="freepik--Sun--inject-2" cx="249" cy="173.29" r="142.02" style="fill:#C53F3F"></circle></g><g id="freepik--Plants--inject-2"><g id="freepik--plants--inject-2"><path d="M450.2,386.39l-8.09,25.16-.37.51c-.13.4.2.94.62,1.41a4.39,4.39,0,0,0,3.8,1.22c.62-.13,1.22-.38,1.34-.78l0-.59,8.1-25.21Z" style="fill:#C53F3F"></path><path d="M450.2,386.39l-8.09,25.16-.37.51c-.13.4.2.94.62,1.41a4.39,4.39,0,0,0,3.8,1.22c.62-.13,1.22-.38,1.34-.78l0-.59,8.1-25.21Z" style="fill:#fff;opacity:0.4"></path><path id="freepik--shadow--inject-2" d="M450.63,387.73c-.85-.94-.54-1.92.71-2.19a4.39,4.39,0,0,1,3.79,1.22,1.21,1.21,0,0,1-.7,2.19A4.39,4.39,0,0,1,450.63,387.73Z" style="fill:#C53F3F"></path><path d="M446.42,414.35a4.71,4.71,0,0,1-4.11-1.51c-.23-.33-.21-.5,0-.75a2.7,2.7,0,0,0,.41-.84c.48-1.38,6.26-18.71,6.26-18.71s-1.17,3.88-3.18,10.41-2.48,8.15-2.83,9C442.71,412.51,443.2,413.58,446.42,414.35Z" style="fill:#C53F3F"></path><path d="M458.65,360.07l-8.08,25.16-.38.52c-.12.4.2.94.63,1.41a4.41,4.41,0,0,0,3.8,1.22c.62-.14,1.21-.38,1.34-.78l0-.6,8.1-25.2Z" style="fill:#C53F3F"></path><path d="M458.65,360.07l-8.08,25.16-.38.52c-.12.4.2.94.63,1.41a4.41,4.41,0,0,0,3.8,1.22c.62-.14,1.21-.38,1.34-.78l0-.6,8.1-25.2Z" style="fill:#fff;opacity:0.4"></path><path id="freepik--shadow--inject-2" d="M459.08,361.42c-.85-.94-.53-1.92.71-2.19a4.39,4.39,0,0,1,3.8,1.22c.85.94.54,1.92-.71,2.19A4.42,4.42,0,0,1,459.08,361.42Z" style="fill:#C53F3F"></path><path d="M454.88,388a4.77,4.77,0,0,1-4.12-1.51c-.23-.34-.2-.5,0-.75a2.77,2.77,0,0,0,.42-.84c.47-1.38,6.26-18.71,6.26-18.71s-1.17,3.87-3.18,10.41-2.48,8.14-2.84,9C451.16,386.2,451.65,387.26,454.88,388Z" style="fill:#C53F3F"></path><path d="M467.1,333.76,459,358.92l-.37.51c-.13.4.19.94.62,1.41a4.39,4.39,0,0,0,3.8,1.22c.62-.13,1.21-.38,1.34-.77l0-.6,8.1-25.21Z" style="fill:#C53F3F"></path><path d="M467.1,333.76,459,358.92l-.37.51c-.13.4.19.94.62,1.41a4.39,4.39,0,0,0,3.8,1.22c.62-.13,1.21-.38,1.34-.77l0-.6,8.1-25.21Z" style="fill:#fff;opacity:0.4"></path><path id="freepik--shadow--inject-2" d="M467.54,335.11c-.86-.95-.54-1.93.7-2.2a4.41,4.41,0,0,1,3.8,1.22c.86.95.54,1.93-.7,2.2A4.43,4.43,0,0,1,467.54,335.11Z" style="fill:#C53F3F"></path><path d="M463.33,361.73a4.76,4.76,0,0,1-4.12-1.52.56.56,0,0,1,0-.75,2.64,2.64,0,0,0,.42-.84c.47-1.38,6.26-18.71,6.26-18.71s-1.17,3.88-3.18,10.41-2.48,8.15-2.83,9C459.61,359.89,460.11,361,463.33,361.73Z" style="fill:#C53F3F"></path><path d="M484.64,352.28a57.58,57.58,0,0,0-7.68,2.44,69.43,69.43,0,0,0-7.3,3.31,55.52,55.52,0,0,0-12.44,8.78c-.61.58-1.21,1.17-1.79,1.79.18-.81.31-1.62.44-2.41.24-1.41.44-2.82.61-4.24s.29-2.73.4-4.09.15-2.78.2-4.18c0-.77.05-1.55.06-2.32s.07-1.62,0-2.41c0,0,0,0,0,0-.13.65-.18,1.32-.25,2s-.15,1.42-.22,2.13c-.14,1.42-.32,2.83-.46,4.25-.26,2.76-.58,5.53-1,8.28-.12.72-.24,1.45-.38,2.17s-.27,1.32-.38,2a43.49,43.49,0,0,0-6.07,8.78,60.93,60.93,0,0,0-3.28,7.82c-.94,2.68-1.8,5.39-2.62,8.12a99.23,99.23,0,0,0-3.71,16.68c-.09.7-.16,1.39-.22,2.09a.42.42,0,0,0,.83.09,93,93,0,0,1,3.2-16.11.08.08,0,0,0,.05-.05A10,10,0,0,1,445,394c.77-.77,1.59-1.49,2.43-2.18a34.67,34.67,0,0,1,5.49-3.65,42.37,42.37,0,0,1,6.76-2.79c2.51-.82,5-1.61,7.59-2.32,1.4-.38,2.8-.75,4.21-1.08.67-.16,1.35-.32,2-.46s1.55-.3,2.31-.51c.05,0,.05-.14,0-.13a23.21,23.21,0,0,0-3.88.61c-1.33.27-2.65.58-4,.91s-2.54.67-3.81,1-2.71.69-4.05,1.07a41.64,41.64,0,0,0-7.25,2.72A33.43,33.43,0,0,0,447,391a35.38,35.38,0,0,0-2.93,2.68c-.25.26-.5.52-.74.8.57-1.93,1.18-3.84,1.8-5.75.86-2.63,1.75-5.25,2.86-7.78a39.57,39.57,0,0,1,2.08-4.11,43.3,43.3,0,0,1,5.38-7.31c.39-.43.8-.86,1.21-1.28a53.77,53.77,0,0,1,11.78-8.94,68.53,68.53,0,0,1,7.2-3.53c2.39-1,4.83-1.87,7.27-2.75.58-.21,1.17-.4,1.75-.6C484.7,352.38,484.7,352.27,484.64,352.28Z" style="fill:#e0e0e0"></path><path d="M458.11,336c.25,1.29-.67,3.66-.57,6.18s.66,4.17.61,5.4c1.14-2,3-5.31,7.05-5.38-1.68,1-2.66,1.21-3.62,3.17s-2.68,4.84-4.42,5.1l-.3,1.41a10.8,10.8,0,0,0-.92-2.5c-.72-1.44-.87-3.75,0-7.05S458.11,337.47,458.11,336Z" style="fill:#e0e0e0"></path><path d="M449.57,344.79c1.93.79,3,2.12,4.16,4.8s2.87,7.34,2.87,7.34l-.34,2.07a8.42,8.42,0,0,1-2.53-3.36c-1-2.27-1.19-5.52-1.75-7.43A8.18,8.18,0,0,0,449.57,344.79Z" style="fill:#e0e0e0"></path><path d="M455.2,365.25c-.23-2.62-1.59-5.5-4.18-6.48s-7.35-.33-8.83,3-1.27,5.87-2.46,7.84-2.39,3-3.58,3a4.4,4.4,0,0,0,4.6-2.42c.95-1.89,2-6.29,3.78-7.93a7.65,7.65,0,0,1,6.7-1.32c1.36.62,4.14,3.5,3.92,5.92Z" style="fill:#e0e0e0"></path><path d="M453.33,371.38c.36-.84-.09-3.45-1.77-4a5.05,5.05,0,0,0-5.88,2,24.57,24.57,0,0,0-2.79,6.49c-.74,2.34-1.19,3.16-1.81,3.78.92-.53,2.39-3,3.25-5.18s3.25-5.46,5.24-5.55S453.33,370,453.33,371.38Z" style="fill:#e0e0e0"></path><path d="M445.27,386.7c-.53.5-1.56-.45-1.35-2.71s1.07-6.82-3.58-9.08c1.09,1.09,2.59,2.71,2.47,4.73s-.41,4.31,0,5.38,2,2,1.7,2.84Z" style="fill:#e0e0e0"></path><path d="M435.45,375.82A14.94,14.94,0,0,0,437,385c1.52,2.67,3.17,3.49,4.11,5.21a8,8,0,0,1,1,5.33l.81-1.93s-.27-.23-.64-2.33a12,12,0,0,0-2.83-6.08C437.67,383.09,435.66,381.16,435.45,375.82Z" style="fill:#e0e0e0"></path><path d="M440.71,401.86c-.41.45-1.18-.2-1.59-2.26a91.2,91.2,0,0,0-3-9.12c-.9-2.46-1.6-7.59-3.53-9.09s-3.2.18-3.16.79a1.86,1.86,0,0,1,3.08.29,10,10,0,0,1,1.56,5.63,18,18,0,0,0,2.22,8.75c1.16,2.12,3.9,5.75,3.65,6.92Z" style="fill:#e0e0e0"></path><path d="M446.43,392.65c1.39-.86,5.76-1,7.66,1a10.24,10.24,0,0,1,3,5.13c.68,2.25.76,4.08,2.54,4.95-.69-.7-1.56-2.41-1.86-5.58s-1.94-6.62-4.72-7.38a7.62,7.62,0,0,0-6.59,1.46Z" style="fill:#e0e0e0"></path><path d="M452.4,388.14c1.49-.49,6,.34,7.46,1.32s5.59,5.29,5.89,8.64c-.51-5.47-1.53-7.75-4.49-9.58s-7.67-1.06-8.24-.84Z" style="fill:#e0e0e0"></path><path d="M455.5,386.07a10.19,10.19,0,0,0,3.25-5.17c.64-2,1-4.66,4.54-6-2.8,0-4.71.73-5.9,4s-1.8,7-2.58,7.72Z" style="fill:#e0e0e0"></path><path d="M460.58,384.79a11.38,11.38,0,0,1,5.68.88,22.35,22.35,0,0,0,6,1.67c2.07.34,5,1.78,5.21,3,.3-1.62-2.92-4.44-6-5.57s-9.37-.54-9.37-.54Z" style="fill:#e0e0e0"></path><path d="M473.84,375.55a8.08,8.08,0,0,0-7.67,2.84c-2.07,2.63-3.86,5.54-5.17,6.25a6,6,0,0,0,3.6-1.92c2-1.91,2.72-4.28,4.62-5.39A10.8,10.8,0,0,1,473.84,375.55Z" style="fill:#e0e0e0"></path><path d="M472.45,381.46c4.19-1.54,7.41-1.35,9.62-.17s3,2.41,4.15,4.38,2.12,3.15,2.67,3.32c-.93,0-2.4-.92-4-3.07a11.89,11.89,0,0,0-6.81-4.22A29.89,29.89,0,0,0,472.45,381.46Z" style="fill:#e0e0e0"></path><path d="M455.7,369.22c1.53,0,4.41-2.53,6.79-3.69s7.12-2.44,9.7-1.42a8.35,8.35,0,0,1,3.86,3.22s-.17-3-4.41-4.28-11.5.11-15.51,5.34Z" style="fill:#e0e0e0"></path><path d="M461.58,363.47c1-1.05.86-3.3,1-5.12a8.74,8.74,0,0,1,3.65-6.19c-2,.72-3.39,2.11-4.68,5.66-.68,1.88.21,5.1-.79,6.29Z" style="fill:#e0e0e0"></path><path d="M466.47,360.17a5.43,5.43,0,0,1,4.62.55,4.81,4.81,0,0,1,1.57,3.59c0,1.58.42,2.09.59,3.83s.13,3.22-.59,3.94c.81-.47,1.69-2.08,1.57-5.22s-.1-5.91-2.33-7.37S466.47,360.17,466.47,360.17Z" style="fill:#e0e0e0"></path><path d="M478.59,349.74a5.31,5.31,0,0,0-6.06,2.16c-1.78,2.38-3,6.57-6.66,8.73a9.31,9.31,0,0,0,2.46-4.57c.81-2.72,1.32-4.83,3.9-6.23A6.26,6.26,0,0,1,478.59,349.74Z" style="fill:#e0e0e0"></path><path d="M488.47,343.09c-.51,1.48-1.66,1.57-5.34,2.71a12.07,12.07,0,0,0-7.08,6.05,17.2,17.2,0,0,1-4.28,5.39,9.76,9.76,0,0,0,2.67-4.19c.72-1.95,1.78-4.83,3.6-6.23a10.52,10.52,0,0,1,5.93-2.21C486.22,344.44,487.72,344.39,488.47,343.09Z" style="fill:#e0e0e0"></path><path d="M475.24,355.75a5.14,5.14,0,0,1,4.54,1.49c1.19,1.19,1.91,4.11,3.3,6.23a5.31,5.31,0,0,0,2.93,2.44,5,5,0,0,1-3.26-1.8c-1.45-1.7-3.1-4.75-4.75-6a5.72,5.72,0,0,0-4.86-1.27Z" style="fill:#e0e0e0"></path><path d="M485.29,350.17c-1.36-1.06-3.77-.43-5.17.93s-1.36,2.37-2.5,3.37l.29.12c2.33-1.54,2.86-4.24,6-3.58,2.46.52,3.1,4.07,3.1,6.23C487.41,354.15,486.64,351.23,485.29,350.17Z" style="fill:#e0e0e0"></path><path d="M481,353.28c1.16-.35,3-2.12,4.5-2.9s4.91-1.55,6.93.41c1.24,1.19,3.39,4,4.87,4.21-1.08,0-2.07-.49-3.75-1.94s-2.16-1.86-4.87-2-4.06,1.08-6.34,1.79Z" style="fill:#e0e0e0"></path><path d="M484.65,352.4c1.92-.23,3.32,1,4.53,2.6a15.42,15.42,0,0,1,1.87,12.7c.43-1.88-.3-6.71-1.32-9.15s-1.42-3.16-3.46-4.11-3.14-1.52-3.14-1.52Z" style="fill:#e0e0e0"></path><path d="M445.91,385.87l3.52,30.1-.14.72c0,.47.65.88,1.32,1.17a5,5,0,0,0,4.54-.53c.59-.43,1.09-1,1-1.45l-.31-.6-3.53-30.16Z" style="fill:#C53F3F"></path><path d="M445.91,385.87l3.52,30.1-.14.72c0,.47.65.88,1.32,1.17a5,5,0,0,0,4.54-.53c.59-.43,1.09-1,1-1.45l-.31-.6-3.53-30.16Z" style="fill:#fff;opacity:0.6000000000000001"></path><path id="freepik--shadow--inject-2" d="M447,387.07a1.39,1.39,0,0,1-.31-2.62,5.06,5.06,0,0,1,4.55-.53c1.34.58,1.47,1.75.3,2.62A5,5,0,0,1,447,387.07Z" style="fill:#C53F3F;opacity:0.5"></path><path d="M455.26,416.85a5.41,5.41,0,0,1-5,.38c-.4-.24-.45-.43-.39-.77a3.05,3.05,0,0,0,0-1.07c-.17-1.67-2.36-22.5-2.36-22.5s.62,4.6,1.63,12.37,1.28,9.68,1.32,10.74C450.51,416.7,451.53,417.57,455.26,416.85Z" style="fill:#C53F3F;opacity:0.5"></path><path d="M442.24,354.39l3.51,30.1-.14.72c.06.47.65.88,1.32,1.17a5,5,0,0,0,4.54-.53c.59-.43,1.09-1,1-1.45l-.32-.6-3.53-30.16Z" style="fill:#C53F3F"></path><path d="M442.24,354.39l3.51,30.1-.14.72c.06.47.65.88,1.32,1.17a5,5,0,0,0,4.54-.53c.59-.43,1.09-1,1-1.45l-.32-.6-3.53-30.16Z" style="fill:#fff;opacity:0.6000000000000001"></path><path id="freepik--shadow--inject-2" d="M443.33,355.59A1.39,1.39,0,0,1,443,353a5.06,5.06,0,0,1,4.55-.53c1.34.58,1.48,1.75.31,2.62A5.06,5.06,0,0,1,443.33,355.59Z" style="fill:#C53F3F;opacity:0.5"></path><path d="M451.59,385.38a5.46,5.46,0,0,1-5,.37c-.39-.24-.45-.43-.39-.77a3.05,3.05,0,0,0,0-1.07c-.16-1.67-2.35-22.5-2.35-22.5s.61,4.6,1.62,12.37,1.28,9.68,1.32,10.74C446.83,385.22,447.85,386.09,451.59,385.38Z" style="fill:#C53F3F;opacity:0.5"></path><path d="M438.56,322.91l3.52,30.1-.15.72c.06.47.65.89,1.32,1.17a5.07,5.07,0,0,0,4.55-.53c.58-.43,1.08-1,1-1.45l-.32-.6L445,322.16Z" style="fill:#C53F3F"></path><path d="M438.56,322.91l3.52,30.1-.15.72c.06.47.65.89,1.32,1.17a5.07,5.07,0,0,0,4.55-.53c.58-.43,1.08-1,1-1.45l-.32-.6L445,322.16Z" style="fill:#fff;opacity:0.6000000000000001"></path><path id="freepik--shadow--inject-2" d="M439.65,324.11c-1.34-.57-1.47-1.75-.3-2.62a5,5,0,0,1,4.54-.53c1.34.58,1.48,1.75.31,2.62A5.06,5.06,0,0,1,439.65,324.11Z" style="fill:#C53F3F"></path><path id="freepik--shadow--inject-2" d="M439.65,324.11c-1.34-.57-1.47-1.75-.3-2.62a5,5,0,0,1,4.54-.53c1.34.58,1.48,1.75.31,2.62A5.06,5.06,0,0,1,439.65,324.11Z" style="fill:#fff;opacity:0.30000000000000004"></path><path d="M447.91,353.9a5.46,5.46,0,0,1-5,.37c-.39-.24-.45-.42-.38-.77a3.15,3.15,0,0,0,0-1.07c-.16-1.67-2.35-22.5-2.35-22.5s.61,4.6,1.62,12.37,1.28,9.68,1.32,10.74C443.15,353.74,444.17,354.62,447.91,353.9Z" style="fill:#C53F3F;opacity:0.5"></path><g id="freepik--Grass--inject-2"><path d="M446.5,385.33c-2.11,14.84,2.65,33.33,2.65,33.33L445.89,417C442.59,396.5,446.5,385.33,446.5,385.33Z" style="fill:#C53F3F"></path><path d="M446.5,385.33c-2.11,14.84,2.65,33.33,2.65,33.33L445.89,417C442.59,396.5,446.5,385.33,446.5,385.33Z" style="opacity:0.15"></path><path d="M447.46,417.65a1,1,0,0,0,0,.17l-1.61-.82c-3.3-20.5.61-31.67.61-31.67C444.39,392.58,445.44,409.73,447.46,417.65Z" style="opacity:0.15"></path><path d="M449.15,418.66s.6-13.39,5-25.13,10.48-17.2,10.48-17.2-7.55,3.93-13.23,16.59a79.15,79.15,0,0,0-6.54,23.56Z" style="fill:#C53F3F"></path><path d="M446.9,417.51h0l-2-1a79.15,79.15,0,0,1,6.54-23.56c5.68-12.66,13.23-16.59,13.23-16.59C457.37,381.57,448.16,398,446.9,417.51Z" style="opacity:0.1"></path><path d="M449.15,418.66s1.63-11.07,14.75-20.9c0,0-12.6,5.62-18,19.24Z" style="fill:#C53F3F"></path><path d="M447.46,417.65c0,.05,0,.08,0,.12l-1.53-.77c5.41-13.62,18-19.24,18-19.24C457.77,401.74,450.4,408.35,447.46,417.65Z" style="opacity:0.15"></path></g></g><g id="freepik--plants--inject-2"><path d="M50.75,386.39l8.08,25.16.37.51c.13.4-.19.94-.62,1.41a4.39,4.39,0,0,1-3.8,1.22c-.62-.13-1.22-.38-1.34-.78l0-.59-8.1-25.21Z" style="fill:#C53F3F"></path><path d="M50.75,386.39l8.08,25.16.37.51c.13.4-.19.94-.62,1.41a4.39,4.39,0,0,1-3.8,1.22c-.62-.13-1.22-.38-1.34-.78l0-.59-8.1-25.21Z" style="fill:#fff;opacity:0.4"></path><path id="freepik--shadow--inject-2" d="M50.31,387.73c.86-.94.54-1.92-.7-2.19a4.41,4.41,0,0,0-3.8,1.22,1.21,1.21,0,0,0,.7,2.19A4.38,4.38,0,0,0,50.31,387.73Z" style="fill:#C53F3F"></path><path d="M54.52,414.35a4.73,4.73,0,0,0,4.12-1.51c.22-.33.2-.5,0-.75a3,3,0,0,1-.41-.84c-.47-1.38-6.26-18.71-6.26-18.71s1.17,3.88,3.18,10.41,2.48,8.15,2.83,9C58.24,412.51,57.74,413.58,54.52,414.35Z" style="fill:#C53F3F"></path><path d="M42.29,360.07l8.08,25.16.38.52c.13.4-.2.94-.62,1.41a4.42,4.42,0,0,1-3.8,1.22c-.62-.14-1.22-.38-1.35-.78l0-.6-8.1-25.2Z" style="fill:#C53F3F"></path><path d="M42.29,360.07l8.08,25.16.38.52c.13.4-.2.94-.62,1.41a4.42,4.42,0,0,1-3.8,1.22c-.62-.14-1.22-.38-1.35-.78l0-.6-8.1-25.2Z" style="fill:#fff;opacity:0.4"></path><path id="freepik--shadow--inject-2" d="M41.86,361.42c.85-.94.54-1.92-.71-2.19a4.39,4.39,0,0,0-3.8,1.22c-.85.94-.53,1.92.71,2.19A4.42,4.42,0,0,0,41.86,361.42Z" style="fill:#C53F3F"></path><path d="M46.07,388a4.76,4.76,0,0,0,4.11-1.51c.23-.34.21-.5,0-.75a3,3,0,0,1-.42-.84c-.47-1.38-6.26-18.71-6.26-18.71s1.18,3.87,3.19,10.41,2.47,8.14,2.83,9C49.78,386.2,49.29,387.26,46.07,388Z" style="fill:#C53F3F"></path><path d="M33.84,333.76l8.08,25.16.37.51c.13.4-.19.94-.62,1.41a4.38,4.38,0,0,1-3.8,1.22c-.62-.13-1.21-.38-1.34-.77l0-.6-8.09-25.21Z" style="fill:#C53F3F"></path><path d="M33.84,333.76l8.08,25.16.37.51c.13.4-.19.94-.62,1.41a4.38,4.38,0,0,1-3.8,1.22c-.62-.13-1.21-.38-1.34-.77l0-.6-8.09-25.21Z" style="fill:#fff;opacity:0.4"></path><path id="freepik--shadow--inject-2" d="M33.4,335.11c.86-.95.54-1.93-.7-2.2a4.42,4.42,0,0,0-3.8,1.22c-.85.95-.54,1.93.71,2.2A4.42,4.42,0,0,0,33.4,335.11Z" style="fill:#C53F3F"></path><path d="M37.61,361.73a4.75,4.75,0,0,0,4.12-1.52.56.56,0,0,0,0-.75,2.64,2.64,0,0,1-.42-.84c-.47-1.38-6.26-18.71-6.26-18.71s1.17,3.88,3.18,10.41,2.48,8.15,2.84,9C41.33,359.89,40.84,361,37.61,361.73Z" style="fill:#C53F3F"></path><path d="M16.3,352.28A57.58,57.58,0,0,1,24,354.72,70.53,70.53,0,0,1,31.29,358a55.69,55.69,0,0,1,12.43,8.78c.61.58,1.21,1.17,1.79,1.79-.17-.81-.3-1.62-.44-2.41-.24-1.41-.44-2.82-.61-4.24s-.29-2.73-.39-4.09-.16-2.78-.21-4.18c0-.77,0-1.55-.06-2.32s-.07-1.62,0-2.41c0,0,0,0,.05,0,.13.65.17,1.32.24,2s.15,1.42.23,2.13c.14,1.42.31,2.83.45,4.25.27,2.76.59,5.53,1,8.28.12.72.25,1.45.38,2.17s.27,1.32.38,2a43.49,43.49,0,0,1,6.07,8.78,60.93,60.93,0,0,1,3.28,7.82c1,2.68,1.8,5.39,2.62,8.12a99.23,99.23,0,0,1,3.71,16.68c.09.7.16,1.39.23,2.09a.42.42,0,0,1-.84.09,92.07,92.07,0,0,0-3.2-16.11.12.12,0,0,1-.05-.05A9.84,9.84,0,0,0,55.93,394c-.77-.77-1.59-1.49-2.43-2.18A34.67,34.67,0,0,0,48,388.14a42,42,0,0,0-6.76-2.79c-2.51-.82-5-1.61-7.59-2.32-1.4-.38-2.8-.75-4.2-1.08-.68-.16-1.36-.32-2-.46s-1.55-.3-2.31-.51c0,0-.05-.14,0-.13a23,23,0,0,1,3.88.61c1.33.27,2.66.58,4,.91s2.54.67,3.81,1,2.71.69,4,1.07a41.64,41.64,0,0,1,7.25,2.72A33.43,33.43,0,0,1,54,391a33.85,33.85,0,0,1,2.93,2.68c.25.26.51.52.75.8-.58-1.93-1.18-3.84-1.81-5.75A82.28,82.28,0,0,0,53,380.92a39.57,39.57,0,0,0-2.08-4.11,42.76,42.76,0,0,0-5.38-7.31c-.39-.43-.79-.86-1.21-1.28a53.77,53.77,0,0,0-11.78-8.94,67.58,67.58,0,0,0-7.2-3.53c-2.39-1-4.83-1.87-7.27-2.75-.58-.21-1.17-.4-1.75-.6C16.25,352.38,16.24,352.27,16.3,352.28Z" style="fill:#e0e0e0"></path><path d="M42.84,336c-.26,1.29.67,3.66.56,6.18s-.65,4.17-.61,5.4c-1.14-2-3-5.31-7-5.38,1.68,1,2.66,1.21,3.62,3.17s2.68,4.84,4.42,5.1l.3,1.41a10.8,10.8,0,0,1,.92-2.5c.72-1.44.87-3.75,0-7.05S42.84,337.47,42.84,336Z" style="fill:#e0e0e0"></path><path d="M51.37,344.79c-1.93.79-3,2.12-4.16,4.8s-2.87,7.34-2.87,7.34l.34,2.07a8.42,8.42,0,0,0,2.53-3.36c1-2.27,1.2-5.52,1.75-7.43A8.18,8.18,0,0,1,51.37,344.79Z" style="fill:#e0e0e0"></path><path d="M45.74,365.25c.23-2.62,1.59-5.5,4.18-6.48s7.35-.33,8.83,3,1.27,5.87,2.47,7.84,2.38,3,3.57,3a4.41,4.41,0,0,1-4.6-2.42c-.95-1.89-2-6.29-3.78-7.93a7.65,7.65,0,0,0-6.7-1.32c-1.35.62-4.14,3.5-3.92,5.92Z" style="fill:#e0e0e0"></path><path d="M47.62,371.38c-.37-.84.08-3.45,1.76-4a5.05,5.05,0,0,1,5.88,2,24.57,24.57,0,0,1,2.79,6.49c.74,2.34,1.19,3.16,1.81,3.78-.92-.53-2.38-3-3.25-5.18s-3.25-5.46-5.24-5.55S47.62,370,47.62,371.38Z" style="fill:#e0e0e0"></path><path d="M55.67,386.7c.53.5,1.56-.45,1.35-2.71s-1.06-6.82,3.58-9.08c-1.09,1.09-2.59,2.71-2.47,4.73s.41,4.31,0,5.38-2,2-1.7,2.84Z" style="fill:#e0e0e0"></path><path d="M65.49,375.82A14.94,14.94,0,0,1,64,385c-1.52,2.67-3.17,3.49-4.11,5.21a8,8,0,0,0-1,5.33L58,393.59s.27-.23.64-2.33a12.12,12.12,0,0,1,2.83-6.08C63.27,383.09,65.28,381.16,65.49,375.82Z" style="fill:#e0e0e0"></path><path d="M60.23,401.86c.41.45,1.18-.2,1.59-2.26a93.85,93.85,0,0,1,3-9.12c.9-2.46,1.6-7.59,3.53-9.09s3.21.18,3.17.79a1.87,1.87,0,0,0-3.09.29,10,10,0,0,0-1.56,5.63,18,18,0,0,1-2.22,8.75c-1.16,2.12-3.9,5.75-3.65,6.92Z" style="fill:#e0e0e0"></path><path d="M54.51,392.65c-1.39-.86-5.75-1-7.66,1a10.24,10.24,0,0,0-3,5.13c-.68,2.25-.76,4.08-2.54,4.95.69-.7,1.57-2.41,1.86-5.58s1.95-6.62,4.73-7.38a7.6,7.6,0,0,1,6.58,1.46Z" style="fill:#e0e0e0"></path><path d="M48.54,388.14c-1.49-.49-6,.34-7.46,1.32s-5.59,5.29-5.89,8.64c.51-5.47,1.53-7.75,4.5-9.58s7.66-1.06,8.24-.84Z" style="fill:#e0e0e0"></path><path d="M45.44,386.07a10.26,10.26,0,0,1-3.25-5.17c-.64-2-1-4.66-4.54-6,2.8,0,4.71.73,5.91,4s1.79,7,2.57,7.72Z" style="fill:#e0e0e0"></path><path d="M40.36,384.79a11.38,11.38,0,0,0-5.68.88,22.28,22.28,0,0,1-6,1.67c-2.08.34-5,1.78-5.22,3-.29-1.62,2.93-4.44,6-5.57s9.37-.54,9.37-.54Z" style="fill:#e0e0e0"></path><path d="M27.1,375.55a8.08,8.08,0,0,1,7.67,2.84c2.08,2.63,3.87,5.54,5.17,6.25a6,6,0,0,1-3.6-1.92c-2-1.91-2.72-4.28-4.62-5.39A10.8,10.8,0,0,0,27.1,375.55Z" style="fill:#e0e0e0"></path><path d="M28.5,381.46c-4.2-1.54-7.42-1.35-9.62-.17s-3,2.41-4.16,4.38-2.12,3.15-2.67,3.32c.93,0,2.4-.92,4-3.07a11.92,11.92,0,0,1,6.81-4.22A30,30,0,0,1,28.5,381.46Z" style="fill:#e0e0e0"></path><path d="M45.24,369.22c-1.53,0-4.41-2.53-6.78-3.69s-7.12-2.44-9.71-1.42a8.41,8.41,0,0,0-3.86,3.22s.17-3,4.41-4.28,11.5.11,15.51,5.34Z" style="fill:#e0e0e0"></path><path d="M39.36,363.47c-1-1.05-.86-3.3-1-5.12a8.74,8.74,0,0,0-3.65-6.19c2,.72,3.39,2.11,4.68,5.66.68,1.88-.21,5.1.79,6.29Z" style="fill:#e0e0e0"></path><path d="M34.47,360.17a5.43,5.43,0,0,0-4.62.55,4.81,4.81,0,0,0-1.57,3.59c0,1.58-.42,2.09-.59,3.83s-.13,3.22.59,3.94c-.81-.47-1.69-2.08-1.56-5.22s.09-5.91,2.33-7.37S34.47,360.17,34.47,360.17Z" style="fill:#e0e0e0"></path><path d="M22.35,349.74a5.31,5.31,0,0,1,6.06,2.16c1.78,2.38,3,6.57,6.66,8.73a9.31,9.31,0,0,1-2.46-4.57c-.81-2.72-1.31-4.83-3.9-6.23A6.26,6.26,0,0,0,22.35,349.74Z" style="fill:#e0e0e0"></path><path d="M12.48,343.09c.5,1.48,1.65,1.57,5.34,2.71a12.08,12.08,0,0,1,7.07,6.05,17.34,17.34,0,0,0,4.28,5.39,9.76,9.76,0,0,1-2.67-4.19c-.72-1.95-1.78-4.83-3.6-6.23A10.52,10.52,0,0,0,17,344.61C14.72,344.44,13.22,344.39,12.48,343.09Z" style="fill:#e0e0e0"></path><path d="M25.7,355.75a5.14,5.14,0,0,0-4.54,1.49c-1.18,1.19-1.9,4.11-3.3,6.23a5.31,5.31,0,0,1-2.93,2.44,5,5,0,0,0,3.27-1.8c1.44-1.7,3.09-4.75,4.74-6a5.73,5.73,0,0,1,4.86-1.27Z" style="fill:#e0e0e0"></path><path d="M15.65,350.17c1.36-1.06,3.78-.43,5.17.93s1.36,2.37,2.5,3.37l-.29.12c-2.33-1.54-2.85-4.24-6-3.58-2.46.52-3.09,4.07-3.09,6.23C13.54,354.15,14.3,351.23,15.65,350.17Z" style="fill:#e0e0e0"></path><path d="M19.91,353.28c-1.16-.35-3-2.12-4.5-2.9s-4.9-1.55-6.93.41c-1.24,1.19-3.39,4-4.87,4.21,1.09,0,2.07-.49,3.75-1.94s2.16-1.86,4.87-2,4.07,1.08,6.34,1.79Z" style="fill:#e0e0e0"></path><path d="M16.29,352.4c-1.92-.23-3.32,1-4.53,2.6A15.43,15.43,0,0,0,9.9,367.7c-.44-1.88.29-6.71,1.31-9.15s1.42-3.16,3.46-4.11,3.14-1.52,3.14-1.52Z" style="fill:#e0e0e0"></path><path d="M55,385.87,51.51,416l.14.72c0,.47-.64.88-1.31,1.17a5.06,5.06,0,0,1-4.55-.53c-.58-.43-1.09-1-1-1.45l.32-.6,3.52-30.16Z" style="fill:#C53F3F"></path><path d="M55,385.87,51.51,416l.14.72c0,.47-.64.88-1.31,1.17a5.06,5.06,0,0,1-4.55-.53c-.58-.43-1.09-1-1-1.45l.32-.6,3.52-30.16Z" style="fill:#fff;opacity:0.6000000000000001"></path><path id="freepik--shadow--inject-2" d="M53.93,387.07a1.39,1.39,0,0,0,.31-2.62,5,5,0,0,0-4.54-.53c-1.34.58-1.48,1.75-.31,2.62A5,5,0,0,0,53.93,387.07Z" style="fill:#C53F3F;opacity:0.5"></path><path d="M45.68,416.85a5.41,5.41,0,0,0,5,.38c.4-.24.45-.43.39-.77a2.9,2.9,0,0,1,0-1.07c.16-1.67,2.35-22.5,2.35-22.5s-.62,4.6-1.62,12.37-1.29,9.68-1.32,10.74C50.43,416.7,49.41,417.57,45.68,416.85Z" style="fill:#C53F3F;opacity:0.5"></path><path d="M58.71,354.39l-3.52,30.1.14.72c0,.47-.65.88-1.32,1.17a5,5,0,0,1-4.54-.53c-.59-.43-1.09-1-1-1.45l.32-.6,3.52-30.16Z" style="fill:#C53F3F"></path><path d="M58.71,354.39l-3.52,30.1.14.72c0,.47-.65.88-1.32,1.17a5,5,0,0,1-4.54-.53c-.59-.43-1.09-1-1-1.45l.32-.6,3.52-30.16Z" style="fill:#fff;opacity:0.6000000000000001"></path><path id="freepik--shadow--inject-2" d="M57.61,355.59a1.39,1.39,0,0,0,.31-2.62,5.06,5.06,0,0,0-4.55-.53c-1.34.58-1.47,1.75-.3,2.62A5,5,0,0,0,57.61,355.59Z" style="fill:#C53F3F;opacity:0.5"></path><path d="M49.36,385.38a5.44,5.44,0,0,0,5,.37c.4-.24.45-.43.39-.77a3.05,3.05,0,0,1,0-1.07c.17-1.67,2.36-22.5,2.36-22.5s-.62,4.6-1.63,12.37-1.28,9.68-1.32,10.74C54.11,385.22,53.09,386.09,49.36,385.38Z" style="fill:#C53F3F;opacity:0.5"></path><path d="M62.38,322.91,58.87,353l.14.72c0,.47-.65.89-1.32,1.17a5,5,0,0,1-4.54-.53c-.59-.43-1.09-1-1-1.45l.31-.6L56,322.16Z" style="fill:#C53F3F"></path><path d="M62.38,322.91,58.87,353l.14.72c0,.47-.65.89-1.32,1.17a5,5,0,0,1-4.54-.53c-.59-.43-1.09-1-1-1.45l.31-.6L56,322.16Z" style="fill:#fff;opacity:0.6000000000000001"></path><path id="freepik--shadow--inject-2" d="M61.29,324.11a1.39,1.39,0,0,0,.31-2.62,5.06,5.06,0,0,0-4.55-.53c-1.34.58-1.48,1.75-.31,2.62A5.07,5.07,0,0,0,61.29,324.11Z" style="fill:#C53F3F"></path><path id="freepik--shadow--inject-2" d="M61.29,324.11a1.39,1.39,0,0,0,.31-2.62,5.06,5.06,0,0,0-4.55-.53c-1.34.58-1.48,1.75-.31,2.62A5.07,5.07,0,0,0,61.29,324.11Z" style="fill:#fff;opacity:0.30000000000000004"></path><path d="M53,353.9a5.46,5.46,0,0,0,5,.37c.39-.24.45-.42.39-.77a3.05,3.05,0,0,1,0-1.07c.16-1.67,2.36-22.5,2.36-22.5s-.62,4.6-1.63,12.37S57.85,352,57.81,353C57.79,353.74,56.77,354.62,53,353.9Z" style="fill:#C53F3F;opacity:0.5"></path><g id="freepik--grass--inject-2"><path d="M54.45,385.33c2.1,14.84-2.65,33.33-2.65,33.33L55.05,417C58.36,396.5,54.45,385.33,54.45,385.33Z" style="fill:#C53F3F"></path><path d="M54.45,385.33c2.1,14.84-2.65,33.33-2.65,33.33L55.05,417C58.36,396.5,54.45,385.33,54.45,385.33Z" style="opacity:0.15"></path><path d="M53.48,417.65l0,.17,1.6-.82c3.31-20.5-.6-31.67-.6-31.67C56.55,392.58,55.5,409.73,53.48,417.65Z" style="opacity:0.15"></path><path d="M51.8,418.66s-.61-13.39-5-25.13-10.48-17.2-10.48-17.2,7.55,3.93,13.23,16.59a79.15,79.15,0,0,1,6.54,23.56Z" style="fill:#C53F3F"></path><path d="M54,417.51h0l2-1a79.15,79.15,0,0,0-6.54-23.56c-5.68-12.66-13.23-16.59-13.23-16.59C43.58,381.57,52.78,398,54,417.51Z" style="opacity:0.1"></path><path d="M51.8,418.66S50.16,407.59,37,397.76c0,0,12.6,5.62,18,19.24Z" style="fill:#C53F3F"></path><path d="M53.48,417.65l.05.12,1.52-.77c-5.41-13.62-18-19.24-18-19.24C43.17,401.74,50.54,408.35,53.48,417.65Z" style="opacity:0.15"></path></g></g></g><g id="freepik--character-2--inject-2"><g id="freepik--Character--inject-2"><path d="M357.87,258.4a1,1,0,0,1,.31-.58,2.66,2.66,0,0,1,1.33-.4c.57,0,.92.38,1.4.59,0-1.85,3.24-.84,3.54.38a2.65,2.65,0,0,1-.61,2.47,2.32,2.32,0,0,1-2.92.75,5.13,5.13,0,0,1-1.74-.93,5.61,5.61,0,0,1-1.23-1.39A1.54,1.54,0,0,1,357.87,258.4Z" style="fill:#f28f8f"></path><path d="M369.94,242.2c4.72,4.53,5,14.58,4.66,16.15s-4.9,4.81-7.49,5.73-6,.93-7,0-1.84-2.77-2.95-3.88-.84-2,.64-2,3,2,3,2a5.24,5.24,0,0,0,1.38-3.73c0-1.13-1.56-1.64-2.42-4.93-.59-2.25-.11-2.85-2.41-5.46s-4.79-5.8-4.79-5.8l9.88-8.74S368.54,240.58,369.94,242.2Z" style="fill:#ffbda7"></path><g id="freepik--Bottom--inject-2"><path d="M425.57,406.8a97.6,97.6,0,0,1,2.35,10.08c.67,3.83,1.11,6.66,2.55,13.18,1.31,5.95,2.84,10.35-1.43,15.58-3.5,4.29-11.43,5.57-13.86,1.16-2.78-5.05-1.67-12.4-1.54-17.62s-.64-7.77-.77-11.92c-.11-3.65,0-5.16.09-8.32C417.1,408.56,421.44,407.29,425.57,406.8Z" style="fill:#C53F3F"></path><path d="M425.57,406.8a97.6,97.6,0,0,1,2.35,10.08c.67,3.83,1.11,6.66,2.55,13.18,1.31,5.95,2.84,10.35-1.43,15.58-3.5,4.29-11.43,5.57-13.86,1.16-2.78-5.05-1.67-12.4-1.54-17.62s-.64-7.77-.77-11.92c-.11-3.65,0-5.16.09-8.32C417.1,408.56,421.44,407.29,425.57,406.8Z" style="opacity:0.30000000000000004"></path><path d="M425.57,406.8c-.26-4.89-.11-22.29.28-32.94.65-17.29,1.16-25.65-2.35-38.59,0,0,.55-27.9.45-55.53-.14-34-8.3-38.65-12.62-44.88l-42.81.6s-3.31,52.86-2.81,77.77c.15,7.27-.19,19.74-.19,19.74.8,14.34,1.25,63.33,1.15,67.83-.08,3.83-.9,7-2.4,11.45a79.48,79.48,0,0,1-4.91,11.62,11.79,11.79,0,0,1-1.82,2.76,33.43,33.43,0,0,1-3.35,3.12c-2.41,2-3.62,3-3.42,4.86s1.64,2.6,3.27,3.07c3.86,1.11,8.25.64,12.12,0s8.22-2.43,9.88-6a14.16,14.16,0,0,0,.93-3.28c.72-3.66,1.38-7.41,3-10.84a23.81,23.81,0,0,1,2.16-4.2c1-1.41,2.27-3,2.46-4.73.16-1.47-1-3.56-2.55-5.79l0-.05c-1.33-1.93-1-3.28-.48-9.38.46-5.87,5.32-26.18,7-35s1.93-12.86,1.85-23.66l3.74-35.93,6.25,42c2.65,15.82,6.72,37.84,8.55,46.34s3,14.21,4,21.13c.85,6,1.82,18.13,2.84,23.62,1.63,8.79,11,5.69,12.17-2.18C428.68,424.46,425.94,413.57,425.57,406.8Z" style="fill:#ffbda7"></path><path d="M381.43,432.44l-1.42-.2c-.08-4.31.18-8.26-.92-10.29l2-5.3Z" style="fill:#263238"></path><path d="M385,412.79c-.33,3-2.08,6-2.22,11.82a48.76,48.76,0,0,0,.14,7.45l-1.48.38-.3-15.79Z" style="fill:#37474f"></path><path d="M351.15,436.43a2.87,2.87,0,0,0,.83,1.92c.77.56,2.4,2.13,10.28,1.68s10.52-2.49,13.35-4.7,3.07-8.08,3.48-11c.79-5.68,3.6-8.66,5.9-11.53a4.9,4.9,0,0,0,.23-3s-5.31,1-8.14,7.9-6.27,13.74-12.65,15.68A113,113,0,0,1,351.15,436.43Z" style="fill:#37474f"></path><path d="M384.54,405.52c-1.11-1.91-2.14-2.45-3.22-4.09a8.17,8.17,0,0,0-2.55,4c-.48,1.52-1.76,9-3.68,14.91-1.44,4.45-3.84,6.81-7.15,8a13.76,13.76,0,0,1-6.49.7h0c-4.1-.54-3.14-3.38-3.14-3.38-.95,1.25-4.86,4.33-7.17,6.59-1.32,1.28-.71,3.23.28,4.48,1.14,1,3.81,2.84,13.6,1.47,8.69-1.23,10.73-5.09,11.56-6.84.63-1.33,1.17-4.19,1.82-7.86a24.06,24.06,0,0,1,3.06-8.33c.2-.33.39-.63.57-.89h0c.59-.83,1.28-1.74,2.07-2.66.6-.71,1.08-1,1.26-1.71A6.09,6.09,0,0,0,384.54,405.52Z" style="fill:#C53F3F"></path><path d="M384.54,405.52c-1.11-1.91-2.14-2.45-3.22-4.09a8.17,8.17,0,0,0-2.55,4c-.48,1.52-1.76,9-3.68,14.91-1.44,4.45-3.84,6.81-7.15,8a13.76,13.76,0,0,1-6.49.7h0c-4.1-.54-3.14-3.38-3.14-3.38-.95,1.25-4.86,4.33-7.17,6.59-1.32,1.28-.71,3.23.28,4.48,1.14,1,3.81,2.84,13.6,1.47,8.69-1.23,10.73-5.09,11.56-6.84.63-1.33,1.17-4.19,1.82-7.86a24.06,24.06,0,0,1,3.06-8.33c.2-.33.39-.63.57-.89h0c.59-.83,1.28-1.74,2.07-2.66.6-.71,1.08-1,1.26-1.71A6.09,6.09,0,0,0,384.54,405.52Z" style="opacity:0.30000000000000004"></path><path d="M368,242.25c-1.3,7.54-5.55,54.67-6.17,71.35s-1.6,29.24-1.6,29.24,6,11.17,37.49,10.31c31.87-.87,34.4-12.64,34.4-12.64s-2.34-19-2.54-34.23,2.91-42.48-12.49-65.14Z" style="fill:#ebebeb"></path><path d="M383.4,287.07s-3.12,48.3-3.91,65c1.29.22,2.67.41,4.13.57Z" style="fill:#e0e0e0"></path><path d="M393.4,266.92v86.27c1.38,0,2.8,0,4.3,0,.26,0,.51,0,.77,0Z" style="fill:#e0e0e0"></path><path d="M373,350.59l1.62-88.13-5.89,86.61A40.72,40.72,0,0,0,373,350.59Z" style="fill:#e0e0e0"></path><path d="M405.61,283.76l2.61,68.61c1.54-.2,3-.42,4.33-.68Z" style="fill:#e0e0e0"></path><path d="M421.07,322.36c-1.69-16.77-6-37.64-7-53.52,0,11.31,1.87,34.71,3.74,56.66.95,11,1.3,20,1.42,24.51a36.06,36.06,0,0,0,5-2C423.49,342.55,421.93,330.9,421.07,322.36Z" style="fill:#e0e0e0"></path></g><g id="freepik--Top--inject-2"><path d="M379.08,183.48c-11.08,2-11.63,3.64-20.63,16-5,6.91-11.73,16.08-14.72,21.28-2.89,5-1.06,7.61,2.43,12.12,3,3.85,10.51,12.49,10.51,12.49,1.69,0,8.23-2.77,11.1-6.1l-7-12.54,14.6-17.2Z" style="fill:#ebebeb"></path><g id="freepik--Chest--inject-2"><path d="M366.57,241.14c.45-4.52.79-7.95.89-9.85-.09-4.67-.4-11.95-.4-11.95-8.5-7.41-4.81-15.3-1.83-20.09,5-8,9.63-12,13.85-15.77A40.25,40.25,0,0,1,394,181.26c5.37.18,9,.05,11.86,1,3.06,1,6.73,2.19,6.73,2.19,2.37,1.22,4.47,4.4,5.41,11.5.87,6.62,2.36,8.35.43,14-2.73,8-3.06,11.68-4,15.69-1.16,5.2-.21,9,2.23,13.78,1.17,2.3.22,4.74-6.34,8.13-4.4,2.27-20.92,5.71-34.8,1.84C370.07,247.88,366.34,243.65,366.57,241.14Z" style="fill:#fafafa"></path><path d="M404.85,174.93c-5.52-2.08-4.56-6.83-2.48-12.34s4.5-9.7,10-7.62a10.67,10.67,0,0,1-7.53,20Z" style="fill:#37474f"></path><path d="M414.53,154c-2.11,7.63-8.19,9.86-11,16.5-7.94,0-17.12-18.67-27.61-17.12-4,.58-7.77-5.92-6.52-12.4,2.05-10.63,11.12-14.69,24.26-13.82,8.77.58,12,3.6,15.33,10.75C416.44,140.23,415.82,149.31,414.53,154Z" style="fill:#37474f"></path><path d="M375.94,138.51c-1.55.79-4,4.62-4,19.16,0,11.77,4.22,15.82,6.54,16.76a19.64,19.64,0,0,0,7.86.83l.25,6.77c-1.49,3.36-2.06,6.5-.75,9.17,3.06-4.75,9.11-2.39,17.85-9.44l-.28-15s2.94,2.19,6.62-.83c3-2.5,3.44-7.35,1.2-9.76a5.32,5.32,0,0,0-8.43,1.35s-3.34,3.19-4.38-4.15c-.43-3-.28-15.53-6.22-16.14C384.54,136.41,381,135.76,375.94,138.51Z" style="fill:#ffbda7"></path><path d="M377.53,134.76c-5.57,3.89-5.86,11.08-6,13.54a40,40,0,0,0,7.85.75c0-3.31,1.34-10,2.88-11.37A29.68,29.68,0,0,0,381,149.19a46,46,0,0,0,8.53,0A32.08,32.08,0,0,1,391.18,139a59,59,0,0,0,.07,10.16c2.74.69,8.19-.19,8.19-.19s.55-9.65-3.2-13.27S380.82,132.22,377.53,134.76Z" style="fill:#37474f"></path><path d="M396.45,157.64c-.18,1-1.43,1.61-2.8,1.36s-2.33-1.25-2.15-2.25,1.43-1.61,2.8-1.36S396.63,156.64,396.45,157.64Z" style="fill:#f28f8f"></path><path d="M375.56,157.15c.19,1-.77,2-2.14,2.26s-2.62-.35-2.8-1.35.77-2,2.14-2.26S375.38,156.16,375.56,157.15Z" style="fill:#f28f8f"></path><path d="M386.36,175.26c3.79-.38,11.36-2.72,13.11-6.93,0,0-.3,3.63-2.7,5.53-3.67,2.89-10.32,3.85-10.32,3.85Z" style="fill:#f0997a"></path><polygon points="383.72 151.25 382.84 161.54 378.25 159.63 383.72 151.25" style="fill:#f0997a"></polygon><path d="M389.12,163.2l-5.68,2.17a3,3,0,0,0,3.88,1.86A3.17,3.17,0,0,0,389.12,163.2Z" style="fill:#b16668"></path><path d="M387.32,167.23a2.42,2.42,0,0,1-.36.1,2.76,2.76,0,0,1,2.34-3.07A3.15,3.15,0,0,1,387.32,167.23Z" style="fill:#f28f8f"></path><path d="M378.06,149.1l-3.84.94a2.09,2.09,0,0,1,1.5-2.46A1.93,1.93,0,0,1,378.06,149.1Z" style="fill:#263238"></path><path d="M388.92,149l3.77,1.19a2.08,2.08,0,0,0-1.33-2.55A1.94,1.94,0,0,0,388.92,149Z" style="fill:#263238"></path><path d="M391.75,153.47c.06,1-.63.71-1.56.76s-1.73.38-1.78-.58a1.61,1.61,0,0,1,1.7-1.6A1.42,1.42,0,0,1,391.75,153.47Z" style="fill:#263238"></path><path d="M388.86,152.34a4.13,4.13,0,0,1,1.28-.39,3.35,3.35,0,0,1,1.3,0,4.09,4.09,0,0,1,1.3.45s.06.12,0,.11c-.35-.06-.66-.13-1.17-.18a6.49,6.49,0,0,0-1.46.1,6.22,6.22,0,0,0-1.68.53c-.18.07-.52.24-.55.26s-.09-.1-.06-.14A2.87,2.87,0,0,1,388.86,152.34Z" style="fill:#263238"></path><path d="M375.19,153.59c-.06,1,.63.71,1.55.77s1.73.4,1.79-.56a1.62,1.62,0,0,0-1.69-1.62A1.42,1.42,0,0,0,375.19,153.59Z" style="fill:#263238"></path><path d="M378.09,152.48a4.43,4.43,0,0,0-1.28-.4,3.55,3.55,0,0,0-1.3,0,4.09,4.09,0,0,0-1.3.45s-.06.11,0,.1c.36-.05.67-.12,1.18-.17a6.49,6.49,0,0,1,1.46.11,6.64,6.64,0,0,1,1.68.54l.55.27s.08-.1.05-.14A2.77,2.77,0,0,0,378.09,152.48Z" style="fill:#263238"></path><path d="M385.86,191.2c1.62-1.63,3.23-2.44,4.36-1a17,17,0,0,1,2.09,4.33,31.94,31.94,0,0,0,9.33-5.07c4.73-4,5.88-6.59,5.88-6.59a19.92,19.92,0,0,1-1.95-2.84c-.69-1.32-.87-3.5-2-3.62l0,1.71s.09,2.16-4.17,5.12a42.22,42.22,0,0,1-10.55,4.9A6.22,6.22,0,0,0,385.86,191.2Z" style="fill:#f0f0f0"></path><path d="M385.86,191.2a19,19,0,0,1-.39-4.55,17.54,17.54,0,0,1,1.14-4.62l-.15-3.91s-.34-.43-.91.52-2.1,3.58-3.71,4a12.52,12.52,0,0,0-1.42,8.58C381.78,188.54,383.74,187.07,385.86,191.2Z" style="fill:#f0f0f0"></path></g><g id="freepik--Arm--inject-2"><path d="M461.93,176.69a5.55,5.55,0,0,1-.58,4,5.11,5.11,0,0,0,0,4.23,55.2,55.2,0,0,0,3.59,7.42,10.33,10.33,0,0,0,1.52,1.58,3.75,3.75,0,0,1-.91,2.23,14.31,14.31,0,0,1-2.12,1.94s-4.81-6.39-5.07-10.94S458.76,180.29,461.93,176.69Z" style="fill:#f0997a"></path><path d="M464.43,201.33a.62.62,0,0,0,.45-.75l-13.1-54.72a.61.61,0,0,0-.75-.46.64.64,0,0,0-.46.75l13.1,54.72a.63.63,0,0,0,.75.47Z" style="fill:#37474f"></path><g id="freepik--Flag--inject-2"><path d="M423.43,167.7c.9-6,5.36-9.08,13.07-10.93s14.2-4.63,15.45-10.23L457,167.69c-1.25,5.6-7.64,8.28-15.48,10.17s-12.15,5-13,10.95Z" style="fill:#fafafa"></path><path d="M423.43,167.7a10.87,10.87,0,0,1,4.89-7.76,26.57,26.57,0,0,1,8.76-3.46,38.53,38.53,0,0,0,8.82-3.17,14.35,14.35,0,0,0,3.71-2.79,8.71,8.71,0,0,0,2.15-4l.18-.8.19.79,5.11,21.14,0,.05,0,.06a9,9,0,0,1-2.29,4.2,14.32,14.32,0,0,1-3.84,2.82,39.82,39.82,0,0,1-8.93,3.13,26.66,26.66,0,0,0-8.7,3.35,10.75,10.75,0,0,0-4.87,7.59l-.11.73-.17-.72C426.65,181.8,425.06,174.74,423.43,167.7Zm0,0c1.73,7,3.5,14.05,5.18,21.08h-.29a11,11,0,0,1,5-7.83,26.88,26.88,0,0,1,8.79-3.45,39.16,39.16,0,0,0,8.81-3.14,14,14,0,0,0,3.72-2.75,8.65,8.65,0,0,0,2.15-4v.11l-5-21.16h.37a9,9,0,0,1-2.27,4.18,14.65,14.65,0,0,1-3.81,2.83,39.32,39.32,0,0,1-8.9,3.16,27.22,27.22,0,0,0-8.75,3.32,11.1,11.1,0,0,0-3.32,3.26A11.22,11.22,0,0,0,423.43,167.7Z" style="fill:#ebebeb"></path><path d="M456.23,169.79l-4.76-19.86,5.16,19A9.64,9.64,0,0,1,456.23,169.79Z" style="fill:#e0e0e0"></path><path d="M433.07,167.94a7.14,7.14,0,1,1,7.65,6.59A7.14,7.14,0,0,1,433.07,167.94Z" style="fill:#C53F3F"></path></g><path d="M458.94,189.92a.62.62,0,0,1-.61-.63l.49-56.27a.63.63,0,0,1,.63-.62.65.65,0,0,1,.62.64l-.49,56.26a.62.62,0,0,1-.63.62Z" style="fill:#37474f"></path><g id="freepik--flag--inject-2"><path d="M491.35,148c-2.22-5.61-7.26-7.65-15.19-7.72s-14.88-1.33-17.35-6.51l-.18,21.75c2.47,5.18,9.3,6.36,17.37,6.43s13,2.14,15.18,7.75Z" style="fill:#fafafa"></path><path d="M491.35,148a10.83,10.83,0,0,0-6.56-6.32,27.56,27.56,0,0,0-9.26-1.28,38.62,38.62,0,0,1-9.39-1.08,14.4,14.4,0,0,1-4.35-1.9,9.05,9.05,0,0,1-3.15-3.57l.36-.07-.12,21.74,0-.11a8.61,8.61,0,0,0,3,3.4,14.18,14.18,0,0,0,4.23,1.85,39.16,39.16,0,0,0,9.3,1.08,27,27,0,0,1,9.34,1.39,11,11,0,0,1,6.59,6.52l-.27.05C491.09,162.43,491.24,155.19,491.35,148Zm0,0c0,7.22,0,14.46,0,21.7v.73l-.27-.68a10.72,10.72,0,0,0-6.45-6.3,26.6,26.6,0,0,0-9.23-1.31A39.74,39.74,0,0,1,466,161a14.72,14.72,0,0,1-4.39-1.88,9.09,9.09,0,0,1-3.17-3.59l0,0v-.06l.25-21.74v-.81l.35.73a8.77,8.77,0,0,0,3,3.44,14.05,14.05,0,0,0,4.24,1.88,38.18,38.18,0,0,0,9.3,1.12,26.58,26.58,0,0,1,9.32,1.4,11.43,11.43,0,0,1,4,2.52A11.14,11.14,0,0,1,491.35,148Z" style="fill:#ebebeb"></path><path d="M459.86,157.34l.17-20.42-.77,19.64A7.56,7.56,0,0,0,459.86,157.34Z" style="fill:#e0e0e0"></path><path d="M482,150.34a7.14,7.14,0,1,0-6,8.15A7.14,7.14,0,0,0,482,150.34Z" style="fill:#C53F3F"></path></g><path d="M414.71,186.09c2.82.58,6.66,2.69,10,8.76L436,215.69c2.81-3.48,7.78-9.87,9.58-14.86s1.92-7.59,3.06-10.47.8-2.41,3.31-4.84a25.56,25.56,0,0,0,3.41-3.56,18.67,18.67,0,0,0,2.13-4.43c1.44-.82,2.37,2.16,1.92,4.23s-1,3.78,0,6.65c.62,1.7,3,6.94,3,6.94l.75,3.12s-3.2,3-4.81,4.16-3,3.67-5.54,9.6-4.11,10.76-8.12,17.68-8.54,10-12.46,6.62a63.19,63.19,0,0,1-8-9.41c-4.39-6-11.58-18.69-11.58-18.69C410.38,200.33,409.78,187.8,414.71,186.09Z" style="fill:#ffbda7"></path><path d="M412.54,184.45c6.7,1.53,8.48,2.55,13.81,12.4S436,215,436,215l8.3-11.74s1,5.31,9.2,8.42c-4.06,9.92-8.33,20.08-12.19,24-4.1,4.21-6.68,4.91-10.86,1.15s-19.53-26.24-19.53-26.24S404.24,196.3,412.54,184.45Z" style="fill:#ebebeb"></path><path d="M436,215c-3.92,5.17-6.89,9.62-4.58,17.54-3-6.52-2.74-13.13,3.68-19.25Z" style="fill:#e0e0e0"></path><path d="M459,183.2h0a8.65,8.65,0,0,0,.34,5.21c.64,1.76,2,5,3,7.27a3.16,3.16,0,0,1-1.58,1.06c-1.51.25-2.44-2.32-2.44-2.32l-1.6,1.23c-.81.24-1.69-.55-1.62-1.68a11.73,11.73,0,0,1,.86-3c-2.57.62-2.85-1.16-2.27-2.33S457.63,184.27,459,183.2Z" style="fill:#f0997a"></path><path d="M455.57,195.27a7.18,7.18,0,0,0-3.63,4.25c.48-2.54,1-3.34,3.24-5Z" style="fill:#f0997a"></path><path d="M458.3,177.49c.75.39,1.21,1.9,1.17,3.33a.9.9,0,0,1-.7.14C457.3,180.6,457.89,178.74,458.3,177.49Z" style="fill:#f0997a"></path><path d="M461.79,176.29a2.75,2.75,0,0,1-.37,2.85c-.56,1-1.94,2.36-2.72,1.77s-.76-2-.07-3.58,1.26-2.22,1.81-2.22A1.58,1.58,0,0,1,461.79,176.29Z" style="fill:#ffbda7"></path><path d="M463.39,182.11a2.59,2.59,0,0,1,0,3.78c-1.11,1.22-4.4,3.13-5.53,4a6.72,6.72,0,0,1-2.69,1.41,1.28,1.28,0,0,1-1.26-1.95,8.58,8.58,0,0,1,2.08-2.54,52.71,52.71,0,0,1,4.71-4.48C461.83,181.48,462.83,181.43,463.39,182.11Z" style="fill:#ffbda7"></path><path d="M461.64,187.34c1-.77,2.4-.81,3,0s1,2.22,0,3.09-4,2.66-4.92,3.3-1.83,1.71-2.58,1.91a1.29,1.29,0,0,1-1.54-1.42,7.34,7.34,0,0,1,1.38-3A16.43,16.43,0,0,1,461.64,187.34Z" style="fill:#ffbda7"></path><path d="M466.42,194.45a3.89,3.89,0,0,0-.36-2.73c-.24-.57-.49-1.07-1.42-.84a7.46,7.46,0,0,0-2.23,1.1,4,4,0,0,0-2,2.64c-.39,1.66-.23,2.28.85,2.08s1.24-.79,2.45-1.55S465.64,193.89,466.42,194.45Z" style="fill:#ffbda7"></path><path d="M451.71,203.21a8.84,8.84,0,0,0,2.28,1.18,3.26,3.26,0,0,0,3.39-.94,10.75,10.75,0,0,0-1.36,1.92h0a1.83,1.83,0,0,1-1.84.18C452.91,205.15,451.71,203.21,451.71,203.21Z" style="fill:#f0997a"></path><path d="M457.58,203.23l0,0h0Z" style="fill:#f0997a"></path></g></g></g></g><g id="freepik--character-1--inject-2"><g id="freepik--character--inject-2"><g id="freepik--Botom--inject-2"><path d="M134.9,392.34c.37-4.62,3.79-45.71,3.79-45.71l-22.34,14.44c2.3,27.52,2.83,30.53,2.91,35h0a3.4,3.4,0,0,0-.13,1.14c0,5.29,7,8,11.85,11.57a91.9,91.9,0,0,0,13.24,8.3c3.55,1.72,10.78,1.91,11.67-.26-5.95-4.36-12.84-9.12-17.58-14.09C136.05,400.35,134.44,397.89,134.9,392.34Z" style="fill:#ffbda7"></path><path d="M162.81,422.5c.28,0,.71,3.2-.85,4.55-1.79,1.57-7.05,4.12-14,3.17s-10.7-3.14-13.47-5.52-6.66-5.74-9.8-6.46c-2.91-.66-6.08-2-7-2.95s-.79-5-.79-5Z" style="fill:#263238"></path><path d="M119.22,394.77a1,1,0,0,0-.94.9c-.22,1.12.12,4.25-.34,6.09-.65,2.57-1.29,7.85-.91,9.94s5.13,3.56,8.16,4.76a38.39,38.39,0,0,1,9.83,6.37c3.26,2.75,10.12,5.53,14.64,5.62,6.91.13,11.39-1.75,12.77-4.27,1.72-3.12,1.2-5.34-6.73-9.12a97.86,97.86,0,0,1-8.8-5.32,26.6,26.6,0,0,1-10-12.45,3.06,3.06,0,0,0-1.14-1.7,2.52,2.52,0,0,0-1.54-.15c-1.32.19-5.15.65-6.36,1.23-1.06.51-2.58,1.11-2.56,2.5a4.94,4.94,0,0,0,.3,1.41c.09.28.17.66-.08.83s-.53,0-.74-.22a20.82,20.82,0,0,1-2.13-2.62c-.37-.48-1.45-.78-1.93-1.16a13.77,13.77,0,0,1-1.35-.9A17.38,17.38,0,0,1,119.22,394.77Z" style="fill:#C53F3F"></path><path d="M119.22,394.77a1,1,0,0,0-.94.9c-.22,1.12.12,4.25-.34,6.09-.65,2.57-1.29,7.85-.91,9.94s5.13,3.56,8.16,4.76a38.39,38.39,0,0,1,9.83,6.37c3.26,2.75,10.12,5.53,14.64,5.62,6.91.13,11.39-1.75,12.77-4.27,1.72-3.12,1.2-5.34-6.73-9.12a97.86,97.86,0,0,1-8.8-5.32,26.6,26.6,0,0,1-10-12.45,3.06,3.06,0,0,0-1.14-1.7,2.52,2.52,0,0,0-1.54-.15c-1.32.19-5.15.65-6.36,1.23-1.06.51-2.58,1.11-2.56,2.5a4.94,4.94,0,0,0,.3,1.41c.09.28.17.66-.08.83s-.53,0-.74-.22a20.82,20.82,0,0,1-2.13-2.62c-.37-.48-1.45-.78-1.93-1.16a13.77,13.77,0,0,1-1.35-.9A17.38,17.38,0,0,1,119.22,394.77Z" style="opacity:0.30000000000000004"></path><path d="M155.93,415.06c-10,.66-14.44,7.05-13.37,11.84a23.44,23.44,0,0,0,7.1,1.55c6.91.13,11.67-1.75,13.06-4.27C164.34,421.24,163,417.84,155.93,415.06Z" style="fill:#fff"></path><path d="M142.31,416a.51.51,0,0,1-.31-.11.5.5,0,0,1-.07-.7,11.63,11.63,0,0,1,9-3.59.49.49,0,0,1,.43.55.48.48,0,0,1-.53.44,10.76,10.76,0,0,0-8.19,3.23A.49.49,0,0,1,142.31,416Z" style="fill:#f0f0f0"></path><path d="M138.38,413.36a.45.45,0,0,1-.31-.11.5.5,0,0,1-.07-.7,11.59,11.59,0,0,1,9.05-3.58.5.5,0,0,1,.44.55.48.48,0,0,1-.54.43,10.76,10.76,0,0,0-8.19,3.23A.46.46,0,0,1,138.38,413.36Z" style="fill:#f0f0f0"></path><path d="M134.53,410.09a.51.51,0,0,1-.31-.11.5.5,0,0,1-.07-.7,11.65,11.65,0,0,1,9-3.59.49.49,0,0,1,.43.55.49.49,0,0,1-.54.44,10.81,10.81,0,0,0-8.19,3.23A.46.46,0,0,1,134.53,410.09Z" style="fill:#f0f0f0"></path><path d="M130.72,406.81a.5.5,0,0,1-.38-.81c1.92-2.45,6.25-4.05,9.88-3.63a.5.5,0,0,1-.1,1c-3.27-.38-7.31,1.09-9,3.26A.47.47,0,0,1,130.72,406.81Z" style="fill:#f0f0f0"></path><path d="M96.42,368.66,72.68,364c-.74,14.2,1.47,24.8,1.48,39.41,0,2.51-1.65,21.08-1,26.3,1,7.84,11.5,7.43,12.42,2.83s1.85-24,2-26c.18-.74.28-1.37.46-2.15,2.43-10.36,4.18-17.69,7.51-31.81C95.78,371.86,96.25,369.39,96.42,368.66Z" style="fill:#ffbda7"></path><path d="M89.27,436c-.13,4.56-.83,7.6-2.56,10.32s-5.17,3.65-8.7,3-8.08-2.66-9.23-6.56-1-6.6-.39-10.85Z" style="fill:#263238"></path><path d="M74.16,403.44c-1.44.13-1.64,6.26-2.26,12.41-.65,6.58-2.78,9.36-3.38,14.76-.69,6.17-.22,8.91,2.35,12.56s11.35,7.06,15.42,1.62c3.32-4.43,3.29-9.25,2.76-15.38a136.79,136.79,0,0,1-.89-15.61c.12-4.61,1.22-8.9-.06-9.38,0,0-.39,1.54-.47,2.21-.06.51-.11,3-.92,3.05a8.3,8.3,0,0,1-.08-1.73,1.9,1.9,0,0,0-.45-1.48,5.56,5.56,0,0,0-2.26-.77c-1.43-.21-2.86-.39-4.31-.47-.72,0-1.44-.05-2.16,0a6.18,6.18,0,0,0-1.82.28,1.21,1.21,0,0,0-.76.65,1.82,1.82,0,0,0-.05.7,4.53,4.53,0,0,1-.13,1.27c0,.18-.18.41-.39.37s-.24-.22-.25-.37c0-.74,0-1.28.06-2.15,0-.4.06-.94,0-1.34S74.14,403.83,74.16,403.44Z" style="fill:#C53F3F"></path><path d="M74.16,403.44c-1.44.13-1.64,6.26-2.26,12.41-.65,6.58-2.78,9.36-3.38,14.76-.69,6.17-.22,8.91,2.35,12.56s11.35,7.06,15.42,1.62c3.32-4.43,3.29-9.25,2.76-15.38a136.79,136.79,0,0,1-.89-15.61c.12-4.61,1.22-8.9-.06-9.38,0,0-.39,1.54-.47,2.21-.06.51-.11,3-.92,3.05a8.3,8.3,0,0,1-.08-1.73,1.9,1.9,0,0,0-.45-1.48,5.56,5.56,0,0,0-2.26-.77c-1.43-.21-2.86-.39-4.31-.47-.72,0-1.44-.05-2.16,0a6.18,6.18,0,0,0-1.82.28,1.21,1.21,0,0,0-.76.65,1.82,1.82,0,0,0-.05.7,4.53,4.53,0,0,1-.13,1.27c0,.18-.18.41-.39.37s-.24-.22-.25-.37c0-.74,0-1.28.06-2.15,0-.4.06-.94,0-1.34S74.14,403.83,74.16,403.44Z" style="opacity:0.30000000000000004"></path><path d="M68.25,434.18c-.11,3.83.23,6.44,2.24,9.29,2.58,3.65,12.05,7.06,16.12,1.62,2-2.71,2.48-5.85,2.66-9.06C86.57,432,72.15,430.58,68.25,434.18Z" style="fill:#fff"></path><path d="M85.33,429.45a.58.58,0,0,1-.18,0,23.65,23.65,0,0,0-12.48-.79.55.55,0,0,1-.65-.34.47.47,0,0,1,.38-.58,24.51,24.51,0,0,1,13.18.85.45.45,0,0,1,.28.62A.56.56,0,0,1,85.33,429.45Z" style="fill:#f0f0f0"></path><path d="M72.86,424a.55.55,0,0,1-.47-.31.47.47,0,0,1,.31-.61c6.4-2.1,12.89.62,13.17.74a.44.44,0,0,1,.25.63.59.59,0,0,1-.72.22c-.06,0-6.37-2.67-12.32-.7A.83.83,0,0,1,72.86,424Z" style="fill:#f0f0f0"></path><path d="M73.07,419.69a.53.53,0,0,1-.46-.29.46.46,0,0,1,.3-.62,18.61,18.61,0,0,1,13.43.7.44.44,0,0,1,.2.64.57.57,0,0,1-.73.18,17.64,17.64,0,0,0-12.5-.64A.5.5,0,0,1,73.07,419.69Z" style="fill:#f0f0f0"></path><path d="M73.34,414.83a.53.53,0,0,1-.46-.29.46.46,0,0,1,.29-.62c6.58-2.38,13.25.69,13.53.83a.43.43,0,0,1,.21.63.57.57,0,0,1-.72.2c-.06,0-6.5-3-12.61-.79A.67.67,0,0,1,73.34,414.83Z" style="fill:#ebebeb"></path><path d="M81.83,249.31c-1.76,25.27-7.12,88.92-7.12,88.92-.33,3.19-3.11,13.72-3,25.21.11,18,1.6,36.63,1.6,36.63s9.08,4.24,16.41,1.33c0,0,11-46.9,13.17-59,2.92-16.51,7.36-37.8,7.36-37.8l4.1,29.4s-2.65,11.54-1.12,22.65c1,7.57,5.24,35.79,5.24,35.79s7.39,3.65,17-.55c0,0,4.91-55.14,5.38-62.12s2-35.84.25-79.87Z" style="fill:#ebebeb"></path><path d="M110.2,304.63l5.85-27.49s9.78-.61,16-6.22c0,0-2.29,6.1-13.2,9.72l-5.44,26.09.85,27.3Z" style="fill:#e0e0e0"></path></g><g id="freepik--top--inject-2"><g id="freepik--arm--inject-2"><path d="M134.57,177.21c6.35,1.83,8.63,7.95,11,14.55,3.3,9.15,8.36,25,8.36,25l-1.62,24.35c-2.41-.19-7.55-3.38-13.18-12.63-6.73-11.06-7.46-12.43-7.46-12.43Z" style="fill:#ebebeb"></path><g id="freepik--arm--inject-2"><path d="M184,206.42a85.38,85.38,0,0,1-10.84,17.94c-8.8,11.75-17.17,19.38-22.95,16-3.47-2-6-19.36-.09-23.09,7.33-4.66,12.48-7.08,20-14,4.85-4.43,5.48-6.9,5.48-6.9Z" style="fill:#ebebeb"></path><path d="M153.45,215.15c-2.91,1.67-6.61,8.54-5,15.51-2.36-4.89-2.85-12.54,4.08-18.17Z" style="fill:#e0e0e0"></path></g></g><g id="freepik--chest--inject-2"><path d="M79.7,181.68a98,98,0,0,0-.16,24.08c1.36,12.46,1.64,13.94,2.06,23.59.39,16.45-1.13,26.78-1.51,33.73,7.42,8.68,44.49,12.73,61.8,1,0-4.21,0-14.53,0-21.49.09-15.43-.86-29.29-1.51-39.88-1-15.87-2.34-22.46-5.8-25.54-6.83-2.16-6.94-2-15.38-3.67s-15.17-2.71-23.13.77C88.4,177.66,79.7,181.68,79.7,181.68Z" style="fill:#fafafa"></path><g id="freepik--Head--inject-2"><path d="M131.55,140.58c2.31-5.28-.46-11.67-3.21-15-4-4.76-9.86-6.83-19.15-5.59-7,.94-13.88,4.41-15.21,11.7-6.58,3.33-4.66,12.06-2.9,15.91,3.69,8.08,8.53,14,8.63,18.29Z" style="fill:#263238"></path><path d="M131.89,162.12c-1.46,3.95-4,6.49-7.75,7a17.92,17.92,0,0,1-4.73.25l0,4.34c1.75,5.35-.86,10.45-2.84,13.58-2-1.85-8-4.49-12.22-7.49a21.09,21.09,0,0,1-4.88-5V158s-2.29,2.6-6.08.14c-2.59-1.7-4.9-6.31-2.56-10.1s6.4-2.22,7.56-1,1.72,3.36,2.68,3.05a3.5,3.5,0,0,0,2.33-2.38c.67-1.69.42-4.42-.11-7.15a13.53,13.53,0,0,0,3.57-2.37,7.06,7.06,0,0,0,1.88-5.2c8.63-5,18.13-4.17,22.15.19,1.94,3.41,2.29,9.08,2.61,13.65C133.8,151.81,133.34,158.21,131.89,162.12Z" style="fill:#ffbda7"></path><path d="M119.41,169.4c-4.15-.23-10.69-1.43-14.14-4.67a14.66,14.66,0,0,1-3.93-7.94s-.18,5.28,2.76,9.14a15.16,15.16,0,0,0,8,4.85c2.64.66,7.3,1.19,7.3,1.19Z" style="fill:#f0997a"></path><polygon points="120.65 143.31 121.92 154.8 127.55 152.63 120.65 143.31" style="fill:#f0997a"></polygon><path d="M114.8,156.79l6.12,1.47a3.1,3.1,0,0,1-3.73,2.43A3.3,3.3,0,0,1,114.8,156.79Z" style="fill:#b16668"></path><path d="M117.19,160.69c.13,0,.26,0,.38.05a2.86,2.86,0,0,0-2.8-2.84A3.26,3.26,0,0,0,117.19,160.69Z" style="fill:#f28f8f"></path><path d="M126.15,139.62l4,1a2.16,2.16,0,0,0-1.56-2.53A2,2,0,0,0,126.15,139.62Z" style="fill:#263238"></path><path d="M112.11,145.73c0,1,.65.69,1.58.71s1.74.33,1.76-.63a1.63,1.63,0,0,0-1.75-1.56A1.42,1.42,0,0,0,112.11,145.73Z" style="fill:#263238"></path><path d="M115,144.5a4.47,4.47,0,0,0-1.29-.34,3.55,3.55,0,0,0-1.3,0,3.93,3.93,0,0,0-1.29.5s0,.11,0,.1c.36-.07.66-.15,1.17-.21a6.81,6.81,0,0,1,3.16.52c.18.07.53.23.56.25s.08-.1,0-.14A2.89,2.89,0,0,0,115,144.5Z" style="fill:#263238"></path><path d="M129.23,145.32c0,1-.66.69-1.58.72s-1.74.33-1.77-.63a1.64,1.64,0,0,1,1.76-1.56A1.42,1.42,0,0,1,129.23,145.32Z" style="fill:#263238"></path><path d="M126.38,144.1a4.39,4.39,0,0,1,1.29-.34,3.55,3.55,0,0,1,1.3,0,4.25,4.25,0,0,1,1.29.49s.05.12,0,.11a11.69,11.69,0,0,0-1.17-.21,5.5,5.5,0,0,0-1.46.05,6.15,6.15,0,0,0-1.7.47l-.55.25c-.05,0-.08-.1-.06-.14A2.81,2.81,0,0,1,126.38,144.1Z" style="fill:#263238"></path><path d="M114.26,139.91l-3.69,1.76a2.15,2.15,0,0,1,1-2.8A2,2,0,0,1,114.26,139.91Z" style="fill:#263238"></path></g><path d="M116.52,187.33c-4.37-2.74-5.73-1.47-8.26.47l-5.55,4.29s-5.55-4.58-7.7-9.74-1.26-7.49-1.26-7.49a15.8,15.8,0,0,0,3-2.35c1.17-1.26,1.51-4.28,2.65-4.28v2.33a18,18,0,0,0,4.55,7.1C110.9,183.83,114.94,184.81,116.52,187.33Z" style="fill:#f0f0f0"></path><path d="M116.52,187.33c1.29-3.05,2.61-5.74,2.89-8.3a27.49,27.49,0,0,0,0-5.28l0-3.52s.7,0,1.43,1.16a23.68,23.68,0,0,0,3.26,3.1s3.39,8.58,2.55,15.69c-2.22-2.08-3.15-3.25-5.71-4.5C119.19,184.83,118,185,116.52,187.33Z" style="fill:#f0f0f0"></path></g><g id="freepik--flag--inject-2"><g id="freepik--Pole--inject-2"><path d="M220.91,60.88a1.84,1.84,0,0,1,2.35-1.13h0a1.84,1.84,0,0,1,1.13,2.35L112,381.91h0a.91.91,0,0,1-.76.53,2.86,2.86,0,0,1-2.46-.86.93.93,0,0,1-.26-.89h0Z" style="fill:#37474f"></path><path d="M223.26,59.75h0a1.84,1.84,0,0,1,1.13,2.35l-.72,2.06a4.89,4.89,0,0,1-3.48-1.22l.72-2.06A1.84,1.84,0,0,1,223.26,59.75Z" style="fill:#263238"></path><path d="M219,56.29a5.13,5.13,0,1,0,6.54-3.14A5.14,5.14,0,0,0,219,56.29Z" style="fill:#455a64"></path></g><g id="freepik--flag--inject-2"><path d="M186,160.14c1.3,28.31,20.61,45.06,55.76,57.49,35.76,12.64,64.32,28.29,67.4,55.09l33.74-96.12c-3.09-26.79-31.65-42.44-67.4-55.09-35.15-12.43-54.35-29.26-55.65-57.57Z" style="fill:#f5f5f5"></path><polygon points="187.04 168.29 220.8 72.31 186.43 165.17 187.04 168.29" style="fill:#e0e0e0"></polygon><circle cx="264.2" cy="169.69" r="33.57" transform="translate(-34.17 267.53) rotate(-50.87)" style="fill:#C53F3F"></circle></g></g><path id="freepik--Hand--inject-2" d="M171.68,201c-1.08,1.18-2.61,1.44-3-.17-.54-2.23-2.07-7.23-1.76-9.48a5,5,0,0,1,1.53-2.32c.62-.66,1-.65,1-1.6a3.33,3.33,0,0,1,2.41-3.59c.07-1.55.15-3,1.64-3.92,1.86-1.12,7.61.18,8.81,2,3.31,5,7,11.24,5.77,14.92a76.87,76.87,0,0,1-4,9.92c-5.21,2-9-1.52-9.73-2.11l.91-2.59a2.22,2.22,0,0,0-1-2.08c-1.27-1-1.93-.6-1.93-.6Z" style="fill:#ffbda7"></path><g id="freepik--arm--inject-2"><path d="M154.54,249.74c.73,2.17,3.45,1.31,3.45,1.31l1.52-4.32a1.84,1.84,0,0,1,1.85.93,20.07,20.07,0,0,1,2.53,5.86,2.45,2.45,0,0,1-1.18,2.21s1.68,3-.61,4.47c.57,1.76.19,3.11-1.3,3.69a3.26,3.26,0,0,1-.79,2.61c-.69.74-4.17,3.44-7.36,3.45-3.93,0-13.35-3-18.21-4.6l3.71-15a15.3,15.3,0,0,0,6.43-.19c1.61-.53,3.83-1.44,6.23-2.49,3.9-1.71,4.91-1.24,4.91-1.24Z" style="fill:#ffbda7"></path><path d="M138.63,249.79,99.3,236.63s-5.4-25.3-7.14-33.88c-3.49-17.19-9.64-22.36-9.64-22.36A36.06,36.06,0,0,0,74.79,184c-3.58,2.33-9.07,5.81-4.73,26.91,3.31,16.08,7.39,31.8,8.49,35.94,2.17,8.21,4.31,9.25,17.58,12.72,12,3.12,38.52,7,38.52,7Z" style="fill:#ebebeb"></path></g></g></g></g><g id="freepik--Text--inject-2"><g id="freepik--text--inject-2"><path d="M193.09,334.21v24.17c0,6.52-3.18,10.78-10.88,10.78-1.48,0-6-.16-6-2.11,0-.66.46-3.95,1.75-4.05a16.11,16.11,0,0,0,3,.46c3.8,0,5.34-1.74,5.34-5.7V334.21c0-.92.82-1.49,2.72-1.49h1.28C192.27,332.72,193.09,333.29,193.09,334.21Z" style="fill:#C53F3F"></path><path d="M216.23,333.75l11.6,33.3a2.69,2.69,0,0,1,.16.82c0,.62-.72,1-2.42,1H224c-1.33,0-2.36-.26-2.56-1l-2.41-7H205.82l-2.36,7c-.26.71-1.13,1-2.26,1h-1.44c-1.9,0-2.77-.36-2.77-1a3.27,3.27,0,0,1,.21-.87l11.59-33.25c.26-.72,1.29-1,2.62-1h2.21C215,332.77,216,333,216.23,333.75Zm-3.79,6.82a22.81,22.81,0,0,1-.77,3.19l-3.9,11.39h9.34l-3.8-11.39a22.69,22.69,0,0,1-.72-3.19Z" style="fill:#C53F3F"></path><path d="M256.52,343.71c0,9.69-8.67,11-11.39,11h-6.37v12.77c0,.93-.82,1.44-2.72,1.44h-1.23c-1.9,0-2.72-.51-2.72-1.44V334.72c0-1.28.57-1.84,1.85-1.84h10.67C249.13,332.88,256.52,334.21,256.52,343.71Zm-17.76-5.14v10.37h5.8c2,0,5.13-.87,5.13-5.23,0-4.21-3-5.14-5.38-5.14Z" style="fill:#C53F3F"></path><path d="M276.94,333.75l11.6,33.3a2.65,2.65,0,0,1,.15.82c0,.62-.71,1-2.41,1h-1.59c-1.33,0-2.36-.26-2.56-1l-2.42-7H266.53l-2.36,7c-.26.71-1.13,1-2.26,1h-1.44c-1.9,0-2.77-.36-2.77-1a3.62,3.62,0,0,1,.2-.87l11.6-33.25c.26-.72,1.29-1,2.62-1h2.21C275.66,332.77,276.69,333,276.94,333.75Zm-3.79,6.82a24.31,24.31,0,0,1-.77,3.19l-3.9,11.39h9.34L274,343.76a22.69,22.69,0,0,1-.72-3.19Z" style="fill:#C53F3F"></path><path d="M322,334.21v33.25c0,.93-.82,1.44-2.72,1.44h-1.59c-1.34,0-2.21-.2-2.83-1.13L300.6,346.12l-1.23-2v23.34c0,.93-.77,1.44-2.67,1.44h-1.08c-1.9,0-2.72-.51-2.72-1.44V334.21c0-.92.82-1.44,2.72-1.44h1.8c1.33,0,2.26.21,2.92,1.24L314,354.89l1.44,2.36v-23c0-.92.82-1.44,2.72-1.44h1.08C321.13,332.77,322,333.29,322,334.21Z" style="fill:#C53F3F"></path><path d="M178.66,376.57v7.79c0,.22-.19.34-.63.34h-.38a.69.69,0,0,1-.66-.27l-3.33-5.07-.29-.47v5.47c0,.22-.18.34-.62.34h-.25c-.45,0-.64-.12-.64-.34v-7.79c0-.22.19-.34.64-.34h.42a.69.69,0,0,1,.68.29l3.2,4.89.34.56v-5.4c0-.22.19-.34.63-.34H178C178.47,376.23,178.66,376.35,178.66,376.57Z" style="fill:#37474f"></path><path d="M184.14,376.46l2.72,7.8a.81.81,0,0,1,0,.2c0,.14-.16.24-.56.24H186c-.32,0-.56-.06-.61-.23l-.56-1.65H181.7l-.55,1.65c-.06.17-.27.23-.53.23h-.34c-.44,0-.65-.09-.65-.24a1.23,1.23,0,0,1,.05-.21l2.72-7.79c.06-.17.3-.23.61-.23h.52C183.84,376.23,184.08,376.29,184.14,376.46Zm-.89,1.6a6.14,6.14,0,0,1-.18.74l-.91,2.67h2.19l-.89-2.67a3.78,3.78,0,0,1-.17-.74Z" style="fill:#37474f"></path><path d="M193.4,376.77v.3c0,.36-.09.52-.31.52h-2v6.77c0,.22-.2.34-.64.34h-.3c-.45,0-.64-.12-.64-.34v-6.77h-2.05c-.22,0-.32-.16-.32-.52v-.3c0-.36.1-.51.32-.51h5.67C193.31,376.26,193.4,376.41,193.4,376.77Z" style="fill:#37474f"></path><path d="M196,376.57v7.79c0,.22-.19.35-.64.35h-.3c-.44,0-.64-.13-.64-.35v-7.79c0-.22.2-.35.64-.35h.3C195.85,376.22,196,376.35,196,376.57Z" style="fill:#37474f"></path><path d="M205.14,380.45c0,2.79-1.34,4.31-3.8,4.31s-3.8-1.52-3.8-4.31,1.35-4.28,3.8-4.28S205.14,377.66,205.14,380.45Zm-6,0c0,1.94.75,3,2.2,3s2.18-1,2.18-3-.75-2.94-2.18-2.94S199.16,378.53,199.16,380.45Z" style="fill:#37474f"></path><path d="M213.48,376.57v7.79c0,.22-.19.34-.64.34h-.37a.68.68,0,0,1-.66-.27l-3.33-5.07-.29-.47v5.47c0,.22-.18.34-.62.34h-.26c-.44,0-.63-.12-.63-.34v-7.79c0-.22.19-.34.63-.34h.42a.71.71,0,0,1,.69.29l3.2,4.89.33.56v-5.4c0-.22.2-.34.64-.34h.25C213.29,376.23,213.48,376.35,213.48,376.57Z" style="fill:#37474f"></path><path d="M219,376.46l2.72,7.8a.81.81,0,0,1,0,.2c0,.14-.17.24-.56.24h-.38c-.31,0-.55-.06-.6-.23l-.56-1.65h-3.09l-.56,1.65c-.06.17-.26.23-.53.23h-.33c-.45,0-.65-.09-.65-.24a.69.69,0,0,1,.05-.21l2.71-7.79c.06-.17.31-.23.62-.23h.51C218.66,376.23,218.9,376.29,219,376.46Zm-.89,1.6a6.14,6.14,0,0,1-.18.74l-.92,2.67h2.19l-.89-2.67a6.11,6.11,0,0,1-.17-.74Z" style="fill:#37474f"></path><path d="M224.29,376.57v6.77h2.91c.22,0,.31.15.31.51v.31c0,.36-.09.51-.31.51h-4c-.3,0-.43-.13-.43-.43v-7.67c0-.22.19-.34.63-.34h.29C224.1,376.23,224.29,376.35,224.29,376.57Z" style="fill:#37474f"></path><path d="M236.13,376.77v.3c0,.36-.1.52-.33.52H233v2.12h2.67c.23,0,.32.15.32.51v.3c0,.36-.09.52-.32.52H233v3.32c0,.22-.19.34-.64.34h-.29c-.44,0-.63-.12-.63-.34v-7.67c0-.3.13-.43.43-.43h3.93C236,376.26,236.13,376.41,236.13,376.77Z" style="fill:#37474f"></path><path d="M244.73,380.45c0,2.79-1.35,4.31-3.8,4.31s-3.8-1.52-3.8-4.31,1.34-4.28,3.8-4.28S244.73,377.66,244.73,380.45Zm-6,0c0,1.94.76,3,2.2,3s2.19-1,2.19-3-.76-2.94-2.19-2.94S238.74,378.53,238.74,380.45Z" style="fill:#37474f"></path><path d="M253,376.57v5.34c0,1.8-1.25,2.85-3.42,2.85s-3.41-1.05-3.41-2.85v-5.34c0-.22.19-.34.64-.34h.29c.44,0,.63.12.63.34v5.26a1.88,1.88,0,0,0,3.71,0v-5.26c0-.22.19-.34.63-.34h.29C252.84,376.23,253,376.35,253,376.57Z" style="fill:#37474f"></path><path d="M261.63,376.57v7.79c0,.22-.19.34-.64.34h-.37a.68.68,0,0,1-.66-.27l-3.33-5.07-.29-.47v5.47c0,.22-.18.34-.63.34h-.25c-.44,0-.64-.12-.64-.34v-7.79c0-.22.2-.34.64-.34h.42a.71.71,0,0,1,.69.29l3.2,4.89.33.56v-5.4c0-.22.2-.34.64-.34H261C261.44,376.23,261.63,376.35,261.63,376.57Z" style="fill:#37474f"></path><path d="M270.33,380.46c0,2.87-1.47,4.21-3.8,4.21h-2.6c-.3,0-.43-.13-.43-.43v-7.55c0-.3.13-.43.43-.43h2.6C268.86,376.26,270.33,377.6,270.33,380.46Zm-5.26-2.87v5.75h1.44c1.37,0,2.22-.92,2.22-2.88s-.85-2.87-2.22-2.87Z" style="fill:#37474f"></path><path d="M275.47,376.46l2.71,7.8a.54.54,0,0,1,0,.2c0,.14-.17.24-.56.24h-.38c-.31,0-.55-.06-.6-.23l-.56-1.65H273l-.56,1.65c-.06.17-.26.23-.53.23h-.33c-.45,0-.65-.09-.65-.24a.69.69,0,0,1,.05-.21l2.71-7.79c.06-.17.3-.23.62-.23h.51C275.17,376.23,275.41,376.29,275.47,376.46Zm-.89,1.6a6.14,6.14,0,0,1-.18.74l-.92,2.67h2.19l-.89-2.67a6.11,6.11,0,0,1-.17-.74Z" style="fill:#37474f"></path><path d="M284.73,376.77v.3c0,.36-.1.52-.31.52h-2.05v6.77c0,.22-.19.34-.63.34h-.3c-.45,0-.64-.12-.64-.34v-6.77h-2.06c-.21,0-.31-.16-.31-.52v-.3c0-.36.1-.51.31-.51h5.68C284.63,376.26,284.73,376.41,284.73,376.77Z" style="fill:#37474f"></path><path d="M287.37,376.57v7.79c0,.22-.2.35-.64.35h-.3c-.45,0-.64-.13-.64-.35v-7.79c0-.22.19-.35.64-.35h.3C287.17,376.22,287.37,376.35,287.37,376.57Z" style="fill:#37474f"></path><path d="M296.47,380.45c0,2.79-1.35,4.31-3.8,4.31s-3.8-1.52-3.8-4.31,1.35-4.28,3.8-4.28S296.47,377.66,296.47,380.45Zm-6,0c0,1.94.76,3,2.2,3s2.19-1,2.19-3-.76-2.94-2.19-2.94S290.48,378.53,290.48,380.45Z" style="fill:#37474f"></path><path d="M304.81,376.57v7.79c0,.22-.19.34-.64.34h-.37a.68.68,0,0,1-.66-.27l-3.33-5.07-.29-.47v5.47c0,.22-.18.34-.63.34h-.25c-.44,0-.64-.12-.64-.34v-7.79c0-.22.2-.34.64-.34h.42a.72.72,0,0,1,.69.29l3.2,4.89.33.56v-5.4c0-.22.19-.34.64-.34h.25C304.62,376.23,304.81,376.35,304.81,376.57Z" style="fill:#37474f"></path><path d="M316.39,380.46c0,2.87-1.46,4.21-3.79,4.21H310c-.3,0-.43-.13-.43-.43v-7.55c0-.3.13-.43.43-.43h2.6C314.93,376.26,316.39,377.6,316.39,380.46Zm-5.25-2.87v5.75h1.43c1.37,0,2.23-.92,2.23-2.88s-.86-2.87-2.23-2.87Z" style="fill:#37474f"></path><path d="M321.53,376.46l2.72,7.8a.54.54,0,0,1,0,.2c0,.14-.17.24-.57.24h-.37c-.31,0-.55-.06-.6-.23l-.57-1.65h-3.09l-.55,1.65c-.06.17-.26.23-.53.23h-.34c-.44,0-.65-.09-.65-.24a1.23,1.23,0,0,1,.05-.21l2.72-7.79c.06-.17.3-.23.61-.23h.52C321.23,376.23,321.47,376.29,321.53,376.46Zm-.89,1.6a3.8,3.8,0,0,1-.18.74l-.91,2.67h2.19l-.89-2.67a4.67,4.67,0,0,1-.17-.74Z" style="fill:#37474f"></path><path d="M330.39,376.23c.46,0,.66.09.66.23a.61.61,0,0,1-.11.26l-2.44,3.85v3.79c0,.22-.19.34-.64.34h-.29c-.44,0-.63-.12-.63-.34v-3.82l-2.44-3.82a.61.61,0,0,1-.11-.26c0-.14.2-.23.68-.23h.39c.31,0,.54,0,.65.22l1.64,2.7,1.68-2.71c.1-.16.34-.21.66-.21Z" style="fill:#37474f"></path></g></g></svg>