<svg xmlns="http://www.w3.org/2000/svg" viewBox="0 0 500 500"><g id="freepik--background-complete--inject-2"><rect y="382.4" width="500" height="0.25" style="fill:#ebebeb"></rect><rect x="393.11" y="398.62" width="16.56" height="0.25" style="fill:#ebebeb"></rect><rect x="329.19" y="394.99" width="37.81" height="0.25" style="fill:#ebebeb"></rect><rect x="265" y="389.21" width="69.08" height="0.25" style="fill:#ebebeb"></rect><rect x="52.46" y="390.89" width="12.69" height="0.25" style="fill:#ebebeb"></rect><rect x="74.06" y="390.89" width="36.83" height="0.25" style="fill:#ebebeb"></rect><rect x="152.33" y="395.11" width="59.53" height="0.25" style="fill:#ebebeb"></rect><path d="M237,337.8H43.91a5.71,5.71,0,0,1-5.7-5.71V60.66A5.71,5.71,0,0,1,43.91,55H237a5.71,5.71,0,0,1,5.71,5.71V332.09A5.71,5.71,0,0,1,237,337.8ZM43.91,55.2a5.46,5.46,0,0,0-5.45,5.46V332.09a5.46,5.46,0,0,0,5.45,5.46H237a5.47,5.47,0,0,0,5.46-5.46V60.66A5.47,5.47,0,0,0,237,55.2Z" style="fill:#ebebeb"></path><path d="M453.31,337.8H260.21a5.72,5.72,0,0,1-5.71-5.71V60.66A5.72,5.72,0,0,1,260.21,55h193.1A5.71,5.71,0,0,1,459,60.66V332.09A5.71,5.71,0,0,1,453.31,337.8ZM260.21,55.2a5.47,5.47,0,0,0-5.46,5.46V332.09a5.47,5.47,0,0,0,5.46,5.46h193.1a5.47,5.47,0,0,0,5.46-5.46V60.66a5.47,5.47,0,0,0-5.46-5.46Z" style="fill:#ebebeb"></path><path d="M109,294.35c-2,5.4-7.59,7.63-13.48,3.48-1.67,8.67-20.33,7-19.83-5.33-2.29,4.93-14.54,6.13-19.63,1.72,1.82-5.36,3.77-10.63,5.85-15.72,8.44-20.61,24.15-17.28,39.55,4.28C104.27,286.75,106.78,290.64,109,294.35Z" style="fill:#f5f5f5"></path><path d="M436.78,266.2c-8.71-17.82-31.56-27.2-43.67,16.36-6.67-51.55-56.49-180.69-96.5-154-90.49,60.3-174,195.14-174,195.14s-5.72-19.34-21.12-40.89-31.11-24.89-39.55-4.28C43.6,323.15,35.67,382.4,35.67,382.4h442S452,297.33,436.78,266.2Z" style="fill:#ebebeb"></path><path d="M109,294.35c-2,5.4-7.59,7.63-13.48,3.48-1.67,8.67-20.33,7-19.83-5.33-2.29,4.93-14.54,6.13-19.63,1.72,1.82-5.36,3.77-10.63,5.85-15.72,8.44-20.61,24.15-17.28,39.55,4.28C104.27,286.75,106.78,290.64,109,294.35Z" style="fill:#f5f5f5"></path><path d="M364.7,191.4c-19.36-42.74-45.32-78.05-68.09-62.87-16.89,11.26-33.55,25.11-49.46,40.21-1.23,10.65,5,18.29,23.85,17.59,11.56,15.56,40.67,28.76,53.33,10C341.44,215,349,191,345.89,182.78,352.16,187.59,359.43,191.37,364.7,191.4Z" style="fill:#f5f5f5"></path><path d="M436.78,266.2c-7.76-15.87-26.73-25-39.34,3.91.68,2.74,3.06,4.22,7.89,3.22,1.84,13,19.17,11.61,20.17,6.81,6.61,8.09,14.13,5.62,16.82-1.44C440.37,274,438.51,269.74,436.78,266.2Z" style="fill:#f5f5f5"></path><path d="M407.75,313.71c-6.09-21.46-22.95-17.71-22.16,1.46s1.34,57.83,0,67.23H401S414.14,336.21,407.75,313.71Z" style="fill:#fafafa"></path><path d="M422.47,332.42c.33,17.5-10.09,25.75-19.5,24.66l1.41,5.17c23.59,3.17,32.09-8.17,32.34-23.83S422.13,314.92,422.47,332.42Z" style="fill:#fafafa"></path><path d="M377.69,318.16c-.25,13.12,7.56,19.31,14.62,18.49l-1.06,3.88c-17.69,2.37-24.06-6.13-24.25-17.88S377.94,305,377.69,318.16Z" style="fill:#fafafa"></path><path d="M88.15,332c4.47-15.73,16.83-13,16.25,1.08s-1,42.41,0,49.3H93.13S83.47,348.52,88.15,332Z" style="fill:#fafafa"></path><path d="M77.36,333.73c-.24,12.84,7.39,18.89,14.3,18.09l-1,3.79c-17.29,2.32-23.53-6-23.71-17.48S77.6,320.9,77.36,333.73Z" style="fill:#fafafa"></path><path d="M81.43,362.85c3.34,5.49,8.18,6,10.89,3.81l.57,1.88c-6.68,5.61-11.54,3.77-14.69-1S78.1,357.37,81.43,362.85Z" style="fill:#fafafa"></path><path d="M110.2,346.38c.18,9.62-5.55,14.16-10.73,13.56l.78,2.84c13,1.74,17.65-4.49,17.78-13.11S110,336.75,110.2,346.38Z" style="fill:#fafafa"></path><path d="M128.3,83.29a26.62,26.62,0,0,1-1.19,7.09,35.82,35.82,0,0,1-3.69,8.24H90a28.08,28.08,0,0,1,1.07-5.26,37.93,37.93,0,0,1,9.48-15.64c4.58-4.6,10.06-7.68,15.22-8.11C123.71,69,128.53,74.71,128.3,83.29Z" style="fill:#f5f5f5"></path><path d="M143.52,92.57a20.25,20.25,0,0,1-.58,2.43,24.26,24.26,0,0,1-1.42,3.62H117.74c.11-.51.25-1,.41-1.57A26,26,0,0,1,128.3,83.29a14.77,14.77,0,0,1,6.86-2.59C141.33,80.18,144.77,85.34,143.52,92.57Z" style="fill:#f5f5f5"></path><path d="M79.9,95a23.27,23.27,0,0,1-1.43,3.62H54.7c.11-.51.24-1,.41-1.57,2.54-8.47,10.16-15.79,17-16.35a7.63,7.63,0,0,1,5.62,1.57C80.61,84.62,81.6,89.35,79.9,95Z" style="fill:#f5f5f5"></path><path d="M157.27,95.38a15.75,15.75,0,0,1-1.41,3.24H141.15a12.32,12.32,0,0,1,.44-2,15.54,15.54,0,0,1,1.93-4.1c2.24-3.43,5.65-6,8.82-6.24C156.67,86,158.87,90,157.27,95.38Z" style="fill:#f5f5f5"></path><path d="M101.2,90.5a29.84,29.84,0,0,1-3.91,8.12H71a22.77,22.77,0,0,1,1-5.7,30.48,30.48,0,0,1,5.81-10.65c4-4.86,9.33-8.25,14.27-8.66a8.63,8.63,0,0,1,8.57,4.11C102.4,80.79,102.76,85.31,101.2,90.5Z" style="fill:#f5f5f5"></path><path d="M414.17,142.16a13.51,13.51,0,0,1-.61,3.6,18,18,0,0,1-1.87,4.18h-17a13.9,13.9,0,0,1,.54-2.67,19.31,19.31,0,0,1,4.81-7.94,13.07,13.07,0,0,1,7.74-4.12C411.84,134.88,414.28,137.8,414.17,142.16Z" style="fill:#fafafa"></path><path d="M421.9,146.87a10,10,0,0,1-.3,1.23,11.14,11.14,0,0,1-.72,1.84H408.8c.06-.26.13-.52.21-.8a13.25,13.25,0,0,1,5.16-7,7.61,7.61,0,0,1,3.48-1.32C420.78,140.58,422.53,143.2,421.9,146.87Z" style="fill:#fafafa"></path><path d="M389.59,148.1a11.19,11.19,0,0,1-.73,1.84H376.79c.06-.26.13-.52.21-.8,1.29-4.29,5.16-8,8.63-8.3a3.92,3.92,0,0,1,2.86.8C390,142.83,390.45,145.24,389.59,148.1Z" style="fill:#fafafa"></path><path d="M428.88,148.3a8.25,8.25,0,0,1-.72,1.64h-7.47a8.54,8.54,0,0,1,.22-1,7.79,7.79,0,0,1,1-2.08,6.61,6.61,0,0,1,4.47-3.17C428.57,143.52,429.69,145.58,428.88,148.3Z" style="fill:#fafafa"></path><path d="M400.41,145.82a15.09,15.09,0,0,1-2,4.12H385.05a10.87,10.87,0,0,1,.49-2.89,15.35,15.35,0,0,1,2.95-5.41c2.05-2.47,4.73-4.19,7.24-4.4a4.38,4.38,0,0,1,4.35,2.09C401,140.89,401.2,143.18,400.41,145.82Z" style="fill:#fafafa"></path><path d="M387.66,80.2a21,21,0,0,1-1,5.64,28.4,28.4,0,0,1-2.93,6.54H357.25a21.11,21.11,0,0,1,.85-4.18,30.15,30.15,0,0,1,7.52-12.42c3.64-3.66,8-6.1,12.1-6.45C384,68.81,387.84,73.39,387.66,80.2Z" style="fill:#f5f5f5"></path><path d="M335.33,86.5a20.55,20.55,0,0,1-.56,2.36,24,24,0,0,1-1.38,3.52h-23.1c.11-.5.24-1,.4-1.53a25.29,25.29,0,0,1,9.86-13.36A14.33,14.33,0,0,1,327.21,75C333.2,74.47,336.54,79.48,335.33,86.5Z" style="fill:#f5f5f5"></path><path d="M347.42,88.86A23,23,0,0,1,346,92.38H322.94c.11-.5.24-1,.4-1.53,2.47-8.22,9.87-15.33,16.51-15.88a7.41,7.41,0,0,1,5.46,1.53C348.11,78.78,349.07,83.38,347.42,88.86Z" style="fill:#f5f5f5"></path><path d="M396.3,89.23a14.88,14.88,0,0,1-1.37,3.15H380.65a11.87,11.87,0,0,1,.42-1.9,15.27,15.27,0,0,1,1.88-4c2.17-3.33,5.49-5.8,8.56-6.06C395.72,80.1,397.86,84,396.3,89.23Z" style="fill:#f5f5f5"></path><path d="M368.11,84.49a29.17,29.17,0,0,1-3.8,7.89H338.73a21.87,21.87,0,0,1,.94-5.54,29.54,29.54,0,0,1,5.64-10.34c3.93-4.72,9.06-8,13.86-8.41a8.37,8.37,0,0,1,8.32,4C369.27,75.06,369.62,79.45,368.11,84.49Z" style="fill:#f5f5f5"></path><circle cx="115.92" cy="172.79" r="48.21" style="fill:#fafafa"></circle><path d="M197.37,176.2a24.36,24.36,0,0,1-1.11,6.54,32.87,32.87,0,0,1-3.39,7.59H162.08a24.6,24.6,0,0,1,1-4.85,35.05,35.05,0,0,1,8.73-14.41c4.22-4.24,9.27-7.08,14-7.48C193.13,163,197.57,168.3,197.37,176.2Z" style="fill:#f5f5f5"></path><path d="M136.65,183.51a25.58,25.58,0,0,1-.64,2.74,27.88,27.88,0,0,1-1.61,4.08H107.6c.13-.58.28-1.17.47-1.77a29.31,29.31,0,0,1,11.44-15.5,16.5,16.5,0,0,1,7.72-2.92C134.18,169.56,138.06,175.37,136.65,183.51Z" style="fill:#f5f5f5"></path><path d="M150.67,186.25a25.81,25.81,0,0,1-1.61,4.08H122.27c.13-.58.28-1.17.47-1.77,2.86-9.54,11.45-17.79,19.15-18.42a8.63,8.63,0,0,1,6.34,1.77C151.47,174.56,152.59,179.89,150.67,186.25Z" style="fill:#f5f5f5"></path><path d="M207.39,186.68a17.11,17.11,0,0,1-1.59,3.65H189.23a14,14,0,0,1,.49-2.2,17.92,17.92,0,0,1,2.18-4.62c2.52-3.86,6.37-6.73,9.93-7C206.72,176.09,209.2,180.65,207.39,186.68Z" style="fill:#f5f5f5"></path><path d="M174.68,181.18a33.91,33.91,0,0,1-4.41,9.15H140.59a25.55,25.55,0,0,1,1.09-6.42,34.27,34.27,0,0,1,6.55-12c4.56-5.48,10.51-9.29,16.08-9.76,4.38-.36,7.74,1.43,9.65,4.63C176,170.24,176.43,175.33,174.68,181.18Z" style="fill:#f5f5f5"></path></g><g id="freepik--Shadow--inject-2"><ellipse id="freepik--path--inject-2" cx="250" cy="416.24" rx="193.89" ry="11.32" style="fill:#f5f5f5"></ellipse></g><g id="freepik--Llama-1--inject-2"><path d="M209.19,115.68c4.47-5.19,7.9-8.36,10.89-20.9,1.63-6.82,7.72-3.58,6.93-2.41,4.2-.29,5.69,2.19,2.82,3.3,1.2,2.34,2.23,26.37-14.4,38.05C209.82,130.14,209.19,115.68,209.19,115.68Z" style="fill:#40757D"></path><path d="M209.19,115.68c4.47-5.19,7.9-8.36,10.89-20.9,1.63-6.82,7.72-3.58,6.93-2.41,4.2-.29,5.69,2.19,2.82,3.3,1.2,2.34,2.23,26.37-14.4,38.05C209.82,130.14,209.19,115.68,209.19,115.68Z" style="opacity:0.2"></path><g style="opacity:0.2"><path d="M221.58,101.85c.8-5.34,4.5-6.34,6.94-6.3a1.68,1.68,0,0,1,1.65,1.4c.72,4.52.45,18.6-7.37,29.45a7,7,0,0,1-12.46-2.46l0-.13a1.71,1.71,0,0,1,1-1.94C218.64,118.66,220.73,107.53,221.58,101.85Z"></path></g><path d="M228.86,123.08a3.14,3.14,0,1,1-2.66-3.56A3.14,3.14,0,0,1,228.86,123.08Z" style="fill:#40757D"></path><path d="M231.43,127c-1.12,1.65-4.63,2.79-7.85,2.54s-4.91-1.79-3.79-3.44,4.63-2.79,7.84-2.54S232.55,125.35,231.43,127Z" style="fill:#40757D"></path><path d="M231.43,127c-1.12,1.65-4.63,2.79-7.85,2.54s-4.91-1.79-3.79-3.44,4.63-2.79,7.84-2.54S232.55,125.35,231.43,127Z" style="fill:#fff;opacity:0.4"></path><path d="M274.93,279.22c24.73,62.88,27.78,62,33.11,83.71s8,42.86,8.27,47.43-2.76,5.88,2.09,5.88h9.72c3.28,0,8.22-46.67,4.21-63.09,2.83-20,14.89-46,8.63-68.28S267.25,259.68,274.93,279.22Z" style="fill:#40757D"></path><path d="M274.93,279.22c24.73,62.88,27.78,62,33.11,83.71s8,42.86,8.27,47.43-2.76,5.88,2.09,5.88h9.72c3.28,0,8.22-46.67,4.21-63.09,2.83-20,14.89-46,8.63-68.28S267.25,259.68,274.93,279.22Z" style="fill:#263238;opacity:0.30000000000000004"></path><path d="M175.25,288c6.45,37.85,22.32,55.91,26,76.57s6.09,41.77,6,46.12-3,5.59,1.62,5.59h9.24c3.13,0,7.12-46.64,5.94-60.78s8.35-31.53,3.85-52.74S172,268.69,175.25,288Z" style="fill:#40757D"></path><path d="M175.25,288c6.45,37.85,22.32,55.91,26,76.57s6.09,41.77,6,46.12-3,5.59,1.62,5.59h9.24c3.13,0,7.12-46.64,5.94-60.78s8.35-31.53,3.85-52.74S172,268.69,175.25,288Z" style="fill:#263238;opacity:0.30000000000000004"></path><path d="M188,322.92c-31.24-48-14.82-169-12.46-192.36s18.84-23.36,30.22-23.76,18.38,8.15,15.37,26.59-6.27,72.75,3.23,92.79c43.47-5.77,103.6,3.4,122.28,10.53s35.67,97.08-23.78,103.19S215.27,364.81,188,322.92Z" style="fill:#40757D"></path><path d="M329,329c-11-11.9-64.55,16.3-92.07-3.23,0,0-12.46,11.43-15.52,21.38,26.64,6.58,61.15-3.06,100.7-7.21C328.7,336,331.78,332.07,329,329Z" style="fill:#263238;opacity:0.1"></path><path d="M188.89,289.29c16.46,43.09,24.68,53.78,29.14,76.23,4.1,20.67,5.79,40.78,5.82,45.13s-2.88,5.59,1.75,5.59h9.24c3.12,0,6.27-44.4,3.16-60,3.56-19,16.09-35.55,11.1-56.75S181.86,270.9,188.89,289.29Z" style="fill:#40757D"></path><path d="M297.09,279.22c21.89,62.88,25,62,29.34,83.71s6.09,42.86,6.12,47.43-3,5.88,1.83,5.88h9.71c3.29,0,10.33-46.67,7.06-63.09,3.74-20,17-46,11.72-68.28S290.29,259.68,297.09,279.22Z" style="fill:#40757D"></path><path d="M190.89,116.12c8.12-6.35,23.3-7.15,29.39-1s10.07,13.88,19.28,18c4.28,1.92.37,14.08-5.38,15.81-9,2.71-35.29.38-42.18-4.17S185.21,120.56,190.89,116.12Z" style="fill:#40757D"></path><path d="M190.89,116.12c8.12-6.35,23.3-7.15,29.39-1s10.07,13.88,19.28,18c4.28,1.92.37,14.08-5.38,15.81-9,2.71-35.29.38-42.18-4.17S185.21,120.56,190.89,116.12Z" style="fill:#fff;opacity:0.6000000000000001"></path><path d="M226.05,107.39c-5.39-5-15.18-2.32-19,0l-.31,3.18C220.88,121.58,231.44,112.42,226.05,107.39Z" style="fill:#40757D"></path><path d="M216.07,98.9c-7.15-1.78-14.4,5.33-16.63,9.24l1.27,2.93C215.87,115.85,223.23,100.69,216.07,98.9Z" style="fill:#40757D"></path><path d="M203.84,95.58c-7.26,1.29-11,10.74-11.42,15.22l2.35,2.15C209.29,117.07,211.1,94.29,203.84,95.58Z" style="fill:#40757D"></path><path d="M193.09,99.79c-5.85,2.66-4.81,11-3.72,14.74l1.63.84C202.31,115.89,198.23,97.45,193.09,99.79Z" style="fill:#40757D"></path><path d="M187.16,107.4c-5.29.94-6.18,7.91-6.08,11.19l1.15,1C191.3,122.38,191.82,106.57,187.16,107.4Z" style="fill:#40757D"></path><path d="M188.62,114.17c-3-6.17-5.44-10.13-5-23,.22-7-6.51-5.48-6.05-4.14-4-1.38-6.07.62-3.59,2.44-1.77,2-9.06,24.86,3.93,40.5C184.22,128,188.62,114.17,188.62,114.17Z" style="fill:#40757D"></path><g style="opacity:0.2"><path d="M180.28,97.57c.63-5.36-2.68-7.29-5-7.89a1.67,1.67,0,0,0-2,.92c-1.88,4.17-5.31,17.83-.61,30.35a7,7,0,0,0,12.68.89l.06-.12a1.69,1.69,0,0,0-.47-2.13C178.72,114.57,179.62,103.28,180.28,97.57Z"></path></g><path d="M179.14,122c2.64,2.58,6.89.29,8.68-1.08l.12-1C185.85,113.66,176.8,119.7,179.14,122Z" style="fill:#40757D"></path><path d="M181.21,128.53c3.24,0,4.46-4.1,4.73-6.06l-.58-.72C180.23,119.2,178.35,128.56,181.21,128.53Z" style="fill:#40757D"></path><path d="M343.11,235.5c7.92.71,15.26-2.18,21,.8s1.22,7.39-.39,7.64c5.46-.57,12.54,10.25,4.39,11.32,2.83,5.5-3,14-14.75,2.44S343.11,235.5,343.11,235.5Z" style="fill:#40757D"></path><path d="M228.81,134.34c7.45.69,10.68-.36,10.11,1.09-.72,1.83-2.15.4-2.84,2.74s-3.49-1.25-5.22-1.27C227.75,136.86,225.7,134.05,228.81,134.34Z" style="fill:#40757D;opacity:0.5"></path><path d="M231.24,145.32a5.92,5.92,0,0,1-4.23-1.64,1.64,1.64,0,0,1-.46-1.59.24.24,0,0,1,.31-.16.25.25,0,0,1,.16.31,1.23,1.23,0,0,0,.36,1.11,5.7,5.7,0,0,0,4.91,1.38c2-.38,3.05-2.08,2.79-4.65a.24.24,0,0,1,.22-.27.25.25,0,0,1,.28.22c.28,2.82-.91,4.76-3.19,5.19A6.46,6.46,0,0,1,231.24,145.32Z" style="fill:#40757D"></path><path d="M237.17,145.15a2.18,2.18,0,0,1-.69-.12,2.67,2.67,0,0,1-1.79-2,.25.25,0,0,1,.23-.27.25.25,0,0,1,.27.23,2.2,2.2,0,0,0,1.45,1.59,1.23,1.23,0,0,0,1.32-.23.24.24,0,0,1,.35,0,.25.25,0,0,1,0,.35A1.53,1.53,0,0,1,237.17,145.15Z" style="fill:#40757D"></path><path d="M214,121.89a3.14,3.14,0,1,1-2.66-3.56A3.14,3.14,0,0,1,214,121.89Z" style="fill:#40757D"></path><path d="M213.53,128.05c-1.72,1-5.38.52-8.17-1.09s-3.66-3.74-1.94-4.74,5.38-.52,8.17,1.09S215.25,127,213.53,128.05Z" style="fill:#40757D"></path><path d="M213.53,128.05c-1.72,1-5.38.52-8.17-1.09s-3.66-3.74-1.94-4.74,5.38-.52,8.17,1.09S215.25,127,213.53,128.05Z" style="fill:#fff;opacity:0.4"></path></g><g id="freepik--Llama-2--inject-2"><path d="M299.66,152.69c6,1.46,12.56,5.39,23.32.95,7-2.88,6,4.76,4.78,4.6,2,3.27.57,5.5-1.49,3.64-1.39,1.94-20.27,12.68-36.48,4.07C290.37,159.94,299.66,152.69,299.66,152.69Z" style="fill:#40757D"></path><path d="M299.66,152.69c6,1.46,12.56,5.39,23.32.95,7-2.88,6,4.76,4.78,4.6,2,3.27.57,5.5-1.49,3.64-1.39,1.94-20.27,12.68-36.48,4.07C290.37,159.94,299.66,152.69,299.66,152.69Z" style="fill:#fff;opacity:0.30000000000000004"></path><g style="opacity:0.4"><path d="M317.92,157.76c4.62-1.55,6.94,1,7.91,3a1.55,1.55,0,0,1-.45,1.91c-3.33,2.44-14.75,8-26.68,6.2a6.32,6.32,0,0,1-3.14-11.08l.1-.08a1.53,1.53,0,0,1,2,0C303.21,162.33,313,159.42,317.92,157.76Z" style="fill:#40757D"></path></g><path d="M282.9,141.17c-3.44-5.15-6.18-8.37-7.52-20-.73-6.32-6.53-4.05-5.95-2.91-3.73-.71-5.33,1.36-2.88,2.67-1.32,2-4.81,23.51,8.84,35.82C280.79,154.13,282.9,141.17,282.9,141.17Z" style="fill:#40757D"></path><path d="M282.9,141.17c-3.44-5.15-6.18-8.37-7.52-20-.73-6.32-6.53-4.05-5.95-2.91-3.73-.71-5.33,1.36-2.88,2.67-1.32,2-4.81,23.51,8.84,35.82C280.79,154.13,282.9,141.17,282.9,141.17Z" style="fill:#fff;opacity:0.2"></path><g style="opacity:0.30000000000000004"><path d="M273.28,127.39c-.14-4.9-3.35-6.19-5.54-6.42a1.51,1.51,0,0,0-1.62,1.08c-1.13,4-2.4,16.71,3.45,27.32a6.26,6.26,0,0,0,11.42-.88l.05-.11a1.58,1.58,0,0,0-.7-1.86C274.12,142.84,273.44,132.6,273.28,127.39Z" style="fill:#40757D"></path></g><path d="M260,145.25a2.83,2.83,0,1,0,3.52-1.91A2.82,2.82,0,0,0,260,145.25Z" style="fill:#40757D"></path><path d="M255.09,149.2c.88,2.59,4.25,4.78,7.52,4.9s5.21-1.87,4.33-4.46-4.25-4.77-7.52-4.89S254.21,146.62,255.09,149.2Z" style="fill:#40757D"></path><path d="M255.09,149.2c.88,2.59,4.25,4.78,7.52,4.9s5.21-1.87,4.33-4.46-4.25-4.77-7.52-4.89S254.21,146.62,255.09,149.2Z" style="fill:#fff;opacity:0.5"></path><path d="M265.47,146.06a.46.46,0,0,1-.2-.05,5.59,5.59,0,0,1-3-5.14.49.49,0,0,1,.5-.49h0a.49.49,0,0,1,.49.5,4.6,4.6,0,0,0,2.47,4.22.49.49,0,0,1,.24.66A.49.49,0,0,1,265.47,146.06Z" style="fill:#40757D"></path><path d="M226.61,292c-25.07,57-27.79,56.24-33.55,75.94s-9.13,38.87-9.54,43,2.23,5.33-2.15,5.33h-8.76c-3,0-5.37-42.33-1-57.23-1.68-18.12-11.41-41.71-4.79-61.93S234.4,274.22,226.61,292Z" style="fill:#40757D"></path><path d="M226.61,292c-25.07,57-27.79,56.24-33.55,75.94s-9.13,38.87-9.54,43,2.23,5.33-2.15,5.33h-8.76c-3,0-5.37-42.33-1-57.23-1.68-18.12-11.41-41.71-4.79-61.93S234.4,274.22,226.61,292Z" style="fill:#fff;opacity:0.2"></path><path d="M313.79,299.88c-5.82,34.33-20.13,50.72-23.43,69.46s-5.49,37.88-5.43,41.83,2.72,5.07-1.45,5.07h-8.34c-2.82,0-6.42-42.31-5.35-55.13s-7.54-28.61-3.48-47.84S316.75,282.4,313.79,299.88Z" style="fill:#40757D"></path><path d="M313.79,299.88c-5.82,34.33-20.13,50.72-23.43,69.46s-5.49,37.88-5.43,41.83,2.72,5.07-1.45,5.07h-8.34c-2.82,0-6.42-42.31-5.35-55.13s-7.54-28.61-3.48-47.84S316.75,282.4,313.79,299.88Z" style="fill:#fff;opacity:0.2"></path><path d="M302.31,331.59c34.6-51.45-8.41-139.74-1.49-159.85s-6.56-26.4-15.73-31.08-18.14-.29-22.66,16,15.65,69,7.08,87.14c-39.21-5.23-93.44,3.09-110.29,9.56s-32.17,88,21.45,93.6S277,369.16,302.31,331.59Z" style="fill:#40757D"></path><path d="M302.31,331.59c34.6-51.45-8.41-139.74-1.49-159.85s-6.56-26.4-15.73-31.08-18.14-.29-22.66,16,15.65,69,7.08,87.14c-39.21-5.23-93.44,3.09-110.29,9.56s-32.17,88,21.45,93.6S277,369.16,302.31,331.59Z" style="fill:#fff;opacity:0.30000000000000004"></path><path d="M300.38,298c-18.79,54.28-21.44,53.51-25.17,72.25s-5.23,37-5.26,40.94,2.6,5.07-1.57,5.07H260c-2.82,0-5.66-40.28-2.85-54.45-3.21-17.25-14.51-32.24-10-51.48S306.21,281.12,300.38,298Z" style="fill:#40757D"></path><path d="M300.38,298c-18.79,54.28-21.44,53.51-25.17,72.25s-5.23,37-5.26,40.94,2.6,5.07-1.57,5.07H260c-2.82,0-5.66-40.28-2.85-54.45-3.21-17.25-14.51-32.24-10-51.48S306.21,281.12,300.38,298Z" style="fill:#fff;opacity:0.30000000000000004"></path><path d="M203.89,292c-9.36,47.73-17.86,58.42-27.76,71.1-12.34,15.8-39,30.53-42.78,32.27s-4.78,6.05-6.08,1.85-1.73-5.57-2.61-8.42,18.58-22.19,25.08-35.9c1.15-18.4-9.91-35.55-5.18-55.77S207.5,273.54,203.89,292Z" style="fill:#40757D"></path><path d="M203.89,292c-9.36,47.73-17.86,58.42-27.76,71.1-12.34,15.8-39,30.53-42.78,32.27s-4.78,6.05-6.08,1.85-1.73-5.57-2.61-8.42,18.58-22.19,25.08-35.9c1.15-18.4-9.91-35.55-5.18-55.77S207.5,273.54,203.89,292Z" style="fill:#fff;opacity:0.30000000000000004"></path><path d="M293.71,154c-4.24-8.33-16.36-14.77-23.67-12s-13.5,7.59-22.61,7.47c-4.23-.05-5.64,11.45-1.59,15.07,6.32,5.64,28.74,13.76,36.11,12.65S296.68,159.82,293.71,154Z" style="fill:#40757D"></path><path d="M293.71,154c-4.24-8.33-16.36-14.77-23.67-12s-13.5,7.59-22.61,7.47c-4.23-.05-5.64,11.45-1.59,15.07,6.32,5.64,28.74,13.76,36.11,12.65S296.68,159.82,293.71,154Z" style="fill:#fff;opacity:0.7000000000000001"></path><path d="M301.33,148.38a1.57,1.57,0,0,0-1.47.07c.29-2,.16-4-.85-4.43a2.15,2.15,0,0,0-2.19.72c-.52-2.51-1.55-4.89-2.93-4.92a2.4,2.4,0,0,0-1.89,1c-.25-2.38-1-4.66-2.68-5.37-1.25-.53-2.44.53-3.2,2.2a7.28,7.28,0,0,0-3-5.08c-1.42-.88-2.88.53-3.61,2.64a7.35,7.35,0,0,0-4.42-3.06c-2.3-.44-3.38,2.06-2.62,4.81a8.72,8.72,0,0,0-4.61.83c-3.64,2,3,8.28,11.21,6.67a3.85,3.85,0,0,0-.66.68c-1.1,1.54,1.82,2.85,5,1.89a3.2,3.2,0,0,0-.72,1.51c-.21,1.49,3.13,1.78,4.74-.82a4.28,4.28,0,0,0,.15,3.34c.82,1.23,3.62-1.06,2.45-4.18l.41,0,.42-.2a4.25,4.25,0,0,0,4.62,3.62,3.28,3.28,0,0,0,2,1.59,2.77,2.77,0,0,0,2,3.11l.8,0C301.36,153.65,302.69,149.13,301.33,148.38Z" style="fill:#40757D"></path><path d="M301.33,148.38a1.57,1.57,0,0,0-1.47.07c.29-2,.16-4-.85-4.43a2.15,2.15,0,0,0-2.19.72c-.52-2.51-1.55-4.89-2.93-4.92a2.4,2.4,0,0,0-1.89,1c-.25-2.38-1-4.66-2.68-5.37-1.25-.53-2.44.53-3.2,2.2a7.28,7.28,0,0,0-3-5.08c-1.42-.88-2.88.53-3.61,2.64a7.35,7.35,0,0,0-4.42-3.06c-2.3-.44-3.38,2.06-2.62,4.81a8.72,8.72,0,0,0-4.61.83c-3.64,2,3,8.28,11.21,6.67a3.85,3.85,0,0,0-.66.68c-1.1,1.54,1.82,2.85,5,1.89a3.2,3.2,0,0,0-.72,1.51c-.21,1.49,3.13,1.78,4.74-.82a4.28,4.28,0,0,0,.15,3.34c.82,1.23,3.62-1.06,2.45-4.18l.41,0,.42-.2a4.25,4.25,0,0,0,4.62,3.62,3.28,3.28,0,0,0,2,1.59,2.77,2.77,0,0,0,2,3.11l.8,0C301.36,153.65,302.69,149.13,301.33,148.38Z" style="fill:#fff;opacity:0.30000000000000004"></path><path d="M299.84,158.37l-.48.83a13,13,0,0,0,.75,1.88h-.26l-.73.42c-.44,1.74-.78,5.57,1.92,6.7,1.28.53,2.31-1.67,2.21-3.77a3.48,3.48,0,0,0,1.86.23C308,164.24,304.65,155,299.84,158.37Z" style="fill:#40757D"></path><path d="M299.84,158.37l-.48.83a13,13,0,0,0,.75,1.88h-.26l-.73.42c-.44,1.74-.78,5.57,1.92,6.7,1.28.53,2.31-1.67,2.21-3.77a3.48,3.48,0,0,0,1.86.23C308,164.24,304.65,155,299.84,158.37Z" style="fill:#fff;opacity:0.30000000000000004"></path><path d="M162.38,252.3c-6.17-3.67-7.06-9.42-12.59-11.2s-8,5.49-6.92,6.53c-3.71-3.3-14.58.92-9.17,6-5,2.55,2.17,13,16.3,17.5S162.38,252.3,162.38,252.3Z" style="fill:#40757D"></path><path d="M162.38,252.3c-6.17-3.67-7.06-9.42-12.59-11.2s-8,5.49-6.92,6.53c-3.71-3.3-14.58.92-9.17,6-5,2.55,2.17,13,16.3,17.5S162.38,252.3,162.38,252.3Z" style="fill:#fff;opacity:0.30000000000000004"></path><path d="M253.61,153.22c-4-.75-5.74-2.73-6.47-1.7s.78,1,.82,3.21c0,2.37,2.8.05,3.88.51C253.76,156.07,255.64,153.6,253.61,153.22Z" style="fill:#40757D;opacity:0.6000000000000001"></path><path d="M252.1,163.23a5.85,5.85,0,0,1-3.39-1.09c-1.72-1.23-2-3.29-.66-5.51a.26.26,0,0,1,.35-.09.26.26,0,0,1,.08.34c-1.18,2-1,3.78.51,4.86a5.09,5.09,0,0,0,4.52.73,1.07,1.07,0,0,0,.71-.75.24.24,0,0,1,.27-.22.25.25,0,0,1,.22.28,1.5,1.5,0,0,1-1,1.15A4.06,4.06,0,0,1,252.1,163.23Z" style="fill:#40757D"></path><path d="M245.68,160.45l-.24,0a1.54,1.54,0,0,1-1.39-1,.26.26,0,0,1,.16-.32.25.25,0,0,1,.31.16,1.08,1.08,0,0,0,1,.68,2,2,0,0,0,1.77-.75.25.25,0,0,1,.43.25A2.38,2.38,0,0,1,245.68,160.45Z" style="fill:#40757D"></path><path d="M272.82,150.89a2.83,2.83,0,1,0,3.52-1.92A2.85,2.85,0,0,0,272.82,150.89Z" style="fill:#40757D"></path><path d="M277,152a.57.57,0,0,1-.18,0,5.6,5.6,0,0,1-3.32-5,.5.5,0,0,1,1,0,4.56,4.56,0,0,0,2.69,4.07.51.51,0,0,1,.28.65A.51.51,0,0,1,277,152Z" style="fill:#40757D"></path><path d="M269.36,159.38c2.13,2.22,6.62,2.85,10,1.4s4.44-4.42,2.31-6.64-6.61-2.85-10-1.41S267.23,157.16,269.36,159.38Z" style="fill:#40757D"></path><path d="M269.36,159.38c2.13,2.22,6.62,2.85,10,1.4s4.44-4.42,2.31-6.64-6.61-2.85-10-1.41S267.23,157.16,269.36,159.38Z" style="fill:#fff;opacity:0.5"></path></g><g id="freepik--Hearts--inject-2"><path d="M263,88.37c-.82-13.86-11.49-3-9.46,11.93C267.33,102.74,279.61,88.68,263,88.37Z" style="fill:#40757D"></path><path d="M254.44,54.21c-7-3.19-4.45,4.84,3.38,7.72C262.58,55.81,258.88,46.17,254.44,54.21Z" style="fill:#40757D"></path><path d="M241.87,83.16a.49.49,0,0,1-.23-.06c-6.16-3.18-9.4-8.23-9.42-11.58a3,3,0,0,1,1.5-2.88c1.57-.83,4.1-.17,7.14,1.86,3-3.42,5-3.79,6.14-3.48a3,3,0,0,1,2,2.65c.67,3.72-1.71,9.75-6.84,13.39A.48.48,0,0,1,241.87,83.16Zm-6.59-13.88a2.38,2.38,0,0,0-1.1.24,2.14,2.14,0,0,0-1,2c0,2.92,3,7.57,8.61,10.55,5-3.73,6.68-9.47,6.19-12.22-.11-.59-.41-1.63-1.28-1.86-.59-.16-2.3-.14-5.42,3.5a.49.49,0,0,1-.66.09C238.5,70.08,236.62,69.28,235.28,69.28Z" style="fill:#40757D"></path></g></svg>