<svg xmlns="http://www.w3.org/2000/svg" viewBox="0 0 500 500"><g id="freepik--background-complete--inject-2"><rect y="382.4" width="500" height="0.25" style="fill:#ebebeb"></rect><rect x="416.78" y="398.49" width="33.12" height="0.25" style="fill:#ebebeb"></rect><rect x="322.53" y="401.21" width="8.69" height="0.25" style="fill:#ebebeb"></rect><rect x="396.59" y="389.21" width="19.19" height="0.25" style="fill:#ebebeb"></rect><rect x="52.46" y="390.89" width="43.19" height="0.25" style="fill:#ebebeb"></rect><rect x="104.56" y="390.89" width="6.33" height="0.25" style="fill:#ebebeb"></rect><rect x="131.47" y="395.11" width="93.68" height="0.25" style="fill:#ebebeb"></rect><path d="M237,337.8H43.91a5.71,5.71,0,0,1-5.7-5.71V60.66A5.71,5.71,0,0,1,43.91,55H237a5.71,5.71,0,0,1,5.71,5.71V332.09A5.71,5.71,0,0,1,237,337.8ZM43.91,55.2a5.46,5.46,0,0,0-5.45,5.46V332.09a5.46,5.46,0,0,0,5.45,5.46H237a5.47,5.47,0,0,0,5.46-5.46V60.66A5.47,5.47,0,0,0,237,55.2Z" style="fill:#ebebeb"></path><path d="M453.31,337.8H260.21a5.72,5.72,0,0,1-5.71-5.71V60.66A5.72,5.72,0,0,1,260.21,55h193.1A5.71,5.71,0,0,1,459,60.66V332.09A5.71,5.71,0,0,1,453.31,337.8ZM260.21,55.2a5.47,5.47,0,0,0-5.46,5.46V332.09a5.47,5.47,0,0,0,5.46,5.46h193.1a5.47,5.47,0,0,0,5.46-5.46V60.66a5.47,5.47,0,0,0-5.46-5.46Z" style="fill:#ebebeb"></path><path d="M67.21,376.87l.47-69,10.25-8.66,4.74-22.81,6.14-7.17,3.3-16,5.6,7.27,3.17,43.67,3.17-5,2.52-17,5.06,5.44,6.33,1.58,3.69,36.08,94,11.22,19.59-16.75,8-32.66,8.25-8.51,2.51-15.74,7.89,2.73v16.61l6.71,3.86,2.87,33.71,8.42,11.65,2.39-20.83s6.45-5.16,7.88-6.41,9.56-23.89,8.33-25.58,1.76-16.39,1.76-16.39l8.13,4.86v24.35l8.49,2.15,1.27,10.61,21.64,3.5,3.48-16.26h9.65l3,9.27,8.78-.06,13.89,10L390,288.23l11.61,5.4,8.37-19.42,8.79,11.38L422,322.51l4.51.53,2.09-8,8.46,8v53.83Z" style="fill:#f5f5f5"></path><path d="M223.45,192.64h51.88a8.28,8.28,0,1,0-2.62-16.2,16.46,16.46,0,0,0,.19-2.55,17.53,17.53,0,0,0-17.54-17.53,17.25,17.25,0,0,0-3.23.3,15.32,15.32,0,0,0-28.42,7.75h-.26a14.13,14.13,0,0,0,0,28.25Z" style="fill:#f5f5f5"></path><path d="M192.4,110h19.51a3.11,3.11,0,0,0-.08-6.22,3,3,0,0,0-.9.13,6,6,0,0,0,.07-1,6.6,6.6,0,0,0-6.59-6.6,6.08,6.08,0,0,0-1.22.12,5.76,5.76,0,0,0-10.69,2.91h-.1a5.32,5.32,0,0,0,0,10.63Z" style="fill:#f5f5f5"></path><path d="M370.16,116.06h19.51a3.12,3.12,0,0,0-.09-6.23,2.91,2.91,0,0,0-.89.14,6.11,6.11,0,0,0,.07-1,6.6,6.6,0,0,0-6.6-6.6,6.06,6.06,0,0,0-1.21.12,5.76,5.76,0,0,0-10.69,2.91h-.1a5.31,5.31,0,1,0,0,10.62Z" style="fill:#f5f5f5"></path><path d="M370.16,174.08h19.51a3.11,3.11,0,0,0-.09-6.22,3.24,3.24,0,0,0-.89.13,6,6,0,0,0,.07-1,6.59,6.59,0,0,0-6.6-6.59,6.89,6.89,0,0,0-1.21.11,5.76,5.76,0,0,0-10.69,2.92h-.1a5.32,5.32,0,0,0,0,10.63Z" style="fill:#f5f5f5"></path><path d="M82.72,189h28.22a4.5,4.5,0,0,0-.13-9,4.24,4.24,0,0,0-1.29.19,10.7,10.7,0,0,0,.1-1.39,9.54,9.54,0,0,0-9.54-9.54,9.29,9.29,0,0,0-1.76.17,8.34,8.34,0,0,0-15.46,4.21h-.14a7.69,7.69,0,1,0,0,15.37Z" style="fill:#f5f5f5"></path><path d="M294,125.75h28.22a4.51,4.51,0,0,0-.12-9,4.64,4.64,0,0,0-1.3.19,9,9,0,0,0,.1-1.38,9.54,9.54,0,0,0-9.54-9.54,10.19,10.19,0,0,0-1.76.16,8.34,8.34,0,0,0-15.46,4.22H294a7.69,7.69,0,0,0,0,15.37Z" style="fill:#f5f5f5"></path><path d="M204.54,282.28c2.12-15.47-4.42-32.84-13.6-44.32a39.64,39.64,0,0,1-4.74-6.58c-3.8-7.45,2.11-12.67,7.62-16.85,20.79-15.79-2.61-18.54-13.54-27.58a5.49,5.49,0,0,1-2.17-3c-.38-2,1.34-3.8,2.9-5.16,7.54-6.57,16.89-13.15,18.57-23.79.7-4.43-.39-9.3-3.61-12.44-8.08-7.88-54.42,1.44-45.79-19.41,1.26-3.05,3.11-6.18,2.44-9.41-4.16-20-53.45-12.12-66.77-11.45a101.71,101.71,0,0,1,33.55,3.94c5,1.46,10.73,4.29,11.26,9.48s-4.29,8.84-8,11.38c-5.67,3.87-12.83,9.81-6.83,17,7.61,9.14,22.43,10.4,33.18,13.26,3.76,1,7.82,2.52,8,7.08.12,2.59-1,5.07-2.27,7.33-2.69,4.84-6.13,9.29-8.24,14.41s-2.29,11.95,1.3,16.66c6.91,9.06,19.35,6.57,10.46,21.6-11.21,19-10.61,41.26-2.38,61.32,4.14,10.09,11.72,21.73,23.75,22.46,6.67.41,13.2-3.16,17.43-8.33A35,35,0,0,0,204.54,282.28Z" style="fill:#e0e0e0"></path><path d="M429.55,358.12,413,354.82l-3.73-45.17L398,301.84,394.1,263.1,384,251.7l-4.71,8.88-7.69,14L369,288.39l-4.36,12.3-9.42,14.73-8.46-7.55s-4.61-7.48-6.81-8.46-11.23-1.8-11.23-1.8l-12.54,12V319l-12.83,6.84-7.89,7.93-4.72,5.83L282,344.17c-19.27-13.3-67-50.61-77.62-100.16l-12,11.29-8.55-13.44L177.05,256l4.73,14.9-8.24,7.51,3.51,15.05-9.81-15.05,5.28-10.66-4-9.36,3-13.87-9.27-4.19-11.82,18.06L142.29,244s-10,75.15-94,136.94H447.6Z" style="fill:#ebebeb"></path></g><g id="freepik--Shadow--inject-2"><ellipse id="freepik--path--inject-2" cx="250" cy="416.24" rx="193.89" ry="11.32" style="fill:#f5f5f5"></ellipse></g><g id="freepik--plants-2--inject-2"><path d="M383.4,403.7H420s-7.29-11.16-10.4-9.74c-4.05,1.84-7.05-8.27-11.53-5.88-1.58.85-.8,3.55-1.8,4.64-1.64,1.8-3.73,1.45-5.71,2.44C386.7,397.1,385.32,399.66,383.4,403.7Z" style="fill:#40757D"></path><path d="M383.4,403.7H420s-7.29-11.16-10.4-9.74c-4.05,1.84-7.05-8.27-11.53-5.88-1.58.85-.8,3.55-1.8,4.64-1.64,1.8-3.73,1.45-5.71,2.44C386.7,397.1,385.32,399.66,383.4,403.7Z" style="fill:#fff;isolation:isolate;opacity:0.6000000000000001"></path><path d="M416,400.59s-2.41-13.95-.75-16,2,7.61,2,7.61,5.58-20.16,9.15-20.26-4.24,17.49-4.24,17.49,15.26-24.94,19.7-22.62-16,24.43-16,24.43,11.16-9.61,13.62-6.89-12.39,11-12.39,11,6.55-1.47,6.54.71S422.59,401.83,416,400.59Z" style="fill:#40757D"></path><path d="M416,400.59s-2.41-13.95-.75-16,2,7.61,2,7.61,5.58-20.16,9.15-20.26-4.24,17.49-4.24,17.49,15.26-24.94,19.7-22.62-16,24.43-16,24.43,11.16-9.61,13.62-6.89-12.39,11-12.39,11,6.55-1.47,6.54.71S422.59,401.83,416,400.59Z" style="fill:#fff;isolation:isolate;opacity:0.2"></path><path d="M413.83,398.6s-11.47-2.08-12.58-3.94,6.44.64,6.44.64-14-10-13.09-12.8,12.32,8.21,12.32,8.21S392,371.87,395,369.09s14.38,19.26,14.38,19.26-4.28-11.35-1.49-12.49,5,12.7,5,12.7.71-5.48,2.39-4.86S416.64,393.88,413.83,398.6Z" style="fill:#40757D"></path><path d="M413.83,398.6s-11.47-2.08-12.58-3.94,6.44.64,6.44.64-14-10-13.09-12.8,12.32,8.21,12.32,8.21S392,371.87,395,369.09s14.38,19.26,14.38,19.26-4.28-11.35-1.49-12.49,5,12.7,5,12.7.71-5.48,2.39-4.86S416.64,393.88,413.83,398.6Z" style="fill:#fff;isolation:isolate;opacity:0.2"></path><path d="M413,397.07s-11.08-11.09-10.88-14,6.62,5.64,6.62,5.64-7.81-21.81-4.64-24.18,7.32,18.54,7.32,18.54-2.1-32.32,3.4-33,1.12,32.3,1.12,32.3,4-15.81,7.94-14.93-4.2,17.87-4.2,17.87,5-5.51,6.37-3.53S419.69,394,413,397.07Z" style="fill:#40757D"></path><path d="M413,397.07s-11.08-11.09-10.88-14,6.62,5.64,6.62,5.64-7.81-21.81-4.64-24.18,7.32,18.54,7.32,18.54-2.1-32.32,3.4-33,1.12,32.3,1.12,32.3,4-15.81,7.94-14.93-4.2,17.87-4.2,17.87,5-5.51,6.37-3.53S419.69,394,413,397.07Z" style="fill:#fff;isolation:isolate;opacity:0.4"></path><path d="M399.54,403.7h29.19s-5.81-8.89-8.29-7.76c-3.22,1.47-5.61-6.59-9.18-4.68-1.26.67-.64,2.82-1.44,3.69-1.31,1.44-3,1.16-4.55,1.95C402.17,398.44,401.07,400.48,399.54,403.7Z" style="fill:#40757D"></path><path d="M399.54,403.7h29.19s-5.81-8.89-8.29-7.76c-3.22,1.47-5.61-6.59-9.18-4.68-1.26.67-.64,2.82-1.44,3.69-1.31,1.44-3,1.16-4.55,1.95C402.17,398.44,401.07,400.48,399.54,403.7Z" style="fill:#fff;isolation:isolate;opacity:0.7000000000000001"></path></g><g id="freepik--Rocks--inject-2"><path d="M402.25,403.7l-7.58-35.16-12.3-12.47V326.16l-11.75-29.89L357,285l-43.9,26.19L319.2,346S303.37,362.21,302,362.21s-8.48-2.11-8.48-2.11l-19.66,27L259,391.88l-4.91,11.82Z" style="fill:#40757D"></path><path d="M402.25,403.7l-7.58-35.16-12.3-12.47V326.16l-11.75-29.89L357,285l-43.9,26.19L319.2,346S303.37,362.21,302,362.21s-8.48-2.11-8.48-2.11l-19.66,27L259,391.88l-4.91,11.82Z" style="fill:#fff;isolation:isolate;opacity:0.7000000000000001"></path><polygon points="402.25 403.7 394.67 368.54 375.29 391.46 340.3 395.43 333.97 380.51 312.29 377.34 299.55 391.84 291.93 386.92 267.62 396.09 258.97 391.88 254.06 403.7 402.25 403.7" style="isolation:isolate;opacity:0.1"></polygon><polygon points="382.37 356.07 364.99 368.54 352.23 359 323.57 348.71 352.97 353.66 357.62 327.35 382.37 326.16 382.37 356.07" style="isolation:isolate;opacity:0.1"></polygon><polygon points="156.34 403.7 57.09 403.7 58.52 398.16 67.1 395.05 58.52 383.18 64.31 370.11 80.75 370.8 77.63 350.16 81.45 341.06 94.75 339.31 91.6 325.66 96.73 312.37 104.61 312.37 128.41 353.86 130.07 348.76 136.37 343.16 143.04 350.16 156.34 403.7" style="fill:#40757D"></polygon><polygon points="156.34 403.7 57.09 403.7 58.52 398.16 67.1 395.05 58.52 383.18 64.31 370.11 80.75 370.8 77.63 350.16 81.45 341.06 94.75 339.31 91.6 325.66 96.73 312.37 104.61 312.37 128.41 353.86 130.07 348.76 136.37 343.16 143.04 350.16 156.34 403.7" style="fill:#fff;isolation:isolate;opacity:0.7000000000000001"></polygon><polygon points="156.34 403.7 57.09 403.7 58.52 398.16 67.1 395.05 58.52 383.18 67.45 384.75 82.86 394.13 78.88 379.37 80.75 370.8 85.18 365.6 99.88 380.35 91.25 375.67 89.15 379.13 93.81 395.79 109.22 398.07 119.72 393.55 119.48 376.94 111.78 372.6 104.61 380.35 96.73 344.13 106.71 363.27 112.72 358.03 123.45 362.33 128.41 353.86 130.07 348.76 129.21 375.45 132.08 390.89 136.37 386.17 142.12 384.75 156.34 403.7" style="isolation:isolate;opacity:0.1"></polygon></g><g id="freepik--plants-1--inject-2"><path d="M136.47,383.38s-3.77-.2-4.15-10.53,6.28-13.08,11.4-11.82c0,0-.75-7.35,2.57-7.08s3.09,5.18,3.09,5.18,1.13-10.43,5.66-10.43S155,361,155,361s6.26-3,8.56,0-2.88,6.54-2.88,6.54,8.13,2.64,4.73,11.07c0,0,5.66.88,7.24,4.65,0,0-.45-7.61,1.59-7.1s1.58,7.19,1.58,7.19,3.4-7.34,6.34-4.74-1.36,8.79-1.36,8.79,5.66-2.74,6.57.9-3.17,5-3.17,5,5.89-1.36,5.89,5.39c0,0,11.32-1.08,14,5H136.7Z" style="fill:#40757D"></path><path d="M136.47,383.38s-3.77-.2-4.15-10.53,6.28-13.08,11.4-11.82c0,0-.75-7.35,2.57-7.08s3.09,5.18,3.09,5.18,1.13-10.43,5.66-10.43S155,361,155,361s6.26-3,8.56,0-2.88,6.54-2.88,6.54,8.13,2.64,4.73,11.07c0,0,5.66.88,7.24,4.65,0,0-.45-7.61,1.59-7.1s1.58,7.19,1.58,7.19,3.4-7.34,6.34-4.74-1.36,8.79-1.36,8.79,5.66-2.74,6.57.9-3.17,5-3.17,5,5.89-1.36,5.89,5.39c0,0,11.32-1.08,14,5H136.7Z" style="fill:#fff;isolation:isolate;opacity:0.4"></path><path d="M246.49,403.7H209.86s7.29-11.16,10.4-9.74c4.05,1.84,7.05-8.27,11.53-5.88,1.58.85.8,3.55,1.8,4.64,1.64,1.8,3.73,1.45,5.71,2.44C243.19,397.1,244.57,399.66,246.49,403.7Z" style="fill:#40757D"></path><path d="M246.49,403.7H209.86s7.29-11.16,10.4-9.74c4.05,1.84,7.05-8.27,11.53-5.88,1.58.85.8,3.55,1.8,4.64,1.64,1.8,3.73,1.45,5.71,2.44C243.19,397.1,244.57,399.66,246.49,403.7Z" style="fill:#fff;isolation:isolate;opacity:0.6000000000000001"></path><path d="M213.86,400.59s2.41-13.95.75-16-2,7.61-2,7.61-5.58-20.16-9.16-20.26,4.24,17.49,4.24,17.49-15.26-24.94-19.69-22.62,16,24.43,16,24.43-11.16-9.61-13.62-6.89,12.39,11,12.39,11-6.55-1.47-6.54.71S207.31,401.83,213.86,400.59Z" style="fill:#40757D"></path><path d="M213.86,400.59s2.41-13.95.75-16-2,7.61-2,7.61-5.58-20.16-9.16-20.26,4.24,17.49,4.24,17.49-15.26-24.94-19.69-22.62,16,24.43,16,24.43-11.16-9.61-13.62-6.89,12.39,11,12.39,11-6.55-1.47-6.54.71S207.31,401.83,213.86,400.59Z" style="fill:#fff;isolation:isolate;opacity:0.2"></path><path d="M216.06,398.6s11.47-2.08,12.58-3.94-6.43.64-6.43.64,14-10,13.08-12.8S223,390.71,223,390.71s15-18.84,11.93-21.62-14.39,19.26-14.39,19.26S224.79,377,222,375.86s-5,12.7-5,12.7-.71-5.48-2.39-4.86S213.25,393.88,216.06,398.6Z" style="fill:#40757D"></path><path d="M216.06,398.6s11.47-2.08,12.58-3.94-6.43.64-6.43.64,14-10,13.08-12.8S223,390.71,223,390.71s15-18.84,11.93-21.62-14.39,19.26-14.39,19.26S224.79,377,222,375.86s-5,12.7-5,12.7-.71-5.48-2.39-4.86S213.25,393.88,216.06,398.6Z" style="fill:#fff;isolation:isolate;opacity:0.2"></path><path d="M216.92,397.07S228,386,227.8,383.07s-6.62,5.64-6.62,5.64,7.81-21.81,4.64-24.18-7.32,18.54-7.32,18.54,2.1-32.32-3.4-33-1.12,32.3-1.12,32.3-4-15.81-7.94-14.93,4.2,17.87,4.2,17.87-5-5.51-6.37-3.53S210.2,394,216.92,397.07Z" style="fill:#40757D"></path><path d="M216.92,397.07S228,386,227.8,383.07s-6.62,5.64-6.62,5.64,7.81-21.81,4.64-24.18-7.32,18.54-7.32,18.54,2.1-32.32-3.4-33-1.12,32.3-1.12,32.3-4-15.81-7.94-14.93,4.2,17.87,4.2,17.87-5-5.51-6.37-3.53S210.2,394,216.92,397.07Z" style="fill:#fff;isolation:isolate;opacity:0.4"></path><path d="M230.35,403.7H201.16s5.81-8.89,8.29-7.76c3.22,1.47,5.61-6.59,9.18-4.68,1.26.67.65,2.82,1.44,3.69,1.31,1.44,3,1.16,4.55,1.95C227.72,398.44,228.82,400.48,230.35,403.7Z" style="fill:#40757D"></path><path d="M230.35,403.7H201.16s5.81-8.89,8.29-7.76c3.22,1.47,5.61-6.59,9.18-4.68,1.26.67.65,2.82,1.44,3.69,1.31,1.44,3,1.16,4.55,1.95C227.72,398.44,228.82,400.48,230.35,403.7Z" style="fill:#fff;isolation:isolate;opacity:0.7000000000000001"></path><path d="M152.82,403.47s7.28-12.14,6.47-14.65-4.57,6.39-4.57,6.39,2.08-20.81-1.21-22.2-2.36,17.84-2.36,17.84-5.23-28.77-10.2-28.2S147,391.2,147,391.2s-6.94-13-10.21-11.35,7.58,14.74,7.58,14.74-5.58-3.74-6.36-1.7S146.26,402.26,152.82,403.47Z" style="fill:#40757D"></path><path d="M152.82,403.47s7.28-12.14,6.47-14.65-4.57,6.39-4.57,6.39,2.08-20.81-1.21-22.2-2.36,17.84-2.36,17.84-5.23-28.77-10.2-28.2S147,391.2,147,391.2s-6.94-13-10.21-11.35,7.58,14.74,7.58,14.74-5.58-3.74-6.36-1.7S146.26,402.26,152.82,403.47Z" style="fill:#fff;isolation:isolate;opacity:0.2"></path><path d="M155.59,402.41s11.45,2.2,13.16.86-6.24-1.72-6.24-1.72,16.69-4.28,16.83-7.21-14.46,3.21-14.46,3.21,20.77-12.17,18.93-15.86-20.37,12.76-20.37,12.76,8.09-9,5.9-11.1-9.26,10-9.26,10,1.31-5.37-.48-5.4S154.68,397,155.59,402.41Z" style="fill:#40757D"></path><path d="M155.59,402.41s11.45,2.2,13.16.86-6.24-1.72-6.24-1.72,16.69-4.28,16.83-7.21-14.46,3.21-14.46,3.21,20.77-12.17,18.93-15.86-20.37,12.76-20.37,12.76,8.09-9,5.9-11.1-9.26,10-9.26,10,1.31-5.37-.48-5.4S154.68,397,155.59,402.41Z" style="fill:#fff;isolation:isolate;opacity:0.2"></path><path d="M156.94,401.29s14.34-6.34,15.21-9.13-8.22,2.88-8.22,2.88,15.16-17.52,13.07-20.88-13.52,14.64-13.52,14.64,13.62-29.37,8.76-32-12.72,29.72-12.72,29.72,2-16.19-2-16.79S155,387.88,155,387.88s-2.67-6.94-4.67-5.6S151.78,396,156.94,401.29Z" style="fill:#40757D"></path><path d="M156.94,401.29s14.34-6.34,15.21-9.13-8.22,2.88-8.22,2.88,15.16-17.52,13.07-20.88-13.52,14.64-13.52,14.64,13.62-29.37,8.76-32-12.72,29.72-12.72,29.72,2-16.19-2-16.79S155,387.88,155,387.88s-2.67-6.94-4.67-5.6S151.78,396,156.94,401.29Z" style="fill:#fff;isolation:isolate;opacity:0.4"></path></g><g id="freepik--time-machine--inject-2"><rect x="218.24" y="387.43" width="12.5" height="24.22" style="fill:#263238"></rect><path d="M255.55,158.51H229.82c.16-1.77.3-3.57.45-5.37q.82-9.7,1.58-19.86a3.54,3.54,0,0,1,2.3-3,31.29,31.29,0,0,1,17.06,0,3.53,3.53,0,0,1,2.31,3q.79,10.46,1.62,20.44C255.28,155.33,255.41,156.93,255.55,158.51Z" style="fill:#40757D"></path><ellipse cx="235.84" cy="144.77" rx="4.18" ry="10.16" style="fill:#fff;opacity:0.2"></ellipse><path d="M236.83,143.81c0,2.61-1.05,4.72-2.34,4.72s-2.33-2.11-2.33-4.72,1-4.71,2.33-4.71S236.83,141.21,236.83,143.81Z" style="fill:#fff;opacity:0.30000000000000004"></path><path d="M242.5,143.07v1.1a1.72,1.72,0,0,0,1.64,1.71V156.7h-2.88V140a1.44,1.44,0,1,1,2.88,0v1.3A1.73,1.73,0,0,0,242.5,143.07Z" style="opacity:0.2"></path><path d="M251.21,144.36c-.11,2-.64,3.57-1.29,3.57a.52.52,0,0,1-.3-.12l-5.69-2.32c-.57,0-1-.84-1-1.87s.47-1.87,1-1.87l5.68-2.41a.51.51,0,0,1,.31-.14c.65,0,1.18,1.54,1.29,3.58-.11-1.78-.59-3.12-1.17-3.12s-1.22,1.75-1.22,3.9.55,3.91,1.22,3.91S251.1,146.13,251.21,144.36Z" style="opacity:0.2"></path><path d="M241,141.54l-5.19-2.2a.52.52,0,0,0-.31-.13c-.74,0-1.33,1.95-1.33,4.36s.59,4.36,1.33,4.36a.55.55,0,0,0,.3-.12l5.2-2.12Z" style="opacity:0.2"></path><ellipse cx="249.5" cy="144.2" rx="4.18" ry="10.16" style="fill:#fff;opacity:0.5"></ellipse><path d="M253.25,143.81c0,2.1-.84,3.8-1.87,3.8s-1.88-1.7-1.88-3.8.84-3.79,1.88-3.79S253.25,141.72,253.25,143.81Z" style="fill:#fff;opacity:0.5"></path><path d="M233.14,132.34a37.76,37.76,0,0,1,18.78,0s-2.28-2.68-9.85-2.68S233.14,132.34,233.14,132.34Z" style="fill:#fff;opacity:0.30000000000000004"></path><path d="M255.55,158.51H229.82c.16-1.77.3-3.57.45-5.37,1,.8,3.94,2.3,12.43,2.3,7.12,0,10.72-1,12.44-1.72C255.28,155.33,255.41,156.93,255.55,158.51Z" style="opacity:0.2"></path><path d="M250.88,160.55V158a3.11,3.11,0,0,0-3.11-3.11H237.6a3.11,3.11,0,0,0-3.11,3.11v2.51Z" style="fill:#263238"></path><rect x="229.19" y="157.14" width="26.99" height="5.23" rx="1.01" style="fill:#263238"></rect><rect x="229.19" y="157.14" width="26.99" height="5.23" rx="1.01" style="fill:#fff;opacity:0.4"></rect><path d="M262.19,119.05a.43.43,0,0,0-.7-.51,17.09,17.09,0,0,1-2.13,2.07,17.31,17.31,0,0,0-2.27,2.2,9.26,9.26,0,0,0-1.84,3.52.43.43,0,0,0,.34.51h.08a.43.43,0,0,0,.42-.34,8.66,8.66,0,0,1,1.7-3.18,17.09,17.09,0,0,1,2.13-2.07A17.31,17.31,0,0,0,262.19,119.05Z" style="fill:#40757D"></path><path d="M272.28,134.78a.44.44,0,0,0-.58-.2,21.34,21.34,0,0,1-6.08,1.44,27.18,27.18,0,0,0-4.94,1,.42.42,0,0,0-.27.54.44.44,0,0,0,.41.3.31.31,0,0,0,.13,0,28,28,0,0,1,4.79-.94,22.3,22.3,0,0,0,6.34-1.51A.44.44,0,0,0,272.28,134.78Z" style="fill:#40757D"></path><path d="M271.23,151.65c-1.08-.36-2.47-.72-3.94-1.09s-3.23-.82-4.4-1.24a.44.44,0,0,0-.55.27.43.43,0,0,0,.26.55c1.21.43,2.87.85,4.48,1.26s2.83.72,3.88,1.07l.13,0a.44.44,0,0,0,.41-.3A.42.42,0,0,0,271.23,151.65Z" style="fill:#40757D"></path><path d="M268.24,165.58a16,16,0,0,1-3.74-3.28,26.77,26.77,0,0,0-2.38-2.39.44.44,0,0,0-.61.05.42.42,0,0,0,.05.61,28,28,0,0,1,2.31,2.31,16.91,16.91,0,0,0,3.93,3.45.44.44,0,0,0,.6-.16A.43.43,0,0,0,268.24,165.58Z" style="fill:#40757D"></path><path d="M224.73,119.37a.43.43,0,0,0-.61,0,.44.44,0,0,0,0,.61,35.41,35.41,0,0,1,5.83,6.63.41.41,0,0,0,.36.19.42.42,0,0,0,.24-.07.43.43,0,0,0,.12-.6A36.5,36.5,0,0,0,224.73,119.37Z" style="fill:#40757D"></path><path d="M225.23,136.27a35.9,35.9,0,0,1-3.83-1.4c-2.39-1-4.86-2-7.08-2.05a.42.42,0,0,0-.44.41.44.44,0,0,0,.42.45c2.06.07,4.45,1,6.77,2A36.08,36.08,0,0,0,225,137.1l.11,0a.44.44,0,0,0,.42-.32A.43.43,0,0,0,225.23,136.27Z" style="fill:#40757D"></path><path d="M221.92,148.59h0a.44.44,0,0,0,.44-.43.43.43,0,0,0-.45-.43,7,7,0,0,0-3.13,1,7.82,7.82,0,0,1-3.42.63,8.33,8.33,0,0,0-3.78.72.43.43,0,0,0,.19.82.49.49,0,0,0,.2-.05,7.47,7.47,0,0,1,3.41-.63,8.4,8.4,0,0,0,3.79-.72A6.27,6.27,0,0,1,221.92,148.59Z" style="fill:#40757D"></path><path d="M223.67,160.4l-.47.19c-2.41,1-4.91,2-6.67,4a.44.44,0,0,0,.05.61.42.42,0,0,0,.28.1.41.41,0,0,0,.32-.15c1.63-1.88,3.92-2.8,6.35-3.77l.46-.19a.43.43,0,1,0-.32-.8Z" style="fill:#40757D"></path><path d="M243.39,113.68a.41.41,0,0,0-.47.38,93.31,93.31,0,0,0-.35,10.44.43.43,0,0,0,.43.42h0a.44.44,0,0,0,.42-.45,93.57,93.57,0,0,1,.34-10.32A.42.42,0,0,0,243.39,113.68Z" style="fill:#40757D"></path><g style="opacity:0.5"><path d="M262.19,119.05a.43.43,0,0,0-.7-.51,17.09,17.09,0,0,1-2.13,2.07,17.31,17.31,0,0,0-2.27,2.2,9.26,9.26,0,0,0-1.84,3.52.43.43,0,0,0,.34.51h.08a.43.43,0,0,0,.42-.34,8.66,8.66,0,0,1,1.7-3.18,17.09,17.09,0,0,1,2.13-2.07A17.31,17.31,0,0,0,262.19,119.05Z" style="fill:#fff"></path><path d="M272.28,134.78a.44.44,0,0,0-.58-.2,21.34,21.34,0,0,1-6.08,1.44,27.18,27.18,0,0,0-4.94,1,.42.42,0,0,0-.27.54.44.44,0,0,0,.41.3.31.31,0,0,0,.13,0,28,28,0,0,1,4.79-.94,22.3,22.3,0,0,0,6.34-1.51A.44.44,0,0,0,272.28,134.78Z" style="fill:#fff"></path><path d="M271.23,151.65c-1.08-.36-2.47-.72-3.94-1.09s-3.23-.82-4.4-1.24a.44.44,0,0,0-.55.27.43.43,0,0,0,.26.55c1.21.43,2.87.85,4.48,1.26s2.83.72,3.88,1.07l.13,0a.44.44,0,0,0,.41-.3A.42.42,0,0,0,271.23,151.65Z" style="fill:#fff"></path><path d="M268.24,165.58a16,16,0,0,1-3.74-3.28,26.77,26.77,0,0,0-2.38-2.39.44.44,0,0,0-.61.05.42.42,0,0,0,.05.61,28,28,0,0,1,2.31,2.31,16.91,16.91,0,0,0,3.93,3.45.44.44,0,0,0,.6-.16A.43.43,0,0,0,268.24,165.58Z" style="fill:#fff"></path><path d="M224.73,119.37a.43.43,0,0,0-.61,0,.44.44,0,0,0,0,.61,35.41,35.41,0,0,1,5.83,6.63.41.41,0,0,0,.36.19.42.42,0,0,0,.24-.07.43.43,0,0,0,.12-.6A36.5,36.5,0,0,0,224.73,119.37Z" style="fill:#fff"></path><path d="M225.23,136.27a35.9,35.9,0,0,1-3.83-1.4c-2.39-1-4.86-2-7.08-2.05a.42.42,0,0,0-.44.41.44.44,0,0,0,.42.45c2.06.07,4.45,1,6.77,2A36.08,36.08,0,0,0,225,137.1l.11,0a.44.44,0,0,0,.42-.32A.43.43,0,0,0,225.23,136.27Z" style="fill:#fff"></path><path d="M221.92,148.59h0a.44.44,0,0,0,.44-.43.43.43,0,0,0-.45-.43,7,7,0,0,0-3.13,1,7.82,7.82,0,0,1-3.42.63,8.33,8.33,0,0,0-3.78.72.43.43,0,0,0,.19.82.49.49,0,0,0,.2-.05,7.47,7.47,0,0,1,3.41-.63,8.4,8.4,0,0,0,3.79-.72A6.27,6.27,0,0,1,221.92,148.59Z" style="fill:#fff"></path><path d="M223.67,160.4l-.47.19c-2.41,1-4.91,2-6.67,4a.44.44,0,0,0,.05.61.42.42,0,0,0,.28.1.41.41,0,0,0,.32-.15c1.63-1.88,3.92-2.8,6.35-3.77l.46-.19a.43.43,0,1,0-.32-.8Z" style="fill:#fff"></path><path d="M243.39,113.68a.41.41,0,0,0-.47.38,93.31,93.31,0,0,0-.35,10.44.43.43,0,0,0,.43.42h0a.44.44,0,0,0,.42-.45,93.57,93.57,0,0,1,.34-10.32A.42.42,0,0,0,243.39,113.68Z" style="fill:#fff"></path></g><path d="M269.56,167.19V413.68H216V410.3h7.94a1.5,1.5,0,0,0,0-3H216v-2.44h7.94a1.5,1.5,0,0,0,0-3H216v-2.43h7.94a1.5,1.5,0,0,0,0-3H216V394h7.94a1.5,1.5,0,1,0,0-3H216V167.19a6.42,6.42,0,0,1,6.42-6.42h40.72A6.42,6.42,0,0,1,269.56,167.19Z" style="fill:#263238"></path><path d="M269.56,167.19V413.68H216V410.3h7.94a1.5,1.5,0,0,0,0-3H216v-2.44h7.94a1.5,1.5,0,0,0,0-3H216v-2.43h7.94a1.5,1.5,0,0,0,0-3H216V394h7.94a1.5,1.5,0,1,0,0-3H216V167.19a6.42,6.42,0,0,1,6.42-6.42h40.72A6.42,6.42,0,0,1,269.56,167.19Z" style="fill:#fff;isolation:isolate;opacity:0.4"></path><path d="M269.45,169.36H239A10.7,10.7,0,0,0,228.32,180v41.19a1.5,1.5,0,0,0,3,0V180a7.7,7.7,0,0,1,7.69-7.68h30.44a1.5,1.5,0,0,0,0-3Z" style="fill:#263238"></path><path d="M216,193.46a2.21,2.21,0,0,1,2.2,2.2v25.57a1.5,1.5,0,0,0,3,0V195.66a5.2,5.2,0,0,0-5.2-5.2,1.5,1.5,0,0,0,0,3Z" style="fill:#263238"></path><path d="M216,327.51h2.87a6.29,6.29,0,0,0,6.28-6.28V233.1a1.5,1.5,0,0,0-3,0v88.13a3.28,3.28,0,0,1-3.28,3.28H216a1.5,1.5,0,0,0,0,3Z" style="fill:#263238"></path><path d="M264,389.4H242.81a9.47,9.47,0,0,1-9.47-9.46V352.77a12.47,12.47,0,0,0-12.46-12.46H216a1.5,1.5,0,1,0,0,3h4.87a9.47,9.47,0,0,1,9.46,9.46v27.17a12.48,12.48,0,0,0,12.47,12.46H264a1.5,1.5,0,0,0,0-3Z" style="fill:#263238"></path><g style="isolation:isolate;opacity:0.2"><path d="M269.45,169.36H239A10.7,10.7,0,0,0,228.32,180v41.19a1.5,1.5,0,0,0,3,0V180a7.7,7.7,0,0,1,7.69-7.68h30.44a1.5,1.5,0,0,0,0-3Z" style="fill:#fff"></path><path d="M216,193.46a2.21,2.21,0,0,1,2.2,2.2v25.57a1.5,1.5,0,0,0,3,0V195.66a5.2,5.2,0,0,0-5.2-5.2,1.5,1.5,0,0,0,0,3Z" style="fill:#fff"></path><path d="M216,327.51h2.87a6.29,6.29,0,0,0,6.28-6.28V233.1a1.5,1.5,0,0,0-3,0v88.13a3.28,3.28,0,0,1-3.28,3.28H216a1.5,1.5,0,0,0,0,3Z" style="fill:#fff"></path><path d="M264,389.4H242.81a9.47,9.47,0,0,1-9.47-9.46V352.77a12.47,12.47,0,0,0-12.46-12.46H216a1.5,1.5,0,1,0,0,3h4.87a9.47,9.47,0,0,1,9.46,9.46v27.17a12.48,12.48,0,0,0,12.47,12.46H264a1.5,1.5,0,0,0,0-3Z" style="fill:#fff"></path></g><path d="M224.8,251.53h-2.29c-4.53,0-8.22,4.08-8.22,9.09s3.69,9.09,8.22,9.09h2.29c4.54,0,8.23-4.08,8.23-9.09S229.34,251.53,224.8,251.53Z" style="fill:#40757D"></path><path d="M222.51,251.53c-4.53,0-8.22,4.08-8.22,9.09s3.69,9.09,8.22,9.09,8.23-4.08,8.23-9.09S227.05,251.53,222.51,251.53Z" style="fill:#40757D"></path><ellipse cx="222.51" cy="260.62" rx="7.25" ry="8.01" style="fill:#fff"></ellipse><g style="opacity:0.2"><path d="M222.51,269.71c-4.53,0-8.22-4.08-8.22-9.09s3.69-9.09,8.22-9.09,8.23,4.08,8.23,9.09S227.05,269.71,222.51,269.71Zm0-17.1c-4,0-7.25,3.59-7.25,8s3.26,8,7.25,8,7.26-3.59,7.26-8S226.51,252.61,222.51,252.61Z"></path></g><path d="M222.66,261.13a.48.48,0,0,1-.26-.07.51.51,0,0,1-.18-.7l3.27-5.43a.51.51,0,0,1,.87.53l-3.26,5.43A.54.54,0,0,1,222.66,261.13Z" style="fill:#263238"></path><path d="M223.77,260.62a1.12,1.12,0,1,1-1.11-1.23A1.18,1.18,0,0,1,223.77,260.62Z" style="fill:#263238"></path><path d="M223.09,268.61l-.58,0c-4,0-7.25-3.6-7.25-8s3.25-8,7.25-8l.58,0c-3.74.31-6.69,3.77-6.69,8S219.35,268.28,223.09,268.61Z" style="opacity:0.2"></path><path d="M224.8,273.54h-2.29c-4.53,0-8.22,4.08-8.22,9.09s3.69,9.09,8.22,9.09h2.29c4.54,0,8.23-4.07,8.23-9.09S229.34,273.54,224.8,273.54Z" style="fill:#40757D"></path><path d="M222.51,273.54c-4.53,0-8.22,4.08-8.22,9.09s3.69,9.09,8.22,9.09,8.23-4.07,8.23-9.09S227.05,273.54,222.51,273.54Z" style="fill:#40757D"></path><ellipse cx="222.51" cy="282.63" rx="7.25" ry="8.01" style="fill:#fff"></ellipse><g style="opacity:0.2"><path d="M222.51,291.72c-4.53,0-8.22-4.07-8.22-9.09s3.69-9.09,8.22-9.09,8.23,4.08,8.23,9.09S227.05,291.72,222.51,291.72Zm0-17.1c-4,0-7.25,3.6-7.25,8s3.26,8,7.25,8,7.26-3.6,7.26-8S226.51,274.62,222.51,274.62Z"></path></g><path d="M225.93,287.37a.51.51,0,0,1-.41-.2L222.26,283a.5.5,0,0,1,.09-.72.52.52,0,0,1,.72.09l3.26,4.22a.52.52,0,0,1-.09.72A.51.51,0,0,1,225.93,287.37Z" style="fill:#263238"></path><path d="M223.77,282.63a1.11,1.11,0,1,1-1.11-1.22A1.18,1.18,0,0,1,223.77,282.63Z" style="fill:#263238"></path><path d="M223.09,290.62a5.63,5.63,0,0,1-.58,0c-4,0-7.25-3.6-7.25-8s3.25-8,7.25-8l.58,0c-3.74.32-6.69,3.78-6.69,8S219.35,290.3,223.09,290.62Z" style="opacity:0.2"></path><path d="M224.8,295.56h-2.29c-4.53,0-8.22,4.08-8.22,9.09s3.69,9.09,8.22,9.09h2.29c4.54,0,8.23-4.08,8.23-9.09S229.34,295.56,224.8,295.56Z" style="fill:#40757D"></path><path d="M222.51,295.56c-4.53,0-8.22,4.08-8.22,9.09s3.69,9.09,8.22,9.09,8.23-4.08,8.23-9.09S227.05,295.56,222.51,295.56Z" style="fill:#40757D"></path><ellipse cx="222.51" cy="304.65" rx="7.25" ry="8.01" style="fill:#fff"></ellipse><g style="opacity:0.2"><path d="M222.51,313.74c-4.53,0-8.22-4.08-8.22-9.09s3.69-9.09,8.22-9.09,8.23,4.08,8.23,9.09S227.05,313.74,222.51,313.74Zm0-17.1c-4,0-7.25,3.59-7.25,8s3.26,8,7.25,8,7.26-3.59,7.26-8S226.51,296.64,222.51,296.64Z"></path></g><path d="M222.66,305.16a.56.56,0,0,1-.32-.11l-4.42-3.53a.51.51,0,0,1,.64-.8l4.42,3.53a.51.51,0,0,1,.08.72A.53.53,0,0,1,222.66,305.16Z" style="fill:#263238"></path><path d="M223.77,304.65a1.12,1.12,0,1,1-1.11-1.23A1.17,1.17,0,0,1,223.77,304.65Z" style="fill:#263238"></path><path d="M223.09,312.64l-.58,0c-4,0-7.25-3.59-7.25-8s3.25-8,7.25-8a5.63,5.63,0,0,1,.58,0c-3.74.31-6.69,3.77-6.69,8S219.35,312.31,223.09,312.64Z" style="opacity:0.2"></path><rect x="211.18" y="217.68" width="29.5" height="20.2" rx="2.74" style="fill:#40757D"></rect><rect x="211.18" y="217.68" width="23.89" height="20.2" rx="2.74" style="fill:#fff;opacity:0.2"></rect><path d="M249.64,229.28a1.5,1.5,0,0,0,0-3H239a1.5,1.5,0,0,0,0,3Z" style="fill:#263238"></path><path d="M249.64,229.28a1.5,1.5,0,0,0,0-3H239a1.5,1.5,0,0,0,0,3Z" style="fill:#fff;opacity:0.2"></path><path d="M269.56,173.25V413.68H242.68V204.94A32.12,32.12,0,0,1,269.56,173.25Z" style="opacity:0.1"></path><polygon points="311.47 105.57 317.7 158.92 305.24 158.92 311.47 105.57" style="fill:#263238"></polygon><path d="M306.08,111a5.39,5.39,0,1,0,5.39-5.39A5.39,5.39,0,0,0,306.08,111Z" style="fill:#40757D"></path><path d="M306.53,121.57h9.88a1.5,1.5,0,0,0,0-3h-9.88a1.5,1.5,0,0,0,0,3Z" style="fill:#40757D"></path><path d="M320.75,147.33H302.19a1.5,1.5,0,0,0,0,3h18.56a1.5,1.5,0,0,0,0-3Z" style="fill:#40757D"></path><path d="M304.41,135.66h14.12a1.5,1.5,0,0,0,0-3H304.41a1.5,1.5,0,0,0,0,3Z" style="fill:#40757D"></path><path d="M305.54,128.17H317.7a1.5,1.5,0,1,0,0-3H305.54a1.5,1.5,0,0,0,0,3Z" style="fill:#40757D"></path><path d="M303.37,142.55h16.2a1.5,1.5,0,0,0,0-3h-16.2a1.5,1.5,0,0,0,0,3Z" style="fill:#40757D"></path><g style="isolation:isolate;opacity:0.6000000000000001"><path d="M306.53,121.57h9.88a1.5,1.5,0,0,0,0-3h-9.88a1.5,1.5,0,0,0,0,3Z" style="fill:#fff"></path><path d="M320.75,147.33H302.19a1.5,1.5,0,0,0,0,3h18.56a1.5,1.5,0,0,0,0-3Z" style="fill:#fff"></path><path d="M304.41,135.66h14.12a1.5,1.5,0,0,0,0-3H304.41a1.5,1.5,0,0,0,0,3Z" style="fill:#fff"></path><path d="M305.54,128.17H317.7a1.5,1.5,0,1,0,0-3H305.54a1.5,1.5,0,0,0,0,3Z" style="fill:#fff"></path><path d="M303.37,142.55h16.2a1.5,1.5,0,0,0,0-3h-16.2a1.5,1.5,0,0,0,0,3Z" style="fill:#fff"></path></g><path d="M351.2,205.87H384a6.55,6.55,0,0,1,6.55,6.55V333.26a6.55,6.55,0,0,1-6.55,6.55H351.2a0,0,0,0,1,0,0V205.87A0,0,0,0,1,351.2,205.87Z" style="fill:#263238"></path><path d="M390.59,212.42V333.26a6.55,6.55,0,0,1-6.55,6.55H351.19V205.87H384A6.55,6.55,0,0,1,390.59,212.42Z" style="fill:#fff;opacity:0.2"></path><path d="M380.59,221.62V333.26a6.55,6.55,0,0,1-6.55,6.55H351.19V205.87h13.65A15.75,15.75,0,0,1,380.59,221.62Z" style="opacity:0.2"></path><path d="M362.49,413.68h32.44v-56a16.22,16.22,0,0,0-16.22-16.22h0a16.22,16.22,0,0,0-16.22,16.22Z" style="fill:#40757D"></path><path d="M394.92,357.7v56H362.48v-56a16.22,16.22,0,0,1,32.44,0Z" style="fill:#fff;isolation:isolate;opacity:0.2"></path><path d="M384.92,357.7v56H362.48v-56a16.21,16.21,0,0,1,11.22-15.43A16.22,16.22,0,0,1,384.92,357.7Z" style="opacity:0.1"></path><path d="M250.45,160h124.2a0,0,0,0,1,0,0V351.58a62.1,62.1,0,0,1-62.1,62.1h0a62.1,62.1,0,0,1-62.1-62.1V160a0,0,0,0,1,0,0Z" transform="translate(625.1 573.71) rotate(180)" style="fill:#263238"></path><path d="M250.45,160h124.2a0,0,0,0,1,0,0V351.58a62.1,62.1,0,0,1-62.1,62.1h0a62.1,62.1,0,0,1-62.1-62.1V160a0,0,0,0,1,0,0Z" transform="translate(625.1 573.71) rotate(180)" style="fill:#fff;isolation:isolate;opacity:0.6000000000000001"></path><path d="M374.65,222.12V413.68h-22V222.12A62.12,62.12,0,0,0,301.54,161a62.17,62.17,0,0,1,73.11,61.12Z" style="opacity:0.1"></path><path d="M285.11,396.34a37.21,37.21,0,0,0,37.17-37.17V217a37.18,37.18,0,0,0-74.35,0V359.17A37.22,37.22,0,0,0,285.11,396.34Z" style="fill:#40757D"></path><path d="M285.11,396.34a37.21,37.21,0,0,0,37.17-37.17V217a37.18,37.18,0,0,0-74.35,0V359.17A37.22,37.22,0,0,0,285.11,396.34Z" style="fill:#fff;opacity:0.2"></path><rect x="251.93" y="184.86" width="64.35" height="206.48" rx="32.18" transform="translate(568.21 576.2) rotate(180)" style="fill:#fff;isolation:isolate;opacity:0.4"></rect><path d="M280.68,259.71c12.27,0,22.25-11.25,22.25-25.07s-10-25.06-22.25-25.06-22.26,11.24-22.26,25.06S268.41,259.71,280.68,259.71Z" style="fill:#40757D"></path><path d="M280.68,259.71c12.27,0,22.25-11.25,22.25-25.07s-10-25.06-22.25-25.06-22.26,11.24-22.26,25.06S268.41,259.71,280.68,259.71Z" style="fill:#fff;opacity:0.2"></path><path d="M284.48,305.85h-3.29c-6.23,0-11.27-5.46-11.27-12.2s5-12.2,11.27-12.2h3.29c6.22,0,11.26,5.46,11.26,12.2S290.7,305.85,284.48,305.85Z" style="fill:#263238"></path><path d="M292.45,293.65c0-6.74-5-12.2-11.26-12.2s-11.27,5.46-11.27,12.2,5,12.2,11.27,12.2S292.45,300.39,292.45,293.65Z" style="fill:#fff;opacity:0.4"></path><path d="M284.48,305.85h-3.29c-6.23,0-11.27-5.46-11.27-12.2s5-12.2,11.27-12.2h3.29c6.22,0,11.26,5.46,11.26,12.2S290.7,305.85,284.48,305.85Z" style="fill:#fff;opacity:0.2"></path><path d="M256,294.29c0,13.46,9.6,24.36,21.44,24.36s21.44-10.9,21.44-24.36-9.6-24.36-21.44-24.36S256,280.84,256,294.29Zm29-3.57,6.3-9a23.89,23.89,0,0,1,3.52,12h-8.69A5.92,5.92,0,0,0,285,290.72Zm9.81,4.52a23.87,23.87,0,0,1-3.51,11.65l-6.3-9a5.82,5.82,0,0,0,1.1-2.62ZM277,296.59,263.7,307a23.78,23.78,0,0,1-3.57-11.77h16.51A6,6,0,0,0,277,296.59Zm-16.9-2.94a23.86,23.86,0,0,1,3.59-12.07L277,292a6,6,0,0,0-.4,1.66Zm16.59-20.5,2.79,16.09a4.86,4.86,0,0,0-1.56,1.23L264.7,280.12C267.74,276.07,272,273.42,276.7,273.15ZM290.19,280l-6.58,9.43a4.26,4.26,0,0,0-2.16-.64l-2.7-15.63A16.57,16.57,0,0,1,290.19,280ZM278.8,315.4l2.67-15.63a4.31,4.31,0,0,0,2.14-.63l6.58,9.42A16.56,16.56,0,0,1,278.8,315.4Zm-14.1-6.94,13.23-10.34a4.79,4.79,0,0,0,1.57,1.23l-2.75,16.08C272,315.18,267.75,312.53,264.7,308.46Z" style="fill:#40757D"></path><path d="M299.93,234.64a24.25,24.25,0,0,1-.77,6.14,19.54,19.54,0,0,1-.86,2.72,22.2,22.2,0,0,1-2.42,4.67,19.06,19.06,0,0,1-1.2,1.6,16.37,16.37,0,0,1-1.37,1.5,17.78,17.78,0,0,1-12.64,5.43,17.13,17.13,0,0,1-2.88-.24c-9.27-1.6-16.37-10.76-16.37-21.82,0-12.19,8.62-22.07,19.25-22.07a17.68,17.68,0,0,1,12,4.79,20,20,0,0,1,3,3.45A22.24,22.24,0,0,1,298,225a22.66,22.66,0,0,1,1.07,3.1c.06.21.11.4.15.61h0c.15.56.26,1.12.36,1.7h0A25.15,25.15,0,0,1,299.93,234.64Z" style="opacity:0.30000000000000004"></path><path d="M298.3,243.5a22.2,22.2,0,0,1-2.42,4.67,19.06,19.06,0,0,1-1.2,1.6,12.84,12.84,0,0,1-3.16.61c-2.35.17-3.17-1-3.21-2.12a2.7,2.7,0,0,1,.23-1.14c3.24-1.1,3.58-3.29,3.06-5.56h0c0-.14-.06-.27-.1-.4s-.16-.54-.25-.81l-.12-.34,0-.06,3.8-3.93,2.12-2.2.35-.35.14-.15a3,3,0,0,0,0,.31,31.77,31.77,0,0,0,.17,7.36A12.73,12.73,0,0,0,298.3,243.5Z" style="fill:#b55b52"></path><path d="M294.92,236l-3.8,3.92a11.51,11.51,0,0,1,.56,2c1.55-.37,3.53-2.29,3.52-3.95A5.6,5.6,0,0,0,294.92,236Z" style="opacity:0.2"></path><path d="M283,224.41c-.56,2-.1,5.94,2.58,4.56S283.91,221,283,224.41Z" style="fill:#263238"></path><path d="M297,226.61c.46,5,1,7.88-1.14,10.78-3.18,4.35-9.65,3-11.59-1.8-1.74-4.29-2.19-11.73,2.36-14.39A6.91,6.91,0,0,1,297,226.61Z" style="fill:#b55b52"></path><path d="M299.07,228.11c-.05.07-.12.14-.19.22a9.55,9.55,0,0,1-1.56,1.39,6.24,6.24,0,0,1-.68.46,4.22,4.22,0,0,1-1.06-1.17,9.23,9.23,0,0,1-1.18-3.6,12.82,12.82,0,0,1-.11-1.77l-.34.14.33-2.15.15-1,1.24.19A22.24,22.24,0,0,1,298,225,22.66,22.66,0,0,1,299.07,228.11Z" style="fill:#263238"></path><path d="M299.58,230.43h0a4.72,4.72,0,0,1-1.91,3.07.75.75,0,0,1-.17.1h0l-.15.08a1.52,1.52,0,0,1-.32.11c-1.09.3-2-.68-2.07-2a5.26,5.26,0,0,1,.62-2.79,2.33,2.33,0,0,1,1.49-1.17l.08,0a2,2,0,0,1,1.73.51,1.83,1.83,0,0,1,.34.39h0C299.37,229.29,299.48,229.85,299.58,230.43Z" style="fill:#b55b52"></path><path d="M289.73,229.06c.07.41-.1.76-.36.8s-.53-.26-.59-.66.1-.76.37-.8S289.67,228.66,289.73,229.06Z" style="fill:#263238"></path><path d="M285.17,229.71c.06.41-.1.76-.36.8s-.53-.26-.59-.66.1-.76.36-.8S285.11,229.31,285.17,229.71Z" style="fill:#263238"></path><path d="M286.65,229.71a14.12,14.12,0,0,1-1.45,3.6,2.41,2.41,0,0,0,2,.05Z" style="fill:#a02724"></path><path d="M291.23,233.18l.53.06a.12.12,0,0,1,.1.14.12.12,0,0,1-.14.09,3.22,3.22,0,0,0-2.8.8.12.12,0,0,1-.17-.17A3.32,3.32,0,0,1,291.23,233.18Z" style="fill:#263238"></path><path d="M290.92,227.39a.22.22,0,0,1-.24-.06,1.92,1.92,0,0,0-1.64-.57.23.23,0,0,1-.28-.18.24.24,0,0,1,.18-.29,2.4,2.4,0,0,1,2.08.7.25.25,0,0,1,0,.34A.21.21,0,0,1,290.92,227.39Z" style="fill:#263238"></path><path d="M283,228.43h-.14a.24.24,0,0,1-.16-.3,2.36,2.36,0,0,1,1.5-1.58.25.25,0,0,1,.3.17.24.24,0,0,1-.17.29,1.84,1.84,0,0,0-1.17,1.26A.25.25,0,0,1,283,228.43Z" style="fill:#263238"></path><path d="M298,225h-2.12a2.36,2.36,0,0,1-.36.2,2.27,2.27,0,0,1-1.12.2,2.12,2.12,0,0,1-1-.34c-1.31-.82-1.33-4.78-5.46-3.2a2.3,2.3,0,0,0-2.43.59,3.43,3.43,0,0,0-.68,1.46,17.45,17.45,0,0,1-.85,2.72,1.3,1.3,0,0,1-.78.75l-.15,0a.2.2,0,0,1-.13,0,1.18,1.18,0,0,1-.42-.09c-2.08-.85-1.64-1.47-1.64-1.47s.56.44.95.18a2,2,0,0,1-.35-2.31s.46.67.82.59a9.16,9.16,0,0,1,1.16-5.36c1.57-3,9.14-1.48,9.14-1.48l.1-.11a20,20,0,0,1,3,3.45A22.24,22.24,0,0,1,298,225Z" style="fill:#263238"></path><path d="M299.16,240.78a19.54,19.54,0,0,1-.86,2.72,22.2,22.2,0,0,1-2.42,4.67,19.06,19.06,0,0,1-1.2,1.6,16.37,16.37,0,0,1-1.37,1.5,17.78,17.78,0,0,1-12.64,5.43,17.13,17.13,0,0,1-2.88-.24,12.73,12.73,0,0,1,4.5-7,13.44,13.44,0,0,1,2.81-1.8l.1-5.8s2.84-.07,6.4-.3l1.15-.08c1.6-.13,3.3-.28,4.92-.49Z" style="fill:#fff"></path><path d="M292.27,229v.11a1.31,1.31,0,0,1-1.21,1.3h-.14l-7.45.59a1.32,1.32,0,0,1-1.41-1.21v-.11a1.32,1.32,0,0,1,1.2-1.3l7.6-.6A1.31,1.31,0,0,1,292.27,229Z" style="fill:#40757D"></path><path d="M291.29,229.46v.09a1.31,1.31,0,0,1-.37.91l-7.45.59a1.32,1.32,0,0,1-1.41-1.21v-.11a1.3,1.3,0,0,1,.36-.89l7.45-.59A1.31,1.31,0,0,1,291.29,229.46Z" style="fill:#fff;isolation:isolate;opacity:0.6000000000000001"></path><path d="M290.34,229.91l-7.24.54a.53.53,0,0,1-.56-.49h0a.51.51,0,0,1,.48-.56l7.24-.54a.53.53,0,0,1,.56.48h0A.53.53,0,0,1,290.34,229.91Z" style="fill:#263238"></path><path d="M295.88,248.17a19.06,19.06,0,0,1-1.2,1.6,16.37,16.37,0,0,1-1.37,1.5c-3.6,1.1-7.75,1.24-11-1.82a13.44,13.44,0,0,1,2.81-1.8,19.15,19.15,0,0,0,3.21.61A31.72,31.72,0,0,0,295.88,248.17Z" style="opacity:0.2"></path><path d="M295.85,229.65a24.25,24.25,0,0,1-.77,6.14,19.54,19.54,0,0,1-.86,2.72,22.2,22.2,0,0,1-2.42,4.67,19.06,19.06,0,0,1-1.2,1.6,16.37,16.37,0,0,1-1.37,1.5,17.78,17.78,0,0,1-12.64,5.43,17.13,17.13,0,0,1-2.88-.24,18,18,0,0,1-9-4.44,24.23,24.23,0,0,1-3.32-12.39c0-12.19,8.62-22.07,19.25-22.07a17.64,17.64,0,0,1,11.83,4.66,20.88,20.88,0,0,1,1.42,2.79,22.66,22.66,0,0,1,1.07,3.1c.06.21.11.4.15.61h0c.15.56.26,1.12.36,1.7h0A25.15,25.15,0,0,1,295.85,229.65Z" style="fill:#fff;isolation:isolate;opacity:0.2"></path><path d="M282.74,233.2c-3.76,6.5-10.64,9.56-15.37,6.83s-5.53-10.22-1.77-16.73,10.63-9.56,15.37-6.83S286.49,226.69,282.74,233.2Z" style="fill:#fff;isolation:isolate;opacity:0.2"></path><path d="M286.39,239.2c-1,1.73-2.84,2.55-4.1,1.82s-1.47-2.72-.47-4.45,2.84-2.55,4.1-1.82S287.39,237.47,286.39,239.2Z" style="fill:#fff;isolation:isolate;opacity:0.2"></path><path d="M290,163.8h43l-1.88-6.21a5.27,5.27,0,0,0-5.05-3.76H296.91a5.27,5.27,0,0,0-5.05,3.76Z" style="fill:#40757D"></path><path d="M379.14,336.49h-4a5.47,5.47,0,0,1-5.46-5.46v-5a1.5,1.5,0,0,1,3,0v5a2.46,2.46,0,0,0,2.46,2.46h4a1.5,1.5,0,0,1,0,3Z" style="fill:#263238"></path><g style="opacity:0.30000000000000004"><path d="M379.14,336.49h-4a5.47,5.47,0,0,1-5.46-5.46v-5a1.5,1.5,0,0,1,3,0v5a2.46,2.46,0,0,0,2.46,2.46h4a1.5,1.5,0,0,1,0,3Z" style="fill:#fff"></path></g><rect x="356.2" y="308.51" width="29.5" height="20.2" rx="2.74" transform="translate(741.9 637.22) rotate(180)" style="fill:#40757D"></rect><rect x="361.81" y="308.51" width="23.89" height="20.2" rx="2.74" transform="translate(747.51 637.22) rotate(180)" style="fill:#fff;opacity:0.2"></rect><path d="M378.47,231.5h-40A14.49,14.49,0,0,1,324,217a38.58,38.58,0,0,0-38.53-38.53,1.5,1.5,0,0,1,0-3A41.58,41.58,0,0,1,327,217a11.49,11.49,0,0,0,11.48,11.48h40a1.5,1.5,0,0,1,0,3Z" style="fill:#263238"></path><path d="M285.11,415.18a1.5,1.5,0,0,1-1.5-1.5V400.83A3.43,3.43,0,0,1,287,397.4a37,37,0,0,0,37-37V250.09a13.28,13.28,0,0,1,13.26-13.26h41.18a1.5,1.5,0,0,1,0,3H337.29A10.27,10.27,0,0,0,327,250.09V360.4a40,40,0,0,1-40,40,.43.43,0,0,0-.43.43v12.85A1.5,1.5,0,0,1,285.11,415.18Z" style="fill:#263238"></path><path d="M368.78,260.58a1.5,1.5,0,0,1-1.5-1.5v-8.47a5.49,5.49,0,0,1,5.49-5.49h5.7a1.5,1.5,0,0,1,0,3h-5.7a2.5,2.5,0,0,0-2.49,2.49v8.47A1.5,1.5,0,0,1,368.78,260.58Z" style="fill:#263238"></path><path d="M346.69,347a1.5,1.5,0,0,1-1.5-1.5v-19.1a9.21,9.21,0,0,1,9.19-9.2h4.1a1.5,1.5,0,0,1,0,3h-4.1a6.2,6.2,0,0,0-6.19,6.2v19.1A1.5,1.5,0,0,1,346.69,347Z" style="fill:#263238"></path><path d="M377.91,396h-17.1a1.5,1.5,0,1,1,0-3h17.1a1.5,1.5,0,1,1,0,3Z" style="fill:#263238"></path><g style="isolation:isolate;opacity:0.30000000000000004"><path d="M378.47,231.5h-40A14.49,14.49,0,0,1,324,217a38.58,38.58,0,0,0-38.53-38.53,1.5,1.5,0,0,1,0-3A41.58,41.58,0,0,1,327,217a11.49,11.49,0,0,0,11.48,11.48h40a1.5,1.5,0,0,1,0,3Z" style="fill:#fff"></path><path d="M285.11,415.18a1.5,1.5,0,0,1-1.5-1.5V400.83A3.43,3.43,0,0,1,287,397.4a37,37,0,0,0,37-37V250.09a13.28,13.28,0,0,1,13.26-13.26h41.18a1.5,1.5,0,0,1,0,3H337.29A10.27,10.27,0,0,0,327,250.09V360.4a40,40,0,0,1-40,40,.43.43,0,0,0-.43.43v12.85A1.5,1.5,0,0,1,285.11,415.18Z" style="fill:#fff"></path><path d="M368.78,260.58a1.5,1.5,0,0,1-1.5-1.5v-8.47a5.49,5.49,0,0,1,5.49-5.49h5.7a1.5,1.5,0,0,1,0,3h-5.7a2.5,2.5,0,0,0-2.49,2.49v8.47A1.5,1.5,0,0,1,368.78,260.58Z" style="fill:#fff"></path><path d="M346.69,347a1.5,1.5,0,0,1-1.5-1.5v-19.1a9.21,9.21,0,0,1,9.19-9.2h4.1a1.5,1.5,0,0,1,0,3h-4.1a6.2,6.2,0,0,0-6.19,6.2v19.1A1.5,1.5,0,0,1,346.69,347Z" style="fill:#fff"></path><path d="M377.91,396h-17.1a1.5,1.5,0,1,1,0-3h17.1a1.5,1.5,0,1,1,0,3Z" style="fill:#fff"></path></g><path d="M330.47,413.68h32.44v-56a16.22,16.22,0,0,0-16.22-16.22h0a16.22,16.22,0,0,0-16.22,16.22Z" style="fill:#40757D"></path><path d="M330.47,413.68h32.44v-56a16.22,16.22,0,0,0-16.22-16.22h0a16.22,16.22,0,0,0-16.22,16.22Z" style="fill:#fff;isolation:isolate;opacity:0.2"></path><path d="M362.9,357.7v56h-6v-56a16.21,16.21,0,0,0-13.22-15.94,16.41,16.41,0,0,1,3-.28A16.22,16.22,0,0,1,362.9,357.7Z" style="opacity:0.1"></path><path d="M400.4,417.72H210.74a6.07,6.07,0,0,1,6.07-6.07H394.34a6.06,6.06,0,0,1,6.06,6.07Z" style="fill:#40757D"></path><path d="M290,163.8h43l-1.88-6.21a5.27,5.27,0,0,0-5.05-3.76H296.91a5.27,5.27,0,0,0-5.05,3.76Z" style="fill:#fff;isolation:isolate;opacity:0.2"></path><path d="M400.4,260.85v40.08a3.82,3.82,0,0,1-3.83,3.82H338.62a3.82,3.82,0,0,1-3.81-3.82V260.85a3.82,3.82,0,0,1,3.81-3.82h57.95A3.83,3.83,0,0,1,400.4,260.85Z" style="fill:#40757D"></path><path d="M400.4,260.85v40.08a3.82,3.82,0,0,1-3.83,3.82H347.11a3.82,3.82,0,0,1-3.81-3.82V260.85a3.82,3.82,0,0,1,3.81-3.82h49.46A3.83,3.83,0,0,1,400.4,260.85Z" style="fill:#fff;opacity:0.2"></path><path d="M392.33,299.66H352.76a4.26,4.26,0,0,1-4.24-4.24h0a4.26,4.26,0,0,1,4.24-4.24h39.57a4.26,4.26,0,0,1,4.24,4.24h0A4.26,4.26,0,0,1,392.33,299.66Z" style="opacity:0.2"></path><path d="M392.33,290H352.76a4.26,4.26,0,0,1-4.24-4.24h0a4.26,4.26,0,0,1,4.24-4.24h39.57a4.26,4.26,0,0,1,4.24,4.24h0A4.26,4.26,0,0,1,392.33,290Z" style="opacity:0.2"></path><path d="M392.33,280.32H352.76a4.26,4.26,0,0,1-4.24-4.25h0a4.26,4.26,0,0,1,4.24-4.24h39.57a4.26,4.26,0,0,1,4.24,4.24h0A4.26,4.26,0,0,1,392.33,280.32Z" style="opacity:0.2"></path><rect x="348.52" y="262.16" width="48.04" height="8.48" rx="4.24" style="opacity:0.2"></rect><path d="M362.05,263.11h-3.57v6.59h3.57a5.53,5.53,0,0,0,0-6.59Z" style="fill:#fff"></path><path d="M358.48,263.11v6.59a5.49,5.49,0,0,0,0-6.59Z" style="opacity:0.2"></path><path d="M367.68,263.11h-3.56v6.59h3.56a5.49,5.49,0,0,0,0-6.59Z" style="fill:#fff"></path><path d="M364.12,263.11v6.59a5.53,5.53,0,0,0,0-6.59Z" style="opacity:0.2"></path><path d="M373.32,263.11h-3.56v6.59h3.56a5.49,5.49,0,0,0,0-6.59Z" style="fill:#fff"></path><path d="M369.76,263.11v6.59a5.53,5.53,0,0,0,0-6.59Z" style="opacity:0.2"></path><path d="M379,263.11H375.4v6.59H379a5.49,5.49,0,0,0,0-6.59Z" style="fill:#fff"></path><path d="M375.4,263.11v6.59a5.53,5.53,0,0,0,0-6.59Z" style="opacity:0.2"></path><path d="M362.05,272.78h-3.57v6.59h3.57a5.53,5.53,0,0,0,0-6.59Z" style="fill:#fff"></path><path d="M358.48,272.78v6.59a5.49,5.49,0,0,0,0-6.59Z" style="opacity:0.2"></path><path d="M367.68,272.78h-3.56v6.59h3.56a5.49,5.49,0,0,0,0-6.59Z" style="fill:#fff"></path><path d="M364.12,272.78v6.59a5.53,5.53,0,0,0,0-6.59Z" style="opacity:0.2"></path><path d="M362.05,282.45h-3.57V289h3.57a5.53,5.53,0,0,0,0-6.59Z" style="fill:#fff"></path><path d="M358.48,282.45V289a5.49,5.49,0,0,0,0-6.59Z" style="opacity:0.2"></path><path d="M367.68,282.45h-3.56V289h3.56a5.49,5.49,0,0,0,0-6.59Z" style="fill:#fff"></path><path d="M364.12,282.45V289a5.53,5.53,0,0,0,0-6.59Z" style="opacity:0.2"></path><path d="M362.05,292.12h-3.57v6.6h3.57a5.54,5.54,0,0,0,0-6.6Z" style="fill:#fff"></path><g style="opacity:0.2"><path d="M358.48,292.12v6.6a5.5,5.5,0,0,0,0-6.6Z"></path></g><path d="M367.68,292.12h-3.56v6.6h3.56a5.5,5.5,0,0,0,0-6.6Z" style="fill:#fff"></path><g style="opacity:0.2"><path d="M364.12,292.12v6.6a5.54,5.54,0,0,0,0-6.6Z"></path></g><path d="M374.74,292.12h-3.57v6.6h3.57a5.54,5.54,0,0,0,0-6.6Z" style="fill:#fff"></path><g style="opacity:0.2"><path d="M371.17,292.12v6.6a5.5,5.5,0,0,0,0-6.6Z"></path></g><path d="M380.38,292.12h-3.57v6.6h3.57a5.54,5.54,0,0,0,0-6.6Z" style="fill:#fff"></path><g style="opacity:0.2"><path d="M376.81,292.12v6.6a5.5,5.5,0,0,0,0-6.6Z"></path></g><path d="M387.43,292.12h-3.57v6.6h3.57a5.54,5.54,0,0,0,0-6.6Z" style="fill:#fff"></path><g style="opacity:0.2"><path d="M383.86,292.12v6.6a5.5,5.5,0,0,0,0-6.6Z"></path></g><path d="M393.07,292.12H389.5v6.6h3.57a5.54,5.54,0,0,0,0-6.6Z" style="fill:#fff"></path><g style="opacity:0.2"><path d="M389.5,292.12v6.6a5.5,5.5,0,0,0,0-6.6Z"></path></g><path d="M369.45,294.76a.36.36,0,0,1,.37-.38.37.37,0,0,1,.37.38.37.37,0,0,1-.37.38A.37.37,0,0,1,369.45,294.76Zm0,1.73a.36.36,0,0,1,.37-.38.37.37,0,0,1,.37.38.37.37,0,0,1-.37.38A.37.37,0,0,1,369.45,296.49Z" style="fill:#263238"></path><path d="M382.18,294.76a.36.36,0,0,1,.37-.38.37.37,0,0,1,.37.38.37.37,0,0,1-.37.38A.37.37,0,0,1,382.18,294.76Zm0,1.73a.36.36,0,0,1,.37-.38.37.37,0,0,1,.37.38.37.37,0,0,1-.37.38A.37.37,0,0,1,382.18,296.49Z" style="fill:#263238"></path><path d="M353.24,266.87V268h-.59v-1.12l-1.25-2.07H352l.93,1.55.94-1.55h.59Z" style="fill:#263238"></path><path d="M354.12,277.67v-2.11l-1.05,1.74h-.26l-1.05-1.72v2.09h-.56v-3.19h.48l1.27,2.11,1.24-2.11h.49v3.19Z" style="fill:#263238"></path><path d="M351.49,284.15h1.39a1.6,1.6,0,1,1,0,3.19h-1.39Zm1.36,2.69a1.09,1.09,0,1,0,0-2.18h-.77v2.18Z" style="fill:#263238"></path><path d="M354.36,293.83V297h-.6v-1.36h-1.64V297h-.59v-3.18h.59v1.31h1.64v-1.31Z" style="fill:#263238"></path><text transform="translate(359.66 297.01)" style="font-size:4.548789978027344px;fill:#263238;font-family:Montserrat-Regular, Montserrat">0</text><text transform="translate(365.43 297.01)" style="font-size:4.548789978027344px;fill:#263238;font-family:Montserrat-Regular, Montserrat">6</text><text transform="translate(359.69 287.34)" style="font-size:4.548789978027344px;fill:#263238;font-family:Montserrat-Regular, Montserrat">2</text><text transform="translate(359.66 277.67)" style="font-size:4.548789978027344px;fill:#263238;font-family:Montserrat-Regular, Montserrat">0</text><text transform="translate(359.69 268)" style="font-size:4.548789978027344px;fill:#263238;font-family:Montserrat-Regular, Montserrat">2</text><text transform="translate(365.42 268)" style="font-size:4.548789978027344px;fill:#263238;font-family:Montserrat-Regular, Montserrat">5</text><text transform="translate(371.12 268)" style="font-size:4.548789978027344px;fill:#263238;font-family:Montserrat-Regular, Montserrat">8</text><text transform="translate(376.98 268)" style="font-size:4.548789978027344px;fill:#263238;font-family:Montserrat-Regular, Montserrat">5</text><text transform="translate(365.47 277.67)" style="font-size:4.548789978027344px;fill:#263238;font-family:Montserrat-Regular, Montserrat">8</text><text transform="translate(365.4 287.34)" style="font-size:4.548789978027344px;fill:#263238;font-family:Montserrat-Regular, Montserrat">2</text><text transform="translate(372.66 297.01)" style="font-size:4.548789978027344px;fill:#263238;font-family:Montserrat-Regular, Montserrat">5</text><text transform="translate(378.31 297.02)" style="font-size:4.548789978027344px;fill:#263238;font-family:Montserrat-Regular, Montserrat">5</text><text transform="translate(385.48 297.01)" style="font-size:4.548789978027344px;fill:#263238;font-family:Montserrat-Regular, Montserrat">2</text><text transform="translate(391.46 297.01)" style="font-size:4.548789978027344px;fill:#263238;font-family:Montserrat-Regular, Montserrat">1</text></g><g id="freepik--Character--inject-2"><g id="freepik--group--inject-2"><path d="M112,347.61l-.38,18.25-.13,2.8-.43,8.89s-3.41,3.78-3.92,4.46-2.94.48-4.87,1.1-1.68-3.18-3.33-4.61-.4-5.44,0-6.21-.13-9.88.72-11.42.79-5.63.79-5.63l3.76-14.07,2.59-18.34-.06-3.5-.51-2.36,1.63-4.06,2.52.35-.59,4.3,0,1.77-.12,5.93v13.05Z" style="fill:#263238"></path><path d="M112,347.61l-.38,18.25-.13,2.8-.43,8.89s-3.41,3.78-3.92,4.46-2.94.48-4.87,1.1-1.68-3.18-3.33-4.61-.4-5.44,0-6.21-.13-9.88.72-11.42.79-5.63.79-5.63l3.76-14.07,2.59-18.34-.06-3.5-.51-2.36,1.63-4.06,2.52.35-.59,4.3,0,1.77-.12,5.93v13.05Z" style="fill:#fff;isolation:isolate;opacity:0.4"></path><path d="M111.51,368.66l-.43,8.89s-3.41,3.78-3.92,4.46-2.94.48-4.87,1.1-1.68-3.18-3.33-4.61-.4-5.44,0-6.21-.13-9.88.72-11.42.79-5.63.79-5.63l3.76-14.07,2.59-18.34-.06-3.5-.51-2.36,1.63-4.06-.76,4.58,2.66,1.84-.12,5.93V330a51.05,51.05,0,0,0-3.73,4.9l-.86,6.55,2.05-1.3-3,4-2.71,12.19,1.7,3.19,2-.74,1-1.23-1,2.42-2.13,1.1-1.56,1a32.87,32.87,0,0,0-.87,3.8v7.87l3.58,1.33,2.52-2.74H109l-1.9,1.27-.78,2.44.78,1.86,3.15-2.15v-3.42Z" style="isolation:isolate;opacity:0.2"></path><path d="M169.18,413.62h-5.52s9.84-39.62,9.84-41c0-.68-8.19-6.76-16.42-12.71-5.81-4.19-11.64-8.31-14.64-10.42h0l-2.08-1.46,1.55-1.48,10.61-10s5.38,3.69,11.65,9.1c7.56,6.54,16.41,15.62,18.64,23.79C186.86,384.4,169.18,413.62,169.18,413.62Z" style="fill:#ffb573"></path><path d="M164.17,345.67c-1.67,4.57-4.18,10.49-7.09,14.27-5.81-4.19-11.64-8.31-14.64-10.42h0c-.22-1-.39-1.95-.53-2.94l10.61-10S157.9,340.26,164.17,345.67Z" style="isolation:isolate;opacity:0.2"></path><path d="M140.36,372.26c-1.22,9.37-9.46,41.36-9.46,41.36h-6.14s2.39-38.05,3.69-41.36c.68-1.7-2.39-8.43-5-15.38-2.47-6.53-4.55-13.26-2.75-16.2a8.07,8.07,0,0,1,4.27-3.23c5.24-2,12.51-.88,12.51-.88s.33,2.07.76,5.25c.67,4.77,1.59,12.08,2.07,18.67A66.52,66.52,0,0,1,140.36,372.26Z" style="fill:#ffb573"></path><path d="M140.27,360.49a38.57,38.57,0,0,1-4.89-1c-1.76-.61-4.34-5.34-4.34-5.34s-3.93,2.56-6.28,2.83a3.93,3.93,0,0,1-1.35-.1c-2.47-6.53-4.55-13.26-2.75-16.2a8.07,8.07,0,0,1,4.27-3.23,54.91,54.91,0,0,1,12.51,4l.76.37C138.87,346.59,139.79,353.9,140.27,360.49Z" style="isolation:isolate;opacity:0.2"></path><path d="M168,278.7c2.48,1.48,1.34,7,2,8.68s3.22,3,2.22,3.49-2-1.23-2.22,0,.51,5,0,6.47-1.5-.21-1.65,1.72-.57,5.12-6.38,7-20.19,4.6-23.08,0-2.69-8.62-1.69-9.59-2,3.06-2.15.83,1.29-.66,2-3.67,2-4.36,2.44-4.33-2.39.74-1.34-.84,3.36-.59,4-2.33,1.07-7,4.74-7.22S168,278.7,168,278.7Z" style="fill:#263238"></path><path d="M158.32,296.89a152.2,152.2,0,0,0,15.78-2.14,25,25,0,0,0,7.12-2.27c.09-.05.23-.15.14-.06a1.27,1.27,0,0,0-.24.59c0,.41.13,0-.11-.56a11.1,11.1,0,0,0-1-1.87,61.81,61.81,0,0,0-6.71-7.91l2.29-3.05c5.08,3,16.47,10.77,10.67,17.69-4.46,3.92-10.8,4.81-16.13,5.91a103.34,103.34,0,0,1-11.28,1.35l-.54-7.68Z" style="fill:#ffb573"></path><path d="M165.37,303.94c-2.15.28-4.3.48-6.51.63l-.12-1.74.71-.54A19.48,19.48,0,0,1,165.37,303.94Z" style="isolation:isolate;opacity:0.2"></path><path d="M136.33,290.53s-9.37,2.82-10.18,3.7.95,2,.95,2-5.86,8.35-5.58,8.22,1.1.62,1.1.62L120,311h.6l-1.45,5.83.85.55s-2.24,5.73,0,10.46S146.64,298,136.33,290.53Z" style="fill:#40757D"></path><path d="M177.83,281.63l-3.26-6.79-5.39,3.76s1.61,5.06,6,5.34Z" style="fill:#ffb573"></path><polygon points="170.26 271.67 166.91 275.44 169.18 278.6 174.57 274.84 170.26 271.67" style="fill:#ffb573"></polygon><path d="M168.37,410.68l-2.49-1.63a7.68,7.68,0,0,0-1.52,1.72,17.09,17.09,0,0,0-1.5,6,.8.8,0,0,0,.61.94l.18,0c2.11,0,3.65-.16,6.3-.16,1.63,0,6.56.17,8.82.17s2.55-2.23,1.62-2.44c-4.14-.9-9.73-3-9.78-4.14A7,7,0,0,0,168.37,410.68Z" style="fill:#ffb573"></path><path d="M166.34,296.08c-.44.44-.87.89-1.28,1.34-16.59,17.8-17.61,35.72-17.61,35.72s-20.56,1.28-28.29-.08c-.27-9.89,1.58-17.63,4.25-23.6a40.21,40.21,0,0,1,6-9.7c.59-.69,1.16-1.32,1.74-1.92a30,30,0,0,1,8.17-6.22s1.1-.09,2.73-.12c.89,0,1.94,0,3,0,.71,0,1.46.05,2.19.11a96.09,96.09,0,0,1,10.9,1.91A60.64,60.64,0,0,1,166.34,296.08Z" style="fill:#ffb573"></path><path d="M166.34,296.08c-.44.44-.87.89-1.28,1.34-4.54,3.34-13.33,3.31-13.33,3.31l-1.63,1.56-1-2.54a14.64,14.64,0,0,1-3.9-3.36,22.63,22.63,0,0,1-3.1-4.89c-.19-.38-.34-.73-.45-1a14.81,14.81,0,0,1,3.48,1h0c.71,0,1.46.05,2.19.11a96.09,96.09,0,0,1,10.9,1.91A60.64,60.64,0,0,1,166.34,296.08Z" style="isolation:isolate;opacity:0.2"></path><path d="M156,297.13a6.69,6.69,0,0,0,8.08.94,7.49,7.49,0,0,0,3.46-4.29,6.66,6.66,0,0,0,.19-.77c1-4.83-.67-15.9-5.4-14.6-3.87,1.06-8,.55-9.33,4.33a7.24,7.24,0,0,0-.4,3.36C153.1,291.39,153.16,294.53,156,297.13Z" style="fill:#ffb573"></path><path d="M160.7,287.25c0,.43.26.78.54.76s.5-.37.49-.8-.27-.78-.55-.76S160.68,286.81,160.7,287.25Z" style="fill:#263238"></path><path d="M165.59,287.05c0,.43.27.77.55.76s.5-.37.48-.81-.27-.77-.55-.76S165.58,286.64,165.59,287.05Z" style="fill:#263238"></path><path d="M153.87,289.7a2.41,2.41,0,0,0,0,3.28h0a2.12,2.12,0,0,1-2.42-1.2c-.18-.42-.37-1-.67-1.81-1.49-4.21-1.88-7-1.64-9.16l7-1.51.49,2.32a1.74,1.74,0,0,0-.68,2.27c.93,1.89.08,5-1.31,6.39C154.7,290.28,154.57,289.43,153.87,289.7Z" style="fill:#263238"></path><path d="M150.42,290.55a5,5,0,0,0,3,2.44c1.71.5,2.58-1,2.12-2.65-.42-1.43-1.8-3.47-3.52-3.24A2.27,2.27,0,0,0,150.42,290.55Z" style="fill:#ffb573"></path><path d="M168.38,279.55c1.36-1-1.2-4.12-2.57-4.19a10.2,10.2,0,0,1-5.61-2.63c-1.7-1.61-5-1.39-5.84.36s-1.26,2.23-3.05,2-3.34-.64-4.72,1.89-.09,4.71-1.81,5.4-.75,4.69,1.56,4.77-.88,3.18-.09,4.46,2.84.8,2.92,1.6-2.92,2.3-1.58,2.69,2.66.3,3-1.87c.19-1.08.7-1.15,1.51-1.65a3.61,3.61,0,0,0,1.31-1.51c.28-.61.73-1.22,1-1.86.16-.45.14-.93.26-1.39.2-.77.79-1.39,1-2.15.19-.6.22-1.35.78-1.63a5,5,0,0,0,.19,1.43,5.42,5.42,0,0,1-.16,1.38c-.08.49-.28,2,.14,2.37.63.57.48-.74.62-1a2.73,2.73,0,0,0,.25-.55,1.75,1.75,0,0,0,0-.56,3.57,3.57,0,0,1,.74-2.37c.18-.24.46-.38.67-.62a8.5,8.5,0,0,1,.77-.82c.42-.39,1.18-.64,1.23-1.3.09-1.09.49-2.72.79-2.61s.33.68.75,1.07-1.12,2.15-.46,2.22.11-.16,1.1-1.06,1.75-1.86,1.24-2.59c0,0,1.73,2,2.78,2s1,2.78,1.9,2.46S168.38,279.55,168.38,279.55Z" style="fill:#263238"></path><path d="M164.71,288.28c4.21,0,6.37,2.41,6.39,4.75,0,3.05-4.47,8.5-12.5,5.67C151.15,296.08,155.67,288.28,164.71,288.28Z" style="fill:#ffb573"></path><path d="M163.08,288.66c.07-.48,1.4,0,1.4,0l-.2-1.63,1,1.63s.92-.86,1.37-.47.14,1.45-1.37,1.64C164.14,290,163,289.3,163.08,288.66Z" style="fill:#ed893e"></path><path d="M159.45,286.76a.52.52,0,0,1-.35-.9c2-1.84,5.83-2.67,8-.91a.51.51,0,0,1-.64.8c-1.6-1.27-4.79-.86-6.7.87A.51.51,0,0,1,159.45,286.76Z" style="fill:#263238"></path><path d="M155.19,296.32s-.22-4.27,3.44-5.61a12.51,12.51,0,0,1,6.85-.41c.68,0,1.48-.72,3.52-.87s3,4.67,2.56,6-.41-.59-.87.65-.15,2.95-1.07,2.72-1.73.65-2.23,1.31-.11,1-1.53.61-.84,1.66-2.79,1-2.81-1.11-3.88-.5-1.65-.79-2.5-1.69S154.86,298.56,155.19,296.32Z" style="fill:#263238"></path><path d="M165.48,291.86s-1.81,1.42-2.09.89-1.43.23-2.18.85A1.42,1.42,0,0,0,162,296c1.26.28,3.79-.39,4.16-.33s2.55.18,3.18-1.29-.53-1.43-1-1.64S166.67,291.58,165.48,291.86Z" style="fill:#ffb573"></path><path d="M169,293.63l-1.27,1.14-.51.09c-.34.06-.67.11-1,.14-3.61.44-5.47-.49-3.47-1.31a3.62,3.62,0,0,1,.9-.26,6.12,6.12,0,0,1,1-.13,13.5,13.5,0,0,1,2.65.07l.78.1C168.64,293.55,169,293.63,169,293.63Z" style="fill:#263238"></path><path d="M164.64,293.3v.58h-1v-.45A6.12,6.12,0,0,1,164.64,293.3Z" style="fill:#fff"></path><path d="M167.22,294.86c-.34.06-.67.11-1,.14v-.56h.87Z" style="fill:#fff"></path><path d="M168.07,293.47l-.11.41h-.6l-.07-.51Z" style="fill:#fff"></path><path d="M107.77,319l-3.68,6.56,6.18,2.26s3.21-4.22.93-8Z" style="fill:#ffb573"></path><polygon points="103.97 330.91 108.98 331.5 110.27 327.82 104.09 325.56 103.97 330.91" style="fill:#ffb573"></polygon><path d="M135.85,300.47s-6.88,8.26-12.44,9a40.21,40.21,0,0,1,6-9.7A12,12,0,0,1,135.85,300.47Z" style="isolation:isolate;opacity:0.2"></path><path d="M141.73,298.65c-6.74,2.4-13.8,4.58-20.49,7-2,.71-4.16,4.34-5.48,6.45-1.76,3-3.4,6.22-4.93,9.41l-3.63-1.17c1.66-6.83,3.69-14.17,8.75-19.4a9.65,9.65,0,0,1,2.62-1.72c3.43-1.57,6.82-2.9,10.32-4.2s6.89-2.51,10.4-3.62l2.44,7.3Z" style="fill:#ffb573"></path><path d="M145.13,291.51a16.67,16.67,0,0,0-5.67-3c-3-.76-1.26.94-1.26.94s-4.86.73-5.54,1,1.63,2,1.63,2l-1.75,2.27,4.2-.26s-3.51,6.44-4.2,7.79,2.44,1.23,2.44,1.23l-4.7,4.61,2.52,2-2.88,7.06h1.93l-5.7,10.6s2.65,4.73,3.77,4.46,15.21-2.44,15.21-2.44,2.07.38,1.13-1.31-2.09-8.43-2.35-9.53,1-.42,1-.83-2.14-5.59-2.14-5.59,1.16-.16,1.17-.47-1.17-8.73-1.17-8.73,2.54,3.15,2.41,2.25-1.24-7.56-1.24-7.56l.83,1.81S145.93,293.48,145.13,291.51Z" style="fill:#40757D"></path><path d="M139.6,329.56s3.44-4.86,6.66-5.39-.94,2.66-.94,2.66l6.21-2.66-1.42,2.67h2.41s-3.41,1.41-4.65,3.18c0,0,10.72,8.16,14.41,12.2s-1.22,1-1.22,1l-.36,4.79-4.1-3.22-.93,7.54-4-2.24-2.55,9.36-8.34-3.19L135,358.68l-3.81-6.31-5.65,2.47-4-4.92-2.37,3.46s-4.69-16.12,0-23.63l-2-5.58,3.52,2.68v-1.52a9.22,9.22,0,0,1,3.78,2.61s.37-4.63,1.72-6.08c0,0,1.67,3.43,1.4,5.88,0,0,1.77-3.8,3.81-2.41a21.37,21.37,0,0,1,3.61,3.22V325.6S139.27,326.7,139.6,329.56Z" style="fill:#40757D"></path><path d="M144.74,299.88s1.2-6.39.39-8.37a16.84,16.84,0,0,0-5.68-3c-3-.75-1.25.94-1.25.94s-4.86.73-5.54,1,1.63,2,1.63,2l-1.75,2.27,4.2-.25s-3.51,6.43-4.2,7.78,2.44,1.23,2.44,1.23l-4.69,4.61,2.51,2-2.89,7.05h1.94l-2.29,4.26c.73,1.25,1.3,2.5,1.3,2.5s.31-2,.82-2.12S132.9,324,132.9,324s.24-2.45,3.43-1.54a6,6,0,0,1,4,3.12,25.94,25.94,0,0,1,4.21-3.27c-.32-1.53-.57-2.85-.66-3.29-.26-1.11,1-.43,1-.83s-2.14-5.58-2.14-5.58,1.16-.17,1.17-.49-1.17-8.72-1.17-8.72,2.55,3.14,2.4,2.25-1.23-7.56-1.23-7.56Zm-3.53,3.18a1.94,1.94,0,0,1-.09.76.65.65,0,0,1-.58.42.91.91,0,0,1-.56-.33l-.65-.62a1.55,1.55,0,0,1-.36-.45.52.52,0,0,1,0-.55,1.1,1.1,0,0,1,.47-.27c.17-.08.34-.22.33-.4l.07.2a1.83,1.83,0,0,1,.41-1.35,1.7,1.7,0,0,1,.27,1.09,1.26,1.26,0,0,0,.41,1,.76.76,0,0,1,.16.11A.5.5,0,0,1,141.21,303.06Zm-3.72,10.12c-.1.21-1.16-1.07-1.16-1.07s-.58,1.18-1.34,0,1.34-2.88,1.34-2.88.85-1.44,1.16-1.29-.21,1.68,0,2.7.81-.32.81-.32S137.58,313,137.49,313.18Zm1.11-22.35c.5-.47,2-.9,2.29,0a1.94,1.94,0,0,1,.08.76.76.76,0,0,1-.09.42.26.26,0,0,1-.38,0l-.06-.41a3.83,3.83,0,0,0-.88.58,1.17,1.17,0,0,1-1,.24,1.33,1.33,0,0,1,.31-1,.62.62,0,0,0,.15-.22C139.07,291,138.81,290.88,138.6,290.83Zm3,30.17-.15,1a1,1,0,0,1-.08.29.52.52,0,0,1-.63.24.58.58,0,0,1-.36-.58c0,.2,0,.41,0,.61a1.09,1.09,0,0,1-1.13-.41,2.51,2.51,0,0,1-.42-1.19c-.14-1.16,1.11-1,1.44-2a1.77,1.77,0,0,1,.49.89,1.19,1.19,0,0,0,.64.8.4.4,0,0,1,.18.07A.33.33,0,0,1,141.56,321Z" style="fill:#fff;opacity:0.2"></path><path d="M162.28,342.23c-.33-.37-.73-.78-1.18-1.21-.73.57-3.23-.78-2.57-1.83l.56.43c0-.19-.08-.38-.12-.57-1.81-1.59-3.89-3.32-5.77-4.83a1,1,0,0,1-1.14-.15c-.13-.14-.2-.35-.35-.49s-.43-.17-.51,0a1.46,1.46,0,0,1-.07.19.23.23,0,0,1-.3,0,.92.92,0,0,1-.23-.25c-.33-.5-.89-.85-1.06-1.42a2.13,2.13,0,0,1,0-.85L147.87,330c1.24-1.77,4.65-3.18,4.65-3.18h-2.41l1.42-2.67-6.21,2.66s4.15-3.18.94-2.66-6.66,5.39-6.66,5.39c-.33-2.86-4.61-4-4.61-4v2.95a21.37,21.37,0,0,0-3.61-3.22c-2-1.39-3.81,2.41-3.81,2.41.27-2.45-1.4-5.88-1.4-5.88-1.35,1.45-1.72,6.08-1.72,6.08a9.22,9.22,0,0,0-3.79-2.61v1.52l-3.51-2.68,2,5.58c-4.69,7.51,0,23.63,0,23.63l2.37-3.46,4,4.92,5.65-2.47,3.81,6.31,5.76-2.38,8.34,3.19,2.55-9.36,4,2.24.93-7.54,4.1,3.22.36-4.79S166,346.26,162.28,342.23Zm-41.32,5a1.63,1.63,0,0,1-.21.72.65.65,0,0,1-.63.34.91.91,0,0,1-.6-.55,4.13,4.13,0,0,1-.58-2.42c.11-.52.24-.37.55-.65a4,4,0,0,0,.75-1c.17,0,.22.22.22.38s0,.54,0,.81a.75.75,0,0,0,.09.47c.1.12.33.16.41,0A8.09,8.09,0,0,1,121,347.19Zm3.72-9.41a1.6,1.6,0,0,1-.68-1c0-.17-.1-.39-.27-.38s-.28.29-.46.26c-.41-.05-.21-3.47.59-3.21.2.07.22.32.24.53s.15.46.35.41c-.09-.13.15-.28.27-.19a.53.53,0,0,1,.15.44A14.7,14.7,0,0,1,124.68,337.78Zm10.6,8.19a1.35,1.35,0,0,1-1.38-.62c0,.21,0,.42,0,.63a1.13,1.13,0,0,1-1.22-.53c-.07-.19-.07-.4-.15-.58s-.35-.32-.49-.18-.07.12-.13.16a.24.24,0,0,1-.3-.07.84.84,0,0,1-.12-.31c-.13-.59-.55-1.11-.5-1.71,0-.42.49-1.51,1.05-1.28a.84.84,0,0,1,.24.18,4.56,4.56,0,0,1,.66.92c.07.12.17.27.3.25a.34.34,0,0,0,.15-.09,2.62,2.62,0,0,0,.61-.79l.89,1.67a2.76,2.76,0,0,1,.25.52A4.18,4.18,0,0,1,135.28,346Zm3.66-11.59c-.39-.59-.29-1.19.29-1.24a7,7,0,0,1,1.15.15,1.48,1.48,0,0,1,.83.8,1.89,1.89,0,0,0,.85,1c.07,0,.16,0,.2.12a.28.28,0,0,1,0,.18v.87a.45.45,0,0,1,0,.23.43.43,0,0,1-.17.12c-.86.38-1.38-.23-1.83-.85S139.29,334.88,138.94,334.38ZM144.51,354a.32.32,0,0,1-.19.1,1.39,1.39,0,0,1-1.17-.32,1.41,1.41,0,0,1-.46-1.12c-.14,2.05-3.44-.89-2.26-1.87l.41.58c.1-.61.1-1.26.14-1.88a10,10,0,0,1,1.07,1.27c.1,0,.16-.13.16-.23a.8.8,0,0,1,0-.31.32.32,0,0,1,.37-.13.94.94,0,0,1,.37.22l1,.82a1.09,1.09,0,0,1,.47,1l.12,1.71A.38.38,0,0,1,144.51,354Zm9.11-10.08a.36.36,0,0,1,0,.11.19.19,0,0,1-.14.05,3.3,3.3,0,0,1-3.31-2.05,1.09,1.09,0,0,1,.71.1,2.34,2.34,0,0,0-.31-1.46c.54-.15.91.64,1.46.7.15,0,.29,0,.43,0a.92.92,0,0,1,.33.19A2.72,2.72,0,0,1,153.62,343.94Z" style="fill:#fff;opacity:0.2"></path><path d="M129.24,410.68l-2.49-1.63a7.4,7.4,0,0,0-1.51,1.72,16.81,16.81,0,0,0-1.5,6,.79.79,0,0,0,.61.94l.17,0c2.11,0,3.65-.16,6.3-.16,1.64,0,6.56.17,8.82.17s2.55-2.23,1.63-2.44c-4.15-.9-9.74-3-9.79-4.14A7,7,0,0,0,129.24,410.68Z" style="fill:#ffb573"></path></g></g></svg>
