<svg xmlns="http://www.w3.org/2000/svg" viewBox="0 0 500 500"><g id="freepik--background-complete--inject-6"><path d="M237,337.8H43.91a5.71,5.71,0,0,1-5.7-5.71V60.66A5.71,5.71,0,0,1,43.91,55H237a5.71,5.71,0,0,1,5.71,5.71V332.09A5.71,5.71,0,0,1,237,337.8ZM43.91,55.2a5.46,5.46,0,0,0-5.45,5.46V332.09a5.46,5.46,0,0,0,5.45,5.46H237a5.47,5.47,0,0,0,5.46-5.46V60.66A5.47,5.47,0,0,0,237,55.2Z" style="fill:#ebebeb"></path><path d="M453.31,337.8H260.21a5.72,5.72,0,0,1-5.71-5.71V60.66A5.72,5.72,0,0,1,260.21,55h193.1A5.71,5.71,0,0,1,459,60.66V332.09A5.71,5.71,0,0,1,453.31,337.8ZM260.21,55.2a5.47,5.47,0,0,0-5.46,5.46V332.09a5.47,5.47,0,0,0,5.46,5.46h193.1a5.47,5.47,0,0,0,5.46-5.46V60.66a5.47,5.47,0,0,0-5.46-5.46Z" style="fill:#ebebeb"></path><rect x="175.24" y="186.68" width="351.24" height="163.84" transform="translate(82.26 619.46) rotate(-90)" style="fill:#e0e0e0"></rect><polygon points="268.94 444.23 268.94 103.94 192.4 100.98 192.4 444.23 268.94 444.23" style="fill:#fafafa"></polygon><polygon points="268.94 444.23 268.94 92.98 209.12 81.67 209.12 444.23 268.94 444.23" style="fill:#f0f0f0"></polygon><rect x="276.94" y="100.98" width="147.84" height="335.24" style="fill:#ebebeb"></rect><path d="M276.94,101v144.4C298,305.76,343,142.67,344.14,101Z" style="fill:#f5f5f5"></path><path d="M424.78,101V216c-21.06,48.09-66.08-81.81-67.2-115Z" style="fill:#f5f5f5"></path><rect x="206" y="81.67" width="3.13" height="362.56" style="fill:#e0e0e0"></rect><rect x="-24.72" y="181.81" width="286.87" height="108.45" transform="translate(-117.32 354.75) rotate(-90)" style="fill:#e0e0e0"></rect><rect x="72.49" y="100.6" width="92.45" height="270.87" style="fill:#f5f5f5"></rect><polygon points="106.48 371.47 80.1 371.47 104.57 100.6 130.95 100.6 106.48 371.47" style="fill:#fff"></polygon><polygon points="124.52 371.47 115.04 371.47 139.51 100.6 148.98 100.6 124.52 371.47" style="fill:#fff"></polygon></g><g id="freepik--Shadow--inject-6"><polygon points="457.33 457.67 42.67 468.33 42.67 441.22 457.33 441.22 457.33 457.67" style="fill:#f5f5f5"></polygon></g><g id="freepik--Plant--inject-6"><path d="M266.33,410.83a1,1,0,0,1-1-.9l-.12-1.19c-1.53-15.23-3.83-38.23-23.49-59.73a1,1,0,0,1,.07-1.42,1,1,0,0,1,1.41.07c20.1,22,22.54,46.33,24,60.88l.12,1.19a1,1,0,0,1-.9,1.1Z" style="fill:#FFC100"></path><path d="M264.11,389.6c-7.37,3.11-17.54,2.89-18-.36s5-.18,7.66-2.95-8.18-.17-11.27-1.12-2.35-3.44,4.74-3.46.92-4.76-5.62-2.21c-7,2.71-11-.64-4.65-2.68s8.33-.77,8.63-3.08c.53-4.06-15.17,4.06-17.85.16s7.59-1.66,10.78-5.86-11,2.58-13.15-.2,4.51-1.77,8.87-4.36-10.41.59-10.27-3.72c.1-3.1,6.29,1.11,10.2-2.22s-12.53-.58-11.65-3.42,7.71.48,10.49-2.55-7.07-1.55-6.85-4.74,5.34,1,7.6-.57-6.75-3.65-5.92-6,3.78-2.75,7.06,1.35c2.67,3.31,2.61-1.78,2.27-5.87-.42-5.13,3.86-4,4.11-.95.44,5.08,3.19,8.49,3.52,5.3.52-5.05,2.09-8.06,4.61-7s-2.32,7.46.55,7.12,2.92-6.46,5.72-4.38-5.25,7.23-.81,7.58,5.35-5.21,8.32-3.79-7.67,7.77-4.16,8.65c5.31,1.35,7.24-7.57,9.88-5.49,3.68,2.9-10.07,10-4.76,10.22s6.09-6.82,8.41-2.72c2.63,4.67-13.52,7.09-7.82,8s10.94-7.08,12.32-2.71-17.22,7.85-13.48,10.33c2.12,1.41,3.33-1.27,9.53-2.52,6.51-1.31,6.39,3.57-1,4.77-6.94,1.13-6.94,9.45-2,5.06s7.5-3.17,6.16-.58-11.05,7.63-6.88,7.85,5.4-5.33,7.76-2.77S271.49,386.49,264.11,389.6Z" style="fill:#FFC100"></path><path d="M293.65,368.56c-.53-1.72-4.67.29-6.35-1.54s4.27-.94,4.15-2.87-3.23.61-4.6-.34,4.08-2.21,3.58-3.62-2.28-1.66-4.27.81c-1.61,2-1.57-1.07-1.37-3.54.25-3.1-2.33-2.4-2.49-.58-.26,3.08-1.92,5.13-2.12,3.21-.32-3-1.27-4.87-2.79-4.21s1.4,4.51-.33,4.3-1.77-3.9-3.46-2.64,3.17,4.37.49,4.58-3.23-3.15-5-2.29,4.64,4.69,2.51,5.23c-3.2.81-4.37-4.58-6-3.32-2.22,1.75,6.09,6.06,2.88,6.18s-3.68-4.13-5.08-1.65c-1.59,2.82,8.17,4.29,4.73,4.83s-6.62-4.28-7.45-1.63,10.41,4.74,8.15,6.24c-1.28.85-2-.77-5.76-1.53-3.94-.79-3.87,2.16.6,2.89,4.2.68,4.19,5.71,1.24,3.05s-4.54-1.91-3.72-.34,6.67,4.6,4.16,4.74-3.27-3.22-4.69-1.68,3.23,5.18,7.63,7.08a99.92,99.92,0,0,0-1.67,11.53l-.07.73a.6.6,0,0,0,.54.66h.06a.6.6,0,0,0,.6-.54l.07-.73a102.85,102.85,0,0,1,1.59-11.21c4.34,1.5,9.71,1.27,10-.57s-3-.11-4.63-1.78,4.95-.1,6.81-.68,1.42-2.08-2.86-2.09-.56-2.88,3.4-1.34c4.2,1.64,6.66-.38,2.8-1.62s-5-.46-5.21-1.86c-.32-2.45,9.17,2.45,10.79.1s-4.59-1-6.52-3.54,6.65,1.56,7.95-.12-2.73-1.07-5.36-2.64,6.29.36,6.21-2.25c-.06-1.87-3.8.67-6.17-1.34S294.18,370.28,293.65,368.56Z" style="fill:#FFC100"></path><path d="M293.65,368.56c-.53-1.72-4.67.29-6.35-1.54s4.27-.94,4.15-2.87-3.23.61-4.6-.34,4.08-2.21,3.58-3.62-2.28-1.66-4.27.81c-1.61,2-1.57-1.07-1.37-3.54.25-3.1-2.33-2.4-2.49-.58-.26,3.08-1.92,5.13-2.12,3.21-.32-3-1.27-4.87-2.79-4.21s1.4,4.51-.33,4.3-1.77-3.9-3.46-2.64,3.17,4.37.49,4.58-3.23-3.15-5-2.29,4.64,4.69,2.51,5.23c-3.2.81-4.37-4.58-6-3.32-2.22,1.75,6.09,6.06,2.88,6.18s-3.68-4.13-5.08-1.65c-1.59,2.82,8.17,4.29,4.73,4.83s-6.62-4.28-7.45-1.63,10.41,4.74,8.15,6.24c-1.28.85-2-.77-5.76-1.53-3.94-.79-3.87,2.16.6,2.89,4.2.68,4.19,5.71,1.24,3.05s-4.54-1.91-3.72-.34,6.67,4.6,4.16,4.74-3.27-3.22-4.69-1.68,3.23,5.18,7.63,7.08a99.92,99.92,0,0,0-1.67,11.53l-.07.73a.6.6,0,0,0,.54.66h.06a.6.6,0,0,0,.6-.54l.07-.73a102.85,102.85,0,0,1,1.59-11.21c4.34,1.5,9.71,1.27,10-.57s-3-.11-4.63-1.78,4.95-.1,6.81-.68,1.42-2.08-2.86-2.09-.56-2.88,3.4-1.34c4.2,1.64,6.66-.38,2.8-1.62s-5-.46-5.21-1.86c-.32-2.45,9.17,2.45,10.79.1s-4.59-1-6.52-3.54,6.65,1.56,7.95-.12-2.73-1.07-5.36-2.64,6.29.36,6.21-2.25c-.06-1.87-3.8.67-6.17-1.34S294.18,370.28,293.65,368.56Z" style="fill:#fff;opacity:0.4"></path><polygon points="282.43 396.8 248.21 396.8 254.45 436.24 276.19 436.24 282.43 396.8" style="fill:#263238"></polygon></g><g id="freepik--character-2--inject-6"><polygon points="372.18 436.23 374.82 436.23 369.93 349.63 367.28 349.63 372.18 436.23" style="fill:#FFC100"></polygon><polygon points="372.18 436.23 374.82 436.23 369.93 349.63 367.28 349.63 372.18 436.23" style="fill:#fff;opacity:0.6000000000000001"></polygon><polygon points="345.08 436.23 342.44 436.23 347.33 349.63 349.98 349.63 345.08 436.23" style="fill:#FFC100"></polygon><polygon points="345.08 436.23 342.44 436.23 347.33 349.63 349.98 349.63 345.08 436.23" style="fill:#fff;opacity:0.6000000000000001"></polygon><polygon points="412.76 436.23 415.4 436.23 410.5 349.63 407.86 349.63 412.76 436.23" style="fill:#FFC100"></polygon><polygon points="412.76 436.23 415.4 436.23 410.5 349.63 407.86 349.63 412.76 436.23" style="fill:#fff;opacity:0.6000000000000001"></polygon><polygon points="385.66 436.23 383.01 436.23 387.91 349.63 390.56 349.63 385.66 436.23" style="fill:#FFC100"></polygon><polygon points="385.66 436.23 383.01 436.23 387.91 349.63 390.56 349.63 385.66 436.23" style="fill:#fff;opacity:0.6000000000000001"></polygon><path d="M353,337s6.85-64.18,13.67-76.65S447,244.25,442,265.69s-21.74,83.94-28.48,83.94H330.3C330.3,331.3,353,337,353,337Z" style="fill:#FFC100"></path><path d="M353,337s6.85-64.18,13.67-76.65S447,244.25,442,265.69s-21.74,83.94-28.48,83.94H330.3C330.3,331.3,353,337,353,337Z" style="opacity:0.4"></path><polygon points="329.14 427.41 320.91 427.71 319.6 407.39 327.83 407.09 329.14 427.41" style="fill:#ff8b7b"></polygon><path d="M320,426.06l9.48-1.28a.6.6,0,0,1,.7.49l1.47,7.43a1.5,1.5,0,0,1-1.27,1.7c-3.31.39-4.91.41-9.07,1-2.56.35-9.51,2-12.84.73s-2-4.54-.44-4.29c3.61.58,8.47-2.84,10.59-5A2.46,2.46,0,0,1,320,426.06Z" style="fill:#263238"></path><path d="M326.45,407.46l-8.29.35a.91.91,0,0,0-.84,1.09l1.88,8.71a.9.9,0,0,0,1,.7l8.2-.72a.9.9,0,0,0,.8-1.09l-1.8-8.33A.89.89,0,0,0,326.45,407.46Z" style="fill:#263238"></path><path d="M362.76,304.94s-57.26,10.85-57,29.37c.33,22.64,5.67,65.33,9.2,77.88a4.55,4.55,0,0,0,4.67,3.3l7.21-.46a4.54,4.54,0,0,0,4.24-5c-1.27-13.08-3.17-50.31-1.2-69.13,15.81,0,50.79-.36,54.86-11.62a86.79,86.79,0,0,0,4.61-23.66Z" style="fill:#FFC100"></path><path d="M362.76,304.94s-57.26,10.85-57,29.37c.33,22.64,5.67,65.33,9.2,77.88a4.55,4.55,0,0,0,4.67,3.3l7.21-.46a4.54,4.54,0,0,0,4.24-5c-1.27-13.08-3.17-50.31-1.2-69.13,15.81,0,50.79-.36,54.86-11.62a86.79,86.79,0,0,0,4.61-23.66Z" style="fill:#fff;opacity:0.30000000000000004"></path><polygon points="373.48 423.75 365.14 425.47 357.36 406.95 365.69 405.24 373.48 423.75" style="fill:#ff8b7b"></polygon><path d="M364,424.35l9.15-2.77a.61.61,0,0,1,.77.38l2.64,7.1a1.51,1.51,0,0,1-1,1.88c-3.2.91-4.78,1.18-8.8,2.4-2.48.75-9.07,3.5-12.56,2.76s-2.67-4.17-1.12-4.17c3.66,0,7.91-4.15,9.66-6.65A2.43,2.43,0,0,1,364,424.35Z" style="fill:#263238"></path><path d="M366.12,405.16l-8.37,1.72a.9.9,0,0,0-.66,1.19l3,8.33a.9.9,0,0,0,1.07.56l8.23-2.07a.9.9,0,0,0,.63-1.18l-2.89-8A.91.91,0,0,0,366.12,405.16Z" style="fill:#263238"></path><path d="M386.19,305.28s-61.5,10.64-59.28,29c2.73,22.53,22.44,65,28.31,77.32a4.53,4.53,0,0,0,5.28,2.42l6.58-1.76a4.54,4.54,0,0,0,3.19-5.62c-3.34-11.89-12.37-45.16-15.13-67.13,15.81,0,46.68,1,50.75-10.23a87,87,0,0,0,4.62-23.66Z" style="fill:#FFC100"></path><path d="M386.19,305.28s-61.5,10.64-59.28,29c2.73,22.53,22.44,65,28.31,77.32a4.53,4.53,0,0,0,5.28,2.42l6.58-1.76a4.54,4.54,0,0,0,3.19-5.62c-3.34-11.89-12.37-45.16-15.13-67.13,15.81,0,46.68,1,50.75-10.23a87,87,0,0,0,4.62-23.66Z" style="fill:#fff;opacity:0.4"></path><path d="M383.2,251.82c-.46,3.08-1,6-1.69,8.92s-1.38,5.86-2.23,8.78-1.78,5.84-2.92,8.77a47.62,47.62,0,0,1-4.41,9l-.21.32a4.58,4.58,0,0,1-1.15,1.21,24.81,24.81,0,0,1-6.79,3.36A34.92,34.92,0,0,1,357,293.6a42.81,42.81,0,0,1-6.58.21A39.7,39.7,0,0,1,344,293a3.23,3.23,0,0,1,.07-6.33l.27,0c1.73-.32,3.68-.67,5.47-1.09s3.59-.9,5.28-1.47a32.63,32.63,0,0,0,4.71-2,16.53,16.53,0,0,0,3.62-2.49L362,281.18a45.21,45.21,0,0,0,2.73-7c.79-2.58,1.51-5.26,2.18-8s1.28-5.48,1.86-8.25,1.15-5.61,1.68-8.28l0-.09a6.45,6.45,0,0,1,12.7,2.21Z" style="fill:#ff8b7b"></path><path d="M385.41,237.43c-7.18.52-14.42,4.92-19.45,14.79,7.37,6,18,10.06,18,10.06S395.31,244.14,385.41,237.43Z" style="fill:#FFC100"></path><path d="M386.49,237.21A130.11,130.11,0,0,1,407.91,236a16,16,0,0,1,15.46,17.56c-1.71,19.19-8.17,42.09-12.86,52.14h-48A228.83,228.83,0,0,0,372.87,252,16,16,0,0,1,386.49,237.21Z" style="fill:#FFC100"></path><path d="M423.56,245.49c.39.92.67,1.63,1,2.44s.57,1.57.84,2.35c.53,1.58,1,3.16,1.5,4.76a85.42,85.42,0,0,1,2.19,9.8,63.12,63.12,0,0,1,.87,10.29A40.1,40.1,0,0,1,428.56,286l-.09.34a5.23,5.23,0,0,1-1.94,2.82,34.46,34.46,0,0,1-10.74,5.16,61.73,61.73,0,0,1-10.71,2.14,89.13,89.13,0,0,1-10.54.54c-1.75,0-3.49-.08-5.22-.18s-3.44-.24-5.25-.48a3.21,3.21,0,0,1,.1-6.37h.12c3.15-.31,6.47-.68,9.66-1.21s6.38-1.09,9.46-1.85a61.81,61.81,0,0,0,8.82-2.77,26,26,0,0,0,7.06-4.09l-2,3.16a32.7,32.7,0,0,0,.38-7.75,63,63,0,0,0-1.14-8.34c-.58-2.81-1.29-5.64-2.11-8.45-.41-1.41-.84-2.81-1.31-4.19l-.72-2.07c-.23-.66-.5-1.41-.7-1.94l-.06-.13a6.45,6.45,0,0,1,12-4.83Z" style="fill:#ff8b7b"></path><path d="M412.39,236.72c7,1.66,13.46,7.15,16.86,17.7-8.24,4.75-19.36,7.07-19.36,7.07S401.55,241.78,412.39,236.72Z" style="fill:#FFC100"></path><path d="M348.13,287l-8.35-2.77.55,10.87s5.8,1.15,9.17-2.55Z" style="fill:#ff8b7b"></path><path d="M389.83,237.63c3.09-1,4.65-5,2.37-9l9.23-7.86c.87,4.74,2,11.53,4.22,15.14a2.86,2.86,0,0,1-.18,3.26c-1.29,1.67-4.22,3.75-10.77,3.83-7.89.1-7.41-2.58-6.48-4.12A2.93,2.93,0,0,1,389.83,237.63Z" style="fill:#ff8b7b"></path><path d="M392.84,230l7.19-4.66a15.54,15.54,0,0,1-.5,3.26c-.66,2.53-3.71,4.87-6.58,5.88A6.6,6.6,0,0,0,392.84,230Z" style="opacity:0.2"></path><path d="M402.88,208.74c1.12,8.39,2.19,13.23-1.12,18.45a11,11,0,0,1-19.44-1.41c-3.22-7-4.51-19.56,2.88-24.72A11.14,11.14,0,0,1,402.88,208.74Z" style="fill:#ff8b7b"></path><path d="M404.09,202.45c2.92-2.87,2.48-8.28-2.4-8.72a11.47,11.47,0,0,0-7.66,1.73s-12.38-4-18.32,3.43c-5,6.29,3.05,6.44,3.05,6.44s-6.89,7.94,5.92,5.21a34.39,34.39,0,0,0,13.7-6.87S398.39,205.42,404.09,202.45Z" style="fill:#263238"></path><path d="M395.33,203.83c-.29,1.27-2.6,4.52-4.51,6.09,1.08-.31,5.71-3.18,7.36-6.08A24.61,24.61,0,0,1,395.33,203.83Z" style="fill:#263238"></path><path d="M404.68,202.92c1.13-.64,2.82-1.51,7.54-.81-2.54-1.72-6.21-2.05-9.46-1.29A22.19,22.19,0,0,1,404.68,202.92Z" style="fill:#263238"></path><path d="M381.34,203.93c-1,2.59-5.37,5.72-10.15,1.45a6.88,6.88,0,0,0,8.85-2.65A2,2,0,0,0,381.34,203.93Z" style="fill:#263238"></path><path d="M400.39,195.7c-2.3,1.51-10,1-9-4.84,1.54,2.93,6.07,2.64,9.39,2.83A18.54,18.54,0,0,0,400.39,195.7Z" style="fill:#263238"></path><path d="M402.83,215.05a15.92,15.92,0,0,1-5.93-12.53s8.19-2.86,12.2.72C412.13,205.94,410.32,217.44,402.83,215.05Z" style="fill:#263238"></path><path d="M407.39,213.77a7.55,7.55,0,0,1-2.71,4.6c-1.88,1.45-3.88-.46-3.94-2.79-.05-2.1,1.24-5,3.4-5.57S407.77,211.51,407.39,213.77Z" style="fill:#ff8b7b"></path><path d="M389.7,215.94c.13.67-.11,1.3-.55,1.4s-.9-.36-1-1,.11-1.3.55-1.4S389.57,215.26,389.7,215.94Z" style="fill:#263238"></path><path d="M382.15,217.69c.13.68-.12,1.3-.56,1.41s-.89-.37-1-1,.12-1.3.56-1.4S382,217,382.15,217.69Z" style="fill:#263238"></path><path d="M384.66,217.66a21.82,21.82,0,0,1-1.38,5.64,3.31,3.31,0,0,0,2.8-.31Z" style="fill:#ff5652"></path><path d="M387.46,226.77a5.84,5.84,0,0,0,3.82-2.62.2.2,0,0,0-.07-.27.21.21,0,0,0-.28.08,5.63,5.63,0,0,1-4.3,2.53.2.2,0,0,0,0,.4A4.84,4.84,0,0,0,387.46,226.77Z" style="fill:#263238"></path><path d="M392.82,211.63a.32.32,0,0,0,.14-.14.4.4,0,0,0-.16-.55,3.87,3.87,0,0,0-3.64-.1.4.4,0,0,0-.15.55.41.41,0,0,0,.55.15,3.05,3.05,0,0,1,2.86.11A.38.38,0,0,0,392.82,211.63Z" style="fill:#263238"></path><path d="M378.52,215.05a.4.4,0,0,0,.32-.2,3.39,3.39,0,0,1,2.44-1.71.4.4,0,0,0,.37-.43.4.4,0,0,0-.43-.37h0a4.13,4.13,0,0,0-3.07,2.1.4.4,0,0,0,.14.55A.42.42,0,0,0,378.52,215.05Z" style="fill:#263238"></path><path d="M354.6,275.58c-.54-2.44,2.74-4.18,7-3.94s8.06,1.5,11.55.26l3.08,2.59Z" style="fill:#FFC100"></path><path d="M354.6,275.58c-.54-2.44,2.74-4.18,7-3.94s8.06,1.5,11.55.26l3.08,2.59Z" style="fill:#fff;opacity:0.8"></path><path d="M364.9,310.34l19.66-1c.47,0,.76-.51.63-1.08l-7.47-33.65a1.19,1.19,0,0,0-1.09-1l-19.66,1c-.47,0-.76.51-.63,1.08l7.47,33.65A1.19,1.19,0,0,0,364.9,310.34Z" style="fill:#263238"></path><path d="M354.67,275.91c-.54-2.44-3.6-4.68-6.8-5.39s-5.89-.59-9.1-2.69l-1.39,2Z" style="fill:#FFC100"></path><path d="M354.67,275.91c-.54-2.44-3.6-4.68-6.8-5.39s-5.89-.59-9.1-2.69l-1.39,2Z" style="fill:#fff;opacity:0.8"></path><path d="M360.37,310.08l-15.75-5.51a1.89,1.89,0,0,1-.92-1.28l-7.46-33.65c-.13-.57.08-.93.46-.79l15.74,5.51a1.82,1.82,0,0,1,.92,1.27l7.47,33.66C361,309.86,360.75,310.21,360.37,310.08Z" style="fill:#263238"></path><path d="M344.35,286.86l.8,3.72a2.87,2.87,0,0,1-1.53,3.18l-2.31,1.15a1.86,1.86,0,0,1-2.67-1.44l-.83-6.6a1.87,1.87,0,0,1,1.66-2.08l1.77-.18A2.89,2.89,0,0,1,344.35,286.86Z" style="fill:#ff8b7b"></path><path d="M363.73,310.55l-2.77-.17a.55.55,0,0,1-.45-.43l-7.74-34.9c0-.23.07-.4.26-.39l2.77.18a.54.54,0,0,1,.45.43l7.74,34.9C364,310.39,363.92,310.57,363.73,310.55Z" style="fill:#263238"></path><path d="M386.61,289.92l-8.35-2.77L379,298.3s5.64.87,9-2.83Z" style="fill:#ff8b7b"></path><path d="M372,290.25l-.09,3.8a2.88,2.88,0,0,0,2.1,2.85l5,1.4-.71-11.15-3.66.31A2.88,2.88,0,0,0,372,290.25Z" style="fill:#ff8b7b"></path></g><g id="freepik--Canvas--inject-6"><polygon points="106.72 436 103.05 436 124.35 145.67 128.02 145.67 106.72 436" style="fill:#FFC100"></polygon><polygon points="140.22 436 143.89 436 137.72 145.67 134.05 145.67 140.22 436" style="fill:#FFC100"></polygon><rect x="105.2" y="313.33" width="46.17" height="8" style="fill:#FFC100"></rect><rect x="120.58" y="153.67" width="23.3" height="8" style="fill:#FFC100"></rect><polygon points="190.27 315.89 88.04 315.89 75.4 157.67 177.62 157.67 190.27 315.89" style="fill:#FFC100"></polygon><polygon points="190.27 315.89 90.48 315.89 77.84 157.67 177.62 157.67 190.27 315.89" style="fill:#fff;opacity:0.4"></polygon><path d="M83.24,225.23S120,227,146.92,243c11.56-12.44,26.64-19.76,36.1-17.77l7.25,90.66H90.48Z" style="fill:#fff;opacity:0.2"></path><path d="M184.93,249.12s-31.46,1-58.35,12.82c-9.66-10.27-33.88-10.94-40.84-5.36l4.74,59.31h99.79Z" style="fill:#fff;opacity:0.2"></path><path d="M145,199.39c-1-6.2-6.4-11.22-12.16-11.22s-9.64,5-8.68,11.22,6.41,11.22,12.16,11.22S146,205.59,145,199.39Z" style="fill:#fff"></path></g><g id="freepik--character-1--inject-6"><path d="M218,170c-1.18,5.1-2.5,14.45.95,17.86a27.28,27.28,0,0,1-12.66,10.38c-6.68-4.27-3.2-10.38-3.2-10.38,5.74-1.36,5.74-5.58,4.88-9.55Z" style="fill:#ffc3bd"></path><path d="M219,192.79a9.16,9.16,0,0,0,3.78-6.67S218,183,202.21,187a91.35,91.35,0,0,0-6.56,6.44s1,1.53,5.29,1.92S219,192.79,219,192.79Z" style="fill:#FFC100"></path><path d="M219,192.79a9.16,9.16,0,0,0,3.78-6.67S218,183,202.21,187a91.35,91.35,0,0,0-6.56,6.44s1,1.53,5.29,1.92S219,192.79,219,192.79Z" style="fill:#fff;opacity:0.7000000000000001"></path><path d="M233.13,195.64c2.29,3.91,4.4,7.83,6.4,11.87A124.81,124.81,0,0,1,245.09,220l.58,1.7.53,1.79a7.37,7.37,0,0,1,.3,1.53,7.47,7.47,0,0,1-.06,1.78,8.36,8.36,0,0,1-1,2.81,13.68,13.68,0,0,1-2.89,3.43,24.84,24.84,0,0,1-3,2.28,52.1,52.1,0,0,1-12.76,5.73l-1.71-4a83.39,83.39,0,0,0,10.38-7.24,22.58,22.58,0,0,0,2-2,6.31,6.31,0,0,0,1.2-1.77c.08-.22.09-.36.05-.33a.22.22,0,0,0,0,.12s0,.07,0,.1a1.91,1.91,0,0,1-.07-.18l-.5-1.36-.6-1.41c-1.68-3.8-3.68-7.68-5.71-11.52L225.51,200Z" style="fill:#ffc3bd"></path><path d="M217.71,236l9.09.88,2.52,2.47c-.92,2.29-3.71,3.29-5.4,3.7h0l-6,2.14a2.68,2.68,0,0,1-3.08-.94l-1.34-1.8a2.93,2.93,0,0,1,.71-4.16Z" style="fill:#ffc3bd"></path><path d="M225.88,188.72c3.59.17,7.28.82,14,14.93-3.58,4.69-11.88,8.45-11.88,8.45l-3.26-4.22c-3.91-8.37,1.18-19.16,1.18-19.16" style="fill:#263238"></path><path d="M187.19,199.79c0,7.29.78,20,3.61,42.13h34.92c-.07-12.68-.39-21.13,5.09-43.5a8.23,8.23,0,0,0-7.16-10.25c-1.47-.15-3.05-.28-4.67-.36a111.82,111.82,0,0,0-15.86,0c-2,.18-4.13.45-6.09.74A11.49,11.49,0,0,0,187.19,199.79Z" style="fill:#263238"></path><path d="M196.56,197.5c-.47,1.38-.92,2.51-1.44,3.73s-1.06,2.36-1.62,3.53a69.11,69.11,0,0,1-3.88,6.77c-.72,1.1-1.47,2.18-2.27,3.25s-1.67,2.08-2.57,3.08a34.49,34.49,0,0,1-6.22,5.46l-.82.56-.84.13a6.1,6.1,0,0,1-2.57-.17,7,7,0,0,1-1.75-.76,10.68,10.68,0,0,1-2.17-1.73,24.55,24.55,0,0,1-2.7-3.39,57.59,57.59,0,0,1-3.79-6.79c-1.07-2.29-2-4.59-3-6.9s-1.74-4.65-2.47-7.06l4-1.67c1.16,2.09,2.33,4.22,3.54,6.3s2.4,4.15,3.68,6.13a60.3,60.3,0,0,0,3.95,5.64,15.5,15.5,0,0,0,2,2.17,3.34,3.34,0,0,0,.73.5c.14.07-.07-.19-.83-.1l-1.66.69a30,30,0,0,0,4.5-4.51,52.86,52.86,0,0,0,3.84-5.47c1.19-1.93,2.25-4,3.26-6,.5-1,1-2.08,1.44-3.13s.91-2.17,1.26-3.09Z" style="fill:#ffc3bd"></path><path d="M200.31,196.41c0-3.81-3.28-7.86-3.28-7.86-5.84,1.21-11.3,3.53-15,15.55,2.28,6,10.39,10.62,10.39,10.62l5.47-10S200.27,200.23,200.31,196.41Z" style="fill:#263238"></path><path d="M149.18,187.37c-.66-.76-2-.33-2.71.62s-.68,2.76.7,4.87C147.51,191.25,150.87,189.31,149.18,187.37Z" style="fill:#fff"></path><path d="M163.72,186.79a25.2,25.2,0,0,1-3.84.63c-1.29.1-2.58.21-3.86.38l-3.86.49-1.93.18a5.24,5.24,0,0,1-2-.13.19.19,0,0,1,0-.35,5.51,5.51,0,0,1,1.9-.52l1.93-.2,3.88-.29c1.29-.09,2.57-.24,3.86-.4a23.9,23.9,0,0,1,3.88-.14.17.17,0,0,1,.17.18A.18.18,0,0,1,163.72,186.79Z" style="fill:#263238"></path><path d="M163,193.18l-.87-4-3.39-3.37a1.78,1.78,0,0,0-2.67.17L154,188.76a1.79,1.79,0,0,0-.07,2.09l3,4.46s1.73,4.94,5,5.5A10.55,10.55,0,0,0,163,193.18Z" style="fill:#ffc3bd"></path><path d="M200.24,159.31c-.15.69-.63,1.18-1.07,1.1s-.69-.7-.54-1.38.62-1.18,1.07-1.1S200.38,158.63,200.24,159.31Z" style="fill:#263238"></path><path d="M199.88,158l-1.53-.77S198.92,158.67,199.88,158Z" style="fill:#263238"></path><path d="M199.88,154.68a.38.38,0,0,1-.22-.21.42.42,0,0,1,.2-.54,4,4,0,0,1,3.72,0,.39.39,0,0,1,.12.56.42.42,0,0,1-.56.14,3.19,3.19,0,0,0-2.94,0A.45.45,0,0,1,199.88,154.68Z" style="fill:#263238"></path><path d="M199.88,161.2a19.58,19.58,0,0,1-3.34,3.93,2.88,2.88,0,0,0,2.32.88Z" style="fill:#ed847e"></path><path d="M223.74,160.59c-2.29,8.3-3.08,11.85-8.21,15.41-7.71,5.34-17.31,1.07-17.52-7.66-.19-7.85,3.58-20.1,12.45-22A11.24,11.24,0,0,1,223.74,160.59Z" style="fill:#ffc3bd"></path><path d="M205.54,161.67c-3.92.41-3.58-6-2-7.75-1.89-.44-3.38-1.92-2.46-5s4.42-6.09,10.75-6.84,12.86.59,16.25,8.17,1.17,15.17-4.33,18.5c1.91,2.92-1.34,7.92-10.5,7.58S201.2,165.5,205.54,161.67Z" style="fill:#263238"></path><path d="M226.7,174.19a.26.26,0,0,1-.25-.21c-.34-2.48-1.79-5.26-4.16-5.51a.24.24,0,0,1-.22-.27.25.25,0,0,1,.27-.23c2.64.28,4.24,3.28,4.61,5.94a.25.25,0,0,1-.21.28Z" style="fill:#263238"></path><path d="M228.77,171.68a.26.26,0,0,1-.21-.11c-1.4-2.07-3.93-3.93-6.16-3.11a.26.26,0,0,1-.32-.15.25.25,0,0,1,.15-.32c2.5-.91,5.24,1.07,6.75,3.3a.25.25,0,0,1-.07.35A.23.23,0,0,1,228.77,171.68Z" style="fill:#263238"></path><path d="M219,147.77c-5.07-1.63-9.36-5.1-6.28-7.27s10.92.25,13.67,4S224.75,149.63,219,147.77Z" style="fill:#FFC100"></path><path d="M220.48,145.54c-5.07-1.63-5.59-3.57-6.28-7.28-2.54-13.59,11.69-9.59,16.17.41C232.27,142.91,226.25,147.39,220.48,145.54Z" style="fill:#263238"></path><path d="M216.2,142.63a.26.26,0,0,1-.19-.1c-4.9-6.09-4.62-10.31-2.89-12.08s5.52-1.92,10.15,1.64a.25.25,0,0,1-.3.4c-4.39-3.38-7.93-3.28-9.49-1.69s-1.78,5.59,2.92,11.42a.25.25,0,0,1,0,.35A.25.25,0,0,1,216.2,142.63Z" style="fill:#263238"></path><path d="M190.8,241.92s.68,64.76.33,91c-.37,27.28-8.32,91-8.32,91h6.88s18.82-52.95,16.9-91c5.94-29.21,11.42-91,11.42-91Z" style="fill:#ffc3bd"></path><path d="M190.83,420.54s-7.47-.8-7.8,1.52c-.84,5.94-7.91,11.05-12.77,11-2.09,0-1.41,1.44-.1,2.22,1.92,1.15,8.26,1.35,10.6.11,2.1-1.12,5.9.87,7.77.8,1.57-.07,1.79-.89,1.61-2.66S189.69,423.89,190.83,420.54Z" style="fill:#ffc3bd"></path><path d="M233.73,420.41s-6.48-.82-6.38,1.5c.24,6-5.65,11.2-10.52,11.19-2.09,0-1.09,1.44.39,2.22,2.18,1.15,8.44,1.18,10.69.31,2-.79,4.59.67,6.44.6,1.55-.07,1.72-1.67,1.3-3.48S233.33,423.75,233.73,420.41Z" style="fill:#ffc3bd"></path><path d="M199.92,241.92s14,67.81,19.85,93.18c6.11,26.63,7.69,89.14,7.68,91.12l5.79-2.33s10.3-69.53,1.7-93.18c1-29.62-9.92-88.79-9.92-88.79Z" style="fill:#ffc3bd"></path><path d="M213,306.06a9.38,9.38,0,0,0,1.5,5.25s6.82,2.59,19.85,0c1.25-1.07-.07-5.89-.07-5.89S223.42,308,213,306.06Z" style="fill:#FFC100"></path><path d="M213,306.06a9.38,9.38,0,0,0,1.5,5.25s6.82,2.59,19.85,0c1.25-1.07-.07-5.89-.07-5.89S223.42,308,213,306.06Z" style="fill:#fff;opacity:0.4"></path><path d="M226.56,242.42c.42-.75-.57-3.36-.57-3.36H201.17a7.92,7.92,0,0,0,1.22,3.5s3.78,53.48,10,63.9c1.81,3.07,21.58,2.67,23.3-.83,2.49-5.08-5.49-39.06-5.49-39.06C234.22,254,226.56,242.42,226.56,242.42Z" style="fill:#FFC100"></path><path d="M216.47,265.17a12.64,12.64,0,0,0,7.22-.67s-4.05,9.29-11.55,10.33A25.43,25.43,0,0,0,216.47,265.17Z" style="opacity:0.2"></path><path d="M190,306.06a17.34,17.34,0,0,0,1.2,4.55s5.9,3.52,18.93.9c1.26-1.07,1.15-5.45,1.15-5.45S200.42,308,190,306.06Z" style="fill:#FFC100"></path><path d="M190,306.06a17.34,17.34,0,0,0,1.2,4.55s5.9,3.52,18.93.9c1.26-1.07,1.15-5.45,1.15-5.45S200.42,308,190,306.06Z" style="fill:#fff;opacity:0.4"></path><path d="M218.31,242.67a15.32,15.32,0,0,0,1.33-3.61H189.31a6.66,6.66,0,0,0,.36,3.5s-5.79,55.56-.53,63.44c3.17,4.75,20.3,4.79,23.86-.37s3.47-40.46,3.47-40.46C222.14,256.83,218.31,242.67,218.31,242.67Z" style="fill:#FFC100"></path><path d="M209,162.77a6.59,6.59,0,0,1-3.83,3c-2.13.6-3.13-1.27-2.49-3.26.58-1.78,2.39-4.25,4.5-4S210.05,161,209,162.77Z" style="fill:#ffc3bd"></path></g><g id="freepik--Balcony--inject-6"><rect x="42.67" y="436.22" width="414.67" height="10" style="fill:#263238"></rect><rect x="53.21" y="286.67" width="3" height="156" style="fill:#263238"></rect><rect x="131.33" y="286.67" width="3" height="156" style="fill:#263238"></rect><rect x="209.44" y="286.67" width="3" height="156" style="fill:#263238"></rect><rect x="287.56" y="286.67" width="3" height="156" style="fill:#263238"></rect><rect x="365.67" y="286.67" width="3" height="156" style="fill:#263238"></rect><rect x="443.79" y="286.67" width="3" height="156" style="fill:#263238"></rect><path d="M463.93,312.28v-5a9.06,9.06,0,0,0,0-18.11H36.07a9.06,9.06,0,0,0,0,18.11v5a14.06,14.06,0,0,1,0-28.11H463.93a14.06,14.06,0,0,1,0,28.11Z" style="fill:#263238"></path></g></svg>